<?plantuml 1.2026.1?><svg xmlns="http://www.w3.org/2000/svg" xmlns:xlink="http://www.w3.org/1999/xlink" contentStyleType="text/css" data-diagram-type="DESCRIPTION" height="1552px" preserveAspectRatio="none" style="width:904px;height:1552px;background:#FFFFFF;" version="1.1" viewBox="0 0 904 1552" width="904px" zoomAndPan="magnify"><title>=Stroom Architecture
==Example Two-Node Cluster (non-containerised deployment)</title><defs/><g><g class="title" data-source-line="2"><text fill="#000000" font-family="sans-serif" font-size="18" font-weight="bold" lengthAdjust="spacing" textLength="206.6484" x="341.8042" y="26.708">Stroom Architecture</text><text fill="#000000" font-family="sans-serif" font-size="16" font-weight="bold" lengthAdjust="spacing" textLength="538.8438" x="175.7065" y="45.8047">Example Two-Node Cluster (non-containerised deployment)</text></g><!--cluster proxy_cluster--><g class="cluster" data-qualified-name="proxy_cluster" data-source-line="19" id="ent0007"><rect fill="none" height="196.6" rx="2.5" ry="2.5" style="stroke:#181818;stroke-width:1;" width="512" x="102" y="539.3581"/><text fill="#000000" font-family="sans-serif" font-size="14" font-weight="bold" lengthAdjust="spacing" textLength="114.8506" x="300.5747" y="554.3532">Proxy 'Cluster'</text></g><!--cluster Proxy Node #1--><g class="cluster" data-qualified-name="proxy_cluster.Proxy Node .1" data-source-line="20" id="ent0008"><rect fill="none" height="113.6" rx="35" ry="35" style="stroke:#181818;stroke-width:1;" width="208" x="366" y="590.3581"/><text fill="#000000" font-family="sans-serif" font-size="14" font-weight="bold" lengthAdjust="spacing" textLength="117.0107" x="411.4946" y="610.3532">Proxy Node #1</text></g><!--cluster Proxy Node #2--><g class="cluster" data-qualified-name="proxy_cluster.Proxy Node .2" data-source-line="25" id="ent0011"><rect fill="none" height="113.6" rx="35" ry="35" style="stroke:#181818;stroke-width:1;" width="208" x="134" y="590.3581"/><text fill="#000000" font-family="sans-serif" font-size="14" font-weight="bold" lengthAdjust="spacing" textLength="117.0107" x="179.4946" y="610.3532">Proxy Node #2</text></g><!--cluster stroom_cluster--><g class="cluster" data-qualified-name="stroom_cluster" data-source-line="30" id="ent0013"><rect fill="none" height="374.18" rx="2.5" ry="2.5" style="stroke:#181818;stroke-width:1;" width="265" x="213" y="830.9581"/><text fill="#000000" font-family="sans-serif" font-size="14" font-weight="bold" lengthAdjust="spacing" textLength="118.8428" x="286.0786" y="845.9532">Stroom Cluster</text></g><!--cluster Stroom Node #1--><g class="cluster" data-qualified-name="stroom_cluster.Stroom Node .1" data-source-line="31" id="ent0014"><rect fill="none" height="113.59" rx="35" ry="35" style="stroke:#181818;stroke-width:1;" width="162" x="245" y="881.9581"/><text fill="#000000" font-family="sans-serif" font-size="14" font-weight="bold" lengthAdjust="spacing" textLength="129.5752" x="261.2124" y="901.9532">Stroom Node #1</text></g><!--cluster Stroom Node #2--><g class="cluster" data-qualified-name="stroom_cluster.Stroom Node .2" data-source-line="38" id="ent0017"><rect fill="none" height="113.59" rx="35" ry="35" style="stroke:#181818;stroke-width:1;" width="162" x="260" y="1059.5481"/><text fill="#000000" font-family="sans-serif" font-size="14" font-weight="bold" lengthAdjust="spacing" textLength="129.5752" x="276.2124" y="1079.5432">Stroom Node #2</text></g><!--cluster stroom_all_dbs--><g class="cluster" data-qualified-name="stroom_all_dbs" data-source-line="49" id="ent0022"><rect fill="none" height="96.3" rx="35" ry="35" style="stroke:#181818;stroke-width:1;" width="191" x="7" y="1282.6381"/><text fill="#000000" font-family="sans-serif" font-size="14" font-weight="bold" lengthAdjust="spacing" textLength="110.8447" x="47.0776" y="1302.6332">MySQL Server</text></g><!--cluster shared_storage--><g class="cluster" data-qualified-name="shared_storage" data-source-line="60" id="ent0029"><rect fill="none" height="121.3" rx="35" ry="35" style="stroke:#181818;stroke-width:1;" width="369" x="230" y="1270.1381"/><text fill="#000000" font-family="sans-serif" font-size="14" font-weight="bold" lengthAdjust="spacing" textLength="123.0537" x="352.9731" y="1290.1332">Shared Storage</text></g><!--entity stroom_proxy_local_1--><g class="entity" data-qualified-name="proxy_cluster.Proxy Node .1.stroom_proxy_local_1" data-source-line="21" id="ent0009"><polygon fill="#F1F1F1" points="381.94,635.3581,391.94,625.3581,558.0504,625.3581,558.0504,677.9519,548.0504,687.9519,381.94,687.9519,381.94,635.3581" style="stroke:#181818;stroke-width:0.5;"/><line style="stroke:#181818;stroke-width:0.5;" x1="548.0504" x2="558.0504" y1="635.3581" y2="625.3581"/><line style="stroke:#181818;stroke-width:0.5;" x1="381.94" x2="548.0504" y1="635.3581" y2="635.3581"/><line style="stroke:#181818;stroke-width:0.5;" x1="548.0504" x2="548.0504" y1="635.3581" y2="687.9519"/><text fill="#000000" font-family="sans-serif" font-size="14" font-style="italic" lengthAdjust="spacing" textLength="77.417" x="426.2867" y="658.3532">&#171;java app&#187;</text><text fill="#000000" font-family="sans-serif" font-size="14" lengthAdjust="spacing" textLength="136.1104" x="396.94" y="674.6501">Local Stroom proxy</text></g><!--entity stroom_proxy_local_2--><g class="entity" data-qualified-name="proxy_cluster.Proxy Node .2.stroom_proxy_local_2" data-source-line="26" id="ent0012"><polygon fill="#F1F1F1" points="149.94,635.3581,159.94,625.3581,326.0504,625.3581,326.0504,677.9519,316.0504,687.9519,149.94,687.9519,149.94,635.3581" style="stroke:#181818;stroke-width:0.5;"/><line style="stroke:#181818;stroke-width:0.5;" x1="316.0504" x2="326.0504" y1="635.3581" y2="625.3581"/><line style="stroke:#181818;stroke-width:0.5;" x1="149.94" x2="316.0504" y1="635.3581" y2="635.3581"/><line style="stroke:#181818;stroke-width:0.5;" x1="316.0504" x2="316.0504" y1="635.3581" y2="687.9519"/><text fill="#000000" font-family="sans-serif" font-size="14" font-style="italic" lengthAdjust="spacing" textLength="77.417" x="194.2867" y="658.3532">&#171;java app&#187;</text><text fill="#000000" font-family="sans-serif" font-size="14" lengthAdjust="spacing" textLength="136.1104" x="164.94" y="674.6501">Local Stroom proxy</text></g><!--entity stroom_node_1--><g class="entity" data-qualified-name="stroom_cluster.Stroom Node .1.stroom_node_1" data-source-line="32" id="ent0015"><polygon fill="#F1F1F1" points="260.86,926.9581,270.86,916.9581,391.1491,916.9581,391.1491,969.5519,381.1491,979.5519,260.86,979.5519,260.86,926.9581" style="stroke:#181818;stroke-width:0.5;"/><line style="stroke:#181818;stroke-width:0.5;" x1="381.1491" x2="391.1491" y1="926.9581" y2="916.9581"/><line style="stroke:#181818;stroke-width:0.5;" x1="260.86" x2="381.1491" y1="926.9581" y2="926.9581"/><line style="stroke:#181818;stroke-width:0.5;" x1="381.1491" x2="381.1491" y1="926.9581" y2="979.5519"/><text fill="#000000" font-family="sans-serif" font-size="14" font-style="italic" lengthAdjust="spacing" textLength="77.417" x="282.296" y="949.9532">&#171;java app&#187;</text><text fill="#000000" font-family="sans-serif" font-size="14" lengthAdjust="spacing" textLength="90.2891" x="275.86" y="966.2501">Stroom node</text></g><!--entity stroom_node_2--><g class="entity" data-qualified-name="stroom_cluster.Stroom Node .2.stroom_node_2" data-source-line="39" id="ent0018"><polygon fill="#F1F1F1" points="275.86,1104.5481,285.86,1094.5481,406.1491,1094.5481,406.1491,1147.1419,396.1491,1157.1419,275.86,1157.1419,275.86,1104.5481" style="stroke:#181818;stroke-width:0.5;"/><line style="stroke:#181818;stroke-width:0.5;" x1="396.1491" x2="406.1491" y1="1104.5481" y2="1094.5481"/><line style="stroke:#181818;stroke-width:0.5;" x1="275.86" x2="396.1491" y1="1104.5481" y2="1104.5481"/><line style="stroke:#181818;stroke-width:0.5;" x1="396.1491" x2="396.1491" y1="1104.5481" y2="1157.1419"/><text fill="#000000" font-family="sans-serif" font-size="14" font-style="italic" lengthAdjust="spacing" textLength="77.417" x="297.296" y="1127.5432">&#171;java app&#187;</text><text fill="#000000" font-family="sans-serif" font-size="14" lengthAdjust="spacing" textLength="90.2891" x="290.86" y="1143.8401">Stroom node</text></g><!--entity stroom_db--><g class="entity" data-qualified-name="stroom_all_dbs.stroom_db" data-source-line="50" id="ent0023"><path d="M23.35,1327.6381 C23.35,1317.6381 58.0038,1317.6381 58.0038,1317.6381 C58.0038,1317.6381 92.6576,1317.6381 92.6576,1327.6381 L92.6576,1352.935 C92.6576,1362.935 58.0038,1362.935 58.0038,1362.935 C58.0038,1362.935 23.35,1362.935 23.35,1352.935 L23.35,1327.6381" fill="#F1F1F1" style="stroke:#181818;stroke-width:0.5;"/><path d="M23.35,1327.6381 C23.35,1337.6381 58.0038,1337.6381 58.0038,1337.6381 C58.0038,1337.6381 92.6576,1337.6381 92.6576,1327.6381" fill="none" style="stroke:#181818;stroke-width:0.5;"/><text fill="#000000" font-family="sans-serif" font-size="14" lengthAdjust="spacing" textLength="49.3076" x="33.35" y="1354.6332">stroom</text></g><!--entity stroom_stats_db--><g class="entity" data-qualified-name="stroom_all_dbs.stroom_stats_db" data-source-line="51" id="ent0024"><path d="M127.93,1327.6381 C127.93,1317.6381 155.0028,1317.6381 155.0028,1317.6381 C155.0028,1317.6381 182.0755,1317.6381 182.0755,1327.6381 L182.0755,1352.935 C182.0755,1362.935 155.0028,1362.935 155.0028,1362.935 C155.0028,1362.935 127.93,1362.935 127.93,1352.935 L127.93,1327.6381" fill="#F1F1F1" style="stroke:#181818;stroke-width:0.5;"/><path d="M127.93,1327.6381 C127.93,1337.6381 155.0028,1337.6381 155.0028,1337.6381 C155.0028,1337.6381 182.0755,1337.6381 182.0755,1327.6381" fill="none" style="stroke:#181818;stroke-width:0.5;"/><text fill="#000000" font-family="sans-serif" font-size="14" lengthAdjust="spacing" textLength="34.1455" x="137.93" y="1354.6332">stats</text></g><!--entity stroom-node-2--><g class="entity" data-qualified-name="shared_storage.stroom-node-2" data-source-line="61" id="ent0030"><path d="M256.87,1313.1381 L297.87,1313.1381 A3.75,3.75 0 0 1 300.37,1315.6381 L307.37,1334.1381 L385.1268,1334.1381 A2.5,2.5 0 0 1 387.6268,1336.6381 L387.6268,1364.935 A2.5,2.5 0 0 1 385.1268,1367.435 L256.87,1367.435 A2.5,2.5 0 0 1 254.37,1364.935 L254.37,1315.6381 A2.5,2.5 0 0 1 256.87,1313.1381" fill="#F1F1F1" style="stroke:#181818;stroke-width:0.5;"/><line style="stroke:#181818;stroke-width:0.5;" x1="254.37" x2="307.37" y1="1334.1381" y2="1334.1381"/><text fill="#000000" font-family="sans-serif" font-size="14" lengthAdjust="spacing" textLength="103.2568" x="264.37" y="1354.1332">stroom-node-2</text></g><!--entity stroom-node-1--><g class="entity" data-qualified-name="shared_storage.stroom-node-1" data-source-line="62" id="ent0031"><path d="M424.87,1313.1381 L465.87,1313.1381 A3.75,3.75 0 0 1 468.37,1315.6381 L475.37,1334.1381 L553.1268,1334.1381 A2.5,2.5 0 0 1 555.6268,1336.6381 L555.6268,1364.935 A2.5,2.5 0 0 1 553.1268,1367.435 L424.87,1367.435 A2.5,2.5 0 0 1 422.37,1364.935 L422.37,1315.6381 A2.5,2.5 0 0 1 424.87,1313.1381" fill="#F1F1F1" style="stroke:#181818;stroke-width:0.5;"/><line style="stroke:#181818;stroke-width:0.5;" x1="422.37" x2="475.37" y1="1334.1381" y2="1334.1381"/><text fill="#000000" font-family="sans-serif" font-size="14" lengthAdjust="spacing" textLength="103.2568" x="432.37" y="1354.1332">stroom-node-1</text></g><!--entity event_producer--><g class="entity" data-qualified-name="event_producer" data-source-line="12" id="ent0002"><polygon fill="#F1F1F1" points="350.16,76.5781,360.16,66.5781,503.8485,66.5781,503.8485,119.1719,493.8485,129.1719,350.16,129.1719,350.16,76.5781" style="stroke:#181818;stroke-width:0.5;"/><line style="stroke:#181818;stroke-width:0.5;" x1="493.8485" x2="503.8485" y1="76.5781" y2="66.5781"/><line style="stroke:#181818;stroke-width:0.5;" x1="350.16" x2="493.8485" y1="76.5781" y2="76.5781"/><line style="stroke:#181818;stroke-width:0.5;" x1="493.8485" x2="493.8485" y1="76.5781" y2="129.1719"/><text fill="#000000" font-family="sans-serif" font-size="14" font-style="italic" lengthAdjust="spacing" textLength="94.5068" x="374.7508" y="99.5732">&#171;application&#187;</text><text fill="#000000" font-family="sans-serif" font-size="14" lengthAdjust="spacing" textLength="113.6885" x="365.16" y="115.8701">Event generator</text></g><!--entity ui_client_browser--><g class="entity" data-qualified-name="ui_client_browser" data-source-line="13" id="ent0003"><polygon fill="#F1F1F1" points="566.5,231.1681,576.5,221.1681,715.5029,221.1681,715.5029,273.7619,705.5029,283.7619,566.5,283.7619,566.5,231.1681" style="stroke:#181818;stroke-width:0.5;"/><line style="stroke:#181818;stroke-width:0.5;" x1="705.5029" x2="715.5029" y1="231.1681" y2="221.1681"/><line style="stroke:#181818;stroke-width:0.5;" x1="566.5" x2="705.5029" y1="231.1681" y2="231.1681"/><line style="stroke:#181818;stroke-width:0.5;" x1="705.5029" x2="705.5029" y1="231.1681" y2="283.7619"/><text fill="#000000" font-family="sans-serif" font-size="14" font-style="italic" lengthAdjust="spacing" textLength="107.0029" x="582.5" y="254.1632">&#171;web browser&#187;</text><text fill="#000000" font-family="sans-serif" font-size="14" lengthAdjust="spacing" textLength="31.9102" x="620.0464" y="270.4601">User</text></g><!--entity api_client_app--><g class="entity" data-qualified-name="api_client_app" data-source-line="14" id="ent0004"><polygon fill="#F1F1F1" points="750.75,231.1681,760.75,221.1681,887.2568,221.1681,887.2568,273.7619,877.2568,283.7619,750.75,283.7619,750.75,231.1681" style="stroke:#181818;stroke-width:0.5;"/><line style="stroke:#181818;stroke-width:0.5;" x1="877.2568" x2="887.2568" y1="231.1681" y2="221.1681"/><line style="stroke:#181818;stroke-width:0.5;" x1="750.75" x2="877.2568" y1="231.1681" y2="231.1681"/><line style="stroke:#181818;stroke-width:0.5;" x1="877.2568" x2="877.2568" y1="231.1681" y2="283.7619"/><text fill="#000000" font-family="sans-serif" font-size="14" font-style="italic" lengthAdjust="spacing" textLength="94.5068" x="766.75" y="254.1632">&#171;application&#187;</text><text fill="#000000" font-family="sans-serif" font-size="14" lengthAdjust="spacing" textLength="65.0508" x="781.478" y="270.4601">API client</text></g><!--entity remote_proxy--><g class="entity" data-qualified-name="remote_proxy" data-source-line="15" id="ent0005"><polygon fill="#F1F1F1" points="322.96,231.1681,332.96,221.1681,531.042,221.1681,531.042,273.7619,521.042,283.7619,322.96,283.7619,322.96,231.1681" style="stroke:#181818;stroke-width:0.5;"/><line style="stroke:#181818;stroke-width:0.5;" x1="521.042" x2="531.042" y1="231.1681" y2="221.1681"/><line style="stroke:#181818;stroke-width:0.5;" x1="322.96" x2="521.042" y1="231.1681" y2="231.1681"/><line style="stroke:#181818;stroke-width:0.5;" x1="521.042" x2="521.042" y1="231.1681" y2="283.7619"/><text fill="#000000" font-family="sans-serif" font-size="14" font-style="italic" lengthAdjust="spacing" textLength="94.5068" x="374.7476" y="254.1632">&#171;application&#187;</text><text fill="#000000" font-family="sans-serif" font-size="14" lengthAdjust="spacing" textLength="168.082" x="337.96" y="270.4601">Upstream Stroom proxy</text></g><!--entity nginx--><g class="entity" data-qualified-name="nginx" data-source-line="17" id="ent0006"><polygon fill="#F1F1F1" points="550.95,400.7681,560.95,390.7681,731.0525,390.7681,731.0525,443.3619,721.0525,453.3619,550.95,453.3619,550.95,400.7681" style="stroke:#181818;stroke-width:0.5;"/><line style="stroke:#181818;stroke-width:0.5;" x1="721.0525" x2="731.0525" y1="400.7681" y2="390.7681"/><line style="stroke:#181818;stroke-width:0.5;" x1="550.95" x2="721.0525" y1="400.7681" y2="400.7681"/><line style="stroke:#181818;stroke-width:0.5;" x1="721.0525" x2="721.0525" y1="400.7681" y2="453.3619"/><text fill="#000000" font-family="sans-serif" font-size="14" font-style="italic" lengthAdjust="spacing" textLength="94.999" x="588.5018" y="423.7632">&#171;web server&#187;</text><text fill="#000000" font-family="sans-serif" font-size="14" lengthAdjust="spacing" textLength="140.1025" x="565.95" y="440.0601">Nginx load balancer</text></g><!--link nginx to proxy_cluster--><g class="link" data-entity-1="ent0006" data-entity-2="ent0007" data-link-type="dependency" data-source-line="22" id="lnk10"><path d="M592.41,453.5881 C582.94,461.9981 574.31,471.9881 569,483.3581 C562.98,496.2481 565.08,501.6881 569,515.3581 C570.16,519.3881 572.38,519.4981 574,523.3581 C575.4425,526.7894 576.8286,530.2992 578.1599,533.8649 C578.8255,535.6477 577.4798,531.7869 578.1181,533.5948" fill="none" id="nginx-to-proxy_cluster" style="stroke:#008000;stroke-width:1;"/><polygon fill="#008000" points="580.1157,539.2525,580.8911,529.4342,578.4511,534.5378,573.3475,532.0977,580.1157,539.2525" style="stroke:#008000;stroke-width:1;"/><text fill="#008000" font-family="sans-serif" font-size="13" lengthAdjust="spacing" textLength="70.9604" x="591.3694" y="496.425">HTTP:8090</text><text fill="#008000" font-family="sans-serif" font-size="13" lengthAdjust="spacing" textLength="113.6992" x="570" y="511.5578">/datafeed (proxy)</text></g><!--link nginx to stroom_cluster--><g class="link" data-entity-1="ent0006" data-entity-2="ent0013" data-link-type="dependency" data-source-line="35" id="lnk16"><path d="M670.99,453.5481 C677.92,462.4581 684.33,472.6881 688,483.3581 C692.62,496.8081 689.93,501.2681 688,515.3581 C673.2,623.5181 660.13,649.6581 622,751.9581 C612.56,777.2881 610.97,784.4381 596,806.9581 C573.165,841.3081 542.285,875.8306 516.8113,902.0344 C504.0744,915.1362 492.6891,926.1584 484.3367,934.0395 C482.2486,936.0098 480.3501,937.7838 478.6674,939.3448 C478.4571,939.5399 482.6529,935.6555 482.4493,935.844" fill="none" id="nginx-to-stroom_cluster" style="stroke:#008000;stroke-width:1;"/><polygon fill="#008000" points="478.0466,939.9202,487.3682,936.741,481.7155,936.5233,481.9332,930.8707,478.0466,939.9202" style="stroke:#008000;stroke-width:1;"/><text fill="#008000" font-family="sans-serif" font-size="13" lengthAdjust="spacing" textLength="70.9604" x="732.0393" y="638.725">HTTP:8080</text><text fill="#008000" font-family="sans-serif" font-size="13" lengthAdjust="spacing" textLength="159.999" x="687.52" y="653.8578">/datafeeddirect (stroom)</text><text fill="#008000" font-family="sans-serif" font-size="13" lengthAdjust="spacing" textLength="84.2715" x="725.3838" y="668.9906">/api (stroom)</text><text fill="#008000" font-family="sans-serif" font-size="13" lengthAdjust="spacing" textLength="76.2925" x="729.3733" y="684.1235">/ui (stroom)</text></g><!--link stroom_proxy_local_1 to stroom_cluster--><g class="link" data-entity-1="ent0009" data-entity-2="ent0013" data-link-type="dependency" data-source-line="42" id="lnk19"><path d="M470,688.3781 C470,706.7181 470,731.7094 470,758.9675 C470,772.5966 470,786.7923 470,801.0068 C470,808.114 470,815.2259 470,822.274 C470,824.036 470,825.794 470,827.547 C470,828.4235 470,823.2987 470,824.1725" fill="none" id="stroom_proxy_local_1-to-stroom_cluster" style="stroke:#800080;stroke-width:1;stroke-dasharray:7,7;"/><polygon fill="#800080" points="470,830.1725,474,821.1725,470,825.1725,466,821.1725,470,830.1725" style="stroke:#800080;stroke-width:1;"/><text fill="#800080" font-family="sans-serif" font-size="13" lengthAdjust="spacing" textLength="116.9492" x="471" y="773.025">HTTPS (via Nginx)</text><text fill="#800080" font-family="sans-serif" font-size="13" lengthAdjust="spacing" textLength="99.9375" x="479.5059" y="788.1578">/datafeeddirect</text><text fill="#800080" font-family="sans-serif" font-size="13" lengthAdjust="spacing" textLength="84.2715" x="487.3389" y="803.2906">/api (stroom)</text></g><!--link stroom_proxy_local_2 to stroom_cluster--><g class="link" data-entity-1="ent0012" data-entity-2="ent0013" data-link-type="dependency" data-source-line="43" id="lnk20"><path d="M250.58,688.4081 C266.67,723.4481 298.05,779.4181 344,806.9581 C368.21,821.4581 384.13,798.4081 407,814.9581 C410.2463,817.3062 413.3315,819.8662 416.2633,822.6029 C417.7292,823.9713 419.1568,825.3839 420.5469,826.8364 C421.242,827.5626 421.9277,828.2988 422.6041,829.0444 C422.9424,829.4172 423.2783,829.7923 423.6119,830.1697 C423.7787,830.3585 420.0001,826.027 420.1657,826.2168" fill="none" id="stroom_proxy_local_2-to-stroom_cluster" style="stroke:#800080;stroke-width:1;stroke-dasharray:7,7;"/><polygon fill="#800080" points="424.1106,830.7376,421.2071,821.3265,420.8232,826.9703,415.1794,826.5864,424.1106,830.7376" style="stroke:#800080;stroke-width:1;"/><text fill="#800080" font-family="sans-serif" font-size="13" lengthAdjust="spacing" textLength="116.9492" x="345" y="773.025">HTTPS (via Nginx)</text><text fill="#800080" font-family="sans-serif" font-size="13" lengthAdjust="spacing" textLength="99.9375" x="353.5059" y="788.1578">/datafeeddirect</text><text fill="#800080" font-family="sans-serif" font-size="13" lengthAdjust="spacing" textLength="84.2715" x="361.3389" y="803.2906">/api (stroom)</text></g><!--link stroom_node_1 to stroom_node_2--><g class="link" data-entity-1="ent0015" data-entity-2="ent0018" data-link-type="dependency" data-source-line="47" id="lnk21"><path d="M329.1217,985.8163 C331.8717,1017.9463 335.1399,1056.2299 337.8799,1088.3399" fill="none" id="stroom_node_1-stroom_node_2" style="stroke:#808080;stroke-width:1;"/><polygon fill="#808080" points="328.61,979.8381,325.3921,989.1465,329.0364,984.8199,333.3629,988.4642,328.61,979.8381" style="stroke:#808080;stroke-width:1;"/><polygon fill="#808080" points="338.39,1094.3181,341.6103,1085.0106,337.9649,1089.3362,333.6393,1085.6908,338.39,1094.3181" style="stroke:#808080;stroke-width:1;"/><text fill="#808080" font-family="sans-serif" font-size="13" lengthAdjust="spacing" textLength="70.9604" x="385.6265" y="1024.615">HTTP:8080</text><text fill="#808080" font-family="sans-serif" font-size="13" lengthAdjust="spacing" textLength="172.3135" x="334.95" y="1039.7478">Inter-node communication</text></g><!--link stroom_node_1 to stroom_db--><g class="link" data-entity-1="ent0015" data-entity-2="ent0023" data-link-type="dependency" data-source-line="55" id="lnk25"><path d="M260.41,957.4381 C202.83,968.3781 121.9,993.6581 80,1051.5481 C20.66,1133.5281 39.9913,1259.426 51.3213,1311.366" fill="none" id="stroom_node_1-to-stroom_db" style="stroke:#181818;stroke-width:1;"/><polygon fill="#181818" points="52.6,1317.2281,54.59,1307.5824,51.5344,1312.343,46.7738,1309.2874,52.6,1317.2281" style="stroke:#181818;stroke-width:1;"/><text fill="#8B0000" font-family="sans-serif" font-size="13" lengthAdjust="spacing" textLength="62.3213" x="81" y="1130.415">TCP:3306</text></g><!--link stroom_node_1 to stroom_stats_db--><g class="link" data-entity-1="ent0015" data-entity-2="ent0024" data-link-type="dependency" data-source-line="56" id="lnk26"><path d="M269.48,979.9081 C242.85,997.3481 213.21,1021.6881 196,1051.5481 C145.36,1139.4281 148.5004,1260.7058 152.3904,1311.3358" fill="none" id="stroom_node_1-to-stroom_stats_db" style="stroke:#181818;stroke-width:1;"/><polygon fill="#181818" points="152.85,1317.3181,156.1488,1308.0381,152.467,1312.3328,148.1723,1308.651,152.85,1317.3181" style="stroke:#181818;stroke-width:1;"/><text fill="#8B0000" font-family="sans-serif" font-size="13" lengthAdjust="spacing" textLength="62.3213" x="197" y="1130.415">TCP:3306</text></g><!--link stroom_node_2 to stroom_db--><g class="link" data-entity-1="ent0018" data-entity-2="ent0023" data-link-type="dependency" data-source-line="57" id="lnk27"><path d="M318.97,1157.2081 C302.12,1178.2581 277.06,1205.2481 249,1221.1381 C221.38,1236.7881 135.69,1235.4981 110,1254.1381 C88.27,1269.9081 76.0721,1292.2491 68.0321,1311.7991" fill="none" id="stroom_node_2-to-stroom_db" style="stroke:#181818;stroke-width:1;"/><polygon fill="#181818" points="65.75,1317.3481,72.8725,1310.5459,67.6517,1312.7239,65.4737,1307.5031,65.75,1317.3481" style="stroke:#181818;stroke-width:1;"/><text fill="#8B0000" font-family="sans-serif" font-size="13" lengthAdjust="spacing" textLength="62.3213" x="224.6" y="1242.205">TCP:3306</text></g><!--link stroom_node_2 to stroom_stats_db--><g class="link" data-entity-1="ent0018" data-entity-2="ent0024" data-link-type="dependency" data-source-line="58" id="lnk28"><path d="M339.49,1157.6081 C336.38,1185.2181 327.27,1224.6081 301,1246.1381 C279.17,1264.0381 263.26,1241.5581 238,1254.1381 C208.99,1268.5981 187.9001,1292.5111 173.1701,1312.5811" fill="none" id="stroom_node_2-to-stroom_stats_db" style="stroke:#181818;stroke-width:1;"/><polygon fill="#181818" points="169.62,1317.4181,178.1698,1312.5293,172.5784,1313.3872,171.7204,1307.7958,169.62,1317.4181" style="stroke:#181818;stroke-width:1;"/><text fill="#8B0000" font-family="sans-serif" font-size="13" lengthAdjust="spacing" textLength="62.3213" x="315.65" y="1242.205">TCP:3306</text></g><!--link stroom_node_1 to shared_storage--><g class="link" data-entity-1="ent0015" data-entity-2="ent0029" data-link-type="dependency" data-source-line="66" id="lnk32"><path d="M356.81,979.9381 C367.95,989.1681 381.2,998.2481 395,1003.5481 C420.16,1013.1981 495.48,994.0881 516,1011.5481 C572.015,1059.2081 591.06,1139.3481 595.9575,1208.4494 C597.1819,1225.7247 597.522,1242.3101 597.3346,1257.5256 C597.2877,1261.3294 597.2079,1265.0477 597.1006,1268.6697 C597.0872,1269.1225 597.2634,1263.5767 597.2492,1264.0264" fill="none" id="stroom_node_1-to-shared_storage" style="stroke:#181818;stroke-width:1;"/><polygon fill="#181818" points="597.0591,1270.0234,601.3422,1261.1546,597.2175,1265.0259,593.3462,1260.9012,597.0591,1270.0234" style="stroke:#181818;stroke-width:1;"/><text fill="#8B0000" font-family="sans-serif" font-size="13" lengthAdjust="spacing" textLength="58.2207" x="597.7" y="1130.415">NFS/SMB</text></g><!--link stroom_node_2 to shared_storage--><g class="link" data-entity-1="ent0018" data-entity-2="ent0029" data-link-type="dependency" data-source-line="67" id="lnk33"><path d="M365.69,1157.6381 C390.49,1186.0881 431.48,1226.7881 477,1246.1381 C496.5,1254.4281 556.04,1240.2081 572,1254.1381 C575.5938,1257.2756 578.5908,1260.9303 581.0835,1264.9274 C581.7067,1265.9267 582.2984,1266.9473 582.86,1267.9867 C583.1408,1268.5064 583.4141,1269.0307 583.68,1269.5594 C583.7465,1269.6915 581.1545,1264.4448 581.2201,1264.5775" fill="none" id="stroom_node_2-to-shared_storage" style="stroke:#181818;stroke-width:1;"/><polygon fill="#181818" points="583.8781,1269.9567,583.4772,1260.116,581.6631,1265.474,576.305,1263.6599,583.8781,1269.9567" style="stroke:#181818;stroke-width:1;"/><text fill="#8B0000" font-family="sans-serif" font-size="13" lengthAdjust="spacing" textLength="58.2207" x="478" y="1242.205">NFS/SMB</text></g><!--link ui_client_browser to nginx--><g class="link" data-entity-1="ent0003" data-entity-2="ent0006" data-link-type="dependency" data-source-line="70" id="lnk34"><path d="M641,284.2081 C641,314.4481 641,354.3481 641,384.5181" fill="none" id="ui_client_browser-to-nginx" style="stroke:#0000FF;stroke-width:1;"/><polygon fill="#0000FF" points="641,390.5181,645,381.5181,641,385.5181,637,381.5181,641,390.5181" style="stroke:#0000FF;stroke-width:1;"/><text fill="#0000FF" font-family="sans-serif" font-size="13" lengthAdjust="spacing" textLength="41.7485" x="642" y="341.835">HTTPS</text></g><!--link api_client_app to nginx--><g class="link" data-entity-1="ent0004" data-entity-2="ent0006" data-link-type="dependency" data-source-line="71" id="lnk35"><path d="M786.35,284.2081 C754.24,314.4481 709.8588,356.2356 677.8088,386.4056" fill="none" id="api_client_app-to-nginx" style="stroke:#0000FF;stroke-width:1;"/><polygon fill="#0000FF" points="673.44,390.5181,682.735,387.2618,677.0807,387.091,677.2515,381.4367,673.44,390.5181" style="stroke:#0000FF;stroke-width:1;"/><text fill="#0000FF" font-family="sans-serif" font-size="13" lengthAdjust="spacing" textLength="41.7485" x="773.4415" y="334.335">HTTPS</text><text fill="#0000FF" font-family="sans-serif" font-size="13" lengthAdjust="spacing" textLength="84.2715" x="752.18" y="349.4678">/api (stroom)</text></g><!--link event_producer to remote_proxy--><g class="link" data-entity-1="ent0002" data-entity-2="ent0005" data-link-type="dependency" data-source-line="72" id="lnk36"><path d="M427,129.3881 C427,155.9181 427,188.1581 427,214.7481" fill="none" id="event_producer-to-remote_proxy" style="stroke:#0000FF;stroke-width:1;"/><polygon fill="#0000FF" points="427,220.7481,431,211.7481,427,215.7481,423,211.7481,427,220.7481" style="stroke:#0000FF;stroke-width:1;"/><text fill="#0000FF" font-family="sans-serif" font-size="13" lengthAdjust="spacing" textLength="41.7485" x="442.4536" y="172.235">HTTPS</text><text fill="#0000FF" font-family="sans-serif" font-size="13" lengthAdjust="spacing" textLength="70.6558" x="428" y="187.3678">Event data</text></g><!--link remote_proxy to nginx--><g class="link" data-entity-1="ent0005" data-entity-2="ent0006" data-link-type="dependency" data-source-line="73" id="lnk37"><path d="M462.27,284.0481 C487.86,305.9381 523.55,335.8181 556,360.7681 C568.91,370.6881 578.3518,377.6229 591.5118,386.9329" fill="none" id="remote_proxy-to-nginx" style="stroke:#0000FF;stroke-width:1;"/><polygon fill="#0000FF" points="596.41,390.3981,591.3728,381.9348,592.3282,387.5104,586.7526,388.4658,596.41,390.3981" style="stroke:#0000FF;stroke-width:1;"/><text fill="#0000FF" font-family="sans-serif" font-size="13" lengthAdjust="spacing" textLength="41.7485" x="573.8372" y="326.835">HTTPS</text><text fill="#0000FF" font-family="sans-serif" font-size="13" lengthAdjust="spacing" textLength="62.4863" x="563.4683" y="341.9678">/datafeed</text><text fill="#0000FF" font-family="sans-serif" font-size="13" lengthAdjust="spacing" textLength="75.4229" x="557" y="357.1006">/api (proxy)</text></g><g class="legend" data-source-line="75"><rect fill="#DDDDDD" height="124.0781" rx="7.5" ry="7.5" style="stroke:#000000;stroke-width:1;" width="229.0576" x="649.1992" y="1408.4381"/><text fill="#000000" font-family="sans-serif" font-size="14" font-weight="bold" lengthAdjust="spacing" textLength="120.3057" x="654.1992" y="1426.4332">Types of traffic</text><text fill="#000000" font-family="sans-serif" font-size="14" lengthAdjust="spacing" textLength="4.4502" x="654.1992" y="1442.7301">&#160;</text><text fill="#0000FF" font-family="sans-serif" font-size="14" lengthAdjust="spacing" textLength="40.5303" x="654.1992" y="1459.027">Client</text><text fill="#8B0000" font-family="sans-serif" font-size="14" lengthAdjust="spacing" textLength="42.2256" x="654.1992" y="1475.3239">Direct</text><text fill="#008000" font-family="sans-serif" font-size="14" lengthAdjust="spacing" textLength="219.0576" x="654.1992" y="1491.6207">Reverse-proxied (unencrypted)</text><text fill="#808080" font-family="sans-serif" font-size="14" lengthAdjust="spacing" textLength="158.4229" x="654.1992" y="1507.9176">Internal (unencrypted)</text><text fill="#800080" font-family="sans-serif" font-size="14" lengthAdjust="spacing" textLength="66.9033" x="654.1992" y="1524.2145">Via Nginx</text></g><?plantuml-src pLPPRzD047xthrZIXpGIxX4a15KQYL8k2Qf00Y-bYjRs95cmTwtrEgs5-j-PFUBuY7lG5_8IUUVOR-QRcHt5L0mUmT_fL4aX4l96XYkc85IvT8BJTpSqIMCWislXNuW8oDiupnH8iiy5zqF15MKS9CiW8X6aiIWIu6hW0O-8CXTu_NDOe0vHAo1hAfd8CqBJD6OXLKnmaWgfCkzPPZ3CzTVfgwDNHziJAMwApVdhewr36iV6AKTS6TdFGAvP2DbpGaCb9Fw32Wy6dXQJthiruY9BGB0KfJr2CmBwJFkFyX136eqgiCPZP_WT_HhjdCt3c6cBG8hhp1XSGq3SLsdmPlA9M4LZHjFI3jrtNP9Yi40JufWmCHjp2ObGO9FGCdRM5ql6RqWiQ4G26bCUEiJSd5kKEZi6f2UHOCgNI6flOhps7QTzOsJJ7JgQ_vWwo31ZT5aQc4BOE-uvgVvP89z5IEDs33KYOwqpFqPOl-YQwaf0KAKRWzY_tFiW0VYLFsx0EI6ZKCH2dXZv-EDiDZbfbSdeqEYCV_AQyc545Lq05kg-qHrizCpjjrvtfCEdH3fiHthhtTPeS6uS3LL77JGuWquUd5n_LBtfxsRcIyl-Dsm7cO6DXc1hSqI8TPRTmKu3vbtqF82OYEcaO2SRaq6NEdRKlJfvMsKdpRLC3X-NoPtCElSx2lxWSc-IInocLmVTYRCQ9dDJihzcb9ZcRiVf51kvwrJRbRCkgCF_42ecjl-9Aqdz3OvG94dEtIpq6XLkQxIebAXZh5gXnOCAj1ZZlI1zKm-rIqjmNbbENuhfryzaQcPjjLxmgPf7GURAIoSYeDXgFIkkQaP1IuMghAfX3hIUpidvMQrJwsdmj-57mJRqSof_VuDeF7ixENdnukXb6KUdzURAH_eOFWd1y1yHRDcOhgZ4SJ-rtpQ7vcY-KR5yB4GSOKKvDWpJ_h3NAJhkcTGxxnjNzz1GlxSLnSNxwU7qozbTYNYa1m-VTRrrr82rTnZibBCu1zqfThoNZlMnxUxIPsENUOnjsL96jBl96_jOnNrj2thmBNRdqwrKNb5pz0JycrbsLtYDBSEBOQdNOicMAuN5DGh6ioB5pLKi20wsnOA5eyF0lCXLNvR5oinky7vUcwPRkNq8tQFkQonChpuv1nxA8bKG3NOQkNd7SRsvHzaDx1-RoR_baKSsLYp25SEn2Kcg2f904Y0Oxoy0?></g></svg>