<?plantuml 1.2026.1?><svg xmlns="http://www.w3.org/2000/svg" xmlns:xlink="http://www.w3.org/1999/xlink" contentStyleType="text/css" data-diagram-type="ACTIVITY" height="2145.8333px" preserveAspectRatio="none" style="width:2018px;height:2145px;" version="1.1" viewBox="0 0 2018 2145" width="2018.75px" zoomAndPan="magnify"><defs><linearGradient id="gij22pk61wq6g0" x1="50%" x2="50%" y1="0%" y2="100%"><stop offset="0%" stop-color="#FFFFFF"/><stop offset="100%" stop-color="#FFFFFF"/></linearGradient><filter height="300%" id="fij22pk61wq6g" width="300%" x="-1" y="-1"><feGaussianBlur result="blurOut" stdDeviation="2.0833"/><feColorMatrix in="blurOut" result="blurOut2" type="matrix" values="0 0 0 0 0 0 0 0 0 0 0 0 0 0 0 0 0 0 .4 0"/><feOffset dx="4.1667" dy="4.1667" in="blurOut2" result="blurOut3"/><feBlend in="SourceGraphic" in2="blurOut3" mode="normal"/></filter><linearGradient id="gij22pk61wq6g1" x1="50%" x2="50%" y1="0%" y2="100%"><stop offset="0%" stop-color="#4DABF5"/><stop offset="100%" stop-color="#2196F3"/></linearGradient><linearGradient id="gij22pk61wq6g2" x1="50%" x2="50%" y1="0%" y2="100%"><stop offset="0%" stop-color="#B052C0"/><stop offset="100%" stop-color="#9C27B0"/></linearGradient></defs><g><rect fill="url(#gij22pk61wq6g0)" height="35.3841" style="stroke:url(#gij22pk61wq6g0);stroke-width:1.0417;" width="1985.378" x="15.625" y="11.4583"/><ellipse cx="333.0653" cy="62.4674" fill="#9C27B0" filter="url(#fij22pk61wq6g)" rx="10.4167" ry="10.4167" style="stroke:#1A78C2;stroke-width:1.0417;"/><polygon fill="#20C997" filter="url(#fij22pk61wq6g)" points="260.4599,93.7174,405.6707,93.7174,418.1707,111.4095,405.6707,129.1016,260.4599,129.1016,247.9599,111.4095,260.4599,93.7174" style="stroke:#CCCCCC;stroke-width:1.0417;"/><text fill="#222222" font-family="'Verdana'" font-size="12.5" font-weight="bold" lengthAdjust="spacing" textLength="56.5308" x="347.6486" y="151.121">Enabled</text><text fill="#222222" font-family="'Verdana'" font-size="12.5" lengthAdjust="spacing" textLength="124.3774" x="270.8766" y="115.7369">Instant Forwarding?</text><text fill="#222222" font-family="'Verdana'" font-size="12.5" font-weight="bold" lengthAdjust="spacing" textLength="61.1938" x="428.5873" y="98.0448">Disabled</text><polygon fill="#20C997" filter="url(#fij22pk61wq6g)" points="302.3514,318.7724,363.7792,318.7724,376.2792,336.4644,363.7792,354.1565,302.3514,354.1565,289.8514,336.4644,302.3514,318.7724" style="stroke:#CCCCCC;stroke-width:1.0417;"/><text fill="#222222" font-family="'Verdana'" font-size="12.5" lengthAdjust="spacing" textLength="40.5945" x="312.768" y="340.7918">Is ZIP?</text><text fill="#222222" font-family="'Verdana'" font-size="12.5" font-weight="bold" lengthAdjust="spacing" textLength="24.9695" x="254.4652" y="323.0998">Yes</text><text fill="#222222" font-family="'Verdana'" font-size="12.5" font-weight="bold" lengthAdjust="spacing" textLength="19.0491" x="386.6959" y="323.0998">No</text><polygon fill="#FD7E14" filter="url(#fij22pk61wq6g)" points="62.1277,364.5732,219.9849,364.5732,230.4016,388.5152,219.9849,412.4573,62.1277,412.4573" style="stroke:#2196F3;stroke-width:1.0417;"/><text fill="#FFFFFF" font-family="'Verdana'" font-size="12.5" lengthAdjust="spacing" textLength="124.5239" x="78.7944" y="392.8426">/01_receiving_zip/n/</text><rect fill="url(#gij22pk61wq6g1)" filter="url(#fij22pk61wq6g)" height="47.8841" style="stroke:#2196F3;stroke-width:1.0417;" width="134.786" x="73.6633" y="448.9156"/><text fill="#FFFFFF" font-family="'Verdana'" font-size="12.5" lengthAdjust="spacing" textLength="101.4526" x="90.33" y="477.1851">Scan ZIP entries</text><rect fill="#6F42C1" filter="url(#fij22pk61wq6g)" height="47.8841" rx="4.1667" ry="4.1667" style="stroke:#2196F3;stroke-width:1.0417;" width="238.3626" x="21.875" y="589.4592"/><text fill="#FFFFFF" font-family="'Verdana'" font-size="12.5" lengthAdjust="spacing" textLength="205.0293" x="38.5417" y="617.7287">/02_split_zip_input_queue/d/nnn/</text><path d="M278.1972,658.7138 L278.1972,688.3606 L257.3639,692.5273 L278.1972,696.6939 L278.1972,726.3407 A0,0 0 0 0 278.1972,726.3407 L390.7501,726.3407 A0,0 0 0 0 390.7501,726.3407 L390.7501,669.1305 L380.3335,658.7138 L278.1972,658.7138 A0,0 0 0 0 278.1972,658.7138" fill="url(#gij22pk61wq6g2)" filter="url(#fij22pk61wq6g)" style="stroke:#9C27B0;stroke-width:1.0417;"/><path d="M380.3335,658.7138 L380.3335,669.1305 L390.7501,669.1305 L380.3335,658.7138" fill="url(#gij22pk61wq6g2)" style="stroke:#9C27B0;stroke-width:1.0417;"/><text fill="#FFFFFF" font-family="'Verdana'" font-size="10.4167" lengthAdjust="spacing" textLength="60.7096" x="294.8639" y="684.0078">One sub-dir</text><text fill="#FFFFFF" font-family="'Verdana'" font-size="10.4167" lengthAdjust="spacing" textLength="51.0966" x="294.8639" y="696.1334">per group</text><text fill="#FFFFFF" font-family="'Verdana'" font-size="10.4167" lengthAdjust="spacing" textLength="69.8446" x="294.8639" y="708.2591">(feed + type)</text><polygon fill="#FD7E14" filter="url(#fij22pk61wq6g)" points="35.1654,668.5852,246.9472,668.5852,257.3639,692.5273,246.9472,716.4693,35.1654,716.4693" style="stroke:#2196F3;stroke-width:1.0417;"/><text fill="#FFFFFF" font-family="'Verdana'" font-size="12.5" lengthAdjust="spacing" textLength="178.4485" x="51.8321" y="696.8547">/03_split_zip_splits/n/&lt;grp&gt;/</text><polygon fill="#20C997" filter="url(#fij22pk61wq6g)" points="44.2993,517.6331,237.8133,517.6331,250.3133,535.3251,237.8133,553.0172,44.2993,553.0172,31.7993,535.3251,44.2993,517.6331" style="stroke:#CCCCCC;stroke-width:1.0417;"/><text fill="#222222" font-family="'Verdana'" font-size="12.5" font-weight="bold" lengthAdjust="spacing" textLength="24.9695" x="155.6396" y="575.0366">Yes</text><text fill="#222222" font-family="'Verdana'" font-size="12.5" lengthAdjust="spacing" textLength="172.6807" x="54.716" y="539.6525">invalid format OR &gt;1 group</text><text fill="#222222" font-family="'Verdana'" font-size="12.5" font-weight="bold" lengthAdjust="spacing" textLength="19.0491" x="260.73" y="521.9604">No</text><polygon fill="#20C997" filter="url(#fij22pk61wq6g)" points="141.0563,747.1741,153.5563,759.6741,141.0563,772.1741,128.5563,759.6741,141.0563,747.1741" style="stroke:#CCCCCC;stroke-width:1.0417;"/><path d="M646.8984,364.5732 L646.8984,394.22 L626.0651,398.3866 L646.8984,402.5533 L646.8984,432.2001 A0,0 0 0 0 646.8984,432.2001 L754.1667,432.2001 A0,0 0 0 0 754.1667,432.2001 L754.1667,374.9898 L743.75,364.5732 L646.8984,364.5732 A0,0 0 0 0 646.8984,364.5732" fill="url(#gij22pk61wq6g2)" filter="url(#fij22pk61wq6g)" style="stroke:#9C27B0;stroke-width:1.0417;"/><path d="M743.75,364.5732 L743.75,374.9898 L754.1667,374.9898 L743.75,364.5732" fill="url(#gij22pk61wq6g2)" style="stroke:#9C27B0;stroke-width:1.0417;"/><text fill="#FFFFFF" font-family="'Verdana'" font-size="10.4167" lengthAdjust="spacing" textLength="64.5599" x="663.5651" y="389.8671">Sequentially</text><text fill="#FFFFFF" font-family="'Verdana'" font-size="10.4167" lengthAdjust="spacing" textLength="53.6753" x="663.5651" y="401.9928">numbered</text><text fill="#FFFFFF" font-family="'Verdana'" font-size="10.4167" lengthAdjust="spacing" textLength="55.3945" x="663.5651" y="414.1184">directories</text><polygon fill="#FD7E14" filter="url(#fij22pk61wq6g)" points="434.5001,374.4446,615.6484,374.4446,626.0651,398.3866,615.6484,422.3287,434.5001,422.3287" style="stroke:#2196F3;stroke-width:1.0417;"/><text fill="#FFFFFF" font-family="'Verdana'" font-size="12.5" lengthAdjust="spacing" textLength="147.8149" x="451.1668" y="402.714">/01_receiving_simple/n/</text><polygon fill="#20C997" filter="url(#fij22pk61wq6g)" points="333.0653,782.5907,345.5653,795.0907,333.0653,807.5907,320.5653,795.0907,333.0653,782.5907" style="stroke:#CCCCCC;stroke-width:1.0417;"/><polygon fill="#20C997" filter="url(#fij22pk61wq6g)" points="257.1152,828.4241,409.0154,828.4241,421.5154,846.1161,409.0154,863.8082,257.1152,863.8082,244.6152,846.1161,257.1152,828.4241" style="stroke:#CCCCCC;stroke-width:1.0417;"/><text fill="#222222" font-family="'Verdana'" font-size="12.5" font-weight="bold" lengthAdjust="spacing" textLength="24.9695" x="347.6486" y="885.8276">Yes</text><text fill="#222222" font-family="'Verdana'" font-size="12.5" lengthAdjust="spacing" textLength="131.0669" x="267.5318" y="850.4435">Aggregation enabled</text><text fill="#222222" font-family="'Verdana'" font-size="12.5" font-weight="bold" lengthAdjust="spacing" textLength="19.0491" x="215.1494" y="832.7515">No</text><polygon fill="#20C997" filter="url(#fij22pk61wq6g)" points="333.0653,1620.3145,345.5653,1632.8145,333.0653,1645.3145,320.5653,1632.8145,333.0653,1620.3145" style="stroke:#CCCCCC;stroke-width:1.0417;"/><line style="stroke:#9C27B0;stroke-width:2.0833;" x1="15.625" x2="15.625" y1="11.4583" y2="2133.7341"/><path d="M1074.7813,898.3521 L1074.7813,927.9989 L1053.948,932.1655 L1074.7813,936.3322 L1074.7813,965.979 A0,0 0 0 0 1074.7813,965.979 L1207.6945,965.979 A0,0 0 0 0 1207.6945,965.979 L1207.6945,908.7687 L1197.2778,898.3521 L1074.7813,898.3521 A0,0 0 0 0 1074.7813,898.3521" fill="url(#gij22pk61wq6g2)" filter="url(#fij22pk61wq6g)" style="stroke:#9C27B0;stroke-width:1.0417;"/><path d="M1197.2778,898.3521 L1197.2778,908.7687 L1207.6945,908.7687 L1197.2778,898.3521" fill="url(#gij22pk61wq6g2)" style="stroke:#9C27B0;stroke-width:1.0417;"/><text fill="#FFFFFF" font-family="'Verdana'" font-size="10.4167" lengthAdjust="spacing" textLength="48.055" x="1091.448" y="923.646">One item</text><text fill="#FFFFFF" font-family="'Verdana'" font-size="10.4167" lengthAdjust="spacing" textLength="72.698" x="1091.448" y="935.7717">is 1-* streams</text><text fill="#FFFFFF" font-family="'Verdana'" font-size="10.4167" lengthAdjust="spacing" textLength="90.2049" x="1091.448" y="947.8973">for one feed|type</text><rect fill="#6F42C1" filter="url(#fij22pk61wq6g)" height="47.8841" rx="4.1667" ry="4.1667" style="stroke:#2196F3;stroke-width:1.0417;" width="279.4088" x="774.5392" y="908.2235"/><text fill="#FFFFFF" font-family="'Verdana'" font-size="12.5" lengthAdjust="spacing" textLength="246.0754" x="791.2059" y="936.4929">/20_pre_aggregate_input_queue/d/nnn/</text><polygon fill="#FD7E14" filter="url(#fij22pk61wq6g)" points="802.887,1058.6385,1025.6002,1058.6385,1036.0168,1082.5806,1025.6002,1106.5226,802.887,1106.5226" style="stroke:#2196F3;stroke-width:1.0417;"/><text fill="#FFFFFF" font-family="'Verdana'" font-size="12.5" lengthAdjust="spacing" textLength="189.3799" x="819.5536" y="1086.908">/22_splitting/n/nnn_&lt;part no&gt;</text><polygon fill="#FD7E14" filter="url(#fij22pk61wq6g)" points="839.3341,1137.7645,989.153,1137.7645,999.5697,1161.7065,989.153,1185.6486,839.3341,1185.6486" style="stroke:#2196F3;stroke-width:1.0417;"/><text fill="#FFFFFF" font-family="'Verdana'" font-size="12.5" lengthAdjust="spacing" textLength="116.4856" x="856.0008" y="1166.0339">/23_split_output/n/</text><polygon fill="#20C997" filter="url(#fij22pk61wq6g)" points="870.1599,986.8123,958.3272,986.8123,970.8272,1004.5044,958.3272,1022.1965,870.1599,1022.1965,857.6599,1004.5044,870.1599,986.8123" style="stroke:#CCCCCC;stroke-width:1.0417;"/><text fill="#222222" font-family="'Verdana'" font-size="12.5" font-weight="bold" lengthAdjust="spacing" textLength="71.1792" x="928.8269" y="1044.2159">multi-part</text><text fill="#222222" font-family="'Verdana'" font-size="12.5" lengthAdjust="spacing" textLength="67.334" x="880.5766" y="1008.8318">Multi-part?</text><text fill="#222222" font-family="'Verdana'" font-size="12.5" font-weight="bold" lengthAdjust="spacing" textLength="76.2085" x="981.2439" y="991.1397">single part</text><polygon fill="#20C997" filter="url(#fij22pk61wq6g)" points="914.2436,1206.4819,926.7436,1218.9819,914.2436,1231.4819,901.7436,1218.9819,914.2436,1206.4819" style="stroke:#CCCCCC;stroke-width:1.0417;"/><path d="M1084.7371,1246.7896 L1084.7371,1282.4992 L1063.9038,1286.6659 L1084.7371,1290.8325 L1084.7371,1326.5422 A0,0 0 0 0 1084.7371,1326.5422 L1268.6452,1326.5422 A0,0 0 0 0 1268.6452,1326.5422 L1268.6452,1257.2062 L1258.2286,1246.7896 L1084.7371,1246.7896 A0,0 0 0 0 1084.7371,1246.7896" fill="url(#gij22pk61wq6g2)" filter="url(#fij22pk61wq6g)" style="stroke:#9C27B0;stroke-width:1.0417;"/><path d="M1258.2286,1246.7896 L1258.2286,1257.2062 L1268.6452,1257.2062 L1258.2286,1246.7896" fill="url(#gij22pk61wq6g2)" style="stroke:#9C27B0;stroke-width:1.0417;"/><text fill="#FFFFFF" font-family="'Verdana'" font-size="10.4167" lengthAdjust="spacing" textLength="121.2006" x="1101.4038" y="1272.0835">Where aggregate parts</text><text fill="#FFFFFF" font-family="'Verdana'" font-size="10.4167" lengthAdjust="spacing" textLength="93.9026" x="1101.4038" y="1284.2092">are collected until</text><text fill="#FFFFFF" font-family="'Verdana'" font-size="10.4167" lengthAdjust="spacing" textLength="96.639" x="1101.4038" y="1296.3348">ready to assemble</text><text fill="#FFFFFF" font-family="'Verdana'" font-size="10.4167" lengthAdjust="spacing" textLength="141.1997" x="1101.4038" y="1308.4605">One &lt;grp&gt; per Feed|Type.</text><polygon fill="#FD7E14" filter="url(#fij22pk61wq6g)" points="775,1262.7238,1053.4871,1262.7238,1063.9038,1286.6659,1053.4871,1310.6079,775,1310.6079" style="stroke:#2196F3;stroke-width:1.0417;"/><text fill="#FFFFFF" font-family="'Verdana'" font-size="12.5" lengthAdjust="spacing" textLength="245.1538" x="791.6667" y="1290.9932">/21_pre_aggregates/&lt;grp&gt;/&lt;part no&gt;/</text><rect fill="#6F42C1" filter="url(#fij22pk61wq6g)" height="47.8841" rx="4.1667" ry="4.1667" style="stroke:#2196F3;stroke-width:1.0417;" width="252.3946" x="788.0463" y="1347.3755"/><text fill="#FFFFFF" font-family="'Verdana'" font-size="12.5" lengthAdjust="spacing" textLength="219.0613" x="804.7129" y="1375.6449">/30_aggregate_input_queue/d/nnn/</text><path d="M1019.045,1486.0209 L1019.045,1515.6677 L998.2117,1519.8344 L1019.045,1524.0011 L1019.045,1553.6479 A0,0 0 0 0 1019.045,1553.6479 L1167.4815,1553.6479 A0,0 0 0 0 1167.4815,1553.6479 L1167.4815,1496.4376 L1157.0648,1486.0209 L1019.045,1486.0209 A0,0 0 0 0 1019.045,1486.0209" fill="url(#gij22pk61wq6g2)" filter="url(#fij22pk61wq6g)" style="stroke:#9C27B0;stroke-width:1.0417;"/><path d="M1157.0648,1486.0209 L1157.0648,1496.4376 L1167.4815,1496.4376 L1157.0648,1486.0209" fill="url(#gij22pk61wq6g2)" style="stroke:#9C27B0;stroke-width:1.0417;"/><text fill="#FFFFFF" font-family="'Verdana'" font-size="10.4167" lengthAdjust="spacing" textLength="84.2031" x="1035.7117" y="1511.3149">Staging area for</text><text fill="#FFFFFF" font-family="'Verdana'" font-size="10.4167" lengthAdjust="spacing" textLength="101.5015" x="1035.7117" y="1523.4406">aggregate ZIP files.</text><text fill="#FFFFFF" font-family="'Verdana'" font-size="10.4167" lengthAdjust="spacing" textLength="105.7281" x="1035.7117" y="1535.5662">Queued once ready.</text><polygon fill="#FD7E14" filter="url(#fij22pk61wq6g)" points="840.6921,1495.8923,987.795,1495.8923,998.2117,1519.8344,987.795,1543.7764,840.6921,1543.7764" style="stroke:#2196F3;stroke-width:1.0417;"/><text fill="#FFFFFF" font-family="'Verdana'" font-size="12.5" lengthAdjust="spacing" textLength="113.7695" x="857.3588" y="1524.1618">/31_aggregates/n/</text><polygon fill="#20C997" filter="url(#fij22pk61wq6g)" points="869.9799,1416.0929,958.5073,1416.0929,971.0073,1433.785,958.5073,1451.4771,869.9799,1451.4771,857.4799,1433.785,869.9799,1416.0929" style="stroke:#CCCCCC;stroke-width:1.0417;"/><text fill="#222222" font-family="'Verdana'" font-size="12.5" font-weight="bold" lengthAdjust="spacing" textLength="101.1475" x="928.8269" y="1473.4965">Multiple items</text><text fill="#222222" font-family="'Verdana'" font-size="12.5" lengthAdjust="spacing" textLength="67.6941" x="880.3965" y="1438.1124">Item count</text><text fill="#222222" font-family="'Verdana'" font-size="12.5" font-weight="bold" lengthAdjust="spacing" textLength="64.1174" x="981.424" y="1420.4203">One item</text><polygon fill="#20C997" filter="url(#fij22pk61wq6g)" points="914.2436,1574.4812,926.7436,1586.9812,914.2436,1599.4812,901.7436,1586.9812,914.2436,1574.4812" style="stroke:#CCCCCC;stroke-width:1.0417;"/><line style="stroke:#9C27B0;stroke-width:2.0833;" x1="759.375" x2="759.375" y1="11.4583" y2="2133.7341"/><path d="M1429.4535,163.6454 L1429.4535,231.2724 A0,0 0 0 0 1429.4535,231.2724 L1540.1855,231.2724 A0,0 0 0 0 1540.1855,231.2724 L1540.1855,201.6256 L1561.0189,197.4589 L1540.1855,193.2922 L1540.1855,174.0621 L1529.7689,163.6454 L1429.4535,163.6454 A0,0 0 0 0 1429.4535,163.6454" fill="url(#gij22pk61wq6g2)" filter="url(#fij22pk61wq6g)" style="stroke:#9C27B0;stroke-width:1.0417;"/><path d="M1529.7689,163.6454 L1529.7689,174.0621 L1540.1855,174.0621 L1529.7689,163.6454" fill="url(#gij22pk61wq6g2)" style="stroke:#9C27B0;stroke-width:1.0417;"/><text fill="#FFFFFF" font-family="'Verdana'" font-size="10.4167" lengthAdjust="spacing" textLength="68.0237" x="1446.1202" y="188.9394">Stream input</text><text fill="#FFFFFF" font-family="'Verdana'" font-size="10.4167" lengthAdjust="spacing" textLength="52.8361" x="1446.1202" y="201.0651">directly to</text><text fill="#FFFFFF" font-family="'Verdana'" font-size="10.4167" lengthAdjust="spacing" textLength="58.3649" x="1446.1202" y="213.1907">destination</text><rect fill="url(#gij22pk61wq6g1)" filter="url(#fij22pk61wq6g)" height="47.8841" style="stroke:#2196F3;stroke-width:1.0417;" width="128.9571" x="1561.0189" y="173.5168"/><text fill="#FFFFFF" font-family="'Verdana'" font-size="12.5" lengthAdjust="spacing" textLength="95.6238" x="1577.6855" y="201.7863">Instant forward</text><ellipse cx="1625.4974" cy="263.564" fill="none" filter="url(#fij22pk61wq6g)" rx="11.4583" ry="11.4583" style="stroke:#1A78C2;stroke-width:1.0417;"/><ellipse cx="1625.4974" cy="263.564" fill="none" rx="6.25" ry="6.25" style="stroke:#1A78C2;stroke-width:1.0417;"/><path d="M1773.9929,1662.3393 L1773.9929,1685.9233 L1753.1596,1690.0899 L1773.9929,1694.2566 L1773.9929,1717.8406 A0,0 0 0 0 1773.9929,1717.8406 L1904.3935,1717.8406 A0,0 0 0 0 1904.3935,1717.8406 L1904.3935,1672.7559 L1893.9768,1662.3393 L1773.9929,1662.3393 A0,0 0 0 0 1773.9929,1662.3393" fill="url(#gij22pk61wq6g2)" filter="url(#fij22pk61wq6g)" style="stroke:#9C27B0;stroke-width:1.0417;"/><path d="M1893.9768,1662.3393 L1893.9768,1672.7559 L1904.3935,1672.7559 L1893.9768,1662.3393" fill="url(#gij22pk61wq6g2)" style="stroke:#9C27B0;stroke-width:1.0417;"/><text fill="#FFFFFF" font-family="'Verdana'" font-size="10.4167" lengthAdjust="spacing" textLength="87.6923" x="1790.6596" y="1687.6333">Aggregate ready</text><text fill="#FFFFFF" font-family="'Verdana'" font-size="10.4167" lengthAdjust="spacing" textLength="73.8627" x="1790.6596" y="1699.7589">for forwarding</text><rect fill="#6F42C1" filter="url(#fij22pk61wq6g)" height="47.8841" rx="4.1667" ry="4.1667" style="stroke:#2196F3;stroke-width:1.0417;" width="255.3243" x="1497.8353" y="1666.1479"/><text fill="#FFFFFF" font-family="'Verdana'" font-size="12.5" lengthAdjust="spacing" textLength="221.991" x="1514.502" y="1694.4173">/40_forwarding_input_queue/d/nnn/</text><line style="stroke:#2196F3;stroke-width:1.5625;" x1="1452.2797" x2="1811.2152" y1="1738.6739" y2="1738.6739"/><rect fill="#6F42C1" filter="url(#fij22pk61wq6g)" height="47.8841" rx="4.1667" ry="4.1667" style="stroke:#2196F3;stroke-width:1.0417;" width="310.1461" x="1297.2066" y="1759.5072"/><text fill="#FFFFFF" font-family="'Verdana'" font-size="12.5" lengthAdjust="spacing" textLength="276.8127" x="1313.8733" y="1787.7767">/50_forwarding/&lt;dest 1&gt;/01_forward/d/nnn/</text><rect fill="#6F42C1" filter="url(#fij22pk61wq6g)" height="47.8841" rx="4.1667" ry="4.1667" style="stroke:#2196F3;stroke-width:1.0417;" width="292.2689" x="1306.1452" y="1939.6179"/><text fill="#FFFFFF" font-family="'Verdana'" font-size="12.5" lengthAdjust="spacing" textLength="258.9355" x="1322.8119" y="1967.8874">/50_forwarding/&lt;dest 1&gt;/02_retry/d/nnn/</text><polygon fill="#20C997" filter="url(#fij22pk61wq6g)" points="1386.6445,1843.8497,1517.9148,1843.8497,1530.4148,1861.5417,1517.9148,1879.2338,1386.6445,1879.2338,1374.1445,1861.5417,1386.6445,1843.8497" style="stroke:#CCCCCC;stroke-width:1.0417;"/><text fill="#222222" font-family="'Verdana'" font-size="12.5" font-weight="bold" lengthAdjust="spacing" textLength="39.8682" x="1466.863" y="1901.2533">failed</text><text fill="#222222" font-family="'Verdana'" font-size="12.5" lengthAdjust="spacing" textLength="110.437" x="1397.0612" y="1865.8691">Forward success?</text><text fill="#222222" font-family="'Verdana'" font-size="12.5" font-weight="bold" lengthAdjust="spacing" textLength="54.5166" x="1309.2112" y="1848.1771">success</text><path d="M1484.5713,2045.2738 L1484.5713,2074.9207 L1463.738,2079.0873 L1484.5713,2083.254 L1484.5713,2112.9008 A0,0 0 0 0 1484.5713,2112.9008 L1585.6445,2112.9008 A0,0 0 0 0 1585.6445,2112.9008 L1585.6445,2055.6905 L1575.2279,2045.2738 L1484.5713,2045.2738 A0,0 0 0 0 1484.5713,2045.2738" fill="url(#gij22pk61wq6g2)" filter="url(#fij22pk61wq6g)" style="stroke:#9C27B0;stroke-width:1.0417;"/><path d="M1575.2279,2045.2738 L1575.2279,2055.6905 L1585.6445,2055.6905 L1575.2279,2045.2738" fill="url(#gij22pk61wq6g2)" style="stroke:#9C27B0;stroke-width:1.0417;"/><text fill="#FFFFFF" font-family="'Verdana'" font-size="10.4167" lengthAdjust="spacing" textLength="54.5298" x="1501.238" y="2070.5678">Aggregate</text><text fill="#FFFFFF" font-family="'Verdana'" font-size="10.4167" lengthAdjust="spacing" textLength="36.2905" x="1501.238" y="2082.6935">sent to</text><text fill="#FFFFFF" font-family="'Verdana'" font-size="10.4167" lengthAdjust="spacing" textLength="58.3649" x="1501.238" y="2094.8191">destination</text><ellipse cx="1452.2797" cy="2079.0873" fill="none" filter="url(#fij22pk61wq6g)" rx="11.4583" ry="11.4583" style="stroke:#1A78C2;stroke-width:1.0417;"/><ellipse cx="1452.2797" cy="2079.0873" fill="none" rx="6.25" ry="6.25" style="stroke:#1A78C2;stroke-width:1.0417;"/><rect fill="#6F42C1" filter="url(#fij22pk61wq6g)" height="47.8841" rx="4.1667" ry="4.1667" style="stroke:#2196F3;stroke-width:1.0417;" width="310.1461" x="1656.1422" y="1781.8624"/><text fill="#FFFFFF" font-family="'Verdana'" font-size="12.5" lengthAdjust="spacing" textLength="276.8127" x="1672.8088" y="1810.1318">/50_forwarding/&lt;dest 2&gt;/01_forward/d/nnn/</text><rect fill="#6F42C1" filter="url(#fij22pk61wq6g)" height="47.8841" rx="4.1667" ry="4.1667" style="stroke:#2196F3;stroke-width:1.0417;" width="292.2689" x="1665.0808" y="1961.9731"/><text fill="#FFFFFF" font-family="'Verdana'" font-size="12.5" lengthAdjust="spacing" textLength="258.9355" x="1681.7474" y="1990.2425">/50_forwarding/&lt;dest 2&gt;/02_retry/d/nnn/</text><polygon fill="#20C997" filter="url(#fij22pk61wq6g)" points="1745.58,1866.2048,1876.8504,1866.2048,1889.3504,1883.8969,1876.8504,1901.5889,1745.58,1901.5889,1733.08,1883.8969,1745.58,1866.2048" style="stroke:#CCCCCC;stroke-width:1.0417;"/><text fill="#222222" font-family="'Verdana'" font-size="12.5" font-weight="bold" lengthAdjust="spacing" textLength="39.8682" x="1825.7985" y="1923.6084">failed</text><text fill="#222222" font-family="'Verdana'" font-size="12.5" lengthAdjust="spacing" textLength="110.437" x="1755.9967" y="1888.2243">Forward success?</text><text fill="#222222" font-family="'Verdana'" font-size="12.5" font-weight="bold" lengthAdjust="spacing" textLength="54.5166" x="1668.1468" y="1870.5322">success</text><ellipse cx="1811.2152" cy="2079.0873" fill="none" filter="url(#fij22pk61wq6g)" rx="11.4583" ry="11.4583" style="stroke:#1A78C2;stroke-width:1.0417;"/><ellipse cx="1811.2152" cy="2079.0873" fill="none" rx="6.25" ry="6.25" style="stroke:#1A78C2;stroke-width:1.0417;"/><line style="stroke:#9C27B0;stroke-width:2.0833;" x1="1273.8536" x2="1273.8536" y1="11.4583" y2="2133.7341"/><line style="stroke:#9C27B0;stroke-width:2.0833;" x1="1989.6413" x2="1989.6413" y1="11.4583" y2="2133.7341"/><line style="stroke:#2196F3;stroke-width:3.125;" x1="418.1707" x2="430.6707" y1="111.4095" y2="111.4095"/><polygon fill="#2196F3" points="426.504,211.0087,430.6707,221.4254,434.8373,211.0087,430.6707,215.1754" style="stroke:#2196F3;stroke-width:3.125;"/><line style="stroke:#2196F3;stroke-width:3.125;" x1="430.6707" x2="430.6707" y1="111.4095" y2="297.939"/><line style="stroke:#2196F3;stroke-width:3.125;" x1="430.6707" x2="333.0653" y1="297.939" y2="297.939"/><line style="stroke:#2196F3;stroke-width:3.125;" x1="333.0653" x2="333.0653" y1="297.939" y2="318.7724"/><polygon fill="#2196F3" points="328.8986,308.3557,333.0653,318.7724,337.232,308.3557,333.0653,312.5224" style="stroke:#2196F3;stroke-width:1.0417;"/><line style="stroke:#2196F3;stroke-width:3.125;" x1="333.0653" x2="333.0653" y1="72.8841" y2="93.7174"/><polygon fill="#2196F3" points="328.8986,83.3008,333.0653,93.7174,337.232,83.3008,333.0653,87.4674" style="stroke:#2196F3;stroke-width:1.0417;"/><line style="stroke:#2196F3;stroke-width:3.125;" x1="141.0563" x2="141.0563" y1="412.4573" y2="448.9156"/><polygon fill="#2196F3" points="136.8896,438.4989,141.0563,448.9156,145.223,438.4989,141.0563,442.6656" style="stroke:#2196F3;stroke-width:1.0417;"/><line style="stroke:#2196F3;stroke-width:3.125;" x1="141.0563" x2="141.0563" y1="637.3433" y2="668.5852"/><polygon fill="#2196F3" points="136.8896,658.1685,141.0563,668.5852,145.223,658.1685,141.0563,662.3352" style="stroke:#2196F3;stroke-width:1.0417;"/><line style="stroke:#2196F3;stroke-width:3.125;" x1="141.0563" x2="141.0563" y1="553.0172" y2="589.4592"/><polygon fill="#2196F3" points="136.8896,579.0426,141.0563,589.4592,145.223,579.0426,141.0563,583.2092" style="stroke:#2196F3;stroke-width:1.0417;"/><line style="stroke:#2196F3;stroke-width:3.125;" x1="250.3133" x2="401.1668" y1="535.3251" y2="535.3251"/><polygon fill="#2196F3" points="397.0001,647.76,401.1668,658.1767,405.3335,647.76,401.1668,651.9267" style="stroke:#2196F3;stroke-width:3.125;"/><line style="stroke:#2196F3;stroke-width:3.125;" x1="401.1668" x2="401.1668" y1="535.3251" y2="759.6741"/><line style="stroke:#2196F3;stroke-width:3.125;" x1="401.1668" x2="153.5563" y1="759.6741" y2="759.6741"/><polygon fill="#2196F3" points="163.973,755.5074,153.5563,759.6741,163.973,763.8407,159.8063,759.6741" style="stroke:#2196F3;stroke-width:1.0417;"/><line style="stroke:#2196F3;stroke-width:3.125;" x1="141.0563" x2="141.0563" y1="716.4693" y2="747.1741"/><polygon fill="#2196F3" points="136.8896,736.7574,141.0563,747.1741,145.223,736.7574,141.0563,740.9241" style="stroke:#2196F3;stroke-width:1.0417;"/><line style="stroke:#2196F3;stroke-width:3.125;" x1="141.0563" x2="141.0563" y1="496.7997" y2="517.6331"/><polygon fill="#2196F3" points="136.8896,507.2164,141.0563,517.6331,145.223,507.2164,141.0563,511.3831" style="stroke:#2196F3;stroke-width:1.0417;"/><line style="stroke:#2196F3;stroke-width:3.125;" x1="289.8514" x2="141.0563" y1="336.4644" y2="336.4644"/><line style="stroke:#2196F3;stroke-width:3.125;" x1="141.0563" x2="141.0563" y1="336.4644" y2="364.5732"/><polygon fill="#2196F3" points="136.8896,354.1565,141.0563,364.5732,145.223,354.1565,141.0563,358.3232" style="stroke:#2196F3;stroke-width:1.0417;"/><line style="stroke:#2196F3;stroke-width:3.125;" x1="376.2792" x2="525.0743" y1="336.4644" y2="336.4644"/><line style="stroke:#2196F3;stroke-width:3.125;" x1="525.0743" x2="525.0743" y1="336.4644" y2="374.4446"/><polygon fill="#2196F3" points="520.9076,364.0279,525.0743,374.4446,529.2409,364.0279,525.0743,368.1946" style="stroke:#2196F3;stroke-width:1.0417;"/><line style="stroke:#2196F3;stroke-width:3.125;" x1="141.0563" x2="141.0563" y1="772.1741" y2="795.0907"/><line style="stroke:#2196F3;stroke-width:3.125;" x1="141.0563" x2="320.5653" y1="795.0907" y2="795.0907"/><polygon fill="#2196F3" points="310.1486,790.9241,320.5653,795.0907,310.1486,799.2574,314.3153,795.0907" style="stroke:#2196F3;stroke-width:1.0417;"/><line style="stroke:#2196F3;stroke-width:3.125;" x1="525.0743" x2="525.0743" y1="422.3287" y2="795.0907"/><line style="stroke:#2196F3;stroke-width:3.125;" x1="525.0743" x2="345.5653" y1="795.0907" y2="795.0907"/><polygon fill="#2196F3" points="355.982,790.9241,345.5653,795.0907,355.982,799.2574,351.8153,795.0907" style="stroke:#2196F3;stroke-width:1.0417;"/><line style="stroke:#2196F3;stroke-width:3.125;" x1="244.6152" x2="182.9442" y1="846.1161" y2="846.1161"/><polygon fill="#2196F3" points="178.7776,1241.8986,182.9442,1252.3153,187.1109,1241.8986,182.9442,1246.0653" style="stroke:#2196F3;stroke-width:3.125;"/><line style="stroke:#2196F3;stroke-width:3.125;" x1="182.9442" x2="182.9442" y1="846.1161" y2="1632.8145"/><line style="stroke:#2196F3;stroke-width:3.125;" x1="182.9442" x2="320.5653" y1="1632.8145" y2="1632.8145"/><polygon fill="#2196F3" points="310.1486,1628.6479,320.5653,1632.8145,310.1486,1636.9812,314.3153,1632.8145" style="stroke:#2196F3;stroke-width:1.0417;"/><line style="stroke:#2196F3;stroke-width:3.125;" x1="333.0653" x2="333.0653" y1="807.5907" y2="828.4241"/><polygon fill="#2196F3" points="328.8986,818.0074,333.0653,828.4241,337.232,818.0074,333.0653,822.1741" style="stroke:#2196F3;stroke-width:1.0417;"/><line style="stroke:#2196F3;stroke-width:3.125;" x1="914.2436" x2="914.2436" y1="1106.5226" y2="1137.7645"/><polygon fill="#2196F3" points="910.0769,1127.3478,914.2436,1137.7645,918.4102,1127.3478,914.2436,1131.5145" style="stroke:#2196F3;stroke-width:1.0417;"/><line style="stroke:#2196F3;stroke-width:3.125;" x1="914.2436" x2="914.2436" y1="1022.1965" y2="1058.6385"/><polygon fill="#2196F3" points="910.0769,1048.2218,914.2436,1058.6385,918.4102,1048.2218,914.2436,1052.3885" style="stroke:#2196F3;stroke-width:1.0417;"/><line style="stroke:#2196F3;stroke-width:3.125;" x1="970.8272" x2="1046.4335" y1="1004.5044" y2="1004.5044"/><polygon fill="#2196F3" points="1042.2668,1116.9393,1046.4335,1127.356,1050.6002,1116.9393,1046.4335,1121.106" style="stroke:#2196F3;stroke-width:3.125;"/><line style="stroke:#2196F3;stroke-width:3.125;" x1="1046.4335" x2="1046.4335" y1="1004.5044" y2="1218.9819"/><line style="stroke:#2196F3;stroke-width:3.125;" x1="1046.4335" x2="926.7436" y1="1218.9819" y2="1218.9819"/><polygon fill="#2196F3" points="937.1602,1214.8153,926.7436,1218.9819,937.1602,1223.1486,932.9936,1218.9819" style="stroke:#2196F3;stroke-width:1.0417;"/><line style="stroke:#2196F3;stroke-width:3.125;" x1="914.2436" x2="914.2436" y1="1185.6486" y2="1206.4819"/><polygon fill="#2196F3" points="910.0769,1196.0653,914.2436,1206.4819,918.4102,1196.0653,914.2436,1200.2319" style="stroke:#2196F3;stroke-width:1.0417;"/><line style="stroke:#2196F3;stroke-width:3.125;" x1="914.2436" x2="914.2436" y1="956.1076" y2="986.8123"/><polygon fill="#2196F3" points="910.0769,976.3957,914.2436,986.8123,918.4102,976.3957,914.2436,980.5623" style="stroke:#2196F3;stroke-width:1.0417;"/><line style="stroke:#2196F3;stroke-width:3.125;" x1="914.2436" x2="914.2436" y1="1231.4819" y2="1262.7238"/><polygon fill="#2196F3" points="910.0769,1252.3071,914.2436,1262.7238,918.4102,1252.3071,914.2436,1256.4738" style="stroke:#2196F3;stroke-width:1.0417;"/><line style="stroke:#2196F3;stroke-width:3.125;" x1="914.2436" x2="914.2436" y1="1310.6079" y2="1347.3755"/><polygon fill="#2196F3" points="910.0769,1336.9588,914.2436,1347.3755,918.4102,1336.9588,914.2436,1341.1255" style="stroke:#2196F3;stroke-width:1.0417;"/><line style="stroke:#2196F3;stroke-width:3.125;" x1="914.2436" x2="914.2436" y1="1451.4771" y2="1495.8923"/><polygon fill="#2196F3" points="910.0769,1485.4757,914.2436,1495.8923,918.4102,1485.4757,914.2436,1489.6423" style="stroke:#2196F3;stroke-width:1.0417;"/><line style="stroke:#2196F3;stroke-width:3.125;" x1="971.0073" x2="1177.8982" y1="1433.785" y2="1433.785"/><polygon fill="#2196F3" points="1173.7315,1517.2384,1177.8982,1527.655,1182.0648,1517.2384,1177.8982,1521.405" style="stroke:#2196F3;stroke-width:3.125;"/><line style="stroke:#2196F3;stroke-width:3.125;" x1="1177.8982" x2="1177.8982" y1="1433.785" y2="1586.9812"/><line style="stroke:#2196F3;stroke-width:3.125;" x1="1177.8982" x2="926.7436" y1="1586.9812" y2="1586.9812"/><polygon fill="#2196F3" points="937.1602,1582.8145,926.7436,1586.9812,937.1602,1591.1479,932.9936,1586.9812" style="stroke:#2196F3;stroke-width:1.0417;"/><line style="stroke:#2196F3;stroke-width:3.125;" x1="914.2436" x2="914.2436" y1="1543.7764" y2="1574.4812"/><polygon fill="#2196F3" points="910.0769,1564.0645,914.2436,1574.4812,918.4102,1564.0645,914.2436,1568.2312" style="stroke:#2196F3;stroke-width:1.0417;"/><line style="stroke:#2196F3;stroke-width:3.125;" x1="914.2436" x2="914.2436" y1="1395.2596" y2="1416.0929"/><polygon fill="#2196F3" points="910.0769,1405.6763,914.2436,1416.0929,918.4102,1405.6763,914.2436,1409.8429" style="stroke:#2196F3;stroke-width:1.0417;"/><line style="stroke:#2196F3;stroke-width:3.125;" x1="1625.4974" x2="1625.4974" y1="221.401" y2="252.1057"/><polygon fill="#2196F3" points="1621.3308,241.689,1625.4974,252.1057,1629.6641,241.689,1625.4974,245.8557" style="stroke:#2196F3;stroke-width:1.0417;"/><line style="stroke:#2196F3;stroke-width:3.125;" x1="1452.2797" x2="1452.2797" y1="1879.2338" y2="1939.6179"/><polygon fill="#2196F3" points="1448.113,1929.2013,1452.2797,1939.6179,1456.4463,1929.2013,1452.2797,1933.3679" style="stroke:#2196F3;stroke-width:1.0417;"/><line style="stroke:#2196F3;stroke-width:3.125;" x1="1452.2797" x2="1452.2797" y1="1987.502" y2="2000.002"/><line style="stroke:#2196F3;stroke-width:3.125;" x1="1452.2797" x2="1610.9141" y1="2000.002" y2="2000.002"/><polygon fill="#2196F3" points="1606.7474,1941.1886,1610.9141,1930.7719,1615.0808,1941.1886,1610.9141,1937.0219" style="stroke:#2196F3;stroke-width:3.125;"/><line style="stroke:#2196F3;stroke-width:3.125;" x1="1610.9141" x2="1610.9141" y1="1861.5417" y2="2000.002"/><line style="stroke:#2196F3;stroke-width:3.125;" x1="1610.9141" x2="1530.4148" y1="1861.5417" y2="1861.5417"/><polygon fill="#2196F3" points="1540.8315,1857.3751,1530.4148,1861.5417,1540.8315,1865.7084,1536.6648,1861.5417" style="stroke:#2196F3;stroke-width:1.0417;"/><line style="stroke:#2196F3;stroke-width:3.125;" x1="1374.1445" x2="1293.6452" y1="1861.5417" y2="1861.5417"/><polygon fill="#2196F3" points="1289.4786,1937.0219,1293.6452,1947.4386,1297.8119,1937.0219,1293.6452,1941.1886" style="stroke:#2196F3;stroke-width:3.125;"/><line style="stroke:#2196F3;stroke-width:3.125;" x1="1293.6452" x2="1293.6452" y1="1861.5417" y2="2033.3354"/><line style="stroke:#2196F3;stroke-width:3.125;" x1="1293.6452" x2="1452.2797" y1="2033.3354" y2="2033.3354"/><line style="stroke:#2196F3;stroke-width:3.125;" x1="1452.2797" x2="1452.2797" y1="2033.3354" y2="2067.629"/><polygon fill="#2196F3" points="1448.113,2057.2123,1452.2797,2067.629,1456.4463,2057.2123,1452.2797,2061.379" style="stroke:#2196F3;stroke-width:1.0417;"/><line style="stroke:#2196F3;stroke-width:3.125;" x1="1452.2797" x2="1452.2797" y1="1807.3914" y2="1843.8497"/><polygon fill="#2196F3" points="1448.113,1833.433,1452.2797,1843.8497,1456.4463,1833.433,1452.2797,1837.5997" style="stroke:#2196F3;stroke-width:1.0417;"/><line style="stroke:#2196F3;stroke-width:3.125;" x1="1811.2152" x2="1811.2152" y1="1901.5889" y2="1961.9731"/><polygon fill="#2196F3" points="1807.0485,1951.5564,1811.2152,1961.9731,1815.3819,1951.5564,1811.2152,1955.7231" style="stroke:#2196F3;stroke-width:1.0417;"/><line style="stroke:#2196F3;stroke-width:3.125;" x1="1811.2152" x2="1811.2152" y1="2009.8572" y2="2022.3572"/><line style="stroke:#2196F3;stroke-width:3.125;" x1="1811.2152" x2="1969.8497" y1="2022.3572" y2="2022.3572"/><polygon fill="#2196F3" points="1965.683,1963.5437,1969.8497,1953.127,1974.0163,1963.5437,1969.8497,1959.377" style="stroke:#2196F3;stroke-width:3.125;"/><line style="stroke:#2196F3;stroke-width:3.125;" x1="1969.8497" x2="1969.8497" y1="1883.8969" y2="2022.3572"/><line style="stroke:#2196F3;stroke-width:3.125;" x1="1969.8497" x2="1889.3504" y1="1883.8969" y2="1883.8969"/><polygon fill="#2196F3" points="1899.767,1879.7302,1889.3504,1883.8969,1899.767,1888.0636,1895.6004,1883.8969" style="stroke:#2196F3;stroke-width:1.0417;"/><line style="stroke:#2196F3;stroke-width:3.125;" x1="1733.08" x2="1652.5808" y1="1883.8969" y2="1883.8969"/><polygon fill="#2196F3" points="1648.4141,1959.377,1652.5808,1969.7937,1656.7474,1959.377,1652.5808,1963.5437" style="stroke:#2196F3;stroke-width:3.125;"/><line style="stroke:#2196F3;stroke-width:3.125;" x1="1652.5808" x2="1652.5808" y1="1883.8969" y2="2040.0655"/><line style="stroke:#2196F3;stroke-width:3.125;" x1="1652.5808" x2="1811.2152" y1="2040.0655" y2="2040.0655"/><line style="stroke:#2196F3;stroke-width:3.125;" x1="1811.2152" x2="1811.2152" y1="2040.0655" y2="2067.629"/><polygon fill="#2196F3" points="1807.0485,2057.2123,1811.2152,2067.629,1815.3819,2057.2123,1811.2152,2061.379" style="stroke:#2196F3;stroke-width:1.0417;"/><line style="stroke:#2196F3;stroke-width:3.125;" x1="1811.2152" x2="1811.2152" y1="1829.7465" y2="1866.2048"/><polygon fill="#2196F3" points="1807.0485,1855.7882,1811.2152,1866.2048,1815.3819,1855.7882,1811.2152,1859.9548" style="stroke:#2196F3;stroke-width:1.0417;"/><line style="stroke:#2196F3;stroke-width:3.125;" x1="1452.2797" x2="1452.2797" y1="1740.2364" y2="1759.5072"/><polygon fill="#2196F3" points="1448.113,1749.0906,1452.2797,1759.5072,1456.4463,1749.0906,1452.2797,1753.2572" style="stroke:#2196F3;stroke-width:1.0417;"/><line style="stroke:#2196F3;stroke-width:3.125;" x1="1811.2152" x2="1811.2152" y1="1740.2364" y2="1781.8624"/><polygon fill="#2196F3" points="1807.0485,1771.4457,1811.2152,1781.8624,1815.3819,1771.4457,1811.2152,1775.6124" style="stroke:#2196F3;stroke-width:1.0417;"/><line style="stroke:#2196F3;stroke-width:3.125;" x1="1625.4974" x2="1625.4974" y1="1714.032" y2="1738.6739"/><polygon fill="#2196F3" points="1621.3308,1728.2572,1625.4974,1738.6739,1629.6641,1728.2572,1625.4974,1732.4239" style="stroke:#2196F3;stroke-width:1.0417;"/><line style="stroke:#2196F3;stroke-width:3.125;" x1="333.0653" x2="333.0653" y1="129.1016" y2="152.2583"/><line style="stroke:#2196F3;stroke-width:3.125;" x1="333.0653" x2="1625.4974" y1="152.2583" y2="152.2583"/><line style="stroke:#2196F3;stroke-width:3.125;" x1="1625.4974" x2="1625.4974" y1="152.2583" y2="173.5168"/><polygon fill="#2196F3" points="1621.3308,163.1002,1625.4974,173.5168,1629.6641,163.1002,1625.4974,167.2668" style="stroke:#2196F3;stroke-width:1.0417;"/><line style="stroke:#2196F3;stroke-width:3.125;" x1="333.0653" x2="333.0653" y1="863.8082" y2="886.9649"/><line style="stroke:#2196F3;stroke-width:3.125;" x1="333.0653" x2="914.2436" y1="886.9649" y2="886.9649"/><line style="stroke:#2196F3;stroke-width:3.125;" x1="914.2436" x2="914.2436" y1="886.9649" y2="908.2235"/><polygon fill="#2196F3" points="910.0769,897.8068,914.2436,908.2235,918.4102,897.8068,914.2436,901.9735" style="stroke:#2196F3;stroke-width:1.0417;"/><line style="stroke:#2196F3;stroke-width:3.125;" x1="914.2436" x2="914.2436" y1="1599.4812" y2="1604.6895"/><line style="stroke:#2196F3;stroke-width:3.125;" x1="914.2436" x2="333.0653" y1="1604.6895" y2="1604.6895"/><line style="stroke:#2196F3;stroke-width:3.125;" x1="333.0653" x2="333.0653" y1="1604.6895" y2="1620.3145"/><polygon fill="#2196F3" points="328.8986,1609.8979,333.0653,1620.3145,337.232,1609.8979,333.0653,1614.0645" style="stroke:#2196F3;stroke-width:1.0417;"/><line style="stroke:#2196F3;stroke-width:3.125;" x1="333.0653" x2="333.0653" y1="1645.3145" y2="1650.5229"/><line style="stroke:#2196F3;stroke-width:3.125;" x1="333.0653" x2="1625.4974" y1="1650.5229" y2="1650.5229"/><line style="stroke:#2196F3;stroke-width:3.125;" x1="1625.4974" x2="1625.4974" y1="1650.5229" y2="1666.1479"/><polygon fill="#2196F3" points="1621.3308,1655.7312,1625.4974,1666.1479,1629.6641,1655.7312,1625.4974,1659.8979" style="stroke:#2196F3;stroke-width:1.0417;"/><text fill="#2196F3" font-family="'Verdana'" font-size="12.5" lengthAdjust="spacing" textLength="47.2473" x="363.8763" y="33.4778">Receipt</text><text fill="#2196F3" font-family="'Verdana'" font-size="12.5" lengthAdjust="spacing" textLength="76.7883" x="978.2201" y="33.4778">Aggregation</text><text fill="#2196F3" font-family="'Verdana'" font-size="12.5" lengthAdjust="spacing" textLength="70.2637" x="1596.6156" y="33.4778">Forwarding</text><?plantuml-src jLRRRjj647tdLqm10vLRsBguUN445KvY1m4Isx7I5EqBkoP7r2BaBhixjA74-VVCB2-YQ3MNXmemGCukPywSStRMFz4Q2uH24JgjecZkQPFZ8b89wJjDcnTQPKuLy2a2IBKgh4d3Cy0pbNp8dArC-jpcri71k_EprxpocV-KS_Q-sNTX3IqbAJopUTfiC9Qmlwu_8amdOV5p5AKsgGeq57OCwv1JnfVAyJgl_bDWG0vr7_VAa0UoK7c4z-XIPHJShtMo1ktDpmJQU59vZW94Abyg_ifpnYFFQLPSVJvkA8WUu0OJr2N10p-VPPd3J96s9hnVM7UlNAfDngyxUxc2eoZIAnYzadBSo7RpxuS2rS3etAXRnd78G0R904xRxrPr_2dCvwJyXyMYvIx75GNwbkIGzT6chEf0gXqcb6-OXVeTFMaJSFCxidwIW1yzsJB2d8aQlT2-0SFhpC9EEw4F3t-_kkwm_uLUS1zStPnTlZm_7K-ciPFzTzn0_56NOpCMoBOYHXL0douJPIG78o2dqU-q1215jBbJkKwbQVOZNDt0OWeYVJceAx-3wpzkhbzBxLdioroJr8q33V6_5LOuJiV6C8vsVuVrfBS_F7c6EyzSkHY2bbzWs-biJKq0uCgmPQhR8sQwYvNeQgXTPBH2JE5Ne4s9BUWU-_mIgB-qzM9DV3-sdrslYpB7nmGFS2wHIJ2asUkR431LSOik-BxrY1KT-fven1Sj-cx7ngcx8WnFH4-IsIGk7SQgMSV_a6K0MMZLX4Nj1m_Jer_Oe-9k7q9i2x2yHtXz45PtxIoetrGvwICU3jHPjUX2DSyTgxF6DtmuCgQJGSLpsSRv5ezyiFsgTK-z_5Y7Ma7FINdYRSi-PgickvzwkikQRqpPeVggv7-kMLteFWwbVHZ528dbYPSGsx5YI-GSPLPJcH2WlCU2rOrg_aF5OEOBOVaTitpSfxclyidacmg7qS6ICWAkt4eIL68J1xMt1xhbuMJQvy1yvw5SaifaV7A_IgpIBMmfaUcpqZdwusxnhG1EsLO9rfmSxpkfUoPqBNDhsLRZuIPECZZKWptTkDs9TXJ_DebNtS9UZdUOEEjQ3Rr4zPdPPeYsEWOJRmizwHSQp-NEWEb29ayJxWhoPShAZHgyF0UJ1BtduyOdThHIkhdIlfbvnZEDtARBoz2Qr4tAmoXSKFiRbEjB_a48Trp_XXjqoEehRRxUv-n_wtFs0tr-0G00?></g></svg>