<?xml version="1.0" encoding="UTF-8" standalone="no"?><svg xmlns="http://www.w3.org/2000/svg" xmlns:xlink="http://www.w3.org/1999/xlink" contentScriptType="application/ecmascript" contentStyleType="text/css" height="648px" preserveAspectRatio="none" style="width:1634px;height:648px;" version="1.1" viewBox="0 0 1634 648" width="1634px" zoomAndPan="magnify"><defs><filter height="300%" id="fws2fbaz7gri5" width="300%" x="-1" y="-1"><feGaussianBlur result="blurOut" stdDeviation="2.0"/><feColorMatrix in="blurOut" result="blurOut2" type="matrix" values="0 0 0 0 0 0 0 0 0 0 0 0 0 0 0 0 0 0 .4 0"/><feOffset dx="4.0" dy="4.0" in="blurOut2" result="blurOut3"/><feBlend in="SourceGraphic" in2="blurOut3" mode="normal"/></filter></defs><g><path d="M38.5981,107.4802 C44.8931,95.9658 56.7673,95.9711 63.3458,107.1713 C70.7255,92.4187 81.0946,88.4893 93.779,101.3181 C98.6732,87.7081 112.8142,83.9033 122.663,95.6812 C134.6323,84.0906 147.201,86.0873 152.6175,102.6526 C162.8505,89.8389 172.3524,94.0362 179.355,106.1216 C191.6092,92.4533 207.9873,95.4573 214.0547,113 C216.1924,112.728 216.7886,114.3801 216.0534,116.0135 C231.9079,124.7533 229.8868,138.0444 215.3912,146.1166 C229.2949,152.001 230.9291,161.7439 221.5405,172.9634 C232.8786,181.2759 230.5542,191.3747 219.4553,197.8036 C233.9284,206.6883 234.5954,220.8814 219.1312,229.4596 C232.1899,234.934 237.1886,245.4708 224.5415,256.155 C235.2294,263.8887 235.7605,276.692 222.1257,282.1668 C236.7492,289.9529 235.9977,300.6075 224.049,310.2156 C236.999,316.9935 242.1941,331.8933 226.1469,340.6689 C240.7406,350.1671 237.109,364.2556 223.02,370.7747 C233.6734,379.5552 235.1478,388.307 222.1765,396.307 C235.5986,404.8055 235.5492,418.1639 221.8231,426.343 C233.2789,432.9478 231.8636,444.0226 221.0472,449.8935 C237.2355,458.757 233.9421,472.6535 219.9594,480.4428 C230.1879,496.5074 224.55,507.9242 207.0547,513 C210.9805,512.1282 212.3253,514.2546 211.3344,517.7825 C201.2379,532.5206 186.838,529.9479 178.8404,515.4498 C171.9282,526.0596 160.1795,526.1275 153.763,514.8809 C144.5615,532.9621 133.7951,533.172 121.6371,517.7128 C111.4757,530.8454 102.6834,529.1739 95.4292,514.9296 C85.5762,528.8674 74.0556,527.9294 65.1412,513.9127 C49.8062,528.4993 35.2173,525.9366 27.0547,506 C27.7788,506.1731 27.753,506.5902 27.4201,507.111 C14.5959,501.3745 13.5635,488.7387 26.0408,481.6325 C12.8865,471.3282 15.8134,459.3514 28.764,451.3984 C12.2484,445.5404 10.6812,436.7941 22.7848,424.5603 C11.8225,414.1464 11.0075,405.8633 25.5368,398.1009 C11.6262,391.5296 10.4236,377.7875 21.6154,367.9512 C8.5846,361.1829 9.5098,348.635 21.2779,341.5497 C7.0598,334.5106 6,324.3546 18.6029,314.6485 C6.0349,306.3454 6.8689,292.4152 20.0081,285.3449 C8.5033,277.8437 6.5418,265.4365 19.9525,257.8849 C7.0408,247.9666 8.9947,235.6752 22.6379,228.1555 C8.3071,219.8 8.7675,208.0392 23.0071,200.0592 C11.0429,191.1906 11.1857,176.1647 25.8006,169.7454 C10.7767,161.5819 15.2496,148.012 27.1513,141.119 C14.5351,126.6892 16.8932,114.5763 34.0547,106 C36.2826,104.2307 37.827,104.7779 38.5981,107.4802 " fill="#F0FFFF" filter="url(#fws2fbaz7gri5)" style="stroke:#000000;stroke-width:1.5;"/><path d="M506.1158,31.2655 C512.1047,16.7733 525.0913,15.0372 535.8142,25.6696 C544.6999,10.3108 554.1492,11.1368 563.8518,24.8826 C571.9673,6.8786 584.9184,6.9816 595.8521,22.1652 C603.4081,8.8915 617.4159,7.7652 624.7276,22.4179 C634.4688,11.5888 643.6042,12.9074 650.8627,25.2215 C666.5075,10.3359 680.7843,17.013 686.0547,36 C688.1909,35.6613 689.3035,36.6568 688.8669,38.8536 C699.8565,48.1142 699.5339,57.2316 687.8568,65.6374 C700.9147,74.044 704.1603,88.6827 687.6876,96.9297 C703.0883,103.6115 700.989,112.3702 691.8467,122.9716 C706.4726,131.8324 705.6632,143.7079 692.0105,152.7244 C704.1178,160.7677 702.7468,170.9246 689.6245,176.4284 C707.7681,184.8253 707.8669,199.3609 691.0334,209.2588 C702.5949,217.8044 702.876,227.7917 689.9132,235.2816 C704.1008,241.0325 705.7948,253.443 692.6816,262.0205 C706.3437,273.8953 704.4615,284.9366 688.9235,293.3036 C703.0244,301.4175 701.8235,313.5301 688.2795,321.0013 C701.7299,327.0999 700.7488,339.9973 688.977,346.7784 C702.7435,354.0222 701.8638,365.6589 690.1462,373.9974 C704.9959,382.1822 706.4253,396.64 689.6475,404.3044 C702.8146,419.9982 697.2065,430.773 679.0547,436 C679.8437,434.7435 681.1319,434.8024 681.7656,436.161 C676.1897,452.357 663.1861,456.594 650.8223,443.2782 C641.237,458.0602 630.2671,457.378 621.5281,442.4439 C618.1756,457.3825 606.5976,459.9921 596.4382,449.0403 C582.8583,463.0215 572.7545,461.5583 565.3074,443.1465 C556.9329,458.2384 543.382,454.9355 536.3751,441.7473 C520.7054,455.444 503.42,448.3994 499.0547,429 C501.7598,427.7259 503.8767,429.5019 503.5348,432.3287 C486.0838,424.3925 484.2362,414.4151 498.6361,401.4294 C486.4411,391.7251 489.4874,381.936 501.4892,374.8267 C489.4961,367.4963 491.1612,354.8646 502.7491,348.6701 C487.3179,342.5757 486.073,328.4802 498.0715,318.1779 C482.4506,309.2516 482.5567,299.2811 497.2965,289.5333 C486.4656,279.2698 485.9901,270.7034 500.8539,264.0231 C487.5595,255.278 488.541,242.3244 500.7446,233.488 C490.4552,226.9054 490.2394,216.9756 499.9169,209.6982 C487.4139,200.7804 484.6535,189.6892 499.7254,180.59 C485.0148,171.6305 482.5824,158.7889 499.2324,149.3346 C486.4514,141.199 490.2565,128.6148 502.3967,123.5359 C489.2232,114.6847 488.7257,101.5544 502.9439,93.1972 C490.0302,85.7856 490.4573,76.2569 501.5619,67.551 C483.8471,55.3458 487.3463,36.9604 506.0547,29 C507.0661,29.7634 507.203,30.4455 506.1158,31.2655 " fill="#F0FFFF" filter="url(#fws2fbaz7gri5)" style="stroke:#000000;stroke-width:1.5;"/><!--MD5=[fae270e389c3130676e7ac84359f30e0]
cluster stroom--><rect fill="#F5F5F5" filter="url(#fws2fbaz7gri5)" height="502" style="stroke:#000000;stroke-width:1.5;" width="863" x="759.0547" y="7"/><text fill="#000000" font-family="sans-serif" font-size="14" font-weight="bold" lengthAdjust="spacing" textLength="104" x="1138.5547" y="21.9951">Stroom cluster</text><!--MD5=[645194e515a9b2a32fdf7d85e2953cd3]
cluster stroomProxyLocal--><rect fill="#F5F5F5" filter="url(#fws2fbaz7gri5)" height="168" style="stroke:#000000;stroke-width:1.5;" width="152" x="783.0547" y="215"/><text fill="#000000" font-family="sans-serif" font-size="14" font-weight="bold" lengthAdjust="spacing" textLength="136" x="791.0547" y="229.9951">Local Stroom Proxy</text><!--MD5=[bf57dfef5775960f0033d1054d164cee]
cluster stroomProxyRemote--><rect fill="#F5F5F5" filter="url(#fws2fbaz7gri5)" height="239" style="stroke:#000000;stroke-width:1.5;" width="171" x="287.0547" y="275"/><text fill="#000000" font-family="sans-serif" font-size="14" font-weight="bold" lengthAdjust="spacing" textLength="155" x="295.0547" y="289.9951">Remote Stroom Proxy</text><!--MD5=[dd899c2d4a1169e3d6a22332e2a422d2]
entity rawFixedWidthLog--><polygon fill="#ADD8E6" filter="url(#fws2fbaz7gri5)" points="59.5547,114,59.5547,150.2969,181.5547,150.2969,181.5547,124,171.5547,114,59.5547,114" style="stroke:#000000;stroke-width:1.5;"/><path d="M171.5547,114 L171.5547,124 L181.5547,124 " fill="#ADD8E6" style="stroke:#000000;stroke-width:1.5;"/><text fill="#000000" font-family="sans-serif" font-size="14" lengthAdjust="spacing" textLength="102" x="69.5547" y="136.9951">Fixed Width Log</text><!--MD5=[ad516eb78026a1c3c594f28426aee421]
entity rawCsvLog--><polygon fill="#ADD8E6" filter="url(#fws2fbaz7gri5)" points="86.0547,185,86.0547,221.2969,155.0547,221.2969,155.0547,195,145.0547,185,86.0547,185" style="stroke:#000000;stroke-width:1.5;"/><path d="M145.0547,185 L145.0547,195 L155.0547,195 " fill="#ADD8E6" style="stroke:#000000;stroke-width:1.5;"/><text fill="#000000" font-family="sans-serif" font-size="14" lengthAdjust="spacing" textLength="49" x="96.0547" y="207.9951">CSV Log</text><!--MD5=[df442d4ed1867404c79090b36a28510f]
entity rawJsonLog--><polygon fill="#ADD8E6" filter="url(#fws2fbaz7gri5)" points="82.0547,256,82.0547,292.2969,159.0547,292.2969,159.0547,266,149.0547,256,82.0547,256" style="stroke:#000000;stroke-width:1.5;"/><path d="M149.0547,256 L149.0547,266 L159.0547,266 " fill="#ADD8E6" style="stroke:#000000;stroke-width:1.5;"/><text fill="#000000" font-family="sans-serif" font-size="14" lengthAdjust="spacing" textLength="57" x="92.0547" y="278.9951">JSON Log</text><!--MD5=[3d4214cedee384051d493152a651511b]
entity rawXmlLog--><polygon fill="#ADD8E6" filter="url(#fws2fbaz7gri5)" points="84.0547,327,84.0547,363.2969,157.0547,363.2969,157.0547,337,147.0547,327,84.0547,327" style="stroke:#000000;stroke-width:1.5;"/><path d="M147.0547,327 L147.0547,337 L157.0547,337 " fill="#ADD8E6" style="stroke:#000000;stroke-width:1.5;"/><text fill="#000000" font-family="sans-serif" font-size="14" lengthAdjust="spacing" textLength="53" x="94.0547" y="349.9951">XML Log</text><!--MD5=[219e086581bab4dafb14b5a7b9457d40]
entity rawEventsLog--><polygon fill="#ADD8E6" filter="url(#fws2fbaz7gri5)" points="35.0547,398,35.0547,434.2969,206.0547,434.2969,206.0547,408,196.0547,398,35.0547,398" style="stroke:#000000;stroke-width:1.5;"/><path d="M196.0547,398 L196.0547,408 L206.0547,408 " fill="#ADD8E6" style="stroke:#000000;stroke-width:1.5;"/><text fill="#000000" font-family="sans-serif" font-size="14" lengthAdjust="spacing" textLength="151" x="45.0547" y="420.9951">XML (event-logging) Log</text><!--MD5=[47a7e4ad16677452e996a57ab7242a85]
entity refDataLog--><polygon fill="#ADD8E6" filter="url(#fws2fbaz7gri5)" points="62.0547,469,62.0547,505.2969,179.0547,505.2969,179.0547,479,169.0547,469,62.0547,469" style="stroke:#000000;stroke-width:1.5;"/><path d="M169.0547,469 L169.0547,479 L179.0547,479 " fill="#ADD8E6" style="stroke:#000000;stroke-width:1.5;"/><text fill="#000000" font-family="sans-serif" font-size="14" lengthAdjust="spacing" textLength="97" x="72.0547" y="491.9951">Reference Data</text><!--MD5=[c3491f14ed8d48fe801894e8ff34b5aa]
entity rawFixedWidthLog2--><polygon fill="#ADD8E6" filter="url(#fws2fbaz7gri5)" points="531.5547,37,531.5547,73.2969,653.5547,73.2969,653.5547,47,643.5547,37,531.5547,37" style="stroke:#000000;stroke-width:1.5;"/><path d="M643.5547,37 L643.5547,47 L653.5547,47 " fill="#ADD8E6" style="stroke:#000000;stroke-width:1.5;"/><text fill="#000000" font-family="sans-serif" font-size="14" lengthAdjust="spacing" textLength="102" x="541.5547" y="59.9951">Fixed Width Log</text><!--MD5=[8ea157e3886bbe7047c6fff9aa1f798a]
entity rawCsvLog2--><polygon fill="#ADD8E6" filter="url(#fws2fbaz7gri5)" points="558.0547,108,558.0547,144.2969,627.0547,144.2969,627.0547,118,617.0547,108,558.0547,108" style="stroke:#000000;stroke-width:1.5;"/><path d="M617.0547,108 L617.0547,118 L627.0547,118 " fill="#ADD8E6" style="stroke:#000000;stroke-width:1.5;"/><text fill="#000000" font-family="sans-serif" font-size="14" lengthAdjust="spacing" textLength="49" x="568.0547" y="130.9951">CSV Log</text><!--MD5=[1198744b31bfdf215d78c8e86a1217c9]
entity rawJsonLog2--><polygon fill="#ADD8E6" filter="url(#fws2fbaz7gri5)" points="554.0547,179,554.0547,215.2969,631.0547,215.2969,631.0547,189,621.0547,179,554.0547,179" style="stroke:#000000;stroke-width:1.5;"/><path d="M621.0547,179 L621.0547,189 L631.0547,189 " fill="#ADD8E6" style="stroke:#000000;stroke-width:1.5;"/><text fill="#000000" font-family="sans-serif" font-size="14" lengthAdjust="spacing" textLength="57" x="564.0547" y="201.9951">JSON Log</text><!--MD5=[e448dc7ea54c01f3a6fe7f6f3d2c29b7]
entity rawXmlLog2--><polygon fill="#ADD8E6" filter="url(#fws2fbaz7gri5)" points="556.0547,250,556.0547,286.2969,629.0547,286.2969,629.0547,260,619.0547,250,556.0547,250" style="stroke:#000000;stroke-width:1.5;"/><path d="M619.0547,250 L619.0547,260 L629.0547,260 " fill="#ADD8E6" style="stroke:#000000;stroke-width:1.5;"/><text fill="#000000" font-family="sans-serif" font-size="14" lengthAdjust="spacing" textLength="53" x="566.0547" y="272.9951">XML Log</text><!--MD5=[a034cf9293d758ed8222975919ff802b]
entity rawEventsLog2--><polygon fill="#ADD8E6" filter="url(#fws2fbaz7gri5)" points="507.0547,321,507.0547,357.2969,678.0547,357.2969,678.0547,331,668.0547,321,507.0547,321" style="stroke:#000000;stroke-width:1.5;"/><path d="M668.0547,321 L668.0547,331 L678.0547,331 " fill="#ADD8E6" style="stroke:#000000;stroke-width:1.5;"/><text fill="#000000" font-family="sans-serif" font-size="14" lengthAdjust="spacing" textLength="151" x="517.0547" y="343.9951">XML (event-logging) Log</text><!--MD5=[bf57f9d15026a7c18c76a30c621daa16]
entity refDataLog2--><polygon fill="#ADD8E6" filter="url(#fws2fbaz7gri5)" points="534.0547,392,534.0547,428.2969,651.0547,428.2969,651.0547,402,641.0547,392,534.0547,392" style="stroke:#000000;stroke-width:1.5;"/><path d="M641.0547,392 L641.0547,402 L651.0547,402 " fill="#ADD8E6" style="stroke:#000000;stroke-width:1.5;"/><text fill="#000000" font-family="sans-serif" font-size="14" lengthAdjust="spacing" textLength="97" x="544.0547" y="414.9951">Reference Data</text><!--MD5=[bf1b4add2ee2e1b53e65912b20fb7ef4]
entity ui--><rect fill="#FF8C00" filter="url(#fws2fbaz7gri5)" height="36.2969" style="stroke:#000000;stroke-width:1.5;" width="111" x="1222.5547" y="269"/><text fill="#000000" font-family="sans-serif" font-size="14" lengthAdjust="spacing" textLength="91" x="1232.5547" y="291.9951">User Interface</text><!--MD5=[d6c3a9b51a599202bd77b1aa92347b14]
entity dataStore--><path d="M982.0547,323 C982.0547,313 1042.5547,313 1042.5547,313 C1042.5547,313 1103.0547,313 1103.0547,323 L1103.0547,364.5938 C1103.0547,374.5938 1042.5547,374.5938 1042.5547,374.5938 C1042.5547,374.5938 982.0547,374.5938 982.0547,364.5938 L982.0547,323 " fill="#FF8C00" filter="url(#fws2fbaz7gri5)" style="stroke:#000000;stroke-width:1.5;"/><path d="M982.0547,323 C982.0547,333 1042.5547,333 1042.5547,333 C1042.5547,333 1103.0547,333 1103.0547,323 " fill="none" style="stroke:#000000;stroke-width:1.5;"/><text fill="#000000" font-family="sans-serif" font-size="14" lengthAdjust="spacing" textLength="66" x="1009.5547" y="349.9951">Data Store</text><text fill="#000000" font-family="sans-serif" font-size="14" lengthAdjust="spacing" textLength="97" x="996.0547" y="366.292">(Raw &amp; cooked)</text><!--MD5=[b30b38ce4569dacde3f8306bd4ec7604]
entity index--><path d="M1494.5547,191.5 C1494.5547,181.5 1547.5547,181.5 1547.5547,181.5 C1547.5547,181.5 1600.5547,181.5 1600.5547,191.5 L1600.5547,216.7969 C1600.5547,226.7969 1547.5547,226.7969 1547.5547,226.7969 C1547.5547,226.7969 1494.5547,226.7969 1494.5547,216.7969 L1494.5547,191.5 " fill="#FF8C00" filter="url(#fws2fbaz7gri5)" style="stroke:#000000;stroke-width:1.5;"/><path d="M1494.5547,191.5 C1494.5547,201.5 1547.5547,201.5 1547.5547,201.5 C1547.5547,201.5 1600.5547,201.5 1600.5547,191.5 " fill="none" style="stroke:#000000;stroke-width:1.5;"/><text fill="#000000" font-family="sans-serif" font-size="14" lengthAdjust="spacing" textLength="86" x="1504.5547" y="218.4951">Lucene Index</text><!--MD5=[4c0f23fd02223ef53248026b8e648784]
entity metaStore--><path d="M1503.0547,106.5 C1503.0547,96.5 1547.5547,96.5 1547.5547,96.5 C1547.5547,96.5 1592.0547,96.5 1592.0547,106.5 L1592.0547,131.7969 C1592.0547,141.7969 1547.5547,141.7969 1547.5547,141.7969 C1547.5547,141.7969 1503.0547,141.7969 1503.0547,131.7969 L1503.0547,106.5 " fill="#FF8C00" filter="url(#fws2fbaz7gri5)" style="stroke:#000000;stroke-width:1.5;"/><path d="M1503.0547,106.5 C1503.0547,116.5 1547.5547,116.5 1547.5547,116.5 C1547.5547,116.5 1592.0547,116.5 1592.0547,106.5 " fill="none" style="stroke:#000000;stroke-width:1.5;"/><text fill="#000000" font-family="sans-serif" font-size="14" lengthAdjust="spacing" textLength="69" x="1513.0547" y="133.4951">Meta Store</text><!--MD5=[a212ce8d58d997d86e869bdd3d3ebbc8]
entity streamProcessor--><rect fill="#FF8C00" filter="url(#fws2fbaz7gri5)" height="36.2969" style="stroke:#000000;stroke-width:1.5;" width="132" x="1212.0547" y="370"/><text fill="#000000" font-family="sans-serif" font-size="14" lengthAdjust="spacing" textLength="112" x="1222.0547" y="392.9951">Stream Processor</text><!--MD5=[4dbb01458ce496ea5d173c89e8a5b0b5]
entity refDataStore--><path d="M1489.0547,428.5 C1489.0547,418.5 1547.5547,418.5 1547.5547,418.5 C1547.5547,418.5 1606.0547,418.5 1606.0547,428.5 L1606.0547,453.7969 C1606.0547,463.7969 1547.5547,463.7969 1547.5547,463.7969 C1547.5547,463.7969 1489.0547,463.7969 1489.0547,453.7969 L1489.0547,428.5 " fill="#FF8C00" filter="url(#fws2fbaz7gri5)" style="stroke:#000000;stroke-width:1.5;"/><path d="M1489.0547,428.5 C1489.0547,438.5 1547.5547,438.5 1547.5547,438.5 C1547.5547,438.5 1606.0547,438.5 1606.0547,428.5 " fill="none" style="stroke:#000000;stroke-width:1.5;"/><text fill="#000000" font-family="sans-serif" font-size="14" lengthAdjust="spacing" textLength="97" x="1499.0547" y="455.4951">Reference Data</text><!--MD5=[903dfd193b4683a72b09a9b9dd4b51ba]
entity statsStore--><path d="M1490.0547,328.5 C1490.0547,318.5 1547.5547,318.5 1547.5547,318.5 C1547.5547,318.5 1605.0547,318.5 1605.0547,328.5 L1605.0547,353.7969 C1605.0547,363.7969 1547.5547,363.7969 1547.5547,363.7969 C1547.5547,363.7969 1490.0547,363.7969 1490.0547,353.7969 L1490.0547,328.5 " fill="#FF8C00" filter="url(#fws2fbaz7gri5)" style="stroke:#000000;stroke-width:1.5;"/><path d="M1490.0547,328.5 C1490.0547,338.5 1547.5547,338.5 1547.5547,338.5 C1547.5547,338.5 1605.0547,338.5 1605.0547,328.5 " fill="none" style="stroke:#000000;stroke-width:1.5;"/><text fill="#000000" font-family="sans-serif" font-size="14" lengthAdjust="spacing" textLength="95" x="1500.0547" y="355.4951">Statistics Store</text><!--MD5=[b6246f1584133969e88e63baa7936698]
entity proxyAggregator--><rect fill="#20B2AA" filter="url(#fws2fbaz7gri5)" height="36.2969" style="stroke:#000000;stroke-width:1.5;" width="88" x="815.0547" y="250"/><text fill="#000000" font-family="sans-serif" font-size="14" lengthAdjust="spacing" textLength="68" x="825.0547" y="272.9951">Aggregator</text><!--MD5=[b5171b7c2479a452223bd157e022bb93]
entity proxyRepo--><path d="M815.0547,331.5 C815.0547,321.5 859.0547,321.5 859.0547,321.5 C859.0547,321.5 903.0547,321.5 903.0547,331.5 L903.0547,356.7969 C903.0547,366.7969 859.0547,366.7969 859.0547,366.7969 C859.0547,366.7969 815.0547,366.7969 815.0547,356.7969 L815.0547,331.5 " fill="#20B2AA" filter="url(#fws2fbaz7gri5)" style="stroke:#000000;stroke-width:1.5;"/><path d="M815.0547,331.5 C815.0547,341.5 859.0547,341.5 859.0547,341.5 C859.0547,341.5 903.0547,341.5 903.0547,331.5 " fill="none" style="stroke:#000000;stroke-width:1.5;"/><text fill="#000000" font-family="sans-serif" font-size="14" lengthAdjust="spacing" textLength="68" x="825.0547" y="358.4951">Repository</text><!--MD5=[301dfc07f9db7f4afd0a1da945aa4b02]
entity proxyAggregatorRemote--><rect fill="#20B2AA" filter="url(#fws2fbaz7gri5)" height="36.2969" style="stroke:#000000;stroke-width:1.5;" width="88" x="328.0547" y="310"/><text fill="#000000" font-family="sans-serif" font-size="14" lengthAdjust="spacing" textLength="68" x="338.0547" y="332.9951">Aggregator</text><!--MD5=[fd7e5fce695d92048d30708d0034acd5]
entity proxyForwarderRemote--><rect fill="#20B2AA" filter="url(#fws2fbaz7gri5)" height="36.2969" style="stroke:#000000;stroke-width:1.5;" width="83" x="330.5547" y="462"/><text fill="#000000" font-family="sans-serif" font-size="14" lengthAdjust="spacing" textLength="63" x="340.5547" y="484.9951">Forwarder</text><!--MD5=[433cb05c0cd8ae37459450313b38ce6b]
entity proxyRepoRemote--><path d="M328.0547,391.5 C328.0547,381.5 372.0547,381.5 372.0547,381.5 C372.0547,381.5 416.0547,381.5 416.0547,391.5 L416.0547,416.7969 C416.0547,426.7969 372.0547,426.7969 372.0547,426.7969 C372.0547,426.7969 328.0547,426.7969 328.0547,416.7969 L328.0547,391.5 " fill="#20B2AA" filter="url(#fws2fbaz7gri5)" style="stroke:#000000;stroke-width:1.5;"/><path d="M328.0547,391.5 C328.0547,401.5 372.0547,401.5 372.0547,401.5 C372.0547,401.5 416.0547,401.5 416.0547,391.5 " fill="none" style="stroke:#000000;stroke-width:1.5;"/><text fill="#000000" font-family="sans-serif" font-size="14" lengthAdjust="spacing" textLength="68" x="338.0547" y="418.4951">Repository</text><!--MD5=[e29745d789d1cd237fb5892a53e7b9d1]
entity kafka--><rect fill="#90EE90" filter="url(#fws2fbaz7gri5)" height="36.2969" style="stroke:#000000;stroke-width:1.5;" width="53" x="1251.5547" y="525"/><text fill="#000000" font-family="sans-serif" font-size="14" lengthAdjust="spacing" textLength="33" x="1261.5547" y="547.9951">Kafka</text><!--MD5=[0d15b2eb428f0c0027bf5ef6513f3386]
entity solr--><path d="M1256.0547,606.5 C1256.0547,596.5 1278.0547,596.5 1278.0547,596.5 C1278.0547,596.5 1300.0547,596.5 1300.0547,606.5 L1300.0547,631.7969 C1300.0547,641.7969 1278.0547,641.7969 1278.0547,641.7969 C1278.0547,641.7969 1256.0547,641.7969 1256.0547,631.7969 L1256.0547,606.5 " fill="#90EE90" filter="url(#fws2fbaz7gri5)" style="stroke:#000000;stroke-width:1.5;"/><path d="M1256.0547,606.5 C1256.0547,616.5 1278.0547,616.5 1278.0547,616.5 C1278.0547,616.5 1300.0547,616.5 1300.0547,606.5 " fill="none" style="stroke:#000000;stroke-width:1.5;"/><text fill="#000000" font-family="sans-serif" font-size="14" lengthAdjust="spacing" textLength="24" x="1266.0547" y="633.4951">Solr</text><!--MD5=[4adc69af6a31501863e8e2f4a65764e5]
reverse link proxyRepoRemote to proxyAggregatorRemote--><path d="M372.0547,376.23 C372.0547,366.28 372.0547,356.32 372.0547,346.37 " fill="none" id="proxyRepoRemote-backto-proxyAggregatorRemote" style="stroke:#A80036;stroke-width:1.0;"/><polygon fill="#A80036" points="372.0547,381.44,376.0547,372.44,372.0547,376.44,368.0547,372.44,372.0547,381.44" style="stroke:#A80036;stroke-width:1.0;"/><!--MD5=[f02c92c62bfa74b7a493aa4c8c1824ef]
reverse link proxyForwarderRemote to proxyRepoRemote--><path d="M372.0547,456.65 C372.0547,446.64 372.0547,436.63 372.0547,426.61 " fill="none" id="proxyForwarderRemote-backto-proxyRepoRemote" style="stroke:#A80036;stroke-width:1.0;"/><polygon fill="#A80036" points="372.0547,461.89,376.0547,452.89,372.0547,456.89,368.0547,452.89,372.0547,461.89" style="stroke:#A80036;stroke-width:1.0;"/><!--MD5=[0ad0cf3f68103b011067d8d1722c898d]
link rawFixedWidthLog to proxyAggregatorRemote--><path d="M181.6047,145.07 C198.1347,150.3 215.5047,157.43 230.0547,167 C286.9447,204.42 334.6447,270.78 357.1547,305.46 " fill="none" id="rawFixedWidthLog-to-proxyAggregatorRemote" style="stroke:#A80036;stroke-width:1.0;"/><polygon fill="#A80036" points="360.0347,309.94,358.5243,300.2077,357.3273,305.7364,351.7986,304.5395,360.0347,309.94" style="stroke:#A80036;stroke-width:1.0;"/><text fill="#000000" font-family="sans-serif" font-size="13" lengthAdjust="spacing" textLength="31" x="239.0547" y="170.0669">POST</text><!--MD5=[a66ea52a47bc5c653ef6aac67d191fc9]
link rawCsvLog to proxyAggregatorRemote--><path d="M155.1547,211.44 C177.0247,217.51 205.8847,226.62 230.0547,238 C271.2047,257.38 314.7847,286.73 342.4147,306.6 " fill="none" id="rawCsvLog-to-proxyAggregatorRemote" style="stroke:#A80036;stroke-width:1.0;"/><polygon fill="#A80036" points="346.7047,309.71,341.7484,301.1991,342.6506,306.7836,337.0661,307.6858,346.7047,309.71" style="stroke:#A80036;stroke-width:1.0;"/><text fill="#000000" font-family="sans-serif" font-size="13" lengthAdjust="spacing" textLength="31" x="239.0547" y="238.0669">POST</text><!--MD5=[1fb5432a7a33d47f2cf861b8e41cb837]
link rawXmlLog to proxyAggregatorRemote--><path d="M157.2347,343.86 C187.5347,342.76 232.1847,340.85 271.0547,338 C287.9247,336.76 306.3647,335.03 322.7647,333.35 " fill="none" id="rawXmlLog-to-proxyAggregatorRemote" style="stroke:#A80036;stroke-width:1.0;"/><polygon fill="#A80036" points="327.7847,332.83,318.4218,329.7746,322.8111,333.343,319.2426,337.7324,327.7847,332.83" style="stroke:#A80036;stroke-width:1.0;"/><text fill="#000000" font-family="sans-serif" font-size="13" lengthAdjust="spacing" textLength="31" x="239.0547" y="334.0669">POST</text><!--MD5=[bfa32c5c3d0564c64575df7f7a2554b4]
link rawEventsLog to proxyAggregatorRemote--><path d="M177.4947,397.98 C205.6747,388.73 240.2847,377.09 271.0547,366 C287.9947,359.89 306.4547,352.96 322.8447,346.7 " fill="none" id="rawEventsLog-to-proxyAggregatorRemote" style="stroke:#A80036;stroke-width:1.0;"/><polygon fill="#A80036" points="327.8547,344.78,318.0197,344.2573,323.1843,346.5653,320.8763,351.7299,327.8547,344.78" style="stroke:#A80036;stroke-width:1.0;"/><text fill="#000000" font-family="sans-serif" font-size="13" lengthAdjust="spacing" textLength="31" x="239.0547" y="362.0669">POST</text><!--MD5=[055954f5302eaf8328043b0479b352c3]
link rawJsonLog to proxyAggregatorRemote--><path d="M159.1747,282.14 C202.7847,291.58 274.7647,307.16 322.5447,317.5 " fill="none" id="rawJsonLog-to-proxyAggregatorRemote" style="stroke:#A80036;stroke-width:1.0;"/><polygon fill="#A80036" points="327.6647,318.61,319.7142,312.7971,322.7778,317.5526,318.0224,320.6162,327.6647,318.61" style="stroke:#A80036;stroke-width:1.0;"/><text fill="#000000" font-family="sans-serif" font-size="13" lengthAdjust="spacing" textLength="31" x="239.0547" y="296.0669">POST</text><!--MD5=[b3b382e56b7540724bf60fad119f3e7a]
link refDataLog to proxyAggregatorRemote--><path d="M179.1547,474.24 C196.4347,468.79 214.8247,461.25 230.0547,451 C253.3347,435.34 258.7347,428.21 271.0547,403 C278.8247,387.1 267.6547,377.53 279.0547,364 C290.1747,350.8 306.7547,342.42 322.7947,337.1 " fill="none" id="refDataLog-to-proxyAggregatorRemote" style="stroke:#A80036;stroke-width:1.0;"/><polygon fill="#A80036" points="327.7447,335.55,317.9594,334.4332,322.9749,337.0495,320.3586,342.065,327.7447,335.55" style="stroke:#A80036;stroke-width:1.0;"/><text fill="#000000" font-family="sans-serif" font-size="13" lengthAdjust="spacing" textLength="31" x="239.0547" y="399.0669">POST</text><!--MD5=[b94cdbea4ef18ae343e52d4cdb8ad471]
link proxyForwarderRemote to proxyAggregator--><path d="M413.7947,489.79 C480.2847,503.32 613.5847,519.88 702.0547,461 C736.6347,437.98 731.5047,416.91 743.0547,377 C747.5947,361.32 740.8247,316.71 751.0547,304 C765.3347,286.26 788.6947,277.21 809.9447,272.61 " fill="none" id="proxyForwarderRemote-to-proxyAggregator" style="stroke:#A80036;stroke-width:1.0;"/><polygon fill="#A80036" points="815.0147,271.59,805.4026,269.4435,810.1129,272.5761,806.9803,277.2864,815.0147,271.59" style="stroke:#A80036;stroke-width:1.0;"/><text fill="#000000" font-family="sans-serif" font-size="13" lengthAdjust="spacing" textLength="31" x="577.0547" y="457.0669">POST</text><!--MD5=[4c8671113c69495ee73d7000f139b40b]
link rawFixedWidthLog2 to proxyAggregator--><path d="M653.6047,68.07 C670.1347,73.31 687.5047,80.43 702.0547,90 C766.3947,132.3 820.1247,208.04 844.3047,245.61 " fill="none" id="rawFixedWidthLog2-to-proxyAggregator" style="stroke:#A80036;stroke-width:1.0;"/><polygon fill="#A80036" points="847.1047,249.99,845.6411,240.2505,844.4176,245.7735,838.8946,244.5499,847.1047,249.99" style="stroke:#A80036;stroke-width:1.0;"/><text fill="#000000" font-family="sans-serif" font-size="13" lengthAdjust="spacing" textLength="31" x="711.0547" y="94.0669">POST</text><!--MD5=[6ce51a1b946be16405f8c56a5687bd51]
link rawCsvLog2 to proxyAggregator--><path d="M627.2847,134.17 C649.2147,140.13 678.0747,149.22 702.0547,161 C750.9447,185.02 801.9547,222.82 831.8247,246.47 " fill="none" id="rawCsvLog2-to-proxyAggregator" style="stroke:#A80036;stroke-width:1.0;"/><polygon fill="#A80036" points="836.0747,249.85,831.5223,241.1164,832.162,246.737,826.5415,247.3767,836.0747,249.85" style="stroke:#A80036;stroke-width:1.0;"/><text fill="#000000" font-family="sans-serif" font-size="13" lengthAdjust="spacing" textLength="31" x="711.0547" y="162.0669">POST</text><!--MD5=[6a2ebadc66276a3e593061a155b6ecbb]
link rawXmlLog2 to proxyAggregator--><path d="M629.2247,268 C675.7147,268 757.2047,268 809.3547,268 " fill="none" id="rawXmlLog2-to-proxyAggregator" style="stroke:#A80036;stroke-width:1.0;"/><polygon fill="#A80036" points="814.6247,268,805.6247,264,809.6247,268,805.6247,272,814.6247,268" style="stroke:#A80036;stroke-width:1.0;"/><text fill="#000000" font-family="sans-serif" font-size="13" lengthAdjust="spacing" textLength="31" x="711.0547" y="264.0669">POST</text><!--MD5=[9279f8aff5d1c1bba482301eb1fb1073]
link rawEventsLog2 to proxyAggregator--><path d="M660.6447,320.99 C707.1147,308.52 767.9047,292.2 809.6747,280.99 " fill="none" id="rawEventsLog2-to-proxyAggregator" style="stroke:#A80036;stroke-width:1.0;"/><polygon fill="#A80036" points="814.6747,279.64,804.9443,278.1173,809.8466,280.9399,807.0241,285.8422,814.6747,279.64" style="stroke:#A80036;stroke-width:1.0;"/><text fill="#000000" font-family="sans-serif" font-size="13" lengthAdjust="spacing" textLength="31" x="711.0547" y="296.0669">POST</text><!--MD5=[02d6432f4437fda6f6a4c93d1d9e1158]
link rawJsonLog2 to proxyAggregator--><path d="M631.1747,207.1 C678.1447,219.71 758.5747,241.3 809.9747,255.1 " fill="none" id="rawJsonLog2-to-proxyAggregator" style="stroke:#A80036;stroke-width:1.0;"/><polygon fill="#A80036" points="814.8647,256.41,807.2141,250.2078,810.0366,255.1101,805.1343,257.9327,814.8647,256.41" style="stroke:#A80036;stroke-width:1.0;"/><text fill="#000000" font-family="sans-serif" font-size="13" lengthAdjust="spacing" textLength="31" x="711.0547" y="227.0669">POST</text><!--MD5=[76c1981ccf1c4c017661eaa5b5577e7c]
link refDataLog2 to proxyAggregator--><path d="M651.0947,396.64 C668.2847,391.17 686.6347,383.77 702.0547,374 C724.3647,359.87 729.8247,353.85 743.0547,331 C749.3247,320.17 742.3647,313.01 751.0547,304 C766.5447,287.93 789.4247,279.04 810.0547,274.11 " fill="none" id="refDataLog2-to-proxyAggregator" style="stroke:#A80036;stroke-width:1.0;"/><polygon fill="#A80036" points="814.9747,273,805.3147,271.0806,810.0975,274.1013,807.0768,278.8841,814.9747,273" style="stroke:#A80036;stroke-width:1.0;"/><text fill="#000000" font-family="sans-serif" font-size="13" lengthAdjust="spacing" textLength="31" x="711.0547" y="327.0669">POST</text><!--MD5=[77f519d51d3be86738ed86f2d71932e3]
reverse link proxyRepo to proxyAggregator--><path d="M859.0547,316.23 C859.0547,306.28 859.0547,296.32 859.0547,286.37 " fill="none" id="proxyRepo-backto-proxyAggregator" style="stroke:#A80036;stroke-width:1.0;"/><polygon fill="#A80036" points="859.0547,321.44,863.0547,312.44,859.0547,316.44,855.0547,312.44,859.0547,321.44" style="stroke:#A80036;stroke-width:1.0;"/><!--MD5=[9658ab9d661eaca25b0af9a4980bfff1]
link proxyRepo to dataStore--><path d="M903.0647,344 C925.0847,344 952.3547,344 976.8447,344 " fill="none" id="proxyRepo-to-dataStore" style="stroke:#A80036;stroke-width:1.0;"/><polygon fill="#A80036" points="982.0247,344,973.0247,340,977.0247,344,973.0247,348,982.0247,344" style="stroke:#A80036;stroke-width:1.0;"/><!--MD5=[bddbe83835c46258f55d07b4f663c165]
reverse link kafka to streamProcessor--><path d="M1278.0547,519.79 C1278.0547,488.86 1278.0547,434.76 1278.0547,406.45 " fill="none" id="kafka-backto-streamProcessor" style="stroke:#0000FF;stroke-width:1.0;"/><polygon fill="#0000FF" points="1278.0547,524.92,1282.0547,515.92,1278.0547,519.92,1274.0547,515.92,1278.0547,524.92" style="stroke:#0000FF;stroke-width:1.0;"/><text fill="#000000" font-family="sans-serif" font-size="13" lengthAdjust="spacing" textLength="50" x="1241.5547" y="470.0669">produce</text><!--MD5=[0cc9448b367acb65baab9af723a45ade]
link streamProcessor to solr--><path d="M1248.9047,406.13 C1202.5647,437.3 1120.8647,503.34 1157.5547,561.5 C1177.9247,593.8 1221.9847,608.34 1250.8047,614.6 " fill="none" id="streamProcessor-to-solr" style="stroke:#0000FF;stroke-width:1.0;"/><polygon fill="#0000FF" points="1255.9947,615.68,1247.9923,609.9387,1251.0985,614.6665,1246.3707,617.7727,1255.9947,615.68" style="stroke:#0000FF;stroke-width:1.0;"/><!--MD5=[fc9f7d56bf0ee4e92ef0805b869f13ea]
link streamProcessor to dataStore--><path d="M1211.8847,375.72 C1179.5147,369.62 1140.5147,362.27 1108.2047,356.18 " fill="none" id="streamProcessor-to-dataStore" style="stroke:#0000FF;stroke-width:1.0;"/><polygon fill="#0000FF" points="1103.0847,355.22,1111.2013,360.7987,1108.0004,356.1345,1112.6645,352.9337,1103.0847,355.22" style="stroke:#0000FF;stroke-width:1.0;"/><text fill="#000000" font-family="sans-serif" font-size="13" lengthAdjust="spacing" textLength="31" x="1142.0547" y="359.0669">Store</text><!--MD5=[e33c6f1b333e0e842f51db7bd742c545]
link dataStore to streamProcessor--><path d="M1087.5647,375.05 C1101.4647,383.18 1117.3247,390.83 1133.0547,395 C1156.6547,401.25 1183.1847,401.72 1206.9847,399.91 " fill="none" id="dataStore-to-streamProcessor" style="stroke:#0000FF;stroke-width:1.0;"/><polygon fill="#0000FF" points="1212.0147,399.49,1202.7144,396.249,1207.0319,399.904,1203.3769,404.2215,1212.0147,399.49" style="stroke:#0000FF;stroke-width:1.0;"/><text fill="#000000" font-family="sans-serif" font-size="13" lengthAdjust="spacing" textLength="47" x="1134.0547" y="391.0669">Retrieve</text><!--MD5=[a5d10fe26e493dde0b047cb97e787d68]
link streamProcessor to index--><path d="M1308.6047,369.93 C1327.1547,358.82 1351.7147,344.56 1374.0547,333 C1410.9747,313.9 1425.1047,317.98 1459.0547,294 C1484.3747,276.12 1508.5747,250.32 1525.0747,230.93 " fill="none" id="streamProcessor-to-index" style="stroke:#0000FF;stroke-width:1.0;"/><polygon fill="#0000FF" points="1528.6847,226.64,1519.8249,230.9416,1525.4614,230.4623,1525.9406,236.0989,1528.6847,226.64" style="stroke:#0000FF;stroke-width:1.0;"/><text fill="#000000" font-family="sans-serif" font-size="13" lengthAdjust="spacing" textLength="83" x="1375.0547" y="290.0669">Index records</text><!--MD5=[b0daf23bf2b2a792db32da21673b9d7b]
link streamProcessor to refDataStore--><path d="M1344.1547,400.9 C1386.6547,409.32 1441.8447,420.25 1483.8547,428.58 " fill="none" id="streamProcessor-to-refDataStore" style="stroke:#0000FF;stroke-width:1.0;"/><polygon fill="#0000FF" points="1488.9147,429.58,1480.8644,423.9062,1484.0102,428.6077,1479.3087,431.7534,1488.9147,429.58" style="stroke:#0000FF;stroke-width:1.0;"/><text fill="#000000" font-family="sans-serif" font-size="13" lengthAdjust="spacing" textLength="31" x="1401.0547" y="405.0669">Store</text><!--MD5=[beb6f3a74c8ea7af98e3c8a6e13b9a4e]
link refDataStore to streamProcessor--><path d="M1488.7347,452.39 C1454.7047,456.89 1411.1947,458.75 1374.0547,448 C1347.9247,440.44 1322.0747,423.31 1303.9447,409.28 " fill="none" id="refDataStore-to-streamProcessor" style="stroke:#0000FF;stroke-width:1.0;"/><polygon fill="#0000FF" points="1299.9747,406.16,1304.5817,414.8649,1303.9068,409.2485,1309.5233,408.5736,1299.9747,406.16" style="stroke:#0000FF;stroke-width:1.0;"/><text fill="#000000" font-family="sans-serif" font-size="13" lengthAdjust="spacing" textLength="44" x="1394.5547" y="444.0669">Lookup</text><!--MD5=[216acb8a53ca7225995f5a4103aa46e1]
link streamProcessor to metaStore--><path d="M1301.5147,369.78 C1315.3947,357.52 1332.6647,340.3 1344.0547,322 C1365.4447,287.63 1349.1747,267.93 1374.0547,236 C1401.8647,200.32 1421.6047,205.38 1459.0547,180 C1476.0047,168.51 1494.6447,155.56 1510.3447,144.56 " fill="none" id="streamProcessor-to-metaStore" style="stroke:#0000FF;stroke-width:1.0;"/><polygon fill="#0000FF" points="1514.6947,141.51,1505.0313,143.4124,1510.6039,144.385,1509.6313,149.9576,1514.6947,141.51" style="stroke:#0000FF;stroke-width:1.0;"/><text fill="#000000" font-family="sans-serif" font-size="13" lengthAdjust="spacing" textLength="31" x="1401.0547" y="176.0669">Store</text><!--MD5=[da3977fd1bf5d057eb495e1d9ab000ef]
link streamProcessor to statsStore--><path d="M1344.1547,376.56 C1386.9547,369.04 1442.6147,359.26 1484.7347,351.86 " fill="none" id="streamProcessor-to-statsStore" style="stroke:#0000FF;stroke-width:1.0;"/><polygon fill="#0000FF" points="1489.8047,350.97,1480.2457,348.5981,1484.8811,351.8406,1481.6386,356.4759,1489.8047,350.97" style="stroke:#0000FF;stroke-width:1.0;"/><text fill="#000000" font-family="sans-serif" font-size="13" lengthAdjust="spacing" textLength="31" x="1401.0547" y="354.0669">Store</text><!--MD5=[59425b40e5e420205b9e9db7ae56c12d]
reverse link streamProcessor to ui--><path d="M1278.0547,364.56 C1278.0547,346.49 1278.0547,321.86 1278.0547,305.24 " fill="none" id="streamProcessor-backto-ui" style="stroke:#808080;stroke-width:1.0;"/><polygon fill="#808080" points="1278.0547,369.94,1282.0547,360.94,1278.0547,364.94,1274.0547,360.94,1278.0547,369.94" style="stroke:#808080;stroke-width:1.0;"/><text fill="#808080" font-family="sans-serif" font-size="13" lengthAdjust="spacing" textLength="47" x="1243.0547" y="342.0669">Manage</text><!--MD5=[06b3c5a2aa40fd316dfb845e2137aee5]
reverse link ui to index--><path d="M1287.7947,263.83 C1301.0247,232.48 1329.4547,177.85 1374.0547,155 C1420.0447,131.43 1478.9247,159.03 1514.6347,181.35 " fill="none" id="ui-backto-index" style="stroke:#808080;stroke-width:1.0;"/><polygon fill="#808080" points="1285.7947,268.65,1292.9381,261.8698,1287.7107,264.0317,1285.5488,258.8042,1285.7947,268.65" style="stroke:#808080;stroke-width:1.0;"/><text fill="#808080" font-family="sans-serif" font-size="13" lengthAdjust="spacing" textLength="36" x="1398.5547" y="142.0669">Query</text><!--MD5=[dee90da4babab8b32d8cc405d9c30b99]
reverse link ui to metaStore--><path d="M1284.4347,263.95 C1294.6147,226.23 1320.6247,152.4 1374.0547,121 C1413.0447,98.09 1466.0547,101.51 1502.9747,108.17 " fill="none" id="ui-backto-metaStore" style="stroke:#808080;stroke-width:1.0;"/><polygon fill="#808080" points="1283.1547,268.8,1289.309,261.1107,1284.4244,263.9639,1281.5712,259.0793,1283.1547,268.8" style="stroke:#808080;stroke-width:1.0;"/><text fill="#808080" font-family="sans-serif" font-size="13" lengthAdjust="spacing" textLength="36" x="1398.5547" y="100.0669">Query</text><!--MD5=[819229f5a69c5702de815cf66d8fb22c]
reverse link ui to dataStore--><path d="M1217.3347,301.58 C1182.2747,310.14 1138.1147,320.92 1103.0847,329.47 " fill="none" id="ui-backto-dataStore" style="stroke:#808080;stroke-width:1.0;"/><polygon fill="#808080" points="1222.4347,300.33,1212.7429,298.5785,1217.5774,301.5158,1214.6401,306.3503,1222.4347,300.33" style="stroke:#808080;stroke-width:1.0;"/><text fill="#808080" font-family="sans-serif" font-size="13" lengthAdjust="spacing" textLength="36" x="1139.5547" y="307.0669">Query</text><!--MD5=[2579d3aff7ee4205c918de67db51c12e]
link solr to ui--><path d="M1255.6847,612.01 C1226.9347,601.65 1178.3647,579.16 1158.5547,540.5 C1155.1047,533.78 1157.4147,530.97 1158.5547,523.5 C1170.5847,444.57 1170.4747,420.17 1212.0547,352 C1222.0747,335.58 1237.1347,320.31 1250.3447,308.7 " fill="none" id="solr-to-ui" style="stroke:#808080;stroke-width:1.0;"/><polygon fill="#808080" points="1254.3847,305.22,1244.9597,308.0781,1250.6016,308.4892,1250.1904,314.1311,1254.3847,305.22" style="stroke:#808080;stroke-width:1.0;"/><text fill="#808080" font-family="sans-serif" font-size="13" lengthAdjust="spacing" textLength="36" x="1139.5547" y="536.5669">Query</text><!--MD5=[b921c49311f57aae9ec7d47bfd537267]
reverse link ui to statsStore--><path d="M1338.9347,268.22 C1374.7347,260.09 1420.5947,255.21 1459.0547,269 C1486.2747,278.76 1511.0847,301.05 1527.2747,318.27 " fill="none" id="ui-backto-statsStore" style="stroke:#808080;stroke-width:1.0;"/><polygon fill="#808080" points="1333.7247,269.44,1343.4004,271.2786,1338.5926,268.298,1341.5732,263.4901,1333.7247,269.44" style="stroke:#808080;stroke-width:1.0;"/><text fill="#808080" font-family="sans-serif" font-size="13" lengthAdjust="spacing" textLength="36" x="1398.5547" y="257.0669">Query</text><!--MD5=[08b47c4557880403988da997116f2490]
@startuml

skinparam defaultTextAlignment center
'skinparam backgroundcolor transparent
left to right direction

cloud #Azure {
    file "Fixed Width Log" as rawFixedWidthLog #LightBlue
    file "CSV Log" as rawCsvLog #LightBlue
    file "JSON Log" as rawJsonLog #LightBlue
    file "XML Log" as rawXmlLog #LightBlue
    file "XML (event-logging) Log" as rawEventsLog #LightBlue
    file "Reference Data" as refDataLog #LightBlue
}

'cloud #Azure {
'    file "Logs" as rawLogs #LightBlue
'}

cloud #Azure {
    file "Fixed Width Log" as rawFixedWidthLog2 #LightBlue
    file "CSV Log" as rawCsvLog2 #LightBlue
    file "JSON Log" as rawJsonLog2 #LightBlue
    file "XML Log" as rawXmlLog2 #LightBlue
    file "XML (event-logging) Log" as rawEventsLog2 #LightBlue
    file "Reference Data" as refDataLog2 #LightBlue
}

rectangle "Stroom cluster" as stroom #WhiteSmoke {
    rectangle "Local Stroom Proxy" as stroomProxyLocal #WhiteSmoke {
        rectangle "Aggregator" as proxyAggregator #LightSeaGreen
        database "Repository" as proxyRepo #LightSeaGreen
    }

    rectangle "User Interface" as ui #DarkOrange
    database "Data Store\n (Raw & cooked)" as dataStore #DarkOrange
    database "Lucene Index" as index #DarkOrange
    database "Meta Store" as metaStore #DarkOrange
    rectangle "Stream Processor" as streamProcessor #DarkOrange
    database "Reference Data" as refDataStore #DarkOrange
    database "Statistics Store" as statsStore #DarkOrange
}

rectangle "Kafka" as kafka #LightGreen
database "Solr" as solr #LightGreen

rectangle "Remote Stroom Proxy" as stroomProxyRemote #WhiteSmoke {
    rectangle "Aggregator" as proxyAggregatorRemote #LightSeaGreen
    rectangle "Forwarder" as proxyForwarderRemote #LightSeaGreen
    database "Repository" as proxyRepoRemote #LightSeaGreen
}

proxyAggregatorRemote -l-> proxyRepoRemote
proxyRepoRemote -l-> proxyForwarderRemote


rawFixedWidthLog - -> proxyAggregatorRemote :POST
rawCsvLog - -> proxyAggregatorRemote :POST
rawXmlLog - -> proxyAggregatorRemote :POST
rawEventsLog - -> proxyAggregatorRemote :POST
rawJsonLog - -> proxyAggregatorRemote :POST
refDataLog - -> proxyAggregatorRemote :POST
proxyForwarderRemote - - -> proxyAggregator :POST

'rawLogs2 - -> proxyAggregator :POST
rawFixedWidthLog2 - -> proxyAggregator :POST
rawCsvLog2 - -> proxyAggregator :POST
rawXmlLog2 - -> proxyAggregator :POST
rawEventsLog2 - -> proxyAggregator :POST
rawJsonLog2 - -> proxyAggregator :POST
refDataLog2 - -> proxyAggregator :POST

proxyAggregator -l-> proxyRepo
proxyRepo - -> dataStore

streamProcessor -[#Blue]l-> kafka :produce
streamProcessor -[#Blue]-> solr
streamProcessor -[#Blue]-> dataStore :Store
streamProcessor -[#Blue]-> index :Index records
streamProcessor -[#Blue]-> refDataStore :Store
streamProcessor -[#Blue]-> metaStore :Store
streamProcessor -[#Blue]-> statsStore :Store
refDataStore -[#Blue]-> streamProcessor :Lookup
dataStore -[#Blue]-> streamProcessor :Retrieve

ui -[#Grey]l-> streamProcessor :<color:Grey>Manage

ui <-[#Grey]- index :<color:Grey>Query
ui <-[#Grey]- metaStore :<color:Grey>Query
ui <-[#Grey]- dataStore :<color:Grey>Query
ui <-[#Grey]l- solr :<color:Grey>Query
ui <-[#Grey]- statsStore :<color:Grey>Query

@enduml

@startuml

skinparam defaultTextAlignment center
left to right direction

cloud #Azure {
    file "Fixed Width Log" as rawFixedWidthLog #LightBlue
    file "CSV Log" as rawCsvLog #LightBlue
    file "JSON Log" as rawJsonLog #LightBlue
    file "XML Log" as rawXmlLog #LightBlue
    file "XML (event-logging) Log" as rawEventsLog #LightBlue
    file "Reference Data" as refDataLog #LightBlue
}


cloud #Azure {
    file "Fixed Width Log" as rawFixedWidthLog2 #LightBlue
    file "CSV Log" as rawCsvLog2 #LightBlue
    file "JSON Log" as rawJsonLog2 #LightBlue
    file "XML Log" as rawXmlLog2 #LightBlue
    file "XML (event-logging) Log" as rawEventsLog2 #LightBlue
    file "Reference Data" as refDataLog2 #LightBlue
}

rectangle "Stroom cluster" as stroom #WhiteSmoke {
    rectangle "Local Stroom Proxy" as stroomProxyLocal #WhiteSmoke {
        rectangle "Aggregator" as proxyAggregator #LightSeaGreen
        database "Repository" as proxyRepo #LightSeaGreen
    }

    rectangle "User Interface" as ui #DarkOrange
    database "Data Store\n (Raw & cooked)" as dataStore #DarkOrange
    database "Lucene Index" as index #DarkOrange
    database "Meta Store" as metaStore #DarkOrange
    rectangle "Stream Processor" as streamProcessor #DarkOrange
    database "Reference Data" as refDataStore #DarkOrange
    database "Statistics Store" as statsStore #DarkOrange
}

rectangle "Kafka" as kafka #LightGreen
database "Solr" as solr #LightGreen

rectangle "Remote Stroom Proxy" as stroomProxyRemote #WhiteSmoke {
    rectangle "Aggregator" as proxyAggregatorRemote #LightSeaGreen
    rectangle "Forwarder" as proxyForwarderRemote #LightSeaGreen
    database "Repository" as proxyRepoRemote #LightSeaGreen
}

proxyAggregatorRemote -l-> proxyRepoRemote
proxyRepoRemote -l-> proxyForwarderRemote


rawFixedWidthLog - -> proxyAggregatorRemote :POST
rawCsvLog - -> proxyAggregatorRemote :POST
rawXmlLog - -> proxyAggregatorRemote :POST
rawEventsLog - -> proxyAggregatorRemote :POST
rawJsonLog - -> proxyAggregatorRemote :POST
refDataLog - -> proxyAggregatorRemote :POST
proxyForwarderRemote - - -> proxyAggregator :POST

rawFixedWidthLog2 - -> proxyAggregator :POST
rawCsvLog2 - -> proxyAggregator :POST
rawXmlLog2 - -> proxyAggregator :POST
rawEventsLog2 - -> proxyAggregator :POST
rawJsonLog2 - -> proxyAggregator :POST
refDataLog2 - -> proxyAggregator :POST

proxyAggregator -l-> proxyRepo
proxyRepo - -> dataStore

streamProcessor -[#Blue]l-> kafka :produce
streamProcessor -[#Blue]-> solr
streamProcessor -[#Blue]-> dataStore :Store
streamProcessor -[#Blue]-> index :Index records
streamProcessor -[#Blue]-> refDataStore :Store
streamProcessor -[#Blue]-> metaStore :Store
streamProcessor -[#Blue]-> statsStore :Store
refDataStore -[#Blue]-> streamProcessor :Lookup
dataStore -[#Blue]-> streamProcessor :Retrieve

ui -[#Grey]l-> streamProcessor :<color:Grey>Manage

ui <-[#Grey]- index :<color:Grey>Query
ui <-[#Grey]- metaStore :<color:Grey>Query
ui <-[#Grey]- dataStore :<color:Grey>Query
ui <-[#Grey]l- solr :<color:Grey>Query
ui <-[#Grey]- statsStore :<color:Grey>Query

@enduml

PlantUML version 1.2021.5(Sun Apr 25 11:20:28 GMT 2021)
(GPL source distribution)
Java Runtime: OpenJDK Runtime Environment
JVM: OpenJDK 64-Bit Server VM
Default Encoding: UTF-8
Language: en
Country: US
--></g></svg>