<?plantuml 1.2026.1?><svg xmlns="http://www.w3.org/2000/svg" xmlns:xlink="http://www.w3.org/1999/xlink" contentStyleType="text/css" data-diagram-type="DESCRIPTION" height="1254px" preserveAspectRatio="none" style="width:1282px;height:1254px;background:#FFFFFF;" version="1.1" viewBox="0 0 1282 1254" width="1282px" zoomAndPan="magnify"><title>=Stroom Architecture
==Example Two-Node Cluster (non-containerised deployment)</title><defs/><g><g class="title" data-source-line="2"><text fill="#000000" font-family="sans-serif" font-size="18" font-weight="bold" lengthAdjust="spacing" textLength="206.6484" x="530.9258" y="26.708">Stroom Architecture</text><text fill="#000000" font-family="sans-serif" font-size="16" font-weight="bold" lengthAdjust="spacing" textLength="538.8438" x="364.8281" y="45.8047">Example Two-Node Cluster (non-containerised deployment)</text></g><!--cluster Stroom Cluster--><g class="cluster" data-qualified-name="Stroom Cluster" data-source-line="19" id="ent0007"><rect fill="none" height="550.78" rx="2.5" ry="2.5" style="stroke:#181818;stroke-width:1;" width="902" x="374.5" y="361.7681"/><text fill="#000000" font-family="sans-serif" font-size="14" font-weight="bold" lengthAdjust="spacing" textLength="118.8428" x="766.0786" y="376.7632">Stroom Cluster</text></g><!--cluster Stroom Node #1--><g class="cluster" data-qualified-name="Stroom Cluster.Stroom Node .1" data-source-line="20" id="ent0008"><rect fill="none" height="327.19" rx="35" ry="35" style="stroke:#181818;stroke-width:1;" width="415" x="837.5" y="404.7681"/><text fill="#000000" font-family="sans-serif" font-size="14" font-weight="bold" lengthAdjust="spacing" textLength="129.5752" x="980.2124" y="424.7632">Stroom Node #1</text></g><!--cluster Stroom Node #2--><g class="cluster" data-qualified-name="Stroom Cluster.Stroom Node .2" data-source-line="36" id="ent0016"><rect fill="none" height="289.18" rx="35" ry="35" style="stroke:#181818;stroke-width:1;" width="415" x="398.5" y="599.3681"/><text fill="#000000" font-family="sans-serif" font-size="14" font-weight="bold" lengthAdjust="spacing" textLength="129.5752" x="541.2124" y="619.3632">Stroom Node #2</text></g><!--cluster stroom_all_dbs--><g class="cluster" data-qualified-name="stroom_all_dbs" data-source-line="56" id="ent0025"><rect fill="none" height="115.3" rx="35" ry="35" style="stroke:#181818;stroke-width:1;" width="191" x="721.5" y="982.0481"/><text fill="#000000" font-family="sans-serif" font-size="14" font-weight="bold" lengthAdjust="spacing" textLength="110.8447" x="761.5776" y="1002.0432">MySQL Server</text></g><!--cluster shared_storage--><g class="cluster" data-qualified-name="shared_storage" data-source-line="67" id="ent0032"><rect fill="none" height="140.3" rx="35" ry="35" style="stroke:#181818;stroke-width:1;" width="369" x="19.5" y="969.5481"/><text fill="#000000" font-family="sans-serif" font-size="14" font-weight="bold" lengthAdjust="spacing" textLength="123.0537" x="142.4731" y="989.5432">Shared Storage</text></g><!--entity stroom_node_1--><g class="entity" data-qualified-name="Stroom Cluster.Stroom Node .1.stroom_node_1" data-source-line="21" id="ent0009"><polygon fill="#F1F1F1" points="853.36,663.3681,863.36,653.3681,983.6491,653.3681,983.6491,705.9619,973.6491,715.9619,853.36,715.9619,853.36,663.3681" style="stroke:#181818;stroke-width:0.5;"/><line style="stroke:#181818;stroke-width:0.5;" x1="973.6491" x2="983.6491" y1="663.3681" y2="653.3681"/><line style="stroke:#181818;stroke-width:0.5;" x1="853.36" x2="973.6491" y1="663.3681" y2="663.3681"/><line style="stroke:#181818;stroke-width:0.5;" x1="973.6491" x2="973.6491" y1="663.3681" y2="715.9619"/><text fill="#000000" font-family="sans-serif" font-size="14" font-style="italic" lengthAdjust="spacing" textLength="77.417" x="874.796" y="686.3632">&#171;java app&#187;</text><text fill="#000000" font-family="sans-serif" font-size="14" lengthAdjust="spacing" textLength="90.2891" x="868.36" y="702.6601">Stroom node</text></g><!--entity stroom_proxy_local_1--><g class="entity" data-qualified-name="Stroom Cluster.Stroom Node .1.stroom_proxy_local_1" data-source-line="22" id="ent0010"><polygon fill="#F1F1F1" points="1060.44,468.7681,1070.44,458.7681,1236.5504,458.7681,1236.5504,511.3619,1226.5504,521.3619,1060.44,521.3619,1060.44,468.7681" style="stroke:#181818;stroke-width:0.5;"/><line style="stroke:#181818;stroke-width:0.5;" x1="1226.5504" x2="1236.5504" y1="468.7681" y2="458.7681"/><line style="stroke:#181818;stroke-width:0.5;" x1="1060.44" x2="1226.5504" y1="468.7681" y2="468.7681"/><line style="stroke:#181818;stroke-width:0.5;" x1="1226.5504" x2="1226.5504" y1="468.7681" y2="521.3619"/><text fill="#000000" font-family="sans-serif" font-size="14" font-style="italic" lengthAdjust="spacing" textLength="77.417" x="1104.7867" y="491.7632">&#171;java app&#187;</text><text fill="#000000" font-family="sans-serif" font-size="14" lengthAdjust="spacing" textLength="136.1104" x="1075.44" y="508.0601">Local Stroom proxy</text></g><!--entity log_sender_script_1--><g class="entity" data-qualified-name="Stroom Cluster.Stroom Node .1.log_sender_script_1" data-source-line="23" id="ent0011"><polygon fill="#F1F1F1" points="853.68,468.7681,863.68,458.7681,1025.3265,458.7681,1025.3265,511.3619,1015.3265,521.3619,853.68,521.3619,853.68,468.7681" style="stroke:#181818;stroke-width:0.5;"/><line style="stroke:#181818;stroke-width:0.5;" x1="1015.3265" x2="1025.3265" y1="468.7681" y2="458.7681"/><line style="stroke:#181818;stroke-width:0.5;" x1="853.68" x2="1015.3265" y1="468.7681" y2="468.7681"/><line style="stroke:#181818;stroke-width:0.5;" x1="1015.3265" x2="1015.3265" y1="468.7681" y2="521.3619"/><text fill="#000000" font-family="sans-serif" font-size="14" font-style="italic" lengthAdjust="spacing" textLength="56.2939" x="906.3563" y="491.7632">&#171;script&#187;</text><text fill="#000000" font-family="sans-serif" font-size="14" lengthAdjust="spacing" textLength="131.6465" x="868.68" y="508.0601">send_to_stroom.sh</text></g><!--entity stroom_node_2--><g class="entity" data-qualified-name="Stroom Cluster.Stroom Node .2.stroom_node_2" data-source-line="37" id="ent0017"><polygon fill="#F1F1F1" points="543.36,819.9581,553.36,809.9581,673.6491,809.9581,673.6491,862.5519,663.6491,872.5519,543.36,872.5519,543.36,819.9581" style="stroke:#181818;stroke-width:0.5;"/><line style="stroke:#181818;stroke-width:0.5;" x1="663.6491" x2="673.6491" y1="819.9581" y2="809.9581"/><line style="stroke:#181818;stroke-width:0.5;" x1="543.36" x2="663.6491" y1="819.9581" y2="819.9581"/><line style="stroke:#181818;stroke-width:0.5;" x1="663.6491" x2="663.6491" y1="819.9581" y2="872.5519"/><text fill="#000000" font-family="sans-serif" font-size="14" font-style="italic" lengthAdjust="spacing" textLength="77.417" x="564.796" y="842.9532">&#171;java app&#187;</text><text fill="#000000" font-family="sans-serif" font-size="14" lengthAdjust="spacing" textLength="90.2891" x="558.36" y="859.2501">Stroom node</text></g><!--entity stroom_proxy_local_2--><g class="entity" data-qualified-name="Stroom Cluster.Stroom Node .2.stroom_proxy_local_2" data-source-line="38" id="ent0018"><polygon fill="#F1F1F1" points="414.44,663.3681,424.44,653.3681,590.5504,653.3681,590.5504,705.9619,580.5504,715.9619,414.44,715.9619,414.44,663.3681" style="stroke:#181818;stroke-width:0.5;"/><line style="stroke:#181818;stroke-width:0.5;" x1="580.5504" x2="590.5504" y1="663.3681" y2="653.3681"/><line style="stroke:#181818;stroke-width:0.5;" x1="414.44" x2="580.5504" y1="663.3681" y2="663.3681"/><line style="stroke:#181818;stroke-width:0.5;" x1="580.5504" x2="580.5504" y1="663.3681" y2="715.9619"/><text fill="#000000" font-family="sans-serif" font-size="14" font-style="italic" lengthAdjust="spacing" textLength="77.417" x="458.7867" y="686.3632">&#171;java app&#187;</text><text fill="#000000" font-family="sans-serif" font-size="14" lengthAdjust="spacing" textLength="136.1104" x="429.44" y="702.6601">Local Stroom proxy</text></g><!--entity log_sender_script_2--><g class="entity" data-qualified-name="Stroom Cluster.Stroom Node .2.log_sender_script_2" data-source-line="39" id="ent0019"><polygon fill="#F1F1F1" points="625.68,663.3681,635.68,653.3681,797.3265,653.3681,797.3265,705.9619,787.3265,715.9619,625.68,715.9619,625.68,663.3681" style="stroke:#181818;stroke-width:0.5;"/><line style="stroke:#181818;stroke-width:0.5;" x1="787.3265" x2="797.3265" y1="663.3681" y2="653.3681"/><line style="stroke:#181818;stroke-width:0.5;" x1="625.68" x2="787.3265" y1="663.3681" y2="663.3681"/><line style="stroke:#181818;stroke-width:0.5;" x1="787.3265" x2="787.3265" y1="663.3681" y2="715.9619"/><text fill="#000000" font-family="sans-serif" font-size="14" font-style="italic" lengthAdjust="spacing" textLength="56.2939" x="678.3563" y="686.3632">&#171;script&#187;</text><text fill="#000000" font-family="sans-serif" font-size="14" lengthAdjust="spacing" textLength="131.6465" x="640.68" y="702.6601">send_to_stroom.sh</text></g><!--entity stroom_db--><g class="entity" data-qualified-name="stroom_all_dbs.stroom_db" data-source-line="57" id="ent0026"><path d="M737.85,1046.0481 C737.85,1036.0481 772.5038,1036.0481 772.5038,1036.0481 C772.5038,1036.0481 807.1576,1036.0481 807.1576,1046.0481 L807.1576,1071.345 C807.1576,1081.345 772.5038,1081.345 772.5038,1081.345 C772.5038,1081.345 737.85,1081.345 737.85,1071.345 L737.85,1046.0481" fill="#F1F1F1" style="stroke:#181818;stroke-width:0.5;"/><path d="M737.85,1046.0481 C737.85,1056.0481 772.5038,1056.0481 772.5038,1056.0481 C772.5038,1056.0481 807.1576,1056.0481 807.1576,1046.0481" fill="none" style="stroke:#181818;stroke-width:0.5;"/><text fill="#000000" font-family="sans-serif" font-size="14" lengthAdjust="spacing" textLength="49.3076" x="747.85" y="1073.0432">stroom</text></g><!--entity stroom_stats_db--><g class="entity" data-qualified-name="stroom_all_dbs.stroom_stats_db" data-source-line="58" id="ent0027"><path d="M842.43,1046.0481 C842.43,1036.0481 869.5028,1036.0481 869.5028,1036.0481 C869.5028,1036.0481 896.5755,1036.0481 896.5755,1046.0481 L896.5755,1071.345 C896.5755,1081.345 869.5028,1081.345 869.5028,1081.345 C869.5028,1081.345 842.43,1081.345 842.43,1071.345 L842.43,1046.0481" fill="#F1F1F1" style="stroke:#181818;stroke-width:0.5;"/><path d="M842.43,1046.0481 C842.43,1056.0481 869.5028,1056.0481 869.5028,1056.0481 C869.5028,1056.0481 896.5755,1056.0481 896.5755,1046.0481" fill="none" style="stroke:#181818;stroke-width:0.5;"/><text fill="#000000" font-family="sans-serif" font-size="14" lengthAdjust="spacing" textLength="34.1455" x="852.43" y="1073.0432">stats</text></g><!--entity stroom-node-2--><g class="entity" data-qualified-name="shared_storage.stroom-node-2" data-source-line="68" id="ent0033"><path d="M46.37,1031.5481 L87.37,1031.5481 A3.75,3.75 0 0 1 89.87,1034.0481 L96.87,1052.5481 L174.6268,1052.5481 A2.5,2.5 0 0 1 177.1268,1055.0481 L177.1268,1083.345 A2.5,2.5 0 0 1 174.6268,1085.845 L46.37,1085.845 A2.5,2.5 0 0 1 43.87,1083.345 L43.87,1034.0481 A2.5,2.5 0 0 1 46.37,1031.5481" fill="#F1F1F1" style="stroke:#181818;stroke-width:0.5;"/><line style="stroke:#181818;stroke-width:0.5;" x1="43.87" x2="96.87" y1="1052.5481" y2="1052.5481"/><text fill="#000000" font-family="sans-serif" font-size="14" lengthAdjust="spacing" textLength="103.2568" x="53.87" y="1072.5432">stroom-node-2</text></g><!--entity stroom-node-1--><g class="entity" data-qualified-name="shared_storage.stroom-node-1" data-source-line="69" id="ent0034"><path d="M214.37,1031.5481 L255.37,1031.5481 A3.75,3.75 0 0 1 257.87,1034.0481 L264.87,1052.5481 L342.6268,1052.5481 A2.5,2.5 0 0 1 345.1268,1055.0481 L345.1268,1083.345 A2.5,2.5 0 0 1 342.6268,1085.845 L214.37,1085.845 A2.5,2.5 0 0 1 211.87,1083.345 L211.87,1034.0481 A2.5,2.5 0 0 1 214.37,1031.5481" fill="#F1F1F1" style="stroke:#181818;stroke-width:0.5;"/><line style="stroke:#181818;stroke-width:0.5;" x1="211.87" x2="264.87" y1="1052.5481" y2="1052.5481"/><text fill="#000000" font-family="sans-serif" font-size="14" lengthAdjust="spacing" textLength="103.2568" x="221.87" y="1072.5432">stroom-node-1</text></g><!--entity event_producer--><g class="entity" data-qualified-name="event_producer" data-source-line="12" id="ent0002"><polygon fill="#F1F1F1" points="398.66,76.5781,408.66,66.5781,552.3485,66.5781,552.3485,119.1719,542.3485,129.1719,398.66,129.1719,398.66,76.5781" style="stroke:#181818;stroke-width:0.5;"/><line style="stroke:#181818;stroke-width:0.5;" x1="542.3485" x2="552.3485" y1="76.5781" y2="66.5781"/><line style="stroke:#181818;stroke-width:0.5;" x1="398.66" x2="542.3485" y1="76.5781" y2="76.5781"/><line style="stroke:#181818;stroke-width:0.5;" x1="542.3485" x2="542.3485" y1="76.5781" y2="129.1719"/><text fill="#000000" font-family="sans-serif" font-size="14" font-style="italic" lengthAdjust="spacing" textLength="94.5068" x="423.2508" y="99.5732">&#171;application&#187;</text><text fill="#000000" font-family="sans-serif" font-size="14" lengthAdjust="spacing" textLength="113.6885" x="413.66" y="115.8701">Event generator</text></g><!--entity ui_client_browser--><g class="entity" data-qualified-name="ui_client_browser" data-source-line="13" id="ent0003"><polygon fill="#F1F1F1" points="16,231.1781,26,221.1781,165.0029,221.1781,165.0029,273.7719,155.0029,283.7719,16,283.7719,16,231.1781" style="stroke:#181818;stroke-width:0.5;"/><line style="stroke:#181818;stroke-width:0.5;" x1="155.0029" x2="165.0029" y1="231.1781" y2="221.1781"/><line style="stroke:#181818;stroke-width:0.5;" x1="16" x2="155.0029" y1="231.1781" y2="231.1781"/><line style="stroke:#181818;stroke-width:0.5;" x1="155.0029" x2="155.0029" y1="231.1781" y2="283.7719"/><text fill="#000000" font-family="sans-serif" font-size="14" font-style="italic" lengthAdjust="spacing" textLength="107.0029" x="32" y="254.1732">&#171;web browser&#187;</text><text fill="#000000" font-family="sans-serif" font-size="14" lengthAdjust="spacing" textLength="31.9102" x="69.5464" y="270.4701">User</text></g><!--entity api_client_app--><g class="entity" data-qualified-name="api_client_app" data-source-line="14" id="ent0004"><polygon fill="#F1F1F1" points="200.25,231.1781,210.25,221.1781,336.7568,221.1781,336.7568,273.7719,326.7568,283.7719,200.25,283.7719,200.25,231.1781" style="stroke:#181818;stroke-width:0.5;"/><line style="stroke:#181818;stroke-width:0.5;" x1="326.7568" x2="336.7568" y1="231.1781" y2="221.1781"/><line style="stroke:#181818;stroke-width:0.5;" x1="200.25" x2="326.7568" y1="231.1781" y2="231.1781"/><line style="stroke:#181818;stroke-width:0.5;" x1="326.7568" x2="326.7568" y1="231.1781" y2="283.7719"/><text fill="#000000" font-family="sans-serif" font-size="14" font-style="italic" lengthAdjust="spacing" textLength="94.5068" x="216.25" y="254.1732">&#171;application&#187;</text><text fill="#000000" font-family="sans-serif" font-size="14" lengthAdjust="spacing" textLength="65.0508" x="230.978" y="270.4701">API client</text></g><!--entity remote_proxy--><g class="entity" data-qualified-name="remote_proxy" data-source-line="15" id="ent0005"><polygon fill="#F1F1F1" points="371.46,231.1781,381.46,221.1781,579.542,221.1781,579.542,273.7719,569.542,283.7719,371.46,283.7719,371.46,231.1781" style="stroke:#181818;stroke-width:0.5;"/><line style="stroke:#181818;stroke-width:0.5;" x1="569.542" x2="579.542" y1="231.1781" y2="221.1781"/><line style="stroke:#181818;stroke-width:0.5;" x1="371.46" x2="569.542" y1="231.1781" y2="231.1781"/><line style="stroke:#181818;stroke-width:0.5;" x1="569.542" x2="569.542" y1="231.1781" y2="283.7719"/><text fill="#000000" font-family="sans-serif" font-size="14" font-style="italic" lengthAdjust="spacing" textLength="94.5068" x="423.2476" y="254.1732">&#171;application&#187;</text><text fill="#000000" font-family="sans-serif" font-size="14" lengthAdjust="spacing" textLength="168.082" x="386.46" y="270.4701">Upstream Stroom proxy</text></g><!--entity nginx--><g class="entity" data-qualified-name="nginx" data-source-line="17" id="ent0006"><polygon fill="#F1F1F1" points="178.45,468.7681,188.45,458.7681,358.5525,458.7681,358.5525,511.3619,348.5525,521.3619,178.45,521.3619,178.45,468.7681" style="stroke:#181818;stroke-width:0.5;"/><line style="stroke:#181818;stroke-width:0.5;" x1="348.5525" x2="358.5525" y1="468.7681" y2="458.7681"/><line style="stroke:#181818;stroke-width:0.5;" x1="178.45" x2="348.5525" y1="468.7681" y2="468.7681"/><line style="stroke:#181818;stroke-width:0.5;" x1="348.5525" x2="348.5525" y1="468.7681" y2="521.3619"/><text fill="#000000" font-family="sans-serif" font-size="14" font-style="italic" lengthAdjust="spacing" textLength="94.999" x="216.0018" y="491.7632">&#171;web server&#187;</text><text fill="#000000" font-family="sans-serif" font-size="14" lengthAdjust="spacing" textLength="140.1025" x="193.45" y="508.0601">Nginx load balancer</text></g><!--link log_sender_script_1 to nginx--><g class="link" data-entity-1="ent0011" data-entity-2="ent0006" data-link-type="dependency" data-source-line="26" id="lnk12"><path d="M853.35,490.0681 C726.04,490.0681 494.76,490.0681 364.99,490.0681" fill="none" id="log_sender_script_1-to-nginx" style="stroke:#181818;stroke-width:1;"/><polygon fill="#181818" points="358.99,490.0681,367.99,494.0681,363.99,490.0681,367.99,486.0681,358.99,490.0681" style="stroke:#181818;stroke-width:1;"/><text fill="#8B0000" font-family="sans-serif" font-size="13" lengthAdjust="spacing" textLength="70.9414" x="570.661" y="468.135">HTTPS:443</text><text fill="#8B0000" font-family="sans-serif" font-size="13" lengthAdjust="spacing" textLength="121.0435" x="545.61" y="483.2678">Internal audit data</text></g><!--link nginx to stroom_node_1--><g class="link" data-entity-1="ent0006" data-entity-2="ent0009" data-link-type="dependency" data-source-line="29" id="lnk13"><path d="M358.97,491.0181 C471.88,494.5781 667.83,512.8681 813.5,591.3681 C842.99,607.2481 866.9976,628.5359 886.7376,648.7459" fill="none" id="nginx-to-stroom_node_1" style="stroke:#008000;stroke-width:1;"/><polygon fill="#008000" points="890.93,653.0381,887.5028,643.8048,887.4363,649.4612,881.7798,649.3947,890.93,653.0381" style="stroke:#008000;stroke-width:1;"/><text fill="#008000" font-family="sans-serif" font-size="13" lengthAdjust="spacing" textLength="70.9604" x="827.0435" y="564.435">HTTP:8080</text><text fill="#008000" font-family="sans-serif" font-size="13" lengthAdjust="spacing" textLength="149.0874" x="787.98" y="579.5678">Reverse-proxied traffic</text></g><!--link nginx to stroom_proxy_local_1--><g class="link" data-entity-1="ent0006" data-entity-2="ent0010" data-link-type="dependency" data-source-line="30" id="lnk14"><path d="M358.98,461.3481 C536.3,407.2281 922.66,300.5081 1042.5,357.9881 C1085.58,378.6481 1113.8724,420.9956 1130.8424,453.0456" fill="none" id="nginx-to-stroom_proxy_local_1" style="stroke:#008000;stroke-width:1;"/><polygon fill="#008000" points="1133.65,458.3481,1132.9736,448.5225,1131.3103,453.9293,1125.9035,452.266,1133.65,458.3481" style="stroke:#008000;stroke-width:1;"/><text fill="#008000" font-family="sans-serif" font-size="13" lengthAdjust="spacing" textLength="70.9604" x="776.5" y="326.835">HTTP:8080</text><text fill="#008000" font-family="sans-serif" font-size="13" lengthAdjust="spacing" textLength="59.8647" x="782.0479" y="341.9678">Datafeed</text></g><!--link stroom_proxy_local_1 to stroom_node_1--><g class="link" data-entity-1="ent0010" data-entity-2="ent0009" data-link-type="dependency" data-source-line="33" id="lnk15"><path d="M1111.8,521.7981 C1068.81,557.7981 1002.6105,613.2365 959.6705,649.1865" fill="none" id="stroom_proxy_local_1-to-stroom_node_1" style="stroke:#808080;stroke-width:1;"/><polygon fill="#808080" points="955.07,653.0381,964.5386,650.3277,958.9038,649.8284,959.403,644.1937,955.07,653.0381" style="stroke:#808080;stroke-width:1;"/><text fill="#808080" font-family="sans-serif" font-size="13" lengthAdjust="spacing" textLength="70.9604" x="1077.5316" y="564.435">HTTP:8080</text><text fill="#808080" font-family="sans-serif" font-size="13" lengthAdjust="spacing" textLength="75.8037" x="1075.11" y="579.5678">Feed status</text></g><!--link log_sender_script_2 to nginx--><g class="link" data-entity-1="ent0019" data-entity-2="ent0006" data-link-type="dependency" data-source-line="42" id="lnk20"><path d="M686.5,652.9481 C667.47,631.8781 639.36,605.2881 608.5,591.3681 C580.76,578.8481 570.02,590.7281 540.5,583.3681 C502.54,573.8881 495.39,564.3981 458.5,551.3681 C426.2,539.9481 396.1848,530.1444 364.5048,520.2044" fill="none" id="log_sender_script_2-to-nginx" style="stroke:#181818;stroke-width:1;"/><polygon fill="#181818" points="358.78,518.4081,366.1697,524.919,363.5507,519.905,368.5647,517.2859,358.78,518.4081" style="stroke:#181818;stroke-width:1;"/><text fill="#8B0000" font-family="sans-serif" font-size="13" lengthAdjust="spacing" textLength="70.9414" x="566.551" y="564.435">HTTPS:443</text><text fill="#8B0000" font-family="sans-serif" font-size="13" lengthAdjust="spacing" textLength="121.0435" x="541.5" y="579.5678">Internal audit data</text></g><!--link nginx to stroom_node_2--><g class="link" data-entity-1="ent0006" data-entity-2="ent0017" data-link-type="dependency" data-source-line="45" id="lnk21"><path d="M253.68,521.4881 C231.28,572.3481 196.35,675.3881 245.5,739.9581 C281.39,787.1081 442.4838,816.8955 536.9738,830.7855" fill="none" id="nginx-to-stroom_node_2" style="stroke:#008000;stroke-width:1;"/><polygon fill="#008000" points="542.91,831.6581,534.5874,826.3917,537.9632,830.9309,533.4239,834.3067,542.91,831.6581" style="stroke:#008000;stroke-width:1;"/><text fill="#008000" font-family="sans-serif" font-size="13" lengthAdjust="spacing" textLength="70.9604" x="285.5635" y="681.725">HTTP:8080</text><text fill="#008000" font-family="sans-serif" font-size="13" lengthAdjust="spacing" textLength="149.0874" x="246.5" y="696.8578">Reverse-proxied traffic</text></g><!--link nginx to stroom_proxy_local_2--><g class="link" data-entity-1="ent0006" data-entity-2="ent0018" data-link-type="dependency" data-source-line="46" id="lnk22"><path d="M305.84,521.7981 C349.58,557.7981 416.9769,613.2758 460.6669,649.2258" fill="none" id="nginx-to-stroom_proxy_local_2" style="stroke:#008000;stroke-width:1;"/><polygon fill="#008000" points="465.3,653.0381,460.8919,644.2308,461.439,649.8612,455.8087,650.4084,465.3,653.0381" style="stroke:#008000;stroke-width:1;"/><text fill="#008000" font-family="sans-serif" font-size="13" lengthAdjust="spacing" textLength="70.9604" x="379.48" y="564.435">HTTP:8080</text><text fill="#008000" font-family="sans-serif" font-size="13" lengthAdjust="spacing" textLength="59.8647" x="385.0279" y="579.5678">Datafeed</text></g><!--link stroom_proxy_local_2 to stroom_node_2--><g class="link" data-entity-1="ent0018" data-entity-2="ent0017" data-link-type="dependency" data-source-line="49" id="lnk23"><path d="M508.68,716.0681 C513.67,735.5681 522.11,760.7481 535.5,779.9581 C543.11,790.8781 548.6183,797.0659 558.8783,805.6959" fill="none" id="stroom_proxy_local_2-to-stroom_node_2" style="stroke:#808080;stroke-width:1;"/><polygon fill="#808080" points="563.47,809.5581,559.1573,800.7037,559.6436,806.3396,554.0077,806.8259,563.47,809.5581" style="stroke:#808080;stroke-width:1;"/><text fill="#808080" font-family="sans-serif" font-size="13" lengthAdjust="spacing" textLength="70.9604" x="538.9216" y="761.025">HTTP:8080</text><text fill="#808080" font-family="sans-serif" font-size="13" lengthAdjust="spacing" textLength="75.8037" x="536.5" y="776.1578">Feed status</text></g><!--link stroom_node_1 to stroom_node_2--><g class="link" data-entity-1="ent0009" data-entity-2="ent0017" data-link-type="dependency" data-source-line="54" id="lnk24"><path d="M864.252,719.2917 C847.162,728.5317 832.71,734.7381 813.5,739.9581 C781.5,748.6581 692.95,730.9181 664.5,747.9581 C641.67,761.6281 629.1786,782.9654 620.5886,804.2154" fill="none" id="stroom_node_1-stroom_node_2" style="stroke:#808080;stroke-width:1;"/><polygon fill="#808080" points="869.53,716.4381,859.7106,717.1999,865.1317,718.8161,863.5155,724.2372,869.53,716.4381" style="stroke:#808080;stroke-width:1;"/><polygon fill="#808080" points="618.34,809.7781,625.4214,802.9332,620.2139,805.1425,618.0045,799.935,618.34,809.7781" style="stroke:#808080;stroke-width:1;"/><text fill="#808080" font-family="sans-serif" font-size="13" lengthAdjust="spacing" textLength="70.9604" x="716.1765" y="761.025">HTTP:8080</text><text fill="#808080" font-family="sans-serif" font-size="13" lengthAdjust="spacing" textLength="172.3135" x="665.5" y="776.1578">Inter-node communication</text></g><!--link stroom_node_1 to stroom_db--><g class="link" data-entity-1="ent0009" data-entity-2="ent0026" data-link-type="dependency" data-source-line="62" id="lnk28"><path d="M902.64,716.2781 C890.48,740.9581 874.2,776.8781 864.5,809.9581 C847.31,868.5381 879.77,897.1981 842.5,945.5481 C837.16,952.4881 830.83,947.4981 824.5,953.5481 C800.54,976.4581 787.7683,1007.0435 780.3683,1030.1735" fill="none" id="stroom_node_1-to-stroom_db" style="stroke:#181818;stroke-width:1;"/><polygon fill="#181818" points="778.54,1035.8881,785.0922,1028.535,780.0636,1031.1259,777.4727,1026.0973,778.54,1035.8881" style="stroke:#181818;stroke-width:1;"/><text fill="#8B0000" font-family="sans-serif" font-size="13" lengthAdjust="spacing" textLength="62.3213" x="865.5" y="845.825">TCP:3306</text></g><!--link stroom_node_1 to stroom_stats_db--><g class="link" data-entity-1="ent0009" data-entity-2="ent0027" data-link-type="dependency" data-source-line="63" id="lnk29"><path d="M926.61,716.1381 C937.36,761.3581 953.13,848.6281 936.5,920.5481 C926.47,963.9281 903.9509,1004.3633 887.4509,1030.5233" fill="none" id="stroom_node_1-to-stroom_stats_db" style="stroke:#181818;stroke-width:1;"/><polygon fill="#181818" points="884.25,1035.5981,892.4346,1030.1198,886.9174,1031.3691,885.6681,1025.8519,884.25,1035.5981" style="stroke:#181818;stroke-width:1;"/><text fill="#8B0000" font-family="sans-serif" font-size="13" lengthAdjust="spacing" textLength="62.3213" x="944.74" y="845.825">TCP:3306</text></g><!--link stroom_node_2 to stroom_db--><g class="link" data-entity-1="ent0017" data-entity-2="ent0026" data-link-type="dependency" data-source-line="64" id="lnk30"><path d="M619.61,872.7381 C628.2,894.1681 641.34,922.9381 657.5,945.5481 C682.79,980.9481 715.3603,1010.9955 740.5403,1032.0855" fill="none" id="stroom_node_2-to-stroom_db" style="stroke:#181818;stroke-width:1;"/><polygon fill="#181818" points="745.14,1035.9381,740.8088,1027.0927,741.3069,1032.7276,735.672,1033.2257,745.14,1035.9381" style="stroke:#181818;stroke-width:1;"/><text fill="#8B0000" font-family="sans-serif" font-size="13" lengthAdjust="spacing" textLength="62.3213" x="658.5" y="941.615">TCP:3306</text></g><!--link stroom_node_2 to stroom_stats_db--><g class="link" data-entity-1="ent0017" data-entity-2="ent0027" data-link-type="dependency" data-source-line="65" id="lnk31"><path d="M674.03,862.5881 C721.18,880.1181 783.46,909.6281 824.5,953.5481 C846.42,977.0081 857.1482,1007.0143 863.1582,1029.9343" fill="none" id="stroom_node_2-to-stroom_stats_db" style="stroke:#181818;stroke-width:1;"/><polygon fill="#181818" points="864.68,1035.7381,866.2664,1026.0179,863.4118,1030.9016,858.528,1028.047,864.68,1035.7381" style="stroke:#181818;stroke-width:1;"/><text fill="#8B0000" font-family="sans-serif" font-size="13" lengthAdjust="spacing" textLength="62.3213" x="816.34" y="941.615">TCP:3306</text></g><!--link stroom_node_1 to shared_storage--><g class="link" data-entity-1="ent0009" data-entity-2="ent0032" data-link-type="dependency" data-source-line="73" id="lnk35"><path d="M870.42,716.3881 C853.16,725.8081 833.09,734.9881 813.5,739.9581 C768.79,751.2881 440.79,729.5481 398.5,747.9581 C363.34,763.2581 352.88,774.4081 338.5,809.9581 C320.06,855.5181 323.77,873.6581 338.5,920.5481 C343.86,937.6081 354.63,937.0481 361.5,953.5481 C362.6125,956.2206 363.66,958.9585 364.6464,961.7436 C365.1396,963.1362 365.6175,964.5406 366.0805,965.9545 C366.3121,966.6614 366.5399,967.3708 366.7641,968.0822 C366.8762,968.4379 365.2153,963.0618 365.3256,963.4185" fill="none" id="stroom_node_1-to-shared_storage" style="stroke:#181818;stroke-width:1;"/><polygon fill="#181818" points="367.0976,969.1509,368.2612,959.371,365.6209,964.3739,360.618,961.7337,367.0976,969.1509" style="stroke:#181818;stroke-width:1;"/><text fill="#8B0000" font-family="sans-serif" font-size="13" lengthAdjust="spacing" textLength="58.2207" x="339.5" y="845.825">NFS/SMB</text></g><!--link stroom_node_2 to shared_storage--><g class="link" data-entity-1="ent0017" data-entity-2="ent0032" data-link-type="dependency" data-source-line="74" id="lnk36"><path d="M576.32,872.6681 C545.385,901.8981 497.465,947.1781 456.7738,985.6281 C436.4281,1004.8531 417.8897,1022.3706 404.1852,1035.3206 C400.759,1038.5581 397.635,1041.5102 394.8604,1044.132 C393.4731,1045.443 392.1732,1046.6714 390.9665,1047.8116 C390.3631,1048.3818 389.7831,1048.9299 389.2271,1049.4553 C389.0881,1049.5866 393.3116,1045.5956 393.1756,1045.7241" fill="none" id="stroom_node_2-to-shared_storage" style="stroke:#181818;stroke-width:1;"/><polygon fill="#181818" points="388.8147,1049.845,398.1034,1046.5709,392.4488,1046.4109,392.6088,1040.7563,388.8147,1049.845" style="stroke:#181818;stroke-width:1;"/><text fill="#8B0000" font-family="sans-serif" font-size="13" lengthAdjust="spacing" textLength="58.2207" x="515.92" y="941.615">NFS/SMB</text></g><!--link ui_client_browser to nginx--><g class="link" data-entity-1="ent0003" data-entity-2="ent0006" data-link-type="dependency" data-source-line="77" id="lnk37"><path d="M113.41,283.7881 C147.49,328.9081 207.5828,408.4411 241.7828,453.7011" fill="none" id="ui_client_browser-to-nginx" style="stroke:#0000FF;stroke-width:1;"/><polygon fill="#0000FF" points="245.4,458.4881,243.1655,448.8961,242.3856,454.4989,236.7828,453.7191,245.4,458.4881" style="stroke:#0000FF;stroke-width:1;"/><text fill="#0000FF" font-family="sans-serif" font-size="13" lengthAdjust="spacing" textLength="41.7485" x="159.32" y="334.335">HTTPS</text></g><!--link api_client_app to nginx--><g class="link" data-entity-1="ent0004" data-entity-2="ent0006" data-link-type="dependency" data-source-line="78" id="lnk38"><path d="M268.5,283.7881 C268.5,328.9081 268.5,407.2281 268.5,452.4881" fill="none" id="api_client_app-to-nginx" style="stroke:#0000FF;stroke-width:1;"/><polygon fill="#0000FF" points="268.5,458.4881,272.5,449.4881,268.5,453.4881,264.5,449.4881,268.5,458.4881" style="stroke:#0000FF;stroke-width:1;"/><text fill="#0000FF" font-family="sans-serif" font-size="13" lengthAdjust="spacing" textLength="41.7485" x="269.5" y="326.835">HTTPS</text><text fill="#0000FF" font-family="sans-serif" font-size="13" lengthAdjust="spacing" textLength="24.21" x="278.2693" y="341.9678">/api</text></g><!--link event_producer to remote_proxy--><g class="link" data-entity-1="ent0002" data-entity-2="ent0005" data-link-type="dependency" data-source-line="79" id="lnk39"><path d="M475.5,129.3881 C475.5,155.9181 475.5,188.1681 475.5,214.7481" fill="none" id="event_producer-to-remote_proxy" style="stroke:#0000FF;stroke-width:1;"/><polygon fill="#0000FF" points="475.5,220.7481,479.5,211.7481,475.5,215.7481,471.5,211.7481,475.5,220.7481" style="stroke:#0000FF;stroke-width:1;"/><text fill="#0000FF" font-family="sans-serif" font-size="13" lengthAdjust="spacing" textLength="41.7485" x="490.9536" y="172.245">HTTPS</text><text fill="#0000FF" font-family="sans-serif" font-size="13" lengthAdjust="spacing" textLength="70.6558" x="476.5" y="187.3778">Event data</text></g><!--link remote_proxy to nginx--><g class="link" data-entity-1="ent0005" data-entity-2="ent0006" data-link-type="dependency" data-source-line="80" id="lnk40"><path d="M448.86,283.7881 C409.22,328.9081 339.0905,408.7209 299.3205,453.9809" fill="none" id="remote_proxy-to-nginx" style="stroke:#0000FF;stroke-width:1;"/><polygon fill="#0000FF" points="295.36,458.4881,304.3055,454.3677,298.6604,454.7321,298.2959,449.087,295.36,458.4881" style="stroke:#0000FF;stroke-width:1;"/><text fill="#0000FF" font-family="sans-serif" font-size="13" lengthAdjust="spacing" textLength="41.7485" x="489.5886" y="326.835">HTTPS</text><text fill="#0000FF" font-family="sans-serif" font-size="13" lengthAdjust="spacing" textLength="178.9658" x="420.98" y="341.9678">Feed status and event data</text></g><g class="legend" data-source-line="82"><rect fill="#DDDDDD" height="107.7813" rx="7.5" ry="7.5" style="stroke:#000000;stroke-width:1;" width="229.0576" x="1027.4424" y="1126.8481"/><text fill="#000000" font-family="sans-serif" font-size="14" font-weight="bold" lengthAdjust="spacing" textLength="120.3057" x="1032.4424" y="1144.8432">Types of traffic</text><text fill="#000000" font-family="sans-serif" font-size="14" lengthAdjust="spacing" textLength="4.4502" x="1032.4424" y="1161.1401">&#160;</text><text fill="#0000FF" font-family="sans-serif" font-size="14" lengthAdjust="spacing" textLength="40.5303" x="1032.4424" y="1177.437">Client</text><text fill="#8B0000" font-family="sans-serif" font-size="14" lengthAdjust="spacing" textLength="42.2256" x="1032.4424" y="1193.7339">Direct</text><text fill="#008000" font-family="sans-serif" font-size="14" lengthAdjust="spacing" textLength="219.0576" x="1032.4424" y="1210.0307">Reverse-proxied (unencrypted)</text><text fill="#808080" font-family="sans-serif" font-size="14" lengthAdjust="spacing" textLength="158.4229" x="1032.4424" y="1226.3276">Internal (unencrypted)</text></g><?plantuml-src pLVRRjiu47tNLt3TXoJ0AXUbABg6Ow29qss1DiZ6tgTj8L3IM6OhaG99EH4M--yTKhGiMNOsDw3DYqFExSmCpv3IJ6VW4VmxcsefH4xUoNZ1DCIwb4vmTdb7yo83ChiL_fL8W5nafT8WoJuNt8y5rvHna4n1GX8eCb7bmFM11pmXsWRmzYOmHnsY5q2ML39HAaAB8cCnrKnmKWYfbVURiXX2ipfxU_psUBqZnLsrsl_ZUEsGPfbroX6N8liAv9B5e7udDDP2uY_e-F30Cs8ok5mYBf82WgKe7H2g29WzupyfOqnfD6h16e-TuT_ersgNB8mpPYmYAMwLDRY5YBXLO_3k-YEf5QqPBHexTByhI8790is9wuJDsPfBo8M6kWWzOsTzbJ9-Hp914nBHZFBO8UPslqPfgcD1UX8RJ7cAJHsuQAwd0_Alfx0sD5sBRCzVdHYHEH1rF2Sp2nl7DSgimnECzuqkgManHbiRVH8npVhvTPgS6PtTBXIUgb2BiBOvL0lh8HDfQ2GWGnLBLcZheFxNv6lizpvoJD1tHuJSN4vd14DbYcZXoeHz8YdLS4ihQxBDhU-FdVQGZ6AH2JcSKFdz1fBnXzdiUZfy_VfqT6G5uozyGyD2u5W3MYPCauHgkj9r86_mG4e5TNK8aejZgx3Jggw13Up_y-fF2S2_8fHktHj8Lcu13Lkawk6grLnCtyHaI68jwNpEuWRPlP6xNNiQW0dMOGwGRDJYSZutoI-XNGUopmxXaB2K2ybuQe3ThPfsOEss0gkHL_UNh7eGu6hy7h6Y6wfBrK3-pzj1dE3Xn0cUJvpWkSG9-iGXBy6Su5TcJl2pcHFygim9TZ4dU47c87VCT9RKZztJ8XPvNd9totaRbykB8ghFjkL89-YweWsjFrVJlpwHgRr5s_n3AeH9f1pDpT6Cg3AKi-AsPXBrLAXMRGsxOVHCJIRddNFSBOE_JZ-9-fIQNLmFJq-FtpHvxBHUXNoaZ-1P288d8cWDsGMLU9YczRgkeTqALofrF-OYmp6qweRjj1yCTefE1hRqpllArV-qeHktbyNL--dHzFFvVOLuf0TlxyA-9pl0-gzJPCfvLiBN_kGrs_NORNnkl58VOzjGoegEq5FZTUE1tVBQUTO-s7dzYE_C_uwZfyDkpIP2yTi5-f6y35BpMIDPkj1uX4RHU5OL-EKXvklP7zaftFPSzwfrAsnqTyBCWxmlttx9x9SSU2ohGaDoiDMeMb-NsvKnXpeJF4WBXgCFya9N98Symb3U3m00?></g></svg>