<?plantuml 1.2026.1?><svg xmlns="http://www.w3.org/2000/svg" xmlns:xlink="http://www.w3.org/1999/xlink" contentStyleType="text/css" data-diagram-type="DESCRIPTION" height="948px" preserveAspectRatio="none" style="width:909px;height:948px;background:#FFFFFF;" version="1.1" viewBox="0 0 909 948" width="909px" zoomAndPan="magnify"><title>==Stroom multi-node mixed-economy deployment
Stroom services in Docker
Stroom and MySQL on bare OS</title><defs/><g><g class="title" data-source-line="2"><text fill="#000000" font-family="sans-serif" font-size="16" font-weight="bold" lengthAdjust="spacing" textLength="429.8984" x="232.5508" y="24.8516">Stroom multi-node mixed-economy deployment</text><text fill="#000000" font-family="sans-serif" font-size="14" font-weight="bold" lengthAdjust="spacing" textLength="206.9238" x="344.0381" y="41.6201">Stroom services in Docker</text><text fill="#000000" font-family="sans-serif" font-size="14" font-weight="bold" lengthAdjust="spacing" textLength="242.71" x="326.145" y="57.917">Stroom and MySQL on bare OS</text></g><!--cluster dataload_client_host--><g class="cluster" data-qualified-name="dataload_client_host" data-source-line="12" id="ent0002"><polygon fill="none" points="16,88.2188,26,78.2188,252,78.2188,252,202.8188,242,212.8188,16,212.8188,16,88.2188" style="stroke:#181818;stroke-width:1;"/><line style="stroke:#181818;stroke-width:1;" x1="242" x2="252" y1="88.2188" y2="78.2188"/><line style="stroke:#181818;stroke-width:1;" x1="16" x2="242" y1="88.2188" y2="88.2188"/><line style="stroke:#181818;stroke-width:1;" x1="242" x2="242" y1="88.2188" y2="212.8188"/><text fill="#000000" font-family="sans-serif" font-size="14" font-style="italic" lengthAdjust="spacing" textLength="63.2666" x="98.3667" y="104.2139">&#171;device&#187;</text><text fill="#000000" font-family="sans-serif" font-size="14" font-weight="bold" lengthAdjust="spacing" textLength="160.7197" x="49.6401" y="120.5107">Datafeed client host</text></g><!--cluster ui_client_host--><g class="cluster" data-qualified-name="ui_client_host" data-source-line="16" id="ent0004"><polygon fill="none" points="276,88.2188,286,78.2188,495,78.2188,495,202.8188,485,212.8188,276,212.8188,276,88.2188" style="stroke:#181818;stroke-width:1;"/><line style="stroke:#181818;stroke-width:1;" x1="485" x2="495" y1="88.2188" y2="78.2188"/><line style="stroke:#181818;stroke-width:1;" x1="276" x2="485" y1="88.2188" y2="88.2188"/><line style="stroke:#181818;stroke-width:1;" x1="485" x2="485" y1="88.2188" y2="212.8188"/><text fill="#000000" font-family="sans-serif" font-size="14" font-style="italic" lengthAdjust="spacing" textLength="63.2666" x="349.8667" y="104.2139">&#171;device&#187;</text><text fill="#000000" font-family="sans-serif" font-size="14" font-weight="bold" lengthAdjust="spacing" textLength="143.9512" x="309.5244" y="120.5107">User desktop host</text></g><!--cluster remote_proxy_host--><g class="cluster" data-qualified-name="remote_proxy_host" data-source-line="20" id="ent0006"><polygon fill="none" points="519,88.2188,529,78.2188,806,78.2188,806,202.8188,796,212.8188,519,212.8188,519,88.2188" style="stroke:#181818;stroke-width:1;"/><line style="stroke:#181818;stroke-width:1;" x1="796" x2="806" y1="88.2188" y2="78.2188"/><line style="stroke:#181818;stroke-width:1;" x1="519" x2="796" y1="88.2188" y2="88.2188"/><line style="stroke:#181818;stroke-width:1;" x1="796" x2="796" y1="88.2188" y2="212.8188"/><text fill="#000000" font-family="sans-serif" font-size="14" font-style="italic" lengthAdjust="spacing" textLength="63.2666" x="626.8667" y="104.2139">&#171;device&#187;</text><text fill="#000000" font-family="sans-serif" font-size="14" font-weight="bold" lengthAdjust="spacing" textLength="211.292" x="552.854" y="120.5107">Remote stroom-proxy host</text></g><!--cluster stroom estate--><g class="cluster" data-qualified-name="stroom estate" data-source-line="24" id="ent0008"><rect fill="none" height="705.78" rx="2.5" ry="2.5" style="stroke:#181818;stroke-width:1;" width="852" x="51" y="236.8188"/><text fill="#000000" font-family="sans-serif" font-size="14" font-weight="bold" lengthAdjust="spacing" textLength="110.7832" x="421.6084" y="251.8139">stroom estate</text></g><!--cluster database_host--><g class="cluster" data-qualified-name="stroom estate.database_host" data-source-line="25" id="ent0009"><polygon fill="none" points="204,706.0088,214,696.0088,527,696.0088,527,908.5988,517,918.5988,204,918.5988,204,706.0088" style="stroke:#181818;stroke-width:1;"/><line style="stroke:#181818;stroke-width:1;" x1="517" x2="527" y1="706.0088" y2="696.0088"/><line style="stroke:#181818;stroke-width:1;" x1="204" x2="517" y1="706.0088" y2="706.0088"/><line style="stroke:#181818;stroke-width:1;" x1="517" x2="517" y1="706.0088" y2="918.5988"/><text fill="#000000" font-family="sans-serif" font-size="14" font-style="italic" lengthAdjust="spacing" textLength="63.2666" x="329.8667" y="722.0039">&#171;device&#187;</text><text fill="#000000" font-family="sans-serif" font-size="14" font-weight="bold" lengthAdjust="spacing" textLength="113.9893" x="304.5054" y="738.3007">Database host</text></g><!--cluster stroom_all_dbs--><g class="cluster" data-qualified-name="stroom estate.database_host.stroom_all_dbs" data-source-line="26" id="ent0010"><path d="M228,770.0088 C228,760.0088 365.5,760.0088 365.5,760.0088 C365.5,760.0088 503,760.0088 503,770.0088 L503,884.5988 C503,894.5988 365.5,894.5988 365.5,894.5988 C365.5,894.5988 228,894.5988 228,884.5988 L228,770.0088" fill="none" style="stroke:#181818;stroke-width:1;"/><path d="M228,770.0088 C228,780.0088 365.5,780.0088 365.5,780.0088 C365.5,780.0088 503,780.0088 503,770.0088" fill="none" style="stroke:#181818;stroke-width:1;"/><text fill="#000000" font-family="sans-serif" font-size="14" font-style="italic" lengthAdjust="spacing" textLength="59.2744" x="335.8628" y="795.0039">&#171;mysql&#187;</text><text fill="#000000" font-family="sans-serif" font-size="14" font-weight="bold" lengthAdjust="spacing" textLength="117.1748" x="306.9126" y="811.3007">stroom_all_dbs</text></g><!--cluster services_host--><g class="cluster" data-qualified-name="stroom estate.services_host" data-source-line="32" id="ent0013"><polygon fill="none" points="277,289.8188,287,279.8188,717,279.8188,717,487.4088,707,497.4088,277,497.4088,277,289.8188" style="stroke:#181818;stroke-width:1;"/><line style="stroke:#181818;stroke-width:1;" x1="707" x2="717" y1="289.8188" y2="279.8188"/><line style="stroke:#181818;stroke-width:1;" x1="277" x2="707" y1="289.8188" y2="289.8188"/><line style="stroke:#181818;stroke-width:1;" x1="707" x2="707" y1="289.8188" y2="497.4088"/><text fill="#000000" font-family="sans-serif" font-size="14" font-style="italic" lengthAdjust="spacing" textLength="63.2666" x="461.3667" y="305.8139">&#171;device&#187;</text><text fill="#000000" font-family="sans-serif" font-size="14" font-weight="bold" lengthAdjust="spacing" textLength="106.0186" x="439.9907" y="322.1107">Services host</text></g><!--cluster nginx_container--><g class="cluster" data-qualified-name="stroom estate.services_host.nginx_container" data-source-line="33" id="ent0014"><rect fill="none" height="129.59" rx="12.5" ry="12.5" style="stroke:#181818;stroke-width:1;" width="168" x="301" y="343.8188"/><text fill="#000000" font-family="sans-serif" font-size="14" font-style="italic" lengthAdjust="spacing" textLength="83.6172" x="343.1914" y="358.8139">&#171;container&#187;</text><text fill="#000000" font-family="sans-serif" font-size="14" font-weight="bold" lengthAdjust="spacing" textLength="43.7842" x="363.1079" y="375.1107">nginx</text></g><!--cluster stroom_log_sender--><g class="cluster" data-qualified-name="stroom estate.services_host.stroom_log_sender" data-source-line="36" id="ent0016"><rect fill="none" height="129.59" rx="12.5" ry="12.5" style="stroke:#181818;stroke-width:1;" width="200" x="493" y="343.8188"/><text fill="#000000" font-family="sans-serif" font-size="14" font-style="italic" lengthAdjust="spacing" textLength="83.6172" x="551.1914" y="358.8139">&#171;container&#187;</text><text fill="#000000" font-family="sans-serif" font-size="14" font-weight="bold" lengthAdjust="spacing" textLength="146.0293" x="519.9854" y="375.1107">stroom-log-sender</text></g><!--cluster stroom_host_1--><g class="cluster" data-qualified-name="stroom estate.stroom_host_1" data-source-line="53" id="ent0020"><polygon fill="none" points="83,539.4088,93,529.4088,465,529.4088,465,654.0088,455,664.0088,83,664.0088,83,539.4088" style="stroke:#181818;stroke-width:1;"/><line style="stroke:#181818;stroke-width:1;" x1="455" x2="465" y1="539.4088" y2="529.4088"/><line style="stroke:#181818;stroke-width:1;" x1="83" x2="455" y1="539.4088" y2="539.4088"/><line style="stroke:#181818;stroke-width:1;" x1="455" x2="455" y1="539.4088" y2="664.0088"/><text fill="#000000" font-family="sans-serif" font-size="14" font-style="italic" lengthAdjust="spacing" textLength="63.2666" x="238.3667" y="555.4039">&#171;device&#187;</text><text fill="#000000" font-family="sans-serif" font-size="14" font-weight="bold" lengthAdjust="spacing" textLength="109.8535" x="215.0732" y="571.7007">stroom host 1</text></g><!--cluster stroom_host_2--><g class="cluster" data-qualified-name="stroom estate.stroom_host_2" data-source-line="53" id="ent0029"><polygon fill="none" points="489,539.4088,499,529.4088,871,529.4088,871,654.0088,861,664.0088,489,664.0088,489,539.4088" style="stroke:#181818;stroke-width:1;"/><line style="stroke:#181818;stroke-width:1;" x1="861" x2="871" y1="539.4088" y2="529.4088"/><line style="stroke:#181818;stroke-width:1;" x1="489" x2="861" y1="539.4088" y2="539.4088"/><line style="stroke:#181818;stroke-width:1;" x1="861" x2="861" y1="539.4088" y2="664.0088"/><text fill="#000000" font-family="sans-serif" font-size="14" font-style="italic" lengthAdjust="spacing" textLength="63.2666" x="644.3667" y="555.4039">&#171;device&#187;</text><text fill="#000000" font-family="sans-serif" font-size="14" font-weight="bold" lengthAdjust="spacing" textLength="109.8535" x="621.0732" y="571.7007">stroom host 2</text></g><!--entity dataload_client_app--><g class="entity" data-qualified-name="dataload_client_host.dataload_client_app" data-source-line="13" id="ent0003"><polygon fill="#F1F1F1" points="82.16,144.2188,92.16,134.2188,235.8485,134.2188,235.8485,186.8125,225.8485,196.8125,82.16,196.8125,82.16,144.2188" style="stroke:#181818;stroke-width:0.5;"/><line style="stroke:#181818;stroke-width:0.5;" x1="225.8485" x2="235.8485" y1="144.2188" y2="134.2188"/><line style="stroke:#181818;stroke-width:0.5;" x1="82.16" x2="225.8485" y1="144.2188" y2="144.2188"/><line style="stroke:#181818;stroke-width:0.5;" x1="225.8485" x2="225.8485" y1="144.2188" y2="196.8125"/><text fill="#000000" font-family="sans-serif" font-size="14" font-style="italic" lengthAdjust="spacing" textLength="94.5068" x="106.7508" y="167.2139">&#171;application&#187;</text><text fill="#000000" font-family="sans-serif" font-size="14" lengthAdjust="spacing" textLength="113.6885" x="97.16" y="183.5107">Event generator</text></g><!--entity ui_client_browser--><g class="entity" data-qualified-name="ui_client_host.ui_client_browser" data-source-line="17" id="ent0005"><polygon fill="#F1F1F1" points="310.5,144.2188,320.5,134.2188,459.5029,134.2188,459.5029,186.8125,449.5029,196.8125,310.5,196.8125,310.5,144.2188" style="stroke:#181818;stroke-width:0.5;"/><line style="stroke:#181818;stroke-width:0.5;" x1="449.5029" x2="459.5029" y1="144.2188" y2="134.2188"/><line style="stroke:#181818;stroke-width:0.5;" x1="310.5" x2="449.5029" y1="144.2188" y2="144.2188"/><line style="stroke:#181818;stroke-width:0.5;" x1="449.5029" x2="449.5029" y1="144.2188" y2="196.8125"/><text fill="#000000" font-family="sans-serif" font-size="14" font-style="italic" lengthAdjust="spacing" textLength="107.0029" x="326.5" y="167.2139">&#171;web browser&#187;</text><text fill="#000000" font-family="sans-serif" font-size="14" lengthAdjust="spacing" textLength="92.1143" x="333.9443" y="183.5107">Web browser</text></g><!--entity remote_proxy--><g class="entity" data-qualified-name="remote_proxy_host.remote_proxy" data-source-line="21" id="ent0007"><polygon fill="#F1F1F1" points="534.75,144.2188,544.75,134.2188,671.2568,134.2188,671.2568,186.8125,661.2568,196.8125,534.75,196.8125,534.75,144.2188" style="stroke:#181818;stroke-width:0.5;"/><line style="stroke:#181818;stroke-width:0.5;" x1="661.2568" x2="671.2568" y1="144.2188" y2="134.2188"/><line style="stroke:#181818;stroke-width:0.5;" x1="534.75" x2="661.2568" y1="144.2188" y2="144.2188"/><line style="stroke:#181818;stroke-width:0.5;" x1="661.2568" x2="661.2568" y1="144.2188" y2="196.8125"/><text fill="#000000" font-family="sans-serif" font-size="14" font-style="italic" lengthAdjust="spacing" textLength="94.5068" x="550.75" y="167.2139">&#171;application&#187;</text><text fill="#000000" font-family="sans-serif" font-size="14" lengthAdjust="spacing" textLength="94.1377" x="550.9346" y="183.5107">stroom-proxy</text></g><!--entity stroom_db--><g class="entity" data-qualified-name="stroom estate.database_host.stroom_all_dbs.stroom_db" data-source-line="27" id="ent0011"><rect fill="#F1F1F1" height="52.5938" rx="35" ry="35" style="stroke:#181818;stroke-width:0.5;" width="104.1885" x="243.91" y="826.0088"/><text fill="#000000" font-family="sans-serif" font-size="14" font-style="italic" lengthAdjust="spacing" textLength="82.1885" x="254.91" y="849.0039">&#171;database&#187;</text><text fill="#000000" font-family="sans-serif" font-size="14" lengthAdjust="spacing" textLength="49.3076" x="271.3504" y="865.3007">stroom</text></g><!--entity stroom_stats_db--><g class="entity" data-qualified-name="stroom estate.database_host.stroom_all_dbs.stroom_stats_db" data-source-line="28" id="ent0012"><rect fill="#F1F1F1" height="52.5938" rx="35" ry="35" style="stroke:#181818;stroke-width:0.5;" width="104.1885" x="382.91" y="826.0088"/><text fill="#000000" font-family="sans-serif" font-size="14" font-style="italic" lengthAdjust="spacing" textLength="82.1885" x="393.91" y="849.0039">&#171;database&#187;</text><text fill="#000000" font-family="sans-serif" font-size="14" lengthAdjust="spacing" textLength="34.1455" x="417.9315" y="865.3007">stats</text></g><!--entity nginx--><g class="entity" data-qualified-name="stroom estate.services_host.nginx_container.nginx" data-source-line="34" id="ent0015"><polygon fill="#F1F1F1" points="316.5,404.8188,326.5,394.8188,453.499,394.8188,453.499,447.4125,443.499,457.4125,316.5,457.4125,316.5,404.8188" style="stroke:#181818;stroke-width:0.5;"/><line style="stroke:#181818;stroke-width:0.5;" x1="443.499" x2="453.499" y1="404.8188" y2="394.8188"/><line style="stroke:#181818;stroke-width:0.5;" x1="316.5" x2="443.499" y1="404.8188" y2="404.8188"/><line style="stroke:#181818;stroke-width:0.5;" x1="443.499" x2="443.499" y1="404.8188" y2="457.4125"/><text fill="#000000" font-family="sans-serif" font-size="14" font-style="italic" lengthAdjust="spacing" textLength="94.999" x="332.5" y="427.8139">&#171;web server&#187;</text><text fill="#000000" font-family="sans-serif" font-size="14" lengthAdjust="spacing" textLength="38.8076" x="360.5957" y="444.1107">nginx</text></g><!--entity stroom_log_sender_script--><g class="entity" data-qualified-name="stroom estate.services_host.stroom_log_sender.stroom_log_sender_script" data-source-line="37" id="ent0017"><polygon fill="#F1F1F1" points="508.61,404.8188,518.61,394.8188,677.3991,394.8188,677.3991,447.4125,667.3991,457.4125,508.61,457.4125,508.61,404.8188" style="stroke:#181818;stroke-width:0.5;"/><line style="stroke:#181818;stroke-width:0.5;" x1="667.3991" x2="677.3991" y1="404.8188" y2="394.8188"/><line style="stroke:#181818;stroke-width:0.5;" x1="508.61" x2="667.3991" y1="404.8188" y2="404.8188"/><line style="stroke:#181818;stroke-width:0.5;" x1="667.3991" x2="667.3991" y1="404.8188" y2="457.4125"/><text fill="#000000" font-family="sans-serif" font-size="14" font-style="italic" lengthAdjust="spacing" textLength="56.2939" x="559.8576" y="427.8139">&#171;script&#187;</text><text fill="#000000" font-family="sans-serif" font-size="14" lengthAdjust="spacing" textLength="128.7891" x="523.61" y="444.1107">stroom-log-sender</text></g><!--entity stroom_dropwiz_1--><g class="entity" data-qualified-name="stroom estate.stroom_host_1.stroom_dropwiz_1" data-source-line="54" id="ent0021"><polygon fill="#F1F1F1" points="99.29,595.4087,109.29,585.4087,218.707,585.4087,218.707,638.0025,208.707,648.0025,99.29,648.0025,99.29,595.4087" style="stroke:#181818;stroke-width:0.5;"/><line style="stroke:#181818;stroke-width:0.5;" x1="208.707" x2="218.707" y1="595.4087" y2="585.4087"/><line style="stroke:#181818;stroke-width:0.5;" x1="99.29" x2="208.707" y1="595.4087" y2="595.4087"/><line style="stroke:#181818;stroke-width:0.5;" x1="208.707" x2="208.707" y1="595.4087" y2="648.0025"/><text fill="#000000" font-family="sans-serif" font-size="14" font-style="italic" lengthAdjust="spacing" textLength="77.417" x="115.29" y="618.4039">&#171;java app&#187;</text><text fill="#000000" font-family="sans-serif" font-size="14" lengthAdjust="spacing" textLength="62.665" x="122.666" y="634.7007">stroom 1</text></g><!--entity stroom_proxy_dropwiz_1--><g class="entity" data-qualified-name="stroom estate.stroom_host_1.stroom_proxy_dropwiz_1" data-source-line="55" id="ent0022"><polygon fill="#F1F1F1" points="253.25,595.4087,263.25,585.4087,448.7402,585.4087,448.7402,638.0025,438.7402,648.0025,253.25,648.0025,253.25,595.4087" style="stroke:#181818;stroke-width:0.5;"/><line style="stroke:#181818;stroke-width:0.5;" x1="438.7402" x2="448.7402" y1="595.4087" y2="585.4087"/><line style="stroke:#181818;stroke-width:0.5;" x1="253.25" x2="438.7402" y1="595.4087" y2="595.4087"/><line style="stroke:#181818;stroke-width:0.5;" x1="438.7402" x2="438.7402" y1="595.4087" y2="648.0025"/><text fill="#000000" font-family="sans-serif" font-size="14" font-style="italic" lengthAdjust="spacing" textLength="77.417" x="307.2866" y="618.4039">&#171;java app&#187;</text><text fill="#000000" font-family="sans-serif" font-size="14" lengthAdjust="spacing" textLength="155.4902" x="268.25" y="634.7007">stroom-proxy (local) 1</text></g><!--entity stroom_dropwiz_2--><g class="entity" data-qualified-name="stroom estate.stroom_host_2.stroom_dropwiz_2" data-source-line="54" id="ent0030"><polygon fill="#F1F1F1" points="505.29,595.4087,515.29,585.4087,624.707,585.4087,624.707,638.0025,614.707,648.0025,505.29,648.0025,505.29,595.4087" style="stroke:#181818;stroke-width:0.5;"/><line style="stroke:#181818;stroke-width:0.5;" x1="614.707" x2="624.707" y1="595.4087" y2="585.4087"/><line style="stroke:#181818;stroke-width:0.5;" x1="505.29" x2="614.707" y1="595.4087" y2="595.4087"/><line style="stroke:#181818;stroke-width:0.5;" x1="614.707" x2="614.707" y1="595.4087" y2="648.0025"/><text fill="#000000" font-family="sans-serif" font-size="14" font-style="italic" lengthAdjust="spacing" textLength="77.417" x="521.29" y="618.4039">&#171;java app&#187;</text><text fill="#000000" font-family="sans-serif" font-size="14" lengthAdjust="spacing" textLength="62.665" x="528.666" y="634.7007">stroom 2</text></g><!--entity stroom_proxy_dropwiz_2--><g class="entity" data-qualified-name="stroom estate.stroom_host_2.stroom_proxy_dropwiz_2" data-source-line="55" id="ent0031"><polygon fill="#F1F1F1" points="659.25,595.4087,669.25,585.4087,854.7402,585.4087,854.7402,638.0025,844.7402,648.0025,659.25,648.0025,659.25,595.4087" style="stroke:#181818;stroke-width:0.5;"/><line style="stroke:#181818;stroke-width:0.5;" x1="844.7402" x2="854.7402" y1="595.4087" y2="585.4087"/><line style="stroke:#181818;stroke-width:0.5;" x1="659.25" x2="844.7402" y1="595.4087" y2="595.4087"/><line style="stroke:#181818;stroke-width:0.5;" x1="844.7402" x2="844.7402" y1="595.4087" y2="648.0025"/><text fill="#000000" font-family="sans-serif" font-size="14" font-style="italic" lengthAdjust="spacing" textLength="77.417" x="713.2866" y="618.4039">&#171;java app&#187;</text><text fill="#000000" font-family="sans-serif" font-size="14" lengthAdjust="spacing" textLength="155.4902" x="674.25" y="634.7007">stroom-proxy (local) 2</text></g><!--reverse link nginx to stroom_log_sender_script--><g class="link" data-entity-1="ent0015" data-entity-2="ent0017" data-link-type="dependency" data-source-line="40" id="lnk19"><path d="M459.66,426.1188 C477.89,426.1188 490.13,426.1188 508.36,426.1188" fill="none" id="nginx-backto-stroom_log_sender_script" style="stroke:#181818;stroke-width:1;"/><polygon fill="#181818" points="453.66,426.1188,462.66,430.1188,458.66,426.1188,462.66,422.1188,453.66,426.1188" style="stroke:#181818;stroke-width:1;"/></g><!--link stroom_dropwiz_1 to stroom_db--><g class="link" data-entity-1="ent0021" data-entity-2="ent0011" data-link-type="dependency" data-source-line="58" id="lnk23"><path d="M176.91,648.2488 C204.18,694.7488 252.5843,777.2834 277.9943,820.6034" fill="none" id="stroom_dropwiz_1-to-stroom_db" style="stroke:#181818;stroke-width:1;"/><polygon fill="#181818" points="281.03,825.7788,279.9267,815.9919,278.5003,821.4659,273.0262,820.0395,281.03,825.7788" style="stroke:#181818;stroke-width:1;"/></g><!--link stroom_dropwiz_1 to stroom_stats_db--><g class="link" data-entity-1="ent0021" data-entity-2="ent0012" data-link-type="dependency" data-source-line="59" id="lnk24"><path d="M188,648.3688 C201.37,660.4588 218.21,673.0888 236,680.0088 C262.98,690.4988 342.38,671.2788 366,688.0088 C411.46,720.1988 426.2882,782.5581 431.5682,819.8181" fill="none" id="stroom_dropwiz_1-to-stroom_stats_db" style="stroke:#181818;stroke-width:1;"/><polygon fill="#181818" points="432.41,825.7588,435.1077,816.2866,431.7085,820.8082,427.1868,817.409,432.41,825.7588" style="stroke:#181818;stroke-width:1;"/></g><!--link stroom_dropwiz_1 to nginx--><g class="link" data-entity-1="ent0021" data-entity-2="ent0015" data-link-type="dependency" data-source-line="61" id="lnk25"><path d="M192.03,584.9087 C209.07,563.1188 230.05,534.1988 253.5,513.4088 C278.22,491.4988 304.1293,475.368 330.1293,460.758" fill="none" id="stroom_dropwiz_1-to-nginx" style="stroke:#181818;stroke-width:1;"/><polygon fill="#181818" points="335.36,457.8188,325.5544,458.7405,331.001,460.2681,329.4734,465.7148,335.36,457.8188" style="stroke:#181818;stroke-width:1;"/></g><!--link nginx to stroom_dropwiz_1--><g class="link" data-entity-1="ent0015" data-entity-2="ent0021" data-link-type="dependency" data-source-line="65" id="lnk27"><path d="M316.28,451.4088 C284.09,466.6287 247.02,488.1287 218.5,513.4088 C195.05,534.1988 176.8109,557.7814 165.6209,579.5714" fill="none" id="nginx-to-stroom_dropwiz_1" style="stroke:#181818;stroke-width:1;"/><polygon fill="#181818" points="162.88,584.9087,170.5496,578.73,165.1641,580.461,163.4332,575.0754,162.88,584.9087" style="stroke:#181818;stroke-width:1;"/></g><!--link stroom_proxy_dropwiz_1 to nginx--><g class="link" data-entity-1="ent0022" data-entity-2="ent0015" data-link-type="dependency" data-source-line="62" id="lnk26"><path d="M366.53,584.9988 C377.03,549.9388 386.9429,498.8975 389.0929,463.8275" fill="none" id="stroom_proxy_dropwiz_1-to-nginx" style="stroke:#181818;stroke-width:1;"/><polygon fill="#181818" points="389.46,457.8388,384.9168,466.5771,389.154,462.8294,392.9018,467.0666,389.46,457.8388" style="stroke:#181818;stroke-width:1;"/></g><!--link nginx to stroom_proxy_dropwiz_1--><g class="link" data-entity-1="ent0015" data-entity-2="ent0022" data-link-type="dependency" data-source-line="66" id="lnk28"><path d="M369.47,457.8388 C358.97,492.9088 349.0573,543.95 346.9073,579.01" fill="none" id="nginx-to-stroom_proxy_dropwiz_1" style="stroke:#181818;stroke-width:1;"/><polygon fill="#181818" points="346.54,584.9988,351.0834,576.2605,346.846,580.0081,343.0984,575.7708,346.54,584.9988" style="stroke:#181818;stroke-width:1;"/></g><!--link stroom_dropwiz_2 to stroom_db--><g class="link" data-entity-1="ent0030" data-entity-2="ent0011" data-link-type="dependency" data-source-line="58" id="lnk32"><path d="M525.85,648.1787 C508.23,660.2388 486.56,672.8988 465,680.0088 C443.83,686.9888 383.07,674.9488 365,688.0088 C319.96,720.5288 304.9953,782.4315 299.5753,819.6215" fill="none" id="stroom_dropwiz_2-to-stroom_db" style="stroke:#181818;stroke-width:1;"/><polygon fill="#181818" points="298.71,825.5588,303.9661,817.2297,299.4311,820.611,296.0497,816.076,298.71,825.5588" style="stroke:#181818;stroke-width:1;"/></g><!--link stroom_dropwiz_2 to stroom_stats_db--><g class="link" data-entity-1="ent0030" data-entity-2="ent0012" data-link-type="dependency" data-source-line="59" id="lnk33"><path d="M548,648.2488 C522.13,694.7488 476.2269,777.2155 452.1269,820.5355" fill="none" id="stroom_dropwiz_2-to-stroom_stats_db" style="stroke:#181818;stroke-width:1;"/><polygon fill="#181818" points="449.21,825.7788,457.0809,819.8585,451.6408,821.4094,450.0899,815.9693,449.21,825.7788" style="stroke:#181818;stroke-width:1;"/></g><!--link stroom_dropwiz_2 to nginx--><g class="link" data-entity-1="ent0030" data-entity-2="ent0015" data-link-type="dependency" data-source-line="61" id="lnk34"><path d="M545.69,584.9988 C516.39,549.9388 466.3499,496.9989 428.7099,461.9289" fill="none" id="stroom_dropwiz_2-to-nginx" style="stroke:#181818;stroke-width:1;"/><polygon fill="#181818" points="424.32,457.8388,428.178,466.9005,427.9782,461.2472,433.6315,461.0474,424.32,457.8388" style="stroke:#181818;stroke-width:1;"/></g><!--link nginx to stroom_dropwiz_2--><g class="link" data-entity-1="ent0015" data-entity-2="ent0030" data-link-type="dependency" data-source-line="65" id="lnk36"><path d="M404.32,457.8388 C433.62,492.9088 483.6696,545.8492 521.3096,580.9092" fill="none" id="nginx-to-stroom_dropwiz_2" style="stroke:#181818;stroke-width:1;"/><polygon fill="#181818" points="525.7,584.9988,521.8407,575.9375,522.0413,581.5908,516.388,581.7915,525.7,584.9988" style="stroke:#181818;stroke-width:1;"/></g><!--link stroom_proxy_dropwiz_2 to nginx--><g class="link" data-entity-1="ent0031" data-entity-2="ent0015" data-link-type="dependency" data-source-line="62" id="lnk35"><path d="M746.87,584.9688 C729.24,560.7288 696.32,528.5587 659.5,513.4088 C628.84,500.7988 541.76,516.4888 510.5,505.4088 C482.01,495.3188 459.2487,478.8361 436.8087,461.5061" fill="none" id="stroom_proxy_dropwiz_2-to-nginx" style="stroke:#181818;stroke-width:1;"/><polygon fill="#181818" points="432.06,457.8388,436.7382,466.5056,436.0173,460.8949,441.628,460.174,432.06,457.8388" style="stroke:#181818;stroke-width:1;"/></g><!--link nginx to stroom_proxy_dropwiz_2--><g class="link" data-entity-1="ent0015" data-entity-2="ent0031" data-link-type="dependency" data-source-line="66" id="lnk37"><path d="M401.49,457.6388 C419.29,475.0188 446.9,495.2788 475.5,505.4088 C506.76,516.4888 593.84,500.7988 624.5,513.4088 C661.32,528.5587 689.9722,556.5114 714.5022,580.7514" fill="none" id="nginx-to-stroom_proxy_dropwiz_2" style="stroke:#181818;stroke-width:1;"/><polygon fill="#181818" points="718.77,584.9688,715.1799,575.7975,715.2135,581.4543,709.5568,581.4879,718.77,584.9688" style="stroke:#181818;stroke-width:1;"/></g><!--link ui_client_browser to nginx--><g class="link" data-entity-1="ent0005" data-entity-2="ent0015" data-link-type="dependency" data-source-line="76" id="lnk38"><path d="M385,197.1988 C385,246.9688 385,338.7288 385,388.4788" fill="none" id="ui_client_browser-to-nginx" style="stroke:#181818;stroke-width:1;"/><polygon fill="#181818" points="385,394.4788,389,385.4788,385,389.4788,381,385.4788,385,394.4788" style="stroke:#181818;stroke-width:1;"/></g><!--link dataload_client_app to nginx--><g class="link" data-entity-1="ent0003" data-entity-2="ent0015" data-link-type="dependency" data-source-line="77" id="lnk39"><path d="M185.81,197.1988 C229.31,246.9688 310.8021,340.2105 354.2721,389.9605" fill="none" id="dataload_client_app-to-nginx" style="stroke:#181818;stroke-width:1;"/><polygon fill="#181818" points="358.22,394.4788,355.3103,385.0695,354.9301,390.7136,349.286,390.3333,358.22,394.4788" style="stroke:#181818;stroke-width:1;"/></g><!--link remote_proxy to nginx--><g class="link" data-entity-1="ent0007" data-entity-2="ent0015" data-link-type="dependency" data-source-line="78" id="lnk40"><path d="M535.15,197.1587 C520.13,205.9588 505.11,216.5588 493,228.8188 C444.62,277.7988 413.6403,347.2797 397.8103,388.9597" fill="none" id="remote_proxy-to-nginx" style="stroke:#181818;stroke-width:1;"/><polygon fill="#181818" points="395.68,394.5688,402.6149,387.5753,397.4553,389.8945,395.1361,384.7349,395.68,394.5688" style="stroke:#181818;stroke-width:1;"/></g><?plantuml-src ZLRRZjis47sklc9YBEeiMdUH57qfTWqqkq5G847I64KU1KeQowmfKY6fzJh1_dk7f2wKBJlMWo1mvioSkOgMMu49q7Dtjx9QgGggHbY-aAf0gFWJ5WlCbLJL7WgiXTfNAAq7jEe6zIFFqG2NyA3oBUfOocG17_QhVzw3af0nZV1nbI0TMkyuCLikQwPP1HfposGf4BudFsdLoE9UQOdwzfRSMyRfSxc4rtyapqdYoSqUc6Lhn09omOaKR9InCs062X88nOeq258dWDlR0XrHClBTCmn6tZuwQ8badbcb9_6ihWbERy5pPhcIo-N0ubzA0AN6RAsg1meDlyJv5ymWqsf79WvGxIa1TuDExFOpLieY69_cHQtLqtxmhhqmzQTd2SJm8-HKp4ELMYoWiSpYR6JMLIPZ1iSbSISdsBYdKsbZIfaGQP4PKgxsvgiOwRh7KBbOsHFnRbfeaJaNhJqYVWB6h8bH_k0azZa9xoZCLTVwVPZTC9m9CygWBBbyyZZ_bVQD3gEc7uSTN1z0spvnxdsRZ4aVk6sBBbIvC3IARU-rIQ3JD9p-cCI5XbAJQrwxT8IF4RzagCi9s4BWsYwM8T2u22_MZSnTQy8L4QKkVNabMOM_mXKlheE6Hjjeahjp-CK9mZavwC31rXm-QPLZqT26ighR1mYivULB33jkDo2ut1gdv7RRMfECXuNuekvDiA98su0Sa8XHmjAEbbU-SeBK4RlhwCyYI3gZE2PGNOThLU_ujsby9pnl8co7iuR6AYDpoRWL3f0XNJ70jyOGy_HidBPtR6eY4MJqF_R8WBRMmT1F6cstvakXSYQkJxiuJjIqes7Ovj1lG78fqJUQwSMJt1VKultwkbYrsrcHwxy-_Gtlg7TtR1zv_x75ORvYjOdW1-N1wsUanKFXXfHE1HtsbCDECJYZTioWd-5-u08Jgqgq6zfSGqST3kBirUpwjF1rAtnslxhvVRXMnC4S_w27P4pT6WRfwCSQPJ2PqzQc7wMrzPytDxLWqZQL-2rNrSrmD_hPomqfbBI1cioBEzteen7YvlTNP7E0RcXBxJIt5YLOtM0ig-XUbszeWo7z7dpzOcd6yctPNiI4ql30gtSQzx7AlM36lBbKJsdQwa7douPRN5LgUzQZrKmQ4haR9-L9y79ZWGfSdKMzTseNCJsZ6N5rrz2rK3lKRyGuVzsGNsItLpvjEfblEEqfh6gxXmghZ4gI_0y0?></g></svg>