<?plantuml 1.2026.1?><svg xmlns="http://www.w3.org/2000/svg" xmlns:xlink="http://www.w3.org/1999/xlink" contentStyleType="text/css" data-diagram-type="DESCRIPTION" height="850px" preserveAspectRatio="none" style="width:823px;height:850px;background:#FFFFFF;" version="1.1" viewBox="0 0 823 850" width="823px" zoomAndPan="magnify"><title>==Stroom single-node deployment
All services running in docker containers</title><defs/><g><g class="title" data-source-line="2"><text fill="#000000" font-family="sans-serif" font-size="16" font-weight="bold" lengthAdjust="spacing" textLength="289.6016" x="259.6992" y="24.8516">Stroom single-node deployment</text><text fill="#000000" font-family="sans-serif" font-size="14" font-weight="bold" lengthAdjust="spacing" textLength="323.1143" x="242.9429" y="41.6201">All services running in docker containers</text></g><!--cluster dataload_client_host--><g class="cluster" data-qualified-name="dataload_client_host" data-source-line="13" id="ent0002"><polygon fill="none" points="16,71.9219,26,61.9219,252,61.9219,252,186.5219,242,196.5219,16,196.5219,16,71.9219" style="stroke:#181818;stroke-width:1;"/><line style="stroke:#181818;stroke-width:1;" x1="242" x2="252" y1="71.9219" y2="61.9219"/><line style="stroke:#181818;stroke-width:1;" x1="16" x2="242" y1="71.9219" y2="71.9219"/><line style="stroke:#181818;stroke-width:1;" x1="242" x2="242" y1="71.9219" y2="196.5219"/><text fill="#000000" font-family="sans-serif" font-size="14" font-style="italic" lengthAdjust="spacing" textLength="63.2666" x="98.3667" y="87.917">&#171;device&#187;</text><text fill="#000000" font-family="sans-serif" font-size="14" font-weight="bold" lengthAdjust="spacing" textLength="160.7197" x="49.6401" y="104.2139">Datafeed client host</text></g><!--cluster ui_client_host--><g class="cluster" data-qualified-name="ui_client_host" data-source-line="17" id="ent0004"><polygon fill="none" points="276,71.9219,286,61.9219,495,61.9219,495,186.5219,485,196.5219,276,196.5219,276,71.9219" style="stroke:#181818;stroke-width:1;"/><line style="stroke:#181818;stroke-width:1;" x1="485" x2="495" y1="71.9219" y2="61.9219"/><line style="stroke:#181818;stroke-width:1;" x1="276" x2="485" y1="71.9219" y2="71.9219"/><line style="stroke:#181818;stroke-width:1;" x1="485" x2="485" y1="71.9219" y2="196.5219"/><text fill="#000000" font-family="sans-serif" font-size="14" font-style="italic" lengthAdjust="spacing" textLength="63.2666" x="349.8667" y="87.917">&#171;device&#187;</text><text fill="#000000" font-family="sans-serif" font-size="14" font-weight="bold" lengthAdjust="spacing" textLength="143.9512" x="309.5244" y="104.2139">User desktop host</text></g><!--cluster remote_proxy_host--><g class="cluster" data-qualified-name="remote_proxy_host" data-source-line="21" id="ent0006"><polygon fill="none" points="519,71.9219,529,61.9219,806,61.9219,806,186.5219,796,196.5219,519,196.5219,519,71.9219" style="stroke:#181818;stroke-width:1;"/><line style="stroke:#181818;stroke-width:1;" x1="796" x2="806" y1="71.9219" y2="61.9219"/><line style="stroke:#181818;stroke-width:1;" x1="519" x2="796" y1="71.9219" y2="71.9219"/><line style="stroke:#181818;stroke-width:1;" x1="796" x2="796" y1="71.9219" y2="196.5219"/><text fill="#000000" font-family="sans-serif" font-size="14" font-style="italic" lengthAdjust="spacing" textLength="63.2666" x="626.8667" y="87.917">&#171;device&#187;</text><text fill="#000000" font-family="sans-serif" font-size="14" font-weight="bold" lengthAdjust="spacing" textLength="211.292" x="552.854" y="104.2139">Remote stroom-proxy host</text></g><!--cluster stroom_host--><g class="cluster" data-qualified-name="stroom_host" data-source-line="27" id="ent0008"><polygon fill="none" points="277,230.5219,287,220.5219,717,220.5219,717,823.3019,707,833.3019,277,833.3019,277,230.5219" style="stroke:#181818;stroke-width:1;"/><line style="stroke:#181818;stroke-width:1;" x1="707" x2="717" y1="230.5219" y2="220.5219"/><line style="stroke:#181818;stroke-width:1;" x1="277" x2="707" y1="230.5219" y2="230.5219"/><line style="stroke:#181818;stroke-width:1;" x1="707" x2="707" y1="230.5219" y2="833.3019"/><text fill="#000000" font-family="sans-serif" font-size="14" font-style="italic" lengthAdjust="spacing" textLength="63.2666" x="461.3667" y="246.517">&#171;device&#187;</text><text fill="#000000" font-family="sans-serif" font-size="14" font-weight="bold" lengthAdjust="spacing" textLength="95.2383" x="445.3809" y="262.8139">stroom host</text></g><!--cluster nginx_container--><g class="cluster" data-qualified-name="stroom_host.nginx_container" data-source-line="28" id="ent0009"><rect fill="none" height="129.59" rx="12.5" ry="12.5" style="stroke:#181818;stroke-width:1;" width="168" x="301" y="284.5219"/><text fill="#000000" font-family="sans-serif" font-size="14" font-style="italic" lengthAdjust="spacing" textLength="83.6172" x="343.1914" y="299.517">&#171;container&#187;</text><text fill="#000000" font-family="sans-serif" font-size="14" font-weight="bold" lengthAdjust="spacing" textLength="43.7842" x="363.1079" y="315.8139">nginx</text></g><!--cluster stroom_container--><g class="cluster" data-qualified-name="stroom_host.stroom_container" data-source-line="32" id="ent0011"><rect fill="none" height="129.6" rx="12.5" ry="12.5" style="stroke:#181818;stroke-width:1;" width="152" x="313" y="438.1119"/><text fill="#000000" font-family="sans-serif" font-size="14" font-style="italic" lengthAdjust="spacing" textLength="83.6172" x="347.1914" y="453.107">&#171;container&#187;</text><text fill="#000000" font-family="sans-serif" font-size="14" font-weight="bold" lengthAdjust="spacing" textLength="55.7539" x="361.123" y="469.4039">stroom</text></g><!--cluster stroom_proxy_container--><g class="cluster" data-qualified-name="stroom_host.stroom_proxy_container" data-source-line="36" id="ent0013"><rect fill="none" height="129.6" rx="12.5" ry="12.5" style="stroke:#181818;stroke-width:1;" width="176" x="489" y="438.1119"/><text fill="#000000" font-family="sans-serif" font-size="14" font-style="italic" lengthAdjust="spacing" textLength="83.6172" x="535.1914" y="453.107">&#171;container&#187;</text><text fill="#000000" font-family="sans-serif" font-size="14" font-weight="bold" lengthAdjust="spacing" textLength="160.8975" x="496.5513" y="469.4039">stroom-proxy (local)</text></g><!--cluster stroom_log_sender--><g class="cluster" data-qualified-name="stroom_host.stroom_log_sender" data-source-line="40" id="ent0015"><rect fill="none" height="129.59" rx="12.5" ry="12.5" style="stroke:#181818;stroke-width:1;" width="200" x="493" y="284.5219"/><text fill="#000000" font-family="sans-serif" font-size="14" font-style="italic" lengthAdjust="spacing" textLength="83.6172" x="551.1914" y="299.517">&#171;container&#187;</text><text fill="#000000" font-family="sans-serif" font-size="14" font-weight="bold" lengthAdjust="spacing" textLength="146.0293" x="519.9854" y="315.8139">stroom-log-sender</text></g><!--cluster database_container--><g class="cluster" data-qualified-name="stroom_host.database_container" data-source-line="44" id="ent0017"><rect fill="none" height="217.59" rx="12.5" ry="12.5" style="stroke:#181818;stroke-width:1;" width="323" x="301" y="591.7119"/><text fill="#000000" font-family="sans-serif" font-size="14" font-style="italic" lengthAdjust="spacing" textLength="83.6172" x="420.6914" y="606.707">&#171;container&#187;</text><text fill="#000000" font-family="sans-serif" font-size="14" font-weight="bold" lengthAdjust="spacing" textLength="74.5049" x="425.2476" y="623.0039">Database</text></g><!--cluster stroom_all_dbs--><g class="cluster" data-qualified-name="stroom_host.database_container.stroom_all_dbs" data-source-line="45" id="ent0018"><path d="M325,660.7119 C325,650.7119 462.5,650.7119 462.5,650.7119 C462.5,650.7119 600,650.7119 600,660.7119 L600,775.3019 C600,785.3019 462.5,785.3019 462.5,785.3019 C462.5,785.3019 325,785.3019 325,775.3019 L325,660.7119" fill="none" style="stroke:#181818;stroke-width:1;"/><path d="M325,660.7119 C325,670.7119 462.5,670.7119 462.5,670.7119 C462.5,670.7119 600,670.7119 600,660.7119" fill="none" style="stroke:#181818;stroke-width:1;"/><text fill="#000000" font-family="sans-serif" font-size="14" font-style="italic" lengthAdjust="spacing" textLength="59.2744" x="432.8628" y="685.707">&#171;mysql&#187;</text><text fill="#000000" font-family="sans-serif" font-size="14" font-weight="bold" lengthAdjust="spacing" textLength="117.1748" x="403.9126" y="702.0039">stroom_all_dbs</text></g><!--entity dataload_client_app--><g class="entity" data-qualified-name="dataload_client_host.dataload_client_app" data-source-line="14" id="ent0003"><polygon fill="#F1F1F1" points="82.16,127.9219,92.16,117.9219,235.8485,117.9219,235.8485,170.5156,225.8485,180.5156,82.16,180.5156,82.16,127.9219" style="stroke:#181818;stroke-width:0.5;"/><line style="stroke:#181818;stroke-width:0.5;" x1="225.8485" x2="235.8485" y1="127.9219" y2="117.9219"/><line style="stroke:#181818;stroke-width:0.5;" x1="82.16" x2="225.8485" y1="127.9219" y2="127.9219"/><line style="stroke:#181818;stroke-width:0.5;" x1="225.8485" x2="225.8485" y1="127.9219" y2="180.5156"/><text fill="#000000" font-family="sans-serif" font-size="14" font-style="italic" lengthAdjust="spacing" textLength="94.5068" x="106.7508" y="150.917">&#171;application&#187;</text><text fill="#000000" font-family="sans-serif" font-size="14" lengthAdjust="spacing" textLength="113.6885" x="97.16" y="167.2139">Event generator</text></g><!--entity ui_client_browser--><g class="entity" data-qualified-name="ui_client_host.ui_client_browser" data-source-line="18" id="ent0005"><polygon fill="#F1F1F1" points="310.5,127.9219,320.5,117.9219,459.5029,117.9219,459.5029,170.5156,449.5029,180.5156,310.5,180.5156,310.5,127.9219" style="stroke:#181818;stroke-width:0.5;"/><line style="stroke:#181818;stroke-width:0.5;" x1="449.5029" x2="459.5029" y1="127.9219" y2="117.9219"/><line style="stroke:#181818;stroke-width:0.5;" x1="310.5" x2="449.5029" y1="127.9219" y2="127.9219"/><line style="stroke:#181818;stroke-width:0.5;" x1="449.5029" x2="449.5029" y1="127.9219" y2="180.5156"/><text fill="#000000" font-family="sans-serif" font-size="14" font-style="italic" lengthAdjust="spacing" textLength="107.0029" x="326.5" y="150.917">&#171;web browser&#187;</text><text fill="#000000" font-family="sans-serif" font-size="14" lengthAdjust="spacing" textLength="92.1143" x="333.9443" y="167.2139">Web browser</text></g><!--entity remote_proxy--><g class="entity" data-qualified-name="remote_proxy_host.remote_proxy" data-source-line="22" id="ent0007"><polygon fill="#F1F1F1" points="534.75,127.9219,544.75,117.9219,671.2568,117.9219,671.2568,170.5156,661.2568,180.5156,534.75,180.5156,534.75,127.9219" style="stroke:#181818;stroke-width:0.5;"/><line style="stroke:#181818;stroke-width:0.5;" x1="661.2568" x2="671.2568" y1="127.9219" y2="117.9219"/><line style="stroke:#181818;stroke-width:0.5;" x1="534.75" x2="661.2568" y1="127.9219" y2="127.9219"/><line style="stroke:#181818;stroke-width:0.5;" x1="661.2568" x2="661.2568" y1="127.9219" y2="180.5156"/><text fill="#000000" font-family="sans-serif" font-size="14" font-style="italic" lengthAdjust="spacing" textLength="94.5068" x="550.75" y="150.917">&#171;application&#187;</text><text fill="#000000" font-family="sans-serif" font-size="14" lengthAdjust="spacing" textLength="94.1377" x="550.9346" y="167.2139">stroom-proxy</text></g><!--entity nginx--><g class="entity" data-qualified-name="stroom_host.nginx_container.nginx" data-source-line="29" id="ent0010"><polygon fill="#F1F1F1" points="316.5,345.5219,326.5,335.5219,453.499,335.5219,453.499,388.1156,443.499,398.1156,316.5,398.1156,316.5,345.5219" style="stroke:#181818;stroke-width:0.5;"/><line style="stroke:#181818;stroke-width:0.5;" x1="443.499" x2="453.499" y1="345.5219" y2="335.5219"/><line style="stroke:#181818;stroke-width:0.5;" x1="316.5" x2="443.499" y1="345.5219" y2="345.5219"/><line style="stroke:#181818;stroke-width:0.5;" x1="443.499" x2="443.499" y1="345.5219" y2="398.1156"/><text fill="#000000" font-family="sans-serif" font-size="14" font-style="italic" lengthAdjust="spacing" textLength="94.999" x="332.5" y="368.517">&#171;web server&#187;</text><text fill="#000000" font-family="sans-serif" font-size="14" lengthAdjust="spacing" textLength="38.8076" x="360.5957" y="384.8139">nginx</text></g><!--entity stroom_dropwiz--><g class="entity" data-qualified-name="stroom_host.stroom_container.stroom_dropwiz" data-source-line="33" id="ent0012"><polygon fill="#F1F1F1" points="329.29,499.1119,339.29,489.1119,448.707,489.1119,448.707,541.7056,438.707,551.7056,329.29,551.7056,329.29,499.1119" style="stroke:#181818;stroke-width:0.5;"/><line style="stroke:#181818;stroke-width:0.5;" x1="438.707" x2="448.707" y1="499.1119" y2="489.1119"/><line style="stroke:#181818;stroke-width:0.5;" x1="329.29" x2="438.707" y1="499.1119" y2="499.1119"/><line style="stroke:#181818;stroke-width:0.5;" x1="438.707" x2="438.707" y1="499.1119" y2="551.7056"/><text fill="#000000" font-family="sans-serif" font-size="14" font-style="italic" lengthAdjust="spacing" textLength="77.417" x="345.29" y="522.107">&#171;java app&#187;</text><text fill="#000000" font-family="sans-serif" font-size="14" lengthAdjust="spacing" textLength="49.3076" x="359.3447" y="538.4039">stroom</text></g><!--entity stroom_proxy_dropwiz--><g class="entity" data-qualified-name="stroom_host.stroom_proxy_container.stroom_proxy_dropwiz" data-source-line="37" id="ent0014"><polygon fill="#F1F1F1" points="504.93,499.1119,514.93,489.1119,639.0677,489.1119,639.0677,541.7056,629.0677,551.7056,504.93,551.7056,504.93,499.1119" style="stroke:#181818;stroke-width:0.5;"/><line style="stroke:#181818;stroke-width:0.5;" x1="629.0677" x2="639.0677" y1="499.1119" y2="489.1119"/><line style="stroke:#181818;stroke-width:0.5;" x1="504.93" x2="629.0677" y1="499.1119" y2="499.1119"/><line style="stroke:#181818;stroke-width:0.5;" x1="629.0677" x2="629.0677" y1="499.1119" y2="551.7056"/><text fill="#000000" font-family="sans-serif" font-size="14" font-style="italic" lengthAdjust="spacing" textLength="77.417" x="528.2904" y="522.107">&#171;java app&#187;</text><text fill="#000000" font-family="sans-serif" font-size="14" lengthAdjust="spacing" textLength="94.1377" x="519.93" y="538.4039">stroom-proxy</text></g><!--entity stroom_log_sender_script--><g class="entity" data-qualified-name="stroom_host.stroom_log_sender.stroom_log_sender_script" data-source-line="41" id="ent0016"><polygon fill="#F1F1F1" points="508.61,345.5219,518.61,335.5219,677.3991,335.5219,677.3991,388.1156,667.3991,398.1156,508.61,398.1156,508.61,345.5219" style="stroke:#181818;stroke-width:0.5;"/><line style="stroke:#181818;stroke-width:0.5;" x1="667.3991" x2="677.3991" y1="345.5219" y2="335.5219"/><line style="stroke:#181818;stroke-width:0.5;" x1="508.61" x2="667.3991" y1="345.5219" y2="345.5219"/><line style="stroke:#181818;stroke-width:0.5;" x1="667.3991" x2="667.3991" y1="345.5219" y2="398.1156"/><text fill="#000000" font-family="sans-serif" font-size="14" font-style="italic" lengthAdjust="spacing" textLength="56.2939" x="559.8576" y="368.517">&#171;script&#187;</text><text fill="#000000" font-family="sans-serif" font-size="14" lengthAdjust="spacing" textLength="128.7891" x="523.61" y="384.8139">stroom-log-sender</text></g><!--entity stroom_db--><g class="entity" data-qualified-name="stroom_host.database_container.stroom_all_dbs.stroom_db" data-source-line="46" id="ent0019"><rect fill="#F1F1F1" height="52.5938" rx="35" ry="35" style="stroke:#181818;stroke-width:0.5;" width="104.1885" x="340.91" y="716.7119"/><text fill="#000000" font-family="sans-serif" font-size="14" font-style="italic" lengthAdjust="spacing" textLength="82.1885" x="351.91" y="739.707">&#171;database&#187;</text><text fill="#000000" font-family="sans-serif" font-size="14" lengthAdjust="spacing" textLength="49.3076" x="368.3504" y="756.0039">stroom</text></g><!--entity stroom_stats_db--><g class="entity" data-qualified-name="stroom_host.database_container.stroom_all_dbs.stroom_stats_db" data-source-line="47" id="ent0020"><rect fill="#F1F1F1" height="52.5938" rx="35" ry="35" style="stroke:#181818;stroke-width:0.5;" width="104.1885" x="479.91" y="716.7119"/><text fill="#000000" font-family="sans-serif" font-size="14" font-style="italic" lengthAdjust="spacing" textLength="82.1885" x="490.91" y="739.707">&#171;database&#187;</text><text fill="#000000" font-family="sans-serif" font-size="14" lengthAdjust="spacing" textLength="34.1455" x="514.9315" y="756.0039">stats</text></g><!--link stroom_dropwiz to stroom_db--><g class="link" data-entity-1="ent0012" data-entity-2="ent0019" data-link-type="dependency" data-source-line="52" id="lnk21"><path d="M389.56,552.0819 C390.35,595.8819 391.6913,669.5629 392.4313,710.3929" fill="none" id="stroom_dropwiz-to-stroom_db" style="stroke:#181818;stroke-width:1;"/><polygon fill="#181818" points="392.54,716.3919,396.3763,707.3209,392.4494,711.3927,388.3776,707.4658,392.54,716.3919" style="stroke:#181818;stroke-width:1;"/></g><!--link stroom_dropwiz to stroom_stats_db--><g class="link" data-entity-1="ent0012" data-entity-2="ent0020" data-link-type="dependency" data-source-line="53" id="lnk22"><path d="M432.13,552.0319 C443.18,561.3019 454.36,572.1319 463,583.7119 C494.11,625.3919 512.9883,677.5433 523.0583,710.5333" fill="none" id="stroom_dropwiz-to-stroom_stats_db" style="stroke:#181818;stroke-width:1;"/><polygon fill="#181818" points="524.81,716.2719,526.0082,706.4962,523.3503,711.4897,518.3567,708.8317,524.81,716.2719" style="stroke:#181818;stroke-width:1;"/></g><!--link stroom_dropwiz to nginx--><g class="link" data-entity-1="ent0012" data-entity-2="ent0010" data-link-type="dependency" data-source-line="56" id="lnk23"><path d="M377.41,488.7819 C373.59,462.4919 372.0502,430.7666 374.4702,404.4666" fill="none" id="stroom_dropwiz-to-nginx" style="stroke:#181818;stroke-width:1;"/><polygon fill="#181818" points="375.02,398.4919,370.2122,407.0875,374.5619,403.4708,378.1785,407.8205,375.02,398.4919" style="stroke:#181818;stroke-width:1;"/></g><!--link nginx to stroom_dropwiz--><g class="link" data-entity-1="ent0010" data-entity-2="ent0012" data-link-type="dependency" data-source-line="61" id="lnk27"><path d="M396.6,398.4919 C400.41,424.7919 401.95,456.5171 399.53,482.8071" fill="none" id="nginx-to-stroom_dropwiz" style="stroke:#181818;stroke-width:1;"/><polygon fill="#181818" points="398.98,488.7819,403.7881,480.1864,399.4383,483.8029,395.8218,479.4531,398.98,488.7819" style="stroke:#181818;stroke-width:1;"/></g><!--link stroom_proxy_dropwiz to nginx--><g class="link" data-entity-1="ent0014" data-entity-2="ent0010" data-link-type="dependency" data-source-line="57" id="lnk24"><path d="M520.46,488.7219 C497.73,471.3519 471.33,449.3219 447.5,430.1119 C434.62,419.7319 425.0206,412.4115 413.0606,402.4515" fill="none" id="stroom_proxy_dropwiz-to-nginx" style="stroke:#181818;stroke-width:1;"/><polygon fill="#181818" points="408.45,398.6119,412.8062,407.445,412.2922,401.8115,417.9256,401.2975,408.45,398.6119" style="stroke:#181818;stroke-width:1;"/></g><!--link nginx to stroom_proxy_dropwiz--><g class="link" data-entity-1="ent0010" data-entity-2="ent0014" data-link-type="dependency" data-source-line="62" id="lnk28"><path d="M441.72,398.6119 C455.41,408.5719 469.62,419.7319 482.5,430.1119 C506.42,449.4019 528.5672,467.4235 547.0872,484.8235" fill="none" id="nginx-to-stroom_proxy_dropwiz" style="stroke:#181818;stroke-width:1;"/><polygon fill="#181818" points="551.46,488.9319,547.6397,479.8541,547.816,485.5082,542.1619,485.6845,551.46,488.9319" style="stroke:#181818;stroke-width:1;"/></g><!--reverse link nginx to stroom_log_sender_script--><g class="link" data-entity-1="ent0010" data-entity-2="ent0016" data-link-type="dependency" data-source-line="58" id="lnk26"><path d="M459.66,366.8219 C477.89,366.8219 490.13,366.8219 508.36,366.8219" fill="none" id="nginx-backto-stroom_log_sender_script" style="stroke:#181818;stroke-width:1;"/><polygon fill="#181818" points="453.66,366.8219,462.66,370.8219,458.66,366.8219,462.66,362.8219,453.66,366.8219" style="stroke:#181818;stroke-width:1;"/></g><!--link ui_client_browser to nginx--><g class="link" data-entity-1="ent0005" data-entity-2="ent0010" data-link-type="dependency" data-source-line="66" id="lnk29"><path d="M385,180.6519 C385,221.6319 385,288.1219 385,329.1919" fill="none" id="ui_client_browser-to-nginx" style="stroke:#181818;stroke-width:1;"/><polygon fill="#181818" points="385,335.1919,389,326.1919,385,330.1919,381,326.1919,385,335.1919" style="stroke:#181818;stroke-width:1;"/></g><!--link dataload_client_app to nginx--><g class="link" data-entity-1="ent0003" data-entity-2="ent0010" data-link-type="dependency" data-source-line="67" id="lnk30"><path d="M190.9,180.6519 C233.85,221.6319 305.4982,289.9807 348.5582,331.0507" fill="none" id="dataload_client_app-to-nginx" style="stroke:#181818;stroke-width:1;"/><polygon fill="#181818" points="352.9,335.1919,349.1481,326.0857,349.2818,331.7409,343.6266,331.8747,352.9,335.1919" style="stroke:#181818;stroke-width:1;"/></g><!--link remote_proxy to nginx--><g class="link" data-entity-1="ent0007" data-entity-2="ent0010" data-link-type="dependency" data-source-line="68" id="lnk31"><path d="M537.82,180.8619 C522.22,189.8319 506.26,200.5119 493,212.5219 C453.19,248.5919 422.7648,296.6086 404.0848,329.9186" fill="none" id="remote_proxy-to-nginx" style="stroke:#181818;stroke-width:1;"/><polygon fill="#181818" points="401.15,335.1519,409.041,329.2585,403.5956,330.7908,402.0633,325.3455,401.15,335.1519" style="stroke:#181818;stroke-width:1;"/></g><?plantuml-src bLN1Rjim33tFNq7aqktWou3TKWDTkyDkGujXHqEsc5IB8dcIaZGh-k-Z9CUI4sT9VGXYak_nKIHb9vp40kYvlNroHkirMA6M4akbEGB7Jkhz6fKBCNTIWaMp5IrQC1kbA1I40gxR5HfejN9CA3IsGCN11UxYXbWMP0K6rkqbma8RSC-OXzkLK1qpR0q6MyUy07WjFXYzKVnU6ugPpuVmgeBFNuetptml1Mc3PssTBOBYsGDpR878eKs-6J0Bd1nICrv7H-qTC9zpzEKGvsieCP9ysthe4YaRSzfCubdN4Pn-fMYP4rfLbHSL2NxICL7TTkLqboHin3N9Vs43ZT4xeZX2zLO2xb9CdlOHrzeXdRFlPDaP_R9FsKrmri7wNm4v_0GvLJDruYbCJPyvy1GvML8Hty_aJzsVgQLGBm4H_jL3-s4q2X6Nj1_1-gFoGnjEoWUIuADSKLCkxyfifq1kTBSJVmdscsqPq55ToDftwQFKBPEVSghOg7SfoNes8dc_AgcNfQKjxcUmPoDh7QrNgRb4KjlMYCxFGVnpLfHVwePP71RHlrm-caFa8JEJikQDfV3rtlwHmzWT7akxpfRJVMtyjFPylSu967CsHmN3MUnRNktDmrT_8oegclRA5f5uD5DbMIKv5m8EcNjokFln7MZ0v5dYi2wvSpmvao6ddImbBjmG6dC_8kqUDI4E-d6DSKtpqcB6QUT8LFW6z9-0dFRqmapgfsxnv1rTTCdy3m00?></g></svg>