<?xml version="1.0" encoding="UTF-8" standalone="no"?>
<svg
   xmlns:dc="http://purl.org/dc/elements/1.1/"
   xmlns:cc="http://creativecommons.org/ns#"
   xmlns:rdf="http://www.w3.org/1999/02/22-rdf-syntax-ns#"
   xmlns:svg="http://www.w3.org/2000/svg"
   xmlns="http://www.w3.org/2000/svg"
   xmlns:sodipodi="http://sodipodi.sourceforge.net/DTD/sodipodi-0.dtd"
   xmlns:inkscape="http://www.inkscape.org/namespaces/inkscape"
   width="110.61089"
   height="30.000004"
   viewBox="0 0 88.488641 23.999957"
   id="svg2"
   version="1.1"
   inkscape:version="0.91 r13725"
   sodipodi:docname="logo.svg">
  <metadata
     id="metadata22">
    <rdf:RDF>
      <cc:Work
         rdf:about="">
        <dc:format>image/svg+xml</dc:format>
        <dc:type
           rdf:resource="http://purl.org/dc/dcmitype/StillImage" />
        <dc:title />
      </cc:Work>
    </rdf:RDF>
  </metadata>
  <defs
     id="defs20" />
  <sodipodi:namedview
     pagecolor="#989898"
     bordercolor="#666666"
     borderopacity="1"
     objecttolerance="10"
     gridtolerance="10"
     guidetolerance="10"
     inkscape:pageopacity="0"
     inkscape:pageshadow="2"
     inkscape:window-width="1920"
     inkscape:window-height="1137"
     id="namedview18"
     showgrid="false"
     fit-margin-top="0"
     fit-margin-left="0"
     fit-margin-right="0"
     fit-margin-bottom="0"
     inkscape:zoom="5.5951814"
     inkscape:cx="54.736513"
     inkscape:cy="19.313677"
     inkscape:window-x="0"
     inkscape:window-y="0"
     inkscape:window-maximized="1"
     inkscape:current-layer="svg2" />
  <style
     type="text/css"
     id="style4">
        path {
        fill: #fff;
        }
    </style>
  <g
     id="g4139">
    <path
       id="path6"
       d="M 4.737969,7.9992878 C 2.1359696,7.9992878 0,10.096422 0,12.737256 c 0,2.601999 2.1359696,4.737969 4.737969,4.737969 l 6.524416,0 c 0.970895,0 1.747611,0.815551 1.747611,1.747611 0,0.970895 -0.776716,1.747611 -1.747611,1.747611 l -7.0211505,0 C 2.562549,21.50978 1.052484,22.585569 4.2470836e-4,23.99964 l 11.26196029164,0 c 2.601999,0 4.737969,-2.135969 4.737969,-4.776804 0,-2.601999 -2.13597,-4.737968 -4.737969,-4.737968 l -6.524416,0 c -0.9708954,0 -1.7476116,-0.776717 -1.7476116,-1.747612 0,-0.970895 0.7767162,-1.747611 1.7476116,-1.747611 l 8.885269,0 C 14.671437,9.596089 16.165857,8.5357843 17.82588,7.9992878 l -13.087911,0 z"
       style="fill:#ff6f00;fill-opacity:1"
       inkscape:connector-curvature="0" />
    <path
       id="path8"
       d="M 23.357616,-3.4179658e-4 C 22.239666,0.32473658 21.223589,0.88603734 20.367259,1.6269997 l 0,6.3647042 7.7e-5,0.00758 -7.7e-5,0 c -2.528602,1.86e-5 -4.77803,1.165848 -6.242735,2.9903572 l 6.242735,0 0,13.009995 2.990357,0 0,-13.009995 5.625487,0 c 1.054834,-1.4003756 2.561772,-2.4619106 4.233955,-2.9903572 l -9.859442,0 0,-7.99962959658 z"
       style="fill:#ff6f00;fill-opacity:1"
       inkscape:connector-curvature="0" />
    <path
       id="path10"
       d="m 35.706676,7.9992878 c -4.427099,0 -8.000004,3.5731492 -8.000298,8.0001762 -6e-6,2.666926 0,5.333228 0,8.000176 l 3.029193,0 c -4.66e-4,-2.666053 6.83e-4,-5.338712 0,-8.000176 0.0033,-2.754543 2.215875,-5.009819 4.971167,-5.009819 0.205295,0 0.407707,0.01276 0.606687,0.03702 0.707662,-0.951955 1.62274,-1.7508673 2.657342,-2.3360325 -0.996164,-0.444204 -2.100499,-0.6913397 -3.264029,-0.6913397 l 0,0 z"
       style="fill:#ff6f00;fill-opacity:1"
       inkscape:connector-curvature="0" />
    <path
       id="path12"
       d="m 43.085075,7.9992722 c -4.427283,0 -8.000176,3.5728948 -8.000176,8.0001768 0,4.388446 3.572893,8.000175 8.000176,8.000175 4.427286,0 8.000179,-3.611729 8.000179,-8.000175 0,-4.427282 -3.572893,-8.0001768 -8.000179,-8.0001768 z m 0,12.9711608 c -2.757341,0 -5.009821,-2.213642 -5.009821,-4.970984 0,-2.757343 2.25248,-5.009819 5.009821,-5.009819 2.757345,0 5.00982,2.252476 5.00982,5.009819 0,2.757342 -2.252475,4.970984 -5.00982,4.970984 z"
       style="fill:#ff6f00;fill-opacity:1"
       inkscape:connector-curvature="0" />
    <path
       id="path14"
       d="m 56.097349,7.9992722 c -4.427281,0 -8.000175,3.5728948 -8.000175,8.0001768 0,4.388446 3.572894,8.000175 8.000175,8.000175 4.427282,0 8.00018,-3.611729 8.00018,-8.000175 0,-4.427282 -3.572898,-8.0001768 -8.00018,-8.0001768 z m 0,12.9711608 c -2.75734,0 -5.009819,-2.213642 -5.009819,-4.970984 0,-2.757343 2.252479,-5.009819 5.009819,-5.009819 2.757345,0 5.00982,2.252476 5.00982,5.009819 0,2.757342 -2.252475,4.970984 -5.00982,4.970984 z"
       style="fill:#ff6f00;fill-opacity:1"
       inkscape:connector-curvature="0" />
    <path
       id="path16"
       d="m 67.517304,14.756705 c 0,-2.0583 1.669941,-3.767077 3.728237,-3.767077 2.058299,0 3.767076,1.708777 3.767076,3.767077 l 0,9.242918 2.990356,0 0,-9.242918 c 0,-2.0583 1.669941,-3.767077 3.767073,-3.767077 2.058299,0 3.728236,1.708777 3.728236,3.767077 l 0,9.242918 2.99036,0 0,-9.242918 c 0,-3.728241 -2.99036,-6.7574328 -6.718596,-6.7574328 -2.135968,0 -4.038924,0.9708953 -5.281671,2.5243278 -1.242743,-1.5534325 -3.106863,-2.5243278 -5.242834,-2.5243278 -3.728237,0 -6.757429,3.0291918 -6.757429,6.7574328 l 0,9.242918 3.029192,0 z"
       style="fill:#ff6f00;fill-opacity:1"
       inkscape:connector-curvature="0" />
  </g>
</svg>
