<?xml version="1.0" encoding="UTF-8" standalone="no"?>
<!-- Created with Inkscape (http://www.inkscape.org/) -->

<svg
   xmlns:osb="http://www.openswatchbook.org/uri/2009/osb"
   xmlns:dc="http://purl.org/dc/elements/1.1/"
   xmlns:cc="http://creativecommons.org/ns#"
   xmlns:rdf="http://www.w3.org/1999/02/22-rdf-syntax-ns#"
   xmlns:svg="http://www.w3.org/2000/svg"
   xmlns="http://www.w3.org/2000/svg"
   xmlns:sodipodi="http://sodipodi.sourceforge.net/DTD/sodipodi-0.dtd"
   xmlns:inkscape="http://www.inkscape.org/namespaces/inkscape"
   width="92.001801mm"
   height="83.128502mm"
   viewBox="0 0 325.99063 294.54981"
   id="svg2"
   version="1.1"
   inkscape:version="0.91 r13725"
   sodipodi:docname="svg-example.svg">
  <defs
     id="defs4">
    <linearGradient
       id="linearGradient4229"
       osb:paint="solid">
      <stop
         style="stop-color:#000000;stop-opacity:1;"
         offset="0"
         id="stop4231" />
    </linearGradient>
  </defs>
  <sodipodi:namedview
     id="base"
     pagecolor="#ffffff"
     bordercolor="#666666"
     borderopacity="1.0"
     inkscape:pageopacity="0.0"
     inkscape:pageshadow="2"
     inkscape:zoom="1.9765964"
     inkscape:cx="96.549499"
     inkscape:cy="142.57156"
     inkscape:document-units="px"
     inkscape:current-layer="layer1"
     showgrid="false"
     inkscape:window-width="1920"
     inkscape:window-height="1137"
     inkscape:window-x="0"
     inkscape:window-y="0"
     inkscape:window-maximized="1"
     fit-margin-top="0"
     fit-margin-left="0"
     fit-margin-right="0"
     fit-margin-bottom="0" />
  <metadata
     id="metadata7">
    <rdf:RDF>
      <cc:Work
         rdf:about="">
        <dc:format>image/svg+xml</dc:format>
        <dc:type
           rdf:resource="http://purl.org/dc/dcmitype/StillImage" />
        <dc:title></dc:title>
      </cc:Work>
    </rdf:RDF>
  </metadata>
  <g
     inkscape:label="Layer 1"
     inkscape:groupmode="layer"
     id="layer1"
     transform="translate(-154.87245,-228.38592)">
    <path
       style="fill:#ff203e;fill-opacity:1;fill-rule:evenodd;stroke:#000000;stroke-width:2.5999999;stroke-linecap:butt;stroke-linejoin:miter;stroke-miterlimit:4;stroke-dasharray:none;stroke-opacity:1"
       d="m 264.93833,453.128 c -33.9209,-14.46868 -46.40406,-56.04073 -31.58454,-88.57588 18.1892,-39.93304 67.72678,-54.41631 106.34633,-36.02716 45.95518,21.88211 62.44446,79.42172 40.46977,124.11678 -25.55832,51.98391 -91.12245,70.483 -141.88723,44.91239 -58.01718,-29.22369 -78.52867,-102.82718 -49.35501,-159.65768 32.88165,-64.05369 114.53479,-86.57946 177.42814,-53.79762 68.30209,35.60103 93.73252,122.10123 60.59159,190.5498 l 35.03245,5.22055 c 40.34612,-83.33002 9.38684,-188.63627 -73.76485,-231.97734 -76.56702,-39.90895 -175.97242,-12.48584 -216.00289,65.49379 -35.51632,69.18606 -10.54542,158.79171 60.08531,194.36895 61.80158,31.12993 141.62005,8.60895 172.73501,-54.67681 26.75222,-54.41224 6.678,-124.46158 -49.26833,-151.10108 -47.01584,-22.38716 -107.32341,-4.75507 -129.46714,43.85984 -18.04144,39.60863 -2.84431,90.21889 38.45135,107.8332 z"
       id="path4136-5"
       inkscape:connector-curvature="0"
       sodipodi:nodetypes="cssssssccsssssscc" />
  </g>
</svg>
