<?plantuml 1.2026.1?><svg xmlns="http://www.w3.org/2000/svg" xmlns:xlink="http://www.w3.org/1999/xlink" contentStyleType="text/css" data-diagram-type="DESCRIPTION" height="942px" preserveAspectRatio="none" style="width:1469px;height:942px;background:#FFFFFF;" version="1.1" viewBox="0 0 1469 942" width="1469px" zoomAndPan="magnify"><title>==Stroom multi-node mixed-economy deployment
Stroom services in Docker
Stroom and MySQL on bare OS</title><defs/><g><g class="title" data-source-line="2"><text fill="#000000" font-family="sans-serif" font-size="16" font-weight="bold" lengthAdjust="spacing" textLength="369.8828" x="542.5586" y="24.8516">Stroom multi-node mixed-economy deployment</text><text fill="#000000" font-family="sans-serif" font-size="14" font-weight="bold" lengthAdjust="spacing" textLength="175.3965" x="639.8018" y="41.6201">Stroom services in Docker</text><text fill="#000000" font-family="sans-serif" font-size="14" font-weight="bold" lengthAdjust="spacing" textLength="204.2646" x="625.3677" y="57.917">Stroom and MySQL on bare OS</text></g><!--cluster dataload_client_host--><g class="cluster" data-qualified-name="dataload_client_host" data-source-line="12" id="ent0002"><polygon fill="none" points="16,88.2188,26,78.2188,229,78.2188,229,203.2188,219,213.2188,16,213.2188,16,88.2188" style="stroke:#181818;stroke-width:1;"/><line style="stroke:#181818;stroke-width:1;" x1="219" x2="229" y1="88.2188" y2="78.2188"/><line style="stroke:#181818;stroke-width:1;" x1="16" x2="219" y1="88.2188" y2="88.2188"/><line style="stroke:#181818;stroke-width:1;" x1="219" x2="219" y1="88.2188" y2="213.2188"/><text fill="#000000" font-family="sans-serif" font-size="14" font-style="italic" lengthAdjust="spacing" textLength="53.6279" x="91.686" y="104.2139">&#171;device&#187;</text><text fill="#000000" font-family="sans-serif" font-size="14" font-weight="bold" lengthAdjust="spacing" textLength="137.0879" x="49.9561" y="120.5107">Datafeed client host</text></g><!--cluster ui_client_host--><g class="cluster" data-qualified-name="ui_client_host" data-source-line="16" id="ent0004"><polygon fill="none" points="253,88.2188,263,78.2188,451,78.2188,451,203.2188,441,213.2188,253,213.2188,253,88.2188" style="stroke:#181818;stroke-width:1;"/><line style="stroke:#181818;stroke-width:1;" x1="441" x2="451" y1="88.2188" y2="78.2188"/><line style="stroke:#181818;stroke-width:1;" x1="253" x2="441" y1="88.2188" y2="88.2188"/><line style="stroke:#181818;stroke-width:1;" x1="441" x2="441" y1="88.2188" y2="213.2188"/><text fill="#000000" font-family="sans-serif" font-size="14" font-style="italic" lengthAdjust="spacing" textLength="53.6279" x="321.186" y="104.2139">&#171;device&#187;</text><text fill="#000000" font-family="sans-serif" font-size="14" font-weight="bold" lengthAdjust="spacing" textLength="122.2676" x="286.8662" y="120.5107">User desktop host</text></g><!--cluster remote_proxy_host--><g class="cluster" data-qualified-name="remote_proxy_host" data-source-line="20" id="ent0006"><polygon fill="none" points="475,88.2188,485,78.2188,731,78.2188,731,203.2188,721,213.2188,475,213.2188,475,88.2188" style="stroke:#181818;stroke-width:1;"/><line style="stroke:#181818;stroke-width:1;" x1="721" x2="731" y1="88.2188" y2="78.2188"/><line style="stroke:#181818;stroke-width:1;" x1="475" x2="721" y1="88.2188" y2="88.2188"/><line style="stroke:#181818;stroke-width:1;" x1="721" x2="721" y1="88.2188" y2="213.2188"/><text fill="#000000" font-family="sans-serif" font-size="14" font-style="italic" lengthAdjust="spacing" textLength="53.6279" x="572.186" y="104.2139">&#171;device&#187;</text><text fill="#000000" font-family="sans-serif" font-size="14" font-weight="bold" lengthAdjust="spacing" textLength="180.6943" x="508.6528" y="120.5107">Remote stroom-proxy host</text></g><!--cluster stroom estate--><g class="cluster" data-qualified-name="stroom estate" data-source-line="24" id="ent0008"><rect fill="none" height="699" rx="2.5" ry="2.5" style="stroke:#181818;stroke-width:1;" width="1294" x="169" y="237.2188"/><text fill="#000000" font-family="sans-serif" font-size="14" font-weight="bold" lengthAdjust="spacing" textLength="94.8418" x="768.5791" y="252.2139">stroom estate</text></g><!--cluster database_host--><g class="cluster" data-qualified-name="stroom estate.database_host" data-source-line="25" id="ent0009"><polygon fill="none" points="770,699.2188,780,689.2188,1198,689.2188,1198,902.2188,1188,912.2188,770,912.2188,770,699.2188" style="stroke:#181818;stroke-width:1;"/><line style="stroke:#181818;stroke-width:1;" x1="1188" x2="1198" y1="699.2188" y2="689.2188"/><line style="stroke:#181818;stroke-width:1;" x1="770" x2="1188" y1="699.2188" y2="699.2188"/><line style="stroke:#181818;stroke-width:1;" x1="1188" x2="1188" y1="699.2188" y2="912.2188"/><text fill="#000000" font-family="sans-serif" font-size="14" font-style="italic" lengthAdjust="spacing" textLength="53.6279" x="953.186" y="715.2139">&#171;device&#187;</text><text fill="#000000" font-family="sans-serif" font-size="14" font-weight="bold" lengthAdjust="spacing" textLength="96.4277" x="931.7861" y="731.5107">Database host</text></g><!--cluster stroom_all_dbs--><g class="cluster" data-qualified-name="stroom estate.database_host.stroom_all_dbs" data-source-line="26" id="ent0010"><path d="M794,763.2188 C794,753.2188 984,753.2188 984,753.2188 C984,753.2188 1174,753.2188 1174,763.2188 L1174,878.2188 C1174,888.2188 984,888.2188 984,888.2188 C984,888.2188 794,888.2188 794,878.2188 L794,763.2188" fill="none" style="stroke:#181818;stroke-width:1;"/><path d="M794,763.2188 C794,773.2188 984,773.2188 984,773.2188 C984,773.2188 1174,773.2188 1174,763.2188" fill="none" style="stroke:#181818;stroke-width:1;"/><text fill="#000000" font-family="sans-serif" font-size="14" font-style="italic" lengthAdjust="spacing" textLength="51.1602" x="958.4199" y="788.2139">&#171;mysql&#187;</text><text fill="#000000" font-family="sans-serif" font-size="14" font-weight="bold" lengthAdjust="spacing" textLength="100.4199" x="933.79" y="804.5107">stroom_all_dbs</text></g><!--cluster services_host--><g class="cluster" data-qualified-name="stroom estate.services_host" data-source-line="33" id="ent0014"><polygon fill="none" points="193,290.2188,203,280.2188,669,280.2188,669,655.2188,659,665.2188,193,665.2188,193,290.2188" style="stroke:#181818;stroke-width:1;"/><line style="stroke:#181818;stroke-width:1;" x1="659" x2="669" y1="290.2188" y2="280.2188"/><line style="stroke:#181818;stroke-width:1;" x1="193" x2="659" y1="290.2188" y2="290.2188"/><line style="stroke:#181818;stroke-width:1;" x1="659" x2="659" y1="290.2188" y2="665.2188"/><text fill="#000000" font-family="sans-serif" font-size="14" font-style="italic" lengthAdjust="spacing" textLength="53.6279" x="400.186" y="306.2139">&#171;device&#187;</text><text fill="#000000" font-family="sans-serif" font-size="14" font-weight="bold" lengthAdjust="spacing" textLength="88.5527" x="382.7236" y="322.5107">Services host</text></g><!--cluster nginx_container--><g class="cluster" data-qualified-name="stroom estate.services_host.nginx_container" data-source-line="34" id="ent0015"><rect fill="none" height="130" rx="12.5" ry="12.5" style="stroke:#181818;stroke-width:1;" width="158" x="273" y="344.2188"/><text fill="#000000" font-family="sans-serif" font-size="14" font-style="italic" lengthAdjust="spacing" textLength="73.5547" x="315.2227" y="359.2139">&#171;container&#187;</text><text fill="#000000" font-family="sans-serif" font-size="14" font-weight="bold" lengthAdjust="spacing" textLength="37.2217" x="333.3892" y="375.5107">nginx</text></g><!--cluster stroom_auth_ui_container--><g class="cluster" data-qualified-name="stroom estate.services_host.stroom_auth_ui_container" data-source-line="37" id="ent0017"><rect fill="none" height="130" rx="12.5" ry="12.5" style="stroke:#181818;stroke-width:1;" width="206" x="217" y="511.2188"/><text fill="#000000" font-family="sans-serif" font-size="14" font-style="italic" lengthAdjust="spacing" textLength="73.5547" x="283.2227" y="526.2139">&#171;container&#187;</text><text fill="#000000" font-family="sans-serif" font-size="14" font-weight="bold" lengthAdjust="spacing" textLength="102.0195" x="268.9902" y="542.5107">stroom-auth-ui</text></g><!--cluster stroom_auth_service_container--><g class="cluster" data-qualified-name="stroom estate.services_host.stroom_auth_service_container" data-source-line="40" id="ent0019"><rect fill="none" height="130" rx="12.5" ry="12.5" style="stroke:#181818;stroke-width:1;" width="198" x="447" y="511.2188"/><text fill="#000000" font-family="sans-serif" font-size="14" font-style="italic" lengthAdjust="spacing" textLength="73.5547" x="509.2227" y="526.2139">&#171;container&#187;</text><text fill="#000000" font-family="sans-serif" font-size="14" font-weight="bold" lengthAdjust="spacing" textLength="136.8555" x="477.5723" y="542.5107">stroom-auth-service</text></g><!--cluster stroom_log_sender--><g class="cluster" data-qualified-name="stroom estate.services_host.stroom_log_sender" data-source-line="43" id="ent0021"><rect fill="none" height="130" rx="12.5" ry="12.5" style="stroke:#181818;stroke-width:1;" width="190" x="455" y="344.2188"/><text fill="#000000" font-family="sans-serif" font-size="14" font-style="italic" lengthAdjust="spacing" textLength="73.5547" x="513.2227" y="359.2139">&#171;container&#187;</text><text fill="#000000" font-family="sans-serif" font-size="14" font-weight="bold" lengthAdjust="spacing" textLength="124.332" x="487.834" y="375.5107">stroom-log-sender</text></g><!--cluster stroom_host_1--><g class="cluster" data-qualified-name="stroom estate.stroom_host_1" data-source-line="60" id="ent0025"><polygon fill="none" points="701,516.2188,711,506.2188,1054,506.2188,1054,631.2188,1044,641.2188,701,641.2188,701,516.2188" style="stroke:#181818;stroke-width:1;"/><line style="stroke:#181818;stroke-width:1;" x1="1044" x2="1054" y1="516.2188" y2="506.2188"/><line style="stroke:#181818;stroke-width:1;" x1="701" x2="1044" y1="516.2188" y2="516.2188"/><line style="stroke:#181818;stroke-width:1;" x1="1044" x2="1044" y1="516.2188" y2="641.2188"/><text fill="#000000" font-family="sans-serif" font-size="14" font-style="italic" lengthAdjust="spacing" textLength="53.6279" x="846.686" y="532.2139">&#171;device&#187;</text><text fill="#000000" font-family="sans-serif" font-size="14" font-weight="bold" lengthAdjust="spacing" textLength="93.249" x="826.8755" y="548.5107">stroom host 1</text></g><!--cluster stroom_host_2--><g class="cluster" data-qualified-name="stroom estate.stroom_host_2" data-source-line="60" id="ent0034"><polygon fill="none" points="1078,516.2188,1088,506.2188,1431,506.2188,1431,631.2188,1421,641.2188,1078,641.2188,1078,516.2188" style="stroke:#181818;stroke-width:1;"/><line style="stroke:#181818;stroke-width:1;" x1="1421" x2="1431" y1="516.2188" y2="506.2188"/><line style="stroke:#181818;stroke-width:1;" x1="1078" x2="1421" y1="516.2188" y2="516.2188"/><line style="stroke:#181818;stroke-width:1;" x1="1421" x2="1421" y1="516.2188" y2="641.2188"/><text fill="#000000" font-family="sans-serif" font-size="14" font-style="italic" lengthAdjust="spacing" textLength="53.6279" x="1223.686" y="532.2139">&#171;device&#187;</text><text fill="#000000" font-family="sans-serif" font-size="14" font-weight="bold" lengthAdjust="spacing" textLength="93.249" x="1203.8755" y="548.5107">stroom host 2</text></g><!--entity dataload_client_app--><g class="entity" data-qualified-name="dataload_client_host.dataload_client_app" data-source-line="13" id="ent0003"><polygon fill="#F1F1F1" points="73,144.2188,83,134.2188,213.1191,134.2188,213.1191,186.8125,203.1191,196.8125,73,196.8125,73,144.2188" style="stroke:#181818;stroke-width:0.5;"/><line style="stroke:#181818;stroke-width:0.5;" x1="203.1191" x2="213.1191" y1="144.2188" y2="134.2188"/><line style="stroke:#181818;stroke-width:0.5;" x1="73" x2="203.1191" y1="144.2188" y2="144.2188"/><line style="stroke:#181818;stroke-width:0.5;" x1="203.1191" x2="203.1191" y1="144.2188" y2="196.8125"/><text fill="#000000" font-family="sans-serif" font-size="14" font-style="italic" lengthAdjust="spacing" textLength="83.3164" x="96.4014" y="167.2139">&#171;application&#187;</text><text fill="#000000" font-family="sans-serif" font-size="14" lengthAdjust="spacing" textLength="100.1191" x="88" y="183.5107">Event generator</text></g><!--entity ui_client_browser--><g class="entity" data-qualified-name="ui_client_host.ui_client_browser" data-source-line="17" id="ent0005"><polygon fill="#F1F1F1" points="283.5,144.2188,293.5,134.2188,420.6152,134.2188,420.6152,186.8125,410.6152,196.8125,283.5,196.8125,283.5,144.2188" style="stroke:#181818;stroke-width:0.5;"/><line style="stroke:#181818;stroke-width:0.5;" x1="410.6152" x2="420.6152" y1="144.2188" y2="134.2188"/><line style="stroke:#181818;stroke-width:0.5;" x1="283.5" x2="410.6152" y1="144.2188" y2="144.2188"/><line style="stroke:#181818;stroke-width:0.5;" x1="410.6152" x2="410.6152" y1="144.2188" y2="196.8125"/><text fill="#000000" font-family="sans-serif" font-size="14" font-style="italic" lengthAdjust="spacing" textLength="95.1152" x="299.5" y="167.2139">&#171;web browser&#187;</text><text fill="#000000" font-family="sans-serif" font-size="14" lengthAdjust="spacing" textLength="83.4121" x="305.3516" y="183.5107">Web browser</text></g><!--entity remote_proxy--><g class="entity" data-qualified-name="remote_proxy_host.remote_proxy" data-source-line="21" id="ent0007"><polygon fill="#F1F1F1" points="491,144.2188,501,134.2188,616.5654,134.2188,616.5654,186.8125,606.5654,196.8125,491,196.8125,491,144.2188" style="stroke:#181818;stroke-width:0.5;"/><line style="stroke:#181818;stroke-width:0.5;" x1="606.5654" x2="616.5654" y1="144.2188" y2="134.2188"/><line style="stroke:#181818;stroke-width:0.5;" x1="491" x2="606.5654" y1="144.2188" y2="144.2188"/><line style="stroke:#181818;stroke-width:0.5;" x1="606.5654" x2="606.5654" y1="144.2188" y2="196.8125"/><text fill="#000000" font-family="sans-serif" font-size="14" font-style="italic" lengthAdjust="spacing" textLength="83.3164" x="507.1245" y="167.2139">&#171;application&#187;</text><text fill="#000000" font-family="sans-serif" font-size="14" lengthAdjust="spacing" textLength="85.5654" x="506" y="183.5107">stroom-proxy</text></g><!--entity stroom_db--><g class="entity" data-qualified-name="stroom estate.database_host.stroom_all_dbs.stroom_db" data-source-line="27" id="ent0011"><rect fill="#F1F1F1" height="52.5938" rx="35" ry="35" style="stroke:#181818;stroke-width:0.5;" width="92.8818" x="1065.5" y="819.2188"/><text fill="#000000" font-family="sans-serif" font-size="14" font-style="italic" lengthAdjust="spacing" textLength="70.8818" x="1076.5" y="842.2139">&#171;database&#187;</text><text fill="#000000" font-family="sans-serif" font-size="14" lengthAdjust="spacing" textLength="45.3496" x="1089.2661" y="858.5107">stroom</text></g><!--entity stroom_stats_db--><g class="entity" data-qualified-name="stroom estate.database_host.stroom_all_dbs.stroom_stats_db" data-source-line="28" id="ent0012"><rect fill="#F1F1F1" height="52.5938" rx="35" ry="35" style="stroke:#181818;stroke-width:0.5;" width="92.8818" x="937.5" y="819.2188"/><text fill="#000000" font-family="sans-serif" font-size="14" font-style="italic" lengthAdjust="spacing" textLength="70.8818" x="948.5" y="842.2139">&#171;database&#187;</text><text fill="#000000" font-family="sans-serif" font-size="14" lengthAdjust="spacing" textLength="29.5518" x="969.165" y="858.5107">stats</text></g><!--entity stroom_auth_db--><g class="entity" data-qualified-name="stroom estate.database_host.stroom_all_dbs.stroom_auth_db" data-source-line="29" id="ent0013"><rect fill="#F1F1F1" height="52.5938" rx="35" ry="35" style="stroke:#181818;stroke-width:0.5;" width="92.8818" x="809.5" y="819.2188"/><text fill="#000000" font-family="sans-serif" font-size="14" font-style="italic" lengthAdjust="spacing" textLength="70.8818" x="820.5" y="842.2139">&#171;database&#187;</text><text fill="#000000" font-family="sans-serif" font-size="14" lengthAdjust="spacing" textLength="28.6631" x="841.6094" y="858.5107">auth</text></g><!--entity nginx--><g class="entity" data-qualified-name="stroom estate.services_host.nginx_container.nginx" data-source-line="35" id="ent0016"><polygon fill="#F1F1F1" points="289.5,405.2188,299.5,395.2188,414.085,395.2188,414.085,447.8125,404.085,457.8125,289.5,457.8125,289.5,405.2188" style="stroke:#181818;stroke-width:0.5;"/><line style="stroke:#181818;stroke-width:0.5;" x1="404.085" x2="414.085" y1="405.2188" y2="395.2188"/><line style="stroke:#181818;stroke-width:0.5;" x1="289.5" x2="404.085" y1="405.2188" y2="405.2188"/><line style="stroke:#181818;stroke-width:0.5;" x1="404.085" x2="404.085" y1="405.2188" y2="457.8125"/><text fill="#000000" font-family="sans-serif" font-size="14" font-style="italic" lengthAdjust="spacing" textLength="82.585" x="305.5" y="428.2139">&#171;web server&#187;</text><text fill="#000000" font-family="sans-serif" font-size="14" lengthAdjust="spacing" textLength="34.3643" x="329.6104" y="444.5107">nginx</text></g><!--entity stroom_auth_ui_nginx--><g class="entity" data-qualified-name="stroom estate.services_host.stroom_auth_ui_container.stroom_auth_ui_nginx" data-source-line="38" id="ent0018"><polygon fill="#F1F1F1" points="233.5,572.2188,243.5,562.2188,406.3906,562.2188,406.3906,614.8125,396.3906,624.8125,233.5,624.8125,233.5,572.2188" style="stroke:#181818;stroke-width:0.5;"/><line style="stroke:#181818;stroke-width:0.5;" x1="396.3906" x2="406.3906" y1="572.2188" y2="562.2188"/><line style="stroke:#181818;stroke-width:0.5;" x1="233.5" x2="396.3906" y1="572.2188" y2="572.2188"/><line style="stroke:#181818;stroke-width:0.5;" x1="396.3906" x2="396.3906" y1="572.2188" y2="624.8125"/><text fill="#000000" font-family="sans-serif" font-size="14" font-style="italic" lengthAdjust="spacing" textLength="82.585" x="273.6528" y="595.2139">&#171;web server&#187;</text><text fill="#000000" font-family="sans-serif" font-size="14" lengthAdjust="spacing" textLength="132.8906" x="248.5" y="611.5107">stroom-auth-ui nginx</text></g><!--entity stroom_auth_service_dropwiz--><g class="entity" data-qualified-name="stroom estate.services_host.stroom_auth_service_container.stroom_auth_service_dropwiz" data-source-line="41" id="ent0020"><polygon fill="#F1F1F1" points="462.5,572.2188,472.5,562.2188,629.2178,562.2188,629.2178,614.8125,619.2178,624.8125,462.5,624.8125,462.5,572.2188" style="stroke:#181818;stroke-width:0.5;"/><line style="stroke:#181818;stroke-width:0.5;" x1="619.2178" x2="629.2178" y1="572.2188" y2="562.2188"/><line style="stroke:#181818;stroke-width:0.5;" x1="462.5" x2="619.2178" y1="572.2188" y2="572.2188"/><line style="stroke:#181818;stroke-width:0.5;" x1="619.2178" x2="619.2178" y1="572.2188" y2="624.8125"/><text fill="#000000" font-family="sans-serif" font-size="14" font-style="italic" lengthAdjust="spacing" textLength="66.2949" x="507.7114" y="595.2139">&#171;java app&#187;</text><text fill="#000000" font-family="sans-serif" font-size="14" lengthAdjust="spacing" textLength="126.7178" x="477.5" y="611.5107">stroom-auth-service</text></g><!--entity stroom_log_sender_script--><g class="entity" data-qualified-name="stroom estate.services_host.stroom_log_sender.stroom_log_sender_script" data-source-line="44" id="ent0022"><polygon fill="#F1F1F1" points="471.5,405.2188,481.5,395.2188,628.1484,395.2188,628.1484,447.8125,618.1484,457.8125,471.5,457.8125,471.5,405.2188" style="stroke:#181818;stroke-width:0.5;"/><line style="stroke:#181818;stroke-width:0.5;" x1="618.1484" x2="628.1484" y1="405.2188" y2="395.2188"/><line style="stroke:#181818;stroke-width:0.5;" x1="471.5" x2="618.1484" y1="405.2188" y2="405.2188"/><line style="stroke:#181818;stroke-width:0.5;" x1="618.1484" x2="618.1484" y1="405.2188" y2="457.8125"/><text fill="#000000" font-family="sans-serif" font-size="14" font-style="italic" lengthAdjust="spacing" textLength="48.583" x="520.5327" y="428.2139">&#171;script&#187;</text><text fill="#000000" font-family="sans-serif" font-size="14" lengthAdjust="spacing" textLength="116.6484" x="486.5" y="444.5107">stroom-log-sender</text></g><!--entity stroom_dropwiz_1--><g class="entity" data-qualified-name="stroom estate.stroom_host_1.stroom_dropwiz_1" data-source-line="61" id="ent0026"><polygon fill="#F1F1F1" points="930,572.2188,940,562.2188,1038.2949,562.2188,1038.2949,614.8125,1028.2949,624.8125,930,624.8125,930,572.2188" style="stroke:#181818;stroke-width:0.5;"/><line style="stroke:#181818;stroke-width:0.5;" x1="1028.2949" x2="1038.2949" y1="572.2188" y2="562.2188"/><line style="stroke:#181818;stroke-width:0.5;" x1="930" x2="1028.2949" y1="572.2188" y2="572.2188"/><line style="stroke:#181818;stroke-width:0.5;" x1="1028.2949" x2="1028.2949" y1="572.2188" y2="624.8125"/><text fill="#000000" font-family="sans-serif" font-size="14" font-style="italic" lengthAdjust="spacing" textLength="66.2949" x="946" y="595.2139">&#171;java app&#187;</text><text fill="#000000" font-family="sans-serif" font-size="14" lengthAdjust="spacing" textLength="56.6973" x="950.7988" y="611.5107">stroom 1</text></g><!--entity stroom_proxy_dropwiz_1--><g class="entity" data-qualified-name="stroom estate.stroom_host_1.stroom_proxy_dropwiz_1" data-source-line="62" id="ent0027"><polygon fill="#F1F1F1" points="717,572.2188,727,562.2188,895.209,562.2188,895.209,614.8125,885.209,624.8125,717,624.8125,717,572.2188" style="stroke:#181818;stroke-width:0.5;"/><line style="stroke:#181818;stroke-width:0.5;" x1="885.209" x2="895.209" y1="572.2188" y2="562.2188"/><line style="stroke:#181818;stroke-width:0.5;" x1="717" x2="885.209" y1="572.2188" y2="572.2188"/><line style="stroke:#181818;stroke-width:0.5;" x1="885.209" x2="885.209" y1="572.2188" y2="624.8125"/><text fill="#000000" font-family="sans-serif" font-size="14" font-style="italic" lengthAdjust="spacing" textLength="66.2949" x="767.957" y="595.2139">&#171;java app&#187;</text><text fill="#000000" font-family="sans-serif" font-size="14" lengthAdjust="spacing" textLength="138.209" x="732" y="611.5107">stroom-proxy (local) 1</text></g><!--entity stroom_dropwiz_2--><g class="entity" data-qualified-name="stroom estate.stroom_host_2.stroom_dropwiz_2" data-source-line="61" id="ent0035"><polygon fill="#F1F1F1" points="1307,572.2188,1317,562.2188,1415.2949,562.2188,1415.2949,614.8125,1405.2949,624.8125,1307,624.8125,1307,572.2188" style="stroke:#181818;stroke-width:0.5;"/><line style="stroke:#181818;stroke-width:0.5;" x1="1405.2949" x2="1415.2949" y1="572.2188" y2="562.2188"/><line style="stroke:#181818;stroke-width:0.5;" x1="1307" x2="1405.2949" y1="572.2188" y2="572.2188"/><line style="stroke:#181818;stroke-width:0.5;" x1="1405.2949" x2="1405.2949" y1="572.2188" y2="624.8125"/><text fill="#000000" font-family="sans-serif" font-size="14" font-style="italic" lengthAdjust="spacing" textLength="66.2949" x="1323" y="595.2139">&#171;java app&#187;</text><text fill="#000000" font-family="sans-serif" font-size="14" lengthAdjust="spacing" textLength="56.6973" x="1327.7988" y="611.5107">stroom 2</text></g><!--entity stroom_proxy_dropwiz_2--><g class="entity" data-qualified-name="stroom estate.stroom_host_2.stroom_proxy_dropwiz_2" data-source-line="62" id="ent0036"><polygon fill="#F1F1F1" points="1094,572.2188,1104,562.2188,1272.209,562.2188,1272.209,614.8125,1262.209,624.8125,1094,624.8125,1094,572.2188" style="stroke:#181818;stroke-width:0.5;"/><line style="stroke:#181818;stroke-width:0.5;" x1="1262.209" x2="1272.209" y1="572.2188" y2="562.2188"/><line style="stroke:#181818;stroke-width:0.5;" x1="1094" x2="1262.209" y1="572.2188" y2="572.2188"/><line style="stroke:#181818;stroke-width:0.5;" x1="1262.209" x2="1262.209" y1="572.2188" y2="624.8125"/><text fill="#000000" font-family="sans-serif" font-size="14" font-style="italic" lengthAdjust="spacing" textLength="66.2949" x="1144.957" y="595.2139">&#171;java app&#187;</text><text fill="#000000" font-family="sans-serif" font-size="14" lengthAdjust="spacing" textLength="138.209" x="1109" y="611.5107">stroom-proxy (local) 2</text></g><!--reverse link nginx to stroom_log_sender_script--><g class="link" data-entity-1="ent0016" data-entity-2="ent0022" data-link-type="dependency" data-source-line="47" id="lnk24"><path d="M420.65,426.7188 C439.59,426.7188 452.54,426.7188 471.49,426.7188" fill="none" id="nginx-backto-stroom_log_sender_script" style="stroke:#181818;stroke-width:1;"/><polygon fill="#181818" points="414.65,426.7188,423.65,430.7188,419.65,426.7188,423.65,422.7188,414.65,426.7188" style="stroke:#181818;stroke-width:1;"/></g><!--link stroom_dropwiz_1 to stroom_db--><g class="link" data-entity-1="ent0026" data-entity-2="ent0011" data-link-type="dependency" data-source-line="65" id="lnk28"><path d="M1009.81,625.4088 C1022.41,641.3688 1037.15,661.5988 1048,681.2188 C1073.59,727.4988 1092.0813,780.4279 1102.5113,813.4179" fill="none" id="stroom_dropwiz_1-to-stroom_db" style="stroke:#181818;stroke-width:1;"/><polygon fill="#181818" points="1104.32,819.1388,1105.4209,809.3516,1102.8128,814.3713,1097.793,811.7632,1104.32,819.1388" style="stroke:#181818;stroke-width:1;"/></g><!--link stroom_dropwiz_1 to stroom_stats_db--><g class="link" data-entity-1="ent0026" data-entity-2="ent0012" data-link-type="dependency" data-source-line="66" id="lnk29"><path d="M984,625.3688 C984,675.1788 984,766.7688 984,813.1088" fill="none" id="stroom_dropwiz_1-to-stroom_stats_db" style="stroke:#181818;stroke-width:1;"/><polygon fill="#181818" points="984,819.1088,988,810.1088,984,814.1088,980,810.1088,984,819.1088" style="stroke:#181818;stroke-width:1;"/></g><!--link stroom_dropwiz_1 to nginx--><g class="link" data-entity-1="ent0026" data-entity-2="ent0016" data-link-type="dependency" data-source-line="68" id="lnk30"><path d="M958.42,561.9388 C943.83,537.6588 924.44,505.4288 896,490.2188 C873.56,478.2188 462.64,488.5688 438,482.2188 C418.6,477.2188 403.97,471.0006 387.96,461.5006" fill="none" id="stroom_dropwiz_1-to-nginx" style="stroke:#181818;stroke-width:1;"/><polygon fill="#181818" points="382.8,458.4388,388.4987,466.4715,387.1,460.9903,392.5812,459.5915,382.8,458.4388" style="stroke:#181818;stroke-width:1;"/></g><!--link nginx to stroom_dropwiz_1--><g class="link" data-entity-1="ent0016" data-entity-2="ent0026" data-link-type="dependency" data-source-line="72" id="lnk32"><path d="M414.69,457.8588 C433.01,467.5688 453.21,477.1188 473,482.2188 C497.64,488.5688 908.56,478.2188 931,490.2188 C959.44,505.4288 977.0205,531.9381 984.7005,556.2181" fill="none" id="nginx-to-stroom_dropwiz_1" style="stroke:#181818;stroke-width:1;"/><polygon fill="#181818" points="986.51,561.9388,987.6095,552.1515,985.0021,557.1715,979.982,554.5641,986.51,561.9388" style="stroke:#181818;stroke-width:1;"/></g><!--link stroom_proxy_dropwiz_1 to nginx--><g class="link" data-entity-1="ent0027" data-entity-2="ent0016" data-link-type="dependency" data-source-line="69" id="lnk31"><path d="M756.86,562.2188 C722.54,537.7488 675.42,505.1188 628,490.2188 C587.68,477.5488 478.79,493.2588 438,482.2188 C418.86,477.0388 404.448,470.887 388.528,461.497" fill="none" id="stroom_proxy_dropwiz_1-to-nginx" style="stroke:#181818;stroke-width:1;"/><polygon fill="#181818" points="383.36,458.4488,389.0799,466.4664,387.6667,460.9889,393.1442,459.5757,383.36,458.4488" style="stroke:#181818;stroke-width:1;"/></g><!--link nginx to stroom_proxy_dropwiz_1--><g class="link" data-entity-1="ent0016" data-entity-2="ent0027" data-link-type="dependency" data-source-line="73" id="lnk33"><path d="M414.76,457.5888 C433.08,467.2688 453.28,476.8788 473,482.2188 C513.79,493.2588 622.68,477.5488 663,490.2188 C710.42,505.1188 753.0736,533.7424 780.3536,558.2124" fill="none" id="nginx-to-stroom_proxy_dropwiz_1" style="stroke:#181818;stroke-width:1;"/><polygon fill="#181818" points="784.82,562.2188,780.7913,553.2316,781.098,558.8801,775.4494,559.1868,784.82,562.2188" style="stroke:#181818;stroke-width:1;"/></g><!--link stroom_dropwiz_2 to stroom_db--><g class="link" data-entity-1="ent0035" data-entity-2="ent0011" data-link-type="dependency" data-source-line="65" id="lnk37"><path d="M1334.17,625.3588 C1321.08,640.0587 1304.96,657.7788 1290,673.2188 C1238.34,726.5387 1179.6027,782.0217 1144.1027,815.0517" fill="none" id="stroom_dropwiz_2-to-stroom_db" style="stroke:#181818;stroke-width:1;"/><polygon fill="#181818" points="1139.71,819.1388,1149.0238,815.9366,1143.3706,815.7329,1143.5743,810.0797,1139.71,819.1388" style="stroke:#181818;stroke-width:1;"/></g><!--link stroom_dropwiz_2 to stroom_stats_db--><g class="link" data-entity-1="ent0035" data-entity-2="ent0012" data-link-type="dependency" data-source-line="66" id="lnk38"><path d="M1342.37,625.3488 C1329.92,642.7688 1311.84,663.0888 1290,673.2188 C1265.59,684.5387 1069.97,665.6888 1048,681.2188 C1002.95,713.0688 990.2397,775.6419 986.2897,813.0719" fill="none" id="stroom_dropwiz_2-to-stroom_stats_db" style="stroke:#181818;stroke-width:1;"/><polygon fill="#181818" points="985.66,819.0387,990.5824,810.5082,986.1847,814.0664,982.6266,809.6687,985.66,819.0387" style="stroke:#181818;stroke-width:1;"/></g><!--link stroom_dropwiz_2 to nginx--><g class="link" data-entity-1="ent0035" data-entity-2="ent0016" data-link-type="dependency" data-source-line="68" id="lnk39"><path d="M1335.45,561.8788 C1320.88,537.5688 1301.5,505.3188 1273,490.2188 C1252.5,479.3588 460.49,487.9188 438,482.2188 C418.39,477.2488 403.5298,470.9277 387.4398,461.3077" fill="none" id="stroom_dropwiz_2-to-nginx" style="stroke:#181818;stroke-width:1;"/><polygon fill="#181818" points="382.29,458.2288,387.962,466.2804,386.5815,460.7946,392.0673,459.414,382.29,458.2288" style="stroke:#181818;stroke-width:1;"/></g><!--link nginx to stroom_dropwiz_2--><g class="link" data-entity-1="ent0016" data-entity-2="ent0035" data-link-type="dependency" data-source-line="72" id="lnk41"><path d="M414.66,457.9488 C432.98,467.6588 453.19,477.1988 473,482.2188 C495.49,487.9188 1287.5,479.3588 1308,490.2188 C1336.5,505.3188 1354.0747,531.8468 1361.7447,556.1568" fill="none" id="nginx-to-stroom_dropwiz_2" style="stroke:#181818;stroke-width:1;"/><polygon fill="#181818" points="1363.55,561.8788,1364.6567,552.0923,1362.0456,557.1105,1357.0274,554.4994,1363.55,561.8788" style="stroke:#181818;stroke-width:1;"/></g><!--link stroom_proxy_dropwiz_2 to nginx--><g class="link" data-entity-1="ent0036" data-entity-2="ent0016" data-link-type="dependency" data-source-line="69" id="lnk40"><path d="M1142.45,562.2088 C1115.01,537.5587 1077.55,504.6688 1037,490.2188 C1005.65,479.0488 470.25,490.4488 438,482.2188 C418.59,477.2588 403.9477,471.0544 387.9477,461.5444" fill="none" id="stroom_proxy_dropwiz_2-to-nginx" style="stroke:#181818;stroke-width:1;"/><polygon fill="#181818" points="382.79,458.4788,388.4828,466.5156,387.0881,461.0334,392.5703,459.6387,382.79,458.4788" style="stroke:#181818;stroke-width:1;"/></g><!--link nginx to stroom_proxy_dropwiz_2--><g class="link" data-entity-1="ent0016" data-entity-2="ent0036" data-link-type="dependency" data-source-line="73" id="lnk42"><path d="M414.67,457.8988 C432.99,467.6088 453.2,477.1588 473,482.2188 C505.25,490.4488 1040.65,479.0488 1072,490.2188 C1112.42,504.6288 1145.9352,532.7159 1166.3052,557.3359" fill="none" id="nginx-to-stroom_proxy_dropwiz_2" style="stroke:#181818;stroke-width:1;"/><polygon fill="#181818" points="1170.13,561.9588,1167.4747,552.4746,1166.9426,558.1064,1161.3109,557.5744,1170.13,561.9588" style="stroke:#181818;stroke-width:1;"/></g><!--link stroom_auth_service_dropwiz to stroom_auth_db--><g class="link" data-entity-1="ent0020" data-entity-2="ent0013" data-link-type="dependency" data-source-line="83" id="lnk43"><path d="M584.01,625.3688 C645.77,675.1788 762.1093,769.0026 819.5793,815.3426" fill="none" id="stroom_auth_service_dropwiz-to-stroom_auth_db" style="stroke:#181818;stroke-width:1;"/><polygon fill="#181818" points="824.25,819.1088,819.7547,810.3456,820.3577,815.9703,814.7331,816.5733,824.25,819.1088" style="stroke:#181818;stroke-width:1;"/></g><!--link ui_client_browser to nginx--><g class="link" data-entity-1="ent0005" data-entity-2="ent0016" data-link-type="dependency" data-source-line="86" id="lnk44"><path d="M352,197.4488 C352,247.2888 352,339.2088 352,389.0287" fill="none" id="ui_client_browser-to-nginx" style="stroke:#181818;stroke-width:1;"/><polygon fill="#181818" points="352,395.0287,356,386.0287,352,390.0287,348,386.0287,352,395.0287" style="stroke:#181818;stroke-width:1;"/></g><!--link dataload_client_app to nginx--><g class="link" data-entity-1="ent0003" data-entity-2="ent0016" data-link-type="dependency" data-source-line="87" id="lnk45"><path d="M167.8,197.4488 C208.02,247.2888 283.2616,340.5398 323.4716,390.3598" fill="none" id="dataload_client_app-to-nginx" style="stroke:#181818;stroke-width:1;"/><polygon fill="#181818" points="327.24,395.0287,324.7001,385.513,324.0997,391.1379,318.4748,390.5375,327.24,395.0287" style="stroke:#181818;stroke-width:1;"/></g><!--link remote_proxy to nginx--><g class="link" data-entity-1="ent0007" data-entity-2="ent0016" data-link-type="dependency" data-source-line="88" id="lnk46"><path d="M494.37,197.2787 C480.35,206.2888 466.23,217.0488 455,229.2188 C408.9,279.1788 379.467,348.0224 364.347,389.4524" fill="none" id="remote_proxy-to-nginx" style="stroke:#181818;stroke-width:1;"/><polygon fill="#181818" points="362.29,395.0888,369.1331,388.0055,364.0042,390.3918,361.6179,385.2628,362.29,395.0888" style="stroke:#181818;stroke-width:1;"/></g><!--link nginx to stroom_auth_ui_nginx--><g class="link" data-entity-1="ent0016" data-entity-2="ent0018" data-link-type="dependency" data-source-line="91" id="lnk47"><path d="M346.06,458.3688 C340.33,487.9088 332.8407,526.4782 327.1107,556.0682" fill="none" id="nginx-to-stroom_auth_ui_nginx" style="stroke:#181818;stroke-width:1;"/><polygon fill="#181818" points="325.97,561.9588,331.6081,553.8834,326.9206,557.0499,323.754,552.3624,325.97,561.9588" style="stroke:#181818;stroke-width:1;"/></g><!--link nginx to stroom_auth_service_dropwiz--><g class="link" data-entity-1="ent0016" data-entity-2="ent0020" data-link-type="dependency" data-source-line="92" id="lnk48"><path d="M388.04,458.3688 C422.77,487.9088 470.4801,528.4808 505.2601,558.0708" fill="none" id="nginx-to-stroom_auth_service_dropwiz" style="stroke:#181818;stroke-width:1;"/><polygon fill="#181818" points="509.83,561.9588,505.5671,553.0802,506.0218,558.7188,500.3832,559.1734,509.83,561.9588" style="stroke:#181818;stroke-width:1;"/></g><?plantuml-src fLVVRzis47wU_egh4ImDDYzeYxqCYO4b6Oe1BTRLAFeeqDBPvaoH6ad5yOhyxpkI-a7Pac9iUZ1atdtVVJmUZvJbLc02zDpUBgrMge2Y4fRFfSeH2lw4-Hmp9LLnW1nBeGu5Iki1jRj1_SWpDC0bFAXiXpgsCfd3nyFopm-W9AoOHlXZcI0DMXyuCJikIwPP0Hepo-H687nBljEgalczqXBrpGs5jupJws81RtzEdfF4YvizCClMY3baWfCes2fZPy0Cv6GGYkLfCAJE03StEJgXHFBDAmmalpqww0Q9dbcb1_6iB0bElu9dp78b5ujEnHTA0AN6xAmgEmaLFoVuLrp1IgizKHoXwb42xZkVEEndB9H5C3xDyrAhfqCNNNjZwaSd1SJm4-JGdBjLgh60nZABinwjMvaLCzXV4ZSoeiOzZKizfvG9aUOhGyx5mVmjUhxkCRHSRDCAyM5gQBvo8Me-4Zu2OzR4A3zm7fPLTXj3tVzHv7CIVgC4BPjDqoQesKOJ2OfoBpTSFdcSVqlRBGAzxT9FM0Xz1Aqhp8Nt1TONVHIsBXStstd5JnBWolTy8Nqow7GTKVu_cNLUJuZhyVyg-2NQNAjop_yXqh_O8mFQHsUA5cf3v3AlEqBDJQDf63rRvaj4gSaqBrsfXPUUlgIh-17ONE3QpXTXsU82VxMkPEOQ1boGKEeThoyaA_17kE3vLV3GQ2jDTZSEFpX36AS03JXmNS8dhJBCApeth6gwD0AhTVdj0tjkjo2ut1ddv4wSjIOR3yVKgxAbO7cUrXDoG1962KiRMTxvmXbI9-osaJ-B8EcCvZ60QlfEMFLXV6ESfWWzUvAexzAZI_gbS8GCwOe1lZIwEG_tdN6-Kwg1H0plWL7I-YnxBLJ6nDLuYDD4lRJPBg4zboYaH5zefZKFQfzJYRU7ojckpKaIXVxrq-_mdcftpmvHz9SPk_qLkmrCldFkedv6wfOqtP3IeKc7vkgmGmect4uLj7kutN11YLKRj5lgN5r57M_4sPlPrRZnRMryTXUGouUxtaIccc-q8lK1JVZxS5cCEKwlNLqoX-w2dRLtNOfMO2BpNIg7phaHyz7C4ef0Po7ThwmjVxc-BWMJjYh4JvaghhihzVVURiXXGosoMdbpunkzL49Sltj3d1rqIsrqhxcrAC7g2cDRGPy3sPPQBDBvvQSPMrSisstg-xjG6XvuyLxZ8NQv5yoOktFzbAPZ9_XytNABoqBj9YDQpQGXa_jGeJm9ljbQe0ei9b4VdDjPIYSy8wtkwsKjr1xrdUZdh-b2P_6spkFKoUMMKoF5ehG7AB1OqP8a_m80?></g></svg>