<?plantuml 1.2026.1?><svg xmlns="http://www.w3.org/2000/svg" xmlns:xlink="http://www.w3.org/1999/xlink" contentStyleType="text/css" data-diagram-type="DESCRIPTION" height="850px" preserveAspectRatio="none" style="width:925px;height:850px;background:#FFFFFF;" version="1.1" viewBox="0 0 925 850" width="925px" zoomAndPan="magnify"><title>==Stroom single-node deployment
All services running in docker containers</title><defs/><g><g class="title" data-source-line="2"><text fill="#000000" font-family="sans-serif" font-size="16" font-weight="bold" lengthAdjust="spacing" textLength="289.6016" x="310.6992" y="24.8516">Stroom single-node deployment</text><text fill="#000000" font-family="sans-serif" font-size="14" font-weight="bold" lengthAdjust="spacing" textLength="323.1143" x="293.9429" y="41.6201">All services running in docker containers</text></g><!--cluster dataload_client_host--><g class="cluster" data-qualified-name="dataload_client_host" data-source-line="13" id="ent0002"><polygon fill="none" points="75,71.9219,85,61.9219,311,61.9219,311,186.5219,301,196.5219,75,196.5219,75,71.9219" style="stroke:#181818;stroke-width:1;"/><line style="stroke:#181818;stroke-width:1;" x1="301" x2="311" y1="71.9219" y2="61.9219"/><line style="stroke:#181818;stroke-width:1;" x1="75" x2="301" y1="71.9219" y2="71.9219"/><line style="stroke:#181818;stroke-width:1;" x1="301" x2="301" y1="71.9219" y2="196.5219"/><text fill="#000000" font-family="sans-serif" font-size="14" font-style="italic" lengthAdjust="spacing" textLength="63.2666" x="157.3667" y="87.917">&#171;device&#187;</text><text fill="#000000" font-family="sans-serif" font-size="14" font-weight="bold" lengthAdjust="spacing" textLength="160.7197" x="108.6401" y="104.2139">Datafeed client host</text></g><!--cluster ui_client_host--><g class="cluster" data-qualified-name="ui_client_host" data-source-line="17" id="ent0004"><polygon fill="none" points="335,71.9219,345,61.9219,554,61.9219,554,186.5219,544,196.5219,335,196.5219,335,71.9219" style="stroke:#181818;stroke-width:1;"/><line style="stroke:#181818;stroke-width:1;" x1="544" x2="554" y1="71.9219" y2="61.9219"/><line style="stroke:#181818;stroke-width:1;" x1="335" x2="544" y1="71.9219" y2="71.9219"/><line style="stroke:#181818;stroke-width:1;" x1="544" x2="544" y1="71.9219" y2="196.5219"/><text fill="#000000" font-family="sans-serif" font-size="14" font-style="italic" lengthAdjust="spacing" textLength="63.2666" x="408.8667" y="87.917">&#171;device&#187;</text><text fill="#000000" font-family="sans-serif" font-size="14" font-weight="bold" lengthAdjust="spacing" textLength="143.9512" x="368.5244" y="104.2139">User desktop host</text></g><!--cluster remote_proxy_host--><g class="cluster" data-qualified-name="remote_proxy_host" data-source-line="21" id="ent0006"><polygon fill="none" points="578,71.9219,588,61.9219,865,61.9219,865,186.5219,855,196.5219,578,196.5219,578,71.9219" style="stroke:#181818;stroke-width:1;"/><line style="stroke:#181818;stroke-width:1;" x1="855" x2="865" y1="71.9219" y2="61.9219"/><line style="stroke:#181818;stroke-width:1;" x1="578" x2="855" y1="71.9219" y2="71.9219"/><line style="stroke:#181818;stroke-width:1;" x1="855" x2="855" y1="71.9219" y2="196.5219"/><text fill="#000000" font-family="sans-serif" font-size="14" font-style="italic" lengthAdjust="spacing" textLength="63.2666" x="685.8667" y="87.917">&#171;device&#187;</text><text fill="#000000" font-family="sans-serif" font-size="14" font-weight="bold" lengthAdjust="spacing" textLength="211.292" x="611.854" y="104.2139">Remote stroom-proxy host</text></g><!--cluster stroom_host--><g class="cluster" data-qualified-name="stroom_host" data-source-line="27" id="ent0008"><polygon fill="none" points="16,230.5219,26,220.5219,908,220.5219,908,823.3019,898,833.3019,16,833.3019,16,230.5219" style="stroke:#181818;stroke-width:1;"/><line style="stroke:#181818;stroke-width:1;" x1="898" x2="908" y1="230.5219" y2="220.5219"/><line style="stroke:#181818;stroke-width:1;" x1="16" x2="898" y1="230.5219" y2="230.5219"/><line style="stroke:#181818;stroke-width:1;" x1="898" x2="898" y1="230.5219" y2="833.3019"/><text fill="#000000" font-family="sans-serif" font-size="14" font-style="italic" lengthAdjust="spacing" textLength="63.2666" x="426.3667" y="246.517">&#171;device&#187;</text><text fill="#000000" font-family="sans-serif" font-size="14" font-weight="bold" lengthAdjust="spacing" textLength="95.2383" x="410.3809" y="262.8139">stroom host</text></g><!--cluster nginx_container--><g class="cluster" data-qualified-name="stroom_host.nginx_container" data-source-line="28" id="ent0009"><rect fill="none" height="129.59" rx="12.5" ry="12.5" style="stroke:#181818;stroke-width:1;" width="168" x="359" y="284.5219"/><text fill="#000000" font-family="sans-serif" font-size="14" font-style="italic" lengthAdjust="spacing" textLength="83.6172" x="401.1914" y="299.517">&#171;container&#187;</text><text fill="#000000" font-family="sans-serif" font-size="14" font-weight="bold" lengthAdjust="spacing" textLength="43.7842" x="421.1079" y="315.8139">nginx</text></g><!--cluster stroom_auth_ui_container--><g class="cluster" data-qualified-name="stroom_host.stroom_auth_ui_container" data-source-line="32" id="ent0011"><rect fill="none" height="129.6" rx="12.5" ry="12.5" style="stroke:#181818;stroke-width:1;" width="230" x="40" y="438.1119"/><text fill="#000000" font-family="sans-serif" font-size="14" font-style="italic" lengthAdjust="spacing" textLength="83.6172" x="113.1914" y="453.107">&#171;container&#187;</text><text fill="#000000" font-family="sans-serif" font-size="14" font-weight="bold" lengthAdjust="spacing" textLength="118.2139" x="95.8931" y="469.4039">stroom-auth-ui</text></g><!--cluster stroom_auth_service_container--><g class="cluster" data-qualified-name="stroom_host.stroom_auth_service_container" data-source-line="36" id="ent0013"><rect fill="none" height="129.6" rx="12.5" ry="12.5" style="stroke:#181818;stroke-width:1;" width="214" x="294" y="438.1119"/><text fill="#000000" font-family="sans-serif" font-size="14" font-style="italic" lengthAdjust="spacing" textLength="83.6172" x="359.1914" y="453.107">&#171;container&#187;</text><text fill="#000000" font-family="sans-serif" font-size="14" font-weight="bold" lengthAdjust="spacing" textLength="159.8994" x="321.0503" y="469.4039">stroom-auth-service</text></g><!--cluster stroom_container--><g class="cluster" data-qualified-name="stroom_host.stroom_container" data-source-line="40" id="ent0015"><rect fill="none" height="129.6" rx="12.5" ry="12.5" style="stroke:#181818;stroke-width:1;" width="152" x="532" y="438.1119"/><text fill="#000000" font-family="sans-serif" font-size="14" font-style="italic" lengthAdjust="spacing" textLength="83.6172" x="566.1914" y="453.107">&#171;container&#187;</text><text fill="#000000" font-family="sans-serif" font-size="14" font-weight="bold" lengthAdjust="spacing" textLength="55.7539" x="580.123" y="469.4039">stroom</text></g><!--cluster stroom_proxy_container--><g class="cluster" data-qualified-name="stroom_host.stroom_proxy_container" data-source-line="44" id="ent0017"><rect fill="none" height="129.6" rx="12.5" ry="12.5" style="stroke:#181818;stroke-width:1;" width="176" x="708" y="438.1119"/><text fill="#000000" font-family="sans-serif" font-size="14" font-style="italic" lengthAdjust="spacing" textLength="83.6172" x="754.1914" y="453.107">&#171;container&#187;</text><text fill="#000000" font-family="sans-serif" font-size="14" font-weight="bold" lengthAdjust="spacing" textLength="160.8975" x="715.5513" y="469.4039">stroom-proxy (local)</text></g><!--cluster stroom_log_sender--><g class="cluster" data-qualified-name="stroom_host.stroom_log_sender" data-source-line="48" id="ent0019"><rect fill="none" height="129.59" rx="12.5" ry="12.5" style="stroke:#181818;stroke-width:1;" width="200" x="551" y="284.5219"/><text fill="#000000" font-family="sans-serif" font-size="14" font-style="italic" lengthAdjust="spacing" textLength="83.6172" x="609.1914" y="299.517">&#171;container&#187;</text><text fill="#000000" font-family="sans-serif" font-size="14" font-weight="bold" lengthAdjust="spacing" textLength="146.0293" x="577.9854" y="315.8139">stroom-log-sender</text></g><!--cluster database_container--><g class="cluster" data-qualified-name="stroom_host.database_container" data-source-line="52" id="ent0021"><rect fill="none" height="217.59" rx="12.5" ry="12.5" style="stroke:#181818;stroke-width:1;" width="462" x="309" y="591.7119"/><text fill="#000000" font-family="sans-serif" font-size="14" font-style="italic" lengthAdjust="spacing" textLength="83.6172" x="498.1914" y="606.707">&#171;container&#187;</text><text fill="#000000" font-family="sans-serif" font-size="14" font-weight="bold" lengthAdjust="spacing" textLength="74.5049" x="502.7476" y="623.0039">Database</text></g><!--cluster stroom_all_dbs--><g class="cluster" data-qualified-name="stroom_host.database_container.stroom_all_dbs" data-source-line="53" id="ent0022"><path d="M333,660.7119 C333,650.7119 540,650.7119 540,650.7119 C540,650.7119 747,650.7119 747,660.7119 L747,775.3019 C747,785.3019 540,785.3019 540,785.3019 C540,785.3019 333,785.3019 333,775.3019 L333,660.7119" fill="none" style="stroke:#181818;stroke-width:1;"/><path d="M333,660.7119 C333,670.7119 540,670.7119 540,670.7119 C540,670.7119 747,670.7119 747,660.7119" fill="none" style="stroke:#181818;stroke-width:1;"/><text fill="#000000" font-family="sans-serif" font-size="14" font-style="italic" lengthAdjust="spacing" textLength="59.2744" x="510.3628" y="685.707">&#171;mysql&#187;</text><text fill="#000000" font-family="sans-serif" font-size="14" font-weight="bold" lengthAdjust="spacing" textLength="117.1748" x="481.4126" y="702.0039">stroom_all_dbs</text></g><!--entity dataload_client_app--><g class="entity" data-qualified-name="dataload_client_host.dataload_client_app" data-source-line="14" id="ent0003"><polygon fill="#F1F1F1" points="141.16,127.9219,151.16,117.9219,294.8485,117.9219,294.8485,170.5156,284.8485,180.5156,141.16,180.5156,141.16,127.9219" style="stroke:#181818;stroke-width:0.5;"/><line style="stroke:#181818;stroke-width:0.5;" x1="284.8485" x2="294.8485" y1="127.9219" y2="117.9219"/><line style="stroke:#181818;stroke-width:0.5;" x1="141.16" x2="284.8485" y1="127.9219" y2="127.9219"/><line style="stroke:#181818;stroke-width:0.5;" x1="284.8485" x2="284.8485" y1="127.9219" y2="180.5156"/><text fill="#000000" font-family="sans-serif" font-size="14" font-style="italic" lengthAdjust="spacing" textLength="94.5068" x="165.7508" y="150.917">&#171;application&#187;</text><text fill="#000000" font-family="sans-serif" font-size="14" lengthAdjust="spacing" textLength="113.6885" x="156.16" y="167.2139">Event generator</text></g><!--entity ui_client_browser--><g class="entity" data-qualified-name="ui_client_host.ui_client_browser" data-source-line="18" id="ent0005"><polygon fill="#F1F1F1" points="368.5,127.9219,378.5,117.9219,517.5029,117.9219,517.5029,170.5156,507.5029,180.5156,368.5,180.5156,368.5,127.9219" style="stroke:#181818;stroke-width:0.5;"/><line style="stroke:#181818;stroke-width:0.5;" x1="507.5029" x2="517.5029" y1="127.9219" y2="117.9219"/><line style="stroke:#181818;stroke-width:0.5;" x1="368.5" x2="507.5029" y1="127.9219" y2="127.9219"/><line style="stroke:#181818;stroke-width:0.5;" x1="507.5029" x2="507.5029" y1="127.9219" y2="180.5156"/><text fill="#000000" font-family="sans-serif" font-size="14" font-style="italic" lengthAdjust="spacing" textLength="107.0029" x="384.5" y="150.917">&#171;web browser&#187;</text><text fill="#000000" font-family="sans-serif" font-size="14" lengthAdjust="spacing" textLength="92.1143" x="391.9443" y="167.2139">Web browser</text></g><!--entity remote_proxy--><g class="entity" data-qualified-name="remote_proxy_host.remote_proxy" data-source-line="22" id="ent0007"><polygon fill="#F1F1F1" points="593.75,127.9219,603.75,117.9219,730.2568,117.9219,730.2568,170.5156,720.2568,180.5156,593.75,180.5156,593.75,127.9219" style="stroke:#181818;stroke-width:0.5;"/><line style="stroke:#181818;stroke-width:0.5;" x1="720.2568" x2="730.2568" y1="127.9219" y2="117.9219"/><line style="stroke:#181818;stroke-width:0.5;" x1="593.75" x2="720.2568" y1="127.9219" y2="127.9219"/><line style="stroke:#181818;stroke-width:0.5;" x1="720.2568" x2="720.2568" y1="127.9219" y2="180.5156"/><text fill="#000000" font-family="sans-serif" font-size="14" font-style="italic" lengthAdjust="spacing" textLength="94.5068" x="609.75" y="150.917">&#171;application&#187;</text><text fill="#000000" font-family="sans-serif" font-size="14" lengthAdjust="spacing" textLength="94.1377" x="609.9346" y="167.2139">stroom-proxy</text></g><!--entity nginx--><g class="entity" data-qualified-name="stroom_host.nginx_container.nginx" data-source-line="29" id="ent0010"><polygon fill="#F1F1F1" points="374.5,345.5219,384.5,335.5219,511.499,335.5219,511.499,388.1156,501.499,398.1156,374.5,398.1156,374.5,345.5219" style="stroke:#181818;stroke-width:0.5;"/><line style="stroke:#181818;stroke-width:0.5;" x1="501.499" x2="511.499" y1="345.5219" y2="335.5219"/><line style="stroke:#181818;stroke-width:0.5;" x1="374.5" x2="501.499" y1="345.5219" y2="345.5219"/><line style="stroke:#181818;stroke-width:0.5;" x1="501.499" x2="501.499" y1="345.5219" y2="398.1156"/><text fill="#000000" font-family="sans-serif" font-size="14" font-style="italic" lengthAdjust="spacing" textLength="94.999" x="390.5" y="368.517">&#171;web server&#187;</text><text fill="#000000" font-family="sans-serif" font-size="14" lengthAdjust="spacing" textLength="38.8076" x="418.5957" y="384.8139">nginx</text></g><!--entity stroom_auth_ui_nginx--><g class="entity" data-qualified-name="stroom_host.stroom_auth_ui_container.stroom_auth_ui_nginx" data-source-line="33" id="ent0012"><polygon fill="#F1F1F1" points="55.92,499.1119,65.92,489.1119,254.0899,489.1119,254.0899,541.7056,244.0899,551.7056,55.92,551.7056,55.92,499.1119" style="stroke:#181818;stroke-width:0.5;"/><line style="stroke:#181818;stroke-width:0.5;" x1="244.0899" x2="254.0899" y1="499.1119" y2="489.1119"/><line style="stroke:#181818;stroke-width:0.5;" x1="55.92" x2="244.0899" y1="499.1119" y2="499.1119"/><line style="stroke:#181818;stroke-width:0.5;" x1="244.0899" x2="244.0899" y1="499.1119" y2="551.7056"/><text fill="#000000" font-family="sans-serif" font-size="14" font-style="italic" lengthAdjust="spacing" textLength="94.999" x="102.5054" y="522.107">&#171;web server&#187;</text><text fill="#000000" font-family="sans-serif" font-size="14" lengthAdjust="spacing" textLength="158.1699" x="70.92" y="538.4039">stroom-auth-ui (nginx)</text></g><!--entity stroom_auth_service_dropwiz--><g class="entity" data-qualified-name="stroom_host.stroom_auth_service_container.stroom_auth_service_dropwiz" data-source-line="37" id="ent0014"><polygon fill="#F1F1F1" points="310.31,499.1119,320.31,489.1119,491.684,489.1119,491.684,541.7056,481.684,551.7056,310.31,551.7056,310.31,499.1119" style="stroke:#181818;stroke-width:0.5;"/><line style="stroke:#181818;stroke-width:0.5;" x1="481.684" x2="491.684" y1="499.1119" y2="489.1119"/><line style="stroke:#181818;stroke-width:0.5;" x1="310.31" x2="481.684" y1="499.1119" y2="499.1119"/><line style="stroke:#181818;stroke-width:0.5;" x1="481.684" x2="481.684" y1="499.1119" y2="551.7056"/><text fill="#000000" font-family="sans-serif" font-size="14" font-style="italic" lengthAdjust="spacing" textLength="77.417" x="357.2885" y="522.107">&#171;java app&#187;</text><text fill="#000000" font-family="sans-serif" font-size="14" lengthAdjust="spacing" textLength="141.374" x="325.31" y="538.4039">stroom-auth-service</text></g><!--entity stroom_dropwiz--><g class="entity" data-qualified-name="stroom_host.stroom_container.stroom_dropwiz" data-source-line="41" id="ent0016"><polygon fill="#F1F1F1" points="548.29,499.1119,558.29,489.1119,667.707,489.1119,667.707,541.7056,657.707,551.7056,548.29,551.7056,548.29,499.1119" style="stroke:#181818;stroke-width:0.5;"/><line style="stroke:#181818;stroke-width:0.5;" x1="657.707" x2="667.707" y1="499.1119" y2="489.1119"/><line style="stroke:#181818;stroke-width:0.5;" x1="548.29" x2="657.707" y1="499.1119" y2="499.1119"/><line style="stroke:#181818;stroke-width:0.5;" x1="657.707" x2="657.707" y1="499.1119" y2="551.7056"/><text fill="#000000" font-family="sans-serif" font-size="14" font-style="italic" lengthAdjust="spacing" textLength="77.417" x="564.29" y="522.107">&#171;java app&#187;</text><text fill="#000000" font-family="sans-serif" font-size="14" lengthAdjust="spacing" textLength="49.3076" x="578.3447" y="538.4039">stroom</text></g><!--entity stroom_proxy_dropwiz--><g class="entity" data-qualified-name="stroom_host.stroom_proxy_container.stroom_proxy_dropwiz" data-source-line="45" id="ent0018"><polygon fill="#F1F1F1" points="723.93,499.1119,733.93,489.1119,858.0677,489.1119,858.0677,541.7056,848.0677,551.7056,723.93,551.7056,723.93,499.1119" style="stroke:#181818;stroke-width:0.5;"/><line style="stroke:#181818;stroke-width:0.5;" x1="848.0677" x2="858.0677" y1="499.1119" y2="489.1119"/><line style="stroke:#181818;stroke-width:0.5;" x1="723.93" x2="848.0677" y1="499.1119" y2="499.1119"/><line style="stroke:#181818;stroke-width:0.5;" x1="848.0677" x2="848.0677" y1="499.1119" y2="551.7056"/><text fill="#000000" font-family="sans-serif" font-size="14" font-style="italic" lengthAdjust="spacing" textLength="77.417" x="747.2904" y="522.107">&#171;java app&#187;</text><text fill="#000000" font-family="sans-serif" font-size="14" lengthAdjust="spacing" textLength="94.1377" x="738.93" y="538.4039">stroom-proxy</text></g><!--entity stroom_log_sender_script--><g class="entity" data-qualified-name="stroom_host.stroom_log_sender.stroom_log_sender_script" data-source-line="49" id="ent0020"><polygon fill="#F1F1F1" points="566.61,345.5219,576.61,335.5219,735.3991,335.5219,735.3991,388.1156,725.3991,398.1156,566.61,398.1156,566.61,345.5219" style="stroke:#181818;stroke-width:0.5;"/><line style="stroke:#181818;stroke-width:0.5;" x1="725.3991" x2="735.3991" y1="345.5219" y2="335.5219"/><line style="stroke:#181818;stroke-width:0.5;" x1="566.61" x2="725.3991" y1="345.5219" y2="345.5219"/><line style="stroke:#181818;stroke-width:0.5;" x1="725.3991" x2="725.3991" y1="345.5219" y2="398.1156"/><text fill="#000000" font-family="sans-serif" font-size="14" font-style="italic" lengthAdjust="spacing" textLength="56.2939" x="617.8576" y="368.517">&#171;script&#187;</text><text fill="#000000" font-family="sans-serif" font-size="14" lengthAdjust="spacing" textLength="128.7891" x="581.61" y="384.8139">stroom-log-sender</text></g><!--entity stroom_db--><g class="entity" data-qualified-name="stroom_host.database_container.stroom_all_dbs.stroom_db" data-source-line="54" id="ent0023"><rect fill="#F1F1F1" height="52.5938" rx="35" ry="35" style="stroke:#181818;stroke-width:0.5;" width="104.1885" x="626.91" y="716.7119"/><text fill="#000000" font-family="sans-serif" font-size="14" font-style="italic" lengthAdjust="spacing" textLength="82.1885" x="637.91" y="739.707">&#171;database&#187;</text><text fill="#000000" font-family="sans-serif" font-size="14" lengthAdjust="spacing" textLength="49.3076" x="654.3504" y="756.0039">stroom</text></g><!--entity stroom_stats_db--><g class="entity" data-qualified-name="stroom_host.database_container.stroom_all_dbs.stroom_stats_db" data-source-line="55" id="ent0024"><rect fill="#F1F1F1" height="52.5938" rx="35" ry="35" style="stroke:#181818;stroke-width:0.5;" width="104.1885" x="487.91" y="716.7119"/><text fill="#000000" font-family="sans-serif" font-size="14" font-style="italic" lengthAdjust="spacing" textLength="82.1885" x="498.91" y="739.707">&#171;database&#187;</text><text fill="#000000" font-family="sans-serif" font-size="14" lengthAdjust="spacing" textLength="34.1455" x="522.9315" y="756.0039">stats</text></g><!--entity stroom_auth_db--><g class="entity" data-qualified-name="stroom_host.database_container.stroom_all_dbs.stroom_auth_db" data-source-line="56" id="ent0025"><rect fill="#F1F1F1" height="52.5938" rx="35" ry="35" style="stroke:#181818;stroke-width:0.5;" width="104.1885" x="348.91" y="716.7119"/><text fill="#000000" font-family="sans-serif" font-size="14" font-style="italic" lengthAdjust="spacing" textLength="82.1885" x="359.91" y="739.707">&#171;database&#187;</text><text fill="#000000" font-family="sans-serif" font-size="14" lengthAdjust="spacing" textLength="31.8145" x="385.097" y="756.0039">auth</text></g><!--link stroom_auth_service_dropwiz to stroom_auth_db--><g class="link" data-entity-1="ent0014" data-entity-2="ent0025" data-link-type="dependency" data-source-line="61" id="lnk26"><path d="M401,552.0819 C401,595.8819 401,669.5619 401,710.3919" fill="none" id="stroom_auth_service_dropwiz-to-stroom_auth_db" style="stroke:#181818;stroke-width:1;"/><polygon fill="#181818" points="401,716.3919,405,707.3919,401,711.3919,397,707.3919,401,716.3919" style="stroke:#181818;stroke-width:1;"/></g><!--link stroom_dropwiz to stroom_db--><g class="link" data-entity-1="ent0016" data-entity-2="ent0023" data-link-type="dependency" data-source-line="62" id="lnk27"><path d="M617.87,552.0819 C631.97,595.8819 655.7819,669.8504 668.9219,710.6804" fill="none" id="stroom_dropwiz-to-stroom_db" style="stroke:#181818;stroke-width:1;"/><polygon fill="#181818" points="670.76,716.3919,671.8105,706.5992,669.2283,711.6323,664.1952,709.05,670.76,716.3919" style="stroke:#181818;stroke-width:1;"/></g><!--link stroom_dropwiz to stroom_stats_db--><g class="link" data-entity-1="ent0016" data-entity-2="ent0024" data-link-type="dependency" data-source-line="63" id="lnk28"><path d="M598.54,552.0819 C585.04,595.8819 562.2467,669.8279 549.6667,710.6579" fill="none" id="stroom_dropwiz-to-stroom_stats_db" style="stroke:#181818;stroke-width:1;"/><polygon fill="#181818" points="547.9,716.3919,554.3727,708.9687,549.3722,711.6135,546.7274,706.6131,547.9,716.3919" style="stroke:#181818;stroke-width:1;"/></g><!--link stroom_dropwiz to nginx--><g class="link" data-entity-1="ent0016" data-entity-2="ent0010" data-link-type="dependency" data-source-line="66" id="lnk29"><path d="M563.88,488.7819 C532.14,462.4919 495.2875,429.0987 469.7775,402.7987" fill="none" id="stroom_dropwiz-to-nginx" style="stroke:#181818;stroke-width:1;"/><polygon fill="#181818" points="465.6,398.4919,468.995,407.7371,469.0812,402.0809,474.7374,402.1671,465.6,398.4919" style="stroke:#181818;stroke-width:1;"/></g><!--link nginx to stroom_dropwiz--><g class="link" data-entity-1="ent0010" data-entity-2="ent0016" data-link-type="dependency" data-source-line="74" id="lnk36"><path d="M487.18,398.4919 C518.92,424.7919 555.7734,458.1842 581.2634,484.4742" fill="none" id="nginx-to-stroom_dropwiz" style="stroke:#181818;stroke-width:1;"/><polygon fill="#181818" points="585.44,488.7819,582.0469,479.536,581.9595,485.1921,576.3033,485.1048,585.44,488.7819" style="stroke:#181818;stroke-width:1;"/></g><!--link stroom_proxy_dropwiz to nginx--><g class="link" data-entity-1="ent0018" data-entity-2="ent0010" data-link-type="dependency" data-source-line="67" id="lnk30"><path d="M749.76,488.7219 C727.03,468.1419 697.99,442.6119 666.5,430.1119 C638.98,419.1919 562.09,429.8119 533.5,422.1119 C513.84,416.8219 498.8269,410.6523 482.1869,401.4223" fill="none" id="stroom_proxy_dropwiz-to-nginx" style="stroke:#181818;stroke-width:1;"/><polygon fill="#181818" points="476.94,398.5119,482.8701,406.3754,481.3124,400.9372,486.7506,399.3795,476.94,398.5119" style="stroke:#181818;stroke-width:1;"/></g><!--link nginx to stroom_proxy_dropwiz--><g class="link" data-entity-1="ent0010" data-entity-2="ent0018" data-link-type="dependency" data-source-line="75" id="lnk37"><path d="M510.03,398.5119 C528.58,407.7419 548.84,416.8219 568.5,422.1119 C597.09,429.8119 673.98,419.1919 701.5,430.1119 C732.99,442.6119 758.2088,463.516 775.2088,484.096" fill="none" id="nginx-to-stroom_proxy_dropwiz" style="stroke:#181818;stroke-width:1;"/><polygon fill="#181818" points="779.03,488.7219,776.3822,479.2356,775.8457,484.867,770.2143,484.3305,779.03,488.7219" style="stroke:#181818;stroke-width:1;"/></g><!--link stroom_auth_service_dropwiz to nginx--><g class="link" data-entity-1="ent0014" data-entity-2="ent0010" data-link-type="dependency" data-source-line="68" id="lnk31"><path d="M398.7,488.7819 C402.87,462.4919 411.1036,430.3715 421.5036,404.0715" fill="none" id="stroom_auth_service_dropwiz-to-nginx" style="stroke:#181818;stroke-width:1;"/><polygon fill="#181818" points="423.71,398.4919,416.6807,405.3903,421.8713,403.1415,424.1202,408.3322,423.71,398.4919" style="stroke:#181818;stroke-width:1;"/></g><!--link nginx to stroom_auth_service_dropwiz--><g class="link" data-entity-1="ent0010" data-entity-2="ent0014" data-link-type="dependency" data-source-line="73" id="lnk35"><path d="M445.29,398.4919 C441.12,424.7919 432.8771,456.9126 422.4771,483.2026" fill="none" id="nginx-to-stroom_auth_service_dropwiz" style="stroke:#181818;stroke-width:1;"/><polygon fill="#181818" points="420.27,488.7819,427.3002,481.8843,422.1093,484.1325,419.8611,478.9415,420.27,488.7819" style="stroke:#181818;stroke-width:1;"/></g><!--reverse link nginx to stroom_log_sender_script--><g class="link" data-entity-1="ent0010" data-entity-2="ent0020" data-link-type="dependency" data-source-line="69" id="lnk33"><path d="M517.66,366.8219 C535.89,366.8219 548.13,366.8219 566.36,366.8219" fill="none" id="nginx-backto-stroom_log_sender_script" style="stroke:#181818;stroke-width:1;"/><polygon fill="#181818" points="511.66,366.8219,520.66,370.8219,516.66,366.8219,520.66,362.8219,511.66,366.8219" style="stroke:#181818;stroke-width:1;"/></g><!--link nginx to stroom_auth_ui_nginx--><g class="link" data-entity-1="ent0010" data-entity-2="ent0012" data-link-type="dependency" data-source-line="72" id="lnk34"><path d="M374.35,393.5919 C348.68,403.9819 319.57,416.6919 294,430.1119 C260.86,447.5119 230.3514,467.0077 203.5314,485.2477" fill="none" id="nginx-to-stroom_auth_ui_nginx" style="stroke:#181818;stroke-width:1;"/><polygon fill="#181818" points="198.57,488.6219,208.2615,486.8682,202.7045,485.8101,203.7626,480.2531,198.57,488.6219" style="stroke:#181818;stroke-width:1;"/></g><!--link ui_client_browser to nginx--><g class="link" data-entity-1="ent0005" data-entity-2="ent0010" data-link-type="dependency" data-source-line="79" id="lnk38"><path d="M443,180.6519 C443,221.6319 443,288.1219 443,329.1919" fill="none" id="ui_client_browser-to-nginx" style="stroke:#181818;stroke-width:1;"/><polygon fill="#181818" points="443,335.1919,447,326.1919,443,330.1919,439,326.1919,443,335.1919" style="stroke:#181818;stroke-width:1;"/></g><!--link dataload_client_app to nginx--><g class="link" data-entity-1="ent0003" data-entity-2="ent0010" data-link-type="dependency" data-source-line="80" id="lnk39"><path d="M249.76,180.6519 C292.52,221.6319 363.8374,289.9712 406.7074,331.0412" fill="none" id="dataload_client_app-to-nginx" style="stroke:#181818;stroke-width:1;"/><polygon fill="#181818" points="411.04,335.1919,407.3082,326.0774,407.4295,331.733,401.7739,331.8542,411.04,335.1919" style="stroke:#181818;stroke-width:1;"/></g><!--link remote_proxy to nginx--><g class="link" data-entity-1="ent0007" data-entity-2="ent0010" data-link-type="dependency" data-source-line="81" id="lnk40"><path d="M595.93,180.9419 C580.28,189.8919 564.29,200.5319 551,212.5219 C511.12,248.5119 480.7222,296.5572 462.0522,329.8872" fill="none" id="remote_proxy-to-nginx" style="stroke:#181818;stroke-width:1;"/><polygon fill="#181818" points="459.12,335.1219,467.0082,329.2247,461.5635,330.7596,460.0286,325.315,459.12,335.1219" style="stroke:#181818;stroke-width:1;"/></g><?plantuml-src dLOxRzim49whNt7madJGKg2ROo1DEdGB4XGT1LgaRTOqgP2q7JV8V-_nOObw-H4DXdLtttSVZyUZBBU2PO3FtTsBrKfjm72v52oNYZAWh1Bgi67I-fXx8S0mlUCbCw2tKc8eS0bKbMkceLJI4YwPDXcJ5ApdpcwGPO5M863iGJ1OA0rsnT9mi-Qo8ffiGBFI4YS0thClMcqbVL0QOwRJEdmsWs_Vim_7_20uQeELCjPaNl7aaLYoO8n2sVWcG0nGT0X5Q14SXNF0T4gPMmvollib1fAVEmTTCin6hDA3U59L2CTVmKjYkPApcHCL27vZcN3TPcrLrKZOyakI_s5pc6krHueEAbeHk6zYqhJFRACimpgxdSmhhTuEJNRjdOMtdXIGmdl8eJNZJhpuhecPFK-MaZKgmlj8_cRt9tB9vPj7-7z5lVtGQeM0QxHtOB5KhcbzfLmW2kxaYWicMxlAjpoLwKo5su3BihU9uDPh-3f4-4bryVJr6AFzCphFKLAjgZt_XuH_oOu0RluPfIdJLNfIuDLPOxVV2bKIqIfvQFZhAjFqVelaUbL2BR72aiQp7DdGMWJhHMhEaHIcrBnovody6HNbXkES65OFDFTolZJ7oBe_X2Zet63uvc1UHNryZu_1cKcMm_iwTwS-yaMT0p1YJOhoXikmhdTxlJo6_4ZhTFFumzr94ik5ayraWNRyGEJvh9CaXGn4dGquBZFgWVkdNu3TBCmOpa-HrDbkqy6GqRNq8liDbWksi7LeKFdCS7XXRuJprorWc7FTKXq7u8cGZiBXo9FELYtyzqByN4WrzY_NfXH3DtxZRLsAZVa_?></g></svg>