<?plantuml 1.2026.1?><svg xmlns="http://www.w3.org/2000/svg" xmlns:xlink="http://www.w3.org/1999/xlink" contentStyleType="text/css" data-diagram-type="DESCRIPTION" height="940px" preserveAspectRatio="none" style="width:1575px;height:940px;background:#FFFFFF;" version="1.1" viewBox="0 0 1575 940" width="1575px" zoomAndPan="magnify"><title>==Stroom multi-node mixed-economy deployment
Stroom services in Docker
Stroom and MySQL on bare OS</title><defs/><g><g class="title" data-source-line="2"><text fill="#000000" font-family="sans-serif" font-size="16" font-weight="bold" lengthAdjust="spacing" textLength="429.8984" x="565.5508" y="24.8516">Stroom multi-node mixed-economy deployment</text><text fill="#000000" font-family="sans-serif" font-size="14" font-weight="bold" lengthAdjust="spacing" textLength="206.9238" x="677.0381" y="41.6201">Stroom services in Docker</text><text fill="#000000" font-family="sans-serif" font-size="14" font-weight="bold" lengthAdjust="spacing" textLength="242.71" x="659.145" y="57.917">Stroom and MySQL on bare OS</text></g><!--cluster dataload_client_host--><g class="cluster" data-qualified-name="dataload_client_host" data-source-line="12" id="ent0002"><polygon fill="none" points="16,88.2188,26,78.2188,252,78.2188,252,202.8188,242,212.8188,16,212.8188,16,88.2188" style="stroke:#181818;stroke-width:1;"/><line style="stroke:#181818;stroke-width:1;" x1="242" x2="252" y1="88.2188" y2="78.2188"/><line style="stroke:#181818;stroke-width:1;" x1="16" x2="242" y1="88.2188" y2="88.2188"/><line style="stroke:#181818;stroke-width:1;" x1="242" x2="242" y1="88.2188" y2="212.8188"/><text fill="#000000" font-family="sans-serif" font-size="14" font-style="italic" lengthAdjust="spacing" textLength="63.2666" x="98.3667" y="104.2139">&#171;device&#187;</text><text fill="#000000" font-family="sans-serif" font-size="14" font-weight="bold" lengthAdjust="spacing" textLength="160.7197" x="49.6401" y="120.5107">Datafeed client host</text></g><!--cluster ui_client_host--><g class="cluster" data-qualified-name="ui_client_host" data-source-line="16" id="ent0004"><polygon fill="none" points="276,88.2188,286,78.2188,495,78.2188,495,202.8188,485,212.8188,276,212.8188,276,88.2188" style="stroke:#181818;stroke-width:1;"/><line style="stroke:#181818;stroke-width:1;" x1="485" x2="495" y1="88.2188" y2="78.2188"/><line style="stroke:#181818;stroke-width:1;" x1="276" x2="485" y1="88.2188" y2="88.2188"/><line style="stroke:#181818;stroke-width:1;" x1="485" x2="485" y1="88.2188" y2="212.8188"/><text fill="#000000" font-family="sans-serif" font-size="14" font-style="italic" lengthAdjust="spacing" textLength="63.2666" x="349.8667" y="104.2139">&#171;device&#187;</text><text fill="#000000" font-family="sans-serif" font-size="14" font-weight="bold" lengthAdjust="spacing" textLength="143.9512" x="309.5244" y="120.5107">User desktop host</text></g><!--cluster remote_proxy_host--><g class="cluster" data-qualified-name="remote_proxy_host" data-source-line="20" id="ent0006"><polygon fill="none" points="519,88.2188,529,78.2188,806,78.2188,806,202.8188,796,212.8188,519,212.8188,519,88.2188" style="stroke:#181818;stroke-width:1;"/><line style="stroke:#181818;stroke-width:1;" x1="796" x2="806" y1="88.2188" y2="78.2188"/><line style="stroke:#181818;stroke-width:1;" x1="519" x2="796" y1="88.2188" y2="88.2188"/><line style="stroke:#181818;stroke-width:1;" x1="796" x2="796" y1="88.2188" y2="212.8188"/><text fill="#000000" font-family="sans-serif" font-size="14" font-style="italic" lengthAdjust="spacing" textLength="63.2666" x="626.8667" y="104.2139">&#171;device&#187;</text><text fill="#000000" font-family="sans-serif" font-size="14" font-weight="bold" lengthAdjust="spacing" textLength="211.292" x="552.854" y="120.5107">Remote stroom-proxy host</text></g><!--cluster stroom estate--><g class="cluster" data-qualified-name="stroom estate" data-source-line="24" id="ent0008"><rect fill="none" height="697.78" rx="2.5" ry="2.5" style="stroke:#181818;stroke-width:1;" width="1382" x="187" y="236.8188"/><text fill="#000000" font-family="sans-serif" font-size="14" font-weight="bold" lengthAdjust="spacing" textLength="110.7832" x="822.6084" y="251.8139">stroom estate</text></g><!--cluster database_host--><g class="cluster" data-qualified-name="stroom estate.database_host" data-source-line="25" id="ent0009"><polygon fill="none" points="594,698.0088,604,688.0088,1056,688.0088,1056,900.5988,1046,910.5988,594,910.5988,594,698.0088" style="stroke:#181818;stroke-width:1;"/><line style="stroke:#181818;stroke-width:1;" x1="1046" x2="1056" y1="698.0088" y2="688.0088"/><line style="stroke:#181818;stroke-width:1;" x1="594" x2="1046" y1="698.0088" y2="698.0088"/><line style="stroke:#181818;stroke-width:1;" x1="1046" x2="1046" y1="698.0088" y2="910.5988"/><text fill="#000000" font-family="sans-serif" font-size="14" font-style="italic" lengthAdjust="spacing" textLength="63.2666" x="789.3667" y="714.0039">&#171;device&#187;</text><text fill="#000000" font-family="sans-serif" font-size="14" font-weight="bold" lengthAdjust="spacing" textLength="113.9893" x="764.0054" y="730.3007">Database host</text></g><!--cluster stroom_all_dbs--><g class="cluster" data-qualified-name="stroom estate.database_host.stroom_all_dbs" data-source-line="26" id="ent0010"><path d="M618,762.0088 C618,752.0088 825,752.0088 825,752.0088 C825,752.0088 1032,752.0088 1032,762.0088 L1032,876.5988 C1032,886.5988 825,886.5988 825,886.5988 C825,886.5988 618,886.5988 618,876.5988 L618,762.0088" fill="none" style="stroke:#181818;stroke-width:1;"/><path d="M618,762.0088 C618,772.0088 825,772.0088 825,772.0088 C825,772.0088 1032,772.0088 1032,762.0088" fill="none" style="stroke:#181818;stroke-width:1;"/><text fill="#000000" font-family="sans-serif" font-size="14" font-style="italic" lengthAdjust="spacing" textLength="59.2744" x="795.3628" y="787.0039">&#171;mysql&#187;</text><text fill="#000000" font-family="sans-serif" font-size="14" font-weight="bold" lengthAdjust="spacing" textLength="117.1748" x="766.4126" y="803.3007">stroom_all_dbs</text></g><!--cluster services_host--><g class="cluster" data-qualified-name="stroom estate.services_host" data-source-line="33" id="ent0014"><polygon fill="none" points="211,289.8188,221,279.8188,717,279.8188,717,654.0088,707,664.0088,211,664.0088,211,289.8188" style="stroke:#181818;stroke-width:1;"/><line style="stroke:#181818;stroke-width:1;" x1="707" x2="717" y1="289.8188" y2="279.8188"/><line style="stroke:#181818;stroke-width:1;" x1="211" x2="707" y1="289.8188" y2="289.8188"/><line style="stroke:#181818;stroke-width:1;" x1="707" x2="707" y1="289.8188" y2="664.0088"/><text fill="#000000" font-family="sans-serif" font-size="14" font-style="italic" lengthAdjust="spacing" textLength="63.2666" x="428.3667" y="305.8139">&#171;device&#187;</text><text fill="#000000" font-family="sans-serif" font-size="14" font-weight="bold" lengthAdjust="spacing" textLength="106.0186" x="406.9907" y="322.1107">Services host</text></g><!--cluster nginx_container--><g class="cluster" data-qualified-name="stroom estate.services_host.nginx_container" data-source-line="34" id="ent0015"><rect fill="none" height="129.59" rx="12.5" ry="12.5" style="stroke:#181818;stroke-width:1;" width="168" x="301" y="343.8188"/><text fill="#000000" font-family="sans-serif" font-size="14" font-style="italic" lengthAdjust="spacing" textLength="83.6172" x="343.1914" y="358.8139">&#171;container&#187;</text><text fill="#000000" font-family="sans-serif" font-size="14" font-weight="bold" lengthAdjust="spacing" textLength="43.7842" x="363.1079" y="375.1107">nginx</text></g><!--cluster stroom_auth_ui_container--><g class="cluster" data-qualified-name="stroom estate.services_host.stroom_auth_ui_container" data-source-line="37" id="ent0017"><rect fill="none" height="129.6" rx="12.5" ry="12.5" style="stroke:#181818;stroke-width:1;" width="220" x="235" y="510.4088"/><text fill="#000000" font-family="sans-serif" font-size="14" font-style="italic" lengthAdjust="spacing" textLength="83.6172" x="303.1914" y="525.4039">&#171;container&#187;</text><text fill="#000000" font-family="sans-serif" font-size="14" font-weight="bold" lengthAdjust="spacing" textLength="118.2139" x="285.8931" y="541.7007">stroom-auth-ui</text></g><!--cluster stroom_auth_service_container--><g class="cluster" data-qualified-name="stroom estate.services_host.stroom_auth_service_container" data-source-line="40" id="ent0019"><rect fill="none" height="129.6" rx="12.5" ry="12.5" style="stroke:#181818;stroke-width:1;" width="214" x="479" y="510.4088"/><text fill="#000000" font-family="sans-serif" font-size="14" font-style="italic" lengthAdjust="spacing" textLength="83.6172" x="544.1914" y="525.4039">&#171;container&#187;</text><text fill="#000000" font-family="sans-serif" font-size="14" font-weight="bold" lengthAdjust="spacing" textLength="159.8994" x="506.0503" y="541.7007">stroom-auth-service</text></g><!--cluster stroom_log_sender--><g class="cluster" data-qualified-name="stroom estate.services_host.stroom_log_sender" data-source-line="43" id="ent0021"><rect fill="none" height="129.59" rx="12.5" ry="12.5" style="stroke:#181818;stroke-width:1;" width="200" x="493" y="343.8188"/><text fill="#000000" font-family="sans-serif" font-size="14" font-style="italic" lengthAdjust="spacing" textLength="83.6172" x="551.1914" y="358.8139">&#171;container&#187;</text><text fill="#000000" font-family="sans-serif" font-size="14" font-weight="bold" lengthAdjust="spacing" textLength="146.0293" x="519.9854" y="375.1107">stroom-log-sender</text></g><!--cluster stroom_host_1--><g class="cluster" data-qualified-name="stroom estate.stroom_host_1" data-source-line="60" id="ent0025"><polygon fill="none" points="749,515.4088,759,505.4088,1131,505.4088,1131,630.0088,1121,640.0088,749,640.0088,749,515.4088" style="stroke:#181818;stroke-width:1;"/><line style="stroke:#181818;stroke-width:1;" x1="1121" x2="1131" y1="515.4088" y2="505.4088"/><line style="stroke:#181818;stroke-width:1;" x1="749" x2="1121" y1="515.4088" y2="515.4088"/><line style="stroke:#181818;stroke-width:1;" x1="1121" x2="1121" y1="515.4088" y2="640.0088"/><text fill="#000000" font-family="sans-serif" font-size="14" font-style="italic" lengthAdjust="spacing" textLength="63.2666" x="904.3667" y="531.4039">&#171;device&#187;</text><text fill="#000000" font-family="sans-serif" font-size="14" font-weight="bold" lengthAdjust="spacing" textLength="109.8535" x="881.0732" y="547.7007">stroom host 1</text></g><!--cluster stroom_host_2--><g class="cluster" data-qualified-name="stroom estate.stroom_host_2" data-source-line="60" id="ent0034"><polygon fill="none" points="1155,515.4088,1165,505.4088,1537,505.4088,1537,630.0088,1527,640.0088,1155,640.0088,1155,515.4088" style="stroke:#181818;stroke-width:1;"/><line style="stroke:#181818;stroke-width:1;" x1="1527" x2="1537" y1="515.4088" y2="505.4088"/><line style="stroke:#181818;stroke-width:1;" x1="1155" x2="1527" y1="515.4088" y2="515.4088"/><line style="stroke:#181818;stroke-width:1;" x1="1527" x2="1527" y1="515.4088" y2="640.0088"/><text fill="#000000" font-family="sans-serif" font-size="14" font-style="italic" lengthAdjust="spacing" textLength="63.2666" x="1310.3667" y="531.4039">&#171;device&#187;</text><text fill="#000000" font-family="sans-serif" font-size="14" font-weight="bold" lengthAdjust="spacing" textLength="109.8535" x="1287.0732" y="547.7007">stroom host 2</text></g><!--entity dataload_client_app--><g class="entity" data-qualified-name="dataload_client_host.dataload_client_app" data-source-line="13" id="ent0003"><polygon fill="#F1F1F1" points="82.16,144.2188,92.16,134.2188,235.8485,134.2188,235.8485,186.8125,225.8485,196.8125,82.16,196.8125,82.16,144.2188" style="stroke:#181818;stroke-width:0.5;"/><line style="stroke:#181818;stroke-width:0.5;" x1="225.8485" x2="235.8485" y1="144.2188" y2="134.2188"/><line style="stroke:#181818;stroke-width:0.5;" x1="82.16" x2="225.8485" y1="144.2188" y2="144.2188"/><line style="stroke:#181818;stroke-width:0.5;" x1="225.8485" x2="225.8485" y1="144.2188" y2="196.8125"/><text fill="#000000" font-family="sans-serif" font-size="14" font-style="italic" lengthAdjust="spacing" textLength="94.5068" x="106.7508" y="167.2139">&#171;application&#187;</text><text fill="#000000" font-family="sans-serif" font-size="14" lengthAdjust="spacing" textLength="113.6885" x="97.16" y="183.5107">Event generator</text></g><!--entity ui_client_browser--><g class="entity" data-qualified-name="ui_client_host.ui_client_browser" data-source-line="17" id="ent0005"><polygon fill="#F1F1F1" points="310.5,144.2188,320.5,134.2188,459.5029,134.2188,459.5029,186.8125,449.5029,196.8125,310.5,196.8125,310.5,144.2188" style="stroke:#181818;stroke-width:0.5;"/><line style="stroke:#181818;stroke-width:0.5;" x1="449.5029" x2="459.5029" y1="144.2188" y2="134.2188"/><line style="stroke:#181818;stroke-width:0.5;" x1="310.5" x2="449.5029" y1="144.2188" y2="144.2188"/><line style="stroke:#181818;stroke-width:0.5;" x1="449.5029" x2="449.5029" y1="144.2188" y2="196.8125"/><text fill="#000000" font-family="sans-serif" font-size="14" font-style="italic" lengthAdjust="spacing" textLength="107.0029" x="326.5" y="167.2139">&#171;web browser&#187;</text><text fill="#000000" font-family="sans-serif" font-size="14" lengthAdjust="spacing" textLength="92.1143" x="333.9443" y="183.5107">Web browser</text></g><!--entity remote_proxy--><g class="entity" data-qualified-name="remote_proxy_host.remote_proxy" data-source-line="21" id="ent0007"><polygon fill="#F1F1F1" points="534.75,144.2188,544.75,134.2188,671.2568,134.2188,671.2568,186.8125,661.2568,196.8125,534.75,196.8125,534.75,144.2188" style="stroke:#181818;stroke-width:0.5;"/><line style="stroke:#181818;stroke-width:0.5;" x1="661.2568" x2="671.2568" y1="144.2188" y2="134.2188"/><line style="stroke:#181818;stroke-width:0.5;" x1="534.75" x2="661.2568" y1="144.2188" y2="144.2188"/><line style="stroke:#181818;stroke-width:0.5;" x1="661.2568" x2="661.2568" y1="144.2188" y2="196.8125"/><text fill="#000000" font-family="sans-serif" font-size="14" font-style="italic" lengthAdjust="spacing" textLength="94.5068" x="550.75" y="167.2139">&#171;application&#187;</text><text fill="#000000" font-family="sans-serif" font-size="14" lengthAdjust="spacing" textLength="94.1377" x="550.9346" y="183.5107">stroom-proxy</text></g><!--entity stroom_db--><g class="entity" data-qualified-name="stroom estate.database_host.stroom_all_dbs.stroom_db" data-source-line="27" id="ent0011"><rect fill="#F1F1F1" height="52.5938" rx="35" ry="35" style="stroke:#181818;stroke-width:0.5;" width="104.1885" x="911.91" y="818.0088"/><text fill="#000000" font-family="sans-serif" font-size="14" font-style="italic" lengthAdjust="spacing" textLength="82.1885" x="922.91" y="841.0039">&#171;database&#187;</text><text fill="#000000" font-family="sans-serif" font-size="14" lengthAdjust="spacing" textLength="49.3076" x="939.3504" y="857.3007">stroom</text></g><!--entity stroom_stats_db--><g class="entity" data-qualified-name="stroom estate.database_host.stroom_all_dbs.stroom_stats_db" data-source-line="28" id="ent0012"><rect fill="#F1F1F1" height="52.5938" rx="35" ry="35" style="stroke:#181818;stroke-width:0.5;" width="104.1885" x="772.91" y="818.0088"/><text fill="#000000" font-family="sans-serif" font-size="14" font-style="italic" lengthAdjust="spacing" textLength="82.1885" x="783.91" y="841.0039">&#171;database&#187;</text><text fill="#000000" font-family="sans-serif" font-size="14" lengthAdjust="spacing" textLength="34.1455" x="807.9315" y="857.3007">stats</text></g><!--entity stroom_auth_db--><g class="entity" data-qualified-name="stroom estate.database_host.stroom_all_dbs.stroom_auth_db" data-source-line="29" id="ent0013"><rect fill="#F1F1F1" height="52.5938" rx="35" ry="35" style="stroke:#181818;stroke-width:0.5;" width="104.1885" x="633.91" y="818.0088"/><text fill="#000000" font-family="sans-serif" font-size="14" font-style="italic" lengthAdjust="spacing" textLength="82.1885" x="644.91" y="841.0039">&#171;database&#187;</text><text fill="#000000" font-family="sans-serif" font-size="14" lengthAdjust="spacing" textLength="31.8145" x="670.097" y="857.3007">auth</text></g><!--entity nginx--><g class="entity" data-qualified-name="stroom estate.services_host.nginx_container.nginx" data-source-line="35" id="ent0016"><polygon fill="#F1F1F1" points="316.5,404.8188,326.5,394.8188,453.499,394.8188,453.499,447.4125,443.499,457.4125,316.5,457.4125,316.5,404.8188" style="stroke:#181818;stroke-width:0.5;"/><line style="stroke:#181818;stroke-width:0.5;" x1="443.499" x2="453.499" y1="404.8188" y2="394.8188"/><line style="stroke:#181818;stroke-width:0.5;" x1="316.5" x2="443.499" y1="404.8188" y2="404.8188"/><line style="stroke:#181818;stroke-width:0.5;" x1="443.499" x2="443.499" y1="404.8188" y2="457.4125"/><text fill="#000000" font-family="sans-serif" font-size="14" font-style="italic" lengthAdjust="spacing" textLength="94.999" x="332.5" y="427.8139">&#171;web server&#187;</text><text fill="#000000" font-family="sans-serif" font-size="14" lengthAdjust="spacing" textLength="38.8076" x="360.5957" y="444.1107">nginx</text></g><!--entity stroom_auth_ui_nginx--><g class="entity" data-qualified-name="stroom estate.services_host.stroom_auth_ui_container.stroom_auth_ui_nginx" data-source-line="38" id="ent0018"><polygon fill="#F1F1F1" points="251.38,571.4088,261.38,561.4088,438.6261,561.4088,438.6261,614.0025,428.6261,624.0025,251.38,624.0025,251.38,571.4088" style="stroke:#181818;stroke-width:0.5;"/><line style="stroke:#181818;stroke-width:0.5;" x1="428.6261" x2="438.6261" y1="571.4088" y2="561.4088"/><line style="stroke:#181818;stroke-width:0.5;" x1="251.38" x2="428.6261" y1="571.4088" y2="571.4088"/><line style="stroke:#181818;stroke-width:0.5;" x1="428.6261" x2="428.6261" y1="571.4088" y2="624.0025"/><text fill="#000000" font-family="sans-serif" font-size="14" font-style="italic" lengthAdjust="spacing" textLength="94.999" x="292.5035" y="594.4039">&#171;web server&#187;</text><text fill="#000000" font-family="sans-serif" font-size="14" lengthAdjust="spacing" textLength="147.2461" x="266.38" y="610.7007">stroom-auth-ui nginx</text></g><!--entity stroom_auth_service_dropwiz--><g class="entity" data-qualified-name="stroom estate.services_host.stroom_auth_service_container.stroom_auth_service_dropwiz" data-source-line="41" id="ent0020"><polygon fill="#F1F1F1" points="495.31,571.4088,505.31,561.4088,676.684,561.4088,676.684,614.0025,666.684,624.0025,495.31,624.0025,495.31,571.4088" style="stroke:#181818;stroke-width:0.5;"/><line style="stroke:#181818;stroke-width:0.5;" x1="666.684" x2="676.684" y1="571.4088" y2="561.4088"/><line style="stroke:#181818;stroke-width:0.5;" x1="495.31" x2="666.684" y1="571.4088" y2="571.4088"/><line style="stroke:#181818;stroke-width:0.5;" x1="666.684" x2="666.684" y1="571.4088" y2="624.0025"/><text fill="#000000" font-family="sans-serif" font-size="14" font-style="italic" lengthAdjust="spacing" textLength="77.417" x="542.2885" y="594.4039">&#171;java app&#187;</text><text fill="#000000" font-family="sans-serif" font-size="14" lengthAdjust="spacing" textLength="141.374" x="510.31" y="610.7007">stroom-auth-service</text></g><!--entity stroom_log_sender_script--><g class="entity" data-qualified-name="stroom estate.services_host.stroom_log_sender.stroom_log_sender_script" data-source-line="44" id="ent0022"><polygon fill="#F1F1F1" points="508.61,404.8188,518.61,394.8188,677.3991,394.8188,677.3991,447.4125,667.3991,457.4125,508.61,457.4125,508.61,404.8188" style="stroke:#181818;stroke-width:0.5;"/><line style="stroke:#181818;stroke-width:0.5;" x1="667.3991" x2="677.3991" y1="404.8188" y2="394.8188"/><line style="stroke:#181818;stroke-width:0.5;" x1="508.61" x2="667.3991" y1="404.8188" y2="404.8188"/><line style="stroke:#181818;stroke-width:0.5;" x1="667.3991" x2="667.3991" y1="404.8188" y2="457.4125"/><text fill="#000000" font-family="sans-serif" font-size="14" font-style="italic" lengthAdjust="spacing" textLength="56.2939" x="559.8576" y="427.8139">&#171;script&#187;</text><text fill="#000000" font-family="sans-serif" font-size="14" lengthAdjust="spacing" textLength="128.7891" x="523.61" y="444.1107">stroom-log-sender</text></g><!--entity stroom_dropwiz_1--><g class="entity" data-qualified-name="stroom estate.stroom_host_1.stroom_dropwiz_1" data-source-line="61" id="ent0026"><polygon fill="#F1F1F1" points="765.29,571.4088,775.29,561.4088,884.707,561.4088,884.707,614.0025,874.707,624.0025,765.29,624.0025,765.29,571.4088" style="stroke:#181818;stroke-width:0.5;"/><line style="stroke:#181818;stroke-width:0.5;" x1="874.707" x2="884.707" y1="571.4088" y2="561.4088"/><line style="stroke:#181818;stroke-width:0.5;" x1="765.29" x2="874.707" y1="571.4088" y2="571.4088"/><line style="stroke:#181818;stroke-width:0.5;" x1="874.707" x2="874.707" y1="571.4088" y2="624.0025"/><text fill="#000000" font-family="sans-serif" font-size="14" font-style="italic" lengthAdjust="spacing" textLength="77.417" x="781.29" y="594.4039">&#171;java app&#187;</text><text fill="#000000" font-family="sans-serif" font-size="14" lengthAdjust="spacing" textLength="62.665" x="788.666" y="610.7007">stroom 1</text></g><!--entity stroom_proxy_dropwiz_1--><g class="entity" data-qualified-name="stroom estate.stroom_host_1.stroom_proxy_dropwiz_1" data-source-line="62" id="ent0027"><polygon fill="#F1F1F1" points="919.25,571.4088,929.25,561.4088,1114.7402,561.4088,1114.7402,614.0025,1104.7402,624.0025,919.25,624.0025,919.25,571.4088" style="stroke:#181818;stroke-width:0.5;"/><line style="stroke:#181818;stroke-width:0.5;" x1="1104.7402" x2="1114.7402" y1="571.4088" y2="561.4088"/><line style="stroke:#181818;stroke-width:0.5;" x1="919.25" x2="1104.7402" y1="571.4088" y2="571.4088"/><line style="stroke:#181818;stroke-width:0.5;" x1="1104.7402" x2="1104.7402" y1="571.4088" y2="624.0025"/><text fill="#000000" font-family="sans-serif" font-size="14" font-style="italic" lengthAdjust="spacing" textLength="77.417" x="973.2866" y="594.4039">&#171;java app&#187;</text><text fill="#000000" font-family="sans-serif" font-size="14" lengthAdjust="spacing" textLength="155.4902" x="934.25" y="610.7007">stroom-proxy (local) 1</text></g><!--entity stroom_dropwiz_2--><g class="entity" data-qualified-name="stroom estate.stroom_host_2.stroom_dropwiz_2" data-source-line="61" id="ent0035"><polygon fill="#F1F1F1" points="1171.29,571.4088,1181.29,561.4088,1290.707,561.4088,1290.707,614.0025,1280.707,624.0025,1171.29,624.0025,1171.29,571.4088" style="stroke:#181818;stroke-width:0.5;"/><line style="stroke:#181818;stroke-width:0.5;" x1="1280.707" x2="1290.707" y1="571.4088" y2="561.4088"/><line style="stroke:#181818;stroke-width:0.5;" x1="1171.29" x2="1280.707" y1="571.4088" y2="571.4088"/><line style="stroke:#181818;stroke-width:0.5;" x1="1280.707" x2="1280.707" y1="571.4088" y2="624.0025"/><text fill="#000000" font-family="sans-serif" font-size="14" font-style="italic" lengthAdjust="spacing" textLength="77.417" x="1187.29" y="594.4039">&#171;java app&#187;</text><text fill="#000000" font-family="sans-serif" font-size="14" lengthAdjust="spacing" textLength="62.665" x="1194.666" y="610.7007">stroom 2</text></g><!--entity stroom_proxy_dropwiz_2--><g class="entity" data-qualified-name="stroom estate.stroom_host_2.stroom_proxy_dropwiz_2" data-source-line="62" id="ent0036"><polygon fill="#F1F1F1" points="1325.25,571.4088,1335.25,561.4088,1520.7402,561.4088,1520.7402,614.0025,1510.7402,624.0025,1325.25,624.0025,1325.25,571.4088" style="stroke:#181818;stroke-width:0.5;"/><line style="stroke:#181818;stroke-width:0.5;" x1="1510.7402" x2="1520.7402" y1="571.4088" y2="561.4088"/><line style="stroke:#181818;stroke-width:0.5;" x1="1325.25" x2="1510.7402" y1="571.4088" y2="571.4088"/><line style="stroke:#181818;stroke-width:0.5;" x1="1510.7402" x2="1510.7402" y1="571.4088" y2="624.0025"/><text fill="#000000" font-family="sans-serif" font-size="14" font-style="italic" lengthAdjust="spacing" textLength="77.417" x="1379.2866" y="594.4039">&#171;java app&#187;</text><text fill="#000000" font-family="sans-serif" font-size="14" lengthAdjust="spacing" textLength="155.4902" x="1340.25" y="610.7007">stroom-proxy (local) 2</text></g><!--reverse link nginx to stroom_log_sender_script--><g class="link" data-entity-1="ent0016" data-entity-2="ent0022" data-link-type="dependency" data-source-line="47" id="lnk24"><path d="M459.66,426.1188 C477.89,426.1188 490.13,426.1188 508.36,426.1188" fill="none" id="nginx-backto-stroom_log_sender_script" style="stroke:#181818;stroke-width:1;"/><polygon fill="#181818" points="453.66,426.1188,462.66,430.1188,458.66,426.1188,462.66,422.1188,453.66,426.1188" style="stroke:#181818;stroke-width:1;"/></g><!--link stroom_dropwiz_1 to stroom_db--><g class="link" data-entity-1="ent0026" data-entity-2="ent0011" data-link-type="dependency" data-source-line="65" id="lnk28"><path d="M853.53,624.4888 C867.23,640.2888 883.18,660.3188 895,680.0088 C922.48,725.7888 942.4761,778.839 953.7461,811.939" fill="none" id="stroom_dropwiz_1-to-stroom_db" style="stroke:#181818;stroke-width:1;"/><polygon fill="#181818" points="955.68,817.6188,956.5657,807.8098,954.0684,812.8856,948.9927,810.3883,955.68,817.6188" style="stroke:#181818;stroke-width:1;"/></g><!--link stroom_dropwiz_1 to stroom_stats_db--><g class="link" data-entity-1="ent0026" data-entity-2="ent0012" data-link-type="dependency" data-source-line="66" id="lnk29"><path d="M825,624.3088 C825,674.0388 825,765.4688 825,811.7388" fill="none" id="stroom_dropwiz_1-to-stroom_stats_db" style="stroke:#181818;stroke-width:1;"/><polygon fill="#181818" points="825,817.7388,829,808.7388,825,812.7388,821,808.7388,825,817.7388" style="stroke:#181818;stroke-width:1;"/></g><!--link stroom_dropwiz_1 to nginx--><g class="link" data-entity-1="ent0026" data-entity-2="ent0016" data-link-type="dependency" data-source-line="68" id="lnk30"><path d="M810.84,561.2788 C789.65,536.8688 751.36,504.3088 710.5,489.4088 C668.71,474.1788 553.56,492.5388 510.5,481.4088 C490.69,476.2888 475.6671,469.8809 457.0571,460.5809" fill="none" id="stroom_dropwiz_1-to-nginx" style="stroke:#181818;stroke-width:1;"/><polygon fill="#181818" points="451.69,457.8988,457.9526,465.5,456.1626,460.1339,461.5288,458.3438,451.69,457.8988" style="stroke:#181818;stroke-width:1;"/></g><!--link nginx to stroom_dropwiz_1--><g class="link" data-entity-1="ent0016" data-entity-2="ent0026" data-link-type="dependency" data-source-line="72" id="lnk32"><path d="M418.62,457.8988 C435.3,467.1988 455.69,476.2888 475.5,481.4088 C518.56,492.5388 633.71,474.1788 675.5,489.4088 C716.22,504.2588 749.8619,532.7238 778.0619,557.1138" fill="none" id="nginx-to-stroom_dropwiz_1" style="stroke:#181818;stroke-width:1;"/><polygon fill="#181818" points="782.6,561.0387,778.4095,552.1259,778.8182,557.7679,773.1762,558.1767,782.6,561.0387" style="stroke:#181818;stroke-width:1;"/></g><!--link stroom_proxy_dropwiz_1 to nginx--><g class="link" data-entity-1="ent0027" data-entity-2="ent0016" data-link-type="dependency" data-source-line="69" id="lnk31"><path d="M1007.35,561.1388 C989.89,536.6388 956.82,504.0288 919.5,489.4088 C877.18,472.8388 554.62,492.3388 510.5,481.4088 C490.43,476.4387 475.182,469.9512 456.422,460.5312" fill="none" id="stroom_proxy_dropwiz_1-to-nginx" style="stroke:#181818;stroke-width:1;"/><polygon fill="#181818" points="451.06,457.8388,457.308,465.452,455.5283,460.0824,460.8979,458.3027,451.06,457.8388" style="stroke:#181818;stroke-width:1;"/></g><!--link nginx to stroom_proxy_dropwiz_1--><g class="link" data-entity-1="ent0016" data-entity-2="ent0027" data-link-type="dependency" data-source-line="73" id="lnk33"><path d="M418.05,457.8388 C434.82,467.2588 455.43,476.4387 475.5,481.4088 C519.62,492.3388 842.18,472.8388 884.5,489.4088 C921.82,504.0288 950.6474,532.3961 975.1474,556.8961" fill="none" id="nginx-to-stroom_proxy_dropwiz_1" style="stroke:#181818;stroke-width:1;"/><polygon fill="#181818" points="979.39,561.1388,975.8545,551.9464,975.8545,557.6032,970.1976,557.6032,979.39,561.1388" style="stroke:#181818;stroke-width:1;"/></g><!--link stroom_dropwiz_2 to stroom_db--><g class="link" data-entity-1="ent0035" data-entity-2="ent0011" data-link-type="dependency" data-source-line="65" id="lnk37"><path d="M1198.26,624.3088 C1145.07,674.0388 1045.2332,767.3715 995.7332,813.6415" fill="none" id="stroom_dropwiz_2-to-stroom_db" style="stroke:#181818;stroke-width:1;"/><polygon fill="#181818" points="991.35,817.7388,1000.6563,814.5151,995.0027,814.3244,995.1934,808.6708,991.35,817.7388" style="stroke:#181818;stroke-width:1;"/></g><!--link stroom_dropwiz_2 to stroom_stats_db--><g class="link" data-entity-1="ent0035" data-entity-2="ent0012" data-link-type="dependency" data-source-line="66" id="lnk38"><path d="M1202.17,624.4187 C1183.69,641.8588 1158.14,662.1288 1131,672.0088 C1106.24,681.0188 915.71,665.0788 894,680.0088 C848.1,711.5688 833.4239,774.1842 828.2939,811.6542" fill="none" id="stroom_dropwiz_2-to-stroom_stats_db" style="stroke:#181818;stroke-width:1;"/><polygon fill="#181818" points="827.48,817.5988,832.6638,809.2245,828.1582,812.645,824.7378,808.1394,827.48,817.5988" style="stroke:#181818;stroke-width:1;"/></g><!--link stroom_dropwiz_2 to nginx--><g class="link" data-entity-1="ent0035" data-entity-2="ent0016" data-link-type="dependency" data-source-line="68" id="lnk39"><path d="M1225.36,561.1588 C1211.19,536.6788 1182.75,504.0788 1148.5,489.4088 C1115.92,475.4588 544.94,489.8088 510.5,481.4088 C490.32,476.4888 474.9509,469.9434 456.1109,460.4734" fill="none" id="stroom_dropwiz_2-to-nginx" style="stroke:#181818;stroke-width:1;"/><polygon fill="#181818" points="450.75,457.7788,456.9949,465.3946,455.2174,460.0243,460.5877,458.2468,450.75,457.7788" style="stroke:#181818;stroke-width:1;"/></g><!--link nginx to stroom_dropwiz_2--><g class="link" data-entity-1="ent0016" data-entity-2="ent0035" data-link-type="dependency" data-source-line="72" id="lnk41"><path d="M417.77,457.7788 C434.59,467.2488 455.32,476.4888 475.5,481.4088 C509.94,489.8088 1080.92,475.4588 1113.5,489.4088 C1147.75,504.0788 1172.2611,532.1441 1193.4711,556.6241" fill="none" id="nginx-to-stroom_dropwiz_2" style="stroke:#181818;stroke-width:1;"/><polygon fill="#181818" points="1197.4,561.1588,1194.5297,551.7374,1194.1259,557.3798,1188.4835,556.976,1197.4,561.1588" style="stroke:#181818;stroke-width:1;"/></g><!--link stroom_proxy_dropwiz_2 to nginx--><g class="link" data-entity-1="ent0036" data-entity-2="ent0016" data-link-type="dependency" data-source-line="69" id="lnk40"><path d="M1413.39,561.0387 C1395.95,536.4888 1362.89,503.8488 1325.5,489.4088 C1283.26,473.1088 554.51,492.0788 510.5,481.4088 C490.31,476.5188 474.9397,469.9857 456.0997,460.5057" fill="none" id="stroom_proxy_dropwiz_2-to-nginx" style="stroke:#181818;stroke-width:1;"/><polygon fill="#181818" points="450.74,457.8088,456.9816,465.4273,455.2064,460.0562,460.5775,458.281,450.74,457.8088" style="stroke:#181818;stroke-width:1;"/></g><!--link nginx to stroom_proxy_dropwiz_2--><g class="link" data-entity-1="ent0016" data-entity-2="ent0036" data-link-type="dependency" data-source-line="73" id="lnk42"><path d="M417.77,457.8088 C434.58,467.2888 455.31,476.5188 475.5,481.4088 C519.51,492.0788 1248.26,473.1088 1290.5,489.4088 C1327.89,503.8488 1356.7134,532.2401 1381.1934,556.7901" fill="none" id="nginx-to-stroom_proxy_dropwiz_2" style="stroke:#181818;stroke-width:1;"/><polygon fill="#181818" points="1385.43,561.0387,1381.9076,551.8413,1381.8995,557.4982,1376.2427,557.4901,1385.43,561.0387" style="stroke:#181818;stroke-width:1;"/></g><!--link stroom_auth_service_dropwiz to stroom_auth_db--><g class="link" data-entity-1="ent0020" data-entity-2="ent0013" data-link-type="dependency" data-source-line="83" id="lnk43"><path d="M598.26,624.3088 C618.18,674.0388 654.9883,765.8992 673.5283,812.1692" fill="none" id="stroom_auth_service_dropwiz-to-stroom_auth_db" style="stroke:#181818;stroke-width:1;"/><polygon fill="#181818" points="675.76,817.7388,676.1255,807.8967,673.9003,813.0975,668.6995,810.8722,675.76,817.7388" style="stroke:#181818;stroke-width:1;"/></g><!--link ui_client_browser to nginx--><g class="link" data-entity-1="ent0005" data-entity-2="ent0016" data-link-type="dependency" data-source-line="86" id="lnk44"><path d="M385,197.1988 C385,246.9688 385,338.7288 385,388.4788" fill="none" id="ui_client_browser-to-nginx" style="stroke:#181818;stroke-width:1;"/><polygon fill="#181818" points="385,394.4788,389,385.4788,385,389.4788,381,385.4788,385,394.4788" style="stroke:#181818;stroke-width:1;"/></g><!--link dataload_client_app to nginx--><g class="link" data-entity-1="ent0003" data-entity-2="ent0016" data-link-type="dependency" data-source-line="87" id="lnk45"><path d="M185.81,197.1988 C229.31,246.9688 310.8021,340.2105 354.2721,389.9605" fill="none" id="dataload_client_app-to-nginx" style="stroke:#181818;stroke-width:1;"/><polygon fill="#181818" points="358.22,394.4788,355.3103,385.0695,354.9301,390.7136,349.286,390.3333,358.22,394.4788" style="stroke:#181818;stroke-width:1;"/></g><!--link remote_proxy to nginx--><g class="link" data-entity-1="ent0007" data-entity-2="ent0016" data-link-type="dependency" data-source-line="88" id="lnk46"><path d="M535.15,197.1587 C520.13,205.9588 505.11,216.5588 493,228.8188 C444.62,277.7988 413.6403,347.2797 397.8103,388.9597" fill="none" id="remote_proxy-to-nginx" style="stroke:#181818;stroke-width:1;"/><polygon fill="#181818" points="395.68,394.5688,402.6149,387.5753,397.4553,389.8945,395.1361,384.7349,395.68,394.5688" style="stroke:#181818;stroke-width:1;"/></g><!--link nginx to stroom_auth_ui_nginx--><g class="link" data-entity-1="ent0016" data-entity-2="ent0018" data-link-type="dependency" data-source-line="91" id="lnk47"><path d="M377.57,457.6887 C370.41,487.1588 361.0466,525.6784 353.8766,555.1884" fill="none" id="nginx-to-stroom_auth_ui_nginx" style="stroke:#181818;stroke-width:1;"/><polygon fill="#181818" points="352.46,561.0188,358.4718,553.2176,353.6405,556.1601,350.698,551.3288,352.46,561.0188" style="stroke:#181818;stroke-width:1;"/></g><!--link nginx to stroom_auth_service_dropwiz--><g class="link" data-entity-1="ent0016" data-entity-2="ent0020" data-link-type="dependency" data-source-line="92" id="lnk48"><path d="M422.34,457.6887 C458.32,487.1588 507.8482,527.7069 543.8782,557.2169" fill="none" id="nginx-to-stroom_auth_service_dropwiz" style="stroke:#181818;stroke-width:1;"/><polygon fill="#181818" points="548.52,561.0188,544.0919,552.2215,544.6518,557.8506,539.0228,558.4106,548.52,561.0188" style="stroke:#181818;stroke-width:1;"/></g><?plantuml-src fLVVRzis47wU_egh4ImDDYzeYxqCYO4b6Oe1BTRLAFeeqDBPvaoH6ad5yOhyxpkI-a7Pac9iUZ1atdtVVJmUZvJbLc02zDpUBgrMge2Y4fRFfSeH2lw4-Hmp9LLnW1nBeGu5Iki1jRj1_SWpDC0bFAXiXpgsCfd3nyFopm-W9AoOHlXZcI0DMXyuCJikIwPP0Hepo-H687nBljEgalczqXBrpGs5jupJws81RtzEdfF4YvizCClMY3baWfCes2fZPy0Cv6GGYkLfCAJE03StEJgXHFBDAmmalpqww0Q9dbcb1_6iB0bElu9dp78b5ujEnHTA0AN6xAmgEmaLFoVuLrp1IgizKHoXwb42xZkVEEndB9H5C3xDyrAhfqCNNNjZwaSd1SJm4-JGdBjLgh60nZABinwjMvaLCzXV4ZSoeiOzZKizfvG9aUOhGyx5mVmjUhxkCRHSRDCAyM5gQBvo8Me-4Zu2OzR4A3zm7fPLTXj3tVzHv7CIVgC4BPjDqoQesKOJ2OfoBpTSFdcSVqlRBGAzxT9FM0Xz1Aqhp8Nt1TONVHIsBXStstd5JnBWolTy8Nqow7GTKVu_cNLUJuZhyVyg-2NQNAjop_yXqh_O8mFQHsUA5cf3v3AlEqBDJQDf63rRvaj4gSaqBrsfXPUUlgIh-17ONE3QpXTXsU82VxMkPEOQ1boGKEeThoyaA_17kE3vLV3GQ2jDTZSEFpX36AS03JXmNS8dhJBCApeth6gwD0AhTVdj0tjkjo2ut1ddv4wSjIOR3yVKgxAbO7cUrXDoG1962KiRMTxvmXbI9-osaJ-B8EcCvZ60QlfEMFLXV6ESfWWzUvAexzAZI_gbS8GCwOe1lZIwEG_tdN6-Kwg1H0plWL7I-YnxBLJ6nDLuYDD4lRJPBg4zboYaH5zefZKFQfzJYRU7ojckpKaIXVxrq-_mdcftpmvHz9SPk_qLkmrCldFkedv6wfOqtP3IeKc7vkgmGmect4uLj7kutN11YLKRj5lgN5r57M_4sPlPrRZnRMryTXUGouUxtaIccc-q8lK1JVZxS5cCEKwlNLqoX-w2dRLtNOfMO2BpNIg7phaHyz7C4ef0Po7ThwmjVxc-BWMJjYh4JvaghhihzVVURiXXGosoMdbpunkzL49Sltj3d1rqIsrqhxcrAC7g2cDRGPy3sPPQBDBvvQSPMrSisstg-xjG6XvuyLxZ8NQv5yoOktFzbAPZ9_XytNABoqBj9YDQpQGXa_jGeJm9ljbQe0ei9b4VdDjPIYSy8wtkwsKjr1xrdUZdh-b2P_6spkFKoUMMKoF5ehG7AB1OqP8a_m80?></g></svg>