<?plantuml 1.2026.1?><svg xmlns="http://www.w3.org/2000/svg" xmlns:xlink="http://www.w3.org/1999/xlink" contentStyleType="text/css" data-diagram-type="DESCRIPTION" height="929px" preserveAspectRatio="none" style="width:997px;height:929px;background:#FFFFFF;" version="1.1" viewBox="0 0 997 929" width="997px" zoomAndPan="magnify"><title>==Stroom Logical Architecture
Client connections in &lt;color:blue&gt;blue&lt;/color&gt;
Reverse proxied connections in &lt;color:green&gt;green&lt;/color&gt;
Effective connections (ignoring nginx reverse proxying) &lt;color:grey&gt;dashed grey&lt;/color&gt;</title><defs/><g><g class="title" data-source-line="2"><text fill="#000000" font-family="sans-serif" font-size="16" font-weight="bold" lengthAdjust="spacing" textLength="215.4688" x="383.7656" y="24.8516">Stroom Logical Architecture</text><text fill="#000000" font-family="sans-serif" font-size="14" font-weight="bold" lengthAdjust="spacing" textLength="142.5156" x="403.5762" y="41.6201">Client connections in</text><text fill="#0000FF" font-family="sans-serif" font-size="14" font-weight="bold" lengthAdjust="spacing" textLength="29.6953" x="549.7285" y="41.6201">blue</text><text fill="#000000" font-family="sans-serif" font-size="14" font-weight="bold" lengthAdjust="spacing" textLength="211.1211" x="364.6968" y="57.917">Reverse proxied connections in</text><text fill="#008000" font-family="sans-serif" font-size="14" font-weight="bold" lengthAdjust="spacing" textLength="38.8486" x="579.4546" y="57.917">green</text><text fill="#000000" font-family="sans-serif" font-size="14" font-weight="bold" lengthAdjust="spacing" textLength="372.2852" x="262.626" y="74.2139">Effective connections (ignoring nginx reverse proxying)</text><text fill="#808080" font-family="sans-serif" font-size="14" font-weight="bold" lengthAdjust="spacing" textLength="81.8262" x="638.5479" y="74.2139">dashed grey</text></g><!--cluster stroom estate--><g class="cluster" data-qualified-name="stroom estate" data-source-line="21" id="ent0006"><rect fill="none" height="673" rx="2.5" ry="2.5" style="stroke:#181818;stroke-width:1;" width="984" x="7" y="250.5156"/><text fill="#000000" font-family="sans-serif" font-size="14" font-weight="bold" lengthAdjust="spacing" textLength="94.8418" x="451.5791" y="265.5107">stroom estate</text></g><!--cluster stroom_all_dbs--><g class="cluster" data-qualified-name="stroom estate.stroom_all_dbs" data-source-line="29" id="ent0013"><path d="M202,774.5156 C202,764.5156 392,764.5156 392,764.5156 C392,764.5156 582,764.5156 582,774.5156 L582,889.5156 C582,899.5156 392,899.5156 392,899.5156 C392,899.5156 202,899.5156 202,889.5156 L202,774.5156" fill="none" style="stroke:#181818;stroke-width:1;"/><path d="M202,774.5156 C202,784.5156 392,784.5156 392,784.5156 C392,784.5156 582,784.5156 582,774.5156" fill="none" style="stroke:#181818;stroke-width:1;"/><text fill="#000000" font-family="sans-serif" font-size="14" font-style="italic" lengthAdjust="spacing" textLength="51.1602" x="366.4199" y="799.5107">&#171;mysql&#187;</text><text fill="#000000" font-family="sans-serif" font-size="14" font-weight="bold" lengthAdjust="spacing" textLength="100.4199" x="341.79" y="815.8076">stroom_all_dbs</text></g><!--entity nginx--><g class="entity" data-qualified-name="stroom estate.nginx" data-source-line="22" id="ent0007"><polygon fill="#F1F1F1" points="430.5,295.5156,440.5,285.5156,555.085,285.5156,555.085,338.1094,545.085,348.1094,430.5,348.1094,430.5,295.5156" style="stroke:#181818;stroke-width:0.5;"/><line style="stroke:#181818;stroke-width:0.5;" x1="545.085" x2="555.085" y1="295.5156" y2="285.5156"/><line style="stroke:#181818;stroke-width:0.5;" x1="430.5" x2="545.085" y1="295.5156" y2="295.5156"/><line style="stroke:#181818;stroke-width:0.5;" x1="545.085" x2="545.085" y1="295.5156" y2="348.1094"/><text fill="#000000" font-family="sans-serif" font-size="14" font-style="italic" lengthAdjust="spacing" textLength="82.585" x="446.5" y="318.5107">&#171;web server&#187;</text><text fill="#000000" font-family="sans-serif" font-size="14" lengthAdjust="spacing" textLength="34.3643" x="470.6104" y="334.8076">nginx</text></g><!--entity stroom_auth_ui_nginx--><g class="entity" data-qualified-name="stroom estate.stroom_auth_ui_nginx" data-source-line="23" id="ent0008"><polygon fill="#F1F1F1" points="23.5,502.5156,33.5,492.5156,196.3906,492.5156,196.3906,545.1094,186.3906,555.1094,23.5,555.1094,23.5,502.5156" style="stroke:#181818;stroke-width:0.5;"/><line style="stroke:#181818;stroke-width:0.5;" x1="186.3906" x2="196.3906" y1="502.5156" y2="492.5156"/><line style="stroke:#181818;stroke-width:0.5;" x1="23.5" x2="186.3906" y1="502.5156" y2="502.5156"/><line style="stroke:#181818;stroke-width:0.5;" x1="186.3906" x2="186.3906" y1="502.5156" y2="555.1094"/><text fill="#000000" font-family="sans-serif" font-size="14" font-style="italic" lengthAdjust="spacing" textLength="82.585" x="63.6528" y="525.5107">&#171;web server&#187;</text><text fill="#000000" font-family="sans-serif" font-size="14" lengthAdjust="spacing" textLength="132.8906" x="38.5" y="541.8076">stroom-auth-ui nginx</text></g><!--entity stroom_auth_service_dropwiz--><g class="entity" data-qualified-name="stroom estate.stroom_auth_service_dropwiz" data-source-line="24" id="ent0009"><polygon fill="#F1F1F1" points="231.5,502.5156,241.5,492.5156,398.2178,492.5156,398.2178,545.1094,388.2178,555.1094,231.5,555.1094,231.5,502.5156" style="stroke:#181818;stroke-width:0.5;"/><line style="stroke:#181818;stroke-width:0.5;" x1="388.2178" x2="398.2178" y1="502.5156" y2="492.5156"/><line style="stroke:#181818;stroke-width:0.5;" x1="231.5" x2="388.2178" y1="502.5156" y2="502.5156"/><line style="stroke:#181818;stroke-width:0.5;" x1="388.2178" x2="388.2178" y1="502.5156" y2="555.1094"/><text fill="#000000" font-family="sans-serif" font-size="14" font-style="italic" lengthAdjust="spacing" textLength="66.2949" x="276.7114" y="525.5107">&#171;java app&#187;</text><text fill="#000000" font-family="sans-serif" font-size="14" lengthAdjust="spacing" textLength="126.7178" x="246.5" y="541.8076">stroom-auth-service</text></g><!--entity stroom_dropwiz--><g class="entity" data-qualified-name="stroom estate.stroom_dropwiz" data-source-line="25" id="ent0010"><polygon fill="#F1F1F1" points="466,664.5156,476,654.5156,574.2949,654.5156,574.2949,707.1094,564.2949,717.1094,466,717.1094,466,664.5156" style="stroke:#181818;stroke-width:0.5;"/><line style="stroke:#181818;stroke-width:0.5;" x1="564.2949" x2="574.2949" y1="664.5156" y2="654.5156"/><line style="stroke:#181818;stroke-width:0.5;" x1="466" x2="564.2949" y1="664.5156" y2="664.5156"/><line style="stroke:#181818;stroke-width:0.5;" x1="564.2949" x2="564.2949" y1="664.5156" y2="717.1094"/><text fill="#000000" font-family="sans-serif" font-size="14" font-style="italic" lengthAdjust="spacing" textLength="66.2949" x="482" y="687.5107">&#171;java app&#187;</text><text fill="#000000" font-family="sans-serif" font-size="14" lengthAdjust="spacing" textLength="45.3496" x="492.4727" y="703.8076">stroom</text></g><!--entity stroom_proxy_dropwiz--><g class="entity" data-qualified-name="stroom estate.stroom_proxy_dropwiz" data-source-line="26" id="ent0011"><polygon fill="#F1F1F1" points="433.5,502.5156,443.5,492.5156,600.3613,492.5156,600.3613,545.1094,590.3613,555.1094,433.5,555.1094,433.5,502.5156" style="stroke:#181818;stroke-width:0.5;"/><line style="stroke:#181818;stroke-width:0.5;" x1="590.3613" x2="600.3613" y1="502.5156" y2="492.5156"/><line style="stroke:#181818;stroke-width:0.5;" x1="433.5" x2="590.3613" y1="502.5156" y2="502.5156"/><line style="stroke:#181818;stroke-width:0.5;" x1="590.3613" x2="590.3613" y1="502.5156" y2="555.1094"/><text fill="#000000" font-family="sans-serif" font-size="14" font-style="italic" lengthAdjust="spacing" textLength="66.2949" x="478.7832" y="525.5107">&#171;java app&#187;</text><text fill="#000000" font-family="sans-serif" font-size="14" lengthAdjust="spacing" textLength="126.8613" x="448.5" y="541.8076">stroom-proxy (local)</text></g><!--entity stroom_log_sender_script--><g class="entity" data-qualified-name="stroom estate.stroom_log_sender_script" data-source-line="27" id="ent0012"><polygon fill="#F1F1F1" points="140.5,295.5156,150.5,285.5156,297.1484,285.5156,297.1484,338.1094,287.1484,348.1094,140.5,348.1094,140.5,295.5156" style="stroke:#181818;stroke-width:0.5;"/><line style="stroke:#181818;stroke-width:0.5;" x1="287.1484" x2="297.1484" y1="295.5156" y2="285.5156"/><line style="stroke:#181818;stroke-width:0.5;" x1="140.5" x2="287.1484" y1="295.5156" y2="295.5156"/><line style="stroke:#181818;stroke-width:0.5;" x1="287.1484" x2="287.1484" y1="295.5156" y2="348.1094"/><text fill="#000000" font-family="sans-serif" font-size="14" font-style="italic" lengthAdjust="spacing" textLength="48.583" x="189.5327" y="318.5107">&#171;script&#187;</text><text fill="#000000" font-family="sans-serif" font-size="14" lengthAdjust="spacing" textLength="116.6484" x="155.5" y="334.8076">stroom-log-sender</text></g><!--entity stroom_db--><g class="entity" data-qualified-name="stroom estate.stroom_all_dbs.stroom_db" data-source-line="30" id="ent0014"><rect fill="#F1F1F1" height="52.5938" rx="35" ry="35" style="stroke:#181818;stroke-width:0.5;" width="92.8818" x="473.5" y="830.5156"/><text fill="#000000" font-family="sans-serif" font-size="14" font-style="italic" lengthAdjust="spacing" textLength="70.8818" x="484.5" y="853.5107">&#171;database&#187;</text><text fill="#000000" font-family="sans-serif" font-size="14" lengthAdjust="spacing" textLength="45.3496" x="497.2661" y="869.8076">stroom</text></g><!--entity stroom_stats_db--><g class="entity" data-qualified-name="stroom estate.stroom_all_dbs.stroom_stats_db" data-source-line="31" id="ent0015"><rect fill="#F1F1F1" height="52.5938" rx="35" ry="35" style="stroke:#181818;stroke-width:0.5;" width="92.8818" x="345.5" y="830.5156"/><text fill="#000000" font-family="sans-serif" font-size="14" font-style="italic" lengthAdjust="spacing" textLength="70.8818" x="356.5" y="853.5107">&#171;database&#187;</text><text fill="#000000" font-family="sans-serif" font-size="14" lengthAdjust="spacing" textLength="29.5518" x="377.165" y="869.8076">stats</text></g><!--entity stroom_auth_db--><g class="entity" data-qualified-name="stroom estate.stroom_all_dbs.stroom_auth_db" data-source-line="32" id="ent0016"><rect fill="#F1F1F1" height="52.5938" rx="35" ry="35" style="stroke:#181818;stroke-width:0.5;" width="92.8818" x="217.5" y="830.5156"/><text fill="#000000" font-family="sans-serif" font-size="14" font-style="italic" lengthAdjust="spacing" textLength="70.8818" x="228.5" y="853.5107">&#171;database&#187;</text><text fill="#000000" font-family="sans-serif" font-size="14" lengthAdjust="spacing" textLength="28.6631" x="249.6094" y="869.8076">auth</text></g><!--entity dataload_client_app--><g class="entity" data-qualified-name="dataload_client_app" data-source-line="16" id="ent0002"><polygon fill="#F1F1F1" points="163,104.5156,173,94.5156,303.1191,94.5156,303.1191,147.1094,293.1191,157.1094,163,157.1094,163,104.5156" style="stroke:#181818;stroke-width:0.5;"/><line style="stroke:#181818;stroke-width:0.5;" x1="293.1191" x2="303.1191" y1="104.5156" y2="94.5156"/><line style="stroke:#181818;stroke-width:0.5;" x1="163" x2="293.1191" y1="104.5156" y2="104.5156"/><line style="stroke:#181818;stroke-width:0.5;" x1="293.1191" x2="293.1191" y1="104.5156" y2="157.1094"/><text fill="#000000" font-family="sans-serif" font-size="14" font-style="italic" lengthAdjust="spacing" textLength="83.3164" x="186.4014" y="127.5107">&#171;application&#187;</text><text fill="#000000" font-family="sans-serif" font-size="14" lengthAdjust="spacing" textLength="100.1191" x="178" y="143.8076">Event generator</text></g><!--entity ui_client_browser--><g class="entity" data-qualified-name="ui_client_browser" data-source-line="17" id="ent0003"><polygon fill="#F1F1F1" points="340.5,104.5156,350.5,94.5156,477.6152,94.5156,477.6152,147.1094,467.6152,157.1094,340.5,157.1094,340.5,104.5156" style="stroke:#181818;stroke-width:0.5;"/><line style="stroke:#181818;stroke-width:0.5;" x1="467.6152" x2="477.6152" y1="104.5156" y2="94.5156"/><line style="stroke:#181818;stroke-width:0.5;" x1="340.5" x2="467.6152" y1="104.5156" y2="104.5156"/><line style="stroke:#181818;stroke-width:0.5;" x1="467.6152" x2="467.6152" y1="104.5156" y2="157.1094"/><text fill="#000000" font-family="sans-serif" font-size="14" font-style="italic" lengthAdjust="spacing" textLength="95.1152" x="356.5" y="127.5107">&#171;web browser&#187;</text><text fill="#000000" font-family="sans-serif" font-size="14" lengthAdjust="spacing" textLength="83.4121" x="362.3516" y="143.8076">Web browser</text></g><!--entity api_client_app--><g class="entity" data-qualified-name="api_client_app" data-source-line="18" id="ent0004"><polygon fill="#F1F1F1" points="512.5,104.5156,522.5,94.5156,637.8164,94.5156,637.8164,147.1094,627.8164,157.1094,512.5,157.1094,512.5,104.5156" style="stroke:#181818;stroke-width:0.5;"/><line style="stroke:#181818;stroke-width:0.5;" x1="627.8164" x2="637.8164" y1="104.5156" y2="94.5156"/><line style="stroke:#181818;stroke-width:0.5;" x1="512.5" x2="627.8164" y1="104.5156" y2="104.5156"/><line style="stroke:#181818;stroke-width:0.5;" x1="627.8164" x2="627.8164" y1="104.5156" y2="157.1094"/><text fill="#000000" font-family="sans-serif" font-size="14" font-style="italic" lengthAdjust="spacing" textLength="83.3164" x="528.5" y="127.5107">&#171;application&#187;</text><text fill="#000000" font-family="sans-serif" font-size="14" lengthAdjust="spacing" textLength="59.165" x="540.5757" y="143.8076">API client</text></g><!--entity remote_proxy--><g class="entity" data-qualified-name="remote_proxy" data-source-line="19" id="ent0005"><polygon fill="#F1F1F1" points="672,104.5156,682,94.5156,849.8125,94.5156,849.8125,147.1094,839.8125,157.1094,672,157.1094,672,104.5156" style="stroke:#181818;stroke-width:0.5;"/><line style="stroke:#181818;stroke-width:0.5;" x1="839.8125" x2="849.8125" y1="104.5156" y2="94.5156"/><line style="stroke:#181818;stroke-width:0.5;" x1="672" x2="839.8125" y1="104.5156" y2="104.5156"/><line style="stroke:#181818;stroke-width:0.5;" x1="839.8125" x2="839.8125" y1="104.5156" y2="157.1094"/><text fill="#000000" font-family="sans-serif" font-size="14" font-style="italic" lengthAdjust="spacing" textLength="83.3164" x="714.248" y="127.5107">&#171;application&#187;</text><text fill="#000000" font-family="sans-serif" font-size="14" lengthAdjust="spacing" textLength="137.8125" x="687" y="143.8076">Remote stroom-proxy</text></g><!--link stroom_auth_service_dropwiz to stroom_auth_db--><g class="link" data-entity-1="ent0009" data-entity-2="ent0016" data-link-type="dependency" data-source-line="37" id="lnk17"><path d="M244.94,555.5256 C230.56,565.1956 217.29,577.4056 209,592.5156 C165.61,671.5856 215.8628,776.0211 244.7228,825.1911" fill="none" id="stroom_auth_service_dropwiz-to-stroom_auth_db" style="stroke:#181818;stroke-width:1;"/><polygon fill="#181818" points="247.76,830.3656,246.654,820.5791,245.229,826.0535,239.7546,824.6286,247.76,830.3656" style="stroke:#181818;stroke-width:1;"/></g><!--link stroom_dropwiz to stroom_db--><g class="link" data-entity-1="ent0010" data-entity-2="ent0014" data-link-type="dependency" data-source-line="38" id="lnk18"><path d="M520,717.6156 C520,749.8656 520,794.0856 520,824.3356" fill="none" id="stroom_dropwiz-to-stroom_db" style="stroke:#181818;stroke-width:1;"/><polygon fill="#181818" points="520,830.3356,524,821.3356,520,825.3356,516,821.3356,520,830.3356" style="stroke:#181818;stroke-width:1;"/></g><!--link stroom_dropwiz to stroom_stats_db--><g class="link" data-entity-1="ent0010" data-entity-2="ent0015" data-link-type="dependency" data-source-line="39" id="lnk19"><path d="M489.49,717.8356 C478.47,729.5556 466.23,743.2756 456,756.5156 C437.54,780.4056 422.2552,804.5136 409.9652,825.1036" fill="none" id="stroom_dropwiz-to-stroom_stats_db" style="stroke:#181818;stroke-width:1;"/><polygon fill="#181818" points="406.89,830.2556,414.9375,824.5777,409.4527,825.9623,408.0681,820.4775,406.89,830.2556" style="stroke:#181818;stroke-width:1;"/></g><!--link ui_client_browser to nginx--><g class="link" data-entity-1="ent0003" data-entity-2="ent0007" data-link-type="dependency" data-source-line="42" id="lnk20"><path d="M422.68,157.8056 C438.3,192.9456 461.2629,244.6229 476.8829,279.7629" fill="none" id="ui_client_browser-to-nginx" style="stroke:#0000FF;stroke-width:1;"/><polygon fill="#0000FF" points="479.32,285.2456,479.3195,275.3968,477.2891,280.6767,472.0092,278.6463,479.32,285.2456" style="stroke:#0000FF;stroke-width:1;"/><text fill="#000000" font-family="sans-serif" font-size="13" lengthAdjust="spacing" textLength="61.8135" x="458.5078" y="208.0825">HTTPS:443</text><text fill="#000000" font-family="sans-serif" font-size="13" lengthAdjust="spacing" textLength="62.8291" x="458" y="223.2153">/stroom/ui</text></g><!--link api_client_app to nginx--><g class="link" data-entity-1="ent0004" data-entity-2="ent0007" data-link-type="dependency" data-source-line="43" id="lnk21"><path d="M561.64,157.8056 C546.39,192.9456 523.9886,244.6016 508.7386,279.7416" fill="none" id="api_client_app-to-nginx" style="stroke:#0000FF;stroke-width:1;"/><polygon fill="#0000FF" points="506.35,285.2456,513.6023,278.582,508.3405,280.6589,506.2636,275.3971,506.35,285.2456" style="stroke:#0000FF;stroke-width:1;"/><text fill="#000000" font-family="sans-serif" font-size="13" lengthAdjust="spacing" textLength="61.8135" x="550" y="208.0825">HTTPS:443</text><text fill="#000000" font-family="sans-serif" font-size="13" lengthAdjust="spacing" textLength="22.731" x="569.5413" y="223.2153">/api</text></g><!--link dataload_client_app to nginx--><g class="link" data-entity-1="ent0002" data-entity-2="ent0007" data-link-type="dependency" data-source-line="44" id="lnk22"><path d="M242.07,157.5656 C250.71,181.6656 266.02,214.4556 290,234.5156 C298.95,241.9956 304.04,238.5056 315,242.5156 C353.78,256.6956 391.0487,271.9571 424.9487,286.3771" fill="none" id="dataload_client_app-to-nginx" style="stroke:#0000FF;stroke-width:1;"/><polygon fill="#0000FF" points="430.47,288.7256,423.7538,281.5219,425.869,286.7685,420.6224,288.8836,430.47,288.7256" style="stroke:#0000FF;stroke-width:1;"/><text fill="#000000" font-family="sans-serif" font-size="13" lengthAdjust="spacing" textLength="61.8135" x="328.9558" y="208.0825">HTTPS:443</text><text fill="#000000" font-family="sans-serif" font-size="13" lengthAdjust="spacing" textLength="137.7251" x="291" y="223.2153">/datafeed(direct) POSTs</text></g><!--link remote_proxy to nginx--><g class="link" data-entity-1="ent0005" data-entity-2="ent0007" data-link-type="dependency" data-source-line="45" id="lnk23"><path d="M722.73,157.5356 C694.71,179.5356 655.55,209.6156 620,234.5156 C595,252.0256 571.528,267.2797 547.838,282.1897" fill="none" id="remote_proxy-to-nginx" style="stroke:#0000FF;stroke-width:1;"/><polygon fill="#0000FF" points="542.76,285.3856,552.5076,283.977,546.9916,282.7223,548.2463,277.2064,542.76,285.3856" style="stroke:#0000FF;stroke-width:1;"/><text fill="#000000" font-family="sans-serif" font-size="13" lengthAdjust="spacing" textLength="61.8135" x="721.9558" y="200.5825">HTTPS:443</text><text fill="#000000" font-family="sans-serif" font-size="13" lengthAdjust="spacing" textLength="65.7554" x="719.9849" y="215.7153">/feedstatus</text><text fill="#000000" font-family="sans-serif" font-size="13" lengthAdjust="spacing" textLength="137.7251" x="684" y="230.8481">/datafeed(direct) POSTs</text></g><!--link stroom_dropwiz to nginx--><g class="link" data-entity-1="ent0010" data-entity-2="ent0007" data-link-type="dependency" data-source-line="48" id="lnk24"><path d="M574.27,670.5156 C597.67,661.3256 622.87,646.8256 637,624.5156 C675.34,563.9756 664.65,410.5956 643,378.5156 C623.44,349.5356 593.2547,335.8753 561.4147,328.0053" fill="none" id="stroom_dropwiz-to-nginx" style="stroke:#181818;stroke-width:1;"/><polygon fill="#181818" points="555.59,326.5656,563.3673,332.6083,560.4439,327.7654,565.2869,324.8421,555.59,326.5656" style="stroke:#181818;stroke-width:1;"/><text fill="#000000" font-family="sans-serif" font-size="13" lengthAdjust="spacing" textLength="47.9058" x="710.4331" y="506.0825">HTTP:80</text><text fill="#000000" font-family="sans-serif" font-size="13" lengthAdjust="spacing" textLength="85.8457" x="691.4631" y="521.2153">Authentication</text><text fill="#000000" font-family="sans-serif" font-size="13" lengthAdjust="spacing" textLength="56.9131" x="705.9294" y="536.3481">REST calls</text><text fill="#000000" font-family="sans-serif" font-size="13" lengthAdjust="spacing" textLength="140.772" x="664" y="551.481">(to stroom-auth-service)</text></g><!--link nginx to stroom_dropwiz--><g class="link" data-entity-1="ent0007" data-entity-2="ent0010" data-link-type="dependency" data-source-line="58" id="lnk28"><path d="M555.67,328.9056 C633.72,346.3356 762.88,388.9456 813,485.5156 C828.76,515.8956 831.97,534.0256 813,562.5156 C759.76,642.4856 649.1923,669.5152 580.2123,679.1552" fill="none" id="nginx-to-stroom_dropwiz" style="stroke:#008000;stroke-width:1;"/><polygon fill="#008000" points="574.27,679.9856,583.737,682.7015,579.2219,679.2936,582.6298,674.7785,574.27,679.9856" style="stroke:#008000;stroke-width:1;"/><text fill="#000000" font-family="sans-serif" font-size="13" lengthAdjust="spacing" textLength="62.2261" x="840.9014" y="498.5825">HTTP:8080</text><text fill="#000000" font-family="sans-serif" font-size="13" lengthAdjust="spacing" textLength="46.96" x="848.5344" y="513.7153">/stroom</text><text fill="#000000" font-family="sans-serif" font-size="13" lengthAdjust="spacing" textLength="22.731" x="860.6489" y="528.8481">/api</text><text fill="#000000" font-family="sans-serif" font-size="13" lengthAdjust="spacing" textLength="90.0288" x="827" y="543.981">/datafeeddirect</text><text fill="#000000" font-family="sans-serif" font-size="13" lengthAdjust="spacing" textLength="60.874" x="841.5774" y="559.1138">Rev. proxy</text></g><!--link stroom_auth_service_dropwiz to nginx--><g class="link" data-entity-1="ent0009" data-entity-2="ent0007" data-link-type="dependency" data-source-line="50" id="lnk25"><path d="M325.95,492.4056 C338.38,460.9456 361.16,411.9656 393,378.5156 C403.84,367.1256 412.209,360.2768 425.679,351.8168" fill="none" id="stroom_auth_service_dropwiz-to-nginx" style="stroke:#181818;stroke-width:1;"/><polygon fill="#181818" points="430.76,348.6256,421.0111,350.0251,426.5258,351.2849,425.266,356.7997,430.76,348.6256" style="stroke:#181818;stroke-width:1;"/><text fill="#000000" font-family="sans-serif" font-size="13" lengthAdjust="spacing" textLength="47.9058" x="409.7295" y="399.0825">HTTP:80</text><text fill="#000000" font-family="sans-serif" font-size="13" lengthAdjust="spacing" textLength="79.3647" x="394" y="414.2153">Authorisation</text><text fill="#000000" font-family="sans-serif" font-size="13" lengthAdjust="spacing" textLength="56.9131" x="405.2258" y="429.3481">REST calls</text><text fill="#000000" font-family="sans-serif" font-size="13" lengthAdjust="spacing" textLength="65.2158" x="401.0745" y="444.481">(to stroom)</text></g><!--link nginx to stroom_auth_service_dropwiz--><g class="link" data-entity-1="ent0007" data-entity-2="ent0009" data-link-type="dependency" data-source-line="61" id="lnk31"><path d="M430.4,326.6156 C372.04,336.0656 291.21,353.3356 272,378.5156 C246.28,412.2256 266.978,456.1592 288.108,487.5292" fill="none" id="nginx-to-stroom_auth_service_dropwiz" style="stroke:#008000;stroke-width:1;"/><polygon fill="#008000" points="291.46,492.5056,289.7496,482.8064,288.6667,488.3586,283.1145,487.2757,291.46,492.5056" style="stroke:#008000;stroke-width:1;"/><text fill="#000000" font-family="sans-serif" font-size="13" lengthAdjust="spacing" textLength="62.2261" x="273" y="406.5825">HTTP:8099</text><text fill="#000000" font-family="sans-serif" font-size="13" lengthAdjust="spacing" textLength="54.1963" x="277.0149" y="421.7153">/api/auth</text><text fill="#000000" font-family="sans-serif" font-size="13" lengthAdjust="spacing" textLength="60.874" x="273.676" y="436.8481">Rev. proxy</text></g><!--link stroom_proxy_dropwiz to nginx--><g class="link" data-entity-1="ent0011" data-entity-2="ent0007" data-link-type="dependency" data-source-line="52" id="lnk26"><path d="M540.44,492.4056 C547.52,481.3756 554.38,468.4556 558,455.5156 C567.22,422.5556 571.66,409.8956 558,378.5156 C553.14,367.3456 549.3981,361.4917 540.5881,352.9517" fill="none" id="stroom_proxy_dropwiz-to-nginx" style="stroke:#181818;stroke-width:1;"/><polygon fill="#181818" points="536.28,348.7756,539.9581,357.9119,539.8701,352.2557,545.5263,352.1677,536.28,348.7756" style="stroke:#181818;stroke-width:1;"/><text fill="#000000" font-family="sans-serif" font-size="13" lengthAdjust="spacing" textLength="61.8135" x="570.2883" y="399.0825">HTTPS:443</text><text fill="#000000" font-family="sans-serif" font-size="13" lengthAdjust="spacing" textLength="66.3901" x="568" y="414.2153">Feed status</text><text fill="#000000" font-family="sans-serif" font-size="13" lengthAdjust="spacing" textLength="56.9131" x="572.7385" y="429.3481">REST calls</text><text fill="#000000" font-family="sans-serif" font-size="13" lengthAdjust="spacing" textLength="65.2158" x="568.5872" y="444.481">(to stroom)</text></g><!--link nginx to stroom_proxy_dropwiz--><g class="link" data-entity-1="ent0007" data-entity-2="ent0011" data-link-type="dependency" data-source-line="59" id="lnk29"><path d="M486.85,348.7056 C482.29,376.8256 478.11,419.4356 486,455.5156 C488.75,468.1156 491.4645,475.7706 496.9345,487.0106" fill="none" id="nginx-to-stroom_proxy_dropwiz" style="stroke:#008000;stroke-width:1;"/><polygon fill="#008000" points="499.56,492.4056,499.2184,482.5627,497.3721,487.9097,492.025,486.0634,499.56,492.4056" style="stroke:#008000;stroke-width:1;"/><text fill="#000000" font-family="sans-serif" font-size="13" lengthAdjust="spacing" textLength="62.2261" x="487" y="406.5825">HTTP:8090</text><text fill="#000000" font-family="sans-serif" font-size="13" lengthAdjust="spacing" textLength="56.4814" x="489.8723" y="421.7153">/datafeed</text><text fill="#000000" font-family="sans-serif" font-size="13" lengthAdjust="spacing" textLength="60.874" x="487.676" y="436.8481">Rev. proxy</text></g><!--link stroom_log_sender_script to nginx--><g class="link" data-entity-1="ent0012" data-entity-2="ent0007" data-link-type="dependency" data-source-line="54" id="lnk27"><path d="M297.52,317.0156 C339.58,317.0156 384.7,317.0156 424.11,317.0156" fill="none" id="stroom_log_sender_script-to-nginx" style="stroke:#181818;stroke-width:1;"/><polygon fill="#181818" points="430.11,317.0156,421.11,313.0156,425.11,317.0156,421.11,321.0156,430.11,317.0156" style="stroke:#181818;stroke-width:1;"/><text fill="#000000" font-family="sans-serif" font-size="13" lengthAdjust="spacing" textLength="61.8135" x="333.272" y="295.0825">HTTPS:443</text><text fill="#000000" font-family="sans-serif" font-size="13" lengthAdjust="spacing" textLength="96.3574" x="316" y="310.2153">/datafeed POSTs</text></g><!--link nginx to stroom_auth_ui_nginx--><g class="link" data-entity-1="ent0007" data-entity-2="ent0008" data-link-type="dependency" data-source-line="60" id="lnk30"><path d="M430.39,329.0756 C344.28,344.4956 198.73,371.3656 189,378.5156 C150.75,406.6056 130.7132,453.3094 120.0632,486.6994" fill="none" id="nginx-to-stroom_auth_ui_nginx" style="stroke:#008000;stroke-width:1;"/><polygon fill="#008000" points="118.24,492.4156,124.7857,485.0567,119.7594,487.6521,117.164,482.6257,118.24,492.4156" style="stroke:#008000;stroke-width:1;"/><text fill="#000000" font-family="sans-serif" font-size="13" lengthAdjust="spacing" textLength="62.2261" x="190" y="391.5825">HTTP:9443</text><text fill="#000000" font-family="sans-serif" font-size="13" lengthAdjust="spacing" textLength="42.4849" x="199.8706" y="406.7153">/authui</text><text fill="#000000" font-family="sans-serif" font-size="13" lengthAdjust="spacing" textLength="35.8071" x="203.2095" y="421.8481">/static</text><text fill="#000000" font-family="sans-serif" font-size="13" lengthAdjust="spacing" textLength="10.7148" x="215.7556" y="436.981">/s</text><text fill="#000000" font-family="sans-serif" font-size="13" lengthAdjust="spacing" textLength="60.874" x="190.676" y="452.1138">Rev. proxy</text></g><!--link stroom_dropwiz to stroom_auth_service_dropwiz--><g class="link" data-entity-1="ent0010" data-entity-2="ent0009" data-link-type="dependency" data-source-line="64" id="lnk32"><path d="M465.95,659.9156 C447.13,650.0756 426.39,637.9056 409,624.5156 C401.61,618.8256 371.9939,587.0998 347.0539,560.0098" fill="none" id="stroom_dropwiz-to-stroom_auth_service_dropwiz" style="stroke:#808080;stroke-width:1;stroke-dasharray:7,7;"/><polygon fill="#808080" points="342.99,555.5956,346.143,564.9261,346.3765,559.2741,352.0286,559.5077,342.99,555.5956" style="stroke:#808080;stroke-width:1;"/><text fill="#808080" font-family="sans-serif" font-size="13" lengthAdjust="spacing" textLength="62.2261" x="448.7144" y="605.5825">HTTP:8099</text><text fill="#808080" font-family="sans-serif" font-size="13" lengthAdjust="spacing" textLength="139.6548" x="410" y="620.7153">Authorisation REST calls</text></g><!--link stroom_auth_service_dropwiz to stroom_dropwiz--><g class="link" data-entity-1="ent0009" data-entity-2="ent0010" data-link-type="dependency" data-source-line="68" id="lnk34"><path d="M257,555.7256 C228.24,574.9556 203.43,600.5556 223,624.5156 C253.08,661.3456 382.7659,675.8889 459.9159,681.5189" fill="none" id="stroom_auth_service_dropwiz-to-stroom_dropwiz" style="stroke:#808080;stroke-width:1;stroke-dasharray:7,7;"/><polygon fill="#808080" points="465.9,681.9556,457.215,677.3112,460.9133,681.5917,456.6327,685.29,465.9,681.9556" style="stroke:#808080;stroke-width:1;"/><text fill="#808080" font-family="sans-serif" font-size="13" lengthAdjust="spacing" textLength="62.2261" x="265.9548" y="605.5825">HTTP:8080</text><text fill="#808080" font-family="sans-serif" font-size="13" lengthAdjust="spacing" textLength="146.1357" x="224" y="620.7153">Authentication REST calls</text></g><!--link stroom_proxy_dropwiz to stroom_dropwiz--><g class="link" data-entity-1="ent0011" data-entity-2="ent0010" data-link-type="dependency" data-source-line="66" id="lnk33"><path d="M540.44,555.6256 C547.52,566.6556 554.38,579.5756 558,592.5156 C561.83,606.2156 561.94,610.8456 558,624.5156 C555.01,634.8856 552.8815,640.1275 547.1215,649.2175" fill="none" id="stroom_proxy_dropwiz-to-stroom_dropwiz" style="stroke:#808080;stroke-width:1;stroke-dasharray:7,7;"/><polygon fill="#808080" points="543.91,654.2856,552.106,648.8244,546.5863,650.0622,545.3485,644.5424,543.91,654.2856" style="stroke:#808080;stroke-width:1;"/><text fill="#808080" font-family="sans-serif" font-size="13" lengthAdjust="spacing" textLength="62.2261" x="564.082" y="605.5825">HTTP:8080</text><text fill="#808080" font-family="sans-serif" font-size="13" lengthAdjust="spacing" textLength="66.3901" x="562" y="620.7153">Feed status</text></g><?plantuml-src hLVRRkCs47tNLqnJe8c1sawn-v04YO5Sjkq22pH80kn34nYqD97PKAHAKdRSOl-zGrAMALk-B50zs38vvynzI5jk1IP0pzNLezLA5V15vJnb0gvrEkKMKrlf874hE4eBgPAILhcI1hY4orG9fIyceiAH-xWS-eMHXppW3BL1ABLwvvXjmUOQKOxyPmlzwVNL2S-mXJlXkLIQonnapkKxw4Z7WfPx4UrYb34p9SNklU56cO7rZYV7T_ZA9OAT8ioOvgeomCfIK0ISDYYLjYRvmVZGZ5bbfsE3UiPJ7BkjgxFJy_FsTiN3pld7Zn-QdLhsx7IrugnjE4vNbZ0Xl3LIPKZErjhCpy1IgpHzeqq7lSHjmz6dcSj8ZX8rezqZO0OoPfbGB1kdFbzZSWSkBoEdHgCQ_HKdCD5gJZeyaaolCVKguUOhcGPtVVyPWg27iPBlr_M0XR88mVk-zzw3jLyFuTY09fgIpcGkY20W0Orb5e_WNryXWTlNWMSB5H6iTf7pHgy4Q-qkJ_sAmmgtbi3leAdpiy6oh99CgtBE_o6olzYCkThge8hH1m520E54AEhKNWmFTNKOYL0vsI-pElqr0wsEm-hOf9gNbbZ2Yyk88t4LDc466uU566SJGtB5mlmjHgCwE-unL9Oix_PqGeWbLstV6eHP4oFymdwSIy16GhfGtv9lhl5kulcIxCfYlpzQ8qtMqXP9xDnSkaBwD-Tgijc9_Jz_lA7f-a8CeJeluFUdf_l72neppt8OM8SLJzQwSG-Ef9EkWR47vY2lYDb9nbsBzk3-ZySdaxIQUG-5WxiWL6OxNt8CdwL5lUmoUFZq-0HKyiA0LJKjkG0vpOGvMtJ5EmYv9-Y_E3jzbjUKF7ArdZJFSiNxB4-8kQF3UtiBOwicEgtCJaKDTxjxkqZhyFrAmO9b-FQGRZPqN_DyQhUpD_beyX0Vv8jMgGOAIlPlxln-YSg_zg8EHdGIDlKQ2Z3I5z9F7k5i47Hjvs_7QarBSxf6v8VHji-0Dcrym3lRwMV5lJUKtjIzV8UEzHBgK1LVDKAilCwMakHuspLfW0E8xqhlopRfhVV9m9kuU1dijZ3KINsxSe3HJekNzwrd6KDQ3H4rT7CxwqplfeM76RNTZgY3rbLtEl__Mz0UGbsXeFbd465gRNan79Q2ILiLOf3If3TlN9PCim9-ylk6179EzJZnsqlPwAKIOlZX5-9SGQTCPdFDhKK9LbSOxnLAgdIgLO7B6tQyEs7fMwvL9RDRPohSySBv58lS2cRCpQ5oIjDy2Z9VtT-EnqAzxTHeDPE6jYY2Bax2JJHtSIvsehuuiOCitI4PsNghj7mLQexQdNMnw5rzrJY8jn7UJfqSJpdTtR0exG8AB2QKakG_?></g></svg>