<?plantuml 1.2026.1?><svg xmlns="http://www.w3.org/2000/svg" xmlns:xlink="http://www.w3.org/1999/xlink" contentStyleType="text/css" data-diagram-type="DESCRIPTION" height="927px" preserveAspectRatio="none" style="width:1067px;height:927px;background:#FFFFFF;" version="1.1" viewBox="0 0 1067 927" width="1067px" zoomAndPan="magnify"><title>==Stroom Logical Architecture
Client connections in &lt;color:blue&gt;blue&lt;/color&gt;
Reverse proxied connections in &lt;color:green&gt;green&lt;/color&gt;
Effective connections (ignoring nginx reverse proxying) &lt;color:grey&gt;dashed grey&lt;/color&gt;</title><defs/><g><g class="title" data-source-line="2"><text fill="#000000" font-family="sans-serif" font-size="16" font-weight="bold" lengthAdjust="spacing" textLength="253.1484" x="399.9258" y="24.8516">Stroom Logical Architecture</text><text fill="#000000" font-family="sans-serif" font-size="14" font-weight="bold" lengthAdjust="spacing" textLength="165.5938" x="424.125" y="41.6201">Client connections in</text><text fill="#0000FF" font-family="sans-serif" font-size="14" font-weight="bold" lengthAdjust="spacing" textLength="34.2822" x="594.5928" y="41.6201">blue</text><text fill="#000000" font-family="sans-serif" font-size="14" font-weight="bold" lengthAdjust="spacing" textLength="247.96" x="377.1416" y="57.917">Reverse proxied connections in</text><text fill="#008000" font-family="sans-serif" font-size="14" font-weight="bold" lengthAdjust="spacing" textLength="45.8828" x="629.9756" y="57.917">green</text><text fill="#000000" font-family="sans-serif" font-size="14" font-weight="bold" lengthAdjust="spacing" textLength="440.9932" x="254.7134" y="74.2139">Effective connections (ignoring nginx reverse proxying)</text><text fill="#808080" font-family="sans-serif" font-size="14" font-weight="bold" lengthAdjust="spacing" textLength="97.7061" x="700.5806" y="74.2139">dashed grey</text></g><!--cluster stroom estate--><g class="cluster" data-qualified-name="stroom estate" data-source-line="21" id="ent0006"><rect fill="none" height="671.78" rx="2.5" ry="2.5" style="stroke:#181818;stroke-width:1;" width="1054" x="7" y="250.1156"/><text fill="#000000" font-family="sans-serif" font-size="14" font-weight="bold" lengthAdjust="spacing" textLength="110.7832" x="478.6084" y="265.1107">stroom estate</text></g><!--cluster stroom_all_dbs--><g class="cluster" data-qualified-name="stroom estate.stroom_all_dbs" data-source-line="29" id="ent0013"><path d="M200,773.3056 C200,763.3056 407,763.3056 407,763.3056 C407,763.3056 614,763.3056 614,773.3056 L614,887.8956 C614,897.8956 407,897.8956 407,897.8956 C407,897.8956 200,897.8956 200,887.8956 L200,773.3056" fill="none" style="stroke:#181818;stroke-width:1;"/><path d="M200,773.3056 C200,783.3056 407,783.3056 407,783.3056 C407,783.3056 614,783.3056 614,773.3056" fill="none" style="stroke:#181818;stroke-width:1;"/><text fill="#000000" font-family="sans-serif" font-size="14" font-style="italic" lengthAdjust="spacing" textLength="59.2744" x="377.3628" y="798.3007">&#171;mysql&#187;</text><text fill="#000000" font-family="sans-serif" font-size="14" font-weight="bold" lengthAdjust="spacing" textLength="117.1748" x="348.4126" y="814.5976">stroom_all_dbs</text></g><!--entity nginx--><g class="entity" data-qualified-name="stroom estate.nginx" data-source-line="22" id="ent0007"><polygon fill="#F1F1F1" points="450.5,295.1156,460.5,285.1156,587.499,285.1156,587.499,337.7094,577.499,347.7094,450.5,347.7094,450.5,295.1156" style="stroke:#181818;stroke-width:0.5;"/><line style="stroke:#181818;stroke-width:0.5;" x1="577.499" x2="587.499" y1="295.1156" y2="285.1156"/><line style="stroke:#181818;stroke-width:0.5;" x1="450.5" x2="577.499" y1="295.1156" y2="295.1156"/><line style="stroke:#181818;stroke-width:0.5;" x1="577.499" x2="577.499" y1="295.1156" y2="347.7094"/><text fill="#000000" font-family="sans-serif" font-size="14" font-style="italic" lengthAdjust="spacing" textLength="94.999" x="466.5" y="318.1107">&#171;web server&#187;</text><text fill="#000000" font-family="sans-serif" font-size="14" lengthAdjust="spacing" textLength="38.8076" x="494.5957" y="334.4076">nginx</text></g><!--entity stroom_auth_ui_nginx--><g class="entity" data-qualified-name="stroom estate.stroom_auth_ui_nginx" data-source-line="23" id="ent0008"><polygon fill="#F1F1F1" points="23.38,501.9156,33.38,491.9156,210.6261,491.9156,210.6261,544.5094,200.6261,554.5094,23.38,554.5094,23.38,501.9156" style="stroke:#181818;stroke-width:0.5;"/><line style="stroke:#181818;stroke-width:0.5;" x1="200.6261" x2="210.6261" y1="501.9156" y2="491.9156"/><line style="stroke:#181818;stroke-width:0.5;" x1="23.38" x2="200.6261" y1="501.9156" y2="501.9156"/><line style="stroke:#181818;stroke-width:0.5;" x1="200.6261" x2="200.6261" y1="501.9156" y2="554.5094"/><text fill="#000000" font-family="sans-serif" font-size="14" font-style="italic" lengthAdjust="spacing" textLength="94.999" x="64.5035" y="524.9107">&#171;web server&#187;</text><text fill="#000000" font-family="sans-serif" font-size="14" lengthAdjust="spacing" textLength="147.2461" x="38.38" y="541.2076">stroom-auth-ui nginx</text></g><!--entity stroom_auth_service_dropwiz--><g class="entity" data-qualified-name="stroom estate.stroom_auth_service_dropwiz" data-source-line="24" id="ent0009"><polygon fill="#F1F1F1" points="245.31,501.9156,255.31,491.9156,426.684,491.9156,426.684,544.5094,416.684,554.5094,245.31,554.5094,245.31,501.9156" style="stroke:#181818;stroke-width:0.5;"/><line style="stroke:#181818;stroke-width:0.5;" x1="416.684" x2="426.684" y1="501.9156" y2="491.9156"/><line style="stroke:#181818;stroke-width:0.5;" x1="245.31" x2="416.684" y1="501.9156" y2="501.9156"/><line style="stroke:#181818;stroke-width:0.5;" x1="416.684" x2="416.684" y1="501.9156" y2="554.5094"/><text fill="#000000" font-family="sans-serif" font-size="14" font-style="italic" lengthAdjust="spacing" textLength="77.417" x="292.2885" y="524.9107">&#171;java app&#187;</text><text fill="#000000" font-family="sans-serif" font-size="14" lengthAdjust="spacing" textLength="141.374" x="260.31" y="541.2076">stroom-auth-service</text></g><!--entity stroom_dropwiz--><g class="entity" data-qualified-name="stroom estate.stroom_dropwiz" data-source-line="25" id="ent0010"><polygon fill="#F1F1F1" points="486.29,663.7056,496.29,653.7056,605.707,653.7056,605.707,706.2994,595.707,716.2994,486.29,716.2994,486.29,663.7056" style="stroke:#181818;stroke-width:0.5;"/><line style="stroke:#181818;stroke-width:0.5;" x1="595.707" x2="605.707" y1="663.7056" y2="653.7056"/><line style="stroke:#181818;stroke-width:0.5;" x1="486.29" x2="595.707" y1="663.7056" y2="663.7056"/><line style="stroke:#181818;stroke-width:0.5;" x1="595.707" x2="595.707" y1="663.7056" y2="716.2994"/><text fill="#000000" font-family="sans-serif" font-size="14" font-style="italic" lengthAdjust="spacing" textLength="77.417" x="502.29" y="686.7007">&#171;java app&#187;</text><text fill="#000000" font-family="sans-serif" font-size="14" lengthAdjust="spacing" textLength="49.3076" x="516.3447" y="702.9976">stroom</text></g><!--entity stroom_proxy_dropwiz--><g class="entity" data-qualified-name="stroom estate.stroom_proxy_dropwiz" data-source-line="26" id="ent0011"><polygon fill="#F1F1F1" points="461.93,501.9156,471.93,491.9156,644.0628,491.9156,644.0628,544.5094,634.0628,554.5094,461.93,554.5094,461.93,501.9156" style="stroke:#181818;stroke-width:0.5;"/><line style="stroke:#181818;stroke-width:0.5;" x1="634.0628" x2="644.0628" y1="501.9156" y2="491.9156"/><line style="stroke:#181818;stroke-width:0.5;" x1="461.93" x2="634.0628" y1="501.9156" y2="501.9156"/><line style="stroke:#181818;stroke-width:0.5;" x1="634.0628" x2="634.0628" y1="501.9156" y2="554.5094"/><text fill="#000000" font-family="sans-serif" font-size="14" font-style="italic" lengthAdjust="spacing" textLength="77.417" x="509.2879" y="524.9107">&#171;java app&#187;</text><text fill="#000000" font-family="sans-serif" font-size="14" lengthAdjust="spacing" textLength="142.1328" x="476.93" y="541.2076">stroom-proxy (local)</text></g><!--entity stroom_log_sender_script--><g class="entity" data-qualified-name="stroom estate.stroom_log_sender_script" data-source-line="27" id="ent0012"><polygon fill="#F1F1F1" points="138.61,295.1156,148.61,285.1156,307.3991,285.1156,307.3991,337.7094,297.3991,347.7094,138.61,347.7094,138.61,295.1156" style="stroke:#181818;stroke-width:0.5;"/><line style="stroke:#181818;stroke-width:0.5;" x1="297.3991" x2="307.3991" y1="295.1156" y2="285.1156"/><line style="stroke:#181818;stroke-width:0.5;" x1="138.61" x2="297.3991" y1="295.1156" y2="295.1156"/><line style="stroke:#181818;stroke-width:0.5;" x1="297.3991" x2="297.3991" y1="295.1156" y2="347.7094"/><text fill="#000000" font-family="sans-serif" font-size="14" font-style="italic" lengthAdjust="spacing" textLength="56.2939" x="189.8576" y="318.1107">&#171;script&#187;</text><text fill="#000000" font-family="sans-serif" font-size="14" lengthAdjust="spacing" textLength="128.7891" x="153.61" y="334.4076">stroom-log-sender</text></g><!--entity stroom_db--><g class="entity" data-qualified-name="stroom estate.stroom_all_dbs.stroom_db" data-source-line="30" id="ent0014"><rect fill="#F1F1F1" height="52.5938" rx="35" ry="35" style="stroke:#181818;stroke-width:0.5;" width="104.1885" x="493.91" y="829.3056"/><text fill="#000000" font-family="sans-serif" font-size="14" font-style="italic" lengthAdjust="spacing" textLength="82.1885" x="504.91" y="852.3007">&#171;database&#187;</text><text fill="#000000" font-family="sans-serif" font-size="14" lengthAdjust="spacing" textLength="49.3076" x="521.3504" y="868.5976">stroom</text></g><!--entity stroom_stats_db--><g class="entity" data-qualified-name="stroom estate.stroom_all_dbs.stroom_stats_db" data-source-line="31" id="ent0015"><rect fill="#F1F1F1" height="52.5938" rx="35" ry="35" style="stroke:#181818;stroke-width:0.5;" width="104.1885" x="354.91" y="829.3056"/><text fill="#000000" font-family="sans-serif" font-size="14" font-style="italic" lengthAdjust="spacing" textLength="82.1885" x="365.91" y="852.3007">&#171;database&#187;</text><text fill="#000000" font-family="sans-serif" font-size="14" lengthAdjust="spacing" textLength="34.1455" x="389.9315" y="868.5976">stats</text></g><!--entity stroom_auth_db--><g class="entity" data-qualified-name="stroom estate.stroom_all_dbs.stroom_auth_db" data-source-line="32" id="ent0016"><rect fill="#F1F1F1" height="52.5938" rx="35" ry="35" style="stroke:#181818;stroke-width:0.5;" width="104.1885" x="215.91" y="829.3056"/><text fill="#000000" font-family="sans-serif" font-size="14" font-style="italic" lengthAdjust="spacing" textLength="82.1885" x="226.91" y="852.3007">&#171;database&#187;</text><text fill="#000000" font-family="sans-serif" font-size="14" lengthAdjust="spacing" textLength="31.8145" x="252.097" y="868.5976">auth</text></g><!--entity dataload_client_app--><g class="entity" data-qualified-name="dataload_client_app" data-source-line="16" id="ent0002"><polygon fill="#F1F1F1" points="159.16,104.5156,169.16,94.5156,312.8485,94.5156,312.8485,147.1094,302.8485,157.1094,159.16,157.1094,159.16,104.5156" style="stroke:#181818;stroke-width:0.5;"/><line style="stroke:#181818;stroke-width:0.5;" x1="302.8485" x2="312.8485" y1="104.5156" y2="94.5156"/><line style="stroke:#181818;stroke-width:0.5;" x1="159.16" x2="302.8485" y1="104.5156" y2="104.5156"/><line style="stroke:#181818;stroke-width:0.5;" x1="302.8485" x2="302.8485" y1="104.5156" y2="157.1094"/><text fill="#000000" font-family="sans-serif" font-size="14" font-style="italic" lengthAdjust="spacing" textLength="94.5068" x="183.7508" y="127.5107">&#171;application&#187;</text><text fill="#000000" font-family="sans-serif" font-size="14" lengthAdjust="spacing" textLength="113.6885" x="174.16" y="143.8076">Event generator</text></g><!--entity ui_client_browser--><g class="entity" data-qualified-name="ui_client_browser" data-source-line="17" id="ent0003"><polygon fill="#F1F1F1" points="352.5,104.5156,362.5,94.5156,501.5029,94.5156,501.5029,147.1094,491.5029,157.1094,352.5,157.1094,352.5,104.5156" style="stroke:#181818;stroke-width:0.5;"/><line style="stroke:#181818;stroke-width:0.5;" x1="491.5029" x2="501.5029" y1="104.5156" y2="94.5156"/><line style="stroke:#181818;stroke-width:0.5;" x1="352.5" x2="491.5029" y1="104.5156" y2="104.5156"/><line style="stroke:#181818;stroke-width:0.5;" x1="491.5029" x2="491.5029" y1="104.5156" y2="157.1094"/><text fill="#000000" font-family="sans-serif" font-size="14" font-style="italic" lengthAdjust="spacing" textLength="107.0029" x="368.5" y="127.5107">&#171;web browser&#187;</text><text fill="#000000" font-family="sans-serif" font-size="14" lengthAdjust="spacing" textLength="92.1143" x="375.9443" y="143.8076">Web browser</text></g><!--entity api_client_app--><g class="entity" data-qualified-name="api_client_app" data-source-line="18" id="ent0004"><polygon fill="#F1F1F1" points="536.75,104.5156,546.75,94.5156,673.2568,94.5156,673.2568,147.1094,663.2568,157.1094,536.75,157.1094,536.75,104.5156" style="stroke:#181818;stroke-width:0.5;"/><line style="stroke:#181818;stroke-width:0.5;" x1="663.2568" x2="673.2568" y1="104.5156" y2="94.5156"/><line style="stroke:#181818;stroke-width:0.5;" x1="536.75" x2="663.2568" y1="104.5156" y2="104.5156"/><line style="stroke:#181818;stroke-width:0.5;" x1="663.2568" x2="663.2568" y1="104.5156" y2="157.1094"/><text fill="#000000" font-family="sans-serif" font-size="14" font-style="italic" lengthAdjust="spacing" textLength="94.5068" x="552.75" y="127.5107">&#171;application&#187;</text><text fill="#000000" font-family="sans-serif" font-size="14" lengthAdjust="spacing" textLength="65.0508" x="567.478" y="143.8076">API client</text></g><!--entity remote_proxy--><g class="entity" data-qualified-name="remote_proxy" data-source-line="19" id="ent0005"><polygon fill="#F1F1F1" points="708.38,104.5156,718.38,94.5156,901.6144,94.5156,901.6144,147.1094,891.6144,157.1094,708.38,157.1094,708.38,104.5156" style="stroke:#181818;stroke-width:0.5;"/><line style="stroke:#181818;stroke-width:0.5;" x1="891.6144" x2="901.6144" y1="104.5156" y2="94.5156"/><line style="stroke:#181818;stroke-width:0.5;" x1="708.38" x2="891.6144" y1="104.5156" y2="104.5156"/><line style="stroke:#181818;stroke-width:0.5;" x1="891.6144" x2="891.6144" y1="104.5156" y2="157.1094"/><text fill="#000000" font-family="sans-serif" font-size="14" font-style="italic" lengthAdjust="spacing" textLength="94.5068" x="752.7438" y="127.5107">&#171;application&#187;</text><text fill="#000000" font-family="sans-serif" font-size="14" lengthAdjust="spacing" textLength="153.2344" x="723.38" y="143.8076">Remote stroom-proxy</text></g><!--link stroom_auth_service_dropwiz to stroom_auth_db--><g class="link" data-entity-1="ent0009" data-entity-2="ent0016" data-link-type="dependency" data-source-line="37" id="lnk17"><path d="M245.12,553.2856 C228.37,562.8456 213.02,575.3756 203,591.7056 C155.4,669.2356 213.5746,774.7615 246.4346,824.1115" fill="none" id="stroom_auth_service_dropwiz-to-stroom_auth_db" style="stroke:#181818;stroke-width:1;"/><polygon fill="#181818" points="249.76,829.1056,248.1013,819.3974,246.9888,824.9438,241.4425,823.8313,249.76,829.1056" style="stroke:#181818;stroke-width:1;"/></g><!--link stroom_dropwiz to stroom_db--><g class="link" data-entity-1="ent0010" data-entity-2="ent0014" data-link-type="dependency" data-source-line="38" id="lnk18"><path d="M546,716.5356 C546,748.7056 546,792.7956 546,822.9856" fill="none" id="stroom_dropwiz-to-stroom_db" style="stroke:#181818;stroke-width:1;"/><polygon fill="#181818" points="546,828.9856,550,819.9856,546,823.9856,542,819.9856,546,828.9856" style="stroke:#181818;stroke-width:1;"/></g><!--link stroom_dropwiz to stroom_stats_db--><g class="link" data-entity-1="ent0010" data-entity-2="ent0015" data-link-type="dependency" data-source-line="39" id="lnk19"><path d="M512.67,716.5656 C500.61,728.2356 487.22,741.9456 476,755.3056 C456.01,779.0856 439.3131,803.5076 426.0531,824.1476" fill="none" id="stroom_dropwiz-to-stroom_stats_db" style="stroke:#181818;stroke-width:1;"/><polygon fill="#181818" points="422.81,829.1956,431.0399,823.7856,425.5126,824.9889,424.3092,819.4615,422.81,829.1956" style="stroke:#181818;stroke-width:1;"/></g><!--link ui_client_browser to nginx--><g class="link" data-entity-1="ent0003" data-entity-2="ent0007" data-link-type="dependency" data-source-line="42" id="lnk20"><path d="M440.9,157.4956 C450.75,179.0456 464.41,208.4756 477,234.1156 C485.26,250.9456 492.0503,264.2084 499.9703,279.3584" fill="none" id="ui_client_browser-to-nginx" style="stroke:#0000FF;stroke-width:1;"/><polygon fill="#0000FF" points="502.75,284.6756,502.1253,274.8466,500.4336,280.2446,495.0356,278.5529,502.75,284.6756" style="stroke:#0000FF;stroke-width:1;"/><text fill="#000000" font-family="sans-serif" font-size="13" lengthAdjust="spacing" textLength="70.9414" x="478" y="207.6825">HTTPS:443</text><text fill="#000000" font-family="sans-serif" font-size="13" lengthAdjust="spacing" textLength="66.3965" x="480.2725" y="222.8153">/stroom/ui</text></g><!--link api_client_app to nginx--><g class="link" data-entity-1="ent0004" data-entity-2="ent0007" data-link-type="dependency" data-source-line="43" id="lnk21"><path d="M590.99,157.5356 C575,192.6056 551.4791,244.1763 535.4891,279.2463" fill="none" id="api_client_app-to-nginx" style="stroke:#0000FF;stroke-width:1;"/><polygon fill="#0000FF" points="533,284.7056,540.3733,278.1761,535.0743,280.1562,533.0942,274.8572,533,284.7056" style="stroke:#0000FF;stroke-width:1;"/><text fill="#000000" font-family="sans-serif" font-size="13" lengthAdjust="spacing" textLength="70.9414" x="578.18" y="207.6825">HTTPS:443</text><text fill="#000000" font-family="sans-serif" font-size="13" lengthAdjust="spacing" textLength="24.21" x="601.5457" y="222.8153">/api</text></g><!--link dataload_client_app to nginx--><g class="link" data-entity-1="ent0002" data-entity-2="ent0007" data-link-type="dependency" data-source-line="44" id="lnk22"><path d="M243.6,157.3356 C251.26,181.7456 265.54,214.9456 290,234.1156 C302.56,243.9556 309.72,237.5056 325,242.1156 C367.23,254.8556 407.8847,269.9685 444.6247,284.5785" fill="none" id="dataload_client_app-to-nginx" style="stroke:#0000FF;stroke-width:1;"/><polygon fill="#0000FF" points="450.2,286.7956,443.315,279.7531,445.5539,284.9481,440.3589,287.1869,450.2,286.7956" style="stroke:#0000FF;stroke-width:1;"/><text fill="#000000" font-family="sans-serif" font-size="13" lengthAdjust="spacing" textLength="70.9414" x="333.1548" y="207.6825">HTTPS:443</text><text fill="#000000" font-family="sans-serif" font-size="13" lengthAdjust="spacing" textLength="155.251" x="291" y="222.8153">/datafeed(direct) POSTs</text></g><!--link remote_proxy to nginx--><g class="link" data-entity-1="ent0005" data-entity-2="ent0007" data-link-type="dependency" data-source-line="45" id="lnk23"><path d="M764.9,157.4756 C735.53,179.5356 694.43,209.5956 657,234.1156 C630.13,251.7056 604.6198,266.982 578.9998,281.732" fill="none" id="remote_proxy-to-nginx" style="stroke:#0000FF;stroke-width:1;"/><polygon fill="#0000FF" points="573.8,284.7256,583.5955,283.7017,578.1332,282.2309,579.604,276.7686,573.8,284.7256" style="stroke:#0000FF;stroke-width:1;"/><text fill="#000000" font-family="sans-serif" font-size="13" lengthAdjust="spacing" textLength="70.9414" x="766.0948" y="200.1825">HTTPS:443</text><text fill="#000000" font-family="sans-serif" font-size="13" lengthAdjust="spacing" textLength="73.1504" x="764.9903" y="215.3153">/feedstatus</text><text fill="#000000" font-family="sans-serif" font-size="13" lengthAdjust="spacing" textLength="155.251" x="723.94" y="230.4481">/datafeed(direct) POSTs</text></g><!--link stroom_dropwiz to nginx--><g class="link" data-entity-1="ent0010" data-entity-2="ent0007" data-link-type="dependency" data-source-line="48" id="lnk24"><path d="M606.2,672.1156 C633.43,663.4556 663.21,648.6956 680,623.7056 C720.48,563.4756 708.63,409.9356 686,377.7056 C663.77,346.0456 629.0818,332.1209 593.5018,324.9509" fill="none" id="stroom_dropwiz-to-nginx" style="stroke:#181818;stroke-width:1;"/><polygon fill="#181818" points="587.62,323.7656,595.6525,329.4647,592.5215,324.7534,597.2328,321.6224,587.62,323.7656" style="stroke:#181818;stroke-width:1;"/><text fill="#000000" font-family="sans-serif" font-size="13" lengthAdjust="spacing" textLength="54.4185" x="759.802" y="505.2725">HTTP:80</text><text fill="#000000" font-family="sans-serif" font-size="13" lengthAdjust="spacing" textLength="95.4307" x="739.2959" y="520.4053">Authentication</text><text fill="#000000" font-family="sans-serif" font-size="13" lengthAdjust="spacing" textLength="66.6821" x="753.6702" y="535.5381">REST calls</text><text fill="#000000" font-family="sans-serif" font-size="13" lengthAdjust="spacing" textLength="158.6025" x="707.71" y="550.671">(to stroom-auth-service)</text></g><!--link nginx to stroom_dropwiz--><g class="link" data-entity-1="ent0007" data-entity-2="ent0010" data-link-type="dependency" data-source-line="58" id="lnk28"><path d="M587.83,325.9756 C674.07,340.9456 817.51,380.9156 875,484.7056 C891.58,514.6456 894.53,533.6056 875,561.7056 C814.22,649.1456 689.0948,673.6462 611.9948,680.7362" fill="none" id="nginx-to-stroom_dropwiz" style="stroke:#008000;stroke-width:1;"/><polygon fill="#008000" points="606.02,681.2856,615.3485,684.4447,610.999,680.8278,614.6159,676.4783,606.02,681.2856" style="stroke:#008000;stroke-width:1;"/><text fill="#000000" font-family="sans-serif" font-size="13" lengthAdjust="spacing" textLength="70.9604" x="904.0585" y="497.7725">HTTP:8080</text><text fill="#000000" font-family="sans-serif" font-size="13" lengthAdjust="spacing" textLength="50.1655" x="914.456" y="512.9053">/stroom</text><text fill="#000000" font-family="sans-serif" font-size="13" lengthAdjust="spacing" textLength="24.21" x="927.4338" y="528.0381">/api</text><text fill="#000000" font-family="sans-serif" font-size="13" lengthAdjust="spacing" textLength="99.9375" x="889.57" y="543.171">/datafeeddirect</text><text fill="#000000" font-family="sans-serif" font-size="13" lengthAdjust="spacing" textLength="69.9258" x="904.5759" y="558.3038">Rev. proxy</text></g><!--link stroom_auth_service_dropwiz to nginx--><g class="link" data-entity-1="ent0009" data-entity-2="ent0007" data-link-type="dependency" data-source-line="50" id="lnk25"><path d="M345.4,491.6056 C356.4,459.9156 377.25,410.5456 409,377.7056 C420.73,365.5756 430.2347,358.2496 445.0447,349.7596" fill="none" id="stroom_auth_service_dropwiz-to-nginx" style="stroke:#181818;stroke-width:1;"/><polygon fill="#181818" points="450.25,346.7756,440.4526,347.7814,445.9122,349.2623,444.4313,354.7219,450.25,346.7756" style="stroke:#181818;stroke-width:1;"/><text fill="#000000" font-family="sans-serif" font-size="13" lengthAdjust="spacing" textLength="54.4185" x="426.3008" y="398.2725">HTTP:80</text><text fill="#000000" font-family="sans-serif" font-size="13" lengthAdjust="spacing" textLength="87.02" x="410" y="413.4053">Authorisation</text><text fill="#000000" font-family="sans-serif" font-size="13" lengthAdjust="spacing" textLength="66.6821" x="420.1689" y="428.5381">REST calls</text><text fill="#000000" font-family="sans-serif" font-size="13" lengthAdjust="spacing" textLength="73.1123" x="416.9539" y="443.671">(to stroom)</text></g><!--link nginx to stroom_auth_service_dropwiz--><g class="link" data-entity-1="ent0007" data-entity-2="ent0009" data-link-type="dependency" data-source-line="61" id="lnk31"><path d="M450.18,325.3856 C387.22,334.2656 300.81,350.9956 280,377.7056 C258.97,404.7056 268.39,422.5156 280,454.7056 C284.86,468.1756 289.7701,476.3118 299.0101,486.9718" fill="none" id="nginx-to-stroom_auth_service_dropwiz" style="stroke:#008000;stroke-width:1;"/><polygon fill="#008000" points="302.94,491.5056,300.0677,482.0849,299.6651,487.7274,294.0226,487.3248,302.94,491.5056" style="stroke:#008000;stroke-width:1;"/><text fill="#000000" font-family="sans-serif" font-size="13" lengthAdjust="spacing" textLength="70.9604" x="281" y="405.7725">HTTP:8099</text><text fill="#000000" font-family="sans-serif" font-size="13" lengthAdjust="spacing" textLength="58.1318" x="287.4143" y="420.9053">/api/auth</text><text fill="#000000" font-family="sans-serif" font-size="13" lengthAdjust="spacing" textLength="69.9258" x="281.5173" y="436.0381">Rev. proxy</text></g><!--link stroom_proxy_dropwiz to nginx--><g class="link" data-entity-1="ent0011" data-entity-2="ent0007" data-link-type="dependency" data-source-line="52" id="lnk26"><path d="M575.3,491.4456 C582.04,480.4156 588.57,467.5156 592,454.7056 C600.86,421.6556 606.58,408.6656 592,377.7056 C586.68,366.4056 582.5783,360.4761 573.1183,352.1261" fill="none" id="stroom_proxy_dropwiz-to-nginx" style="stroke:#181818;stroke-width:1;"/><polygon fill="#181818" points="568.62,348.1556,572.7205,357.1103,572.3686,351.4644,578.0145,351.1125,568.62,348.1556" style="stroke:#181818;stroke-width:1;"/><text fill="#000000" font-family="sans-serif" font-size="13" lengthAdjust="spacing" textLength="70.9414" x="604.3512" y="398.2725">HTTPS:443</text><text fill="#000000" font-family="sans-serif" font-size="13" lengthAdjust="spacing" textLength="75.8037" x="601.92" y="413.4053">Feed status</text><text fill="#000000" font-family="sans-serif" font-size="13" lengthAdjust="spacing" textLength="66.6821" x="606.4808" y="428.5381">REST calls</text><text fill="#000000" font-family="sans-serif" font-size="13" lengthAdjust="spacing" textLength="73.1123" x="603.2657" y="443.671">(to stroom)</text></g><!--link nginx to stroom_proxy_dropwiz--><g class="link" data-entity-1="ent0007" data-entity-2="ent0011" data-link-type="dependency" data-source-line="59" id="lnk29"><path d="M511.93,348.0256 C506.7,376.2656 502.03,419.0856 512,454.7056 C515.62,467.6456 519.2368,475.5277 526.3168,486.5477" fill="none" id="nginx-to-stroom_proxy_dropwiz" style="stroke:#008000;stroke-width:1;"/><polygon fill="#008000" points="529.56,491.5956,528.0606,481.8616,526.8574,487.389,521.33,486.1858,529.56,491.5956" style="stroke:#008000;stroke-width:1;"/><text fill="#000000" font-family="sans-serif" font-size="13" lengthAdjust="spacing" textLength="70.9604" x="513" y="405.7725">HTTP:8090</text><text fill="#000000" font-family="sans-serif" font-size="13" lengthAdjust="spacing" textLength="62.4863" x="517.2371" y="420.9053">/datafeed</text><text fill="#000000" font-family="sans-serif" font-size="13" lengthAdjust="spacing" textLength="69.9258" x="513.5173" y="436.0381">Rev. proxy</text></g><!--link stroom_log_sender_script to nginx--><g class="link" data-entity-1="ent0012" data-entity-2="ent0007" data-link-type="dependency" data-source-line="54" id="lnk27"><path d="M307.82,316.4156 C352.92,316.4156 401.66,316.4156 444.1,316.4156" fill="none" id="stroom_log_sender_script-to-nginx" style="stroke:#181818;stroke-width:1;"/><polygon fill="#181818" points="450.1,316.4156,441.1,312.4156,445.1,316.4156,441.1,320.4156,450.1,316.4156" style="stroke:#181818;stroke-width:1;"/><text fill="#000000" font-family="sans-serif" font-size="13" lengthAdjust="spacing" textLength="70.9414" x="343.8074" y="294.4825">HTTPS:443</text><text fill="#000000" font-family="sans-serif" font-size="13" lengthAdjust="spacing" textLength="107.6563" x="325.45" y="309.6153">/datafeed POSTs</text></g><!--link nginx to stroom_auth_ui_nginx--><g class="link" data-entity-1="ent0007" data-entity-2="ent0008" data-link-type="dependency" data-source-line="60" id="lnk30"><path d="M450.01,328.3556 C356.1,343.4856 198.43,369.8256 188,377.7056 C150.98,405.6856 133.6299,452.3287 124.9399,485.7487" fill="none" id="nginx-to-stroom_auth_ui_nginx" style="stroke:#008000;stroke-width:1;"/><polygon fill="#008000" points="123.43,491.5556,129.5662,483.8519,124.6883,486.7165,121.8236,481.8387,123.43,491.5556" style="stroke:#008000;stroke-width:1;"/><text fill="#000000" font-family="sans-serif" font-size="13" lengthAdjust="spacing" textLength="70.9604" x="189" y="390.7725">HTTP:9443</text><text fill="#000000" font-family="sans-serif" font-size="13" lengthAdjust="spacing" textLength="45.7729" x="201.5938" y="405.9053">/authui</text><text fill="#000000" font-family="sans-serif" font-size="13" lengthAdjust="spacing" textLength="40.0728" x="204.4438" y="421.0381">/static</text><text fill="#000000" font-family="sans-serif" font-size="13" lengthAdjust="spacing" textLength="11.1528" x="218.9038" y="436.171">/s</text><text fill="#000000" font-family="sans-serif" font-size="13" lengthAdjust="spacing" textLength="69.9258" x="189.5173" y="451.3038">Rev. proxy</text></g><!--link stroom_dropwiz to stroom_auth_service_dropwiz--><g class="link" data-entity-1="ent0010" data-entity-2="ent0009" data-link-type="dependency" data-source-line="64" id="lnk32"><path d="M485.83,659.5456 C465.53,649.8856 443.38,637.7256 425,623.7056 C411,613.0256 386.1046,584.5437 365.0546,559.4337" fill="none" id="stroom_dropwiz-to-stroom_auth_service_dropwiz" style="stroke:#808080;stroke-width:1;stroke-dasharray:7,7;"/><polygon fill="#808080" points="361.2,554.8356,363.9165,564.3024,364.4122,558.6673,370.0473,559.163,361.2,554.8356" style="stroke:#808080;stroke-width:1;"/><text fill="#808080" font-family="sans-serif" font-size="13" lengthAdjust="spacing" textLength="70.9604" x="469.437" y="604.7725">HTTP:8099</text><text fill="#808080" font-family="sans-serif" font-size="13" lengthAdjust="spacing" textLength="157.8345" x="426" y="619.9053">Authorisation REST calls</text></g><!--link stroom_auth_service_dropwiz to stroom_dropwiz--><g class="link" data-entity-1="ent0009" data-entity-2="ent0010" data-link-type="dependency" data-source-line="68" id="lnk34"><path d="M259.9,554.9356 C225.74,573.1856 197.42,597.7856 219,623.7056 C252.29,663.6956 394.8185,676.9462 479.7985,681.4762" fill="none" id="stroom_auth_service_dropwiz-to-stroom_dropwiz" style="stroke:#808080;stroke-width:1;stroke-dasharray:7,7;"/><polygon fill="#808080" points="485.79,681.7956,477.0157,677.3222,480.7971,681.5295,476.5898,685.3109,485.79,681.7956" style="stroke:#808080;stroke-width:1;"/><text fill="#808080" font-family="sans-serif" font-size="13" lengthAdjust="spacing" textLength="70.9604" x="267.6423" y="604.7725">HTTP:8080</text><text fill="#808080" font-family="sans-serif" font-size="13" lengthAdjust="spacing" textLength="166.2451" x="220" y="619.9053">Authentication REST calls</text></g><!--link stroom_proxy_dropwiz to stroom_dropwiz--><g class="link" data-entity-1="ent0011" data-entity-2="ent0010" data-link-type="dependency" data-source-line="66" id="lnk33"><path d="M576.83,554.8556 C589.06,574.3856 599.9,600.3256 592,623.7056 C588.42,634.3156 585.7734,639.7408 578.9934,648.6508" fill="none" id="stroom_proxy_dropwiz-to-stroom_dropwiz" style="stroke:#808080;stroke-width:1;stroke-dasharray:7,7;"/><polygon fill="#808080" points="575.36,653.4256,583.9932,648.6857,578.3878,649.4466,577.6268,643.8412,575.36,653.4256" style="stroke:#808080;stroke-width:1;"/><text fill="#808080" font-family="sans-serif" font-size="13" lengthAdjust="spacing" textLength="70.9604" x="598.1116" y="604.7725">HTTP:8080</text><text fill="#808080" font-family="sans-serif" font-size="13" lengthAdjust="spacing" textLength="75.8037" x="595.69" y="619.9053">Feed status</text></g><?plantuml-src hLVRRkCs47tNLqnJe8c1sawn-v04YO5Sjkq22pH80kn34nYqD97PKAHAKdRSOl-zGrAMALk-B50zs38vvynzI5jk1IP0pzNLezLA5V15vJnb0gvrEkKMKrlf874hE4eBgPAILhcI1hY4orG9fIyceiAH-xWS-eMHXppW3BL1ABLwvvXjmUOQKOxyPmlzwVNL2S-mXJlXkLIQonnapkKxw4Z7WfPx4UrYb34p9SNklU56cO7rZYV7T_ZA9OAT8ioOvgeomCfIK0ISDYYLjYRvmVZGZ5bbfsE3UiPJ7BkjgxFJy_FsTiN3pld7Zn-QdLhsx7IrugnjE4vNbZ0Xl3LIPKZErjhCpy1IgpHzeqq7lSHjmz6dcSj8ZX8rezqZO0OoPfbGB1kdFbzZSWSkBoEdHgCQ_HKdCD5gJZeyaaolCVKguUOhcGPtVVyPWg27iPBlr_M0XR88mVk-zzw3jLyFuTY09fgIpcGkY20W0Orb5e_WNryXWTlNWMSB5H6iTf7pHgy4Q-qkJ_sAmmgtbi3leAdpiy6oh99CgtBE_o6olzYCkThge8hH1m520E54AEhKNWmFTNKOYL0vsI-pElqr0wsEm-hOf9gNbbZ2Yyk88t4LDc466uU566SJGtB5mlmjHgCwE-unL9Oix_PqGeWbLstV6eHP4oFymdwSIy16GhfGtv9lhl5kulcIxCfYlpzQ8qtMqXP9xDnSkaBwD-Tgijc9_Jz_lA7f-a8CeJeluFUdf_l72neppt8OM8SLJzQwSG-Ef9EkWR47vY2lYDb9nbsBzk3-ZySdaxIQUG-5WxiWL6OxNt8CdwL5lUmoUFZq-0HKyiA0LJKjkG0vpOGvMtJ5EmYv9-Y_E3jzbjUKF7ArdZJFSiNxB4-8kQF3UtiBOwicEgtCJaKDTxjxkqZhyFrAmO9b-FQGRZPqN_DyQhUpD_beyX0Vv8jMgGOAIlPlxln-YSg_zg8EHdGIDlKQ2Z3I5z9F7k5i47Hjvs_7QarBSxf6v8VHji-0Dcrym3lRwMV5lJUKtjIzV8UEzHBgK1LVDKAilCwMakHuspLfW0E8xqhlopRfhVV9m9kuU1dijZ3KINsxSe3HJekNzwrd6KDQ3H4rT7CxwqplfeM76RNTZgY3rbLtEl__Mz0UGbsXeFbd465gRNan79Q2ILiLOf3If3TlN9PCim9-ylk6179EzJZnsqlPwAKIOlZX5-9SGQTCPdFDhKK9LbSOxnLAgdIgLO7B6tQyEs7fMwvL9RDRPohSySBv58lS2cRCpQ5oIjDy2Z9VtT-EnqAzxTHeDPE6jYY2Bax2JJHtSIvsehuuiOCitI4PsNghj7mLQexQdNMnw5rzrJY8jn7UJfqSJpdTtR0exG8AB2QKakG_?></g></svg>