<?plantuml 1.2026.1?><svg xmlns="http://www.w3.org/2000/svg" xmlns:xlink="http://www.w3.org/1999/xlink" contentStyleType="text/css" data-diagram-type="DESCRIPTION" height="851px" preserveAspectRatio="none" style="width:863px;height:851px;background:#FFFFFF;" version="1.1" viewBox="0 0 863 851" width="863px" zoomAndPan="magnify"><title>==Stroom single-node deployment
All services running in docker containers</title><defs/><g><g class="title" data-source-line="2"><text fill="#000000" font-family="sans-serif" font-size="16" font-weight="bold" lengthAdjust="spacing" textLength="246.7813" x="301.1094" y="24.8516">Stroom single-node deployment</text><text fill="#000000" font-family="sans-serif" font-size="14" font-weight="bold" lengthAdjust="spacing" textLength="275.0166" x="286.9917" y="41.6201">All services running in docker containers</text></g><!--cluster dataload_client_host--><g class="cluster" data-qualified-name="dataload_client_host" data-source-line="13" id="ent0002"><polygon fill="none" points="86,71.9219,96,61.9219,299,61.9219,299,186.9219,289,196.9219,86,196.9219,86,71.9219" style="stroke:#181818;stroke-width:1;"/><line style="stroke:#181818;stroke-width:1;" x1="289" x2="299" y1="71.9219" y2="61.9219"/><line style="stroke:#181818;stroke-width:1;" x1="86" x2="289" y1="71.9219" y2="71.9219"/><line style="stroke:#181818;stroke-width:1;" x1="289" x2="289" y1="71.9219" y2="196.9219"/><text fill="#000000" font-family="sans-serif" font-size="14" font-style="italic" lengthAdjust="spacing" textLength="53.6279" x="161.686" y="87.917">&#171;device&#187;</text><text fill="#000000" font-family="sans-serif" font-size="14" font-weight="bold" lengthAdjust="spacing" textLength="137.0879" x="119.9561" y="104.2139">Datafeed client host</text></g><!--cluster ui_client_host--><g class="cluster" data-qualified-name="ui_client_host" data-source-line="17" id="ent0004"><polygon fill="none" points="323,71.9219,333,61.9219,521,61.9219,521,186.9219,511,196.9219,323,196.9219,323,71.9219" style="stroke:#181818;stroke-width:1;"/><line style="stroke:#181818;stroke-width:1;" x1="511" x2="521" y1="71.9219" y2="61.9219"/><line style="stroke:#181818;stroke-width:1;" x1="323" x2="511" y1="71.9219" y2="71.9219"/><line style="stroke:#181818;stroke-width:1;" x1="511" x2="511" y1="71.9219" y2="196.9219"/><text fill="#000000" font-family="sans-serif" font-size="14" font-style="italic" lengthAdjust="spacing" textLength="53.6279" x="391.186" y="87.917">&#171;device&#187;</text><text fill="#000000" font-family="sans-serif" font-size="14" font-weight="bold" lengthAdjust="spacing" textLength="122.2676" x="356.8662" y="104.2139">User desktop host</text></g><!--cluster remote_proxy_host--><g class="cluster" data-qualified-name="remote_proxy_host" data-source-line="21" id="ent0006"><polygon fill="none" points="545,71.9219,555,61.9219,801,61.9219,801,186.9219,791,196.9219,545,196.9219,545,71.9219" style="stroke:#181818;stroke-width:1;"/><line style="stroke:#181818;stroke-width:1;" x1="791" x2="801" y1="71.9219" y2="61.9219"/><line style="stroke:#181818;stroke-width:1;" x1="545" x2="791" y1="71.9219" y2="71.9219"/><line style="stroke:#181818;stroke-width:1;" x1="791" x2="791" y1="71.9219" y2="196.9219"/><text fill="#000000" font-family="sans-serif" font-size="14" font-style="italic" lengthAdjust="spacing" textLength="53.6279" x="642.186" y="87.917">&#171;device&#187;</text><text fill="#000000" font-family="sans-serif" font-size="14" font-weight="bold" lengthAdjust="spacing" textLength="180.6943" x="578.6528" y="104.2139">Remote stroom-proxy host</text></g><!--cluster stroom_host--><g class="cluster" data-qualified-name="stroom_host" data-source-line="27" id="ent0008"><polygon fill="none" points="16,230.9219,26,220.9219,846,220.9219,846,824.9219,836,834.9219,16,834.9219,16,230.9219" style="stroke:#181818;stroke-width:1;"/><line style="stroke:#181818;stroke-width:1;" x1="836" x2="846" y1="230.9219" y2="220.9219"/><line style="stroke:#181818;stroke-width:1;" x1="16" x2="836" y1="230.9219" y2="230.9219"/><line style="stroke:#181818;stroke-width:1;" x1="836" x2="836" y1="230.9219" y2="834.9219"/><text fill="#000000" font-family="sans-serif" font-size="14" font-style="italic" lengthAdjust="spacing" textLength="53.6279" x="400.186" y="246.917">&#171;device&#187;</text><text fill="#000000" font-family="sans-serif" font-size="14" font-weight="bold" lengthAdjust="spacing" textLength="81.9014" x="386.0493" y="263.2139">stroom host</text></g><!--cluster nginx_container--><g class="cluster" data-qualified-name="stroom_host.nginx_container" data-source-line="28" id="ent0009"><rect fill="none" height="130" rx="12.5" ry="12.5" style="stroke:#181818;stroke-width:1;" width="158" x="343" y="284.9219"/><text fill="#000000" font-family="sans-serif" font-size="14" font-style="italic" lengthAdjust="spacing" textLength="73.5547" x="385.2227" y="299.917">&#171;container&#187;</text><text fill="#000000" font-family="sans-serif" font-size="14" font-weight="bold" lengthAdjust="spacing" textLength="37.2217" x="403.3892" y="316.2139">nginx</text></g><!--cluster stroom_auth_ui_container--><g class="cluster" data-qualified-name="stroom_host.stroom_auth_ui_container" data-source-line="32" id="ent0011"><rect fill="none" height="130" rx="12.5" ry="12.5" style="stroke:#181818;stroke-width:1;" width="214" x="40" y="438.9219"/><text fill="#000000" font-family="sans-serif" font-size="14" font-style="italic" lengthAdjust="spacing" textLength="73.5547" x="110.2227" y="453.917">&#171;container&#187;</text><text fill="#000000" font-family="sans-serif" font-size="14" font-weight="bold" lengthAdjust="spacing" textLength="102.0195" x="95.9902" y="470.2139">stroom-auth-ui</text></g><!--cluster stroom_auth_service_container--><g class="cluster" data-qualified-name="stroom_host.stroom_auth_service_container" data-source-line="36" id="ent0013"><rect fill="none" height="130" rx="12.5" ry="12.5" style="stroke:#181818;stroke-width:1;" width="198" x="278" y="438.9219"/><text fill="#000000" font-family="sans-serif" font-size="14" font-style="italic" lengthAdjust="spacing" textLength="73.5547" x="340.2227" y="453.917">&#171;container&#187;</text><text fill="#000000" font-family="sans-serif" font-size="14" font-weight="bold" lengthAdjust="spacing" textLength="136.8555" x="308.5723" y="470.2139">stroom-auth-service</text></g><!--cluster stroom_container--><g class="cluster" data-qualified-name="stroom_host.stroom_container" data-source-line="40" id="ent0015"><rect fill="none" height="130" rx="12.5" ry="12.5" style="stroke:#181818;stroke-width:1;" width="140" x="500" y="438.9219"/><text fill="#000000" font-family="sans-serif" font-size="14" font-style="italic" lengthAdjust="spacing" textLength="73.5547" x="533.2227" y="453.917">&#171;container&#187;</text><text fill="#000000" font-family="sans-serif" font-size="14" font-weight="bold" lengthAdjust="spacing" textLength="48.5693" x="545.7153" y="470.2139">stroom</text></g><!--cluster stroom_proxy_container--><g class="cluster" data-qualified-name="stroom_host.stroom_proxy_container" data-source-line="44" id="ent0017"><rect fill="none" height="130" rx="12.5" ry="12.5" style="stroke:#181818;stroke-width:1;" width="158" x="664" y="438.9219"/><text fill="#000000" font-family="sans-serif" font-size="14" font-style="italic" lengthAdjust="spacing" textLength="73.5547" x="706.2227" y="453.917">&#171;container&#187;</text><text fill="#000000" font-family="sans-serif" font-size="14" font-weight="bold" lengthAdjust="spacing" textLength="136.3496" x="674.8252" y="470.2139">stroom-proxy (local)</text></g><!--cluster stroom_log_sender--><g class="cluster" data-qualified-name="stroom_host.stroom_log_sender" data-source-line="48" id="ent0019"><rect fill="none" height="130" rx="12.5" ry="12.5" style="stroke:#181818;stroke-width:1;" width="190" x="525" y="284.9219"/><text fill="#000000" font-family="sans-serif" font-size="14" font-style="italic" lengthAdjust="spacing" textLength="73.5547" x="583.2227" y="299.917">&#171;container&#187;</text><text fill="#000000" font-family="sans-serif" font-size="14" font-weight="bold" lengthAdjust="spacing" textLength="124.332" x="557.834" y="316.2139">stroom-log-sender</text></g><!--cluster database_container--><g class="cluster" data-qualified-name="stroom_host.database_container" data-source-line="52" id="ent0021"><rect fill="none" height="218" rx="12.5" ry="12.5" style="stroke:#181818;stroke-width:1;" width="428" x="291" y="592.9219"/><text fill="#000000" font-family="sans-serif" font-size="14" font-style="italic" lengthAdjust="spacing" textLength="73.5547" x="468.2227" y="607.917">&#171;container&#187;</text><text fill="#000000" font-family="sans-serif" font-size="14" font-weight="bold" lengthAdjust="spacing" textLength="63.0957" x="473.4521" y="624.2139">Database</text></g><!--cluster stroom_all_dbs--><g class="cluster" data-qualified-name="stroom_host.database_container.stroom_all_dbs" data-source-line="53" id="ent0022"><path d="M315,661.9219 C315,651.9219 505,651.9219 505,651.9219 C505,651.9219 695,651.9219 695,661.9219 L695,776.9219 C695,786.9219 505,786.9219 505,786.9219 C505,786.9219 315,786.9219 315,776.9219 L315,661.9219" fill="none" style="stroke:#181818;stroke-width:1;"/><path d="M315,661.9219 C315,671.9219 505,671.9219 505,671.9219 C505,671.9219 695,671.9219 695,661.9219" fill="none" style="stroke:#181818;stroke-width:1;"/><text fill="#000000" font-family="sans-serif" font-size="14" font-style="italic" lengthAdjust="spacing" textLength="51.1602" x="479.4199" y="686.917">&#171;mysql&#187;</text><text fill="#000000" font-family="sans-serif" font-size="14" font-weight="bold" lengthAdjust="spacing" textLength="100.4199" x="454.79" y="703.2139">stroom_all_dbs</text></g><!--entity dataload_client_app--><g class="entity" data-qualified-name="dataload_client_host.dataload_client_app" data-source-line="14" id="ent0003"><polygon fill="#F1F1F1" points="143,127.9219,153,117.9219,283.1191,117.9219,283.1191,170.5156,273.1191,180.5156,143,180.5156,143,127.9219" style="stroke:#181818;stroke-width:0.5;"/><line style="stroke:#181818;stroke-width:0.5;" x1="273.1191" x2="283.1191" y1="127.9219" y2="117.9219"/><line style="stroke:#181818;stroke-width:0.5;" x1="143" x2="273.1191" y1="127.9219" y2="127.9219"/><line style="stroke:#181818;stroke-width:0.5;" x1="273.1191" x2="273.1191" y1="127.9219" y2="180.5156"/><text fill="#000000" font-family="sans-serif" font-size="14" font-style="italic" lengthAdjust="spacing" textLength="83.3164" x="166.4014" y="150.917">&#171;application&#187;</text><text fill="#000000" font-family="sans-serif" font-size="14" lengthAdjust="spacing" textLength="100.1191" x="158" y="167.2139">Event generator</text></g><!--entity ui_client_browser--><g class="entity" data-qualified-name="ui_client_host.ui_client_browser" data-source-line="18" id="ent0005"><polygon fill="#F1F1F1" points="353.5,127.9219,363.5,117.9219,490.6152,117.9219,490.6152,170.5156,480.6152,180.5156,353.5,180.5156,353.5,127.9219" style="stroke:#181818;stroke-width:0.5;"/><line style="stroke:#181818;stroke-width:0.5;" x1="480.6152" x2="490.6152" y1="127.9219" y2="117.9219"/><line style="stroke:#181818;stroke-width:0.5;" x1="353.5" x2="480.6152" y1="127.9219" y2="127.9219"/><line style="stroke:#181818;stroke-width:0.5;" x1="480.6152" x2="480.6152" y1="127.9219" y2="180.5156"/><text fill="#000000" font-family="sans-serif" font-size="14" font-style="italic" lengthAdjust="spacing" textLength="95.1152" x="369.5" y="150.917">&#171;web browser&#187;</text><text fill="#000000" font-family="sans-serif" font-size="14" lengthAdjust="spacing" textLength="83.4121" x="375.3516" y="167.2139">Web browser</text></g><!--entity remote_proxy--><g class="entity" data-qualified-name="remote_proxy_host.remote_proxy" data-source-line="22" id="ent0007"><polygon fill="#F1F1F1" points="561,127.9219,571,117.9219,686.5654,117.9219,686.5654,170.5156,676.5654,180.5156,561,180.5156,561,127.9219" style="stroke:#181818;stroke-width:0.5;"/><line style="stroke:#181818;stroke-width:0.5;" x1="676.5654" x2="686.5654" y1="127.9219" y2="117.9219"/><line style="stroke:#181818;stroke-width:0.5;" x1="561" x2="676.5654" y1="127.9219" y2="127.9219"/><line style="stroke:#181818;stroke-width:0.5;" x1="676.5654" x2="676.5654" y1="127.9219" y2="180.5156"/><text fill="#000000" font-family="sans-serif" font-size="14" font-style="italic" lengthAdjust="spacing" textLength="83.3164" x="577.1245" y="150.917">&#171;application&#187;</text><text fill="#000000" font-family="sans-serif" font-size="14" lengthAdjust="spacing" textLength="85.5654" x="576" y="167.2139">stroom-proxy</text></g><!--entity nginx--><g class="entity" data-qualified-name="stroom_host.nginx_container.nginx" data-source-line="29" id="ent0010"><polygon fill="#F1F1F1" points="359.5,345.9219,369.5,335.9219,484.085,335.9219,484.085,388.5156,474.085,398.5156,359.5,398.5156,359.5,345.9219" style="stroke:#181818;stroke-width:0.5;"/><line style="stroke:#181818;stroke-width:0.5;" x1="474.085" x2="484.085" y1="345.9219" y2="335.9219"/><line style="stroke:#181818;stroke-width:0.5;" x1="359.5" x2="474.085" y1="345.9219" y2="345.9219"/><line style="stroke:#181818;stroke-width:0.5;" x1="474.085" x2="474.085" y1="345.9219" y2="398.5156"/><text fill="#000000" font-family="sans-serif" font-size="14" font-style="italic" lengthAdjust="spacing" textLength="82.585" x="375.5" y="368.917">&#171;web server&#187;</text><text fill="#000000" font-family="sans-serif" font-size="14" lengthAdjust="spacing" textLength="34.3643" x="399.6104" y="385.2139">nginx</text></g><!--entity stroom_auth_ui_nginx--><g class="entity" data-qualified-name="stroom_host.stroom_auth_ui_container.stroom_auth_ui_nginx" data-source-line="33" id="ent0012"><polygon fill="#F1F1F1" points="56.5,499.9219,66.5,489.9219,237.8125,489.9219,237.8125,542.5156,227.8125,552.5156,56.5,552.5156,56.5,499.9219" style="stroke:#181818;stroke-width:0.5;"/><line style="stroke:#181818;stroke-width:0.5;" x1="227.8125" x2="237.8125" y1="499.9219" y2="489.9219"/><line style="stroke:#181818;stroke-width:0.5;" x1="56.5" x2="227.8125" y1="499.9219" y2="499.9219"/><line style="stroke:#181818;stroke-width:0.5;" x1="227.8125" x2="227.8125" y1="499.9219" y2="552.5156"/><text fill="#000000" font-family="sans-serif" font-size="14" font-style="italic" lengthAdjust="spacing" textLength="82.585" x="100.8638" y="522.917">&#171;web server&#187;</text><text fill="#000000" font-family="sans-serif" font-size="14" lengthAdjust="spacing" textLength="141.3125" x="71.5" y="539.2139">stroom-auth-ui (nginx)</text></g><!--entity stroom_auth_service_dropwiz--><g class="entity" data-qualified-name="stroom_host.stroom_auth_service_container.stroom_auth_service_dropwiz" data-source-line="37" id="ent0014"><polygon fill="#F1F1F1" points="293.5,499.9219,303.5,489.9219,460.2178,489.9219,460.2178,542.5156,450.2178,552.5156,293.5,552.5156,293.5,499.9219" style="stroke:#181818;stroke-width:0.5;"/><line style="stroke:#181818;stroke-width:0.5;" x1="450.2178" x2="460.2178" y1="499.9219" y2="489.9219"/><line style="stroke:#181818;stroke-width:0.5;" x1="293.5" x2="450.2178" y1="499.9219" y2="499.9219"/><line style="stroke:#181818;stroke-width:0.5;" x1="450.2178" x2="450.2178" y1="499.9219" y2="552.5156"/><text fill="#000000" font-family="sans-serif" font-size="14" font-style="italic" lengthAdjust="spacing" textLength="66.2949" x="338.7114" y="522.917">&#171;java app&#187;</text><text fill="#000000" font-family="sans-serif" font-size="14" lengthAdjust="spacing" textLength="126.7178" x="308.5" y="539.2139">stroom-auth-service</text></g><!--entity stroom_dropwiz--><g class="entity" data-qualified-name="stroom_host.stroom_container.stroom_dropwiz" data-source-line="41" id="ent0016"><polygon fill="#F1F1F1" points="516,499.9219,526,489.9219,624.2949,489.9219,624.2949,542.5156,614.2949,552.5156,516,552.5156,516,499.9219" style="stroke:#181818;stroke-width:0.5;"/><line style="stroke:#181818;stroke-width:0.5;" x1="614.2949" x2="624.2949" y1="499.9219" y2="489.9219"/><line style="stroke:#181818;stroke-width:0.5;" x1="516" x2="614.2949" y1="499.9219" y2="499.9219"/><line style="stroke:#181818;stroke-width:0.5;" x1="614.2949" x2="614.2949" y1="499.9219" y2="552.5156"/><text fill="#000000" font-family="sans-serif" font-size="14" font-style="italic" lengthAdjust="spacing" textLength="66.2949" x="532" y="522.917">&#171;java app&#187;</text><text fill="#000000" font-family="sans-serif" font-size="14" lengthAdjust="spacing" textLength="45.3496" x="542.4727" y="539.2139">stroom</text></g><!--entity stroom_proxy_dropwiz--><g class="entity" data-qualified-name="stroom_host.stroom_proxy_container.stroom_proxy_dropwiz" data-source-line="45" id="ent0018"><polygon fill="#F1F1F1" points="680,499.9219,690,489.9219,805.5654,489.9219,805.5654,542.5156,795.5654,552.5156,680,552.5156,680,499.9219" style="stroke:#181818;stroke-width:0.5;"/><line style="stroke:#181818;stroke-width:0.5;" x1="795.5654" x2="805.5654" y1="499.9219" y2="489.9219"/><line style="stroke:#181818;stroke-width:0.5;" x1="680" x2="795.5654" y1="499.9219" y2="499.9219"/><line style="stroke:#181818;stroke-width:0.5;" x1="795.5654" x2="795.5654" y1="499.9219" y2="552.5156"/><text fill="#000000" font-family="sans-serif" font-size="14" font-style="italic" lengthAdjust="spacing" textLength="66.2949" x="704.6353" y="522.917">&#171;java app&#187;</text><text fill="#000000" font-family="sans-serif" font-size="14" lengthAdjust="spacing" textLength="85.5654" x="695" y="539.2139">stroom-proxy</text></g><!--entity stroom_log_sender_script--><g class="entity" data-qualified-name="stroom_host.stroom_log_sender.stroom_log_sender_script" data-source-line="49" id="ent0020"><polygon fill="#F1F1F1" points="541.5,345.9219,551.5,335.9219,698.1484,335.9219,698.1484,388.5156,688.1484,398.5156,541.5,398.5156,541.5,345.9219" style="stroke:#181818;stroke-width:0.5;"/><line style="stroke:#181818;stroke-width:0.5;" x1="688.1484" x2="698.1484" y1="345.9219" y2="335.9219"/><line style="stroke:#181818;stroke-width:0.5;" x1="541.5" x2="688.1484" y1="345.9219" y2="345.9219"/><line style="stroke:#181818;stroke-width:0.5;" x1="688.1484" x2="688.1484" y1="345.9219" y2="398.5156"/><text fill="#000000" font-family="sans-serif" font-size="14" font-style="italic" lengthAdjust="spacing" textLength="48.583" x="590.5327" y="368.917">&#171;script&#187;</text><text fill="#000000" font-family="sans-serif" font-size="14" lengthAdjust="spacing" textLength="116.6484" x="556.5" y="385.2139">stroom-log-sender</text></g><!--entity stroom_db--><g class="entity" data-qualified-name="stroom_host.database_container.stroom_all_dbs.stroom_db" data-source-line="54" id="ent0023"><rect fill="#F1F1F1" height="52.5938" rx="35" ry="35" style="stroke:#181818;stroke-width:0.5;" width="92.8818" x="586.5" y="717.9219"/><text fill="#000000" font-family="sans-serif" font-size="14" font-style="italic" lengthAdjust="spacing" textLength="70.8818" x="597.5" y="740.917">&#171;database&#187;</text><text fill="#000000" font-family="sans-serif" font-size="14" lengthAdjust="spacing" textLength="45.3496" x="610.2661" y="757.2139">stroom</text></g><!--entity stroom_stats_db--><g class="entity" data-qualified-name="stroom_host.database_container.stroom_all_dbs.stroom_stats_db" data-source-line="55" id="ent0024"><rect fill="#F1F1F1" height="52.5938" rx="35" ry="35" style="stroke:#181818;stroke-width:0.5;" width="92.8818" x="458.5" y="717.9219"/><text fill="#000000" font-family="sans-serif" font-size="14" font-style="italic" lengthAdjust="spacing" textLength="70.8818" x="469.5" y="740.917">&#171;database&#187;</text><text fill="#000000" font-family="sans-serif" font-size="14" lengthAdjust="spacing" textLength="29.5518" x="490.165" y="757.2139">stats</text></g><!--entity stroom_auth_db--><g class="entity" data-qualified-name="stroom_host.database_container.stroom_all_dbs.stroom_auth_db" data-source-line="56" id="ent0025"><rect fill="#F1F1F1" height="52.5938" rx="35" ry="35" style="stroke:#181818;stroke-width:0.5;" width="92.8818" x="330.5" y="717.9219"/><text fill="#000000" font-family="sans-serif" font-size="14" font-style="italic" lengthAdjust="spacing" textLength="70.8818" x="341.5" y="740.917">&#171;database&#187;</text><text fill="#000000" font-family="sans-serif" font-size="14" lengthAdjust="spacing" textLength="28.6631" x="362.6094" y="757.2139">auth</text></g><!--link stroom_auth_service_dropwiz to stroom_auth_db--><g class="link" data-entity-1="ent0014" data-entity-2="ent0025" data-link-type="dependency" data-source-line="61" id="lnk26"><path d="M377,553.1519 C377,597.0319 377,670.8619 377,711.7619" fill="none" id="stroom_auth_service_dropwiz-to-stroom_auth_db" style="stroke:#181818;stroke-width:1;"/><polygon fill="#181818" points="377,717.7619,381,708.7619,377,712.7619,373,708.7619,377,717.7619" style="stroke:#181818;stroke-width:1;"/></g><!--link stroom_dropwiz to stroom_db--><g class="link" data-entity-1="ent0016" data-entity-2="ent0023" data-link-type="dependency" data-source-line="62" id="lnk27"><path d="M578.76,553.1519 C591.27,597.0319 612.375,671.0918 624.035,711.9918" fill="none" id="stroom_dropwiz-to-stroom_db" style="stroke:#181818;stroke-width:1;"/><polygon fill="#181818" points="625.68,717.7619,627.0593,708.0101,624.3092,712.9535,619.3658,710.2034,625.68,717.7619" style="stroke:#181818;stroke-width:1;"/></g><!--link stroom_dropwiz to stroom_stats_db--><g class="link" data-entity-1="ent0016" data-entity-2="ent0024" data-link-type="dependency" data-source-line="63" id="lnk28"><path d="M560.96,553.1519 C548.06,597.0319 526.2731,671.1057 514.2431,712.0057" fill="none" id="stroom_dropwiz-to-stroom_stats_db" style="stroke:#181818;stroke-width:1;"/><polygon fill="#181818" points="512.55,717.7619,518.9271,710.2563,513.9609,712.9651,511.2522,707.9989,512.55,717.7619" style="stroke:#181818;stroke-width:1;"/></g><!--link stroom_dropwiz to nginx--><g class="link" data-entity-1="ent0016" data-entity-2="ent0010" data-link-type="dependency" data-source-line="66" id="lnk29"><path d="M551.19,489.7119 C528.73,463.3519 496.3608,429.5976 467.4808,403.2276" fill="none" id="stroom_dropwiz-to-nginx" style="stroke:#181818;stroke-width:1;"/><polygon fill="#181818" points="463.05,399.1819,466.9991,408.2043,466.7423,402.5533,472.3934,402.2966,463.05,399.1819" style="stroke:#181818;stroke-width:1;"/></g><!--link nginx to stroom_dropwiz--><g class="link" data-entity-1="ent0010" data-entity-2="ent0016" data-link-type="dependency" data-source-line="74" id="lnk36"><path d="M441.47,399.1819 C464.12,425.5519 496.501,459.2932 525.201,485.6532" fill="none" id="nginx-to-stroom_dropwiz" style="stroke:#181818;stroke-width:1;"/><polygon fill="#181818" points="529.62,489.7119,525.6973,480.6779,525.9375,486.3297,520.2858,486.5698,529.62,489.7119" style="stroke:#181818;stroke-width:1;"/></g><!--link stroom_proxy_dropwiz to nginx--><g class="link" data-entity-1="ent0018" data-entity-2="ent0010" data-link-type="dependency" data-source-line="67" id="lnk30"><path d="M732.65,489.7619 C716.58,469.1819 688.64,443.6019 658,430.9219 C610.66,411.3319 592.27,436.9819 543,422.9219 C523.25,417.2819 508.2776,410.3499 489.8776,400.6499" fill="none" id="stroom_proxy_dropwiz-to-nginx" style="stroke:#181818;stroke-width:1;"/><polygon fill="#181818" points="484.57,397.8519,490.6661,405.5874,488.993,400.1836,494.3968,398.5105,484.57,397.8519" style="stroke:#181818;stroke-width:1;"/></g><!--link nginx to stroom_proxy_dropwiz--><g class="link" data-entity-1="ent0010" data-entity-2="ent0018" data-link-type="dependency" data-source-line="75" id="lnk37"><path d="M453.93,399.1419 C469.77,408.4019 489.13,417.5319 508,422.9219 C557.27,436.9819 575.66,411.3319 623,430.9219 C653.64,443.6019 677.217,465.0631 699.017,485.6431" fill="none" id="nginx-to-stroom_proxy_dropwiz" style="stroke:#181818;stroke-width:1;"/><polygon fill="#181818" points="703.38,489.7619,699.5814,480.675,699.7442,486.3295,694.0897,486.4923,703.38,489.7619" style="stroke:#181818;stroke-width:1;"/></g><!--link stroom_auth_service_dropwiz to nginx--><g class="link" data-entity-1="ent0014" data-entity-2="ent0010" data-link-type="dependency" data-source-line="68" id="lnk31"><path d="M397.18,489.7119 C408.2,463.3519 418.3589,431.4626 422.9589,405.0926" fill="none" id="stroom_auth_service_dropwiz-to-nginx" style="stroke:#181818;stroke-width:1;"/><polygon fill="#181818" points="423.99,399.1819,418.5029,407.3606,423.1308,404.1075,426.3839,408.7354,423.99,399.1819" style="stroke:#181818;stroke-width:1;"/></g><!--link nginx to stroom_auth_service_dropwiz--><g class="link" data-entity-1="ent0010" data-entity-2="ent0014" data-link-type="dependency" data-source-line="73" id="lnk35"><path d="M402.41,399.1819 C391.58,425.5519 381.4584,457.4478 376.6884,483.8078" fill="none" id="nginx-to-stroom_auth_service_dropwiz" style="stroke:#181818;stroke-width:1;"/><polygon fill="#181818" points="375.62,489.7119,381.1587,481.568,376.5103,484.7918,373.2865,480.1434,375.62,489.7119" style="stroke:#181818;stroke-width:1;"/></g><!--reverse link nginx to stroom_log_sender_script--><g class="link" data-entity-1="ent0010" data-entity-2="ent0020" data-link-type="dependency" data-source-line="69" id="lnk33"><path d="M490.65,367.4219 C509.59,367.4219 522.54,367.4219 541.49,367.4219" fill="none" id="nginx-backto-stroom_log_sender_script" style="stroke:#181818;stroke-width:1;"/><polygon fill="#181818" points="484.65,367.4219,493.65,371.4219,489.65,367.4219,493.65,363.4219,484.65,367.4219" style="stroke:#181818;stroke-width:1;"/></g><!--link nginx to stroom_auth_ui_nginx--><g class="link" data-entity-1="ent0010" data-entity-2="ent0012" data-link-type="dependency" data-source-line="72" id="lnk34"><path d="M359.46,392.5219 C333.7,403.2219 303.89,416.6319 278,430.9219 C246.41,448.3619 217.7055,467.8671 192.4555,486.1971" fill="none" id="nginx-to-stroom_auth_ui_nginx" style="stroke:#181818;stroke-width:1;"/><polygon fill="#181818" points="187.6,489.7219,197.2331,487.6717,191.6462,486.7845,192.5334,481.1977,187.6,489.7219" style="stroke:#181818;stroke-width:1;"/></g><!--link ui_client_browser to nginx--><g class="link" data-entity-1="ent0005" data-entity-2="ent0010" data-link-type="dependency" data-source-line="79" id="lnk38"><path d="M422,181.3719 C422,222.5519 422,288.9119 422,329.8819" fill="none" id="ui_client_browser-to-nginx" style="stroke:#181818;stroke-width:1;"/><polygon fill="#181818" points="422,335.8819,426,326.8819,422,330.8819,418,326.8819,422,335.8819" style="stroke:#181818;stroke-width:1;"/></g><!--link dataload_client_app to nginx--><g class="link" data-entity-1="ent0003" data-entity-2="ent0010" data-link-type="dependency" data-source-line="80" id="lnk39"><path d="M242.94,181.3719 C282.79,222.5519 348.6274,290.6003 388.2774,331.5703" fill="none" id="dataload_client_app-to-nginx" style="stroke:#181818;stroke-width:1;"/><polygon fill="#181818" points="392.45,335.8819,389.0654,326.6328,388.9728,332.2889,383.3167,332.1963,392.45,335.8819" style="stroke:#181818;stroke-width:1;"/></g><!--link remote_proxy to nginx--><g class="link" data-entity-1="ent0007" data-entity-2="ent0010" data-link-type="dependency" data-source-line="81" id="lnk40"><path d="M566.56,181.0319 C552.11,190.2019 537.24,201.0219 525,212.9219 C487.15,249.7319 458.2692,297.3315 440.4092,330.4315" fill="none" id="remote_proxy-to-nginx" style="stroke:#181818;stroke-width:1;"/><polygon fill="#181818" points="437.56,335.7119,445.354,329.6908,439.9343,331.3116,438.3135,325.8919,437.56,335.7119" style="stroke:#181818;stroke-width:1;"/></g><?plantuml-src dLOxRzim49whNt7madJGKg2ROo1DEdGB4XGT1LgaRTOqgP2q7JV8V-_nOObw-H4DXdLtttSVZyUZBBU2PO3FtTsBrKfjm72v52oNYZAWh1Bgi67I-fXx8S0mlUCbCw2tKc8eS0bKbMkceLJI4YwPDXcJ5ApdpcwGPO5M863iGJ1OA0rsnT9mi-Qo8ffiGBFI4YS0thClMcqbVL0QOwRJEdmsWs_Vim_7_20uQeELCjPaNl7aaLYoO8n2sVWcG0nGT0X5Q14SXNF0T4gPMmvollib1fAVEmTTCin6hDA3U59L2CTVmKjYkPApcHCL27vZcN3TPcrLrKZOyakI_s5pc6krHueEAbeHk6zYqhJFRACimpgxdSmhhTuEJNRjdOMtdXIGmdl8eJNZJhpuhecPFK-MaZKgmlj8_cRt9tB9vPj7-7z5lVtGQeM0QxHtOB5KhcbzfLmW2kxaYWicMxlAjpoLwKo5su3BihU9uDPh-3f4-4bryVJr6AFzCphFKLAjgZt_XuH_oOu0RluPfIdJLNfIuDLPOxVV2bKIqIfvQFZhAjFqVelaUbL2BR72aiQp7DdGMWJhHMhEaHIcrBnovody6HNbXkES65OFDFTolZJ7oBe_X2Zet63uvc1UHNryZu_1cKcMm_iwTwS-yaMT0p1YJOhoXikmhdTxlJo6_4ZhTFFumzr94ik5ayraWNRyGEJvh9CaXGn4dGquBZFgWVkdNu3TBCmOpa-HrDbkqy6GqRNq8liDbWksi7LeKFdCS7XXRuJprorWc7FTKXq7u8cGZiBXo9FELYtyzqByN4WrzY_NfXH3DtxZRLsAZVa_?></g></svg>