<?plantuml 1.2026.1?><svg xmlns="http://www.w3.org/2000/svg" xmlns:xlink="http://www.w3.org/1999/xlink" contentStyleType="text/css" data-diagram-type="DESCRIPTION" height="632px" preserveAspectRatio="none" style="width:626px;height:632px;background:#FFFFFF;" version="1.1" viewBox="0 0 626 632" width="626px" zoomAndPan="magnify"><defs/><g><!--cluster component--><g class="cluster" data-qualified-name="component" data-source-line="2" id="ent0002"><path d="M8.5,72.72 L97.7656,72.72 A3.75,3.75 0 0 1 100.2656,75.22 L107.2656,95.0169 L394.5,95.0169 A2.5,2.5 0 0 1 397,97.5169 L397,380.11 A2.5,2.5 0 0 1 394.5,382.61 L8.5,382.61 A2.5,2.5 0 0 1 6,380.11 L6,75.22 A2.5,2.5 0 0 1 8.5,72.72" fill="none" style="stroke:#000000;stroke-width:1.5;"/><line style="stroke:#000000;stroke-width:1.5;" x1="6" x2="107.2656" y1="95.0169" y2="95.0169"/><text fill="#000000" font-family="sans-serif" font-size="14" font-weight="bold" lengthAdjust="spacing" textLength="88.2656" x="10" y="87.7151">component</text></g><!--cluster other-component--><g class="cluster" data-qualified-name="other-component" data-source-line="9" id="ent0007"><path d="M177.5,527.9 L315.2529,527.9 A3.75,3.75 0 0 1 317.7529,530.4 L324.7529,550.1969 L324.5,550.1969 A2.5,2.5 0 0 1 327,552.6969 L327,622.7 A2.5,2.5 0 0 1 324.5,625.2 L177.5,625.2 A2.5,2.5 0 0 1 175,622.7 L175,530.4 A2.5,2.5 0 0 1 177.5,527.9" fill="none" style="stroke:#000000;stroke-width:1.5;"/><line style="stroke:#000000;stroke-width:1.5;" x1="175" x2="324.7529" y1="550.1969" y2="550.1969"/><text fill="#000000" font-family="sans-serif" font-size="14" font-weight="bold" lengthAdjust="spacing" textLength="136.7529" x="179" y="542.8951">other-component</text></g><!--cluster security--><g class="cluster" data-qualified-name="security" data-source-line="13" id="ent0009"><path d="M290.5,406.61 L355.1152,406.61 A3.75,3.75 0 0 1 357.6152,409.11 L364.6152,428.9069 L441.5,428.9069 A2.5,2.5 0 0 1 444,431.4069 L444,501.4 A2.5,2.5 0 0 1 441.5,503.9 L290.5,503.9 A2.5,2.5 0 0 1 288,501.4 L288,409.11 A2.5,2.5 0 0 1 290.5,406.61" fill="none" style="stroke:#000000;stroke-width:1.5;"/><line style="stroke:#000000;stroke-width:1.5;" x1="288" x2="364.6152" y1="428.9069" y2="428.9069"/><text fill="#000000" font-family="sans-serif" font-size="14" font-weight="bold" lengthAdjust="spacing" textLength="63.6152" x="292" y="421.6051">security</text></g><!--cluster event-logging--><g class="cluster" data-qualified-name="event-logging" data-source-line="17" id="ent0011"><path d="M423.5,72.72 L534.333,72.72 A3.75,3.75 0 0 1 536.833,75.22 L543.833,95.0169 L616.5,95.0169 A2.5,2.5 0 0 1 619,97.5169 L619,167.51 A2.5,2.5 0 0 1 616.5,170.01 L423.5,170.01 A2.5,2.5 0 0 1 421,167.51 L421,75.22 A2.5,2.5 0 0 1 423.5,72.72" fill="none" style="stroke:#000000;stroke-width:1.5;"/><line style="stroke:#000000;stroke-width:1.5;" x1="421" x2="543.833" y1="95.0169" y2="95.0169"/><text fill="#000000" font-family="sans-serif" font-size="14" font-weight="bold" lengthAdjust="spacing" textLength="109.833" x="425" y="87.7151">event-logging</text></g><!--entity REST Endpoint--><g class="entity" data-qualified-name="component.REST Endpoint" data-source-line="3" id="ent0003"><rect fill="#F1F1F1" height="46.2969" rx="2.5" ry="2.5" style="stroke:#181818;stroke-width:0.5;" width="142.7715" x="21.61" y="107.72"/><rect fill="#F1F1F1" height="10" style="stroke:#181818;stroke-width:0.5;" width="15" x="144.3815" y="112.72"/><rect fill="#F1F1F1" height="2" style="stroke:#181818;stroke-width:0.5;" width="4" x="142.3815" y="114.72"/><rect fill="#F1F1F1" height="2" style="stroke:#181818;stroke-width:0.5;" width="4" x="142.3815" y="118.72"/><text fill="#000000" font-family="sans-serif" font-size="14" lengthAdjust="spacing" textLength="102.7715" x="36.61" y="140.7151">REST Endpoint</text></g><!--entity GWT Action Handler--><g class="entity" data-qualified-name="component.GWT Action Handler" data-source-line="4" id="ent0004"><rect fill="#F1F1F1" height="46.2969" rx="2.5" ry="2.5" style="stroke:#181818;stroke-width:0.5;" width="181.3604" x="199.32" y="107.72"/><rect fill="#F1F1F1" height="10" style="stroke:#181818;stroke-width:0.5;" width="15" x="360.6804" y="112.72"/><rect fill="#F1F1F1" height="2" style="stroke:#181818;stroke-width:0.5;" width="4" x="358.6804" y="114.72"/><rect fill="#F1F1F1" height="2" style="stroke:#181818;stroke-width:0.5;" width="4" x="358.6804" y="118.72"/><text fill="#000000" font-family="sans-serif" font-size="14" lengthAdjust="spacing" textLength="141.3604" x="214.32" y="140.7151">GWT Action Handler</text></g><!--entity Service--><g class="entity" data-qualified-name="component.Service" data-source-line="5" id="ent0005"><rect fill="#F1F1F1" height="46.2969" rx="2.5" ry="2.5" style="stroke:#181818;stroke-width:0.5;" width="91.7412" x="205.13" y="214.01"/><rect fill="#F1F1F1" height="10" style="stroke:#181818;stroke-width:0.5;" width="15" x="276.8712" y="219.01"/><rect fill="#F1F1F1" height="2" style="stroke:#181818;stroke-width:0.5;" width="4" x="274.8712" y="221.01"/><rect fill="#F1F1F1" height="2" style="stroke:#181818;stroke-width:0.5;" width="4" x="274.8712" y="225.01"/><text fill="#000000" font-family="sans-serif" font-size="14" lengthAdjust="spacing" textLength="51.7412" x="220.13" y="247.0051">Service</text></g><!--entity DAO Interface--><g class="entity" data-qualified-name="component.DAO Interface" data-source-line="6" id="ent0006"><rect fill="#F1F1F1" height="46.2969" rx="2.5" ry="2.5" style="stroke:#181818;stroke-width:0.5;" width="138.5059" x="59.75" y="320.31"/><rect fill="#F1F1F1" height="10" style="stroke:#181818;stroke-width:0.5;" width="15" x="178.2559" y="325.31"/><rect fill="#F1F1F1" height="2" style="stroke:#181818;stroke-width:0.5;" width="4" x="176.2559" y="327.31"/><rect fill="#F1F1F1" height="2" style="stroke:#181818;stroke-width:0.5;" width="4" x="176.2559" y="331.31"/><text fill="#000000" font-family="sans-serif" font-size="14" lengthAdjust="spacing" textLength="98.5059" x="74.75" y="353.3051">DAO Interface</text></g><!--entity API--><g class="entity" data-qualified-name="other-component.API" data-source-line="10" id="ent0008"><rect fill="#F1F1F1" height="46.2969" rx="2.5" ry="2.5" style="stroke:#181818;stroke-width:0.5;" width="62.1484" x="219.93" y="562.9"/><rect fill="#F1F1F1" height="10" style="stroke:#181818;stroke-width:0.5;" width="15" x="262.0784" y="567.9"/><rect fill="#F1F1F1" height="2" style="stroke:#181818;stroke-width:0.5;" width="4" x="260.0784" y="569.9"/><rect fill="#F1F1F1" height="2" style="stroke:#181818;stroke-width:0.5;" width="4" x="260.0784" y="573.9"/><text fill="#000000" font-family="sans-serif" font-size="14" lengthAdjust="spacing" textLength="22.1484" x="234.93" y="595.8951">API</text></g><!--entity Security API--><g class="entity" data-qualified-name="security.Security API" data-source-line="14" id="ent0010"><rect fill="#F1F1F1" height="46.2969" rx="2.5" ry="2.5" style="stroke:#181818;stroke-width:0.5;" width="124.0889" x="303.96" y="441.61"/><rect fill="#F1F1F1" height="10" style="stroke:#181818;stroke-width:0.5;" width="15" x="408.0489" y="446.61"/><rect fill="#F1F1F1" height="2" style="stroke:#181818;stroke-width:0.5;" width="4" x="406.0489" y="448.61"/><rect fill="#F1F1F1" height="2" style="stroke:#181818;stroke-width:0.5;" width="4" x="406.0489" y="452.61"/><text fill="#000000" font-family="sans-serif" font-size="14" lengthAdjust="spacing" textLength="84.0889" x="318.96" y="474.6051">Security API</text></g><!--entity Event Logging API--><g class="entity" data-qualified-name="event-logging.Event Logging API" data-source-line="18" id="ent0012"><rect fill="#F1F1F1" height="46.2969" rx="2.5" ry="2.5" style="stroke:#181818;stroke-width:0.5;" width="166.9434" x="436.53" y="107.72"/><rect fill="#F1F1F1" height="10" style="stroke:#181818;stroke-width:0.5;" width="15" x="583.4734" y="112.72"/><rect fill="#F1F1F1" height="2" style="stroke:#181818;stroke-width:0.5;" width="4" x="581.4734" y="114.72"/><rect fill="#F1F1F1" height="2" style="stroke:#181818;stroke-width:0.5;" width="4" x="581.4734" y="118.72"/><text fill="#000000" font-family="sans-serif" font-size="14" lengthAdjust="spacing" textLength="126.9434" x="451.53" y="140.7151">Event Logging API</text></g><!--link Service to API--><g class="link" data-entity-1="ent0005" data-entity-2="ent0008" data-link-type="dependency" data-source-line="21" id="lnk13"><path d="M251,260.65 C251,323.41 251,493.91 251,556.61" fill="none" id="Service-to-API" style="stroke:#181818;stroke-width:1;"/><polygon fill="#181818" points="251,562.61,255,553.61,251,557.61,247,553.61,251,562.61" style="stroke:#181818;stroke-width:1;"/></g><!--link REST Endpoint to Service--><g class="link" data-entity-1="ent0003" data-entity-2="ent0005" data-link-type="dependency" data-source-line="22" id="lnk14"><path d="M127.28,154.49 C153.79,171.99 185.2926,192.7845 211.7726,210.2645" fill="none" id="REST Endpoint-to-Service" style="stroke:#181818;stroke-width:1;"/><polygon fill="#181818" points="216.78,213.57,211.4726,205.2735,212.6072,210.8154,207.0653,211.95,216.78,213.57" style="stroke:#181818;stroke-width:1;"/></g><!--link REST Endpoint to Event Logging API--><g class="link" data-entity-1="ent0003" data-entity-2="ent0012" data-link-type="dependency" data-source-line="23" id="lnk15"><path d="M110.3,107.35 C129.19,83.86 161.84,49.2 199.5,34.72 C274.17,6 303.07,11.07 379.5,34.72 C425.24,48.87 464.9012,79.5951 491.1212,103.2051" fill="none" id="REST Endpoint-to-Event Logging API" style="stroke:#181818;stroke-width:1;"/><polygon fill="#181818" points="495.58,107.22,491.5685,98.2251,491.8644,103.8742,486.2153,104.1701,495.58,107.22" style="stroke:#181818;stroke-width:1;"/></g><!--link GWT Action Handler to Service--><g class="link" data-entity-1="ent0004" data-entity-2="ent0005" data-link-type="dependency" data-source-line="24" id="lnk16"><path d="M281.54,154.49 C275,171.99 268.0797,190.4694 261.5497,207.9494" fill="none" id="GWT Action Handler-to-Service" style="stroke:#181818;stroke-width:1;"/><polygon fill="#181818" points="259.45,213.57,266.3466,206.5389,261.1997,208.8862,258.8525,203.7393,259.45,213.57" style="stroke:#181818;stroke-width:1;"/></g><!--link GWT Action Handler to Event Logging API--><g class="link" data-entity-1="ent0004" data-entity-2="ent0012" data-link-type="dependency" data-source-line="25" id="lnk17"><path d="M380.74,130.86 C399.24,130.86 411.73,130.86 430.23,130.86" fill="none" id="GWT Action Handler-to-Event Logging API" style="stroke:#181818;stroke-width:1;"/><polygon fill="#181818" points="436.23,130.86,427.23,126.86,431.23,130.86,427.23,134.86,436.23,130.86" style="stroke:#181818;stroke-width:1;"/></g><!--link Service to Security API--><g class="link" data-entity-1="ent0005" data-entity-2="ent0010" data-link-type="dependency" data-source-line="26" id="lnk18"><path d="M262.45,260.62 C284.49,303.86 329.8647,392.8747 351.8747,436.0447" fill="none" id="Service-to-Security API" style="stroke:#181818;stroke-width:1;"/><polygon fill="#181818" points="354.6,441.39,354.0756,431.5551,352.3289,436.9355,346.9485,435.1888,354.6,441.39" style="stroke:#181818;stroke-width:1;"/></g><!--link Service to DAO Interface--><g class="link" data-entity-1="ent0005" data-entity-2="ent0006" data-link-type="dependency" data-source-line="27" id="lnk19"><path d="M224.53,260.79 C204.06,278.29 180.4309,298.4915 159.9809,315.9715" fill="none" id="Service-to-DAO Interface" style="stroke:#181818;stroke-width:1;"/><polygon fill="#181818" points="155.42,319.87,164.8603,317.0628,159.2207,316.6213,159.6623,310.9817,155.42,319.87" style="stroke:#181818;stroke-width:1;"/></g><?plantuml-src TP112i8m44NtFSNWlbSG2XOj28ejk2WkGZh6O9s460iYtjqqrTh6cbNc_v-NcT6Cdvb0c75rqOgGx0mUKRbBym9IghIIP0zHkTmNa70h5S6AKLMZSMAEff4StMsHR20ZY-R8slePHVh3LVQ49XxJasqs3bsHtuoqT-_cxm9-OjWuGbmh8IG9dqrR1TQTqZ_eEuFOdJbq7mP3WNU-CuIkCoVeKvi8IPEHFxXXfnuod7teEZFOyWi0?></g></svg>