<?xml version="1.0" encoding="UTF-8" standalone="no"?>
<svg
   xmlns:dc="http://purl.org/dc/elements/1.1/"
   xmlns:cc="http://creativecommons.org/ns#"
   xmlns:rdf="http://www.w3.org/1999/02/22-rdf-syntax-ns#"
   xmlns:svg="http://www.w3.org/2000/svg"
   xmlns="http://www.w3.org/2000/svg"
   xmlns:sodipodi="http://sodipodi.sourceforge.net/DTD/sodipodi-0.dtd"
   xmlns:inkscape="http://www.inkscape.org/namespaces/inkscape"
   width="30"
   height="30"
   viewBox="0 0 30 30"
   id="svg2"
   version="1.1"
   inkscape:version="0.91 r13725"
   sodipodi:docname="logo.svg">
  <metadata
     id="metadata14">
    <rdf:RDF>
      <cc:Work
         rdf:about="">
        <dc:format>image/svg+xml</dc:format>
        <dc:type
           rdf:resource="http://purl.org/dc/dcmitype/StillImage" />
        <dc:title></dc:title>
      </cc:Work>
    </rdf:RDF>
  </metadata>
  <defs
     id="defs12" />
  <sodipodi:namedview
     pagecolor="#ffffff"
     bordercolor="#666666"
     borderopacity="1"
     objecttolerance="10"
     gridtolerance="10"
     guidetolerance="10"
     inkscape:pageopacity="0"
     inkscape:pageshadow="2"
     inkscape:window-width="1410"
     inkscape:window-height="852"
     id="namedview10"
     showgrid="false"
     inkscape:zoom="4.2142857"
     inkscape:cx="23.484026"
     inkscape:cy="20.707225"
     inkscape:window-x="0"
     inkscape:window-y="0"
     inkscape:window-maximized="0"
     inkscape:current-layer="svg2" />
  <g
     id="g4142"
     transform="matrix(0.01702784,0,0,0.01702784,-0.25694464,21.743025)">
    <path
       inkscape:connector-curvature="0"
       id="path4"
       d="m 224,-1164 c -26.66667,0 -49.33333,9.3333 -68,28 -18.66667,18.6667 -28,41.3333 -28,68 l 0,1344 c 0,26.6667 9.33333,49.3333 28,68 18.66667,18.6667 41.33333,28 68,28 l 1344,0 c 26.6667,0 49.3333,-9.3333 68,-28 18.6667,-18.6667 28,-41.3333 28,-68 l 0,-1344 c 0,-26.6667 -9.3333,-49.3333 -28,-68 -18.6667,-18.6667 -41.3333,-28 -68,-28 z"
       style="fill:#ff6f00" />
    <path
       inkscape:connector-curvature="0"
       id="path6"
       d="m 592.51802,-769.17207 c -206.51277,0 -373.17209,166.65939 -373.17209,373.17211 0,204.70116 166.65932,373.17206 373.17209,373.17206 206.51288,0 373.17222,-168.4709 373.17222,-373.17206 0,-206.51272 -166.65934,-373.17211 -373.17222,-373.17211 z m 0,605.04607 c -128.61749,0 -233.68552,-103.2564 -233.68552,-231.87396 0,-128.61758 105.06803,-233.68545 233.68552,-233.68545 128.61767,0 233.68545,105.06787 233.68545,233.68545 0,128.61756 -105.06778,231.87396 -233.68545,231.87396 z"
       style="fill:#ffffff" />
    <path
       inkscape:connector-curvature="0"
       id="path8"
       d="m 1199.4818,-769.17207 c -206.51266,0 -373.172,166.65939 -373.172,373.17211 0,204.70116 166.65934,373.17206 373.172,373.17206 206.5127,0 373.1723,-168.4709 373.1723,-373.17206 0,-206.51272 -166.6596,-373.17211 -373.1723,-373.17211 z m 0,605.04607 c -128.6174,0 -233.68541,-103.2564 -233.68541,-231.87396 0,-128.61758 105.06801,-233.68545 233.68541,-233.68545 128.6177,0 233.6855,105.06787 233.6855,233.68545 0,128.61756 -105.0678,231.87396 -233.6855,231.87396 z"
       style="fill:#ffffff" />
  </g>
</svg>
