<?plantuml 1.2026.1?><svg xmlns="http://www.w3.org/2000/svg" xmlns:xlink="http://www.w3.org/1999/xlink" contentStyleType="text/css" data-diagram-type="DESCRIPTION" height="1554px" preserveAspectRatio="none" style="width:995px;height:1554px;background:#FFFFFF;" version="1.1" viewBox="0 0 995 1554" width="995px" zoomAndPan="magnify"><title>=Stroom Architecture
==Example Two-Node Cluster (non-containerised deployment)</title><defs/><g><g class="title" data-source-line="2"><text fill="#000000" font-family="sans-serif" font-size="18" font-weight="bold" lengthAdjust="spacing" textLength="177.0732" x="402.2134" y="26.708">Stroom Architecture</text><text fill="#000000" font-family="sans-serif" font-size="16" font-weight="bold" lengthAdjust="spacing" textLength="460.4219" x="260.5391" y="45.8047">Example Two-Node Cluster (non-containerised deployment)</text></g><!--cluster proxy_cluster--><g class="cluster" data-qualified-name="proxy_cluster" data-source-line="19" id="ent0007"><rect fill="none" height="197" rx="2.5" ry="2.5" style="stroke:#181818;stroke-width:1;" width="484" x="35.5" y="540.5781"/><text fill="#000000" font-family="sans-serif" font-size="14" font-weight="bold" lengthAdjust="spacing" textLength="97.8564" x="228.5718" y="555.5732">Proxy 'Cluster'</text></g><!--cluster Proxy Node #1--><g class="cluster" data-qualified-name="proxy_cluster.Proxy Node .1" data-source-line="20" id="ent0008"><rect fill="none" height="114" rx="35" ry="35" style="stroke:#181818;stroke-width:1;" width="194" x="293.5" y="591.5781"/><text fill="#000000" font-family="sans-serif" font-size="14" font-weight="bold" lengthAdjust="spacing" textLength="98.082" x="341.459" y="611.5732">Proxy Node #1</text></g><!--cluster Proxy Node #2--><g class="cluster" data-qualified-name="proxy_cluster.Proxy Node .2" data-source-line="25" id="ent0011"><rect fill="none" height="114" rx="35" ry="35" style="stroke:#181818;stroke-width:1;" width="194" x="75.5" y="591.5781"/><text fill="#000000" font-family="sans-serif" font-size="14" font-weight="bold" lengthAdjust="spacing" textLength="98.082" x="123.459" y="611.5732">Proxy Node #2</text></g><!--cluster stroom_cluster--><g class="cluster" data-qualified-name="stroom_cluster" data-source-line="30" id="ent0013"><rect fill="none" height="375" rx="2.5" ry="2.5" style="stroke:#181818;stroke-width:1;" width="250" x="382.5" y="832.5781"/><text fill="#000000" font-family="sans-serif" font-size="14" font-weight="bold" lengthAdjust="spacing" textLength="101.5205" x="456.7397" y="847.5732">Stroom Cluster</text></g><!--cluster Stroom Node #1--><g class="cluster" data-qualified-name="stroom_cluster.Stroom Node .1" data-source-line="31" id="ent0014"><rect fill="none" height="114" rx="35" ry="35" style="stroke:#181818;stroke-width:1;" width="154" x="422.5" y="883.5781"/><text fill="#000000" font-family="sans-serif" font-size="14" font-weight="bold" lengthAdjust="spacing" textLength="109.1973" x="444.9014" y="903.5732">Stroom Node #1</text></g><!--cluster Stroom Node #2--><g class="cluster" data-qualified-name="stroom_cluster.Stroom Node .2" data-source-line="38" id="ent0017"><rect fill="none" height="114" rx="35" ry="35" style="stroke:#181818;stroke-width:1;" width="154" x="434.5" y="1061.5781"/><text fill="#000000" font-family="sans-serif" font-size="14" font-weight="bold" lengthAdjust="spacing" textLength="109.1973" x="456.9014" y="1081.5732">Stroom Node #2</text></g><!--cluster stroom_all_dbs--><g class="cluster" data-qualified-name="stroom_all_dbs" data-source-line="49" id="ent0022"><rect fill="none" height="96" rx="35" ry="35" style="stroke:#181818;stroke-width:1;" width="183" x="292.5" y="1285.0781"/><text fill="#000000" font-family="sans-serif" font-size="14" font-weight="bold" lengthAdjust="spacing" textLength="92.6816" x="337.6592" y="1305.0732">MySQL Server</text></g><!--cluster shared_storage--><g class="cluster" data-qualified-name="shared_storage" data-source-line="60" id="ent0029"><rect fill="none" height="121" rx="35" ry="35" style="stroke:#181818;stroke-width:1;" width="350" x="639.5" y="1272.5781"/><text fill="#000000" font-family="sans-serif" font-size="14" font-weight="bold" lengthAdjust="spacing" textLength="102.0059" x="763.4971" y="1292.5732">Shared Storage</text></g><!--entity stroom_proxy_local_1--><g class="entity" data-qualified-name="proxy_cluster.Proxy Node .1.stroom_proxy_local_1" data-source-line="21" id="ent0009"><polygon fill="#F1F1F1" points="309.5,636.5781,319.5,626.5781,471.2754,626.5781,471.2754,679.1719,461.2754,689.1719,309.5,689.1719,309.5,636.5781" style="stroke:#181818;stroke-width:0.5;"/><line style="stroke:#181818;stroke-width:0.5;" x1="461.2754" x2="471.2754" y1="636.5781" y2="626.5781"/><line style="stroke:#181818;stroke-width:0.5;" x1="309.5" x2="461.2754" y1="636.5781" y2="636.5781"/><line style="stroke:#181818;stroke-width:0.5;" x1="461.2754" x2="461.2754" y1="636.5781" y2="689.1719"/><text fill="#000000" font-family="sans-serif" font-size="14" font-style="italic" lengthAdjust="spacing" textLength="66.2949" x="352.2402" y="659.5732">&#171;java app&#187;</text><text fill="#000000" font-family="sans-serif" font-size="14" lengthAdjust="spacing" textLength="121.7754" x="324.5" y="675.8701">Local Stroom proxy</text></g><!--entity stroom_proxy_local_2--><g class="entity" data-qualified-name="proxy_cluster.Proxy Node .2.stroom_proxy_local_2" data-source-line="26" id="ent0012"><polygon fill="#F1F1F1" points="91.5,636.5781,101.5,626.5781,253.2754,626.5781,253.2754,679.1719,243.2754,689.1719,91.5,689.1719,91.5,636.5781" style="stroke:#181818;stroke-width:0.5;"/><line style="stroke:#181818;stroke-width:0.5;" x1="243.2754" x2="253.2754" y1="636.5781" y2="626.5781"/><line style="stroke:#181818;stroke-width:0.5;" x1="91.5" x2="243.2754" y1="636.5781" y2="636.5781"/><line style="stroke:#181818;stroke-width:0.5;" x1="243.2754" x2="243.2754" y1="636.5781" y2="689.1719"/><text fill="#000000" font-family="sans-serif" font-size="14" font-style="italic" lengthAdjust="spacing" textLength="66.2949" x="134.2402" y="659.5732">&#171;java app&#187;</text><text fill="#000000" font-family="sans-serif" font-size="14" lengthAdjust="spacing" textLength="121.7754" x="106.5" y="675.8701">Local Stroom proxy</text></g><!--entity stroom_node_1--><g class="entity" data-qualified-name="stroom_cluster.Stroom Node .1.stroom_node_1" data-source-line="32" id="ent0015"><polygon fill="#F1F1F1" points="438.5,928.5781,448.5,918.5781,560.4561,918.5781,560.4561,971.1719,550.4561,981.1719,438.5,981.1719,438.5,928.5781" style="stroke:#181818;stroke-width:0.5;"/><line style="stroke:#181818;stroke-width:0.5;" x1="550.4561" x2="560.4561" y1="928.5781" y2="918.5781"/><line style="stroke:#181818;stroke-width:0.5;" x1="438.5" x2="550.4561" y1="928.5781" y2="928.5781"/><line style="stroke:#181818;stroke-width:0.5;" x1="550.4561" x2="550.4561" y1="928.5781" y2="981.1719"/><text fill="#000000" font-family="sans-serif" font-size="14" font-style="italic" lengthAdjust="spacing" textLength="66.2949" x="461.3306" y="951.5732">&#171;java app&#187;</text><text fill="#000000" font-family="sans-serif" font-size="14" lengthAdjust="spacing" textLength="81.9561" x="453.5" y="967.8701">Stroom node</text></g><!--entity stroom_node_2--><g class="entity" data-qualified-name="stroom_cluster.Stroom Node .2.stroom_node_2" data-source-line="39" id="ent0018"><polygon fill="#F1F1F1" points="450.5,1106.5781,460.5,1096.5781,572.4561,1096.5781,572.4561,1149.1719,562.4561,1159.1719,450.5,1159.1719,450.5,1106.5781" style="stroke:#181818;stroke-width:0.5;"/><line style="stroke:#181818;stroke-width:0.5;" x1="562.4561" x2="572.4561" y1="1106.5781" y2="1096.5781"/><line style="stroke:#181818;stroke-width:0.5;" x1="450.5" x2="562.4561" y1="1106.5781" y2="1106.5781"/><line style="stroke:#181818;stroke-width:0.5;" x1="562.4561" x2="562.4561" y1="1106.5781" y2="1159.1719"/><text fill="#000000" font-family="sans-serif" font-size="14" font-style="italic" lengthAdjust="spacing" textLength="66.2949" x="473.3306" y="1129.5732">&#171;java app&#187;</text><text fill="#000000" font-family="sans-serif" font-size="14" lengthAdjust="spacing" textLength="81.9561" x="465.5" y="1145.8701">Stroom node</text></g><!--entity stroom_db--><g class="entity" data-qualified-name="stroom_all_dbs.stroom_db" data-source-line="50" id="ent0023"><path d="M309,1330.0781 C309,1320.0781 341.6748,1320.0781 341.6748,1320.0781 C341.6748,1320.0781 374.3496,1320.0781 374.3496,1330.0781 L374.3496,1355.375 C374.3496,1365.375 341.6748,1365.375 341.6748,1365.375 C341.6748,1365.375 309,1365.375 309,1355.375 L309,1330.0781" fill="#F1F1F1" style="stroke:#181818;stroke-width:0.5;"/><path d="M309,1330.0781 C309,1340.0781 341.6748,1340.0781 341.6748,1340.0781 C341.6748,1340.0781 374.3496,1340.0781 374.3496,1330.0781" fill="none" style="stroke:#181818;stroke-width:0.5;"/><text fill="#000000" font-family="sans-serif" font-size="14" lengthAdjust="spacing" textLength="45.3496" x="319" y="1357.0732">stroom</text></g><!--entity stroom_stats_db--><g class="entity" data-qualified-name="stroom_all_dbs.stroom_stats_db" data-source-line="51" id="ent0024"><path d="M409.5,1330.0781 C409.5,1320.0781 434.2759,1320.0781 434.2759,1320.0781 C434.2759,1320.0781 459.0518,1320.0781 459.0518,1330.0781 L459.0518,1355.375 C459.0518,1365.375 434.2759,1365.375 434.2759,1365.375 C434.2759,1365.375 409.5,1365.375 409.5,1355.375 L409.5,1330.0781" fill="#F1F1F1" style="stroke:#181818;stroke-width:0.5;"/><path d="M409.5,1330.0781 C409.5,1340.0781 434.2759,1340.0781 434.2759,1340.0781 C434.2759,1340.0781 459.0518,1340.0781 459.0518,1330.0781" fill="none" style="stroke:#181818;stroke-width:0.5;"/><text fill="#000000" font-family="sans-serif" font-size="14" lengthAdjust="spacing" textLength="29.5518" x="419.5" y="1357.0732">stats</text></g><!--entity stroom-node-2--><g class="entity" data-qualified-name="shared_storage.stroom-node-2" data-source-line="61" id="ent0030"><path d="M844,1315.5781 L885,1315.5781 A3.75,3.75 0 0 1 887.5,1318.0781 L894.5,1336.5781 L963.0898,1336.5781 A2.5,2.5 0 0 1 965.5898,1339.0781 L965.5898,1367.375 A2.5,2.5 0 0 1 963.0898,1369.875 L844,1369.875 A2.5,2.5 0 0 1 841.5,1367.375 L841.5,1318.0781 A2.5,2.5 0 0 1 844,1315.5781" fill="#F1F1F1" style="stroke:#181818;stroke-width:0.5;"/><line style="stroke:#181818;stroke-width:0.5;" x1="841.5" x2="894.5" y1="1336.5781" y2="1336.5781"/><text fill="#000000" font-family="sans-serif" font-size="14" lengthAdjust="spacing" textLength="94.0898" x="851.5" y="1356.5732">stroom-node-2</text></g><!--entity stroom-node-1--><g class="entity" data-qualified-name="shared_storage.stroom-node-1" data-source-line="62" id="ent0031"><path d="M685,1315.5781 L726,1315.5781 A3.75,3.75 0 0 1 728.5,1318.0781 L735.5,1336.5781 L804.0898,1336.5781 A2.5,2.5 0 0 1 806.5898,1339.0781 L806.5898,1367.375 A2.5,2.5 0 0 1 804.0898,1369.875 L685,1369.875 A2.5,2.5 0 0 1 682.5,1367.375 L682.5,1318.0781 A2.5,2.5 0 0 1 685,1315.5781" fill="#F1F1F1" style="stroke:#181818;stroke-width:0.5;"/><line style="stroke:#181818;stroke-width:0.5;" x1="682.5" x2="735.5" y1="1336.5781" y2="1336.5781"/><text fill="#000000" font-family="sans-serif" font-size="14" lengthAdjust="spacing" textLength="94.0898" x="692.5" y="1356.5732">stroom-node-1</text></g><!--entity event_producer--><g class="entity" data-qualified-name="event_producer" data-source-line="12" id="ent0002"><polygon fill="#F1F1F1" points="41.5,76.5781,51.5,66.5781,181.6191,66.5781,181.6191,119.1719,171.6191,129.1719,41.5,129.1719,41.5,76.5781" style="stroke:#181818;stroke-width:0.5;"/><line style="stroke:#181818;stroke-width:0.5;" x1="171.6191" x2="181.6191" y1="76.5781" y2="66.5781"/><line style="stroke:#181818;stroke-width:0.5;" x1="41.5" x2="171.6191" y1="76.5781" y2="76.5781"/><line style="stroke:#181818;stroke-width:0.5;" x1="171.6191" x2="171.6191" y1="76.5781" y2="129.1719"/><text fill="#000000" font-family="sans-serif" font-size="14" font-style="italic" lengthAdjust="spacing" textLength="83.3164" x="64.9014" y="99.5732">&#171;application&#187;</text><text fill="#000000" font-family="sans-serif" font-size="14" lengthAdjust="spacing" textLength="100.1191" x="56.5" y="115.8701">Event generator</text></g><!--entity ui_client_browser--><g class="entity" data-qualified-name="ui_client_browser" data-source-line="13" id="ent0003"><polygon fill="#F1F1F1" points="242,231.5781,252,221.5781,379.1152,221.5781,379.1152,274.1719,369.1152,284.1719,242,284.1719,242,231.5781" style="stroke:#181818;stroke-width:0.5;"/><line style="stroke:#181818;stroke-width:0.5;" x1="369.1152" x2="379.1152" y1="231.5781" y2="221.5781"/><line style="stroke:#181818;stroke-width:0.5;" x1="242" x2="369.1152" y1="231.5781" y2="231.5781"/><line style="stroke:#181818;stroke-width:0.5;" x1="369.1152" x2="369.1152" y1="231.5781" y2="284.1719"/><text fill="#000000" font-family="sans-serif" font-size="14" font-style="italic" lengthAdjust="spacing" textLength="95.1152" x="258" y="254.5732">&#171;web browser&#187;</text><text fill="#000000" font-family="sans-serif" font-size="14" lengthAdjust="spacing" textLength="29.1689" x="290.9731" y="270.8701">User</text></g><!--entity api_client_app--><g class="entity" data-qualified-name="api_client_app" data-source-line="14" id="ent0004"><polygon fill="#F1F1F1" points="414,231.5781,424,221.5781,539.3164,221.5781,539.3164,274.1719,529.3164,284.1719,414,284.1719,414,231.5781" style="stroke:#181818;stroke-width:0.5;"/><line style="stroke:#181818;stroke-width:0.5;" x1="529.3164" x2="539.3164" y1="231.5781" y2="221.5781"/><line style="stroke:#181818;stroke-width:0.5;" x1="414" x2="529.3164" y1="231.5781" y2="231.5781"/><line style="stroke:#181818;stroke-width:0.5;" x1="529.3164" x2="529.3164" y1="231.5781" y2="284.1719"/><text fill="#000000" font-family="sans-serif" font-size="14" font-style="italic" lengthAdjust="spacing" textLength="83.3164" x="430" y="254.5732">&#171;application&#187;</text><text fill="#000000" font-family="sans-serif" font-size="14" lengthAdjust="spacing" textLength="59.165" x="442.0757" y="270.8701">API client</text></g><!--entity remote_proxy--><g class="entity" data-qualified-name="remote_proxy" data-source-line="15" id="ent0005"><polygon fill="#F1F1F1" points="16,231.5781,26,221.5781,207.375,221.5781,207.375,274.1719,197.375,284.1719,16,284.1719,16,231.5781" style="stroke:#181818;stroke-width:0.5;"/><line style="stroke:#181818;stroke-width:0.5;" x1="197.375" x2="207.375" y1="231.5781" y2="221.5781"/><line style="stroke:#181818;stroke-width:0.5;" x1="16" x2="197.375" y1="231.5781" y2="231.5781"/><line style="stroke:#181818;stroke-width:0.5;" x1="197.375" x2="197.375" y1="231.5781" y2="284.1719"/><text fill="#000000" font-family="sans-serif" font-size="14" font-style="italic" lengthAdjust="spacing" textLength="83.3164" x="65.0293" y="254.5732">&#171;application&#187;</text><text fill="#000000" font-family="sans-serif" font-size="14" lengthAdjust="spacing" textLength="151.375" x="31" y="270.8701">Upstream Stroom proxy</text></g><!--entity nginx--><g class="entity" data-qualified-name="nginx" data-source-line="17" id="ent0006"><polygon fill="#F1F1F1" points="228,401.5781,238,391.5781,393.4258,391.5781,393.4258,444.1719,383.4258,454.1719,228,454.1719,228,401.5781" style="stroke:#181818;stroke-width:0.5;"/><line style="stroke:#181818;stroke-width:0.5;" x1="383.4258" x2="393.4258" y1="401.5781" y2="391.5781"/><line style="stroke:#181818;stroke-width:0.5;" x1="228" x2="383.4258" y1="401.5781" y2="401.5781"/><line style="stroke:#181818;stroke-width:0.5;" x1="383.4258" x2="383.4258" y1="401.5781" y2="454.1719"/><text fill="#000000" font-family="sans-serif" font-size="14" font-style="italic" lengthAdjust="spacing" textLength="82.585" x="264.4204" y="424.5732">&#171;web server&#187;</text><text fill="#000000" font-family="sans-serif" font-size="14" lengthAdjust="spacing" textLength="125.4258" x="243" y="440.8701">Nginx load balancer</text></g><!--link nginx to proxy_cluster--><g class="link" data-entity-1="ent0006" data-entity-2="ent0007" data-link-type="dependency" data-source-line="22" id="lnk10"><path d="M227.98,439.7081 C176.94,453.5781 114.03,478.9981 75.5,524.5781 C73.0938,527.4244 70.8625,530.4219 68.7937,533.5414 C67.7593,535.1011 66.7656,536.6913 65.8109,538.3083 C65.5723,538.7125 65.3361,539.1184 65.1022,539.526 C64.9853,539.7298 67.8227,534.7113 67.707,534.9159" fill="none" id="nginx-to-proxy_cluster" style="stroke:#008000;stroke-width:1;"/><polygon fill="#008000" points="64.7534,540.1385,72.6656,534.2736,67.2147,535.7863,65.7021,530.3354,64.7534,540.1385" style="stroke:#008000;stroke-width:1;"/><text fill="#008000" font-family="sans-serif" font-size="13" lengthAdjust="spacing" textLength="62.2261" x="136.8064" y="497.645">HTTP:8090</text><text fill="#008000" font-family="sans-serif" font-size="13" lengthAdjust="spacing" textLength="100.8389" x="117.5" y="512.7778">/datafeed (proxy)</text></g><!--link nginx to stroom_cluster--><g class="link" data-entity-1="ent0006" data-entity-2="ent0013" data-link-type="dependency" data-source-line="35" id="lnk16"><path d="M393.35,450.7681 C428.46,466.4981 466.12,490.2281 487.5,524.5781 C554.27,631.8681 586.24,714.8281 501.5,808.5781 C489.67,821.6681 435.8,804.9781 422.5,816.5781 C419.6912,819.0281 417.107,821.6782 414.7302,824.4945 C413.5419,825.9026 412.4054,827.3523 411.3186,828.8393 C410.7752,829.5828 410.2443,830.3356 409.7255,831.0972 C409.4661,831.478 412.507,826.8482 412.2537,827.2333" fill="none" id="nginx-to-stroom_cluster" style="stroke:#008000;stroke-width:1;"/><polygon fill="#008000" points="408.9565,832.2462,417.2442,826.9251,411.7041,828.0688,410.5604,822.5288,408.9565,832.2462" style="stroke:#008000;stroke-width:1;"/><text fill="#008000" font-family="sans-serif" font-size="13" lengthAdjust="spacing" textLength="62.2261" x="594.0552" y="640.145">HTTP:8080</text><text fill="#008000" font-family="sans-serif" font-size="13" lengthAdjust="spacing" textLength="143.3364" x="553.5" y="655.2778">/datafeeddirect (stroom)</text><text fill="#008000" font-family="sans-serif" font-size="13" lengthAdjust="spacing" textLength="76.0386" x="587.1489" y="670.4106">/api (stroom)</text><text fill="#008000" font-family="sans-serif" font-size="13" lengthAdjust="spacing" textLength="69.1768" x="590.5798" y="685.5435">/ui (stroom)</text></g><!--link stroom_proxy_local_1 to stroom_cluster--><g class="link" data-entity-1="ent0009" data-entity-2="ent0013" data-link-type="dependency" data-source-line="42" id="lnk19"><path d="M390.5,689.8381 C390.5,708.2056 390.5,733.2331 390.5,760.5303 C390.5,774.1789 390.5,788.3949 390.5,802.6296 C390.5,809.7469 390.5,816.8689 390.5,823.9269 C390.5,825.6914 390.5,827.4519 390.5,829.2074 C390.5,830.0851 390.5,824.9616 390.5,825.8366" fill="none" id="stroom_proxy_local_1-to-stroom_cluster" style="stroke:#800080;stroke-width:1;stroke-dasharray:7,7;"/><polygon fill="#800080" points="390.5,831.8366,394.5,822.8366,390.5,826.8366,386.5,822.8366,390.5,831.8366" style="stroke:#800080;stroke-width:1;"/><text fill="#800080" font-family="sans-serif" font-size="13" lengthAdjust="spacing" textLength="101.645" x="391.5" y="774.645">HTTPS (via Nginx)</text><text fill="#800080" font-family="sans-serif" font-size="13" lengthAdjust="spacing" textLength="90.0288" x="397.3081" y="789.7778">/datafeeddirect</text><text fill="#800080" font-family="sans-serif" font-size="13" lengthAdjust="spacing" textLength="76.0386" x="404.3032" y="804.9106">/api (stroom)</text></g><!--link stroom_proxy_local_2 to stroom_cluster--><g class="link" data-entity-1="ent0012" data-entity-2="ent0013" data-link-type="dependency" data-source-line="43" id="lnk20"><path d="M193.8,689.7381 C215.11,720.1781 248.99,768.0181 279.5,808.5781 C303.045,839.8781 330.3025,874.4031 351.9137,901.3956 C362.7194,914.8919 372.1134,926.505 378.9261,934.8903 C379.7777,935.9385 380.5889,936.9362 381.3576,937.8809 C381.7419,938.3532 378.3271,934.1595 378.6898,934.605" fill="none" id="stroom_proxy_local_2-to-stroom_cluster" style="stroke:#800080;stroke-width:1;stroke-dasharray:7,7;"/><polygon fill="#800080" points="382.4782,939.2578,379.8975,929.753,379.3212,935.3805,373.6938,934.8042,382.4782,939.2578" style="stroke:#800080;stroke-width:1;"/><text fill="#800080" font-family="sans-serif" font-size="13" lengthAdjust="spacing" textLength="101.645" x="280.5" y="774.645">HTTPS (via Nginx)</text><text fill="#800080" font-family="sans-serif" font-size="13" lengthAdjust="spacing" textLength="90.0288" x="286.3081" y="789.7778">/datafeeddirect</text><text fill="#800080" font-family="sans-serif" font-size="13" lengthAdjust="spacing" textLength="76.0386" x="293.3032" y="804.9106">/api (stroom)</text></g><!--link stroom_node_1 to stroom_node_2--><g class="link" data-entity-1="ent0015" data-entity-2="ent0018" data-link-type="dependency" data-source-line="47" id="lnk21"><path d="M499.4057,987.758 C499.5157,1006.268 499.97,1024.2981 501.5,1045.5781 C502.71,1062.4981 504.1584,1075.3519 506.2184,1090.6319" fill="none" id="stroom_node_1-stroom_node_2" style="stroke:#808080;stroke-width:1;"/><polygon fill="#808080" points="499.37,981.7581,495.4236,990.7817,499.3997,986.758,503.4234,990.7342,499.37,981.7581" style="stroke:#808080;stroke-width:1;"/><polygon fill="#808080" points="507.02,1096.5781,509.7817,1087.1244,506.352,1091.623,501.8534,1088.1932,507.02,1096.5781" style="stroke:#808080;stroke-width:1;"/><text fill="#808080" font-family="sans-serif" font-size="13" lengthAdjust="spacing" textLength="62.2261" x="550.0059" y="1026.645">HTTP:8080</text><text fill="#808080" font-family="sans-serif" font-size="13" lengthAdjust="spacing" textLength="157.2378" x="502.5" y="1041.7778">Inter-node communication</text></g><!--link stroom_node_1 to stroom_db--><g class="link" data-entity-1="ent0015" data-entity-2="ent0023" data-link-type="dependency" data-source-line="55" id="lnk25"><path d="M469.85,981.8281 C459.5,990.8581 447.26,999.8381 434.5,1005.5781 C412.37,1015.5281 403.77,1006.7181 380.5,1013.5781 C339.29,1025.7381 315.76,1017.4581 292.5,1053.5781 C237.03,1139.7181 296.6459,1264.0114 325.5159,1314.8214" fill="none" id="stroom_node_1-to-stroom_db" style="stroke:#181818;stroke-width:1;"/><polygon fill="#181818" points="328.48,1320.0381,327.5116,1310.237,326.0099,1315.6909,320.556,1314.1891,328.48,1320.0381" style="stroke:#181818;stroke-width:1;"/><text fill="#8B0000" font-family="sans-serif" font-size="13" lengthAdjust="spacing" textLength="54.2026" x="293.5" y="1132.645">TCP:3306</text></g><!--link stroom_node_1 to stroom_stats_db--><g class="link" data-entity-1="ent0015" data-entity-2="ent0024" data-link-type="dependency" data-source-line="56" id="lnk26"><path d="M463.1,981.5981 C427.68,1011.3481 379.09,1052.3081 378.5,1053.5781 C342,1132.3381 353.11,1169.7681 389.5,1248.5781 C400.85,1273.1681 411.8166,1295.7267 421.0766,1314.5067" fill="none" id="stroom_node_1-to-stroom_stats_db" style="stroke:#181818;stroke-width:1;"/><polygon fill="#181818" points="423.73,1319.8881,423.3374,1310.0471,421.5188,1315.4036,416.1623,1313.585,423.73,1319.8881" style="stroke:#181818;stroke-width:1;"/><text fill="#8B0000" font-family="sans-serif" font-size="13" lengthAdjust="spacing" textLength="54.2026" x="379.5" y="1132.645">TCP:3306</text></g><!--link stroom_node_2 to stroom_db--><g class="link" data-entity-1="ent0018" data-entity-2="ent0023" data-link-type="dependency" data-source-line="57" id="lnk27"><path d="M486.46,1159.5781 C469.55,1179.1381 446.09,1204.3681 422.5,1223.5781 C417.24,1227.8581 414.47,1226.9581 409.5,1231.5781 C399.47,1240.8981 398.98,1245.1081 391.5,1256.5781 C377.75,1277.6581 366.2593,1297.333 356.4493,1314.713" fill="none" id="stroom_node_2-to-stroom_db" style="stroke:#181818;stroke-width:1;"/><polygon fill="#181818" points="353.5,1319.9381,361.4073,1314.0666,355.9577,1315.5839,354.4405,1310.1343,353.5,1319.9381" style="stroke:#181818;stroke-width:1;"/><text fill="#8B0000" font-family="sans-serif" font-size="13" lengthAdjust="spacing" textLength="54.2026" x="410.5" y="1244.645">TCP:3306</text></g><!--link stroom_node_2 to stroom_stats_db--><g class="link" data-entity-1="ent0018" data-entity-2="ent0024" data-link-type="dependency" data-source-line="58" id="lnk28"><path d="M502.56,1159.7881 C495.29,1184.0781 484.47,1218.7481 473.5,1248.5781 C464.37,1273.3881 454.8608,1295.7981 446.6108,1314.5081" fill="none" id="stroom_node_2-to-stroom_stats_db" style="stroke:#181818;stroke-width:1;"/><polygon fill="#181818" points="444.19,1319.9981,451.4811,1313.377,446.2073,1315.4231,444.1611,1310.1493,444.19,1319.9981" style="stroke:#181818;stroke-width:1;"/><text fill="#8B0000" font-family="sans-serif" font-size="13" lengthAdjust="spacing" textLength="54.2026" x="480.5" y="1244.645">TCP:3306</text></g><!--link stroom_node_1 to shared_storage--><g class="link" data-entity-1="ent0015" data-entity-2="ent0029" data-link-type="dependency" data-source-line="66" id="lnk32"><path d="M560.72,957.1981 C597.39,964.3781 641.26,979.9281 664.5,1013.5781 C685.075,1043.3731 681.0525,1124.3306 671.7738,1198.3544 C669.4541,1216.8603 666.8059,1234.9329 664.1313,1251.6644 C663.4627,1255.8472 662.7924,1259.9463 662.1253,1263.9473 C661.7917,1265.9478 661.4588,1267.9239 661.1274,1269.8736 C661.0445,1270.361 661.9719,1264.9325 661.8892,1265.4166" fill="none" id="stroom_node_1-to-shared_storage" style="stroke:#181818;stroke-width:1;"/><polygon fill="#181818" points="660.879,1271.331,666.3372,1263.1329,661.7208,1266.4023,658.4514,1261.786,660.879,1271.331" style="stroke:#181818;stroke-width:1;"/><text fill="#8B0000" font-family="sans-serif" font-size="13" lengthAdjust="spacing" textLength="53.5933" x="679.5" y="1132.645">NFS/SMB</text></g><!--link stroom_node_2 to shared_storage--><g class="link" data-entity-1="ent0018" data-entity-2="ent0029" data-link-type="dependency" data-source-line="67" id="lnk33"><path d="M531.28,1159.9781 C549.845,1188.9831 578.29,1233.4281 602.3912,1271.0881 C614.4419,1289.9181 625.4066,1307.0519 633.5073,1319.7113 C635.5325,1322.8761 637.3787,1325.7613 639.0182,1328.3234 C639.1206,1328.4836 635.9885,1323.5885 636.0893,1323.7461" fill="none" id="stroom_node_2-to-shared_storage" style="stroke:#181818;stroke-width:1;"/><polygon fill="#181818" points="639.3231,1328.8,637.8417,1319.0632,636.6283,1324.5884,631.1031,1323.375,639.3231,1328.8" style="stroke:#181818;stroke-width:1;"/><text fill="#8B0000" font-family="sans-serif" font-size="13" lengthAdjust="spacing" textLength="53.5933" x="588.5" y="1244.645">NFS/SMB</text></g><!--link ui_client_browser to nginx--><g class="link" data-entity-1="ent0003" data-entity-2="ent0006" data-link-type="dependency" data-source-line="70" id="lnk34"><path d="M310.5,284.8881 C310.5,315.2081 310.5,355.2181 310.5,385.4581" fill="none" id="ui_client_browser-to-nginx" style="stroke:#0000FF;stroke-width:1;"/><polygon fill="#0000FF" points="310.5,391.4581,314.5,382.4581,310.5,386.4581,306.5,382.4581,310.5,391.4581" style="stroke:#0000FF;stroke-width:1;"/><text fill="#0000FF" font-family="sans-serif" font-size="13" lengthAdjust="spacing" textLength="36.8481" x="311.5" y="342.645">HTTPS</text></g><!--link api_client_app to nginx--><g class="link" data-entity-1="ent0004" data-entity-2="ent0006" data-link-type="dependency" data-source-line="71" id="lnk35"><path d="M446.05,284.8881 C416.1,315.2081 374.8579,356.9509 344.9679,387.1909" fill="none" id="api_client_app-to-nginx" style="stroke:#0000FF;stroke-width:1;"/><polygon fill="#0000FF" points="340.75,391.4581,349.9217,387.8691,344.2649,387.9021,344.232,382.2453,340.75,391.4581" style="stroke:#0000FF;stroke-width:1;"/><text fill="#0000FF" font-family="sans-serif" font-size="13" lengthAdjust="spacing" textLength="36.8481" x="434.0952" y="335.145">HTTPS</text><text fill="#0000FF" font-family="sans-serif" font-size="13" lengthAdjust="spacing" textLength="76.0386" x="414.5" y="350.2778">/api (stroom)</text></g><!--link event_producer to remote_proxy--><g class="link" data-entity-1="ent0002" data-entity-2="ent0005" data-link-type="dependency" data-source-line="72" id="lnk36"><path d="M111.5,129.6681 C111.5,156.3581 111.5,188.8681 111.5,215.5381" fill="none" id="event_producer-to-remote_proxy" style="stroke:#0000FF;stroke-width:1;"/><polygon fill="#0000FF" points="111.5,221.5381,115.5,212.5381,111.5,216.5381,107.5,212.5381,111.5,221.5381" style="stroke:#0000FF;stroke-width:1;"/><text fill="#0000FF" font-family="sans-serif" font-size="13" lengthAdjust="spacing" textLength="36.8481" x="124.7288" y="172.645">HTTPS</text><text fill="#0000FF" font-family="sans-serif" font-size="13" lengthAdjust="spacing" textLength="61.3057" x="112.5" y="187.7778">Event data</text></g><!--link remote_proxy to nginx--><g class="link" data-entity-1="ent0005" data-entity-2="ent0006" data-link-type="dependency" data-source-line="73" id="lnk37"><path d="M145.24,284.7181 C169.48,306.5181 203.12,336.2981 233.5,361.5781 C245.39,371.4781 253.8379,378.2766 265.8679,387.7066" fill="none" id="remote_proxy-to-nginx" style="stroke:#0000FF;stroke-width:1;"/><polygon fill="#0000FF" points="270.59,391.4081,265.9745,382.7077,266.6549,388.3235,261.0391,389.0039,270.59,391.4081" style="stroke:#0000FF;stroke-width:1;"/><text fill="#0000FF" font-family="sans-serif" font-size="13" lengthAdjust="spacing" textLength="36.8481" x="249.6201" y="327.645">HTTPS</text><text fill="#0000FF" font-family="sans-serif" font-size="13" lengthAdjust="spacing" textLength="56.4814" x="239.8035" y="342.7778">/datafeed</text><text fill="#0000FF" font-family="sans-serif" font-size="13" lengthAdjust="spacing" textLength="67.0884" x="234.5" y="357.9106">/api (proxy)</text></g><g class="legend" data-source-line="75"><rect fill="#DDDDDD" height="124.0781" rx="7.5" ry="7.5" style="stroke:#000000;stroke-width:1;" width="203.8672" x="765.6328" y="1410.5781"/><text fill="#000000" font-family="sans-serif" font-size="14" font-weight="bold" lengthAdjust="spacing" textLength="101.7051" x="770.6328" y="1428.5732">Types of traffic</text><text fill="#000000" font-family="sans-serif" font-size="14" lengthAdjust="spacing" textLength="3.6367" x="770.6328" y="1444.8701">&#160;</text><text fill="#0000FF" font-family="sans-serif" font-size="14" lengthAdjust="spacing" textLength="36.1689" x="770.6328" y="1461.167">Client</text><text fill="#8B0000" font-family="sans-serif" font-size="14" lengthAdjust="spacing" textLength="37.502" x="770.6328" y="1477.4639">Direct</text><text fill="#008000" font-family="sans-serif" font-size="14" lengthAdjust="spacing" textLength="193.8672" x="770.6328" y="1493.7607">Reverse-proxied (unencrypted)</text><text fill="#808080" font-family="sans-serif" font-size="14" lengthAdjust="spacing" textLength="141.9414" x="770.6328" y="1510.0576">Internal (unencrypted)</text><text fill="#800080" font-family="sans-serif" font-size="14" lengthAdjust="spacing" textLength="58.9668" x="770.6328" y="1526.3545">Via Nginx</text></g><?plantuml-src pLPPRzD047xthrZIXpGIxX4a15KQYL8k2Qf00Y-bYjRs95cmTwtrEgs5-j-PFUBuY7lG5_8IUUVOR-QRcHt5L0mUmT_fL4aX4l96XYkc85IvT8BJTpSqIMCWislXNuW8oDiupnH8iiy5zqF15MKS9CiW8X6aiIWIu6hW0O-8CXTu_NDOe0vHAo1hAfd8CqBJD6OXLKnmaWgfCkzPPZ3CzTVfgwDNHziJAMwApVdhewr36iV6AKTS6TdFGAvP2DbpGaCb9Fw32Wy6dXQJthiruY9BGB0KfJr2CmBwJFkFyX136eqgiCPZP_WT_HhjdCt3c6cBG8hhp1XSGq3SLsdmPlA9M4LZHjFI3jrtNP9Yi40JufWmCHjp2ObGO9FGCdRM5ql6RqWiQ4G26bCUEiJSd5kKEZi6f2UHOCgNI6flOhps7QTzOsJJ7JgQ_vWwo31ZT5aQc4BOE-uvgVvP89z5IEDs33KYOwqpFqPOl-YQwaf0KAKRWzY_tFiW0VYLFsx0EI6ZKCH2dXZv-EDiDZbfbSdeqEYCV_AQyc545Lq05kg-qHrizCpjjrvtfCEdH3fiHthhtTPeS6uS3LL77JGuWquUd5n_LBtfxsRcIyl-Dsm7cO6DXc1hSqI8TPRTmKu3vbtqF82OYEcaO2SRaq6NEdRKlJfvMsKdpRLC3X-NoPtCElSx2lxWSc-IInocLmVTYRCQ9dDJihzcb9ZcRiVf51kvwrJRbRCkgCF_42ecjl-9Aqdz3OvG94dEtIpq6XLkQxIebAXZh5gXnOCAj1ZZlI1zKm-rIqjmNbbENuhfryzaQcPjjLxmgPf7GURAIoSYeDXgFIkkQaP1IuMghAfX3hIUpidvMQrJwsdmj-57mJRqSof_VuDeF7ixENdnukXb6KUdzURAH_eOFWd1y1yHRDcOhgZ4SJ-rtpQ7vcY-KR5yB4GSOKKvDWpJ_h3NAJhkcTGxxnjNzz1GlxSLnSNxwU7qozbTYNYa1m-VTRrrr82rTnZibBCu1zqfThoNZlMnxUxIPsENUOnjsL96jBl96_jOnNrj2thmBNRdqwrKNb5pz0JycrbsLtYDBSEBOQdNOicMAuN5DGh6ioB5pLKi20wsnOA5eyF0lCXLNvR5oinky7vUcwPRkNq8tQFkQonChpuv1nxA8bKG3NOQkNd7SRsvHzaDx1-RoR_baKSsLYp25SEn2Kcg2f904Y0Oxoy0?></g></svg>