<?plantuml 1.2026.1?><svg xmlns="http://www.w3.org/2000/svg" xmlns:xlink="http://www.w3.org/1999/xlink" contentStyleType="text/css" data-diagram-type="DESCRIPTION" height="851px" preserveAspectRatio="none" style="width:748px;height:851px;background:#FFFFFF;" version="1.1" viewBox="0 0 748 851" width="748px" zoomAndPan="magnify"><title>==Stroom single-node deployment
All services running in docker containers</title><defs/><g><g class="title" data-source-line="2"><text fill="#000000" font-family="sans-serif" font-size="16" font-weight="bold" lengthAdjust="spacing" textLength="246.7813" x="243.6094" y="24.8516">Stroom single-node deployment</text><text fill="#000000" font-family="sans-serif" font-size="14" font-weight="bold" lengthAdjust="spacing" textLength="275.0166" x="229.4917" y="41.6201">All services running in docker containers</text></g><!--cluster dataload_client_host--><g class="cluster" data-qualified-name="dataload_client_host" data-source-line="13" id="ent0002"><polygon fill="none" points="16,71.9219,26,61.9219,229,61.9219,229,186.9219,219,196.9219,16,196.9219,16,71.9219" style="stroke:#181818;stroke-width:1;"/><line style="stroke:#181818;stroke-width:1;" x1="219" x2="229" y1="71.9219" y2="61.9219"/><line style="stroke:#181818;stroke-width:1;" x1="16" x2="219" y1="71.9219" y2="71.9219"/><line style="stroke:#181818;stroke-width:1;" x1="219" x2="219" y1="71.9219" y2="196.9219"/><text fill="#000000" font-family="sans-serif" font-size="14" font-style="italic" lengthAdjust="spacing" textLength="53.6279" x="91.686" y="87.917">&#171;device&#187;</text><text fill="#000000" font-family="sans-serif" font-size="14" font-weight="bold" lengthAdjust="spacing" textLength="137.0879" x="49.9561" y="104.2139">Datafeed client host</text></g><!--cluster ui_client_host--><g class="cluster" data-qualified-name="ui_client_host" data-source-line="17" id="ent0004"><polygon fill="none" points="253,71.9219,263,61.9219,451,61.9219,451,186.9219,441,196.9219,253,196.9219,253,71.9219" style="stroke:#181818;stroke-width:1;"/><line style="stroke:#181818;stroke-width:1;" x1="441" x2="451" y1="71.9219" y2="61.9219"/><line style="stroke:#181818;stroke-width:1;" x1="253" x2="441" y1="71.9219" y2="71.9219"/><line style="stroke:#181818;stroke-width:1;" x1="441" x2="441" y1="71.9219" y2="196.9219"/><text fill="#000000" font-family="sans-serif" font-size="14" font-style="italic" lengthAdjust="spacing" textLength="53.6279" x="321.186" y="87.917">&#171;device&#187;</text><text fill="#000000" font-family="sans-serif" font-size="14" font-weight="bold" lengthAdjust="spacing" textLength="122.2676" x="286.8662" y="104.2139">User desktop host</text></g><!--cluster remote_proxy_host--><g class="cluster" data-qualified-name="remote_proxy_host" data-source-line="21" id="ent0006"><polygon fill="none" points="475,71.9219,485,61.9219,731,61.9219,731,186.9219,721,196.9219,475,196.9219,475,71.9219" style="stroke:#181818;stroke-width:1;"/><line style="stroke:#181818;stroke-width:1;" x1="721" x2="731" y1="71.9219" y2="61.9219"/><line style="stroke:#181818;stroke-width:1;" x1="475" x2="721" y1="71.9219" y2="71.9219"/><line style="stroke:#181818;stroke-width:1;" x1="721" x2="721" y1="71.9219" y2="196.9219"/><text fill="#000000" font-family="sans-serif" font-size="14" font-style="italic" lengthAdjust="spacing" textLength="53.6279" x="572.186" y="87.917">&#171;device&#187;</text><text fill="#000000" font-family="sans-serif" font-size="14" font-weight="bold" lengthAdjust="spacing" textLength="180.6943" x="508.6528" y="104.2139">Remote stroom-proxy host</text></g><!--cluster stroom_host--><g class="cluster" data-qualified-name="stroom_host" data-source-line="27" id="ent0008"><polygon fill="none" points="249,230.9219,259,220.9219,669,220.9219,669,824.9219,659,834.9219,249,834.9219,249,230.9219" style="stroke:#181818;stroke-width:1;"/><line style="stroke:#181818;stroke-width:1;" x1="659" x2="669" y1="230.9219" y2="220.9219"/><line style="stroke:#181818;stroke-width:1;" x1="249" x2="659" y1="230.9219" y2="230.9219"/><line style="stroke:#181818;stroke-width:1;" x1="659" x2="659" y1="230.9219" y2="834.9219"/><text fill="#000000" font-family="sans-serif" font-size="14" font-style="italic" lengthAdjust="spacing" textLength="53.6279" x="428.186" y="246.917">&#171;device&#187;</text><text fill="#000000" font-family="sans-serif" font-size="14" font-weight="bold" lengthAdjust="spacing" textLength="81.9014" x="414.0493" y="263.2139">stroom host</text></g><!--cluster nginx_container--><g class="cluster" data-qualified-name="stroom_host.nginx_container" data-source-line="28" id="ent0009"><rect fill="none" height="130" rx="12.5" ry="12.5" style="stroke:#181818;stroke-width:1;" width="158" x="273" y="284.9219"/><text fill="#000000" font-family="sans-serif" font-size="14" font-style="italic" lengthAdjust="spacing" textLength="73.5547" x="315.2227" y="299.917">&#171;container&#187;</text><text fill="#000000" font-family="sans-serif" font-size="14" font-weight="bold" lengthAdjust="spacing" textLength="37.2217" x="333.3892" y="316.2139">nginx</text></g><!--cluster stroom_container--><g class="cluster" data-qualified-name="stroom_host.stroom_container" data-source-line="32" id="ent0011"><rect fill="none" height="130" rx="12.5" ry="12.5" style="stroke:#181818;stroke-width:1;" width="140" x="285" y="438.9219"/><text fill="#000000" font-family="sans-serif" font-size="14" font-style="italic" lengthAdjust="spacing" textLength="73.5547" x="318.2227" y="453.917">&#171;container&#187;</text><text fill="#000000" font-family="sans-serif" font-size="14" font-weight="bold" lengthAdjust="spacing" textLength="48.5693" x="330.7153" y="470.2139">stroom</text></g><!--cluster stroom_proxy_container--><g class="cluster" data-qualified-name="stroom_host.stroom_proxy_container" data-source-line="36" id="ent0013"><rect fill="none" height="130" rx="12.5" ry="12.5" style="stroke:#181818;stroke-width:1;" width="158" x="449" y="438.9219"/><text fill="#000000" font-family="sans-serif" font-size="14" font-style="italic" lengthAdjust="spacing" textLength="73.5547" x="491.2227" y="453.917">&#171;container&#187;</text><text fill="#000000" font-family="sans-serif" font-size="14" font-weight="bold" lengthAdjust="spacing" textLength="136.3496" x="459.8252" y="470.2139">stroom-proxy (local)</text></g><!--cluster stroom_log_sender--><g class="cluster" data-qualified-name="stroom_host.stroom_log_sender" data-source-line="40" id="ent0015"><rect fill="none" height="130" rx="12.5" ry="12.5" style="stroke:#181818;stroke-width:1;" width="190" x="455" y="284.9219"/><text fill="#000000" font-family="sans-serif" font-size="14" font-style="italic" lengthAdjust="spacing" textLength="73.5547" x="513.2227" y="299.917">&#171;container&#187;</text><text fill="#000000" font-family="sans-serif" font-size="14" font-weight="bold" lengthAdjust="spacing" textLength="124.332" x="487.834" y="316.2139">stroom-log-sender</text></g><!--cluster database_container--><g class="cluster" data-qualified-name="stroom_host.database_container" data-source-line="44" id="ent0017"><rect fill="none" height="218" rx="12.5" ry="12.5" style="stroke:#181818;stroke-width:1;" width="300" x="273" y="592.9219"/><text fill="#000000" font-family="sans-serif" font-size="14" font-style="italic" lengthAdjust="spacing" textLength="73.5547" x="386.2227" y="607.917">&#171;container&#187;</text><text fill="#000000" font-family="sans-serif" font-size="14" font-weight="bold" lengthAdjust="spacing" textLength="63.0957" x="391.4521" y="624.2139">Database</text></g><!--cluster stroom_all_dbs--><g class="cluster" data-qualified-name="stroom_host.database_container.stroom_all_dbs" data-source-line="45" id="ent0018"><path d="M297,661.9219 C297,651.9219 423,651.9219 423,651.9219 C423,651.9219 549,651.9219 549,661.9219 L549,776.9219 C549,786.9219 423,786.9219 423,786.9219 C423,786.9219 297,786.9219 297,776.9219 L297,661.9219" fill="none" style="stroke:#181818;stroke-width:1;"/><path d="M297,661.9219 C297,671.9219 423,671.9219 423,671.9219 C423,671.9219 549,671.9219 549,661.9219" fill="none" style="stroke:#181818;stroke-width:1;"/><text fill="#000000" font-family="sans-serif" font-size="14" font-style="italic" lengthAdjust="spacing" textLength="51.1602" x="397.4199" y="686.917">&#171;mysql&#187;</text><text fill="#000000" font-family="sans-serif" font-size="14" font-weight="bold" lengthAdjust="spacing" textLength="100.4199" x="372.79" y="703.2139">stroom_all_dbs</text></g><!--entity dataload_client_app--><g class="entity" data-qualified-name="dataload_client_host.dataload_client_app" data-source-line="14" id="ent0003"><polygon fill="#F1F1F1" points="73,127.9219,83,117.9219,213.1191,117.9219,213.1191,170.5156,203.1191,180.5156,73,180.5156,73,127.9219" style="stroke:#181818;stroke-width:0.5;"/><line style="stroke:#181818;stroke-width:0.5;" x1="203.1191" x2="213.1191" y1="127.9219" y2="117.9219"/><line style="stroke:#181818;stroke-width:0.5;" x1="73" x2="203.1191" y1="127.9219" y2="127.9219"/><line style="stroke:#181818;stroke-width:0.5;" x1="203.1191" x2="203.1191" y1="127.9219" y2="180.5156"/><text fill="#000000" font-family="sans-serif" font-size="14" font-style="italic" lengthAdjust="spacing" textLength="83.3164" x="96.4014" y="150.917">&#171;application&#187;</text><text fill="#000000" font-family="sans-serif" font-size="14" lengthAdjust="spacing" textLength="100.1191" x="88" y="167.2139">Event generator</text></g><!--entity ui_client_browser--><g class="entity" data-qualified-name="ui_client_host.ui_client_browser" data-source-line="18" id="ent0005"><polygon fill="#F1F1F1" points="283.5,127.9219,293.5,117.9219,420.6152,117.9219,420.6152,170.5156,410.6152,180.5156,283.5,180.5156,283.5,127.9219" style="stroke:#181818;stroke-width:0.5;"/><line style="stroke:#181818;stroke-width:0.5;" x1="410.6152" x2="420.6152" y1="127.9219" y2="117.9219"/><line style="stroke:#181818;stroke-width:0.5;" x1="283.5" x2="410.6152" y1="127.9219" y2="127.9219"/><line style="stroke:#181818;stroke-width:0.5;" x1="410.6152" x2="410.6152" y1="127.9219" y2="180.5156"/><text fill="#000000" font-family="sans-serif" font-size="14" font-style="italic" lengthAdjust="spacing" textLength="95.1152" x="299.5" y="150.917">&#171;web browser&#187;</text><text fill="#000000" font-family="sans-serif" font-size="14" lengthAdjust="spacing" textLength="83.4121" x="305.3516" y="167.2139">Web browser</text></g><!--entity remote_proxy--><g class="entity" data-qualified-name="remote_proxy_host.remote_proxy" data-source-line="22" id="ent0007"><polygon fill="#F1F1F1" points="491,127.9219,501,117.9219,616.5654,117.9219,616.5654,170.5156,606.5654,180.5156,491,180.5156,491,127.9219" style="stroke:#181818;stroke-width:0.5;"/><line style="stroke:#181818;stroke-width:0.5;" x1="606.5654" x2="616.5654" y1="127.9219" y2="117.9219"/><line style="stroke:#181818;stroke-width:0.5;" x1="491" x2="606.5654" y1="127.9219" y2="127.9219"/><line style="stroke:#181818;stroke-width:0.5;" x1="606.5654" x2="606.5654" y1="127.9219" y2="180.5156"/><text fill="#000000" font-family="sans-serif" font-size="14" font-style="italic" lengthAdjust="spacing" textLength="83.3164" x="507.1245" y="150.917">&#171;application&#187;</text><text fill="#000000" font-family="sans-serif" font-size="14" lengthAdjust="spacing" textLength="85.5654" x="506" y="167.2139">stroom-proxy</text></g><!--entity nginx--><g class="entity" data-qualified-name="stroom_host.nginx_container.nginx" data-source-line="29" id="ent0010"><polygon fill="#F1F1F1" points="289.5,345.9219,299.5,335.9219,414.085,335.9219,414.085,388.5156,404.085,398.5156,289.5,398.5156,289.5,345.9219" style="stroke:#181818;stroke-width:0.5;"/><line style="stroke:#181818;stroke-width:0.5;" x1="404.085" x2="414.085" y1="345.9219" y2="335.9219"/><line style="stroke:#181818;stroke-width:0.5;" x1="289.5" x2="404.085" y1="345.9219" y2="345.9219"/><line style="stroke:#181818;stroke-width:0.5;" x1="404.085" x2="404.085" y1="345.9219" y2="398.5156"/><text fill="#000000" font-family="sans-serif" font-size="14" font-style="italic" lengthAdjust="spacing" textLength="82.585" x="305.5" y="368.917">&#171;web server&#187;</text><text fill="#000000" font-family="sans-serif" font-size="14" lengthAdjust="spacing" textLength="34.3643" x="329.6104" y="385.2139">nginx</text></g><!--entity stroom_dropwiz--><g class="entity" data-qualified-name="stroom_host.stroom_container.stroom_dropwiz" data-source-line="33" id="ent0012"><polygon fill="#F1F1F1" points="301,499.9219,311,489.9219,409.2949,489.9219,409.2949,542.5156,399.2949,552.5156,301,552.5156,301,499.9219" style="stroke:#181818;stroke-width:0.5;"/><line style="stroke:#181818;stroke-width:0.5;" x1="399.2949" x2="409.2949" y1="499.9219" y2="489.9219"/><line style="stroke:#181818;stroke-width:0.5;" x1="301" x2="399.2949" y1="499.9219" y2="499.9219"/><line style="stroke:#181818;stroke-width:0.5;" x1="399.2949" x2="399.2949" y1="499.9219" y2="552.5156"/><text fill="#000000" font-family="sans-serif" font-size="14" font-style="italic" lengthAdjust="spacing" textLength="66.2949" x="317" y="522.917">&#171;java app&#187;</text><text fill="#000000" font-family="sans-serif" font-size="14" lengthAdjust="spacing" textLength="45.3496" x="327.4727" y="539.2139">stroom</text></g><!--entity stroom_proxy_dropwiz--><g class="entity" data-qualified-name="stroom_host.stroom_proxy_container.stroom_proxy_dropwiz" data-source-line="37" id="ent0014"><polygon fill="#F1F1F1" points="465,499.9219,475,489.9219,590.5654,489.9219,590.5654,542.5156,580.5654,552.5156,465,552.5156,465,499.9219" style="stroke:#181818;stroke-width:0.5;"/><line style="stroke:#181818;stroke-width:0.5;" x1="580.5654" x2="590.5654" y1="499.9219" y2="489.9219"/><line style="stroke:#181818;stroke-width:0.5;" x1="465" x2="580.5654" y1="499.9219" y2="499.9219"/><line style="stroke:#181818;stroke-width:0.5;" x1="580.5654" x2="580.5654" y1="499.9219" y2="552.5156"/><text fill="#000000" font-family="sans-serif" font-size="14" font-style="italic" lengthAdjust="spacing" textLength="66.2949" x="489.6353" y="522.917">&#171;java app&#187;</text><text fill="#000000" font-family="sans-serif" font-size="14" lengthAdjust="spacing" textLength="85.5654" x="480" y="539.2139">stroom-proxy</text></g><!--entity stroom_log_sender_script--><g class="entity" data-qualified-name="stroom_host.stroom_log_sender.stroom_log_sender_script" data-source-line="41" id="ent0016"><polygon fill="#F1F1F1" points="471.5,345.9219,481.5,335.9219,628.1484,335.9219,628.1484,388.5156,618.1484,398.5156,471.5,398.5156,471.5,345.9219" style="stroke:#181818;stroke-width:0.5;"/><line style="stroke:#181818;stroke-width:0.5;" x1="618.1484" x2="628.1484" y1="345.9219" y2="335.9219"/><line style="stroke:#181818;stroke-width:0.5;" x1="471.5" x2="618.1484" y1="345.9219" y2="345.9219"/><line style="stroke:#181818;stroke-width:0.5;" x1="618.1484" x2="618.1484" y1="345.9219" y2="398.5156"/><text fill="#000000" font-family="sans-serif" font-size="14" font-style="italic" lengthAdjust="spacing" textLength="48.583" x="520.5327" y="368.917">&#171;script&#187;</text><text fill="#000000" font-family="sans-serif" font-size="14" lengthAdjust="spacing" textLength="116.6484" x="486.5" y="385.2139">stroom-log-sender</text></g><!--entity stroom_db--><g class="entity" data-qualified-name="stroom_host.database_container.stroom_all_dbs.stroom_db" data-source-line="46" id="ent0019"><rect fill="#F1F1F1" height="52.5938" rx="35" ry="35" style="stroke:#181818;stroke-width:0.5;" width="92.8818" x="440.5" y="717.9219"/><text fill="#000000" font-family="sans-serif" font-size="14" font-style="italic" lengthAdjust="spacing" textLength="70.8818" x="451.5" y="740.917">&#171;database&#187;</text><text fill="#000000" font-family="sans-serif" font-size="14" lengthAdjust="spacing" textLength="45.3496" x="464.2661" y="757.2139">stroom</text></g><!--entity stroom_stats_db--><g class="entity" data-qualified-name="stroom_host.database_container.stroom_all_dbs.stroom_stats_db" data-source-line="47" id="ent0020"><rect fill="#F1F1F1" height="52.5938" rx="35" ry="35" style="stroke:#181818;stroke-width:0.5;" width="92.8818" x="312.5" y="717.9219"/><text fill="#000000" font-family="sans-serif" font-size="14" font-style="italic" lengthAdjust="spacing" textLength="70.8818" x="323.5" y="740.917">&#171;database&#187;</text><text fill="#000000" font-family="sans-serif" font-size="14" lengthAdjust="spacing" textLength="29.5518" x="344.165" y="757.2139">stats</text></g><!--link stroom_dropwiz to stroom_db--><g class="link" data-entity-1="ent0012" data-entity-2="ent0019" data-link-type="dependency" data-source-line="52" id="lnk21"><path d="M394.39,553.1819 C404.66,562.5619 415.06,573.4519 423,584.9219 C452.31,627.2519 469.6726,679.234 478.8626,712.064" fill="none" id="stroom_dropwiz-to-stroom_db" style="stroke:#181818;stroke-width:1;"/><polygon fill="#181818" points="480.48,717.8419,481.9058,708.0968,479.1322,713.027,474.202,710.2533,480.48,717.8419" style="stroke:#181818;stroke-width:1;"/></g><!--link stroom_dropwiz to stroom_stats_db--><g class="link" data-entity-1="ent0012" data-entity-2="ent0020" data-link-type="dependency" data-source-line="53" id="lnk22"><path d="M355.56,553.1519 C356.35,597.0319 357.6915,670.8629 358.4315,711.7629" fill="none" id="stroom_dropwiz-to-stroom_stats_db" style="stroke:#181818;stroke-width:1;"/><polygon fill="#181818" points="358.54,717.7619,362.3765,708.691,358.4496,712.7627,354.3778,708.8357,358.54,717.7619" style="stroke:#181818;stroke-width:1;"/></g><!--link stroom_dropwiz to nginx--><g class="link" data-entity-1="ent0012" data-entity-2="ent0010" data-link-type="dependency" data-source-line="56" id="lnk23"><path d="M343.92,489.7119 C340.37,463.3519 339.0515,431.5249 341.5615,405.1549" fill="none" id="stroom_dropwiz-to-nginx" style="stroke:#181818;stroke-width:1;"/><polygon fill="#181818" points="342.13,399.1819,337.2952,407.7624,341.6562,404.1594,345.2592,408.5204,342.13,399.1819" style="stroke:#181818;stroke-width:1;"/></g><!--link nginx to stroom_dropwiz--><g class="link" data-entity-1="ent0010" data-entity-2="ent0012" data-link-type="dependency" data-source-line="61" id="lnk27"><path d="M363.7,399.1819 C367.43,425.5519 368.7769,457.3826 366.0969,483.7426" fill="none" id="nginx-to-stroom_dropwiz" style="stroke:#181818;stroke-width:1;"/><polygon fill="#181818" points="365.49,489.7119,370.3798,481.1626,365.9957,484.7375,362.4208,480.3534,365.49,489.7119" style="stroke:#181818;stroke-width:1;"/></g><!--link stroom_proxy_dropwiz to nginx--><g class="link" data-entity-1="ent0014" data-entity-2="ent0010" data-link-type="dependency" data-source-line="57" id="lnk24"><path d="M508.63,489.7019 C490.91,472.4019 465.6,450.4219 443,430.9219 C431,420.5719 422.5492,413.0224 409.8392,402.9324" fill="none" id="stroom_proxy_dropwiz-to-nginx" style="stroke:#181818;stroke-width:1;"/><polygon fill="#181818" points="405.14,399.2019,409.7018,407.9305,409.056,402.3107,414.6759,401.6649,405.14,399.2019" style="stroke:#181818;stroke-width:1;"/></g><!--link nginx to stroom_proxy_dropwiz--><g class="link" data-entity-1="ent0010" data-entity-2="ent0014" data-link-type="dependency" data-source-line="62" id="lnk28"><path d="M371.93,399.2019 C382.85,409.2919 396,420.5719 408,430.9219 C430.69,450.4919 451.4,468.8649 473.36,486.1949" fill="none" id="nginx-to-stroom_proxy_dropwiz" style="stroke:#181818;stroke-width:1;"/><polygon fill="#181818" points="478.07,489.9119,473.483,481.1964,474.145,486.8144,468.527,487.4764,478.07,489.9119" style="stroke:#181818;stroke-width:1;"/></g><!--reverse link nginx to stroom_log_sender_script--><g class="link" data-entity-1="ent0010" data-entity-2="ent0016" data-link-type="dependency" data-source-line="58" id="lnk26"><path d="M420.65,367.4219 C439.59,367.4219 452.54,367.4219 471.49,367.4219" fill="none" id="nginx-backto-stroom_log_sender_script" style="stroke:#181818;stroke-width:1;"/><polygon fill="#181818" points="414.65,367.4219,423.65,371.4219,419.65,367.4219,423.65,363.4219,414.65,367.4219" style="stroke:#181818;stroke-width:1;"/></g><!--link ui_client_browser to nginx--><g class="link" data-entity-1="ent0005" data-entity-2="ent0010" data-link-type="dependency" data-source-line="66" id="lnk29"><path d="M352,181.3719 C352,222.5519 352,288.9119 352,329.8819" fill="none" id="ui_client_browser-to-nginx" style="stroke:#181818;stroke-width:1;"/><polygon fill="#181818" points="352,335.8819,356,326.8819,352,330.8819,348,326.8819,352,335.8819" style="stroke:#181818;stroke-width:1;"/></g><!--link dataload_client_app to nginx--><g class="link" data-entity-1="ent0003" data-entity-2="ent0010" data-link-type="dependency" data-source-line="67" id="lnk30"><path d="M172.94,181.3719 C212.79,222.5519 278.6274,290.6003 318.2774,331.5703" fill="none" id="dataload_client_app-to-nginx" style="stroke:#181818;stroke-width:1;"/><polygon fill="#181818" points="322.45,335.8819,319.0654,326.6328,318.9728,332.2889,313.3167,332.1963,322.45,335.8819" style="stroke:#181818;stroke-width:1;"/></g><!--link remote_proxy to nginx--><g class="link" data-entity-1="ent0007" data-entity-2="ent0010" data-link-type="dependency" data-source-line="68" id="lnk31"><path d="M496.56,181.0319 C482.11,190.2019 467.24,201.0219 455,212.9219 C417.15,249.7319 388.2692,297.3315 370.4092,330.4315" fill="none" id="remote_proxy-to-nginx" style="stroke:#181818;stroke-width:1;"/><polygon fill="#181818" points="367.56,335.7119,375.354,329.6908,369.9343,331.3116,368.3135,325.8919,367.56,335.7119" style="stroke:#181818;stroke-width:1;"/></g><?plantuml-src bLN1Rjim33tFNq7aqktWou3TKWDTkyDkGujXHqEsc5IB8dcIaZGh-k-Z9CUI4sT9VGXYak_nKIHb9vp40kYvlNroHkirMA6M4akbEGB7Jkhz6fKBCNTIWaMp5IrQC1kbA1I40gxR5HfejN9CA3IsGCN11UxYXbWMP0K6rkqbma8RSC-OXzkLK1qpR0q6MyUy07WjFXYzKVnU6ugPpuVmgeBFNuetptml1Mc3PssTBOBYsGDpR878eKs-6J0Bd1nICrv7H-qTC9zpzEKGvsieCP9ysthe4YaRSzfCubdN4Pn-fMYP4rfLbHSL2NxICL7TTkLqboHin3N9Vs43ZT4xeZX2zLO2xb9CdlOHrzeXdRFlPDaP_R9FsKrmri7wNm4v_0GvLJDruYbCJPyvy1GvML8Hty_aJzsVgQLGBm4H_jL3-s4q2X6Nj1_1-gFoGnjEoWUIuADSKLCkxyfifq1kTBSJVmdscsqPq55ToDftwQFKBPEVSghOg7SfoNes8dc_AgcNfQKjxcUmPoDh7QrNgRb4KjlMYCxFGVnpLfHVwePP71RHlrm-caFa8JEJikQDfV3rtlwHmzWT7akxpfRJVMtyjFPylSu967CsHmN3MUnRNktDmrT_8oegclRA5f5uD5DbMIKv5m8EcNjokFln7MZ0v5dYi2wvSpmvao6ddImbBjmG6dC_8kqUDI4E-d6DSKtpqcB6QUT8LFW6z9-0dFRqmapgfsxnv1rTTCdy3m00?></g></svg>