<?plantuml 1.2026.1?><svg xmlns="http://www.w3.org/2000/svg" xmlns:xlink="http://www.w3.org/1999/xlink" contentStyleType="text/css" data-diagram-type="ACTIVITY" height="2145.8333px" preserveAspectRatio="none" style="width:1858px;height:2145px;" version="1.1" viewBox="0 0 1858 2145" width="1858.3333px" zoomAndPan="magnify"><defs><linearGradient id="gij22pk61wq6g0" x1="50%" x2="50%" y1="0%" y2="100%"><stop offset="0%" stop-color="#FFFFFF"/><stop offset="100%" stop-color="#FFFFFF"/></linearGradient><filter height="300%" id="fij22pk61wq6g" width="300%" x="-1" y="-1"><feGaussianBlur result="blurOut" stdDeviation="2.0833"/><feColorMatrix in="blurOut" result="blurOut2" type="matrix" values="0 0 0 0 0 0 0 0 0 0 0 0 0 0 0 0 0 0 .4 0"/><feOffset dx="4.1667" dy="4.1667" in="blurOut2" result="blurOut3"/><feBlend in="SourceGraphic" in2="blurOut3" mode="normal"/></filter><linearGradient id="gij22pk61wq6g1" x1="50%" x2="50%" y1="0%" y2="100%"><stop offset="0%" stop-color="#4DABF5"/><stop offset="100%" stop-color="#2196F3"/></linearGradient><linearGradient id="gij22pk61wq6g2" x1="50%" x2="50%" y1="0%" y2="100%"><stop offset="0%" stop-color="#B052C0"/><stop offset="100%" stop-color="#9C27B0"/></linearGradient></defs><g><rect fill="url(#gij22pk61wq6g0)" height="35.3841" style="stroke:url(#gij22pk61wq6g0);stroke-width:1.0417;" width="1824.3754" x="15.625" y="11.4583"/><ellipse cx="309.2865" cy="62.4674" fill="#9C27B0" filter="url(#fij22pk61wq6g)" rx="10.4167" ry="10.4167" style="stroke:#1A78C2;stroke-width:1.0417;"/><polygon fill="#20C997" filter="url(#fij22pk61wq6g)" points="242.8914,93.7174,375.6816,93.7174,388.1816,111.4095,375.6816,129.1016,242.8914,129.1016,230.3914,111.4095,242.8914,93.7174" style="stroke:#CCCCCC;stroke-width:1.0417;"/><text fill="#222222" font-family="'Verdana'" font-size="12.5" font-weight="bold" lengthAdjust="spacing" textLength="48.291" x="323.8698" y="151.121">Enabled</text><text fill="#222222" font-family="'Verdana'" font-size="12.5" lengthAdjust="spacing" textLength="111.9568" x="253.3081" y="115.7369">Instant Forwarding?</text><text fill="#222222" font-family="'Verdana'" font-size="12.5" font-weight="bold" lengthAdjust="spacing" textLength="52.0325" x="398.5982" y="98.0448">Disabled</text><polygon fill="#20C997" filter="url(#fij22pk61wq6g)" points="280.5593,318.7724,338.0137,318.7724,350.5137,336.4644,338.0137,354.1565,280.5593,354.1565,268.0593,336.4644,280.5593,318.7724" style="stroke:#CCCCCC;stroke-width:1.0417;"/><text fill="#222222" font-family="'Verdana'" font-size="12.5" lengthAdjust="spacing" textLength="36.6211" x="290.976" y="340.7918">Is ZIP?</text><text fill="#222222" font-family="'Verdana'" font-size="12.5" font-weight="bold" lengthAdjust="spacing" textLength="20.575" x="237.0677" y="323.0998">Yes</text><text fill="#222222" font-family="'Verdana'" font-size="12.5" font-weight="bold" lengthAdjust="spacing" textLength="17.2791" x="360.9304" y="323.0998">No</text><polygon fill="#FD7E14" filter="url(#fij22pk61wq6g)" points="59.4513,364.5732,204.6987,364.5732,215.1154,388.5152,204.6987,412.4573,59.4513,412.4573" style="stroke:#2196F3;stroke-width:1.0417;"/><text fill="#FFFFFF" font-family="'Verdana'" font-size="12.5" lengthAdjust="spacing" textLength="111.9141" x="76.118" y="392.8426">/01_receiving_zip/n/</text><rect fill="url(#gij22pk61wq6g1)" filter="url(#fij22pk61wq6g)" height="47.8841" style="stroke:#2196F3;stroke-width:1.0417;" width="123.1099" x="70.52" y="448.9156"/><text fill="#FFFFFF" font-family="'Verdana'" font-size="12.5" lengthAdjust="spacing" textLength="89.7766" x="87.1867" y="477.1851">Scan ZIP entries</text><rect fill="#6F42C1" filter="url(#fij22pk61wq6g)" height="47.8841" rx="4.1667" ry="4.1667" style="stroke:#2196F3;stroke-width:1.0417;" width="220.4" x="21.875" y="589.4592"/><text fill="#FFFFFF" font-family="'Verdana'" font-size="12.5" lengthAdjust="spacing" textLength="187.0667" x="38.5417" y="617.7287">/02_split_zip_input_queue/d/nnn/</text><path d="M258.3944,658.7138 L258.3944,688.3606 L237.561,692.5273 L258.3944,696.6939 L258.3944,726.3407 A0,0 0 0 0 258.3944,726.3407 L359.4981,726.3407 A0,0 0 0 0 359.4981,726.3407 L359.4981,669.1305 L349.0814,658.7138 L258.3944,658.7138 A0,0 0 0 0 258.3944,658.7138" fill="url(#gij22pk61wq6g2)" filter="url(#fij22pk61wq6g)" style="stroke:#9C27B0;stroke-width:1.0417;"/><path d="M349.0814,658.7138 L349.0814,669.1305 L359.4981,669.1305 L349.0814,658.7138" fill="url(#gij22pk61wq6g2)" style="stroke:#9C27B0;stroke-width:1.0417;"/><text fill="#FFFFFF" font-family="'Verdana'" font-size="10.4167" lengthAdjust="spacing" textLength="55.3894" x="275.061" y="684.0078">One sub-dir</text><text fill="#FFFFFF" font-family="'Verdana'" font-size="10.4167" lengthAdjust="spacing" textLength="46.3409" x="275.061" y="696.1334">per group</text><text fill="#FFFFFF" font-family="'Verdana'" font-size="10.4167" lengthAdjust="spacing" textLength="58.3954" x="275.061" y="708.2591">(feed + type)</text><polygon fill="#FD7E14" filter="url(#fij22pk61wq6g)" points="37.0056,668.5852,227.1444,668.5852,237.561,692.5273,227.1444,716.4693,37.0056,716.4693" style="stroke:#2196F3;stroke-width:1.0417;"/><text fill="#FFFFFF" font-family="'Verdana'" font-size="12.5" lengthAdjust="spacing" textLength="156.8054" x="53.6723" y="696.8547">/03_split_zip_splits/n/&lt;grp&gt;/</text><polygon fill="#20C997" filter="url(#fij22pk61wq6g)" points="45.575,517.6331,218.575,517.6331,231.075,535.3251,218.575,553.0172,45.575,553.0172,33.075,535.3251,45.575,517.6331" style="stroke:#CCCCCC;stroke-width:1.0417;"/><text fill="#222222" font-family="'Verdana'" font-size="12.5" font-weight="bold" lengthAdjust="spacing" textLength="20.575" x="146.6583" y="575.0366">Yes</text><text fill="#222222" font-family="'Verdana'" font-size="12.5" lengthAdjust="spacing" textLength="152.1667" x="55.9916" y="539.6525">invalid format OR &gt;1 group</text><text fill="#222222" font-family="'Verdana'" font-size="12.5" font-weight="bold" lengthAdjust="spacing" textLength="17.2791" x="241.4917" y="521.9604">No</text><polygon fill="#20C997" filter="url(#fij22pk61wq6g)" points="132.075,747.1741,144.575,759.6741,132.075,772.1741,119.575,759.6741,132.075,747.1741" style="stroke:#CCCCCC;stroke-width:1.0417;"/><path d="M600.9979,364.5732 L600.9979,394.22 L580.1646,398.3866 L600.9979,402.5533 L600.9979,432.2001 A0,0 0 0 0 600.9979,432.2001 L700.8708,432.2001 A0,0 0 0 0 700.8708,432.2001 L700.8708,374.9898 L690.4541,364.5732 L600.9979,364.5732 A0,0 0 0 0 600.9979,364.5732" fill="url(#gij22pk61wq6g2)" filter="url(#fij22pk61wq6g)" style="stroke:#9C27B0;stroke-width:1.0417;"/><path d="M690.4541,364.5732 L690.4541,374.9898 L700.8708,374.9898 L690.4541,364.5732" fill="url(#gij22pk61wq6g2)" style="stroke:#9C27B0;stroke-width:1.0417;"/><text fill="#FFFFFF" font-family="'Verdana'" font-size="10.4167" lengthAdjust="spacing" textLength="57.1645" x="617.6646" y="389.8671">Sequentially</text><text fill="#FFFFFF" font-family="'Verdana'" font-size="10.4167" lengthAdjust="spacing" textLength="49.113" x="617.6646" y="401.9928">numbered</text><text fill="#FFFFFF" font-family="'Verdana'" font-size="10.4167" lengthAdjust="spacing" textLength="50.0183" x="617.6646" y="414.1184">directories</text><polygon fill="#FD7E14" filter="url(#fij22pk61wq6g)" points="403.2481,374.4446,569.7479,374.4446,580.1646,398.3866,569.7479,422.3287,403.2481,422.3287" style="stroke:#2196F3;stroke-width:1.0417;"/><text fill="#FFFFFF" font-family="'Verdana'" font-size="12.5" lengthAdjust="spacing" textLength="133.1665" x="419.9148" y="402.714">/01_receiving_simple/n/</text><polygon fill="#20C997" filter="url(#fij22pk61wq6g)" points="309.2865,782.5907,321.7865,795.0907,309.2865,807.5907,296.7865,795.0907,309.2865,782.5907" style="stroke:#CCCCCC;stroke-width:1.0417;"/><polygon fill="#20C997" filter="url(#fij22pk61wq6g)" points="240.9261,828.4241,377.6469,828.4241,390.1469,846.1161,377.6469,863.8082,240.9261,863.8082,228.4261,846.1161,240.9261,828.4241" style="stroke:#CCCCCC;stroke-width:1.0417;"/><text fill="#222222" font-family="'Verdana'" font-size="12.5" font-weight="bold" lengthAdjust="spacing" textLength="20.575" x="323.8698" y="885.8276">Yes</text><text fill="#222222" font-family="'Verdana'" font-size="12.5" lengthAdjust="spacing" textLength="115.8875" x="251.3428" y="850.4435">Aggregation enabled</text><text fill="#222222" font-family="'Verdana'" font-size="12.5" font-weight="bold" lengthAdjust="spacing" textLength="17.2791" x="200.7304" y="832.7515">No</text><polygon fill="#20C997" filter="url(#fij22pk61wq6g)" points="309.2865,1620.3145,321.7865,1632.8145,309.2865,1645.3145,296.7865,1632.8145,309.2865,1620.3145" style="stroke:#CCCCCC;stroke-width:1.0417;"/><line style="stroke:#9C27B0;stroke-width:2.0833;" x1="15.625" x2="15.625" y1="11.4583" y2="2133.7341"/><path d="M991.6667,898.3521 L991.6667,927.9989 L970.8333,932.1655 L991.6667,936.3322 L991.6667,965.979 A0,0 0 0 0 991.6667,965.979 L1117.8202,965.979 A0,0 0 0 0 1117.8202,965.979 L1117.8202,908.7687 L1107.4036,898.3521 L991.6667,898.3521 A0,0 0 0 0 991.6667,898.3521" fill="url(#gij22pk61wq6g2)" filter="url(#fij22pk61wq6g)" style="stroke:#9C27B0;stroke-width:1.0417;"/><path d="M1107.4036,898.3521 L1107.4036,908.7687 L1117.8202,908.7687 L1107.4036,898.3521" fill="url(#gij22pk61wq6g2)" style="stroke:#9C27B0;stroke-width:1.0417;"/><text fill="#FFFFFF" font-family="'Verdana'" font-size="10.4167" lengthAdjust="spacing" textLength="43.279" x="1008.3333" y="923.646">One item</text><text fill="#FFFFFF" font-family="'Verdana'" font-size="10.4167" lengthAdjust="spacing" textLength="65.155" x="1008.3333" y="935.7717">is 1-* streams</text><text fill="#FFFFFF" font-family="'Verdana'" font-size="10.4167" lengthAdjust="spacing" textLength="83.4452" x="1008.3333" y="947.8973">for one feed|type</text><rect fill="#6F42C1" filter="url(#fij22pk61wq6g)" height="47.8841" rx="4.1667" ry="4.1667" style="stroke:#2196F3;stroke-width:1.0417;" width="254.9581" x="715.8752" y="908.2235"/><text fill="#FFFFFF" font-family="'Verdana'" font-size="12.5" lengthAdjust="spacing" textLength="221.6248" x="732.5419" y="936.4929">/20_pre_aggregate_input_queue/d/nnn/</text><polygon fill="#FD7E14" filter="url(#fij22pk61wq6g)" points="743.0725,1058.6385,943.6361,1058.6385,954.0527,1082.5806,943.6361,1106.5226,743.0725,1106.5226" style="stroke:#2196F3;stroke-width:1.0417;"/><text fill="#FFFFFF" font-family="'Verdana'" font-size="12.5" lengthAdjust="spacing" textLength="167.2302" x="759.7392" y="1086.908">/22_splitting/n/nnn_&lt;part no&gt;</text><polygon fill="#FD7E14" filter="url(#fij22pk61wq6g)" points="773.288,1137.7645,913.4206,1137.7645,923.8373,1161.7065,913.4206,1185.6486,773.288,1185.6486" style="stroke:#2196F3;stroke-width:1.0417;"/><text fill="#FFFFFF" font-family="'Verdana'" font-size="12.5" lengthAdjust="spacing" textLength="106.7993" x="789.9546" y="1166.0339">/23_split_output/n/</text><polygon fill="#20C997" filter="url(#fij22pk61wq6g)" points="802.2034,986.8123,884.5052,986.8123,897.0052,1004.5044,884.5052,1022.1965,802.2034,1022.1965,789.7034,1004.5044,802.2034,986.8123" style="stroke:#CCCCCC;stroke-width:1.0417;"/><text fill="#222222" font-family="'Verdana'" font-size="12.5" font-weight="bold" lengthAdjust="spacing" textLength="61.8164" x="857.9376" y="1044.2159">multi-part</text><text fill="#222222" font-family="'Verdana'" font-size="12.5" lengthAdjust="spacing" textLength="61.4685" x="812.62" y="1008.8318">Multi-part?</text><text fill="#222222" font-family="'Verdana'" font-size="12.5" font-weight="bold" lengthAdjust="spacing" textLength="64.2639" x="907.4219" y="991.1397">single part</text><polygon fill="#20C997" filter="url(#fij22pk61wq6g)" points="843.3543,1206.4819,855.8543,1218.9819,843.3543,1231.4819,830.8543,1218.9819,843.3543,1206.4819" style="stroke:#CCCCCC;stroke-width:1.0417;"/><path d="M996.2545,1246.7896 L996.2545,1282.4992 L975.4211,1286.6659 L996.2545,1290.8325 L996.2545,1326.5422 A0,0 0 0 0 996.2545,1326.5422 L1162.559,1326.5422 A0,0 0 0 0 1162.559,1326.5422 L1162.559,1257.2062 L1152.1423,1246.7896 L996.2545,1246.7896 A0,0 0 0 0 996.2545,1246.7896" fill="url(#gij22pk61wq6g2)" filter="url(#fij22pk61wq6g)" style="stroke:#9C27B0;stroke-width:1.0417;"/><path d="M1152.1423,1246.7896 L1152.1423,1257.2062 L1162.559,1257.2062 L1152.1423,1246.7896" fill="url(#gij22pk61wq6g2)" style="stroke:#9C27B0;stroke-width:1.0417;"/><text fill="#FFFFFF" font-family="'Verdana'" font-size="10.4167" lengthAdjust="spacing" textLength="106.1554" x="1012.9211" y="1272.0835">Where aggregate parts</text><text fill="#FFFFFF" font-family="'Verdana'" font-size="10.4167" lengthAdjust="spacing" textLength="83.6894" x="1012.9211" y="1284.2092">are collected until</text><text fill="#FFFFFF" font-family="'Verdana'" font-size="10.4167" lengthAdjust="spacing" textLength="85.6171" x="1012.9211" y="1296.3348">ready to assemble</text><text fill="#FFFFFF" font-family="'Verdana'" font-size="10.4167" lengthAdjust="spacing" textLength="123.5962" x="1012.9211" y="1308.4605">One &lt;grp&gt; per Feed|Type.</text><polygon fill="#FD7E14" filter="url(#fij22pk61wq6g)" points="721.7041,1262.7238,965.0045,1262.7238,975.4211,1286.6659,965.0045,1310.6079,721.7041,1310.6079" style="stroke:#2196F3;stroke-width:1.0417;"/><text fill="#FFFFFF" font-family="'Verdana'" font-size="12.5" lengthAdjust="spacing" textLength="209.967" x="738.3708" y="1290.9932">/21_pre_aggregates/&lt;grp&gt;/&lt;part no&gt;/</text><rect fill="#6F42C1" filter="url(#fij22pk61wq6g)" height="47.8841" rx="4.1667" ry="4.1667" style="stroke:#2196F3;stroke-width:1.0417;" width="230.8187" x="727.9449" y="1347.3755"/><text fill="#FFFFFF" font-family="'Verdana'" font-size="12.5" lengthAdjust="spacing" textLength="197.4854" x="744.6116" y="1375.6449">/30_aggregate_input_queue/d/nnn/</text><path d="M941.8691,1486.0209 L941.8691,1515.6677 L921.0358,1519.8344 L941.8691,1524.0011 L941.8691,1553.6479 A0,0 0 0 0 941.8691,1553.6479 L1079.0293,1553.6479 A0,0 0 0 0 1079.0293,1553.6479 L1079.0293,1496.4376 L1068.6127,1486.0209 L941.8691,1486.0209 A0,0 0 0 0 941.8691,1486.0209" fill="url(#gij22pk61wq6g2)" filter="url(#fij22pk61wq6g)" style="stroke:#9C27B0;stroke-width:1.0417;"/><path d="M1068.6127,1486.0209 L1068.6127,1496.4376 L1079.0293,1496.4376 L1068.6127,1486.0209" fill="url(#gij22pk61wq6g2)" style="stroke:#9C27B0;stroke-width:1.0417;"/><text fill="#FFFFFF" font-family="'Verdana'" font-size="10.4167" lengthAdjust="spacing" textLength="73.8831" x="958.5358" y="1511.3149">Staging area for</text><text fill="#FFFFFF" font-family="'Verdana'" font-size="10.4167" lengthAdjust="spacing" textLength="88.5264" x="958.5358" y="1523.4406">aggregate ZIP files.</text><text fill="#FFFFFF" font-family="'Verdana'" font-size="10.4167" lengthAdjust="spacing" textLength="94.4519" x="958.5358" y="1535.5662">Queued once ready.</text><polygon fill="#FD7E14" filter="url(#fij22pk61wq6g)" points="776.0895,1495.8923,910.6191,1495.8923,921.0358,1519.8344,910.6191,1543.7764,776.0895,1543.7764" style="stroke:#2196F3;stroke-width:1.0417;"/><text fill="#FFFFFF" font-family="'Verdana'" font-size="12.5" lengthAdjust="spacing" textLength="101.1963" x="792.7561" y="1524.1618">/31_aggregates/n/</text><polygon fill="#20C997" filter="url(#fij22pk61wq6g)" points="802.1545,1416.0929,884.554,1416.0929,897.054,1433.785,884.554,1451.4771,802.1545,1451.4771,789.6545,1433.785,802.1545,1416.0929" style="stroke:#CCCCCC;stroke-width:1.0417;"/><text fill="#222222" font-family="'Verdana'" font-size="12.5" font-weight="bold" lengthAdjust="spacing" textLength="88.0188" x="857.9376" y="1473.4965">Multiple items</text><text fill="#222222" font-family="'Verdana'" font-size="12.5" lengthAdjust="spacing" textLength="61.5662" x="812.5712" y="1438.1124">Item count</text><text fill="#222222" font-family="'Verdana'" font-size="12.5" font-weight="bold" lengthAdjust="spacing" textLength="55.8228" x="907.4707" y="1420.4203">One item</text><polygon fill="#20C997" filter="url(#fij22pk61wq6g)" points="843.3543,1574.4812,855.8543,1586.9812,843.3543,1599.4812,830.8543,1586.9812,843.3543,1574.4812" style="stroke:#CCCCCC;stroke-width:1.0417;"/><line style="stroke:#9C27B0;stroke-width:2.0833;" x1="706.0791" x2="706.0791" y1="11.4583" y2="2133.7341"/><path d="M1307.3263,163.6454 L1307.3263,231.2724 A0,0 0 0 0 1307.3263,231.2724 L1410.8663,231.2724 A0,0 0 0 0 1410.8663,231.2724 L1410.8663,201.6256 L1431.6996,197.4589 L1410.8663,193.2922 L1410.8663,174.0621 L1400.4496,163.6454 L1307.3263,163.6454 A0,0 0 0 0 1307.3263,163.6454" fill="url(#gij22pk61wq6g2)" filter="url(#fij22pk61wq6g)" style="stroke:#9C27B0;stroke-width:1.0417;"/><path d="M1400.4496,163.6454 L1400.4496,174.0621 L1410.8663,174.0621 L1400.4496,163.6454" fill="url(#gij22pk61wq6g2)" style="stroke:#9C27B0;stroke-width:1.0417;"/><text fill="#FFFFFF" font-family="'Verdana'" font-size="10.4167" lengthAdjust="spacing" textLength="60.8317" x="1323.9929" y="188.9394">Stream input</text><text fill="#FFFFFF" font-family="'Verdana'" font-size="10.4167" lengthAdjust="spacing" textLength="46.9157" x="1323.9929" y="201.0651">directly to</text><text fill="#FFFFFF" font-family="'Verdana'" font-size="10.4167" lengthAdjust="spacing" textLength="52.6377" x="1323.9929" y="213.1907">destination</text><rect fill="url(#gij22pk61wq6g1)" filter="url(#fij22pk61wq6g)" height="47.8841" style="stroke:#2196F3;stroke-width:1.0417;" width="120.87" x="1431.6996" y="173.5168"/><text fill="#FFFFFF" font-family="'Verdana'" font-size="12.5" lengthAdjust="spacing" textLength="87.5366" x="1448.3663" y="201.7863">Instant forward</text><ellipse cx="1492.1346" cy="263.564" fill="none" filter="url(#fij22pk61wq6g)" rx="11.4583" ry="11.4583" style="stroke:#1A78C2;stroke-width:1.0417;"/><ellipse cx="1492.1346" cy="263.564" fill="none" rx="6.25" ry="6.25" style="stroke:#1A78C2;stroke-width:1.0417;"/><path d="M1631.5572,1662.3393 L1631.5572,1685.9233 L1610.7239,1690.0899 L1631.5572,1694.2566 L1631.5572,1717.8406 A0,0 0 0 0 1631.5572,1717.8406 L1750.3103,1717.8406 A0,0 0 0 0 1750.3103,1717.8406 L1750.3103,1672.7559 L1739.8936,1662.3393 L1631.5572,1662.3393 A0,0 0 0 0 1631.5572,1662.3393" fill="url(#gij22pk61wq6g2)" filter="url(#fij22pk61wq6g)" style="stroke:#9C27B0;stroke-width:1.0417;"/><path d="M1739.8936,1662.3393 L1739.8936,1672.7559 L1750.3103,1672.7559 L1739.8936,1662.3393" fill="url(#gij22pk61wq6g2)" style="stroke:#9C27B0;stroke-width:1.0417;"/><text fill="#FFFFFF" font-family="'Verdana'" font-size="10.4167" lengthAdjust="spacing" textLength="76.0447" x="1648.2239" y="1687.6333">Aggregate ready</text><text fill="#FFFFFF" font-family="'Verdana'" font-size="10.4167" lengthAdjust="spacing" textLength="67.6829" x="1648.2239" y="1699.7589">for forwarding</text><rect fill="#6F42C1" filter="url(#fij22pk61wq6g)" height="47.8841" rx="4.1667" ry="4.1667" style="stroke:#2196F3;stroke-width:1.0417;" width="237.1785" x="1373.5453" y="1666.1479"/><text fill="#FFFFFF" font-family="'Verdana'" font-size="12.5" lengthAdjust="spacing" textLength="203.8452" x="1390.212" y="1694.4173">/40_forwarding_input_queue/d/nnn/</text><line style="stroke:#2196F3;stroke-width:1.5625;" x1="1332.5551" x2="1664.2141" y1="1738.6739" y2="1738.6739"/><rect fill="#6F42C1" filter="url(#fij22pk61wq6g)" height="47.8841" rx="4.1667" ry="4.1667" style="stroke:#2196F3;stroke-width:1.0417;" width="282.5704" x="1191.2699" y="1759.5072"/><text fill="#FFFFFF" font-family="'Verdana'" font-size="12.5" lengthAdjust="spacing" textLength="249.2371" x="1207.9366" y="1787.7767">/50_forwarding/&lt;dest 1&gt;/01_forward/d/nnn/</text><rect fill="#6F42C1" filter="url(#fij22pk61wq6g)" height="47.8841" rx="4.1667" ry="4.1667" style="stroke:#2196F3;stroke-width:1.0417;" width="264.9923" x="1200.059" y="1939.6179"/><text fill="#FFFFFF" font-family="'Verdana'" font-size="12.5" lengthAdjust="spacing" textLength="231.6589" x="1216.7257" y="1967.8874">/50_forwarding/&lt;dest 1&gt;/02_retry/d/nnn/</text><polygon fill="#20C997" filter="url(#fij22pk61wq6g)" points="1273.2768,1843.8497,1391.8335,1843.8497,1404.3335,1861.5417,1391.8335,1879.2338,1273.2768,1879.2338,1260.7768,1861.5417,1273.2768,1843.8497" style="stroke:#CCCCCC;stroke-width:1.0417;"/><text fill="#222222" font-family="'Verdana'" font-size="12.5" font-weight="bold" lengthAdjust="spacing" textLength="34.5093" x="1347.1385" y="1901.2533">failed</text><text fill="#222222" font-family="'Verdana'" font-size="12.5" lengthAdjust="spacing" textLength="97.7234" x="1283.6934" y="1865.8691">Forward success?</text><text fill="#222222" font-family="'Verdana'" font-size="12.5" font-weight="bold" lengthAdjust="spacing" textLength="45.6116" x="1204.7485" y="1848.1771">success</text><path d="M1364.8468,2045.2738 L1364.8468,2074.9207 L1344.0135,2079.0873 L1364.8468,2083.254 L1364.8468,2112.9008 A0,0 0 0 0 1364.8468,2112.9008 L1460.1929,2112.9008 A0,0 0 0 0 1460.1929,2112.9008 L1460.1929,2055.6905 L1449.7762,2045.2738 L1364.8468,2045.2738 A0,0 0 0 0 1364.8468,2045.2738" fill="url(#gij22pk61wq6g2)" filter="url(#fij22pk61wq6g)" style="stroke:#9C27B0;stroke-width:1.0417;"/><path d="M1449.7762,2045.2738 L1449.7762,2055.6905 L1460.1929,2055.6905 L1449.7762,2045.2738" fill="url(#gij22pk61wq6g2)" style="stroke:#9C27B0;stroke-width:1.0417;"/><text fill="#FFFFFF" font-family="'Verdana'" font-size="10.4167" lengthAdjust="spacing" textLength="46.8852" x="1381.5135" y="2070.5678">Aggregate</text><text fill="#FFFFFF" font-family="'Verdana'" font-size="10.4167" lengthAdjust="spacing" textLength="32.1859" x="1381.5135" y="2082.6935">sent to</text><text fill="#FFFFFF" font-family="'Verdana'" font-size="10.4167" lengthAdjust="spacing" textLength="52.6377" x="1381.5135" y="2094.8191">destination</text><ellipse cx="1332.5551" cy="2079.0873" fill="none" filter="url(#fij22pk61wq6g)" rx="11.4583" ry="11.4583" style="stroke:#1A78C2;stroke-width:1.0417;"/><ellipse cx="1332.5551" cy="2079.0873" fill="none" rx="6.25" ry="6.25" style="stroke:#1A78C2;stroke-width:1.0417;"/><rect fill="#6F42C1" filter="url(#fij22pk61wq6g)" height="47.8841" rx="4.1667" ry="4.1667" style="stroke:#2196F3;stroke-width:1.0417;" width="282.5704" x="1522.9289" y="1781.8624"/><text fill="#FFFFFF" font-family="'Verdana'" font-size="12.5" lengthAdjust="spacing" textLength="249.2371" x="1539.5955" y="1810.1318">/50_forwarding/&lt;dest 2&gt;/01_forward/d/nnn/</text><rect fill="#6F42C1" filter="url(#fij22pk61wq6g)" height="47.8841" rx="4.1667" ry="4.1667" style="stroke:#2196F3;stroke-width:1.0417;" width="264.9923" x="1531.7179" y="1961.9731"/><text fill="#FFFFFF" font-family="'Verdana'" font-size="12.5" lengthAdjust="spacing" textLength="231.6589" x="1548.3846" y="1990.2425">/50_forwarding/&lt;dest 2&gt;/02_retry/d/nnn/</text><polygon fill="#20C997" filter="url(#fij22pk61wq6g)" points="1604.9357,1866.2048,1723.4924,1866.2048,1735.9924,1883.8969,1723.4924,1901.5889,1604.9357,1901.5889,1592.4357,1883.8969,1604.9357,1866.2048" style="stroke:#CCCCCC;stroke-width:1.0417;"/><text fill="#222222" font-family="'Verdana'" font-size="12.5" font-weight="bold" lengthAdjust="spacing" textLength="34.5093" x="1678.7974" y="1923.6084">failed</text><text fill="#222222" font-family="'Verdana'" font-size="12.5" lengthAdjust="spacing" textLength="97.7234" x="1615.3524" y="1888.2243">Forward success?</text><text fill="#222222" font-family="'Verdana'" font-size="12.5" font-weight="bold" lengthAdjust="spacing" textLength="45.6116" x="1536.4075" y="1870.5322">success</text><ellipse cx="1664.2141" cy="2079.0873" fill="none" filter="url(#fij22pk61wq6g)" rx="11.4583" ry="11.4583" style="stroke:#1A78C2;stroke-width:1.0417;"/><ellipse cx="1664.2141" cy="2079.0873" fill="none" rx="6.25" ry="6.25" style="stroke:#1A78C2;stroke-width:1.0417;"/><line style="stroke:#9C27B0;stroke-width:2.0833;" x1="1167.7673" x2="1167.7673" y1="11.4583" y2="2133.7341"/><line style="stroke:#9C27B0;stroke-width:2.0833;" x1="1829.0019" x2="1829.0019" y1="11.4583" y2="2133.7341"/><line style="stroke:#2196F3;stroke-width:3.125;" x1="388.1816" x2="400.6816" y1="111.4095" y2="111.4095"/><polygon fill="#2196F3" points="396.5149,211.0087,400.6816,221.4254,404.8482,211.0087,400.6816,215.1754" style="stroke:#2196F3;stroke-width:3.125;"/><line style="stroke:#2196F3;stroke-width:3.125;" x1="400.6816" x2="400.6816" y1="111.4095" y2="297.939"/><line style="stroke:#2196F3;stroke-width:3.125;" x1="400.6816" x2="309.2865" y1="297.939" y2="297.939"/><line style="stroke:#2196F3;stroke-width:3.125;" x1="309.2865" x2="309.2865" y1="297.939" y2="318.7724"/><polygon fill="#2196F3" points="305.1198,308.3557,309.2865,318.7724,313.4532,308.3557,309.2865,312.5224" style="stroke:#2196F3;stroke-width:1.0417;"/><line style="stroke:#2196F3;stroke-width:3.125;" x1="309.2865" x2="309.2865" y1="72.8841" y2="93.7174"/><polygon fill="#2196F3" points="305.1198,83.3008,309.2865,93.7174,313.4532,83.3008,309.2865,87.4674" style="stroke:#2196F3;stroke-width:1.0417;"/><line style="stroke:#2196F3;stroke-width:3.125;" x1="132.075" x2="132.075" y1="412.4573" y2="448.9156"/><polygon fill="#2196F3" points="127.9083,438.4989,132.075,448.9156,136.2417,438.4989,132.075,442.6656" style="stroke:#2196F3;stroke-width:1.0417;"/><line style="stroke:#2196F3;stroke-width:3.125;" x1="132.075" x2="132.075" y1="637.3433" y2="668.5852"/><polygon fill="#2196F3" points="127.9083,658.1685,132.075,668.5852,136.2417,658.1685,132.075,662.3352" style="stroke:#2196F3;stroke-width:1.0417;"/><line style="stroke:#2196F3;stroke-width:3.125;" x1="132.075" x2="132.075" y1="553.0172" y2="589.4592"/><polygon fill="#2196F3" points="127.9083,579.0426,132.075,589.4592,136.2417,579.0426,132.075,583.2092" style="stroke:#2196F3;stroke-width:1.0417;"/><line style="stroke:#2196F3;stroke-width:3.125;" x1="231.075" x2="369.9148" y1="535.3251" y2="535.3251"/><polygon fill="#2196F3" points="365.7481,647.76,369.9148,658.1767,374.0814,647.76,369.9148,651.9267" style="stroke:#2196F3;stroke-width:3.125;"/><line style="stroke:#2196F3;stroke-width:3.125;" x1="369.9148" x2="369.9148" y1="535.3251" y2="759.6741"/><line style="stroke:#2196F3;stroke-width:3.125;" x1="369.9148" x2="144.575" y1="759.6741" y2="759.6741"/><polygon fill="#2196F3" points="154.9917,755.5074,144.575,759.6741,154.9917,763.8407,150.825,759.6741" style="stroke:#2196F3;stroke-width:1.0417;"/><line style="stroke:#2196F3;stroke-width:3.125;" x1="132.075" x2="132.075" y1="716.4693" y2="747.1741"/><polygon fill="#2196F3" points="127.9083,736.7574,132.075,747.1741,136.2417,736.7574,132.075,740.9241" style="stroke:#2196F3;stroke-width:1.0417;"/><line style="stroke:#2196F3;stroke-width:3.125;" x1="132.075" x2="132.075" y1="496.7997" y2="517.6331"/><polygon fill="#2196F3" points="127.9083,507.2164,132.075,517.6331,136.2417,507.2164,132.075,511.3831" style="stroke:#2196F3;stroke-width:1.0417;"/><line style="stroke:#2196F3;stroke-width:3.125;" x1="268.0593" x2="132.075" y1="336.4644" y2="336.4644"/><line style="stroke:#2196F3;stroke-width:3.125;" x1="132.075" x2="132.075" y1="336.4644" y2="364.5732"/><polygon fill="#2196F3" points="127.9083,354.1565,132.075,364.5732,136.2417,354.1565,132.075,358.3232" style="stroke:#2196F3;stroke-width:1.0417;"/><line style="stroke:#2196F3;stroke-width:3.125;" x1="350.5137" x2="486.498" y1="336.4644" y2="336.4644"/><line style="stroke:#2196F3;stroke-width:3.125;" x1="486.498" x2="486.498" y1="336.4644" y2="374.4446"/><polygon fill="#2196F3" points="482.3313,364.0279,486.498,374.4446,490.6647,364.0279,486.498,368.1946" style="stroke:#2196F3;stroke-width:1.0417;"/><line style="stroke:#2196F3;stroke-width:3.125;" x1="132.075" x2="132.075" y1="772.1741" y2="795.0907"/><line style="stroke:#2196F3;stroke-width:3.125;" x1="132.075" x2="296.7865" y1="795.0907" y2="795.0907"/><polygon fill="#2196F3" points="286.3698,790.9241,296.7865,795.0907,286.3698,799.2574,290.5365,795.0907" style="stroke:#2196F3;stroke-width:1.0417;"/><line style="stroke:#2196F3;stroke-width:3.125;" x1="486.498" x2="486.498" y1="422.3287" y2="795.0907"/><line style="stroke:#2196F3;stroke-width:3.125;" x1="486.498" x2="321.7865" y1="795.0907" y2="795.0907"/><polygon fill="#2196F3" points="332.2032,790.9241,321.7865,795.0907,332.2032,799.2574,328.0365,795.0907" style="stroke:#2196F3;stroke-width:1.0417;"/><line style="stroke:#2196F3;stroke-width:3.125;" x1="228.4261" x2="171.3908" y1="846.1161" y2="846.1161"/><polygon fill="#2196F3" points="167.2241,1241.8986,171.3908,1252.3153,175.5575,1241.8986,171.3908,1246.0653" style="stroke:#2196F3;stroke-width:3.125;"/><line style="stroke:#2196F3;stroke-width:3.125;" x1="171.3908" x2="171.3908" y1="846.1161" y2="1632.8145"/><line style="stroke:#2196F3;stroke-width:3.125;" x1="171.3908" x2="296.7865" y1="1632.8145" y2="1632.8145"/><polygon fill="#2196F3" points="286.3698,1628.6479,296.7865,1632.8145,286.3698,1636.9812,290.5365,1632.8145" style="stroke:#2196F3;stroke-width:1.0417;"/><line style="stroke:#2196F3;stroke-width:3.125;" x1="309.2865" x2="309.2865" y1="807.5907" y2="828.4241"/><polygon fill="#2196F3" points="305.1198,818.0074,309.2865,828.4241,313.4532,818.0074,309.2865,822.1741" style="stroke:#2196F3;stroke-width:1.0417;"/><line style="stroke:#2196F3;stroke-width:3.125;" x1="843.3543" x2="843.3543" y1="1106.5226" y2="1137.7645"/><polygon fill="#2196F3" points="839.1876,1127.3478,843.3543,1137.7645,847.521,1127.3478,843.3543,1131.5145" style="stroke:#2196F3;stroke-width:1.0417;"/><line style="stroke:#2196F3;stroke-width:3.125;" x1="843.3543" x2="843.3543" y1="1022.1965" y2="1058.6385"/><polygon fill="#2196F3" points="839.1876,1048.2218,843.3543,1058.6385,847.521,1048.2218,843.3543,1052.3885" style="stroke:#2196F3;stroke-width:1.0417;"/><line style="stroke:#2196F3;stroke-width:3.125;" x1="897.0052" x2="964.4694" y1="1004.5044" y2="1004.5044"/><polygon fill="#2196F3" points="960.3027,1116.9393,964.4694,1127.356,968.6361,1116.9393,964.4694,1121.106" style="stroke:#2196F3;stroke-width:3.125;"/><line style="stroke:#2196F3;stroke-width:3.125;" x1="964.4694" x2="964.4694" y1="1004.5044" y2="1218.9819"/><line style="stroke:#2196F3;stroke-width:3.125;" x1="964.4694" x2="855.8543" y1="1218.9819" y2="1218.9819"/><polygon fill="#2196F3" points="866.271,1214.8153,855.8543,1218.9819,866.271,1223.1486,862.1043,1218.9819" style="stroke:#2196F3;stroke-width:1.0417;"/><line style="stroke:#2196F3;stroke-width:3.125;" x1="843.3543" x2="843.3543" y1="1185.6486" y2="1206.4819"/><polygon fill="#2196F3" points="839.1876,1196.0653,843.3543,1206.4819,847.521,1196.0653,843.3543,1200.2319" style="stroke:#2196F3;stroke-width:1.0417;"/><line style="stroke:#2196F3;stroke-width:3.125;" x1="843.3543" x2="843.3543" y1="956.1076" y2="986.8123"/><polygon fill="#2196F3" points="839.1876,976.3957,843.3543,986.8123,847.521,976.3957,843.3543,980.5623" style="stroke:#2196F3;stroke-width:1.0417;"/><line style="stroke:#2196F3;stroke-width:3.125;" x1="843.3543" x2="843.3543" y1="1231.4819" y2="1262.7238"/><polygon fill="#2196F3" points="839.1876,1252.3071,843.3543,1262.7238,847.521,1252.3071,843.3543,1256.4738" style="stroke:#2196F3;stroke-width:1.0417;"/><line style="stroke:#2196F3;stroke-width:3.125;" x1="843.3543" x2="843.3543" y1="1310.6079" y2="1347.3755"/><polygon fill="#2196F3" points="839.1876,1336.9588,843.3543,1347.3755,847.521,1336.9588,843.3543,1341.1255" style="stroke:#2196F3;stroke-width:1.0417;"/><line style="stroke:#2196F3;stroke-width:3.125;" x1="843.3543" x2="843.3543" y1="1451.4771" y2="1495.8923"/><polygon fill="#2196F3" points="839.1876,1485.4757,843.3543,1495.8923,847.521,1485.4757,843.3543,1489.6423" style="stroke:#2196F3;stroke-width:1.0417;"/><line style="stroke:#2196F3;stroke-width:3.125;" x1="897.054" x2="1089.446" y1="1433.785" y2="1433.785"/><polygon fill="#2196F3" points="1085.2793,1517.2384,1089.446,1527.655,1093.6127,1517.2384,1089.446,1521.405" style="stroke:#2196F3;stroke-width:3.125;"/><line style="stroke:#2196F3;stroke-width:3.125;" x1="1089.446" x2="1089.446" y1="1433.785" y2="1586.9812"/><line style="stroke:#2196F3;stroke-width:3.125;" x1="1089.446" x2="855.8543" y1="1586.9812" y2="1586.9812"/><polygon fill="#2196F3" points="866.271,1582.8145,855.8543,1586.9812,866.271,1591.1479,862.1043,1586.9812" style="stroke:#2196F3;stroke-width:1.0417;"/><line style="stroke:#2196F3;stroke-width:3.125;" x1="843.3543" x2="843.3543" y1="1543.7764" y2="1574.4812"/><polygon fill="#2196F3" points="839.1876,1564.0645,843.3543,1574.4812,847.521,1564.0645,843.3543,1568.2312" style="stroke:#2196F3;stroke-width:1.0417;"/><line style="stroke:#2196F3;stroke-width:3.125;" x1="843.3543" x2="843.3543" y1="1395.2596" y2="1416.0929"/><polygon fill="#2196F3" points="839.1876,1405.6763,843.3543,1416.0929,847.521,1405.6763,843.3543,1409.8429" style="stroke:#2196F3;stroke-width:1.0417;"/><line style="stroke:#2196F3;stroke-width:3.125;" x1="1492.1346" x2="1492.1346" y1="221.401" y2="252.1057"/><polygon fill="#2196F3" points="1487.9679,241.689,1492.1346,252.1057,1496.3013,241.689,1492.1346,245.8557" style="stroke:#2196F3;stroke-width:1.0417;"/><line style="stroke:#2196F3;stroke-width:3.125;" x1="1332.5551" x2="1332.5551" y1="1879.2338" y2="1939.6179"/><polygon fill="#2196F3" points="1328.3885,1929.2013,1332.5551,1939.6179,1336.7218,1929.2013,1332.5551,1933.3679" style="stroke:#2196F3;stroke-width:1.0417;"/><line style="stroke:#2196F3;stroke-width:3.125;" x1="1332.5551" x2="1332.5551" y1="1987.502" y2="2000.002"/><line style="stroke:#2196F3;stroke-width:3.125;" x1="1332.5551" x2="1477.5513" y1="2000.002" y2="2000.002"/><polygon fill="#2196F3" points="1473.3846,1941.1886,1477.5513,1930.7719,1481.7179,1941.1886,1477.5513,1937.0219" style="stroke:#2196F3;stroke-width:3.125;"/><line style="stroke:#2196F3;stroke-width:3.125;" x1="1477.5513" x2="1477.5513" y1="1861.5417" y2="2000.002"/><line style="stroke:#2196F3;stroke-width:3.125;" x1="1477.5513" x2="1404.3335" y1="1861.5417" y2="1861.5417"/><polygon fill="#2196F3" points="1414.7502,1857.3751,1404.3335,1861.5417,1414.7502,1865.7084,1410.5835,1861.5417" style="stroke:#2196F3;stroke-width:1.0417;"/><line style="stroke:#2196F3;stroke-width:3.125;" x1="1260.7768" x2="1187.559" y1="1861.5417" y2="1861.5417"/><polygon fill="#2196F3" points="1183.3923,1937.0219,1187.559,1947.4386,1191.7257,1937.0219,1187.559,1941.1886" style="stroke:#2196F3;stroke-width:3.125;"/><line style="stroke:#2196F3;stroke-width:3.125;" x1="1187.559" x2="1187.559" y1="1861.5417" y2="2033.3354"/><line style="stroke:#2196F3;stroke-width:3.125;" x1="1187.559" x2="1332.5551" y1="2033.3354" y2="2033.3354"/><line style="stroke:#2196F3;stroke-width:3.125;" x1="1332.5551" x2="1332.5551" y1="2033.3354" y2="2067.629"/><polygon fill="#2196F3" points="1328.3885,2057.2123,1332.5551,2067.629,1336.7218,2057.2123,1332.5551,2061.379" style="stroke:#2196F3;stroke-width:1.0417;"/><line style="stroke:#2196F3;stroke-width:3.125;" x1="1332.5551" x2="1332.5551" y1="1807.3914" y2="1843.8497"/><polygon fill="#2196F3" points="1328.3885,1833.433,1332.5551,1843.8497,1336.7218,1833.433,1332.5551,1837.5997" style="stroke:#2196F3;stroke-width:1.0417;"/><line style="stroke:#2196F3;stroke-width:3.125;" x1="1664.2141" x2="1664.2141" y1="1901.5889" y2="1961.9731"/><polygon fill="#2196F3" points="1660.0474,1951.5564,1664.2141,1961.9731,1668.3807,1951.5564,1664.2141,1955.7231" style="stroke:#2196F3;stroke-width:1.0417;"/><line style="stroke:#2196F3;stroke-width:3.125;" x1="1664.2141" x2="1664.2141" y1="2009.8572" y2="2022.3572"/><line style="stroke:#2196F3;stroke-width:3.125;" x1="1664.2141" x2="1809.2102" y1="2022.3572" y2="2022.3572"/><polygon fill="#2196F3" points="1805.0435,1963.5437,1809.2102,1953.127,1813.3769,1963.5437,1809.2102,1959.377" style="stroke:#2196F3;stroke-width:3.125;"/><line style="stroke:#2196F3;stroke-width:3.125;" x1="1809.2102" x2="1809.2102" y1="1883.8969" y2="2022.3572"/><line style="stroke:#2196F3;stroke-width:3.125;" x1="1809.2102" x2="1735.9924" y1="1883.8969" y2="1883.8969"/><polygon fill="#2196F3" points="1746.4091,1879.7302,1735.9924,1883.8969,1746.4091,1888.0636,1742.2424,1883.8969" style="stroke:#2196F3;stroke-width:1.0417;"/><line style="stroke:#2196F3;stroke-width:3.125;" x1="1592.4357" x2="1519.2179" y1="1883.8969" y2="1883.8969"/><polygon fill="#2196F3" points="1515.0513,1959.377,1519.2179,1969.7937,1523.3846,1959.377,1519.2179,1963.5437" style="stroke:#2196F3;stroke-width:3.125;"/><line style="stroke:#2196F3;stroke-width:3.125;" x1="1519.2179" x2="1519.2179" y1="1883.8969" y2="2040.0655"/><line style="stroke:#2196F3;stroke-width:3.125;" x1="1519.2179" x2="1664.2141" y1="2040.0655" y2="2040.0655"/><line style="stroke:#2196F3;stroke-width:3.125;" x1="1664.2141" x2="1664.2141" y1="2040.0655" y2="2067.629"/><polygon fill="#2196F3" points="1660.0474,2057.2123,1664.2141,2067.629,1668.3807,2057.2123,1664.2141,2061.379" style="stroke:#2196F3;stroke-width:1.0417;"/><line style="stroke:#2196F3;stroke-width:3.125;" x1="1664.2141" x2="1664.2141" y1="1829.7465" y2="1866.2048"/><polygon fill="#2196F3" points="1660.0474,1855.7882,1664.2141,1866.2048,1668.3807,1855.7882,1664.2141,1859.9548" style="stroke:#2196F3;stroke-width:1.0417;"/><line style="stroke:#2196F3;stroke-width:3.125;" x1="1332.5551" x2="1332.5551" y1="1740.2364" y2="1759.5072"/><polygon fill="#2196F3" points="1328.3885,1749.0906,1332.5551,1759.5072,1336.7218,1749.0906,1332.5551,1753.2572" style="stroke:#2196F3;stroke-width:1.0417;"/><line style="stroke:#2196F3;stroke-width:3.125;" x1="1664.2141" x2="1664.2141" y1="1740.2364" y2="1781.8624"/><polygon fill="#2196F3" points="1660.0474,1771.4457,1664.2141,1781.8624,1668.3807,1771.4457,1664.2141,1775.6124" style="stroke:#2196F3;stroke-width:1.0417;"/><line style="stroke:#2196F3;stroke-width:3.125;" x1="1492.1346" x2="1492.1346" y1="1714.032" y2="1738.6739"/><polygon fill="#2196F3" points="1487.9679,1728.2572,1492.1346,1738.6739,1496.3013,1728.2572,1492.1346,1732.4239" style="stroke:#2196F3;stroke-width:1.0417;"/><line style="stroke:#2196F3;stroke-width:3.125;" x1="309.2865" x2="309.2865" y1="129.1016" y2="152.2583"/><line style="stroke:#2196F3;stroke-width:3.125;" x1="309.2865" x2="1492.1346" y1="152.2583" y2="152.2583"/><line style="stroke:#2196F3;stroke-width:3.125;" x1="1492.1346" x2="1492.1346" y1="152.2583" y2="173.5168"/><polygon fill="#2196F3" points="1487.9679,163.1002,1492.1346,173.5168,1496.3013,163.1002,1492.1346,167.2668" style="stroke:#2196F3;stroke-width:1.0417;"/><line style="stroke:#2196F3;stroke-width:3.125;" x1="309.2865" x2="309.2865" y1="863.8082" y2="886.9649"/><line style="stroke:#2196F3;stroke-width:3.125;" x1="309.2865" x2="843.3543" y1="886.9649" y2="886.9649"/><line style="stroke:#2196F3;stroke-width:3.125;" x1="843.3543" x2="843.3543" y1="886.9649" y2="908.2235"/><polygon fill="#2196F3" points="839.1876,897.8068,843.3543,908.2235,847.521,897.8068,843.3543,901.9735" style="stroke:#2196F3;stroke-width:1.0417;"/><line style="stroke:#2196F3;stroke-width:3.125;" x1="843.3543" x2="843.3543" y1="1599.4812" y2="1604.6895"/><line style="stroke:#2196F3;stroke-width:3.125;" x1="843.3543" x2="309.2865" y1="1604.6895" y2="1604.6895"/><line style="stroke:#2196F3;stroke-width:3.125;" x1="309.2865" x2="309.2865" y1="1604.6895" y2="1620.3145"/><polygon fill="#2196F3" points="305.1198,1609.8979,309.2865,1620.3145,313.4532,1609.8979,309.2865,1614.0645" style="stroke:#2196F3;stroke-width:1.0417;"/><line style="stroke:#2196F3;stroke-width:3.125;" x1="309.2865" x2="309.2865" y1="1645.3145" y2="1650.5229"/><line style="stroke:#2196F3;stroke-width:3.125;" x1="309.2865" x2="1492.1346" y1="1650.5229" y2="1650.5229"/><line style="stroke:#2196F3;stroke-width:3.125;" x1="1492.1346" x2="1492.1346" y1="1650.5229" y2="1666.1479"/><polygon fill="#2196F3" points="1487.9679,1655.7312,1492.1346,1666.1479,1496.3013,1655.7312,1492.1346,1659.8979" style="stroke:#2196F3;stroke-width:1.0417;"/><text fill="#2196F3" font-family="'Verdana'" font-size="12.5" lengthAdjust="spacing" textLength="41.333" x="340.1855" y="33.4778">Receipt</text><text fill="#2196F3" font-family="'Verdana'" font-size="12.5" lengthAdjust="spacing" textLength="67.3828" x="903.2318" y="33.4778">Aggregation</text><text fill="#2196F3" font-family="'Verdana'" font-size="12.5" lengthAdjust="spacing" textLength="63.6841" x="1466.5426" y="33.4778">Forwarding</text><?plantuml-src jLRRRjj647tdLqm10vLRsBguUN445KvY1m4Isx7I5EqBkoP7r2BaBhixjA74-VVCB2-YQ3MNXmemGCukPywSStRMFz4Q2uH24JgjecZkQPFZ8b89wJjDcnTQPKuLy2a2IBKgh4d3Cy0pbNp8dArC-jpcri71k_EprxpocV-KS_Q-sNTX3IqbAJopUTfiC9Qmlwu_8amdOV5p5AKsgGeq57OCwv1JnfVAyJgl_bDWG0vr7_VAa0UoK7c4z-XIPHJShtMo1ktDpmJQU59vZW94Abyg_ifpnYFFQLPSVJvkA8WUu0OJr2N10p-VPPd3J96s9hnVM7UlNAfDngyxUxc2eoZIAnYzadBSo7RpxuS2rS3etAXRnd78G0R904xRxrPr_2dCvwJyXyMYvIx75GNwbkIGzT6chEf0gXqcb6-OXVeTFMaJSFCxidwIW1yzsJB2d8aQlT2-0SFhpC9EEw4F3t-_kkwm_uLUS1zStPnTlZm_7K-ciPFzTzn0_56NOpCMoBOYHXL0douJPIG78o2dqU-q1215jBbJkKwbQVOZNDt0OWeYVJceAx-3wpzkhbzBxLdioroJr8q33V6_5LOuJiV6C8vsVuVrfBS_F7c6EyzSkHY2bbzWs-biJKq0uCgmPQhR8sQwYvNeQgXTPBH2JE5Ne4s9BUWU-_mIgB-qzM9DV3-sdrslYpB7nmGFS2wHIJ2asUkR431LSOik-BxrY1KT-fven1Sj-cx7ngcx8WnFH4-IsIGk7SQgMSV_a6K0MMZLX4Nj1m_Jer_Oe-9k7q9i2x2yHtXz45PtxIoetrGvwICU3jHPjUX2DSyTgxF6DtmuCgQJGSLpsSRv5ezyiFsgTK-z_5Y7Ma7FINdYRSi-PgickvzwkikQRqpPeVggv7-kMLteFWwbVHZ528dbYPSGsx5YI-GSPLPJcH2WlCU2rOrg_aF5OEOBOVaTitpSfxclyidacmg7qS6ICWAkt4eIL68J1xMt1xhbuMJQvy1yvw5SaifaV7A_IgpIBMmfaUcpqZdwusxnhG1EsLO9rfmSxpkfUoPqBNDhsLRZuIPECZZKWptTkDs9TXJ_DebNtS9UZdUOEEjQ3Rr4zPdPPeYsEWOJRmizwHSQp-NEWEb29ayJxWhoPShAZHgyF0UJ1BtduyOdThHIkhdIlfbvnZEDtARBoz2Qr4tAmoXSKFiRbEjB_a48Trp_XXjqoEehRRxUv-n_wtFs0tr-0G00?></g></svg>