<?plantuml 1.2026.1?><svg xmlns="http://www.w3.org/2000/svg" xmlns:xlink="http://www.w3.org/1999/xlink" contentStyleType="text/css" data-diagram-type="DESCRIPTION" height="1245px" preserveAspectRatio="none" style="width:1174px;height:1245px;background:#FFFFFF;" version="1.1" viewBox="0 0 1174 1245" width="1174px" zoomAndPan="magnify"><defs/><g><!--cluster stroomCluster--><g class="cluster" data-qualified-name="stroomCluster" data-source-line="7" id="ent0002"><rect fill="none" height="1129.15" rx="2.5" ry="2.5" style="stroke:#181818;stroke-width:1;" width="1123" x="7" y="7"/><text fill="#000000" font-family="sans-serif" font-size="14" font-weight="bold" lengthAdjust="spacing" textLength="118.8428" x="509.0786" y="21.9951">Stroom Cluster</text></g><!--cluster dataStore--><g class="cluster" data-qualified-name="stroomCluster.dataStore" data-source-line="9" id="ent0003"><path d="M31,60 C31,50 518,50 518,50 C518,50 1005,50 1005,60 L1005,259.59 C1005,269.59 518,269.59 518,269.59 C518,269.59 31,269.59 31,259.59 L31,60" fill="#B0C4DE" style="stroke:#181818;stroke-width:1;"/><path d="M31,60 C31,70 518,70 518,70 C518,70 1005,70 1005,60" fill="none" style="stroke:#181818;stroke-width:1;"/><text fill="#000000" font-family="sans-serif" font-size="14" font-weight="bold" lengthAdjust="spacing" textLength="84.875" x="475.5625" y="84.9951">Data Store</text></g><!--cluster Raw--><g class="cluster" data-qualified-name="stroomCluster.dataStore.Raw" data-source-line="10" id="ent0004"><rect fill="none" height="122.59" rx="2.5" ry="2.5" style="stroke:#181818;stroke-width:1;" width="708" x="273" y="123"/><text fill="#000000" font-family="sans-serif" font-size="14" font-weight="bold" lengthAdjust="spacing" textLength="33.1611" x="610.4194" y="137.9951">Raw</text></g><!--cluster Cooked--><g class="cluster" data-qualified-name="stroomCluster.dataStore.Cooked" data-source-line="17" id="ent0010"><rect fill="none" height="122.59" rx="2.5" ry="2.5" style="stroke:#181818;stroke-width:1;" width="194" x="55" y="123"/><text fill="#000000" font-family="sans-serif" font-size="14" font-weight="bold" lengthAdjust="spacing" textLength="58.3379" x="122.8311" y="137.9951">Cooked</text></g><!--entity dataSplitter--><g class="entity" data-qualified-name="stroomCluster.dataSplitter" data-source-line="24" id="ent0012"><rect fill="#B8860B" height="52.5938" rx="2.5" ry="2.5" style="stroke:#181818;stroke-width:0.5;" width="70.9004" x="750.55" y="347.59"/><text fill="#000000" font-family="sans-serif" font-size="14" lengthAdjust="spacing" textLength="33.4277" x="769.2863" y="370.5851">Data</text><text fill="#000000" font-family="sans-serif" font-size="14" lengthAdjust="spacing" textLength="50.9004" x="760.55" y="386.882">Splitter</text></g><!--entity jsonParser--><g class="entity" data-qualified-name="stroomCluster.jsonParser" data-source-line="25" id="ent0013"><rect fill="#B8860B" height="52.5938" rx="2.5" ry="2.5" style="stroke:#181818;stroke-width:0.5;" width="64.4404" x="619.78" y="347.59"/><text fill="#000000" font-family="sans-serif" font-size="14" lengthAdjust="spacing" textLength="34.5078" x="634.7463" y="370.5851">JSON</text><text fill="#000000" font-family="sans-serif" font-size="14" lengthAdjust="spacing" textLength="44.4404" x="629.78" y="386.882">Parser</text></g><!--entity xmlParser--><g class="entity" data-qualified-name="stroomCluster.xmlParser" data-source-line="26" id="ent0014"><rect fill="#B8860B" height="52.5938" rx="2.5" ry="2.5" style="stroke:#181818;stroke-width:0.5;" width="64.4404" x="341.78" y="477.18"/><text fill="#000000" font-family="sans-serif" font-size="14" lengthAdjust="spacing" textLength="29.4697" x="359.2654" y="500.1751">XML</text><text fill="#000000" font-family="sans-serif" font-size="14" lengthAdjust="spacing" textLength="44.4404" x="351.78" y="516.472">Parser</text></g><!--entity xmlParser2--><g class="entity" data-qualified-name="stroomCluster.xmlParser2" data-source-line="27" id="ent0015"><rect fill="#B8860B" height="52.5938" rx="2.5" ry="2.5" style="stroke:#181818;stroke-width:0.5;" width="64.4404" x="448.78" y="347.59"/><text fill="#000000" font-family="sans-serif" font-size="14" lengthAdjust="spacing" textLength="29.4697" x="466.2654" y="370.5851">XML</text><text fill="#000000" font-family="sans-serif" font-size="14" lengthAdjust="spacing" textLength="44.4404" x="458.78" y="386.882">Parser</text></g><!--entity normalisation--><g class="entity" data-qualified-name="stroomCluster.normalisation" data-source-line="30" id="ent0016"><rect fill="#FF8C00" height="52.5938" rx="2.5" ry="2.5" style="stroke:#181818;stroke-width:0.5;" width="137.6191" x="602.19" y="477.18"/><text fill="#000000" font-family="sans-serif" font-size="14" lengthAdjust="spacing" textLength="97.4805" x="622.2593" y="500.1751">Normalisation</text><text fill="#000000" font-family="sans-serif" font-size="14" lengthAdjust="spacing" textLength="117.6191" x="612.19" y="516.472">XSLT Translation</text></g><!--entity decoration--><g class="entity" data-qualified-name="stroomCluster.decoration" data-source-line="31" id="ent0017"><rect fill="#FF8C00" height="52.5938" rx="2.5" ry="2.5" style="stroke:#181818;stroke-width:0.5;" width="144.9131" x="497.54" y="621.78"/><text fill="#000000" font-family="sans-serif" font-size="14" lengthAdjust="spacing" textLength="76.8086" x="531.5922" y="644.7751">Decoration</text><text fill="#000000" font-family="sans-serif" font-size="14" lengthAdjust="spacing" textLength="124.9131" x="507.54" y="661.072">XSLT Translations</text></g><!--entity indexing--><g class="entity" data-qualified-name="stroomCluster.indexing" data-source-line="32" id="ent0018"><rect fill="#FF8C00" height="52.5938" rx="2.5" ry="2.5" style="stroke:#181818;stroke-width:0.5;" width="137.6191" x="501.19" y="770.87"/><text fill="#000000" font-family="sans-serif" font-size="14" lengthAdjust="spacing" textLength="60.4365" x="539.7813" y="793.8651">Indexing</text><text fill="#000000" font-family="sans-serif" font-size="14" lengthAdjust="spacing" textLength="117.6191" x="511.19" y="810.162">XSLT Translation</text></g><!--entity analytic--><g class="entity" data-qualified-name="stroomCluster.analytic" data-source-line="33" id="ent0019"><rect fill="#FF8C00" height="52.5938" rx="2.5" ry="2.5" style="stroke:#181818;stroke-width:0.5;" width="137.6191" x="976.19" y="770.87"/><text fill="#000000" font-family="sans-serif" font-size="14" lengthAdjust="spacing" textLength="56.2803" x="1016.8594" y="793.8651">Analytic</text><text fill="#000000" font-family="sans-serif" font-size="14" lengthAdjust="spacing" textLength="117.6191" x="986.19" y="810.162">XSLT Translation</text></g><!--entity flattener--><g class="entity" data-qualified-name="stroomCluster.flattener" data-source-line="34" id="ent0020"><rect fill="#FF8C00" height="52.5938" rx="2.5" ry="2.5" style="stroke:#181818;stroke-width:0.5;" width="137.6191" x="155.19" y="770.87"/><text fill="#000000" font-family="sans-serif" font-size="14" lengthAdjust="spacing" textLength="63.3555" x="192.3218" y="793.8651">Flattener</text><text fill="#000000" font-family="sans-serif" font-size="14" lengthAdjust="spacing" textLength="117.6191" x="165.19" y="810.162">XSLT Translation</text></g><!--entity statsXslt--><g class="entity" data-qualified-name="stroomCluster.statsXslt" data-source-line="35" id="ent0021"><rect fill="#FF8C00" height="52.5938" rx="2.5" ry="2.5" style="stroke:#181818;stroke-width:0.5;" width="137.6191" x="328.19" y="770.87"/><text fill="#000000" font-family="sans-serif" font-size="14" lengthAdjust="spacing" textLength="63.998" x="365.0005" y="793.8651">Statistics</text><text fill="#000000" font-family="sans-serif" font-size="14" lengthAdjust="spacing" textLength="117.6191" x="338.19" y="810.162">XSLT Translation</text></g><!--entity indexer--><g class="entity" data-qualified-name="stroomCluster.indexer" data-source-line="38" id="ent0022"><rect fill="#BA55D3" height="36.2969" rx="2.5" ry="2.5" style="stroke:#181818;stroke-width:0.5;" width="73.1563" x="504.42" y="932.61"/><text fill="#000000" font-family="sans-serif" font-size="14" lengthAdjust="spacing" textLength="53.1563" x="514.42" y="955.6051">Indexer</text></g><!--entity solrIndexer--><g class="entity" data-qualified-name="stroomCluster.solrIndexer" data-source-line="39" id="ent0023"><rect fill="#BA55D3" height="36.2969" rx="2.5" ry="2.5" style="stroke:#181818;stroke-width:0.5;" width="104.7041" x="612.65" y="932.61"/><text fill="#000000" font-family="sans-serif" font-size="14" lengthAdjust="spacing" textLength="84.7041" x="622.65" y="955.6051">Solr Indexer</text></g><!--entity producerTranslation--><g class="entity" data-qualified-name="stroomCluster.producerTranslation" data-source-line="40" id="ent0024"><rect fill="#FF8C00" height="52.5938" rx="2.5" ry="2.5" style="stroke:#181818;stroke-width:0.5;" width="137.6191" x="803.19" y="770.87"/><text fill="#000000" font-family="sans-serif" font-size="14" lengthAdjust="spacing" textLength="112.3145" x="815.8423" y="793.8651">Producer record</text><text fill="#000000" font-family="sans-serif" font-size="14" lengthAdjust="spacing" textLength="117.6191" x="813.19" y="810.162">XSLT Translation</text></g><!--entity kafkaProducer--><g class="entity" data-qualified-name="stroomCluster.kafkaProducer" data-source-line="41" id="ent0025"><rect fill="#BA55D3" height="52.5938" rx="2.5" ry="2.5" style="stroke:#181818;stroke-width:0.5;" width="83.0342" x="783.48" y="924.47"/><text fill="#000000" font-family="sans-serif" font-size="14" lengthAdjust="spacing" textLength="39.375" x="805.3096" y="947.4651">Kafka</text><text fill="#000000" font-family="sans-serif" font-size="14" lengthAdjust="spacing" textLength="63.0342" x="793.48" y="963.762">producer</text></g><!--entity xmlWriter--><g class="entity" data-qualified-name="stroomCluster.xmlWriter" data-source-line="42" id="ent0026"><rect fill="#BA55D3" height="36.2969" rx="2.5" ry="2.5" style="stroke:#181818;stroke-width:0.5;" width="97.2666" x="23.37" y="779.02"/><text fill="#000000" font-family="sans-serif" font-size="14" lengthAdjust="spacing" textLength="77.2666" x="33.37" y="802.0151">XML Writer</text></g><!--entity textWriter--><g class="entity" data-qualified-name="stroomCluster.textWriter" data-source-line="43" id="ent0027"><rect fill="#BA55D3" height="36.2969" rx="2.5" ry="2.5" style="stroke:#181818;stroke-width:0.5;" width="98.7363" x="174.63" y="932.61"/><text fill="#000000" font-family="sans-serif" font-size="14" lengthAdjust="spacing" textLength="78.7363" x="184.63" y="955.6051">Text Writer</text></g><!--entity statsAggregator--><g class="entity" data-qualified-name="stroomCluster.statsAggregator" data-source-line="44" id="ent0028"><rect fill="#BA55D3" height="52.5938" rx="2.5" ry="2.5" style="stroke:#181818;stroke-width:0.5;" width="98.9961" x="347.5" y="924.47"/><text fill="#000000" font-family="sans-serif" font-size="14" lengthAdjust="spacing" textLength="63.998" x="364.999" y="947.4651">Statistics</text><text fill="#000000" font-family="sans-serif" font-size="14" lengthAdjust="spacing" textLength="78.9961" x="357.5" y="963.762">Aggregator</text></g><!--entity refDataStore--><g class="entity" data-qualified-name="stroomCluster.refDataStore" data-source-line="47" id="ent0029"><path d="M673.41,776.37 C673.41,766.37 721.0042,766.37 721.0042,766.37 C721.0042,766.37 768.5985,766.37 768.5985,776.37 L768.5985,817.9638 C768.5985,827.9638 721.0042,827.9638 721.0042,827.9638 C721.0042,827.9638 673.41,827.9638 673.41,817.9638 L673.41,776.37" fill="#B0C4DE" style="stroke:#181818;stroke-width:0.5;"/><path d="M673.41,776.37 C673.41,786.37 721.0042,786.37 721.0042,786.37 C721.0042,786.37 768.5985,786.37 768.5985,776.37" fill="none" style="stroke:#181818;stroke-width:0.5;"/><text fill="#000000" font-family="sans-serif" font-size="14" lengthAdjust="spacing" textLength="71.4355" x="685.2865" y="803.3651">Reference</text><text fill="#000000" font-family="sans-serif" font-size="14" lengthAdjust="spacing" textLength="75.1885" x="683.41" y="819.662">Data Store</text></g><!--entity index--><g class="entity" data-qualified-name="stroomCluster.index" data-source-line="48" id="ent0030"><path d="M505.77,1068.56 C505.77,1058.56 541.0049,1058.56 541.0049,1058.56 C541.0049,1058.56 576.2397,1058.56 576.2397,1068.56 L576.2397,1110.1538 C576.2397,1120.1538 541.0049,1120.1538 541.0049,1120.1538 C541.0049,1120.1538 505.77,1120.1538 505.77,1110.1538 L505.77,1068.56" fill="#B0C4DE" style="stroke:#181818;stroke-width:0.5;"/><path d="M505.77,1068.56 C505.77,1078.56 541.0049,1078.56 541.0049,1078.56 C541.0049,1078.56 576.2397,1078.56 576.2397,1068.56" fill="none" style="stroke:#181818;stroke-width:0.5;"/><text fill="#000000" font-family="sans-serif" font-size="14" lengthAdjust="spacing" textLength="50.4697" x="515.77" y="1095.5551">Lucene</text><text fill="#000000" font-family="sans-serif" font-size="14" lengthAdjust="spacing" textLength="38.7871" x="521.6113" y="1111.852">Index</text></g><!--entity dataStore2--><g class="entity" data-qualified-name="stroomCluster.dataStore2" data-source-line="49" id="ent0031"><path d="M927.34,929.97 C927.34,919.97 955.9953,919.97 955.9953,919.97 C955.9953,919.97 984.6505,919.97 984.6505,929.97 L984.6505,971.5638 C984.6505,981.5638 955.9953,981.5638 955.9953,981.5638 C955.9953,981.5638 927.34,981.5638 927.34,971.5638 L927.34,929.97" fill="#B0C4DE" style="stroke:#181818;stroke-width:0.5;"/><path d="M927.34,929.97 C927.34,939.97 955.9953,939.97 955.9953,939.97 C955.9953,939.97 984.6505,939.97 984.6505,929.97" fill="none" style="stroke:#181818;stroke-width:0.5;"/><text fill="#000000" font-family="sans-serif" font-size="14" lengthAdjust="spacing" textLength="33.4277" x="939.2814" y="956.9651">Data</text><text fill="#000000" font-family="sans-serif" font-size="14" lengthAdjust="spacing" textLength="37.3105" x="937.34" y="973.262">Store</text></g><!--entity metaStore--><g class="entity" data-qualified-name="stroomCluster.metaStore" data-source-line="50" id="ent0032"><path d="M43.34,929.97 C43.34,919.97 71.9953,919.97 71.9953,919.97 C71.9953,919.97 100.6505,919.97 100.6505,929.97 L100.6505,971.5638 C100.6505,981.5638 71.9953,981.5638 71.9953,981.5638 C71.9953,981.5638 43.34,981.5638 43.34,971.5638 L43.34,929.97" fill="#B0C4DE" style="stroke:#181818;stroke-width:0.5;"/><path d="M43.34,929.97 C43.34,939.97 71.9953,939.97 71.9953,939.97 C71.9953,939.97 100.6505,939.97 100.6505,929.97" fill="none" style="stroke:#181818;stroke-width:0.5;"/><text fill="#000000" font-family="sans-serif" font-size="14" lengthAdjust="spacing" textLength="34.7607" x="54.6149" y="956.9651">Meta</text><text fill="#000000" font-family="sans-serif" font-size="14" lengthAdjust="spacing" textLength="37.3105" x="53.34" y="973.262">Store</text></g><!--entity fileSystem--><g class="entity" data-qualified-name="stroomCluster.fileSystem" data-source-line="51" id="ent0033"><path d="M187.9,1068.56 C187.9,1058.56 224.003,1058.56 224.003,1058.56 C224.003,1058.56 260.1061,1058.56 260.1061,1068.56 L260.1061,1110.1538 C260.1061,1120.1538 224.003,1120.1538 224.003,1120.1538 C224.003,1120.1538 187.9,1120.1538 187.9,1110.1538 L187.9,1068.56" fill="#B0C4DE" style="stroke:#181818;stroke-width:0.5;"/><path d="M187.9,1068.56 C187.9,1078.56 224.003,1078.56 224.003,1078.56 C224.003,1078.56 260.1061,1078.56 260.1061,1068.56" fill="none" style="stroke:#181818;stroke-width:0.5;"/><text fill="#000000" font-family="sans-serif" font-size="14" lengthAdjust="spacing" textLength="24.4453" x="211.7804" y="1095.5551">File</text><text fill="#000000" font-family="sans-serif" font-size="14" lengthAdjust="spacing" textLength="52.2061" x="197.9" y="1111.852">System</text></g><!--entity statsStore--><g class="entity" data-qualified-name="stroomCluster.statsStore" data-source-line="52" id="ent0034"><path d="M355,1068.56 C355,1058.56 396.999,1058.56 396.999,1058.56 C396.999,1058.56 438.998,1058.56 438.998,1068.56 L438.998,1110.1538 C438.998,1120.1538 396.999,1120.1538 396.999,1120.1538 C396.999,1120.1538 355,1120.1538 355,1110.1538 L355,1068.56" fill="#B0C4DE" style="stroke:#181818;stroke-width:0.5;"/><path d="M355,1068.56 C355,1078.56 396.999,1078.56 396.999,1078.56 C396.999,1078.56 438.998,1078.56 438.998,1068.56" fill="none" style="stroke:#181818;stroke-width:0.5;"/><text fill="#000000" font-family="sans-serif" font-size="14" lengthAdjust="spacing" textLength="63.998" x="365" y="1095.5551">Statistics</text><text fill="#000000" font-family="sans-serif" font-size="14" lengthAdjust="spacing" textLength="37.3105" x="378.3438" y="1111.852">Store</text></g><!--entity rawFixedWidthLog--><g class="entity" data-qualified-name="stroomCluster.dataStore.Raw.rawFixedWidthLog" data-source-line="11" id="ent0005"><path d="M719.57,187.65 L719.57,218.9469 A2.5,2.5 0 0 0 722.07,221.4469 L849.9313,221.4469 A2.5,2.5 0 0 0 852.4313,218.9469 L852.4313,195.15 L842.4313,185.15 L722.07,185.15 A2.5,2.5 0 0 0 719.57,187.65" fill="#ADD8E6" style="stroke:#181818;stroke-width:0.5;"/><path d="M842.4313,185.15 L842.4313,192.65 A2.5,2.5 0 0 0 844.9313,195.15 L852.4313,195.15" fill="#ADD8E6" style="stroke:#181818;stroke-width:0.5;"/><text fill="#000000" font-family="sans-serif" font-size="14" lengthAdjust="spacing" textLength="112.8613" x="729.57" y="208.1451">Fixed Width Log</text></g><!--entity rawCsvLog--><g class="entity" data-qualified-name="stroomCluster.dataStore.Raw.rawCsvLog" data-source-line="12" id="ent0006"><path d="M887.03,187.65 L887.03,218.9469 A2.5,2.5 0 0 0 889.53,221.4469 L962.4714,221.4469 A2.5,2.5 0 0 0 964.9714,218.9469 L964.9714,195.15 L954.9714,185.15 L889.53,185.15 A2.5,2.5 0 0 0 887.03,187.65" fill="#ADD8E6" style="stroke:#181818;stroke-width:0.5;"/><path d="M954.9714,185.15 L954.9714,192.65 A2.5,2.5 0 0 0 957.4714,195.15 L964.9714,195.15" fill="#ADD8E6" style="stroke:#181818;stroke-width:0.5;"/><text fill="#000000" font-family="sans-serif" font-size="14" lengthAdjust="spacing" textLength="57.9414" x="897.03" y="208.1451">CSV Log</text></g><!--entity rawXmlLog--><g class="entity" data-qualified-name="stroomCluster.dataStore.Raw.rawXmlLog" data-source-line="13" id="ent0007"><path d="M289.41,187.65 L289.41,218.9469 A2.5,2.5 0 0 0 291.91,221.4469 L366.0819,221.4469 A2.5,2.5 0 0 0 368.5819,218.9469 L368.5819,195.15 L358.5819,185.15 L291.91,185.15 A2.5,2.5 0 0 0 289.41,187.65" fill="#ADD8E6" style="stroke:#181818;stroke-width:0.5;"/><path d="M358.5819,185.15 L358.5819,192.65 A2.5,2.5 0 0 0 361.0819,195.15 L368.5819,195.15" fill="#ADD8E6" style="stroke:#181818;stroke-width:0.5;"/><text fill="#000000" font-family="sans-serif" font-size="14" lengthAdjust="spacing" textLength="59.1719" x="299.41" y="208.1451">XML Log</text></g><!--entity rawEventsLog--><g class="entity" data-qualified-name="stroomCluster.dataStore.Raw.rawEventsLog" data-source-line="14" id="ent0008"><path d="M403.18,179.5 L403.18,227.0938 A2.5,2.5 0 0 0 405.68,229.5938 L562.3275,229.5938 A2.5,2.5 0 0 0 564.8275,227.0938 L564.8275,187 L554.8275,177 L405.68,177 A2.5,2.5 0 0 0 403.18,179.5" fill="#ADD8E6" style="stroke:#181818;stroke-width:0.5;"/><path d="M554.8275,177 L554.8275,184.5 A2.5,2.5 0 0 0 557.3275,187 L564.8275,187" fill="#ADD8E6" style="stroke:#181818;stroke-width:0.5;"/><text fill="#000000" font-family="sans-serif" font-size="14" lengthAdjust="spacing" textLength="141.6475" x="413.18" y="199.9951">XML (event-logging)</text><text fill="#000000" font-family="sans-serif" font-size="14" lengthAdjust="spacing" textLength="47.4004" x="460.3035" y="216.292">Events</text></g><!--entity rawJsonLog--><g class="entity" data-qualified-name="stroomCluster.dataStore.Raw.rawJsonLog" data-source-line="15" id="ent0009"><path d="M599.9,187.65 L599.9,218.9469 A2.5,2.5 0 0 0 602.4,221.4469 L681.61,221.4469 A2.5,2.5 0 0 0 684.11,218.9469 L684.11,195.15 L674.11,185.15 L602.4,185.15 A2.5,2.5 0 0 0 599.9,187.65" fill="#ADD8E6" style="stroke:#181818;stroke-width:0.5;"/><path d="M674.11,185.15 L674.11,192.65 A2.5,2.5 0 0 0 676.61,195.15 L684.11,195.15" fill="#ADD8E6" style="stroke:#181818;stroke-width:0.5;"/><text fill="#000000" font-family="sans-serif" font-size="14" lengthAdjust="spacing" textLength="64.21" x="609.9" y="208.1451">JSON Log</text></g><!--entity cookedEventsLog--><g class="entity" data-qualified-name="stroomCluster.dataStore.Cooked.cookedEventsLog" data-source-line="18" id="ent0011"><path d="M71.18,179.5 L71.18,227.0938 A2.5,2.5 0 0 0 73.68,229.5938 L230.3275,229.5938 A2.5,2.5 0 0 0 232.8275,227.0938 L232.8275,187 L222.8275,177 L73.68,177 A2.5,2.5 0 0 0 71.18,179.5" fill="#ADD8E6" style="stroke:#181818;stroke-width:0.5;"/><path d="M222.8275,177 L222.8275,184.5 A2.5,2.5 0 0 0 225.3275,187 L232.8275,187" fill="#ADD8E6" style="stroke:#181818;stroke-width:0.5;"/><text fill="#000000" font-family="sans-serif" font-size="14" lengthAdjust="spacing" textLength="141.6475" x="81.18" y="199.9951">XML (event-logging)</text><text fill="#000000" font-family="sans-serif" font-size="14" lengthAdjust="spacing" textLength="47.4004" x="128.3035" y="216.292">Events</text></g><!--entity kafka--><g class="entity" data-qualified-name="kafka" data-source-line="57" id="ent0035"><rect fill="#90EE90" height="36.2969" rx="2.5" ry="2.5" style="stroke:#181818;stroke-width:0.5;" width="59.375" x="795.31" y="1187.65"/><text fill="#000000" font-family="sans-serif" font-size="14" lengthAdjust="spacing" textLength="39.375" x="805.31" y="1210.6451">Kafka</text></g><!--entity solr--><g class="entity" data-qualified-name="solr" data-source-line="58" id="ent0036"><path d="M641.45,1193.15 C641.45,1183.15 664.9988,1183.15 664.9988,1183.15 C664.9988,1183.15 688.5477,1183.15 688.5477,1193.15 L688.5477,1218.4469 C688.5477,1228.4469 664.9988,1228.4469 664.9988,1228.4469 C664.9988,1228.4469 641.45,1228.4469 641.45,1218.4469 L641.45,1193.15" fill="#90EE90" style="stroke:#181818;stroke-width:0.5;"/><path d="M641.45,1193.15 C641.45,1203.15 664.9988,1203.15 664.9988,1203.15 C664.9988,1203.15 688.5477,1203.15 688.5477,1193.15" fill="none" style="stroke:#181818;stroke-width:0.5;"/><text fill="#000000" font-family="sans-serif" font-size="14" lengthAdjust="spacing" textLength="27.0977" x="651.45" y="1220.1451">Solr</text></g><!--link rawCsvLog to dataSplitter--><g class="link" data-entity-1="ent0006" data-entity-2="ent0012" data-link-type="dependency" data-source-line="60" id="lnk37"><path d="M913.21,221.74 C902.07,236.76 885.34,258.9 870,277.59 C850.13,301.79 830.4861,324.0213 813.3361,342.9713" fill="none" id="rawCsvLog-to-dataSplitter" style="stroke:#808080;stroke-width:1;"/><polygon fill="#808080" points="809.31,347.42,818.3149,343.4311,812.6651,343.7128,812.3834,338.0629,809.31,347.42" style="stroke:#808080;stroke-width:1;"/><text fill="#000000" font-family="sans-serif" font-size="13" lengthAdjust="spacing" textLength="28.7295" x="862.2" y="306.1569">Text</text></g><!--link rawFixedWidthLog to dataSplitter--><g class="link" data-entity-1="ent0005" data-entity-2="ent0012" data-link-type="dependency" data-source-line="61" id="lnk38"><path d="M786,221.7 C786,251.57 786,306.7 786,341.38" fill="none" id="rawFixedWidthLog-to-dataSplitter" style="stroke:#808080;stroke-width:1;"/><polygon fill="#808080" points="786,347.38,790,338.38,786,342.38,782,338.38,786,347.38" style="stroke:#808080;stroke-width:1;"/><text fill="#000000" font-family="sans-serif" font-size="13" lengthAdjust="spacing" textLength="28.7295" x="787" y="306.1569">Text</text></g><!--link rawJsonLog to jsonParser--><g class="link" data-entity-1="ent0009" data-entity-2="ent0013" data-link-type="dependency" data-source-line="62" id="lnk39"><path d="M643.03,221.7 C644.8,251.57 648.0742,306.7106 650.1342,341.3906" fill="none" id="rawJsonLog-to-jsonParser" style="stroke:#808080;stroke-width:1;"/><polygon fill="#808080" points="650.49,347.38,653.9493,338.1587,650.1935,342.3888,645.9634,338.633,650.49,347.38" style="stroke:#808080;stroke-width:1;"/><text fill="#000000" font-family="sans-serif" font-size="13" lengthAdjust="spacing" textLength="32.043" x="649.48" y="306.1569">JSON</text></g><!--link rawXmlLog to xmlParser--><g class="link" data-entity-1="ent0007" data-entity-2="ent0014" data-link-type="dependency" data-source-line="63" id="lnk40"><path d="M331.61,221.61 C339.19,271.83 360.3046,411.7372 369.2546,471.0372" fill="none" id="rawXmlLog-to-xmlParser" style="stroke:#808080;stroke-width:1;"/><polygon fill="#808080" points="370.15,476.97,372.7621,467.4738,369.4038,472.026,364.8517,468.6677,370.15,476.97" style="stroke:#808080;stroke-width:1;"/><text fill="#000000" font-family="sans-serif" font-size="13" lengthAdjust="spacing" textLength="27.3647" x="359.16" y="378.4569">XML</text></g><!--link rawEventsLog to xmlParser2--><g class="link" data-entity-1="ent0008" data-entity-2="ent0015" data-link-type="dependency" data-source-line="64" id="lnk41"><path d="M483.54,229.9 C482.98,261.68 482.1276,309.551 481.5576,341.321" fill="none" id="rawEventsLog-to-xmlParser2" style="stroke:#181818;stroke-width:1;"/><polygon fill="#181818" points="481.45,347.32,485.6108,338.3932,481.5397,342.3208,477.6121,338.2497,481.45,347.32" style="stroke:#181818;stroke-width:1;"/><text fill="#000000" font-family="sans-serif" font-size="13" lengthAdjust="spacing" textLength="89.8892" x="483.5" y="298.6569">event-logging</text><text fill="#000000" font-family="sans-serif" font-size="13" lengthAdjust="spacing" textLength="27.3647" x="514.7622" y="313.7897">XML</text></g><!--link dataSplitter to normalisation--><g class="link" data-entity-1="ent0012" data-entity-2="ent0016" data-link-type="dependency" data-source-line="65" id="lnk42"><path d="M763,400.4 C742.95,422.66 718.0164,450.3126 697.9764,472.5526" fill="none" id="dataSplitter-to-normalisation" style="stroke:#0000FF;stroke-width:1;"/><polygon fill="#0000FF" points="693.96,477.01,702.9562,473.0016,697.307,473.2955,697.0131,467.6463,693.96,477.01" style="stroke:#0000FF;stroke-width:1;"/><text fill="#000000" font-family="sans-serif" font-size="13" lengthAdjust="spacing" textLength="27.3647" x="736.39" y="443.2469">XML</text></g><!--link jsonParser to normalisation--><g class="link" data-entity-1="ent0013" data-entity-2="ent0016" data-link-type="dependency" data-source-line="66" id="lnk43"><path d="M655.8,400.4 C659.11,422.66 663.0167,448.8354 666.3267,471.0754" fill="none" id="jsonParser-to-normalisation" style="stroke:#0000FF;stroke-width:1;"/><polygon fill="#0000FF" points="667.21,477.01,669.8415,467.5192,666.474,472.0645,661.9287,468.6969,667.21,477.01" style="stroke:#0000FF;stroke-width:1;"/><text fill="#000000" font-family="sans-serif" font-size="13" lengthAdjust="spacing" textLength="27.3647" x="663.64" y="443.2469">XML</text></g><!--link xmlParser to normalisation--><g class="link" data-entity-1="ent0014" data-entity-2="ent0016" data-link-type="dependency" data-source-line="67" id="lnk44"><path d="M387.59,476.73 C395.95,463.35 408.05,448.46 423.5,440.98 C455.22,425.64 537.3934,451.3595 599.3734,474.6495" fill="none" id="xmlParser-to-normalisation" style="stroke:#0000FF;stroke-width:1;"/><polygon fill="#0000FF" points="604.99,476.76,597.9722,469.8499,600.3095,475.0012,595.1582,477.3386,604.99,476.76" style="stroke:#0000FF;stroke-width:1;"/><text fill="#000000" font-family="sans-serif" font-size="13" lengthAdjust="spacing" textLength="27.3647" x="424.5" y="443.2469">XML</text></g><!--link xmlParser2 to decoration--><g class="link" data-entity-1="ent0015" data-entity-2="ent0017" data-link-type="dependency" data-source-line="68" id="lnk45"><path d="M479.4,400.61 C478.29,431.99 479.12,486.24 494,529.78 C505.85,564.45 526.4212,594.3373 544.3712,616.8673" fill="none" id="xmlParser2-to-decoration" style="stroke:#181818;stroke-width:1;"/><polygon fill="#181818" points="548.11,621.56,545.6303,612.0284,544.9944,617.6494,539.3734,617.0134,548.11,621.56" style="stroke:#181818;stroke-width:1;"/><text fill="#000000" font-family="sans-serif" font-size="13" lengthAdjust="spacing" textLength="89.8892" x="495" y="500.5469">event-logging</text><text fill="#000000" font-family="sans-serif" font-size="13" lengthAdjust="spacing" textLength="27.3647" x="526.2622" y="515.6797">XML</text></g><!--link normalisation to decoration--><g class="link" data-entity-1="ent0016" data-entity-2="ent0017" data-link-type="dependency" data-source-line="69" id="lnk46"><path d="M652.94,529.97 C634.67,555.77 610.0483,590.534 591.7083,616.424" fill="none" id="normalisation-to-decoration" style="stroke:#181818;stroke-width:1;"/><polygon fill="#181818" points="588.24,621.32,596.7064,616.2881,591.1302,617.24,590.1784,611.6638,588.24,621.32" style="stroke:#181818;stroke-width:1;"/><text fill="#000000" font-family="sans-serif" font-size="13" lengthAdjust="spacing" textLength="89.8892" x="630.55" y="572.8469">event-logging</text><text fill="#000000" font-family="sans-serif" font-size="13" lengthAdjust="spacing" textLength="27.3647" x="661.8122" y="587.9797">XML</text></g><!--reverse link decoration to refDataStore--><g class="link" data-entity-1="ent0017" data-entity-2="ent0029" data-link-type="dependency" data-source-line="70" id="lnk47"><path d="M633.6184,677.7235 C647.9884,685.8135 657.34,692.78 669,704.37 C686.67,721.93 700.24,746.74 709.08,766.14" fill="none" id="decoration-backto-refDataStore" style="stroke:#808080;stroke-width:1;"/><polygon fill="#808080" points="628.39,674.78,634.2703,682.6808,632.747,677.2329,638.1949,675.7096,628.39,674.78" style="stroke:#808080;stroke-width:1;"/><text fill="#000000" font-family="sans-serif" font-size="13" lengthAdjust="spacing" textLength="47.1694" x="694.43" y="724.9369">Lookup</text></g><!--link decoration to producerTranslation--><g class="link" data-entity-1="ent0017" data-entity-2="ent0024" data-link-type="dependency" data-source-line="71" id="lnk48"><path d="M642.75,665.26 C676.44,674.29 716.36,687.22 750,704.37 C784.95,722.19 815.7196,746.1677 839.2996,766.5377" fill="none" id="decoration-to-producerTranslation" style="stroke:#181818;stroke-width:1;"/><polygon fill="#181818" points="843.84,770.46,839.6443,761.5496,840.0563,767.1914,834.4145,767.6035,843.84,770.46" style="stroke:#181818;stroke-width:1;"/><text fill="#000000" font-family="sans-serif" font-size="13" lengthAdjust="spacing" textLength="121.3862" x="800.66" y="724.9369">event-logging XML</text></g><!--link decoration to indexing--><g class="link" data-entity-1="ent0017" data-entity-2="ent0018" data-link-type="dependency" data-source-line="72" id="lnk49"><path d="M570,674.7 C570,701.69 570,737.95 570,764.84" fill="none" id="decoration-to-indexing" style="stroke:#181818;stroke-width:1;"/><polygon fill="#181818" points="570,770.84,574,761.84,570,765.84,566,761.84,570,770.84" style="stroke:#181818;stroke-width:1;"/><text fill="#000000" font-family="sans-serif" font-size="13" lengthAdjust="spacing" textLength="89.8892" x="571" y="717.4369">event-logging</text><text fill="#000000" font-family="sans-serif" font-size="13" lengthAdjust="spacing" textLength="27.3647" x="602.2622" y="732.5697">XML</text></g><!--link decoration to analytic--><g class="link" data-entity-1="ent0017" data-entity-2="ent0019" data-link-type="dependency" data-source-line="73" id="lnk50"><path d="M642.95,649.24 C718.14,651.89 837.29,663.09 931,704.37 C966.35,719.94 995.6594,745.1553 1017.0894,766.5053" fill="none" id="decoration-to-analytic" style="stroke:#181818;stroke-width:1;"/><polygon fill="#181818" points="1021.34,770.74,1017.7873,761.5542,1017.7979,767.2111,1012.141,767.2217,1021.34,770.74" style="stroke:#181818;stroke-width:1;"/><text fill="#000000" font-family="sans-serif" font-size="13" lengthAdjust="spacing" textLength="89.8892" x="982.88" y="717.4369">event-logging</text><text fill="#000000" font-family="sans-serif" font-size="13" lengthAdjust="spacing" textLength="27.3647" x="1014.1422" y="732.5697">XML</text></g><!--link decoration to flattener--><g class="link" data-entity-1="ent0017" data-entity-2="ent0020" data-link-type="dependency" data-source-line="74" id="lnk51"><path d="M497.24,658.67 C451.1,666.67 391.07,680.7 342,704.37 C306.94,721.29 276.8613,745.833 254.3113,766.623" fill="none" id="decoration-to-flattener" style="stroke:#181818;stroke-width:1;"/><polygon fill="#181818" points="249.9,770.69,259.2283,767.5304,253.5761,767.3008,253.8056,761.6486,249.9,770.69" style="stroke:#181818;stroke-width:1;"/><text fill="#000000" font-family="sans-serif" font-size="13" lengthAdjust="spacing" textLength="89.8892" x="343" y="717.4369">event-logging</text><text fill="#000000" font-family="sans-serif" font-size="13" lengthAdjust="spacing" textLength="27.3647" x="374.2622" y="732.5697">XML</text></g><!--link decoration to statsXslt--><g class="link" data-entity-1="ent0017" data-entity-2="ent0021" data-link-type="dependency" data-source-line="75" id="lnk52"><path d="M515.16,674.83 C500.08,683.17 484.24,693.2 471,704.37 C448.16,723.65 430.7191,745.8595 417.0091,765.6295" fill="none" id="decoration-to-statsXslt" style="stroke:#181818;stroke-width:1;"/><polygon fill="#181818" points="413.59,770.56,422.0057,765.4437,416.4393,766.4513,415.4318,760.8849,413.59,770.56" style="stroke:#181818;stroke-width:1;"/><text fill="#000000" font-family="sans-serif" font-size="13" lengthAdjust="spacing" textLength="89.8892" x="472" y="717.4369">event-logging</text><text fill="#000000" font-family="sans-serif" font-size="13" lengthAdjust="spacing" textLength="27.3647" x="503.2622" y="732.5697">XML</text></g><!--link decoration to xmlWriter--><g class="link" data-entity-1="ent0017" data-entity-2="ent0026" data-link-type="dependency" data-source-line="76" id="lnk53"><path d="M497.2,649.24 C419.31,651.78 293.55,662.81 194,704.37 C151.93,721.94 115.6381,753.1742 93.5181,774.5142" fill="none" id="decoration-to-xmlWriter" style="stroke:#181818;stroke-width:1;"/><polygon fill="#181818" points="89.2,778.68,98.4544,775.31,92.7984,775.2085,92.8999,769.5525,89.2,778.68" style="stroke:#181818;stroke-width:1;"/><text fill="#000000" font-family="sans-serif" font-size="13" lengthAdjust="spacing" textLength="89.8892" x="195" y="717.4369">event-logging</text><text fill="#000000" font-family="sans-serif" font-size="13" lengthAdjust="spacing" textLength="27.3647" x="226.2622" y="732.5697">XML</text></g><!--link indexing to indexer--><g class="link" data-entity-1="ent0018" data-entity-2="ent0022" data-link-type="dependency" data-source-line="78" id="lnk54"><path d="M565.08,823.88 C559.17,854.8 550.5277,899.9469 545.4377,926.5469" fill="none" id="indexing-to-indexer" style="stroke:#008000;stroke-width:1;"/><polygon fill="#008000" points="544.31,932.44,549.9302,924.3522,545.2497,927.5291,542.0728,922.8486,544.31,932.44" style="stroke:#008000;stroke-width:1;"/><text fill="#000000" font-family="sans-serif" font-size="13" lengthAdjust="spacing" textLength="48.8135" x="559.1" y="871.0369">records</text><text fill="#000000" font-family="sans-serif" font-size="13" lengthAdjust="spacing" textLength="27.3647" x="569.8244" y="886.1697">XML</text></g><!--link indexing to solrIndexer--><g class="link" data-entity-1="ent0018" data-entity-2="ent0023" data-link-type="dependency" data-source-line="79" id="lnk55"><path d="M591.12,823.68 C599.29,834.04 608.47,846.3 616,857.97 C632.06,882.86 645.03,908.1323 654.17,926.9623" fill="none" id="indexing-to-solrIndexer" style="stroke:#008000;stroke-width:1;"/><polygon fill="#008000" points="656.79,932.36,656.4584,922.5167,654.6066,927.8619,649.2615,926.0101,656.79,932.36" style="stroke:#008000;stroke-width:1;"/><text fill="#000000" font-family="sans-serif" font-size="13" lengthAdjust="spacing" textLength="48.8135" x="635.92" y="871.0369">records</text><text fill="#000000" font-family="sans-serif" font-size="13" lengthAdjust="spacing" textLength="27.3647" x="646.6444" y="886.1697">XML</text></g><!--link indexer to index--><g class="link" data-entity-1="ent0022" data-entity-2="ent0030" data-link-type="dependency" data-source-line="80" id="lnk56"><path d="M541,969.34 C541,991.75 541,1024.85 541,1052.09" fill="none" id="indexer-to-index" style="stroke:#808080;stroke-width:1;"/><polygon fill="#808080" points="541,1058.09,545,1049.09,541,1053.09,537,1049.09,541,1058.09" style="stroke:#808080;stroke-width:1;"/><text fill="#000000" font-family="sans-serif" font-size="13" lengthAdjust="spacing" textLength="34.6455" x="542" y="1024.6269">Store</text></g><!--link solrIndexer to solr--><g class="link" data-entity-1="ent0023" data-entity-2="ent0036" data-link-type="dependency" data-source-line="81" id="lnk57"><path d="M665,969.15 C665,1013.93 665,1127.12 665,1176.69" fill="none" id="solrIndexer-to-solr" style="stroke:#808080;stroke-width:1;"/><polygon fill="#808080" points="665,1182.69,669,1173.69,665,1177.69,661,1173.69,665,1182.69" style="stroke:#808080;stroke-width:1;"/><text fill="#000000" font-family="sans-serif" font-size="13" lengthAdjust="spacing" textLength="34.6455" x="666" y="1093.9269">Store</text></g><!--link statsXslt to statsAggregator--><g class="link" data-entity-1="ent0021" data-entity-2="ent0028" data-link-type="dependency" data-source-line="83" id="lnk58"><path d="M397,823.88 C397,851.85 397,890.26 397,918.17" fill="none" id="statsXslt-to-statsAggregator" style="stroke:#008000;stroke-width:1;"/><polygon fill="#008000" points="397,924.17,401,915.17,397,919.17,393,915.17,397,924.17" style="stroke:#008000;stroke-width:1;"/><text fill="#000000" font-family="sans-serif" font-size="13" lengthAdjust="spacing" textLength="89.4448" x="398" y="878.5369">statistics XML</text></g><!--link statsAggregator to statsStore--><g class="link" data-entity-1="ent0028" data-entity-2="ent0034" data-link-type="dependency" data-source-line="84" id="lnk59"><path d="M397,977.45 C397,1000.48 397,1028.28 397,1052.5" fill="none" id="statsAggregator-to-statsStore" style="stroke:#808080;stroke-width:1;"/><polygon fill="#808080" points="397,1058.5,401,1049.5,397,1053.5,393,1049.5,397,1058.5" style="stroke:#808080;stroke-width:1;"/><text fill="#000000" font-family="sans-serif" font-size="13" lengthAdjust="spacing" textLength="34.6455" x="398" y="1024.6269">Store</text></g><!--link producerTranslation to kafkaProducer--><g class="link" data-entity-1="ent0024" data-entity-2="ent0025" data-link-type="dependency" data-source-line="86" id="lnk60"><path d="M843.81,823.84 C835.08,833.58 826.57,845.37 822,857.97 C814.27,879.25 815.0638,899.2499 818.1738,918.1099" fill="none" id="producerTranslation-to-kafkaProducer" style="stroke:#008000;stroke-width:1;"/><polygon fill="#008000" points="819.15,924.03,821.6324,914.4991,818.3365,919.0966,813.739,915.8007,819.15,924.03" style="stroke:#008000;stroke-width:1;"/><text fill="#000000" font-family="sans-serif" font-size="13" lengthAdjust="spacing" textLength="89.0703" x="823" y="871.0369">kafka-records</text><text fill="#000000" font-family="sans-serif" font-size="13" lengthAdjust="spacing" textLength="27.3647" x="853.8528" y="886.1697">XML</text></g><!--link kafkaProducer to kafka--><g class="link" data-entity-1="ent0025" data-entity-2="ent0035" data-link-type="dependency" data-source-line="87" id="lnk61"><path d="M825,977.42 C825,1028.93 825,1137.75 825,1181.46" fill="none" id="kafkaProducer-to-kafka" style="stroke:#808080;stroke-width:1;"/><polygon fill="#808080" points="825,1187.46,829,1178.46,825,1182.46,821,1178.46,825,1187.46" style="stroke:#808080;stroke-width:1;"/><text fill="#000000" font-family="sans-serif" font-size="13" lengthAdjust="spacing" textLength="86.1187" x="826" y="1093.9269">Send to topic</text></g><!--link xmlWriter to cookedEventsLog--><g class="link" data-entity-1="ent0026" data-entity-2="ent0011" data-link-type="dependency" data-source-line="89" id="lnk62"><path d="M72.77,778.96 C73.93,751.5 76,696.08 76,649.07 C76,372.89 76,372.89 76,372.89 C76,318.15 106.2359,266.4319 128.7559,234.7219" fill="none" id="xmlWriter-to-cookedEventsLog" style="stroke:#181818;stroke-width:1;"/><polygon fill="#181818" points="132.23,229.83,123.7575,234.8517,129.3349,233.9066,130.28,239.4839,132.23,229.83" style="stroke:#181818;stroke-width:1;"/><text fill="#000000" font-family="sans-serif" font-size="13" lengthAdjust="spacing" textLength="34.6455" x="104.6218" y="493.0469">Store</text><text fill="#000000" font-family="sans-serif" font-size="13" lengthAdjust="spacing" textLength="89.8892" x="77" y="508.1797">event-logging</text><text fill="#000000" font-family="sans-serif" font-size="13" lengthAdjust="spacing" textLength="27.3647" x="108.2622" y="523.3125">XML</text></g><!--link xmlWriter to metaStore--><g class="link" data-entity-1="ent0026" data-entity-2="ent0032" data-link-type="dependency" data-source-line="90" id="lnk63"><path d="M72,815.56 C72,840.91 72,882.39 72,913.53" fill="none" id="xmlWriter-to-metaStore" style="stroke:#808080;stroke-width:1;"/><polygon fill="#808080" points="72,919.53,76,910.53,72,914.53,68,910.53,72,919.53" style="stroke:#808080;stroke-width:1;"/><text fill="#000000" font-family="sans-serif" font-size="13" lengthAdjust="spacing" textLength="104.3809" x="73" y="878.5369">Event metadata</text></g><!--link flattener to textWriter--><g class="link" data-entity-1="ent0020" data-entity-2="ent0027" data-link-type="dependency" data-source-line="91" id="lnk64"><path d="M224,823.88 C224,854.8 224,899.84 224,926.44" fill="none" id="flattener-to-textWriter" style="stroke:#808080;stroke-width:1;"/><polygon fill="#808080" points="224,932.44,228,923.44,224,927.44,220,923.44,224,932.44" style="stroke:#808080;stroke-width:1;"/><text fill="#000000" font-family="sans-serif" font-size="13" lengthAdjust="spacing" textLength="62.1436" x="225" y="878.5369">Text data</text></g><!--link textWriter to fileSystem--><g class="link" data-entity-1="ent0027" data-entity-2="ent0033" data-link-type="dependency" data-source-line="92" id="lnk65"><path d="M224,969.34 C224,991.75 224,1024.85 224,1052.09" fill="none" id="textWriter-to-fileSystem" style="stroke:#808080;stroke-width:1;"/><polygon fill="#808080" points="224,1058.09,228,1049.09,224,1053.09,220,1049.09,224,1058.09" style="stroke:#808080;stroke-width:1;"/><text fill="#000000" font-family="sans-serif" font-size="13" lengthAdjust="spacing" textLength="62.1436" x="225" y="1024.6269">Text data</text></g><!--link analytic to dataStore2--><g class="link" data-entity-1="ent0019" data-entity-2="ent0031" data-link-type="dependency" data-source-line="93" id="lnk66"><path d="M1029.9,823.88 C1014.38,850.32 993.2579,886.3059 976.8179,914.3059" fill="none" id="analytic-to-dataStore2" style="stroke:#808080;stroke-width:1;"/><polygon fill="#808080" points="973.78,919.48,981.7863,913.7442,976.3116,915.1683,974.8875,909.6936,973.78,919.48" style="stroke:#808080;stroke-width:1;"/><text fill="#000000" font-family="sans-serif" font-size="13" lengthAdjust="spacing" textLength="34.6455" x="1070.5852" y="871.0369">Store</text><text fill="#000000" font-family="sans-serif" font-size="13" lengthAdjust="spacing" textLength="156.876" x="1009.47" y="886.1697">(Errors/Warnings/Alerts)</text></g><?plantuml-src fLTHRziW47xdLw3q8Tj3LAcFrZIfwzffMxfETRLMMlP0RUAoO8Y0RAcc_VSTO1jm7JlIyb2Pu_lkZhlZZkeD4rkYI8rBkYOxRkxetfnpLecQ2eCB-4CLGdFTuHv9iQcKt8coa5mgR1GH6hO0YUQShWqs4YjMFHbSCaKBmwH0o7uGKN6APxbHKjRuWkyqw9vXeh5seaQ2_o24uLSIGnw91iPx-CAvaOewjDrmAtooj7PoGob_ntSKcBZvHVPkoUzPj6D_QsOthjYUblYUbUO9BsNbT2losucT58ID2QjzGCD5_YrcNkXVavI7wsLCUQZvKPHNz1S4UC5bLJ5HlLw9IxlMhHg_cjJqAR_v4bl_fAKuGFex5CeBAJUq78xcb9U5uuuwwctElRvRkgPGL0N5DltUOxgstmFilxvavb-9qbHfrFFRibOYtt9csf9pHTG8yCbxeZOV92-fk9LbdssZjX9UjUF-XB3vvGGJOf8GzpN_FzvPd-YF_P0lx_0LusRWx5-agWbdcjYBk18EUcVlB7SIfr_466_Y1Y0LVH58MaXrG9DFSzaXnlHy52NTGuaSy8SrssCgpWNXpuOL1rIGPdjCnHNW3HLK7T2nRlV7bEG621eiwGDQD03qW-OcqU8JTw-OpTafsMufd1c-riDPT05hge7vRtnoJKksgszKySHUb50kkS8nIuFWup7ChqgMkm9GogQoF72gROEAv6DH-apM6xY2BSkfs5XPPstK9zjSVApQ--1NuomxosAQWVKnl3YbvrMbQ4LWt8Ha1bbFZq-gcqswDyEwThOIlN7MTBN1YTPJieH82T3WyXXgOOBLTB-Ny_DiWdXDKs9DZtCJEX4ucJ_3DA_zHGA1NqumuyW7koxemuOHTFxvvHvI2lSTUniQzGilb5kZu8EYLA38BboExfOa61Jc-kBx2SYUVopUfjCZitM6NhmS9k7jz8s0qMJ9xDX1uOaGeS8OoJ3S39Gy01Onu0mGoKo6smo4n1zGR4Df5QTp8BFGoACMM0uZWrSjS1nsXcramhZ81XnD-OjfGhJzfejOUiMo9Rn4TjiOQXKFDRJK0kuPiAnkKaquOx7TI3e26qRF4U0mOOu0Xzuv14RTWNpqgFZHdj8o_4ZG7Zi8ZSVC0DnNHrl8ldjbBYyePhQOSj6eR44ed3MnsclBcPFuJkBIrWT4JaJT9SEDbQ5YYEsbeojpoqLosXIHdCSt8h058z_-isJabXK8XSHOKF-vxC-_4WCvYuZXLA5NPqw94zXxZq9fHV1eD6ROpKs7ZSGHE6hdMS1svTrlV7xKPBFc1AykbPBmqhadIi0PzEavfyherpE4q3y0?></g></svg>