<?plantuml 1.2026.1?><svg xmlns="http://www.w3.org/2000/svg" xmlns:xlink="http://www.w3.org/1999/xlink" contentStyleType="text/css" data-diagram-type="DESCRIPTION" height="659px" preserveAspectRatio="none" style="width:1595px;height:659px;background:#FFFFFF;" version="1.1" viewBox="0 0 1595 659" width="1595px" zoomAndPan="magnify"><defs/><g><g class="cluster" data-qualified-name="..2" data-source-line="6" id="ent0003"><path d="M32.9655,110.9763 C39.8433,96.6192 47.8942,95.9338 59.0907,106.438 C65.5741,92.4003 74.5432,88.2862 87.3733,99.2617 C96.6811,86.877 108.2233,83 117.5485,99.2433 C125.1945,86.9611 138.2004,87.3418 145.875,99.2097 C157.9031,88.4784 171.2098,89.8908 175.7862,107.1678 C188.9184,94.9918 199.3079,96.574 206.5134,113.4388 C210.1414,112.0996 211.5488,113.9681 211.6033,117.3179 C225.4418,126.9444 226.6233,135.9787 211.5521,145.5528 C222.2142,154.6416 222.7969,164.6281 210.0903,172.4468 C221.7159,180.6784 223.0122,189.4744 211.2393,198.729 C224.9105,204.9224 228.541,216.349 214.6442,225.9861 C228.6436,234.1935 229.4567,249.1131 214.9001,257.5519 C228.4658,264.2825 229.2509,274.4073 217.045,283.286 C230.7359,291.0447 231.2026,302.1384 219.5172,312.0761 C232.0021,324.1294 229.3045,334.2048 215.0461,342.3021 C230.6509,348.2014 229.9807,362.2852 217.5357,370.6481 C228.103,380.6874 227.7461,389.2498 213.788,395.6065 C225.2766,406.1488 226.5852,415.2486 212.6096,424.7618 C227.2603,435.0034 226.4276,445.0968 212.0817,454.8294 C223.1407,464.0342 221.5895,473.996 208.5573,479.8005 C222.7754,495.1961 218.4435,506.9554 199.5134,513.4388 C202.4886,512.7801 203.293,514.2754 202.968,516.9055 C195.4193,534.0158 182.4521,533.8671 172.6681,519.0252 C165.5829,533.8341 152.4496,533.6307 142.864,521.8252 C134.2522,533.0642 124.3164,536.131 115.2845,522.2871 C105.9296,534.7367 97.5345,532.7246 88.79,521.6011 C79.3063,533.7589 67.3152,529.8363 61.5197,517.4955 C42.3966,534.5614 29.2162,530.6948 21.5134,506.4388 C23.5872,507.7003 23.4467,508.9332 21.5288,510.2111 C8.5857,501.1462 9.1194,489.7614 23.3288,482.4575 C11.4605,473.6426 8.1279,464.5224 21.9778,454.4662 C7.9414,444.3052 9.169,431.4862 25.7431,425.2734 C13.4618,418.7288 10.9351,406.2543 22.7521,397.1471 C6.6041,387.578 6,376.4144 22.6063,366.6885 C9.499,359.6322 12.1675,350.3556 21.6552,342.414 C6.4718,333.2001 7.5112,317.9165 23.1166,310.0947 C10.1664,301.6593 8.6176,291.8324 22.8998,283.1777 C9.6523,274.165 10.9371,264.9434 24.7961,257.9698 C10.6466,248.5403 7.3486,236.9284 23.6675,226.4092 C10.2652,217.7296 9.2645,209.1297 22.1033,198.955 C9.2638,191.035 10.3671,179.615 22.2012,171.7839 C10.1933,162.1504 8.6742,154.0337 23.4451,145.6762 C8.5883,133.1497 11.4237,114.8389 28.5134,106.4388 C32.3795,105.431 33.9308,107.2434 32.9655,110.9763" fill="#F0FFFF" style="stroke:#181818;stroke-width:1;"/></g><g class="cluster" data-qualified-name="..10" data-source-line="19" id="ent0011"><path d="M492.9655,33.9763 C499.8433,19.6192 507.8942,18.9338 519.0907,29.438 C525.5741,15.4003 534.5432,11.2862 547.3733,22.2617 C556.6811,9.877 568.2233,6 577.5485,22.2433 C585.1945,9.9611 598.2004,10.3418 605.875,22.2097 C617.9031,11.4784 631.2098,12.8908 635.7862,30.1678 C648.9184,17.9918 659.3079,19.574 666.5134,36.4388 C670.1414,35.0996 671.5488,36.9681 671.6033,40.3179 C685.4418,49.9444 686.6233,58.9787 671.5521,68.5528 C682.2142,77.6416 682.7969,87.6281 670.0903,95.4468 C681.7159,103.6784 683.0122,112.4744 671.2393,121.729 C684.9105,127.9224 688.541,139.349 674.6442,148.9861 C688.6436,157.1935 689.4567,172.1131 674.9001,180.5519 C688.4658,187.2825 689.2509,197.4073 677.045,206.286 C690.7359,214.0447 691.2026,225.1384 679.5172,235.0761 C692.0021,247.1294 689.3045,257.2048 675.0461,265.3021 C690.6509,271.2014 689.9807,285.2852 677.5357,293.6481 C688.103,303.6874 687.7461,312.2498 673.788,318.6065 C685.2766,329.1488 686.5852,338.2486 672.6096,347.7618 C687.2603,358.0034 686.4276,368.0968 672.0817,377.8294 C683.1407,387.0342 681.5895,396.996 668.5573,402.8005 C682.7754,418.1961 678.4435,429.9554 659.5134,436.4388 C662.4886,435.7801 663.293,437.2754 662.968,439.9055 C655.4193,457.0158 642.4521,456.8671 632.6681,442.0252 C625.5829,456.8341 612.4496,456.6307 602.864,444.8252 C594.2522,456.0642 584.3164,459.131 575.2845,445.2871 C565.9296,457.7367 557.5345,455.7246 548.79,444.6011 C539.3063,456.7589 527.3152,452.8363 521.5197,440.4955 C502.3966,457.5614 489.2162,453.6948 481.5134,429.4388 C483.5872,430.7003 483.4467,431.9332 481.5288,433.2111 C468.5857,424.1462 469.1194,412.7614 483.3288,405.4575 C471.4605,396.6426 468.1279,387.5224 481.9778,377.4662 C467.9414,367.3052 469.169,354.4862 485.7431,348.2734 C473.4618,341.7288 470.9351,329.2543 482.7521,320.1471 C466.6041,310.578 466,299.4144 482.6063,289.6885 C469.499,282.6322 472.1675,273.3556 481.6552,265.414 C466.4718,256.2001 467.5112,240.9165 483.1166,233.0947 C470.1664,224.6593 468.6176,214.8324 482.8998,206.1777 C469.6523,197.165 470.9371,187.9434 484.7961,180.9698 C470.6466,171.5403 467.3486,159.9284 483.6675,149.4092 C470.2652,140.7296 469.2645,132.1297 482.1033,121.955 C469.2638,114.035 470.3671,102.615 482.2012,94.7839 C470.1933,85.1504 468.6742,77.0337 483.4451,68.6762 C468.5883,56.1497 471.4237,37.8389 488.5134,29.4388 C492.3795,28.431 493.9308,30.2434 492.9655,33.9763" fill="#F0FFFF" style="stroke:#181818;stroke-width:1;"/></g><!--cluster stroom--><g class="cluster" data-qualified-name="stroom" data-source-line="28" id="ent0018"><rect fill="#F5F5F5" height="502" rx="2.5" ry="2.5" style="stroke:#181818;stroke-width:1;" width="851" x="738.5134" y="7.4388"/><text fill="#000000" font-family="sans-serif" font-size="14" font-weight="bold" lengthAdjust="spacing" textLength="99.5859" x="1114.2204" y="22.4339">Stroom cluster</text></g><!--cluster stroomProxyLocal--><g class="cluster" data-qualified-name="stroom.stroomProxyLocal" data-source-line="29" id="ent0019"><rect fill="#F5F5F5" height="168" rx="2.5" ry="2.5" style="stroke:#181818;stroke-width:1;" width="145" x="762.5134" y="215.4388"/><text fill="#000000" font-family="sans-serif" font-size="14" font-weight="bold" lengthAdjust="spacing" textLength="129.6777" x="770.1745" y="230.4339">Local Stroom Proxy</text></g><!--cluster stroomProxyRemote--><g class="cluster" data-qualified-name="stroomProxyRemote" data-source-line="46" id="ent0031"><rect fill="#F5F5F5" height="239" rx="2.5" ry="2.5" style="stroke:#181818;stroke-width:1;" width="162" x="278.5134" y="275.4388"/><text fill="#000000" font-family="sans-serif" font-size="14" font-weight="bold" lengthAdjust="spacing" textLength="146.959" x="286.0339" y="290.4339">Remote Stroom Proxy</text></g><!--entity rawFixedWidthLog--><g class="entity" data-qualified-name="..2.rawFixedWidthLog" data-source-line="7" id="ent0004"><path d="M54.0134,116.9388 L54.0134,148.2357 A2.5,2.5 0 0 0 56.5134,150.7357 L171.3796,150.7357 A2.5,2.5 0 0 0 173.8796,148.2357 L173.8796,124.4388 L163.8796,114.4388 L56.5134,114.4388 A2.5,2.5 0 0 0 54.0134,116.9388" fill="#ADD8E6" style="stroke:#181818;stroke-width:0.5;"/><path d="M163.8796,114.4388 L163.8796,121.9388 A2.5,2.5 0 0 0 166.3796,124.4388 L173.8796,124.4388" fill="#ADD8E6" style="stroke:#181818;stroke-width:0.5;"/><text fill="#000000" font-family="sans-serif" font-size="14" lengthAdjust="spacing" textLength="99.8662" x="64.0134" y="137.4339">Fixed Width Log</text></g><!--entity rawCsvLog--><g class="entity" data-qualified-name="..2.rawCsvLog" data-source-line="8" id="ent0005"><path d="M79.0134,187.9388 L79.0134,219.2357 A2.5,2.5 0 0 0 81.5134,221.7357 L146.0192,221.7357 A2.5,2.5 0 0 0 148.5192,219.2357 L148.5192,195.4388 L138.5192,185.4388 L81.5134,185.4388 A2.5,2.5 0 0 0 79.0134,187.9388" fill="#ADD8E6" style="stroke:#181818;stroke-width:0.5;"/><path d="M138.5192,185.4388 L138.5192,192.9388 A2.5,2.5 0 0 0 141.0192,195.4388 L148.5192,195.4388" fill="#ADD8E6" style="stroke:#181818;stroke-width:0.5;"/><text fill="#000000" font-family="sans-serif" font-size="14" lengthAdjust="spacing" textLength="49.5059" x="89.0134" y="208.4339">CSV Log</text></g><!--entity rawJsonLog--><g class="entity" data-qualified-name="..2.rawJsonLog" data-source-line="9" id="ent0006"><path d="M75.0134,258.9388 L75.0134,290.2357 A2.5,2.5 0 0 0 77.5134,292.7357 L150.0173,292.7357 A2.5,2.5 0 0 0 152.5173,290.2357 L152.5173,266.4388 L142.5173,256.4388 L77.5134,256.4388 A2.5,2.5 0 0 0 75.0134,258.9388" fill="#ADD8E6" style="stroke:#181818;stroke-width:0.5;"/><path d="M142.5173,256.4388 L142.5173,263.9388 A2.5,2.5 0 0 0 145.0173,266.4388 L152.5173,266.4388" fill="#ADD8E6" style="stroke:#181818;stroke-width:0.5;"/><text fill="#000000" font-family="sans-serif" font-size="14" lengthAdjust="spacing" textLength="57.5039" x="85.0134" y="279.4339">JSON Log</text></g><!--entity rawXmlLog--><g class="entity" data-qualified-name="..2.rawXmlLog" data-source-line="10" id="ent0007"><path d="M77.5134,329.9388 L77.5134,361.2357 A2.5,2.5 0 0 0 80.0134,363.7357 L147.5749,363.7357 A2.5,2.5 0 0 0 150.0749,361.2357 L150.0749,337.4388 L140.0749,327.4388 L80.0134,327.4388 A2.5,2.5 0 0 0 77.5134,329.9388" fill="#ADD8E6" style="stroke:#181818;stroke-width:0.5;"/><path d="M140.0749,327.4388 L140.0749,334.9388 A2.5,2.5 0 0 0 142.5749,337.4388 L150.0749,337.4388" fill="#ADD8E6" style="stroke:#181818;stroke-width:0.5;"/><text fill="#000000" font-family="sans-serif" font-size="14" lengthAdjust="spacing" textLength="52.5615" x="87.5134" y="350.4339">XML Log</text></g><!--entity rawEventsLog--><g class="entity" data-qualified-name="..2.rawEventsLog" data-source-line="11" id="ent0008"><path d="M29.5134,400.9388 L29.5134,432.2357 A2.5,2.5 0 0 0 32.0134,434.7357 L196.1462,434.7357 A2.5,2.5 0 0 0 198.6462,432.2357 L198.6462,408.4388 L188.6462,398.4388 L32.0134,398.4388 A2.5,2.5 0 0 0 29.5134,400.9388" fill="#ADD8E6" style="stroke:#181818;stroke-width:0.5;"/><path d="M188.6462,398.4388 L188.6462,405.9388 A2.5,2.5 0 0 0 191.1462,408.4388 L198.6462,408.4388" fill="#ADD8E6" style="stroke:#181818;stroke-width:0.5;"/><text fill="#000000" font-family="sans-serif" font-size="14" lengthAdjust="spacing" textLength="149.1328" x="39.5134" y="421.4339">XML (event-logging) Log</text></g><!--entity refDataLog--><g class="entity" data-qualified-name="..2.refDataLog" data-source-line="12" id="ent0009"><path d="M56.0134,471.9388 L56.0134,503.2357 A2.5,2.5 0 0 0 58.5134,505.7357 L169.4762,505.7357 A2.5,2.5 0 0 0 171.9762,503.2357 L171.9762,479.4388 L161.9762,469.4388 L58.5134,469.4388 A2.5,2.5 0 0 0 56.0134,471.9388" fill="#ADD8E6" style="stroke:#181818;stroke-width:0.5;"/><path d="M161.9762,469.4388 L161.9762,476.9388 A2.5,2.5 0 0 0 164.4762,479.4388 L171.9762,479.4388" fill="#ADD8E6" style="stroke:#181818;stroke-width:0.5;"/><text fill="#000000" font-family="sans-serif" font-size="14" lengthAdjust="spacing" textLength="95.9629" x="66.0134" y="492.4339">Reference Data</text></g><!--entity rawFixedWidthLog2--><g class="entity" data-qualified-name="..10.rawFixedWidthLog2" data-source-line="20" id="ent0012"><path d="M514.0134,39.9388 L514.0134,71.2357 A2.5,2.5 0 0 0 516.5134,73.7357 L631.3796,73.7357 A2.5,2.5 0 0 0 633.8796,71.2357 L633.8796,47.4388 L623.8796,37.4388 L516.5134,37.4388 A2.5,2.5 0 0 0 514.0134,39.9388" fill="#ADD8E6" style="stroke:#181818;stroke-width:0.5;"/><path d="M623.8796,37.4388 L623.8796,44.9388 A2.5,2.5 0 0 0 626.3796,47.4388 L633.8796,47.4388" fill="#ADD8E6" style="stroke:#181818;stroke-width:0.5;"/><text fill="#000000" font-family="sans-serif" font-size="14" lengthAdjust="spacing" textLength="99.8662" x="524.0134" y="60.4339">Fixed Width Log</text></g><!--entity rawCsvLog2--><g class="entity" data-qualified-name="..10.rawCsvLog2" data-source-line="21" id="ent0013"><path d="M539.0134,110.9388 L539.0134,142.2357 A2.5,2.5 0 0 0 541.5134,144.7357 L606.0192,144.7357 A2.5,2.5 0 0 0 608.5192,142.2357 L608.5192,118.4388 L598.5192,108.4388 L541.5134,108.4388 A2.5,2.5 0 0 0 539.0134,110.9388" fill="#ADD8E6" style="stroke:#181818;stroke-width:0.5;"/><path d="M598.5192,108.4388 L598.5192,115.9388 A2.5,2.5 0 0 0 601.0192,118.4388 L608.5192,118.4388" fill="#ADD8E6" style="stroke:#181818;stroke-width:0.5;"/><text fill="#000000" font-family="sans-serif" font-size="14" lengthAdjust="spacing" textLength="49.5059" x="549.0134" y="131.4339">CSV Log</text></g><!--entity rawJsonLog2--><g class="entity" data-qualified-name="..10.rawJsonLog2" data-source-line="22" id="ent0014"><path d="M535.0134,181.9388 L535.0134,213.2357 A2.5,2.5 0 0 0 537.5134,215.7357 L610.0173,215.7357 A2.5,2.5 0 0 0 612.5173,213.2357 L612.5173,189.4388 L602.5173,179.4388 L537.5134,179.4388 A2.5,2.5 0 0 0 535.0134,181.9388" fill="#ADD8E6" style="stroke:#181818;stroke-width:0.5;"/><path d="M602.5173,179.4388 L602.5173,186.9388 A2.5,2.5 0 0 0 605.0173,189.4388 L612.5173,189.4388" fill="#ADD8E6" style="stroke:#181818;stroke-width:0.5;"/><text fill="#000000" font-family="sans-serif" font-size="14" lengthAdjust="spacing" textLength="57.5039" x="545.0134" y="202.4339">JSON Log</text></g><!--entity rawXmlLog2--><g class="entity" data-qualified-name="..10.rawXmlLog2" data-source-line="23" id="ent0015"><path d="M537.5134,252.9388 L537.5134,284.2357 A2.5,2.5 0 0 0 540.0134,286.7357 L607.5749,286.7357 A2.5,2.5 0 0 0 610.0749,284.2357 L610.0749,260.4388 L600.0749,250.4388 L540.0134,250.4388 A2.5,2.5 0 0 0 537.5134,252.9388" fill="#ADD8E6" style="stroke:#181818;stroke-width:0.5;"/><path d="M600.0749,250.4388 L600.0749,257.9388 A2.5,2.5 0 0 0 602.5749,260.4388 L610.0749,260.4388" fill="#ADD8E6" style="stroke:#181818;stroke-width:0.5;"/><text fill="#000000" font-family="sans-serif" font-size="14" lengthAdjust="spacing" textLength="52.5615" x="547.5134" y="273.4339">XML Log</text></g><!--entity rawEventsLog2--><g class="entity" data-qualified-name="..10.rawEventsLog2" data-source-line="24" id="ent0016"><path d="M489.5134,323.9388 L489.5134,355.2357 A2.5,2.5 0 0 0 492.0134,357.7357 L656.1462,357.7357 A2.5,2.5 0 0 0 658.6462,355.2357 L658.6462,331.4388 L648.6462,321.4388 L492.0134,321.4388 A2.5,2.5 0 0 0 489.5134,323.9388" fill="#ADD8E6" style="stroke:#181818;stroke-width:0.5;"/><path d="M648.6462,321.4388 L648.6462,328.9388 A2.5,2.5 0 0 0 651.1462,331.4388 L658.6462,331.4388" fill="#ADD8E6" style="stroke:#181818;stroke-width:0.5;"/><text fill="#000000" font-family="sans-serif" font-size="14" lengthAdjust="spacing" textLength="149.1328" x="499.5134" y="344.4339">XML (event-logging) Log</text></g><!--entity refDataLog2--><g class="entity" data-qualified-name="..10.refDataLog2" data-source-line="25" id="ent0017"><path d="M516.0134,394.9388 L516.0134,426.2357 A2.5,2.5 0 0 0 518.5134,428.7357 L629.4762,428.7357 A2.5,2.5 0 0 0 631.9762,426.2357 L631.9762,402.4388 L621.9762,392.4388 L518.5134,392.4388 A2.5,2.5 0 0 0 516.0134,394.9388" fill="#ADD8E6" style="stroke:#181818;stroke-width:0.5;"/><path d="M621.9762,392.4388 L621.9762,399.9388 A2.5,2.5 0 0 0 624.4762,402.4388 L631.9762,402.4388" fill="#ADD8E6" style="stroke:#181818;stroke-width:0.5;"/><text fill="#000000" font-family="sans-serif" font-size="14" lengthAdjust="spacing" textLength="95.9629" x="526.0134" y="415.4339">Reference Data</text></g><!--entity ui--><g class="entity" data-qualified-name="stroom.ui" data-source-line="34" id="ent0022"><rect fill="#FF8C00" height="36.2969" rx="2.5" ry="2.5" style="stroke:#181818;stroke-width:0.5;" width="109.626" x="1195.0134" y="269.4388"/><text fill="#000000" font-family="sans-serif" font-size="14" lengthAdjust="spacing" textLength="89.626" x="1205.0134" y="292.4339">User Interface</text></g><!--entity dataStore--><g class="entity" data-qualified-name="stroom.dataStore" data-source-line="35" id="ent0023"><path d="M954.5134,323.4388 C954.5134,313.4388 1014.8019,313.4388 1014.8019,313.4388 C1014.8019,313.4388 1075.0905,313.4388 1075.0905,323.4388 L1075.0905,365.0325 C1075.0905,375.0325 1014.8019,375.0325 1014.8019,375.0325 C1014.8019,375.0325 954.5134,375.0325 954.5134,365.0325 L954.5134,323.4388" fill="#FF8C00" style="stroke:#181818;stroke-width:0.5;"/><path d="M954.5134,323.4388 C954.5134,333.4388 1014.8019,333.4388 1014.8019,333.4388 C1014.8019,333.4388 1075.0905,333.4388 1075.0905,323.4388" fill="none" style="stroke:#181818;stroke-width:0.5;"/><text fill="#000000" font-family="sans-serif" font-size="14" lengthAdjust="spacing" textLength="65.9873" x="981.8083" y="350.4339">Data Store</text><text fill="#000000" font-family="sans-serif" font-size="14" lengthAdjust="spacing" textLength="96.9404" x="968.1501" y="366.7308">(Raw &amp; cooked)</text></g><!--entity index--><g class="entity" data-qualified-name="stroom.index" data-source-line="36" id="ent0024"><path d="M1463.5134,191.9388 C1463.5134,181.9388 1515.5885,181.9388 1515.5885,181.9388 C1515.5885,181.9388 1567.6637,181.9388 1567.6637,191.9388 L1567.6637,217.2357 C1567.6637,227.2357 1515.5885,227.2357 1515.5885,227.2357 C1515.5885,227.2357 1463.5134,227.2357 1463.5134,217.2357 L1463.5134,191.9388" fill="#FF8C00" style="stroke:#181818;stroke-width:0.5;"/><path d="M1463.5134,191.9388 C1463.5134,201.9388 1515.5885,201.9388 1515.5885,201.9388 C1515.5885,201.9388 1567.6637,201.9388 1567.6637,191.9388" fill="none" style="stroke:#181818;stroke-width:0.5;"/><text fill="#000000" font-family="sans-serif" font-size="14" lengthAdjust="spacing" textLength="84.1504" x="1473.5134" y="218.9339">Lucene Index</text></g><!--entity metaStore--><g class="entity" data-qualified-name="stroom.metaStore" data-source-line="37" id="ent0025"><path d="M1471.0134,106.9388 C1471.0134,96.9388 1515.34,96.9388 1515.34,96.9388 C1515.34,96.9388 1559.6667,96.9388 1559.6667,106.9388 L1559.6667,132.2357 C1559.6667,142.2357 1515.34,142.2357 1515.34,142.2357 C1515.34,142.2357 1471.0134,142.2357 1471.0134,132.2357 L1471.0134,106.9388" fill="#FF8C00" style="stroke:#181818;stroke-width:0.5;"/><path d="M1471.0134,106.9388 C1471.0134,116.9388 1515.34,116.9388 1515.34,116.9388 C1515.34,116.9388 1559.6667,116.9388 1559.6667,106.9388" fill="none" style="stroke:#181818;stroke-width:0.5;"/><text fill="#000000" font-family="sans-serif" font-size="14" lengthAdjust="spacing" textLength="68.6533" x="1481.0134" y="133.9339">Meta Store</text></g><!--entity streamProcessor--><g class="entity" data-qualified-name="stroom.streamProcessor" data-source-line="38" id="ent0026"><rect fill="#FF8C00" height="36.2969" rx="2.5" ry="2.5" style="stroke:#181818;stroke-width:0.5;" width="130.7012" x="1184.5134" y="370.4388"/><text fill="#000000" font-family="sans-serif" font-size="14" lengthAdjust="spacing" textLength="110.7012" x="1194.5134" y="393.4339">Stream Processor</text></g><!--entity refDataStore--><g class="entity" data-qualified-name="stroom.refDataStore" data-source-line="39" id="ent0027"><path d="M1457.5134,428.9388 C1457.5134,418.9388 1515.4948,418.9388 1515.4948,418.9388 C1515.4948,418.9388 1573.4762,418.9388 1573.4762,428.9388 L1573.4762,454.2357 C1573.4762,464.2357 1515.4948,464.2357 1515.4948,464.2357 C1515.4948,464.2357 1457.5134,464.2357 1457.5134,454.2357 L1457.5134,428.9388" fill="#FF8C00" style="stroke:#181818;stroke-width:0.5;"/><path d="M1457.5134,428.9388 C1457.5134,438.9388 1515.4948,438.9388 1515.4948,438.9388 C1515.4948,438.9388 1573.4762,438.9388 1573.4762,428.9388" fill="none" style="stroke:#181818;stroke-width:0.5;"/><text fill="#000000" font-family="sans-serif" font-size="14" lengthAdjust="spacing" textLength="95.9629" x="1467.5134" y="455.9339">Reference Data</text></g><!--entity statsStore--><g class="entity" data-qualified-name="stroom.statsStore" data-source-line="40" id="ent0028"><path d="M1459.5134,328.9388 C1459.5134,318.9388 1515.5602,318.9388 1515.5602,318.9388 C1515.5602,318.9388 1571.6071,318.9388 1571.6071,328.9388 L1571.6071,354.2357 C1571.6071,364.2357 1515.5602,364.2357 1515.5602,364.2357 C1515.5602,364.2357 1459.5134,364.2357 1459.5134,354.2357 L1459.5134,328.9388" fill="#FF8C00" style="stroke:#181818;stroke-width:0.5;"/><path d="M1459.5134,328.9388 C1459.5134,338.9388 1515.5602,338.9388 1515.5602,338.9388 C1515.5602,338.9388 1571.6071,338.9388 1571.6071,328.9388" fill="none" style="stroke:#181818;stroke-width:0.5;"/><text fill="#000000" font-family="sans-serif" font-size="14" lengthAdjust="spacing" textLength="92.0938" x="1469.5134" y="355.9339">Statistics Store</text></g><!--entity proxyAggregator--><g class="entity" data-qualified-name="stroom.stroomProxyLocal.proxyAggregator" data-source-line="30" id="ent0020"><rect fill="#20B2AA" height="36.2969" rx="2.5" ry="2.5" style="stroke:#181818;stroke-width:0.5;" width="89.1865" x="790.5134" y="250.4388"/><text fill="#000000" font-family="sans-serif" font-size="14" lengthAdjust="spacing" textLength="69.1865" x="800.5134" y="273.4339">Aggregator</text></g><!--entity proxyRepo--><g class="entity" data-qualified-name="stroom.stroomProxyLocal.proxyRepo" data-source-line="31" id="ent0021"><path d="M791.5134,331.9388 C791.5134,321.9388 835.1257,321.9388 835.1257,321.9388 C835.1257,321.9388 878.738,321.9388 878.738,331.9388 L878.738,357.2357 C878.738,367.2357 835.1257,367.2357 835.1257,367.2357 C835.1257,367.2357 791.5134,367.2357 791.5134,357.2357 L791.5134,331.9388" fill="#20B2AA" style="stroke:#181818;stroke-width:0.5;"/><path d="M791.5134,331.9388 C791.5134,341.9388 835.1257,341.9388 835.1257,341.9388 C835.1257,341.9388 878.738,341.9388 878.738,331.9388" fill="none" style="stroke:#181818;stroke-width:0.5;"/><text fill="#000000" font-family="sans-serif" font-size="14" lengthAdjust="spacing" textLength="67.2246" x="801.5134" y="358.9339">Repository</text></g><!--entity proxyAggregatorRemote--><g class="entity" data-qualified-name="stroomProxyRemote.proxyAggregatorRemote" data-source-line="47" id="ent0032"><rect fill="#20B2AA" height="36.2969" rx="2.5" ry="2.5" style="stroke:#181818;stroke-width:0.5;" width="89.1865" x="314.5134" y="310.4388"/><text fill="#000000" font-family="sans-serif" font-size="14" lengthAdjust="spacing" textLength="69.1865" x="324.5134" y="333.4339">Aggregator</text></g><!--entity proxyForwarderRemote--><g class="entity" data-qualified-name="stroomProxyRemote.proxyForwarderRemote" data-source-line="48" id="ent0033"><rect fill="#20B2AA" height="36.2969" rx="2.5" ry="2.5" style="stroke:#181818;stroke-width:0.5;" width="85.2832" x="316.5134" y="462.4388"/><text fill="#000000" font-family="sans-serif" font-size="14" lengthAdjust="spacing" textLength="65.2832" x="326.5134" y="485.4339">Forwarder</text></g><!--entity proxyRepoRemote--><g class="entity" data-qualified-name="stroomProxyRemote.proxyRepoRemote" data-source-line="49" id="ent0034"><path d="M315.5134,391.9388 C315.5134,381.9388 359.1257,381.9388 359.1257,381.9388 C359.1257,381.9388 402.738,381.9388 402.738,391.9388 L402.738,417.2357 C402.738,427.2357 359.1257,427.2357 359.1257,427.2357 C359.1257,427.2357 315.5134,427.2357 315.5134,417.2357 L315.5134,391.9388" fill="#20B2AA" style="stroke:#181818;stroke-width:0.5;"/><path d="M315.5134,391.9388 C315.5134,401.9388 359.1257,401.9388 359.1257,401.9388 C359.1257,401.9388 402.738,401.9388 402.738,391.9388" fill="none" style="stroke:#181818;stroke-width:0.5;"/><text fill="#000000" font-family="sans-serif" font-size="14" lengthAdjust="spacing" textLength="67.2246" x="325.5134" y="418.9339">Repository</text></g><!--entity kafka--><g class="entity" data-qualified-name="kafka" data-source-line="43" id="ent0029"><rect fill="#90EE90" height="36.2969" rx="2.5" ry="2.5" style="stroke:#181818;stroke-width:0.5;" width="54.5215" x="1222.5134" y="525.4388"/><text fill="#000000" font-family="sans-serif" font-size="14" lengthAdjust="spacing" textLength="34.5215" x="1232.5134" y="548.4339">Kafka</text></g><!--entity solr--><g class="entity" data-qualified-name="solr" data-source-line="44" id="ent0030"><path d="M1227.5134,606.9388 C1227.5134,596.9388 1249.7907,596.9388 1249.7907,596.9388 C1249.7907,596.9388 1272.068,596.9388 1272.068,606.9388 L1272.068,632.2357 C1272.068,642.2357 1249.7907,642.2357 1249.7907,642.2357 C1249.7907,642.2357 1227.5134,642.2357 1227.5134,632.2357 L1227.5134,606.9388" fill="#90EE90" style="stroke:#181818;stroke-width:0.5;"/><path d="M1227.5134,606.9388 C1227.5134,616.9388 1249.7907,616.9388 1249.7907,616.9388 C1249.7907,616.9388 1272.068,616.9388 1272.068,606.9388" fill="none" style="stroke:#181818;stroke-width:0.5;"/><text fill="#000000" font-family="sans-serif" font-size="14" lengthAdjust="spacing" textLength="24.5547" x="1237.5134" y="633.9339">Solr</text></g><!--reverse link proxyRepoRemote to proxyAggregatorRemote--><g class="link" data-entity-1="ent0034" data-entity-2="ent0032" data-link-type="dependency" data-source-line="52" id="lnk36"><path d="M359.0134,375.8788 C359.0134,364.1888 359.0134,358.4988 359.0134,346.8088" fill="none" id="proxyRepoRemote-backto-proxyAggregatorRemote" style="stroke:#181818;stroke-width:1;"/><polygon fill="#181818" points="359.0134,381.8788,363.0134,372.8788,359.0134,376.8788,355.0134,372.8788,359.0134,381.8788" style="stroke:#181818;stroke-width:1;"/></g><!--reverse link proxyForwarderRemote to proxyRepoRemote--><g class="link" data-entity-1="ent0033" data-entity-2="ent0034" data-link-type="dependency" data-source-line="53" id="lnk38"><path d="M359.0134,456.3288 C359.0134,444.5688 359.0134,438.8088 359.0134,427.0488" fill="none" id="proxyForwarderRemote-backto-proxyRepoRemote" style="stroke:#181818;stroke-width:1;"/><polygon fill="#181818" points="359.0134,462.3288,363.0134,453.3288,359.0134,457.3288,355.0134,453.3288,359.0134,462.3288" style="stroke:#181818;stroke-width:1;"/></g><!--link rawFixedWidthLog to proxyAggregatorRemote--><g class="link" data-entity-1="ent0004" data-entity-2="ent0032" data-link-type="dependency" data-source-line="56" id="lnk39"><path d="M174.0734,145.2288 C190.6234,150.4688 208.0234,157.6788 222.5134,167.4388 C280.5334,206.5388 324.4709,272.0931 344.4909,305.2331" fill="none" id="rawFixedWidthLog-to-proxyAggregatorRemote" style="stroke:#181818;stroke-width:1;"/><polygon fill="#181818" points="347.5934,310.3688,346.3634,300.597,345.008,306.0891,339.5159,304.7336,347.5934,310.3688" style="stroke:#181818;stroke-width:1;"/><text fill="#000000" font-family="sans-serif" font-size="13" lengthAdjust="spacing" textLength="30.6338" x="231.5134" y="170.5057">POST</text></g><!--link rawCsvLog to proxyAggregatorRemote--><g class="link" data-entity-1="ent0005" data-entity-2="ent0032" data-link-type="dependency" data-source-line="57" id="lnk40"><path d="M149.3434,212.0388 C170.9134,218.0688 199.0134,227.0688 222.5134,238.4388 C264.4634,258.7288 303.8476,286.6167 329.9476,306.4667" fill="none" id="rawCsvLog-to-proxyAggregatorRemote" style="stroke:#181818;stroke-width:1;"/><polygon fill="#181818" points="334.7234,310.0988,329.9812,301.4668,330.7436,307.072,325.1383,307.8344,334.7234,310.0988" style="stroke:#181818;stroke-width:1;"/><text fill="#000000" font-family="sans-serif" font-size="13" lengthAdjust="spacing" textLength="30.6338" x="231.5134" y="240.5057">POST</text></g><!--link rawXmlLog to proxyAggregatorRemote--><g class="link" data-entity-1="ent0007" data-entity-2="ent0032" data-link-type="dependency" data-source-line="58" id="lnk41"><path d="M150.5134,344.3188 C180.4134,343.2388 224.2934,341.3488 262.5134,338.4388 C279.4634,337.1488 292.1082,335.9448 308.3582,334.1848" fill="none" id="rawXmlLog-to-proxyAggregatorRemote" style="stroke:#181818;stroke-width:1;"/><polygon fill="#181818" points="314.3234,333.5388,304.945,330.5311,309.3524,334.0772,305.8064,338.4846,314.3234,333.5388" style="stroke:#181818;stroke-width:1;"/><text fill="#000000" font-family="sans-serif" font-size="13" lengthAdjust="spacing" textLength="30.6338" x="231.5134" y="334.5057">POST</text></g><!--link rawEventsLog to proxyAggregatorRemote--><g class="link" data-entity-1="ent0008" data-entity-2="ent0032" data-link-type="dependency" data-source-line="59" id="lnk42"><path d="M170.1034,398.4088 C186.9634,392.7788 205.5434,386.4588 222.5134,380.4388 C240.4034,374.0888 244.7734,372.1988 262.5134,365.4388 C279.4634,358.9788 292.4691,353.9576 308.7191,347.6576" fill="none" id="rawEventsLog-to-proxyAggregatorRemote" style="stroke:#181818;stroke-width:1;"/><polygon fill="#181818" points="314.3134,345.4888,304.476,345.0125,309.6514,347.2962,307.3678,352.4716,314.3134,345.4888" style="stroke:#181818;stroke-width:1;"/><text fill="#000000" font-family="sans-serif" font-size="13" lengthAdjust="spacing" textLength="30.6338" x="231.5134" y="361.5057">POST</text></g><!--link rawJsonLog to proxyAggregatorRemote--><g class="link" data-entity-1="ent0006" data-entity-2="ent0032" data-link-type="dependency" data-source-line="60" id="lnk43"><path d="M153.2534,282.9388 C196.9534,292.6488 262.496,307.2184 308.396,317.4084" fill="none" id="rawJsonLog-to-proxyAggregatorRemote" style="stroke:#181818;stroke-width:1;"/><polygon fill="#181818" points="314.2534,318.7088,306.3342,312.8533,309.3722,317.6251,304.6004,320.6632,314.2534,318.7088" style="stroke:#181818;stroke-width:1;"/><text fill="#000000" font-family="sans-serif" font-size="13" lengthAdjust="spacing" textLength="30.6338" x="231.5134" y="297.5057">POST</text></g><!--link refDataLog to proxyAggregatorRemote--><g class="link" data-entity-1="ent0009" data-entity-2="ent0032" data-link-type="dependency" data-source-line="61" id="lnk44"><path d="M172.2234,474.8088 C189.3434,469.3588 207.5334,461.7888 222.5134,451.4388 C245.6434,435.4588 250.3834,427.7988 262.5134,402.4388 C269.9634,386.8688 259.4734,377.7088 270.5134,364.4388 C281.5434,351.1788 292.5567,344.6523 308.4267,339.3123" fill="none" id="refDataLog-to-proxyAggregatorRemote" style="stroke:#181818;stroke-width:1;"/><polygon fill="#181818" points="314.1134,337.3988,304.3076,336.4779,309.3744,338.9934,306.859,344.0601,314.1134,337.3988" style="stroke:#181818;stroke-width:1;"/><text fill="#000000" font-family="sans-serif" font-size="13" lengthAdjust="spacing" textLength="30.6338" x="231.5134" y="398.5057">POST</text></g><!--link proxyForwarderRemote to proxyAggregator--><g class="link" data-entity-1="ent0033" data-entity-2="ent0020" data-link-type="dependency" data-source-line="62" id="lnk45"><path d="M401.6134,490.3988 C467.4034,503.6388 596.7934,519.1588 682.5134,461.4388 C716.8134,438.3388 711.2134,417.2188 722.5134,377.4388 C726.9734,361.7388 720.3434,317.1988 730.5134,304.4388 C744.9734,286.2888 763.2811,278.4904 784.6411,274.0104" fill="none" id="proxyForwarderRemote-to-proxyAggregator" style="stroke:#181818;stroke-width:1;"/><polygon fill="#181818" points="790.5134,272.7788,780.8839,270.7114,785.6198,273.8051,782.5261,278.541,790.5134,272.7788" style="stroke:#181818;stroke-width:1;"/><text fill="#000000" font-family="sans-serif" font-size="13" lengthAdjust="spacing" textLength="30.6338" x="559.0134" y="457.5057">POST</text></g><!--link rawFixedWidthLog2 to proxyAggregator--><g class="link" data-entity-1="ent0012" data-entity-2="ent0020" data-link-type="dependency" data-source-line="65" id="lnk46"><path d="M634.0434,68.2788 C650.5834,73.5288 668.0034,80.7188 682.5134,90.4388 C748.2634,134.4788 798.6225,209.5843 820.3825,245.3143" fill="none" id="rawFixedWidthLog2-to-proxyAggregator" style="stroke:#181818;stroke-width:1;"/><polygon fill="#181818" points="823.5034,250.4388,822.2384,240.6715,820.9026,246.1684,815.4057,244.8327,823.5034,250.4388" style="stroke:#181818;stroke-width:1;"/><text fill="#000000" font-family="sans-serif" font-size="13" lengthAdjust="spacing" textLength="30.6338" x="691.5134" y="94.5057">POST</text></g><!--link rawCsvLog2 to proxyAggregator--><g class="link" data-entity-1="ent0013" data-entity-2="ent0020" data-link-type="dependency" data-source-line="66" id="lnk47"><path d="M609.4534,134.8088 C631.0734,140.7488 659.1834,149.7388 682.5134,161.4388 C732.5934,186.5588 779.9607,223.1337 808.1307,246.4437" fill="none" id="rawCsvLog2-to-proxyAggregator" style="stroke:#181818;stroke-width:1;"/><polygon fill="#181818" points="812.7534,250.2688,808.3695,241.4494,808.9012,247.0812,803.2694,247.6129,812.7534,250.2688" style="stroke:#181818;stroke-width:1;"/><text fill="#000000" font-family="sans-serif" font-size="13" lengthAdjust="spacing" textLength="30.6338" x="691.5134" y="162.5057">POST</text></g><!--link rawXmlLog2 to proxyAggregator--><g class="link" data-entity-1="ent0015" data-entity-2="ent0020" data-link-type="dependency" data-source-line="67" id="lnk48"><path d="M610.7534,268.4388 C657.6634,268.4388 733.9334,268.4388 784.4334,268.4388" fill="none" id="rawXmlLog2-to-proxyAggregator" style="stroke:#181818;stroke-width:1;"/><polygon fill="#181818" points="790.4334,268.4388,781.4334,264.4388,785.4334,268.4388,781.4334,272.4388,790.4334,268.4388" style="stroke:#181818;stroke-width:1;"/><text fill="#000000" font-family="sans-serif" font-size="13" lengthAdjust="spacing" textLength="30.6338" x="691.5134" y="264.5057">POST</text></g><!--link rawEventsLog2 to proxyAggregator--><g class="link" data-entity-1="ent0016" data-entity-2="ent0020" data-link-type="dependency" data-source-line="68" id="lnk49"><path d="M640.7034,321.4288 C687.6134,308.5688 743.6266,293.2143 784.5766,281.9943" fill="none" id="rawEventsLog2-to-proxyAggregator" style="stroke:#181818;stroke-width:1;"/><polygon fill="#181818" points="790.3634,280.4088,780.6263,278.9292,785.5411,281.73,782.7403,286.6449,790.3634,280.4088" style="stroke:#181818;stroke-width:1;"/><text fill="#000000" font-family="sans-serif" font-size="13" lengthAdjust="spacing" textLength="30.6338" x="691.5134" y="296.5057">POST</text></g><!--link rawJsonLog2 to proxyAggregator--><g class="link" data-entity-1="ent0014" data-entity-2="ent0020" data-link-type="dependency" data-source-line="69" id="lnk50"><path d="M613.2334,207.9188 C660.5134,220.8788 735.027,241.302 784.657,254.912" fill="none" id="rawJsonLog2-to-proxyAggregator" style="stroke:#181818;stroke-width:1;"/><polygon fill="#181818" points="790.4434,256.4988,782.8217,250.261,785.6214,255.1765,780.7059,257.9762,790.4434,256.4988" style="stroke:#181818;stroke-width:1;"/><text fill="#000000" font-family="sans-serif" font-size="13" lengthAdjust="spacing" textLength="30.6338" x="691.5134" y="227.5057">POST</text></g><!--link refDataLog2 to proxyAggregator--><g class="link" data-entity-1="ent0017" data-entity-2="ent0020" data-link-type="dependency" data-source-line="70" id="lnk51"><path d="M632.1034,397.1188 C649.1234,391.6488 667.2934,384.2488 682.5134,374.4388 C704.4534,360.2988 709.5734,354.1088 722.5134,331.4388 C728.7134,320.5688 721.8734,313.4888 730.5134,304.4388 C746.2134,287.9888 763.9622,280.4302 784.6622,275.5702" fill="none" id="refDataLog2-to-proxyAggregator" style="stroke:#181818;stroke-width:1;"/><polygon fill="#181818" points="790.5034,274.1988,780.8273,272.3618,785.6357,275.3416,782.6559,280.15,790.5034,274.1988" style="stroke:#181818;stroke-width:1;"/><text fill="#000000" font-family="sans-serif" font-size="13" lengthAdjust="spacing" textLength="30.6338" x="691.5134" y="327.5057">POST</text></g><!--reverse link proxyRepo to proxyAggregator--><g class="link" data-entity-1="ent0021" data-entity-2="ent0020" data-link-type="dependency" data-source-line="72" id="lnk53"><path d="M835.0134,315.8788 C835.0134,304.1888 835.0134,298.4988 835.0134,286.8088" fill="none" id="proxyRepo-backto-proxyAggregator" style="stroke:#181818;stroke-width:1;"/><polygon fill="#181818" points="835.0134,321.8788,839.0134,312.8788,835.0134,316.8788,831.0134,312.8788,835.0134,321.8788" style="stroke:#181818;stroke-width:1;"/></g><!--link proxyRepo to dataStore--><g class="link" data-entity-1="ent0021" data-entity-2="ent0023" data-link-type="dependency" data-source-line="73" id="lnk54"><path d="M878.6534,344.4388 C901.2734,344.4388 923.4534,344.4388 948.2234,344.4388" fill="none" id="proxyRepo-to-dataStore" style="stroke:#181818;stroke-width:1;"/><polygon fill="#181818" points="954.2234,344.4388,945.2234,340.4388,949.2234,344.4388,945.2234,348.4388,954.2234,344.4388" style="stroke:#181818;stroke-width:1;"/></g><!--reverse link kafka to streamProcessor--><g class="link" data-entity-1="ent0029" data-entity-2="ent0026" data-link-type="dependency" data-source-line="75" id="lnk56"><path d="M1250.0134,519.3588 C1250.0134,489.6488 1250.0134,436.8288 1250.0134,406.8888" fill="none" id="kafka-backto-streamProcessor" style="stroke:#0000FF;stroke-width:1;"/><polygon fill="#0000FF" points="1250.0134,525.3588,1254.0134,516.3588,1250.0134,520.3588,1246.0134,516.3588,1250.0134,525.3588" style="stroke:#0000FF;stroke-width:1;"/><text fill="#000000" font-family="sans-serif" font-size="13" lengthAdjust="spacing" textLength="48.5532" x="1214.5134" y="470.5057">produce</text></g><!--link streamProcessor to solr--><g class="link" data-entity-1="ent0026" data-entity-2="ent0030" data-link-type="dependency" data-source-line="76" id="lnk57"><path d="M1220.9734,406.5788 C1174.8034,437.7688 1093.4234,503.8288 1130.0134,561.9388 C1151.3134,595.7588 1192.7427,608.9378 1221.1827,614.6978" fill="none" id="streamProcessor-to-solr" style="stroke:#0000FF;stroke-width:1;"/><polygon fill="#0000FF" points="1227.0634,615.8888,1219.0365,610.1819,1222.1628,614.8963,1217.4484,618.0227,1227.0634,615.8888" style="stroke:#0000FF;stroke-width:1;"/></g><!--link streamProcessor to dataStore--><g class="link" data-entity-1="ent0026" data-entity-2="ent0023" data-link-type="dependency" data-source-line="77" id="lnk58"><path d="M1184.1434,376.1888 C1150.1834,369.7788 1114.7789,363.0932 1081.6089,356.8232" fill="none" id="streamProcessor-to-dataStore" style="stroke:#0000FF;stroke-width:1;"/><polygon fill="#0000FF" points="1075.7134,355.7088,1083.8138,361.3108,1080.6264,356.6375,1085.2997,353.45,1075.7134,355.7088" style="stroke:#0000FF;stroke-width:1;"/><text fill="#000000" font-family="sans-serif" font-size="13" lengthAdjust="spacing" textLength="30.7988" x="1115.0134" y="359.5057">Store</text></g><!--link dataStore to streamProcessor--><g class="link" data-entity-1="ent0023" data-entity-2="ent0026" data-link-type="dependency" data-source-line="83" id="lnk64"><path d="M1060.0234,375.4888 C1073.9234,383.6188 1089.7834,391.2688 1105.5134,395.4388 C1130.7134,402.1088 1153.2678,402.7098 1178.2278,400.4498" fill="none" id="dataStore-to-streamProcessor" style="stroke:#0000FF;stroke-width:1;"/><polygon fill="#0000FF" points="1184.2034,399.9088,1174.8793,396.7367,1179.2237,400.3597,1175.6007,404.7041,1184.2034,399.9088" style="stroke:#0000FF;stroke-width:1;"/><text fill="#000000" font-family="sans-serif" font-size="13" lengthAdjust="spacing" textLength="47.7217" x="1106.5134" y="391.5057">Retrieve</text></g><!--link streamProcessor to index--><g class="link" data-entity-1="ent0026" data-entity-2="ent0024" data-link-type="dependency" data-source-line="78" id="lnk59"><path d="M1280.8734,370.2088 C1299.2934,359.1688 1323.5234,345.0388 1345.5134,333.4388 C1381.2034,314.6088 1394.7434,317.9888 1427.5134,294.4388 C1454.5134,275.0388 1476.4736,251.2893 1492.8636,231.6093" fill="none" id="streamProcessor-to-index" style="stroke:#0000FF;stroke-width:1;"/><polygon fill="#0000FF" points="1496.7034,226.9988,1487.8701,231.3547,1493.5036,230.8408,1494.0174,236.4743,1496.7034,226.9988" style="stroke:#0000FF;stroke-width:1;"/><text fill="#000000" font-family="sans-serif" font-size="13" lengthAdjust="spacing" textLength="80.8438" x="1346.5134" y="290.5057">Index records</text></g><!--link streamProcessor to refDataStore--><g class="link" data-entity-1="ent0026" data-entity-2="ent0027" data-link-type="dependency" data-source-line="79" id="lnk60"><path d="M1315.8134,401.4688 C1359.0834,410.1788 1409.6112,420.3353 1451.2612,428.7153" fill="none" id="streamProcessor-to-refDataStore" style="stroke:#0000FF;stroke-width:1;"/><polygon fill="#0000FF" points="1457.1434,429.8988,1449.1092,424.2021,1452.2416,428.9125,1447.5312,432.045,1457.1434,429.8988" style="stroke:#0000FF;stroke-width:1;"/><text fill="#000000" font-family="sans-serif" font-size="13" lengthAdjust="spacing" textLength="30.7988" x="1371.5134" y="405.5057">Store</text></g><!--link refDataStore to streamProcessor--><g class="link" data-entity-1="ent0027" data-entity-2="ent0026" data-link-type="dependency" data-source-line="82" id="lnk63"><path d="M1457.4734,452.7588 C1424.1834,457.1688 1381.7534,458.9688 1345.5134,448.4388 C1317.5234,440.2988 1294.564,424.8526 1276.484,410.3526" fill="none" id="refDataStore-to-streamProcessor" style="stroke:#0000FF;stroke-width:1;"/><polygon fill="#0000FF" points="1271.8034,406.5988,1276.3218,415.35,1275.7039,409.727,1281.3269,409.1091,1271.8034,406.5988" style="stroke:#0000FF;stroke-width:1;"/><text fill="#000000" font-family="sans-serif" font-size="13" lengthAdjust="spacing" textLength="43.1133" x="1365.0134" y="444.5057">Lookup</text></g><!--link streamProcessor to metaStore--><g class="link" data-entity-1="ent0026" data-entity-2="ent0025" data-link-type="dependency" data-source-line="80" id="lnk61"><path d="M1273.2934,370.1888 C1287.0634,357.9188 1304.2034,340.6888 1315.5134,322.4388 C1336.8334,288.0288 1320.8934,268.5788 1345.5134,236.4388 C1372.3534,201.3988 1391.2234,205.5488 1427.5134,180.4388 C1445.7134,167.8388 1461.0656,157.1004 1477.4456,145.5804" fill="none" id="streamProcessor-to-metaStore" style="stroke:#0000FF;stroke-width:1;"/><polygon fill="#0000FF" points="1482.3534,142.1288,1472.6906,144.0344,1478.2635,145.0051,1477.2928,150.5781,1482.3534,142.1288" style="stroke:#0000FF;stroke-width:1;"/><text fill="#000000" font-family="sans-serif" font-size="13" lengthAdjust="spacing" textLength="30.7988" x="1371.5134" y="176.5057">Store</text></g><!--link streamProcessor to statsStore--><g class="link" data-entity-1="ent0026" data-entity-2="ent0028" data-link-type="dependency" data-source-line="81" id="lnk62"><path d="M1315.8134,376.8788 C1359.8534,369.0288 1411.5767,359.8031 1453.4267,352.3331" fill="none" id="streamProcessor-to-statsStore" style="stroke:#0000FF;stroke-width:1;"/><polygon fill="#0000FF" points="1459.3334,351.2788,1449.7705,348.9225,1454.4111,352.1574,1451.1763,356.798,1459.3334,351.2788" style="stroke:#0000FF;stroke-width:1;"/><text fill="#000000" font-family="sans-serif" font-size="13" lengthAdjust="spacing" textLength="30.7988" x="1371.5134" y="354.5057">Store</text></g><!--reverse link streamProcessor to ui--><g class="link" data-entity-1="ent0026" data-entity-2="ent0022" data-link-type="dependency" data-source-line="85" id="lnk66"><path d="M1250.0134,364.3788 C1250.0134,346.1088 1250.0134,324.0188 1250.0134,305.6788" fill="none" id="streamProcessor-backto-ui" style="stroke:#808080;stroke-width:1;"/><polygon fill="#808080" points="1250.0134,370.3788,1254.0134,361.3788,1250.0134,365.3788,1246.0134,361.3788,1250.0134,370.3788" style="stroke:#808080;stroke-width:1;"/><text fill="#808080" font-family="sans-serif" font-size="13" lengthAdjust="spacing" textLength="46.4585" x="1215.5134" y="342.5057">Manage</text></g><!--reverse link ui to index--><g class="link" data-entity-1="ent0022" data-entity-2="ent0024" data-link-type="dependency" data-source-line="87" id="lnk67"><path d="M1259.9277,263.5203 C1272.0577,233.2903 1298.6334,179.5288 1345.5134,155.4388 C1390.6134,132.2588 1448.2834,159.7388 1483.2634,181.9288" fill="none" id="ui-backto-index" style="stroke:#808080;stroke-width:1;"/><polygon fill="#808080" points="1257.6934,269.0888,1264.7572,262.2257,1259.5553,264.4484,1257.3326,259.2465,1257.6934,269.0888" style="stroke:#808080;stroke-width:1;"/><text fill="#808080" font-family="sans-serif" font-size="13" lengthAdjust="spacing" textLength="35.8008" x="1369.0134" y="143.5057">Query</text></g><!--reverse link ui to metaStore--><g class="link" data-entity-1="ent0022" data-entity-2="ent0025" data-link-type="dependency" data-source-line="88" id="lnk68"><path d="M1256.6108,263.5686 C1265.7808,227.9886 1290.1134,155.2188 1345.5134,122.4388 C1383.2734,100.0988 1434.5634,102.8288 1470.7034,108.9688" fill="none" id="ui-backto-metaStore" style="stroke:#808080;stroke-width:1;"/><polygon fill="#808080" points="1255.1134,269.3788,1261.2329,261.6619,1256.3612,264.537,1253.4861,259.6653,1255.1134,269.3788" style="stroke:#808080;stroke-width:1;"/><text fill="#808080" font-family="sans-serif" font-size="13" lengthAdjust="spacing" textLength="35.8008" x="1369.0134" y="101.5057">Query</text></g><!--reverse link ui to dataStore--><g class="link" data-entity-1="ent0022" data-entity-2="ent0023" data-link-type="dependency" data-source-line="89" id="lnk69"><path d="M1188.8252,302.1644 C1153.1752,310.8844 1112.3934,320.8588 1075.7134,329.8388" fill="none" id="ui-backto-dataStore" style="stroke:#808080;stroke-width:1;"/><polygon fill="#808080" points="1194.6534,300.7388,1184.9607,298.9917,1189.7965,301.9268,1186.8615,306.7626,1194.6534,300.7388" style="stroke:#808080;stroke-width:1;"/><text fill="#808080" font-family="sans-serif" font-size="13" lengthAdjust="spacing" textLength="35.8008" x="1112.5134" y="307.5057">Query</text></g><!--link solr to ui--><g class="link" data-entity-1="ent0030" data-entity-2="ent0022" data-link-type="dependency" data-source-line="90" id="lnk71"><path d="M1227.3334,612.2088 C1198.7434,601.7088 1151.0134,579.1988 1131.5134,540.9388 C1128.0834,534.2088 1130.3834,531.4088 1131.5134,523.9388 C1143.4234,445.0588 1143.1934,420.6788 1184.5134,352.4388 C1195.4634,334.3488 1207.9853,321.5306 1221.9453,309.5806" fill="none" id="solr-to-ui" style="stroke:#808080;stroke-width:1;"/><polygon fill="#808080" points="1226.5034,305.6788,1217.065,308.4927,1222.705,308.9303,1222.2674,314.5702,1226.5034,305.6788" style="stroke:#808080;stroke-width:1;"/><text fill="#808080" font-family="sans-serif" font-size="13" lengthAdjust="spacing" textLength="35.8008" x="1112.5134" y="537.0057">Query</text></g><!--reverse link ui to statsStore--><g class="link" data-entity-1="ent0022" data-entity-2="ent0028" data-link-type="dependency" data-source-line="91" id="lnk72"><path d="M1310.8523,268.5062 C1346.5823,259.7862 1388.1034,255.2488 1427.5134,269.4388 C1454.6334,279.2088 1479.2934,301.4988 1495.3734,318.7088" fill="none" id="ui-backto-statsStore" style="stroke:#808080;stroke-width:1;"/><polygon fill="#808080" points="1305.0234,269.9288,1314.7151,271.6809,1309.8808,268.7433,1312.8184,263.909,1305.0234,269.9288" style="stroke:#808080;stroke-width:1;"/><text fill="#808080" font-family="sans-serif" font-size="13" lengthAdjust="spacing" textLength="35.8008" x="1369.0134" y="257.5057">Query</text></g><?plantuml-src fPRVJzim4CVV_LTOL5hX8Izzh10IWp6DbS5QDf2sFPZa6gocSMKxq0xnl-_i_7BInYc31-HUFj-x-EvwLxNWwOf9jgGHp5cMw5jOwzE4n-aIKar3_0UI35M5FR1m4KkHfL4e4Y6fbYnL-0X1ai1SKosevF6ZfX6N46ekKaB2H6GH7Pp-pIJG5qBnRyuJe0SNV0qHlUEHVgGJ4HzGfgXapzPihMYaWudnzp79m56UpNwwYZFrr8bUpgw_kUob4cadV7yrSTdxPU953-49Rnua8evv6X-vqa_cYUfKJs4EcBKGw3dJB1V1t9nRabT2Xgq43cit2AioeZcxok7hErC_UaFkHszA_kWDsH-zB_sZ_yZ_g5K0qyaiZOrkfgKGIneccSAlXjMft3IuU-GQPaknA3Fjo2OYP0ajn3TIh3UEr7xEYMqdBKUdSImXPbhaiLT6MjkAzvu1-om1qif1XFTwOChUUoKKHtHJwurjbn9lteh-Gu6aNynGcBCGh8UCqy4vaujhd0Hndk4wciadtbf8-9tImobxfXzeAF1oqP4L6z8-zlYOP3Y60AD6iBOYRauUmHMKGIs-XAuOpR82ivK9GIbH5HQDbSqJihkR-cutqqnpfNced5TMQ5JRocOdVcNpHHvgOKv50VFgEVv5Kbm63mt6zJM5fT3WxSy2yNQvlpbB3zkDvhYu4FAPoGWS3vMfsq5_V-_MOaPtlsIG12TjCMaxgw7MAn9CRdkD1IMx5MjySpsx9VKMsuCizj8UPBs6ze3BrTYBrfkg3zrPmM27gk39iDXa8zeDRIygBrjkA2zKBXilv6mLBrUjEG_bR1jFEjhcPcFMBMbzLEEKaFRi2duDp3RxO-Jvl1YZDiBPseaYQOQ6xtazlyTvN0-RZ-sndUFc6ozaf7nyOu3skw_7V3_hpDS2RWHha4qdumbkhsn5ehtWAMZ9yJSA8RWb4SIXix4Ls2AFxS_fiG5EhbZAubnpN8g2Cdqk-3q3kMbXJXhwKATuVZG9yktHwz7DwpRx3m00?></g></svg>