<?plantuml 1.2026.1?><svg xmlns="http://www.w3.org/2000/svg" xmlns:xlink="http://www.w3.org/1999/xlink" contentStyleType="text/css" data-diagram-type="DESCRIPTION" height="1248px" preserveAspectRatio="none" style="width:1080px;height:1248px;background:#FFFFFF;" version="1.1" viewBox="0 0 1080 1248" width="1080px" zoomAndPan="magnify"><defs/><g><!--cluster stroomCluster--><g class="cluster" data-qualified-name="stroomCluster" data-source-line="7" id="ent0002"><rect fill="none" height="1132" rx="2.5" ry="2.5" style="stroke:#181818;stroke-width:1;" width="1035" x="7" y="7"/><text fill="#000000" font-family="sans-serif" font-size="14" font-weight="bold" lengthAdjust="spacing" textLength="101.5205" x="473.7397" y="21.9951">Stroom Cluster</text></g><!--cluster dataStore--><g class="cluster" data-qualified-name="stroomCluster.dataStore" data-source-line="9" id="ent0003"><path d="M31,60 C31,50 483.5,50 483.5,50 C483.5,50 936,50 936,60 L936,260 C936,270 483.5,270 483.5,270 C483.5,270 31,270 31,260 L31,60" fill="#B0C4DE" style="stroke:#181818;stroke-width:1;"/><path d="M31,60 C31,70 483.5,70 483.5,70 C483.5,70 936,70 936,60" fill="none" style="stroke:#181818;stroke-width:1;"/><text fill="#000000" font-family="sans-serif" font-size="14" font-weight="bold" lengthAdjust="spacing" textLength="71.0459" x="447.9771" y="84.9951">Data Store</text></g><!--cluster Raw--><g class="cluster" data-qualified-name="stroomCluster.dataStore.Raw" data-source-line="10" id="ent0004"><rect fill="none" height="123" rx="2.5" ry="2.5" style="stroke:#181818;stroke-width:1;" width="657" x="255" y="123"/><text fill="#000000" font-family="sans-serif" font-size="14" font-weight="bold" lengthAdjust="spacing" textLength="28.1436" x="569.4282" y="137.9951">Raw</text></g><!--cluster Cooked--><g class="cluster" data-qualified-name="stroomCluster.dataStore.Cooked" data-source-line="17" id="ent0010"><rect fill="none" height="123" rx="2.5" ry="2.5" style="stroke:#181818;stroke-width:1;" width="176" x="55" y="123"/><text fill="#000000" font-family="sans-serif" font-size="14" font-weight="bold" lengthAdjust="spacing" textLength="50.5996" x="117.7002" y="137.9951">Cooked</text></g><!--entity dataSplitter--><g class="entity" data-qualified-name="stroomCluster.dataSplitter" data-source-line="24" id="ent0012"><rect fill="#B8860B" height="52.5938" rx="2.5" ry="2.5" style="stroke:#181818;stroke-width:0.5;" width="65.2813" x="698.5" y="348"/><text fill="#000000" font-family="sans-serif" font-size="14" lengthAdjust="spacing" textLength="29.1826" x="716.5493" y="370.9951">Data</text><text fill="#000000" font-family="sans-serif" font-size="14" lengthAdjust="spacing" textLength="45.2813" x="708.5" y="387.292">Splitter</text></g><!--entity jsonParser--><g class="entity" data-qualified-name="stroomCluster.jsonParser" data-source-line="25" id="ent0013"><rect fill="#B8860B" height="52.5938" rx="2.5" ry="2.5" style="stroke:#181818;stroke-width:0.5;" width="60.4756" x="570" y="348"/><text fill="#000000" font-family="sans-serif" font-size="14" lengthAdjust="spacing" textLength="31.6572" x="584.4092" y="370.9951">JSON</text><text fill="#000000" font-family="sans-serif" font-size="14" lengthAdjust="spacing" textLength="40.4756" x="580" y="387.292">Parser</text></g><!--entity xmlParser--><g class="entity" data-qualified-name="stroomCluster.xmlParser" data-source-line="26" id="ent0014"><rect fill="#B8860B" height="52.5938" rx="2.5" ry="2.5" style="stroke:#181818;stroke-width:0.5;" width="60.4756" x="316" y="478"/><text fill="#000000" font-family="sans-serif" font-size="14" lengthAdjust="spacing" textLength="26.7148" x="332.8804" y="500.9951">XML</text><text fill="#000000" font-family="sans-serif" font-size="14" lengthAdjust="spacing" textLength="40.4756" x="326" y="517.292">Parser</text></g><!--entity xmlParser2--><g class="entity" data-qualified-name="stroomCluster.xmlParser2" data-source-line="27" id="ent0015"><rect fill="#B8860B" height="52.5938" rx="2.5" ry="2.5" style="stroke:#181818;stroke-width:0.5;" width="60.4756" x="417" y="348"/><text fill="#000000" font-family="sans-serif" font-size="14" lengthAdjust="spacing" textLength="26.7148" x="433.8804" y="370.9951">XML</text><text fill="#000000" font-family="sans-serif" font-size="14" lengthAdjust="spacing" textLength="40.4756" x="427" y="387.292">Parser</text></g><!--entity normalisation--><g class="entity" data-qualified-name="stroomCluster.normalisation" data-source-line="30" id="ent0016"><rect fill="#FF8C00" height="52.5938" rx="2.5" ry="2.5" style="stroke:#181818;stroke-width:0.5;" width="123.291" x="561.5" y="478"/><text fill="#000000" font-family="sans-serif" font-size="14" lengthAdjust="spacing" textLength="89.5303" x="578.3804" y="500.9951">Normalisation</text><text fill="#000000" font-family="sans-serif" font-size="14" lengthAdjust="spacing" textLength="103.291" x="571.5" y="517.292">XSLT Translation</text></g><!--entity decoration--><g class="entity" data-qualified-name="stroomCluster.decoration" data-source-line="31" id="ent0017"><rect fill="#FF8C00" height="52.5938" rx="2.5" ry="2.5" style="stroke:#181818;stroke-width:0.5;" width="129.6074" x="461" y="623"/><text fill="#000000" font-family="sans-serif" font-size="14" lengthAdjust="spacing" textLength="69.3369" x="491.1353" y="645.9951">Decoration</text><text fill="#000000" font-family="sans-serif" font-size="14" lengthAdjust="spacing" textLength="109.6074" x="471" y="662.292">XSLT Translations</text></g><!--entity indexing--><g class="entity" data-qualified-name="stroomCluster.indexing" data-source-line="32" id="ent0018"><rect fill="#FF8C00" height="52.5938" rx="2.5" ry="2.5" style="stroke:#181818;stroke-width:0.5;" width="123.291" x="464.5" y="772.5"/><text fill="#000000" font-family="sans-serif" font-size="14" lengthAdjust="spacing" textLength="54.8037" x="498.7437" y="795.4951">Indexing</text><text fill="#000000" font-family="sans-serif" font-size="14" lengthAdjust="spacing" textLength="103.291" x="474.5" y="811.792">XSLT Translation</text></g><!--entity analytic--><g class="entity" data-qualified-name="stroomCluster.analytic" data-source-line="33" id="ent0019"><rect fill="#FF8C00" height="52.5938" rx="2.5" ry="2.5" style="stroke:#181818;stroke-width:0.5;" width="123.291" x="902.5" y="772.5"/><text fill="#000000" font-family="sans-serif" font-size="14" lengthAdjust="spacing" textLength="49.499" x="939.396" y="795.4951">Analytic</text><text fill="#000000" font-family="sans-serif" font-size="14" lengthAdjust="spacing" textLength="103.291" x="912.5" y="811.792">XSLT Translation</text></g><!--entity flattener--><g class="entity" data-qualified-name="stroomCluster.flattener" data-source-line="34" id="ent0020"><rect fill="#FF8C00" height="52.5938" rx="2.5" ry="2.5" style="stroke:#181818;stroke-width:0.5;" width="123.291" x="148.5" y="772.5"/><text fill="#000000" font-family="sans-serif" font-size="14" lengthAdjust="spacing" textLength="56.2324" x="182.0293" y="795.4951">Flattener</text><text fill="#000000" font-family="sans-serif" font-size="14" lengthAdjust="spacing" textLength="103.291" x="158.5" y="811.792">XSLT Translation</text></g><!--entity statsXslt--><g class="entity" data-qualified-name="stroomCluster.statsXslt" data-source-line="35" id="ent0021"><rect fill="#FF8C00" height="52.5938" rx="2.5" ry="2.5" style="stroke:#181818;stroke-width:0.5;" width="123.291" x="306.5" y="772.5"/><text fill="#000000" font-family="sans-serif" font-size="14" lengthAdjust="spacing" textLength="55.2891" x="340.501" y="795.4951">Statistics</text><text fill="#000000" font-family="sans-serif" font-size="14" lengthAdjust="spacing" textLength="103.291" x="316.5" y="811.792">XSLT Translation</text></g><!--entity indexer--><g class="entity" data-qualified-name="stroomCluster.indexer" data-source-line="38" id="ent0022"><rect fill="#BA55D3" height="36.2969" rx="2.5" ry="2.5" style="stroke:#181818;stroke-width:0.5;" width="68.7607" x="469.5" y="935"/><text fill="#000000" font-family="sans-serif" font-size="14" lengthAdjust="spacing" textLength="48.7607" x="479.5" y="957.9951">Indexer</text></g><!--entity solrIndexer--><g class="entity" data-qualified-name="stroomCluster.solrIndexer" data-source-line="39" id="ent0023"><rect fill="#BA55D3" height="36.2969" rx="2.5" ry="2.5" style="stroke:#181818;stroke-width:0.5;" width="96.9521" x="573.5" y="935"/><text fill="#000000" font-family="sans-serif" font-size="14" lengthAdjust="spacing" textLength="76.9521" x="583.5" y="957.9951">Solr Indexer</text></g><!--entity producerTranslation--><g class="entity" data-qualified-name="stroomCluster.producerTranslation" data-source-line="40" id="ent0024"><rect fill="#FF8C00" height="52.5938" rx="2.5" ry="2.5" style="stroke:#181818;stroke-width:0.5;" width="123.291" x="744.5" y="772.5"/><text fill="#000000" font-family="sans-serif" font-size="14" lengthAdjust="spacing" textLength="102.7988" x="754.7461" y="795.4951">Producer record</text><text fill="#000000" font-family="sans-serif" font-size="14" lengthAdjust="spacing" textLength="103.291" x="754.5" y="811.792">XSLT Translation</text></g><!--entity kafkaProducer--><g class="entity" data-qualified-name="stroomCluster.kafkaProducer" data-source-line="41" id="ent0025"><rect fill="#BA55D3" height="52.5938" rx="2.5" ry="2.5" style="stroke:#181818;stroke-width:0.5;" width="77.873" x="723" y="926.5"/><text fill="#000000" font-family="sans-serif" font-size="14" lengthAdjust="spacing" textLength="34.5215" x="744.6758" y="949.4951">Kafka</text><text fill="#000000" font-family="sans-serif" font-size="14" lengthAdjust="spacing" textLength="57.873" x="733" y="965.792">producer</text></g><!--entity xmlWriter--><g class="entity" data-qualified-name="stroomCluster.xmlWriter" data-source-line="42" id="ent0026"><rect fill="#BA55D3" height="36.2969" rx="2.5" ry="2.5" style="stroke:#181818;stroke-width:0.5;" width="89.7539" x="23" y="781"/><text fill="#000000" font-family="sans-serif" font-size="14" lengthAdjust="spacing" textLength="69.7539" x="33" y="803.9951">XML Writer</text></g><!--entity textWriter--><g class="entity" data-qualified-name="stroomCluster.textWriter" data-source-line="43" id="ent0027"><rect fill="#BA55D3" height="36.2969" rx="2.5" ry="2.5" style="stroke:#181818;stroke-width:0.5;" width="89.542" x="165" y="935"/><text fill="#000000" font-family="sans-serif" font-size="14" lengthAdjust="spacing" textLength="69.542" x="175" y="957.9951">Text Writer</text></g><!--entity statsAggregator--><g class="entity" data-qualified-name="stroomCluster.statsAggregator" data-source-line="44" id="ent0028"><rect fill="#BA55D3" height="52.5938" rx="2.5" ry="2.5" style="stroke:#181818;stroke-width:0.5;" width="89.1865" x="323.5" y="926.5"/><text fill="#000000" font-family="sans-serif" font-size="14" lengthAdjust="spacing" textLength="55.2891" x="340.4487" y="949.4951">Statistics</text><text fill="#000000" font-family="sans-serif" font-size="14" lengthAdjust="spacing" textLength="69.1865" x="333.5" y="965.792">Aggregator</text></g><!--entity refDataStore--><g class="entity" data-qualified-name="stroomCluster.refDataStore" data-source-line="47" id="ent0029"><path d="M623,778 C623,768 665.9937,768 665.9937,768 C665.9937,768 708.9873,768 708.9873,778 L708.9873,819.5938 C708.9873,829.5938 665.9937,829.5938 665.9937,829.5938 C665.9937,829.5938 623,829.5938 623,819.5938 L623,778" fill="#B0C4DE" style="stroke:#181818;stroke-width:0.5;"/><path d="M623,778 C623,788 665.9937,788 665.9937,788 C665.9937,788 708.9873,788 708.9873,778" fill="none" style="stroke:#181818;stroke-width:0.5;"/><text fill="#000000" font-family="sans-serif" font-size="14" lengthAdjust="spacing" textLength="63.1436" x="634.4219" y="804.9951">Reference</text><text fill="#000000" font-family="sans-serif" font-size="14" lengthAdjust="spacing" textLength="65.9873" x="633" y="821.292">Data Store</text></g><!--entity index--><g class="entity" data-qualified-name="stroomCluster.index" data-source-line="48" id="ent0030"><path d="M471.5,1071 C471.5,1061 503.915,1061 503.915,1061 C503.915,1061 536.3301,1061 536.3301,1071 L536.3301,1112.5938 C536.3301,1122.5938 503.915,1122.5938 503.915,1122.5938 C503.915,1122.5938 471.5,1122.5938 471.5,1112.5938 L471.5,1071" fill="#B0C4DE" style="stroke:#181818;stroke-width:0.5;"/><path d="M471.5,1071 C471.5,1081 503.915,1081 503.915,1081 C503.915,1081 536.3301,1081 536.3301,1071" fill="none" style="stroke:#181818;stroke-width:0.5;"/><text fill="#000000" font-family="sans-serif" font-size="14" lengthAdjust="spacing" textLength="44.8301" x="481.5" y="1097.9951">Lucene</text><text fill="#000000" font-family="sans-serif" font-size="14" lengthAdjust="spacing" textLength="35.6836" x="486.0732" y="1114.292">Index</text></g><!--entity dataStore2--><g class="entity" data-qualified-name="stroomCluster.dataStore2" data-source-line="49" id="ent0031"><path d="M856.5,932 C856.5,922 883.084,922 883.084,922 C883.084,922 909.668,922 909.668,932 L909.668,973.5938 C909.668,983.5938 883.084,983.5938 883.084,983.5938 C883.084,983.5938 856.5,983.5938 856.5,973.5938 L856.5,932" fill="#B0C4DE" style="stroke:#181818;stroke-width:0.5;"/><path d="M856.5,932 C856.5,942 883.084,942 883.084,942 C883.084,942 909.668,942 909.668,932" fill="none" style="stroke:#181818;stroke-width:0.5;"/><text fill="#000000" font-family="sans-serif" font-size="14" lengthAdjust="spacing" textLength="29.1826" x="868.4927" y="958.9951">Data</text><text fill="#000000" font-family="sans-serif" font-size="14" lengthAdjust="spacing" textLength="33.168" x="866.5" y="975.292">Store</text></g><!--entity metaStore--><g class="entity" data-qualified-name="stroomCluster.metaStore" data-source-line="50" id="ent0032"><path d="M41.5,932 C41.5,922 68.084,922 68.084,922 C68.084,922 94.668,922 94.668,932 L94.668,973.5938 C94.668,983.5938 68.084,983.5938 68.084,983.5938 C68.084,983.5938 41.5,983.5938 41.5,973.5938 L41.5,932" fill="#B0C4DE" style="stroke:#181818;stroke-width:0.5;"/><path d="M41.5,932 C41.5,942 68.084,942 68.084,942 C68.084,942 94.668,942 94.668,932" fill="none" style="stroke:#181818;stroke-width:0.5;"/><text fill="#000000" font-family="sans-serif" font-size="14" lengthAdjust="spacing" textLength="31.8486" x="52.1597" y="958.9951">Meta</text><text fill="#000000" font-family="sans-serif" font-size="14" lengthAdjust="spacing" textLength="33.168" x="51.5" y="975.292">Store</text></g><!--entity fileSystem--><g class="entity" data-qualified-name="stroomCluster.fileSystem" data-source-line="51" id="ent0033"><path d="M177.5,1071 C177.5,1061 210.103,1061 210.103,1061 C210.103,1061 242.7061,1061 242.7061,1071 L242.7061,1112.5938 C242.7061,1122.5938 210.103,1122.5938 210.103,1122.5938 C210.103,1122.5938 177.5,1122.5938 177.5,1112.5938 L177.5,1071" fill="#B0C4DE" style="stroke:#181818;stroke-width:0.5;"/><path d="M177.5,1071 C177.5,1081 210.103,1081 210.103,1081 C210.103,1081 242.7061,1081 242.7061,1071" fill="none" style="stroke:#181818;stroke-width:0.5;"/><text fill="#000000" font-family="sans-serif" font-size="14" lengthAdjust="spacing" textLength="21.6152" x="199.2954" y="1097.9951">File</text><text fill="#000000" font-family="sans-serif" font-size="14" lengthAdjust="spacing" textLength="45.2061" x="187.5" y="1114.292">System</text></g><!--entity statsStore--><g class="entity" data-qualified-name="stroomCluster.statsStore" data-source-line="52" id="ent0034"><path d="M330.5,1071 C330.5,1061 368.1445,1061 368.1445,1061 C368.1445,1061 405.7891,1061 405.7891,1071 L405.7891,1112.5938 C405.7891,1122.5938 368.1445,1122.5938 368.1445,1122.5938 C368.1445,1122.5938 330.5,1122.5938 330.5,1112.5938 L330.5,1071" fill="#B0C4DE" style="stroke:#181818;stroke-width:0.5;"/><path d="M330.5,1071 C330.5,1081 368.1445,1081 368.1445,1081 C368.1445,1081 405.7891,1081 405.7891,1071" fill="none" style="stroke:#181818;stroke-width:0.5;"/><text fill="#000000" font-family="sans-serif" font-size="14" lengthAdjust="spacing" textLength="55.2891" x="340.5" y="1097.9951">Statistics</text><text fill="#000000" font-family="sans-serif" font-size="14" lengthAdjust="spacing" textLength="33.168" x="351.5605" y="1114.292">Store</text></g><!--entity rawFixedWidthLog--><g class="entity" data-qualified-name="stroomCluster.dataStore.Raw.rawFixedWidthLog" data-source-line="11" id="ent0005"><path d="M671,188 L671,219.2969 A2.5,2.5 0 0 0 673.5,221.7969 L788.3662,221.7969 A2.5,2.5 0 0 0 790.8662,219.2969 L790.8662,195.5 L780.8662,185.5 L673.5,185.5 A2.5,2.5 0 0 0 671,188" fill="#ADD8E6" style="stroke:#181818;stroke-width:0.5;"/><path d="M780.8662,185.5 L780.8662,193 A2.5,2.5 0 0 0 783.3662,195.5 L790.8662,195.5" fill="#ADD8E6" style="stroke:#181818;stroke-width:0.5;"/><text fill="#000000" font-family="sans-serif" font-size="14" lengthAdjust="spacing" textLength="99.8662" x="681" y="208.4951">Fixed Width Log</text></g><!--entity rawCsvLog--><g class="entity" data-qualified-name="stroomCluster.dataStore.Raw.rawCsvLog" data-source-line="12" id="ent0006"><path d="M826,188 L826,219.2969 A2.5,2.5 0 0 0 828.5,221.7969 L893.0059,221.7969 A2.5,2.5 0 0 0 895.5059,219.2969 L895.5059,195.5 L885.5059,185.5 L828.5,185.5 A2.5,2.5 0 0 0 826,188" fill="#ADD8E6" style="stroke:#181818;stroke-width:0.5;"/><path d="M885.5059,185.5 L885.5059,193 A2.5,2.5 0 0 0 888.0059,195.5 L895.5059,195.5" fill="#ADD8E6" style="stroke:#181818;stroke-width:0.5;"/><text fill="#000000" font-family="sans-serif" font-size="14" lengthAdjust="spacing" textLength="49.5059" x="836" y="208.4951">CSV Log</text></g><!--entity rawXmlLog--><g class="entity" data-qualified-name="stroomCluster.dataStore.Raw.rawXmlLog" data-source-line="13" id="ent0007"><path d="M271.5,188 L271.5,219.2969 A2.5,2.5 0 0 0 274,221.7969 L341.5615,221.7969 A2.5,2.5 0 0 0 344.0615,219.2969 L344.0615,195.5 L334.0615,185.5 L274,185.5 A2.5,2.5 0 0 0 271.5,188" fill="#ADD8E6" style="stroke:#181818;stroke-width:0.5;"/><path d="M334.0615,185.5 L334.0615,193 A2.5,2.5 0 0 0 336.5615,195.5 L344.0615,195.5" fill="#ADD8E6" style="stroke:#181818;stroke-width:0.5;"/><text fill="#000000" font-family="sans-serif" font-size="14" lengthAdjust="spacing" textLength="52.5615" x="281.5" y="208.4951">XML Log</text></g><!--entity rawEventsLog--><g class="entity" data-qualified-name="stroomCluster.dataStore.Raw.rawEventsLog" data-source-line="14" id="ent0008"><path d="M379.5,179.5 L379.5,227.0938 A2.5,2.5 0 0 0 382,229.5938 L520.2861,229.5938 A2.5,2.5 0 0 0 522.7861,227.0938 L522.7861,187 L512.7861,177 L382,177 A2.5,2.5 0 0 0 379.5,179.5" fill="#ADD8E6" style="stroke:#181818;stroke-width:0.5;"/><path d="M512.7861,177 L512.7861,184.5 A2.5,2.5 0 0 0 515.2861,187 L522.7861,187" fill="#ADD8E6" style="stroke:#181818;stroke-width:0.5;"/><text fill="#000000" font-family="sans-serif" font-size="14" lengthAdjust="spacing" textLength="123.2861" x="389.5" y="199.9951">XML (event-logging)</text><text fill="#000000" font-family="sans-serif" font-size="14" lengthAdjust="spacing" textLength="40.8926" x="430.6968" y="216.292">Events</text></g><!--entity rawJsonLog--><g class="entity" data-qualified-name="stroomCluster.dataStore.Raw.rawJsonLog" data-source-line="15" id="ent0009"><path d="M558,188 L558,219.2969 A2.5,2.5 0 0 0 560.5,221.7969 L633.0039,221.7969 A2.5,2.5 0 0 0 635.5039,219.2969 L635.5039,195.5 L625.5039,185.5 L560.5,185.5 A2.5,2.5 0 0 0 558,188" fill="#ADD8E6" style="stroke:#181818;stroke-width:0.5;"/><path d="M625.5039,185.5 L625.5039,193 A2.5,2.5 0 0 0 628.0039,195.5 L635.5039,195.5" fill="#ADD8E6" style="stroke:#181818;stroke-width:0.5;"/><text fill="#000000" font-family="sans-serif" font-size="14" lengthAdjust="spacing" textLength="57.5039" x="568" y="208.4951">JSON Log</text></g><!--entity cookedEventsLog--><g class="entity" data-qualified-name="stroomCluster.dataStore.Cooked.cookedEventsLog" data-source-line="18" id="ent0011"><path d="M71.5,179.5 L71.5,227.0938 A2.5,2.5 0 0 0 74,229.5938 L212.2861,229.5938 A2.5,2.5 0 0 0 214.7861,227.0938 L214.7861,187 L204.7861,177 L74,177 A2.5,2.5 0 0 0 71.5,179.5" fill="#ADD8E6" style="stroke:#181818;stroke-width:0.5;"/><path d="M204.7861,177 L204.7861,184.5 A2.5,2.5 0 0 0 207.2861,187 L214.7861,187" fill="#ADD8E6" style="stroke:#181818;stroke-width:0.5;"/><text fill="#000000" font-family="sans-serif" font-size="14" lengthAdjust="spacing" textLength="123.2861" x="81.5" y="199.9951">XML (event-logging)</text><text fill="#000000" font-family="sans-serif" font-size="14" lengthAdjust="spacing" textLength="40.8926" x="122.6968" y="216.292">Events</text></g><!--entity kafka--><g class="entity" data-qualified-name="kafka" data-source-line="57" id="ent0035"><rect fill="#90EE90" height="36.2969" rx="2.5" ry="2.5" style="stroke:#181818;stroke-width:0.5;" width="54.5215" x="734.5" y="1190.5"/><text fill="#000000" font-family="sans-serif" font-size="14" lengthAdjust="spacing" textLength="34.5215" x="744.5" y="1213.4951">Kafka</text></g><!--entity solr--><g class="entity" data-qualified-name="solr" data-source-line="58" id="ent0036"><path d="M599.5,1196 C599.5,1186 621.7773,1186 621.7773,1186 C621.7773,1186 644.0547,1186 644.0547,1196 L644.0547,1221.2969 C644.0547,1231.2969 621.7773,1231.2969 621.7773,1231.2969 C621.7773,1231.2969 599.5,1231.2969 599.5,1221.2969 L599.5,1196" fill="#90EE90" style="stroke:#181818;stroke-width:0.5;"/><path d="M599.5,1196 C599.5,1206 621.7773,1206 621.7773,1206 C621.7773,1206 644.0547,1206 644.0547,1196" fill="none" style="stroke:#181818;stroke-width:0.5;"/><text fill="#000000" font-family="sans-serif" font-size="14" lengthAdjust="spacing" textLength="24.5547" x="609.5" y="1222.9951">Solr</text></g><!--link rawCsvLog to dataSplitter--><g class="link" data-entity-1="ent0006" data-entity-2="ent0012" data-link-type="dependency" data-source-line="60" id="lnk37"><path d="M849.35,221.67 C839.02,236.72 823.38,259.09 809,278 C790.6,302.19 772.4625,324.3302 756.5325,343.3502" fill="none" id="rawCsvLog-to-dataSplitter" style="stroke:#808080;stroke-width:1;"/><polygon fill="#808080" points="752.68,347.95,761.5253,343.6186,755.8904,344.1168,755.3922,338.482,752.68,347.95" style="stroke:#808080;stroke-width:1;"/><text fill="#000000" font-family="sans-serif" font-size="13" lengthAdjust="spacing" textLength="24.6099" x="801" y="306.5669">Text</text></g><!--link rawFixedWidthLog to dataSplitter--><g class="link" data-entity-1="ent0005" data-entity-2="ent0012" data-link-type="dependency" data-source-line="61" id="lnk38"><path d="M731,221.63 C731,251.42 731,306.91 731,341.82" fill="none" id="rawFixedWidthLog-to-dataSplitter" style="stroke:#808080;stroke-width:1;"/><polygon fill="#808080" points="731,347.82,735,338.82,731,342.82,727,338.82,731,347.82" style="stroke:#808080;stroke-width:1;"/><text fill="#000000" font-family="sans-serif" font-size="13" lengthAdjust="spacing" textLength="24.6099" x="732" y="306.5669">Text</text></g><!--link rawJsonLog to jsonParser--><g class="link" data-entity-1="ent0009" data-entity-2="ent0013" data-link-type="dependency" data-source-line="62" id="lnk39"><path d="M597.3,221.63 C597.83,251.42 598.8135,306.9109 599.4335,341.8209" fill="none" id="rawJsonLog-to-jsonParser" style="stroke:#808080;stroke-width:1;"/><polygon fill="#808080" points="599.54,347.82,603.3796,338.7504,599.4512,342.8208,595.3808,338.8924,599.54,347.82" style="stroke:#808080;stroke-width:1;"/><text fill="#000000" font-family="sans-serif" font-size="13" lengthAdjust="spacing" textLength="29.396" x="599" y="306.5669">JSON</text></g><!--link rawXmlLog to xmlParser--><g class="link" data-entity-1="ent0007" data-entity-2="ent0014" data-link-type="dependency" data-source-line="63" id="lnk40"><path d="M310.21,221.87 C316.61,272.22 334.4331,412.5079 341.9931,471.9579" fill="none" id="rawXmlLog-to-xmlParser" style="stroke:#808080;stroke-width:1;"/><polygon fill="#808080" points="342.75,477.91,345.5827,468.4773,342.1193,472.9499,337.6466,469.4865,342.75,477.91" style="stroke:#808080;stroke-width:1;"/><text fill="#000000" font-family="sans-serif" font-size="13" lengthAdjust="spacing" textLength="24.8066" x="334" y="379.0669">XML</text></g><!--link rawEventsLog to xmlParser2--><g class="link" data-entity-1="ent0008" data-entity-2="ent0015" data-link-type="dependency" data-source-line="64" id="lnk41"><path d="M450.39,230.17 C449.64,262.02 448.5013,310.0317 447.7513,341.8717" fill="none" id="rawEventsLog-to-xmlParser2" style="stroke:#181818;stroke-width:1;"/><polygon fill="#181818" points="447.61,347.87,451.8208,338.9667,447.7277,342.8714,443.823,338.7783,447.61,347.87" style="stroke:#181818;stroke-width:1;"/><text fill="#000000" font-family="sans-serif" font-size="13" lengthAdjust="spacing" textLength="78.4761" x="450" y="299.0669">event-logging</text><text fill="#000000" font-family="sans-serif" font-size="13" lengthAdjust="spacing" textLength="24.8066" x="476.8347" y="314.1997">XML</text></g><!--link dataSplitter to normalisation--><g class="link" data-entity-1="ent0012" data-entity-2="ent0016" data-link-type="dependency" data-source-line="65" id="lnk42"><path d="M709.4,401.1 C690.57,423.42 667.2487,451.0538 648.4287,473.3638" fill="none" id="dataSplitter-to-normalisation" style="stroke:#0000FF;stroke-width:1;"/><polygon fill="#0000FF" points="644.56,477.95,653.4205,473.6499,647.7839,474.1282,647.3057,468.4916,644.56,477.95" style="stroke:#0000FF;stroke-width:1;"/><text fill="#000000" font-family="sans-serif" font-size="13" lengthAdjust="spacing" textLength="24.8066" x="684" y="444.0669">XML</text></g><!--link jsonParser to normalisation--><g class="link" data-entity-1="ent0013" data-entity-2="ent0016" data-link-type="dependency" data-source-line="66" id="lnk43"><path d="M604.6,401.1 C608.61,423.42 613.3386,449.7346 617.3486,472.0446" fill="none" id="jsonParser-to-normalisation" style="stroke:#0000FF;stroke-width:1;"/><polygon fill="#0000FF" points="618.41,477.95,620.7548,468.3843,617.5255,473.0289,612.8809,469.7996,618.41,477.95" style="stroke:#0000FF;stroke-width:1;"/><text fill="#000000" font-family="sans-serif" font-size="13" lengthAdjust="spacing" textLength="24.8066" x="613" y="444.0669">XML</text></g><!--link xmlParser to normalisation--><g class="link" data-entity-1="ent0014" data-entity-2="ent0016" data-link-type="dependency" data-source-line="67" id="lnk44"><path d="M358.89,477.99 C367.14,464.24 379.25,448.74 395,441 C424.36,426.57 499.8646,452.4033 556.9446,475.6933" fill="none" id="xmlParser-to-normalisation" style="stroke:#0000FF;stroke-width:1;"/><polygon fill="#0000FF" points="562.5,477.96,555.6781,470.8564,557.8705,476.0711,552.6558,478.2635,562.5,477.96" style="stroke:#0000FF;stroke-width:1;"/><text fill="#000000" font-family="sans-serif" font-size="13" lengthAdjust="spacing" textLength="24.8066" x="396" y="444.0669">XML</text></g><!--link xmlParser2 to decoration--><g class="link" data-entity-1="ent0015" data-entity-2="ent0017" data-link-type="dependency" data-source-line="68" id="lnk45"><path d="M446.88,401.13 C447.4,432.45 450.44,486.73 464,531 C474.27,564.52 491.0022,594.5832 505.5022,617.6032" fill="none" id="xmlParser2-to-decoration" style="stroke:#181818;stroke-width:1;"/><polygon fill="#181818" points="508.7,622.68,507.2878,612.9329,506.0352,618.4493,500.5187,617.1967,508.7,622.68" style="stroke:#181818;stroke-width:1;"/><text fill="#000000" font-family="sans-serif" font-size="13" lengthAdjust="spacing" textLength="78.4761" x="465" y="501.5669">event-logging</text><text fill="#000000" font-family="sans-serif" font-size="13" lengthAdjust="spacing" textLength="24.8066" x="491.8347" y="516.6997">XML</text></g><!--link normalisation to decoration--><g class="link" data-entity-1="ent0016" data-entity-2="ent0017" data-link-type="dependency" data-source-line="69" id="lnk46"><path d="M605.66,531.07 C588.11,556.93 564.4983,591.7446 546.8883,617.7046" fill="none" id="normalisation-to-decoration" style="stroke:#181818;stroke-width:1;"/><polygon fill="#181818" points="543.52,622.67,551.8826,617.4675,546.3269,618.5322,545.2621,612.9764,543.52,622.67" style="stroke:#181818;stroke-width:1;"/><text fill="#000000" font-family="sans-serif" font-size="13" lengthAdjust="spacing" textLength="78.4761" x="584" y="574.0669">event-logging</text><text fill="#000000" font-family="sans-serif" font-size="13" lengthAdjust="spacing" textLength="24.8066" x="610.8347" y="589.1997">XML</text></g><!--reverse link decoration to refDataStore--><g class="link" data-entity-1="ent0017" data-entity-2="ent0029" data-link-type="dependency" data-source-line="70" id="lnk47"><path d="M581.3245,679.4355 C594.6045,687.7555 603.16,694.62 614,706 C631.09,723.93 644.61,748.53 653.58,767.79" fill="none" id="decoration-backto-refDataStore" style="stroke:#808080;stroke-width:1;"/><polygon fill="#808080" points="576.24,676.25,581.7432,684.4179,580.4771,678.9046,585.9905,677.6386,576.24,676.25" style="stroke:#808080;stroke-width:1;"/><text fill="#000000" font-family="sans-serif" font-size="13" lengthAdjust="spacing" textLength="43.1133" x="637" y="726.5669">Lookup</text></g><!--link decoration to producerTranslation--><g class="link" data-entity-1="ent0017" data-entity-2="ent0024" data-link-type="dependency" data-source-line="71" id="lnk48"><path d="M591.19,667.18 C621.88,676.4 658.39,689.39 689,706 C722.61,724.24 751.9962,748.1307 774.5862,768.4207" fill="none" id="decoration-to-producerTranslation" style="stroke:#181818;stroke-width:1;"/><polygon fill="#181818" points="779.05,772.43,775.0272,763.4402,775.3302,769.0889,769.6814,769.3919,779.05,772.43" style="stroke:#181818;stroke-width:1;"/><text fill="#000000" font-family="sans-serif" font-size="13" lengthAdjust="spacing" textLength="106.6597" x="737" y="726.5669">event-logging XML</text></g><!--link decoration to indexing--><g class="link" data-entity-1="ent0017" data-entity-2="ent0018" data-link-type="dependency" data-source-line="72" id="lnk49"><path d="M526,676.19 C526,703.1 526,739.12 526,766.11" fill="none" id="decoration-to-indexing" style="stroke:#181818;stroke-width:1;"/><polygon fill="#181818" points="526,772.11,530,763.11,526,767.11,522,763.11,526,772.11" style="stroke:#181818;stroke-width:1;"/><text fill="#000000" font-family="sans-serif" font-size="13" lengthAdjust="spacing" textLength="78.4761" x="527" y="719.0669">event-logging</text><text fill="#000000" font-family="sans-serif" font-size="13" lengthAdjust="spacing" textLength="24.8066" x="553.8347" y="734.1997">XML</text></g><!--link decoration to analytic--><g class="link" data-entity-1="ent0017" data-entity-2="ent0019" data-link-type="dependency" data-source-line="73" id="lnk50"><path d="M591.04,651.82 C658.98,655.38 767.26,667.33 852,706 C886.57,721.78 915.0995,746.6854 936.1595,767.9654" fill="none" id="decoration-to-analytic" style="stroke:#181818;stroke-width:1;"/><polygon fill="#181818" points="940.38,772.23,936.8923,763.0194,936.8629,768.6761,931.2061,768.6468,940.38,772.23" style="stroke:#181818;stroke-width:1;"/><text fill="#000000" font-family="sans-serif" font-size="13" lengthAdjust="spacing" textLength="78.4761" x="903" y="719.0669">event-logging</text><text fill="#000000" font-family="sans-serif" font-size="13" lengthAdjust="spacing" textLength="24.8066" x="929.8347" y="734.1997">XML</text></g><!--link decoration to flattener--><g class="link" data-entity-1="ent0017" data-entity-2="ent0020" data-link-type="dependency" data-source-line="74" id="lnk51"><path d="M460.94,660.93 C419.55,669.29 365.7,683.43 322,706 C288.69,723.2 260.5178,747.3735 239.1878,768.0535" fill="none" id="decoration-to-flattener" style="stroke:#181818;stroke-width:1;"/><polygon fill="#181818" points="234.88,772.23,244.126,768.8371,238.4698,768.7496,238.5573,763.0934,234.88,772.23" style="stroke:#181818;stroke-width:1;"/><text fill="#000000" font-family="sans-serif" font-size="13" lengthAdjust="spacing" textLength="78.4761" x="323" y="719.0669">event-logging</text><text fill="#000000" font-family="sans-serif" font-size="13" lengthAdjust="spacing" textLength="24.8066" x="349.8347" y="734.1997">XML</text></g><!--link decoration to statsXslt--><g class="link" data-entity-1="ent0017" data-entity-2="ent0021" data-link-type="dependency" data-source-line="75" id="lnk52"><path d="M478.56,676.11 C464.74,684.68 450.12,694.9 438,706 C416.54,725.66 400.2364,747.5532 387.2664,767.1932" fill="none" id="decoration-to-statsXslt" style="stroke:#181818;stroke-width:1;"/><polygon fill="#181818" points="383.96,772.2,392.2574,766.8941,386.7153,768.0277,385.5818,762.4856,383.96,772.2" style="stroke:#181818;stroke-width:1;"/><text fill="#000000" font-family="sans-serif" font-size="13" lengthAdjust="spacing" textLength="78.4761" x="439" y="719.0669">event-logging</text><text fill="#000000" font-family="sans-serif" font-size="13" lengthAdjust="spacing" textLength="24.8066" x="465.8347" y="734.1997">XML</text></g><!--link decoration to xmlWriter--><g class="link" data-entity-1="ent0017" data-entity-2="ent0026" data-link-type="dependency" data-source-line="76" id="lnk53"><path d="M460.77,651.86 C390.7,655.42 277.37,667.33 188,706 C146.32,724.04 110.453,755.5081 88.803,776.7481" fill="none" id="decoration-to-xmlWriter" style="stroke:#181818;stroke-width:1;"/><polygon fill="#181818" points="84.52,780.95,93.7458,777.5025,88.0892,777.4484,88.1432,771.7918,84.52,780.95" style="stroke:#181818;stroke-width:1;"/><text fill="#000000" font-family="sans-serif" font-size="13" lengthAdjust="spacing" textLength="78.4761" x="189" y="719.0669">event-logging</text><text fill="#000000" font-family="sans-serif" font-size="13" lengthAdjust="spacing" textLength="24.8066" x="215.8347" y="734.1997">XML</text></g><!--link indexing to indexer--><g class="link" data-entity-1="ent0018" data-entity-2="ent0022" data-link-type="dependency" data-source-line="78" id="lnk54"><path d="M522.27,825.78 C517.78,856.78 511.2294,902.0219 507.3694,928.6919" fill="none" id="indexing-to-indexer" style="stroke:#008000;stroke-width:1;"/><polygon fill="#008000" points="506.51,934.63,511.7579,926.2958,507.2262,929.6816,503.8404,925.1498,506.51,934.63" style="stroke:#008000;stroke-width:1;"/><text fill="#000000" font-family="sans-serif" font-size="13" lengthAdjust="spacing" textLength="44.332" x="517" y="873.0669">records</text><text fill="#000000" font-family="sans-serif" font-size="13" lengthAdjust="spacing" textLength="24.8066" x="526.7627" y="888.1997">XML</text></g><!--link indexing to solrIndexer--><g class="link" data-entity-1="ent0018" data-entity-2="ent0023" data-link-type="dependency" data-source-line="79" id="lnk55"><path d="M545.2,825.6 C552.84,836.1 561.57,848.47 569,860 C585.37,885.41 599.6471,910.7525 609.8571,929.4725" fill="none" id="indexing-to-solrIndexer" style="stroke:#008000;stroke-width:1;"/><polygon fill="#008000" points="612.73,934.74,611.9323,924.9235,610.3359,930.3504,604.909,928.7541,612.73,934.74" style="stroke:#008000;stroke-width:1;"/><text fill="#000000" font-family="sans-serif" font-size="13" lengthAdjust="spacing" textLength="44.332" x="588" y="873.0669">records</text><text fill="#000000" font-family="sans-serif" font-size="13" lengthAdjust="spacing" textLength="24.8066" x="597.7627" y="888.1997">XML</text></g><!--link indexer to index--><g class="link" data-entity-1="ent0022" data-entity-2="ent0030" data-link-type="dependency" data-source-line="80" id="lnk56"><path d="M504,971.07 C504,993.53 504,1027.35 504,1054.91" fill="none" id="indexer-to-index" style="stroke:#808080;stroke-width:1;"/><polygon fill="#808080" points="504,1060.91,508,1051.91,504,1055.91,500,1051.91,504,1060.91" style="stroke:#808080;stroke-width:1;"/><text fill="#000000" font-family="sans-serif" font-size="13" lengthAdjust="spacing" textLength="30.7988" x="505" y="1027.0669">Store</text></g><!--link solrIndexer to solr--><g class="link" data-entity-1="ent0023" data-entity-2="ent0036" data-link-type="dependency" data-source-line="81" id="lnk57"><path d="M622,971.03 C622,1015.76 622,1130.58 622,1179.99" fill="none" id="solrIndexer-to-solr" style="stroke:#808080;stroke-width:1;"/><polygon fill="#808080" points="622,1185.99,626,1176.99,622,1180.99,618,1176.99,622,1185.99" style="stroke:#808080;stroke-width:1;"/><text fill="#000000" font-family="sans-serif" font-size="13" lengthAdjust="spacing" textLength="30.7988" x="623" y="1096.5669">Store</text></g><!--link statsXslt to statsAggregator--><g class="link" data-entity-1="ent0021" data-entity-2="ent0028" data-link-type="dependency" data-source-line="83" id="lnk58"><path d="M368,825.78 C368,853.82 368,892.36 368,920.34" fill="none" id="statsXslt-to-statsAggregator" style="stroke:#008000;stroke-width:1;"/><polygon fill="#008000" points="368,926.34,372,917.34,368,921.34,364,917.34,368,926.34" style="stroke:#008000;stroke-width:1;"/><text fill="#000000" font-family="sans-serif" font-size="13" lengthAdjust="spacing" textLength="78.6411" x="369" y="880.5669">statistics XML</text></g><!--link statsAggregator to statsStore--><g class="link" data-entity-1="ent0028" data-entity-2="ent0034" data-link-type="dependency" data-source-line="84" id="lnk59"><path d="M368,979.77 C368,1002.71 368,1030.3 368,1054.56" fill="none" id="statsAggregator-to-statsStore" style="stroke:#808080;stroke-width:1;"/><polygon fill="#808080" points="368,1060.56,372,1051.56,368,1055.56,364,1051.56,368,1060.56" style="stroke:#808080;stroke-width:1;"/><text fill="#000000" font-family="sans-serif" font-size="13" lengthAdjust="spacing" textLength="30.7988" x="369" y="1027.0669">Store</text></g><!--link producerTranslation to kafkaProducer--><g class="link" data-entity-1="ent0024" data-entity-2="ent0025" data-link-type="dependency" data-source-line="86" id="lnk60"><path d="M779.72,825.75 C771.43,835.6 763.32,847.49 759,860 C751.6,881.45 752.3849,901.4849 755.3949,920.3549" fill="none" id="producerTranslation-to-kafkaProducer" style="stroke:#008000;stroke-width:1;"/><polygon fill="#008000" points="756.34,926.28,758.8724,916.7623,755.5524,921.3424,750.9722,918.0224,756.34,926.28" style="stroke:#008000;stroke-width:1;"/><text fill="#000000" font-family="sans-serif" font-size="13" lengthAdjust="spacing" textLength="79.4917" x="760" y="873.0669">kafka-records</text><text fill="#000000" font-family="sans-serif" font-size="13" lengthAdjust="spacing" textLength="24.8066" x="787.3425" y="888.1997">XML</text></g><!--link kafkaProducer to kafka--><g class="link" data-entity-1="ent0025" data-entity-2="ent0035" data-link-type="dependency" data-source-line="87" id="lnk61"><path d="M762,979.7 C762,1031.44 762,1140.9 762,1184.44" fill="none" id="kafkaProducer-to-kafka" style="stroke:#808080;stroke-width:1;"/><polygon fill="#808080" points="762,1190.44,766,1181.44,762,1185.44,758,1181.44,762,1190.44" style="stroke:#808080;stroke-width:1;"/><text fill="#000000" font-family="sans-serif" font-size="13" lengthAdjust="spacing" textLength="76.5464" x="763" y="1096.5669">Send to topic</text></g><!--link xmlWriter to cookedEventsLog--><g class="link" data-entity-1="ent0026" data-entity-2="ent0011" data-link-type="dependency" data-source-line="89" id="lnk62"><path d="M68.77,780.75 C69.93,753.21 72,697.64 72,650.5 C72,373.5 72,373.5 72,373.5 C72,319.08 100.3794,266.9706 121.4194,235.0306" fill="none" id="xmlWriter-to-cookedEventsLog" style="stroke:#181818;stroke-width:1;"/><polygon fill="#181818" points="124.72,230.02,116.4287,235.3354,121.9695,234.1955,123.1094,239.7363,124.72,230.02" style="stroke:#181818;stroke-width:1;"/><text fill="#000000" font-family="sans-serif" font-size="13" lengthAdjust="spacing" textLength="30.7988" x="96.8386" y="494.0669">Store</text><text fill="#000000" font-family="sans-serif" font-size="13" lengthAdjust="spacing" textLength="78.4761" x="73" y="509.1997">event-logging</text><text fill="#000000" font-family="sans-serif" font-size="13" lengthAdjust="spacing" textLength="24.8066" x="99.8347" y="524.3325">XML</text></g><!--link xmlWriter to metaStore--><g class="link" data-entity-1="ent0026" data-entity-2="ent0032" data-link-type="dependency" data-source-line="90" id="lnk63"><path d="M68,817.14 C68,842.53 68,884.5 68,915.85" fill="none" id="xmlWriter-to-metaStore" style="stroke:#808080;stroke-width:1;"/><polygon fill="#808080" points="68,921.85,72,912.85,68,916.85,64,912.85,68,921.85" style="stroke:#808080;stroke-width:1;"/><text fill="#000000" font-family="sans-serif" font-size="13" lengthAdjust="spacing" textLength="91.2158" x="69" y="880.5669">Event metadata</text></g><!--link flattener to textWriter--><g class="link" data-entity-1="ent0020" data-entity-2="ent0027" data-link-type="dependency" data-source-line="91" id="lnk64"><path d="M210,825.78 C210,856.78 210,901.96 210,928.63" fill="none" id="flattener-to-textWriter" style="stroke:#808080;stroke-width:1;"/><polygon fill="#808080" points="210,934.63,214,925.63,210,929.63,206,925.63,210,934.63" style="stroke:#808080;stroke-width:1;"/><text fill="#000000" font-family="sans-serif" font-size="13" lengthAdjust="spacing" textLength="53.8091" x="211" y="880.5669">Text data</text></g><!--link textWriter to fileSystem--><g class="link" data-entity-1="ent0027" data-entity-2="ent0033" data-link-type="dependency" data-source-line="92" id="lnk65"><path d="M210,971.07 C210,993.53 210,1027.35 210,1054.91" fill="none" id="textWriter-to-fileSystem" style="stroke:#808080;stroke-width:1;"/><polygon fill="#808080" points="210,1060.91,214,1051.91,210,1055.91,206,1051.91,210,1060.91" style="stroke:#808080;stroke-width:1;"/><text fill="#000000" font-family="sans-serif" font-size="13" lengthAdjust="spacing" textLength="53.8091" x="211" y="1027.0669">Text data</text></g><!--link analytic to dataStore2--><g class="link" data-entity-1="ent0019" data-entity-2="ent0031" data-link-type="dependency" data-source-line="93" id="lnk66"><path d="M950.26,825.78 C936.09,852.38 916.822,888.535 901.862,916.605" fill="none" id="analytic-to-dataStore2" style="stroke:#808080;stroke-width:1;"/><polygon fill="#808080" points="899.04,921.9,906.8029,915.8389,901.3916,917.4875,899.743,912.0763,899.04,921.9" style="stroke:#808080;stroke-width:1;"/><text fill="#000000" font-family="sans-serif" font-size="13" lengthAdjust="spacing" textLength="30.7988" x="986.5198" y="873.0669">Store</text><text fill="#000000" font-family="sans-serif" font-size="13" lengthAdjust="spacing" textLength="141.8384" x="931" y="888.1997">(Errors/Warnings/Alerts)</text></g><?plantuml-src fLTHRziW47xdLw3q8Tj3LAcFrZIfwzffMxfETRLMMlP0RUAoO8Y0RAcc_VSTO1jm7JlIyb2Pu_lkZhlZZkeD4rkYI8rBkYOxRkxetfnpLecQ2eCB-4CLGdFTuHv9iQcKt8coa5mgR1GH6hO0YUQShWqs4YjMFHbSCaKBmwH0o7uGKN6APxbHKjRuWkyqw9vXeh5seaQ2_o24uLSIGnw91iPx-CAvaOewjDrmAtooj7PoGob_ntSKcBZvHVPkoUzPj6D_QsOthjYUblYUbUO9BsNbT2losucT58ID2QjzGCD5_YrcNkXVavI7wsLCUQZvKPHNz1S4UC5bLJ5HlLw9IxlMhHg_cjJqAR_v4bl_fAKuGFex5CeBAJUq78xcb9U5uuuwwctElRvRkgPGL0N5DltUOxgstmFilxvavb-9qbHfrFFRibOYtt9csf9pHTG8yCbxeZOV92-fk9LbdssZjX9UjUF-XB3vvGGJOf8GzpN_FzvPd-YF_P0lx_0LusRWx5-agWbdcjYBk18EUcVlB7SIfr_466_Y1Y0LVH58MaXrG9DFSzaXnlHy52NTGuaSy8SrssCgpWNXpuOL1rIGPdjCnHNW3HLK7T2nRlV7bEG621eiwGDQD03qW-OcqU8JTw-OpTafsMufd1c-riDPT05hge7vRtnoJKksgszKySHUb50kkS8nIuFWup7ChqgMkm9GogQoF72gROEAv6DH-apM6xY2BSkfs5XPPstK9zjSVApQ--1NuomxosAQWVKnl3YbvrMbQ4LWt8Ha1bbFZq-gcqswDyEwThOIlN7MTBN1YTPJieH82T3WyXXgOOBLTB-Ny_DiWdXDKs9DZtCJEX4ucJ_3DA_zHGA1NqumuyW7koxemuOHTFxvvHvI2lSTUniQzGilb5kZu8EYLA38BboExfOa61Jc-kBx2SYUVopUfjCZitM6NhmS9k7jz8s0qMJ9xDX1uOaGeS8OoJ3S39Gy01Onu0mGoKo6smo4n1zGR4Df5QTp8BFGoACMM0uZWrSjS1nsXcramhZ81XnD-OjfGhJzfejOUiMo9Rn4TjiOQXKFDRJK0kuPiAnkKaquOx7TI3e26qRF4U0mOOu0Xzuv14RTWNpqgFZHdj8o_4ZG7Zi8ZSVC0DnNHrl8ldjbBYyePhQOSj6eR44ed3MnsclBcPFuJkBIrWT4JaJT9SEDbQ5YYEsbeojpoqLosXIHdCSt8h058z_-isJabXK8XSHOKF-vxC-_4WCvYuZXLA5NPqw94zXxZq9fHV1eD6ROpKs7ZSGHE6hdMS1svTrlV7xKPBFc1AykbPBmqhadIi0PzEavfyherpE4q3y0?></g></svg>