<?plantuml 1.2026.1?><svg xmlns="http://www.w3.org/2000/svg" xmlns:xlink="http://www.w3.org/1999/xlink" contentStyleType="text/css" data-diagram-type="DESCRIPTION" height="658px" preserveAspectRatio="none" style="width:1756px;height:658px;background:#FFFFFF;" version="1.1" viewBox="0 0 1756 658" width="1756px" zoomAndPan="magnify"><defs/><g><g class="cluster" data-qualified-name="..2" data-source-line="6" id="ent0003"><path d="M35.7336,104.946 C41.7494,87.0339 54.891,83.2536 68.4321,97.2293 C78.0246,84.1791 87.6692,80.2861 98.6202,95.7933 C105.1522,82.0007 119.4855,76.6173 129.1536,92.5746 C140.6157,77.6482 152.3177,77.7064 163.1452,93.2819 C175.655,77.9179 188.8911,80.9658 196.3674,98.3831 C212.9753,83.5394 223.6914,89.1772 232.5115,107 C235.4278,105.5867 237.2807,105.8984 237.6817,109.5617 C250.869,119.0162 251.9769,127.812 238.7265,138.2301 C249.7916,146.6127 249.8434,159.7288 236.7645,166.4316 C250.9677,173.6129 253.4769,182.7969 241.851,194.6363 C256.4851,202.7467 253.3411,216.6614 240.886,223.8779 C251.3422,232.0238 251.0727,241.6919 239.8071,248.9012 C256.6033,254.7722 257.5728,267.8397 245.4046,279.0825 C258.2309,288.9152 257.5302,297.2451 244.2854,305.9935 C256.7902,313.8613 259.4378,327.8601 243.438,334.892 C257.6886,343.115 256.3687,355.1752 244.5579,364.3877 C257.4785,373.4974 254.2414,382.5143 242.4946,389.6058 C255.4112,398.0157 255.5383,411.957 240.5268,418.4624 C254.8946,428.8967 253.3418,437.8811 239.4117,447.2181 C250.5076,455.5615 251.8505,467.6052 238.3403,474.9997 C252.0034,491.6637 243.5647,503.0509 225.5115,507 C227.4092,506.2578 228.1869,507.3747 228.1289,509.0862 C219.5913,523.3523 206.3609,523.4627 197.2668,509.6989 C190.1257,524.0397 174.8228,526.8433 165.0639,512.6538 C157.5297,526.2897 142.5014,530.7124 133.5704,514.1084 C120.5304,533.379 109.2932,528.2885 97.0061,513.3047 C87.0772,528.4781 78.2698,526.5561 68.2616,513.3851 C47.1012,531.6622 33.4637,523.1261 25.1615,500 C28.7722,498.7408 31.3118,500.4473 30.3218,504.4835 C15.0355,497.4883 11.6651,483.9834 27.4408,474.0479 C13.6121,466.7233 12.0592,457.4565 24.5499,447.2886 C9.4345,439.4889 9.2078,428.5021 23.6208,419.7076 C12.629,410.3549 11.2658,398.5698 26.4099,391.8321 C9.3623,384.5928 8.2467,369.9943 24.6299,360.8353 C13.1564,353.6787 11.9334,341.3786 23.9371,333.6244 C10.6312,325.8851 9.5216,313.7404 22.0415,304.3298 C8.3147,297.1973 7.1066,288.0376 20.2641,279.0173 C6,267.5317 9.6943,256.5797 24.8272,249.6639 C11.2916,239.4119 11.9638,229.3901 25.7033,219.9421 C12.2045,211.8898 13.913,201.492 25.5899,193.3325 C14.9435,183.6263 14.7125,175.5222 27.4563,167.5063 C12.7835,157.2222 11.6611,147.5451 26.5926,136.438 C9.4376,122.7904 11.4131,107.8547 32.1615,100 C35.3308,99.9621 36.6969,101.9991 35.7336,104.946" fill="#F0FFFF" style="stroke:#181818;stroke-width:1;"/></g><g class="cluster" data-qualified-name="..10" data-source-line="19" id="ent0011"><path d="M548.0836,35.946 C554.0994,18.0339 567.241,14.2536 580.7821,28.2293 C590.3746,15.1791 600.0192,11.2861 610.9702,26.7933 C617.5022,13.0007 631.8355,7.6173 641.5036,23.5746 C652.9657,8.6482 664.6677,8.7064 675.4952,24.2819 C688.005,8.9179 701.2411,11.9658 708.7174,29.3831 C725.3253,14.5394 736.0414,20.1772 744.8615,38 C747.7778,36.5867 749.6307,36.8984 750.0317,40.5617 C763.219,50.0162 764.3269,58.812 751.0765,69.2301 C762.1416,77.6127 762.1934,90.7288 749.1145,97.4316 C763.3177,104.6129 765.8269,113.7969 754.201,125.6363 C768.8351,133.7467 765.6911,147.6614 753.236,154.8779 C763.6922,163.0238 763.4227,172.6919 752.1571,179.9012 C768.9533,185.7722 769.9228,198.8397 757.7546,210.0825 C770.5809,219.9152 769.8802,228.2451 756.6354,236.9935 C769.1402,244.8613 771.7878,258.8601 755.788,265.892 C770.0386,274.115 768.7187,286.1752 756.9079,295.3877 C769.8285,304.4974 766.5914,313.5143 754.8446,320.6058 C767.7612,329.0157 767.8883,342.957 752.8768,349.4624 C767.2446,359.8967 765.6918,368.8811 751.7617,378.2181 C762.8576,386.5615 764.2005,398.6052 750.6903,405.9997 C764.3534,422.6637 755.9147,434.0509 737.8615,438 C739.7592,437.2578 740.5369,438.3747 740.4789,440.0862 C731.9413,454.3523 718.7109,454.4627 709.6168,440.6989 C702.4757,455.0397 687.1728,457.8433 677.4139,443.6538 C669.8797,457.2897 654.8514,461.7124 645.9204,445.1084 C632.8804,464.379 621.6432,459.2885 609.3561,444.3047 C599.4272,459.4781 590.6198,457.5561 580.6116,444.3851 C559.4512,462.6622 545.8137,454.1261 537.5115,431 C541.1222,429.7408 543.6618,431.4473 542.6718,435.4835 C527.3855,428.4883 524.0151,414.9834 539.7908,405.0479 C525.9621,397.7233 524.4092,388.4565 536.8999,378.2886 C521.7845,370.4889 521.5578,359.5021 535.9708,350.7076 C524.979,341.3549 523.6158,329.5698 538.7599,322.8321 C521.7123,315.5928 520.5967,300.9943 536.9799,291.8353 C525.5064,284.6787 524.2834,272.3786 536.2871,264.6244 C522.9812,256.8851 521.8716,244.7404 534.3915,235.3298 C520.6647,228.1973 519.4566,219.0376 532.6141,210.0173 C518.35,198.5317 522.0443,187.5797 537.1772,180.6639 C523.6416,170.4119 524.3138,160.3901 538.0533,150.9421 C524.5545,142.8898 526.263,132.492 537.9399,124.3325 C527.2935,114.6263 527.0625,106.5222 539.8063,98.5063 C525.1335,88.2222 524.0111,78.5451 538.9426,67.438 C521.7876,53.7904 523.7631,38.8547 544.5115,31 C547.6808,30.9621 549.0469,32.9991 548.0836,35.946" fill="#F0FFFF" style="stroke:#181818;stroke-width:1;"/></g><!--cluster stroom--><g class="cluster" data-qualified-name="stroom" data-source-line="28" id="ent0018"><rect fill="#F5F5F5" height="502" rx="2.5" ry="2.5" style="stroke:#181818;stroke-width:1;" width="930.09" x="820.8615" y="7"/><text fill="#000000" font-family="sans-serif" font-size="14" font-weight="bold" lengthAdjust="spacing" textLength="116.8672" x="1227.4729" y="21.9951">Stroom cluster</text></g><!--cluster stroomProxyLocal--><g class="cluster" data-qualified-name="stroom.stroomProxyLocal" data-source-line="29" id="ent0019"><rect fill="#F5F5F5" height="168" rx="2.5" ry="2.5" style="stroke:#181818;stroke-width:1;" width="169" x="844.8615" y="217"/><text fill="#000000" font-family="sans-serif" font-size="14" font-weight="bold" lengthAdjust="spacing" textLength="153.2754" x="852.7238" y="231.9951">Local Stroom Proxy</text></g><!--cluster stroomProxyRemote--><g class="cluster" data-qualified-name="stroomProxyRemote" data-source-line="46" id="ent0031"><rect fill="#F5F5F5" height="239" rx="2.5" ry="2.5" style="stroke:#181818;stroke-width:1;" width="188" x="308.5115" y="277"/><text fill="#000000" font-family="sans-serif" font-size="14" font-weight="bold" lengthAdjust="spacing" textLength="172.8604" x="316.0813" y="291.9951">Remote Stroom Proxy</text></g><!--entity rawFixedWidthLog--><g class="entity" data-qualified-name="..2.rawFixedWidthLog" data-source-line="7" id="ent0004"><path d="M62.4015,110.35 L62.4015,141.6469 A2.5,2.5 0 0 0 64.9015,144.1469 L192.7628,144.1469 A2.5,2.5 0 0 0 195.2628,141.6469 L195.2628,117.85 L185.2628,107.85 L64.9015,107.85 A2.5,2.5 0 0 0 62.4015,110.35" fill="#ADD8E6" style="stroke:#181818;stroke-width:0.5;"/><path d="M185.2628,107.85 L185.2628,115.35 A2.5,2.5 0 0 0 187.7628,117.85 L195.2628,117.85" fill="#ADD8E6" style="stroke:#181818;stroke-width:0.5;"/><text fill="#000000" font-family="sans-serif" font-size="14" lengthAdjust="spacing" textLength="112.8613" x="72.4015" y="130.8451">Fixed Width Log</text></g><!--entity rawCsvLog--><g class="entity" data-qualified-name="..2.rawCsvLog" data-source-line="8" id="ent0005"><path d="M89.8615,181.35 L89.8615,212.6469 A2.5,2.5 0 0 0 92.3615,215.1469 L165.3029,215.1469 A2.5,2.5 0 0 0 167.8029,212.6469 L167.8029,188.85 L157.8029,178.85 L92.3615,178.85 A2.5,2.5 0 0 0 89.8615,181.35" fill="#ADD8E6" style="stroke:#181818;stroke-width:0.5;"/><path d="M157.8029,178.85 L157.8029,186.35 A2.5,2.5 0 0 0 160.3029,188.85 L167.8029,188.85" fill="#ADD8E6" style="stroke:#181818;stroke-width:0.5;"/><text fill="#000000" font-family="sans-serif" font-size="14" lengthAdjust="spacing" textLength="57.9414" x="99.8615" y="201.8451">CSV Log</text></g><!--entity rawJsonLog--><g class="entity" data-qualified-name="..2.rawJsonLog" data-source-line="9" id="ent0006"><path d="M86.7315,252.35 L86.7315,283.6469 A2.5,2.5 0 0 0 89.2315,286.1469 L168.4414,286.1469 A2.5,2.5 0 0 0 170.9414,283.6469 L170.9414,259.85 L160.9414,249.85 L89.2315,249.85 A2.5,2.5 0 0 0 86.7315,252.35" fill="#ADD8E6" style="stroke:#181818;stroke-width:0.5;"/><path d="M160.9414,249.85 L160.9414,257.35 A2.5,2.5 0 0 0 163.4414,259.85 L170.9414,259.85" fill="#ADD8E6" style="stroke:#181818;stroke-width:0.5;"/><text fill="#000000" font-family="sans-serif" font-size="14" lengthAdjust="spacing" textLength="64.21" x="96.7315" y="272.8451">JSON Log</text></g><!--entity rawXmlLog--><g class="entity" data-qualified-name="..2.rawXmlLog" data-source-line="10" id="ent0007"><path d="M89.2515,323.35 L89.2515,354.6469 A2.5,2.5 0 0 0 91.7515,357.1469 L165.9234,357.1469 A2.5,2.5 0 0 0 168.4234,354.6469 L168.4234,330.85 L158.4234,320.85 L91.7515,320.85 A2.5,2.5 0 0 0 89.2515,323.35" fill="#ADD8E6" style="stroke:#181818;stroke-width:0.5;"/><path d="M158.4234,320.85 L158.4234,328.35 A2.5,2.5 0 0 0 160.9234,330.85 L168.4234,330.85" fill="#ADD8E6" style="stroke:#181818;stroke-width:0.5;"/><text fill="#000000" font-family="sans-serif" font-size="14" lengthAdjust="spacing" textLength="59.1719" x="99.2515" y="343.8451">XML Log</text></g><!--entity rawEventsLog--><g class="entity" data-qualified-name="..2.rawEventsLog" data-source-line="11" id="ent0008"><path d="M33.1615,394.35 L33.1615,425.6469 A2.5,2.5 0 0 0 35.6615,428.1469 L222.0111,428.1469 A2.5,2.5 0 0 0 224.5111,425.6469 L224.5111,401.85 L214.5111,391.85 L35.6615,391.85 A2.5,2.5 0 0 0 33.1615,394.35" fill="#ADD8E6" style="stroke:#181818;stroke-width:0.5;"/><path d="M214.5111,391.85 L214.5111,399.35 A2.5,2.5 0 0 0 217.0111,401.85 L224.5111,401.85" fill="#ADD8E6" style="stroke:#181818;stroke-width:0.5;"/><text fill="#000000" font-family="sans-serif" font-size="14" lengthAdjust="spacing" textLength="171.3496" x="43.1615" y="414.8451">XML (event-logging) Log</text></g><!--entity refDataLog--><g class="entity" data-qualified-name="..2.refDataLog" data-source-line="12" id="ent0009"><path d="M64.1815,465.35 L64.1815,496.6469 A2.5,2.5 0 0 0 66.6815,499.1469 L190.995,499.1469 A2.5,2.5 0 0 0 193.495,496.6469 L193.495,472.85 L183.495,462.85 L66.6815,462.85 A2.5,2.5 0 0 0 64.1815,465.35" fill="#ADD8E6" style="stroke:#181818;stroke-width:0.5;"/><path d="M183.495,462.85 L183.495,470.35 A2.5,2.5 0 0 0 185.995,472.85 L193.495,472.85" fill="#ADD8E6" style="stroke:#181818;stroke-width:0.5;"/><text fill="#000000" font-family="sans-serif" font-size="14" lengthAdjust="spacing" textLength="109.3135" x="74.1815" y="485.8451">Reference Data</text></g><!--entity rawFixedWidthLog2--><g class="entity" data-qualified-name="..10.rawFixedWidthLog2" data-source-line="20" id="ent0012"><path d="M574.7515,41.35 L574.7515,72.6469 A2.5,2.5 0 0 0 577.2515,75.1469 L705.1128,75.1469 A2.5,2.5 0 0 0 707.6128,72.6469 L707.6128,48.85 L697.6128,38.85 L577.2515,38.85 A2.5,2.5 0 0 0 574.7515,41.35" fill="#ADD8E6" style="stroke:#181818;stroke-width:0.5;"/><path d="M697.6128,38.85 L697.6128,46.35 A2.5,2.5 0 0 0 700.1128,48.85 L707.6128,48.85" fill="#ADD8E6" style="stroke:#181818;stroke-width:0.5;"/><text fill="#000000" font-family="sans-serif" font-size="14" lengthAdjust="spacing" textLength="112.8613" x="584.7515" y="61.8451">Fixed Width Log</text></g><!--entity rawCsvLog2--><g class="entity" data-qualified-name="..10.rawCsvLog2" data-source-line="21" id="ent0013"><path d="M602.2115,112.35 L602.2115,143.6469 A2.5,2.5 0 0 0 604.7115,146.1469 L677.6529,146.1469 A2.5,2.5 0 0 0 680.1529,143.6469 L680.1529,119.85 L670.1529,109.85 L604.7115,109.85 A2.5,2.5 0 0 0 602.2115,112.35" fill="#ADD8E6" style="stroke:#181818;stroke-width:0.5;"/><path d="M670.1529,109.85 L670.1529,117.35 A2.5,2.5 0 0 0 672.6529,119.85 L680.1529,119.85" fill="#ADD8E6" style="stroke:#181818;stroke-width:0.5;"/><text fill="#000000" font-family="sans-serif" font-size="14" lengthAdjust="spacing" textLength="57.9414" x="612.2115" y="132.8451">CSV Log</text></g><!--entity rawJsonLog2--><g class="entity" data-qualified-name="..10.rawJsonLog2" data-source-line="22" id="ent0014"><path d="M599.0815,183.35 L599.0815,214.6469 A2.5,2.5 0 0 0 601.5815,217.1469 L680.7914,217.1469 A2.5,2.5 0 0 0 683.2914,214.6469 L683.2914,190.85 L673.2914,180.85 L601.5815,180.85 A2.5,2.5 0 0 0 599.0815,183.35" fill="#ADD8E6" style="stroke:#181818;stroke-width:0.5;"/><path d="M673.2914,180.85 L673.2914,188.35 A2.5,2.5 0 0 0 675.7914,190.85 L683.2914,190.85" fill="#ADD8E6" style="stroke:#181818;stroke-width:0.5;"/><text fill="#000000" font-family="sans-serif" font-size="14" lengthAdjust="spacing" textLength="64.21" x="609.0815" y="203.8451">JSON Log</text></g><!--entity rawXmlLog2--><g class="entity" data-qualified-name="..10.rawXmlLog2" data-source-line="23" id="ent0015"><path d="M601.6015,254.35 L601.6015,285.6469 A2.5,2.5 0 0 0 604.1015,288.1469 L678.2734,288.1469 A2.5,2.5 0 0 0 680.7734,285.6469 L680.7734,261.85 L670.7734,251.85 L604.1015,251.85 A2.5,2.5 0 0 0 601.6015,254.35" fill="#ADD8E6" style="stroke:#181818;stroke-width:0.5;"/><path d="M670.7734,251.85 L670.7734,259.35 A2.5,2.5 0 0 0 673.2734,261.85 L680.7734,261.85" fill="#ADD8E6" style="stroke:#181818;stroke-width:0.5;"/><text fill="#000000" font-family="sans-serif" font-size="14" lengthAdjust="spacing" textLength="59.1719" x="611.6015" y="274.8451">XML Log</text></g><!--entity rawEventsLog2--><g class="entity" data-qualified-name="..10.rawEventsLog2" data-source-line="24" id="ent0016"><path d="M545.5115,325.35 L545.5115,356.6469 A2.5,2.5 0 0 0 548.0115,359.1469 L734.3611,359.1469 A2.5,2.5 0 0 0 736.8611,356.6469 L736.8611,332.85 L726.8611,322.85 L548.0115,322.85 A2.5,2.5 0 0 0 545.5115,325.35" fill="#ADD8E6" style="stroke:#181818;stroke-width:0.5;"/><path d="M726.8611,322.85 L726.8611,330.35 A2.5,2.5 0 0 0 729.3611,332.85 L736.8611,332.85" fill="#ADD8E6" style="stroke:#181818;stroke-width:0.5;"/><text fill="#000000" font-family="sans-serif" font-size="14" lengthAdjust="spacing" textLength="171.3496" x="555.5115" y="345.8451">XML (event-logging) Log</text></g><!--entity refDataLog2--><g class="entity" data-qualified-name="..10.refDataLog2" data-source-line="25" id="ent0017"><path d="M576.5315,396.35 L576.5315,427.6469 A2.5,2.5 0 0 0 579.0315,430.1469 L703.345,430.1469 A2.5,2.5 0 0 0 705.845,427.6469 L705.845,403.85 L695.845,393.85 L579.0315,393.85 A2.5,2.5 0 0 0 576.5315,396.35" fill="#ADD8E6" style="stroke:#181818;stroke-width:0.5;"/><path d="M695.845,393.85 L695.845,401.35 A2.5,2.5 0 0 0 698.345,403.85 L705.845,403.85" fill="#ADD8E6" style="stroke:#181818;stroke-width:0.5;"/><text fill="#000000" font-family="sans-serif" font-size="14" lengthAdjust="spacing" textLength="109.3135" x="586.5315" y="416.8451">Reference Data</text></g><!--entity ui--><g class="entity" data-qualified-name="stroom.ui" data-source-line="34" id="ent0022"><rect fill="#FF8C00" height="36.2969" rx="2.5" ry="2.5" style="stroke:#181818;stroke-width:0.5;" width="119.0391" x="1324.4215" y="270.85"/><text fill="#000000" font-family="sans-serif" font-size="14" lengthAdjust="spacing" textLength="99.0391" x="1334.4215" y="293.8451">User Interface</text></g><!--entity dataStore--><g class="entity" data-qualified-name="stroom.dataStore" data-source-line="35" id="ent0023"><path d="M1060.8615,325.2 C1060.8615,315.2 1128.5534,315.2 1128.5534,315.2 C1128.5534,315.2 1196.2453,315.2 1196.2453,325.2 L1196.2453,366.7938 C1196.2453,376.7938 1128.5534,376.7938 1128.5534,376.7938 C1128.5534,376.7938 1060.8615,376.7938 1060.8615,366.7938 L1060.8615,325.2" fill="#FF8C00" style="stroke:#181818;stroke-width:0.5;"/><path d="M1060.8615,325.2 C1060.8615,335.2 1128.5534,335.2 1128.5534,335.2 C1128.5534,335.2 1196.2453,335.2 1196.2453,325.2" fill="none" style="stroke:#181818;stroke-width:0.5;"/><text fill="#000000" font-family="sans-serif" font-size="14" lengthAdjust="spacing" textLength="75.1885" x="1090.9591" y="352.1951">Data Store</text><text fill="#000000" font-family="sans-serif" font-size="14" lengthAdjust="spacing" textLength="110.9336" x="1075.3117" y="368.492">(Raw &amp; cooked)</text></g><!--entity index--><g class="entity" data-qualified-name="stroom.index" data-source-line="36" id="ent0024"><path d="M1613.4415,191.35 C1613.4415,181.35 1670.295,181.35 1670.295,181.35 C1670.295,181.35 1727.1485,181.35 1727.1485,191.35 L1727.1485,216.6469 C1727.1485,226.6469 1670.295,226.6469 1670.295,226.6469 C1670.295,226.6469 1613.4415,226.6469 1613.4415,216.6469 L1613.4415,191.35" fill="#FF8C00" style="stroke:#181818;stroke-width:0.5;"/><path d="M1613.4415,191.35 C1613.4415,201.35 1670.295,201.35 1670.295,201.35 C1670.295,201.35 1727.1485,201.35 1727.1485,191.35" fill="none" style="stroke:#181818;stroke-width:0.5;"/><text fill="#000000" font-family="sans-serif" font-size="14" lengthAdjust="spacing" textLength="93.707" x="1623.4415" y="218.3451">Lucene Index</text></g><!--entity metaStore--><g class="entity" data-qualified-name="stroom.metaStore" data-source-line="37" id="ent0025"><path d="M1622.0315,106.35 C1622.0315,96.35 1670.2922,96.35 1670.2922,96.35 C1670.2922,96.35 1718.553,96.35 1718.553,106.35 L1718.553,131.6469 C1718.553,141.6469 1670.2922,141.6469 1670.2922,141.6469 C1670.2922,141.6469 1622.0315,141.6469 1622.0315,131.6469 L1622.0315,106.35" fill="#FF8C00" style="stroke:#181818;stroke-width:0.5;"/><path d="M1622.0315,106.35 C1622.0315,116.35 1670.2922,116.35 1670.2922,116.35 C1670.2922,116.35 1718.553,116.35 1718.553,106.35" fill="none" style="stroke:#181818;stroke-width:0.5;"/><text fill="#000000" font-family="sans-serif" font-size="14" lengthAdjust="spacing" textLength="76.5215" x="1632.0315" y="133.3451">Meta Store</text></g><!--entity streamProcessor--><g class="entity" data-qualified-name="stroom.streamProcessor" data-source-line="38" id="ent0026"><rect fill="#FF8C00" height="36.2969" rx="2.5" ry="2.5" style="stroke:#181818;stroke-width:0.5;" width="143.3955" x="1312.2415" y="371.85"/><text fill="#000000" font-family="sans-serif" font-size="14" lengthAdjust="spacing" textLength="123.3955" x="1322.2415" y="394.8451">Stream Processor</text></g><!--entity refDataStore--><g class="entity" data-qualified-name="stroom.refDataStore" data-source-line="39" id="ent0027"><path d="M1605.6415,428.35 C1605.6415,418.35 1670.2982,418.35 1670.2982,418.35 C1670.2982,418.35 1734.955,418.35 1734.955,428.35 L1734.955,453.6469 C1734.955,463.6469 1670.2982,463.6469 1670.2982,463.6469 C1670.2982,463.6469 1605.6415,463.6469 1605.6415,453.6469 L1605.6415,428.35" fill="#FF8C00" style="stroke:#181818;stroke-width:0.5;"/><path d="M1605.6415,428.35 C1605.6415,438.35 1670.2982,438.35 1670.2982,438.35 C1670.2982,438.35 1734.955,438.35 1734.955,428.35" fill="none" style="stroke:#181818;stroke-width:0.5;"/><text fill="#000000" font-family="sans-serif" font-size="14" lengthAdjust="spacing" textLength="109.3135" x="1615.6415" y="455.3451">Reference Data</text></g><!--entity statsStore--><g class="entity" data-qualified-name="stroom.statsStore" data-source-line="40" id="ent0028"><path d="M1607.4215,328.35 C1607.4215,318.35 1670.3009,318.35 1670.3009,318.35 C1670.3009,318.35 1733.1803,318.35 1733.1803,328.35 L1733.1803,353.6469 C1733.1803,363.6469 1670.3009,363.6469 1670.3009,363.6469 C1670.3009,363.6469 1607.4215,363.6469 1607.4215,353.6469 L1607.4215,328.35" fill="#FF8C00" style="stroke:#181818;stroke-width:0.5;"/><path d="M1607.4215,328.35 C1607.4215,338.35 1670.3009,338.35 1670.3009,338.35 C1670.3009,338.35 1733.1803,338.35 1733.1803,328.35" fill="none" style="stroke:#181818;stroke-width:0.5;"/><text fill="#000000" font-family="sans-serif" font-size="14" lengthAdjust="spacing" textLength="105.7588" x="1617.4215" y="355.3451">Statistics Store</text></g><!--entity proxyAggregator--><g class="entity" data-qualified-name="stroom.stroomProxyLocal.proxyAggregator" data-source-line="30" id="ent0020"><rect fill="#20B2AA" height="36.2969" rx="2.5" ry="2.5" style="stroke:#181818;stroke-width:0.5;" width="98.9961" x="879.3615" y="251.85"/><text fill="#000000" font-family="sans-serif" font-size="14" lengthAdjust="spacing" textLength="78.9961" x="889.3615" y="274.8451">Aggregator</text></g><!--entity proxyRepo--><g class="entity" data-qualified-name="stroom.stroomProxyLocal.proxyRepo" data-source-line="31" id="ent0021"><path d="M881.3215,333.35 C881.3215,323.35 928.8576,323.35 928.8576,323.35 C928.8576,323.35 976.3937,323.35 976.3937,333.35 L976.3937,358.6469 C976.3937,368.6469 928.8576,368.6469 928.8576,368.6469 C928.8576,368.6469 881.3215,368.6469 881.3215,358.6469 L881.3215,333.35" fill="#20B2AA" style="stroke:#181818;stroke-width:0.5;"/><path d="M881.3215,333.35 C881.3215,343.35 928.8576,343.35 928.8576,343.35 C928.8576,343.35 976.3937,343.35 976.3937,333.35" fill="none" style="stroke:#181818;stroke-width:0.5;"/><text fill="#000000" font-family="sans-serif" font-size="14" lengthAdjust="spacing" textLength="75.0723" x="891.3215" y="360.3451">Repository</text></g><!--entity proxyAggregatorRemote--><g class="entity" data-qualified-name="stroomProxyRemote.proxyAggregatorRemote" data-source-line="47" id="ent0032"><rect fill="#20B2AA" height="36.2969" rx="2.5" ry="2.5" style="stroke:#181818;stroke-width:0.5;" width="98.9961" x="352.5115" y="311.85"/><text fill="#000000" font-family="sans-serif" font-size="14" lengthAdjust="spacing" textLength="78.9961" x="362.5115" y="334.8451">Aggregator</text></g><!--entity proxyForwarderRemote--><g class="entity" data-qualified-name="stroomProxyRemote.proxyForwarderRemote" data-source-line="48" id="ent0033"><rect fill="#20B2AA" height="36.2969" rx="2.5" ry="2.5" style="stroke:#181818;stroke-width:0.5;" width="91.415" x="356.3015" y="463.85"/><text fill="#000000" font-family="sans-serif" font-size="14" lengthAdjust="spacing" textLength="71.415" x="366.3015" y="486.8451">Forwarder</text></g><!--entity proxyRepoRemote--><g class="entity" data-qualified-name="stroomProxyRemote.proxyRepoRemote" data-source-line="49" id="ent0034"><path d="M354.4715,393.35 C354.4715,383.35 402.0076,383.35 402.0076,383.35 C402.0076,383.35 449.5437,383.35 449.5437,393.35 L449.5437,418.6469 C449.5437,428.6469 402.0076,428.6469 402.0076,428.6469 C402.0076,428.6469 354.4715,428.6469 354.4715,418.6469 L354.4715,393.35" fill="#20B2AA" style="stroke:#181818;stroke-width:0.5;"/><path d="M354.4715,393.35 C354.4715,403.35 402.0076,403.35 402.0076,403.35 C402.0076,403.35 449.5437,403.35 449.5437,393.35" fill="none" style="stroke:#181818;stroke-width:0.5;"/><text fill="#000000" font-family="sans-serif" font-size="14" lengthAdjust="spacing" textLength="75.0723" x="364.4715" y="420.3451">Repository</text></g><!--entity kafka--><g class="entity" data-qualified-name="kafka" data-source-line="43" id="ent0029"><rect fill="#90EE90" height="36.2969" rx="2.5" ry="2.5" style="stroke:#181818;stroke-width:0.5;" width="59.375" x="1354.2515" y="524.85"/><text fill="#000000" font-family="sans-serif" font-size="14" lengthAdjust="spacing" textLength="39.375" x="1364.2515" y="547.8451">Kafka</text></g><!--entity solr--><g class="entity" data-qualified-name="solr" data-source-line="44" id="ent0030"><path d="M1360.3915,606.35 C1360.3915,596.35 1383.9403,596.35 1383.9403,596.35 C1383.9403,596.35 1407.4891,596.35 1407.4891,606.35 L1407.4891,631.6469 C1407.4891,641.6469 1383.9403,641.6469 1383.9403,641.6469 C1383.9403,641.6469 1360.3915,641.6469 1360.3915,631.6469 L1360.3915,606.35" fill="#90EE90" style="stroke:#181818;stroke-width:0.5;"/><path d="M1360.3915,606.35 C1360.3915,616.35 1383.9403,616.35 1383.9403,616.35 C1383.9403,616.35 1407.4891,616.35 1407.4891,606.35" fill="none" style="stroke:#181818;stroke-width:0.5;"/><text fill="#000000" font-family="sans-serif" font-size="14" lengthAdjust="spacing" textLength="27.0977" x="1370.3915" y="633.3451">Solr</text></g><!--reverse link proxyRepoRemote to proxyAggregatorRemote--><g class="link" data-entity-1="ent0034" data-entity-2="ent0032" data-link-type="dependency" data-source-line="52" id="lnk36"><path d="M402.0115,377.14 C402.0115,365.52 402.0115,359.89 402.0115,348.27" fill="none" id="proxyRepoRemote-backto-proxyAggregatorRemote" style="stroke:#181818;stroke-width:1;"/><polygon fill="#181818" points="402.0115,383.14,406.0115,374.14,402.0115,378.14,398.0115,374.14,402.0115,383.14" style="stroke:#181818;stroke-width:1;"/></g><!--reverse link proxyForwarderRemote to proxyRepoRemote--><g class="link" data-entity-1="ent0033" data-entity-2="ent0034" data-link-type="dependency" data-source-line="53" id="lnk38"><path d="M402.0115,457.6 C402.0115,446.05 402.0115,440.5 402.0115,428.95" fill="none" id="proxyForwarderRemote-backto-proxyRepoRemote" style="stroke:#181818;stroke-width:1;"/><polygon fill="#181818" points="402.0115,463.6,406.0115,454.6,402.0115,458.6,398.0115,454.6,402.0115,463.6" style="stroke:#181818;stroke-width:1;"/></g><!--link rawFixedWidthLog to proxyAggregatorRemote--><g class="link" data-entity-1="ent0004" data-entity-2="ent0032" data-link-type="dependency" data-source-line="56" id="lnk39"><path d="M195.7215,138.52 C213.7015,143.73 232.6015,150.99 248.5115,161 C312.8915,201.52 363.4007,271.6364 386.1207,306.4264" fill="none" id="rawFixedWidthLog-to-proxyAggregatorRemote" style="stroke:#181818;stroke-width:1;"/><polygon fill="#181818" points="389.4015,311.45,387.8295,301.7274,386.6675,307.2636,381.1313,306.1017,389.4015,311.45" style="stroke:#181818;stroke-width:1;"/><text fill="#000000" font-family="sans-serif" font-size="13" lengthAdjust="spacing" textLength="34.2646" x="257.5115" y="163.8169">POST</text></g><!--link rawCsvLog to proxyAggregatorRemote--><g class="link" data-entity-1="ent0005" data-entity-2="ent0032" data-link-type="dependency" data-source-line="57" id="lnk40"><path d="M168.2415,205.38 C191.9815,211.27 222.7215,220.21 248.5115,232 C296.8815,254.12 343.03,286.1654 372.09,307.8154" fill="none" id="rawCsvLog-to-proxyAggregatorRemote" style="stroke:#181818;stroke-width:1;"/><polygon fill="#181818" points="376.9015,311.4,372.074,302.8154,372.8919,308.4128,367.2945,309.2307,376.9015,311.4" style="stroke:#181818;stroke-width:1;"/><text fill="#000000" font-family="sans-serif" font-size="13" lengthAdjust="spacing" textLength="34.2646" x="257.5115" y="232.2369">POST</text></g><!--link rawXmlLog to proxyAggregatorRemote--><g class="link" data-entity-1="ent0007" data-entity-2="ent0032" data-link-type="dependency" data-source-line="58" id="lnk41"><path d="M168.6915,337.71 C217.0215,336.11 293.5648,333.5696 346.1348,331.8196" fill="none" id="rawXmlLog-to-proxyAggregatorRemote" style="stroke:#181818;stroke-width:1;"/><polygon fill="#181818" points="352.1315,331.62,343.0034,327.9216,347.1342,331.7864,343.2695,335.9172,352.1315,331.62" style="stroke:#181818;stroke-width:1;"/><text fill="#000000" font-family="sans-serif" font-size="13" lengthAdjust="spacing" textLength="34.2646" x="257.5115" y="329.7669">POST</text></g><!--link rawEventsLog to proxyAggregatorRemote--><g class="link" data-entity-1="ent0008" data-entity-2="ent0032" data-link-type="dependency" data-source-line="59" id="lnk42"><path d="M192.9615,391.39 C210.9115,386.09 230.4815,380.32 248.5115,375 C283.1915,364.77 316.5571,354.929 346.4971,346.089" fill="none" id="rawEventsLog-to-proxyAggregatorRemote" style="stroke:#181818;stroke-width:1;"/><polygon fill="#181818" points="352.2515,344.39,342.4872,343.1023,347.4561,345.8059,344.7525,350.7748,352.2515,344.39" style="stroke:#181818;stroke-width:1;"/><text fill="#000000" font-family="sans-serif" font-size="13" lengthAdjust="spacing" textLength="34.2646" x="257.5115" y="358.7069">POST</text></g><!--link rawJsonLog to proxyAggregatorRemote--><g class="link" data-entity-1="ent0006" data-entity-2="ent0032" data-link-type="dependency" data-source-line="60" id="lnk43"><path d="M171.3215,277.49 C219.9815,288.61 294.7123,305.7032 346.3423,317.5032" fill="none" id="rawJsonLog-to-proxyAggregatorRemote" style="stroke:#181818;stroke-width:1;"/><polygon fill="#181818" points="352.1915,318.84,344.3089,312.9353,347.3172,317.726,342.5265,320.7342,352.1915,318.84" style="stroke:#181818;stroke-width:1;"/><text fill="#000000" font-family="sans-serif" font-size="13" lengthAdjust="spacing" textLength="34.2646" x="257.5115" y="293.2069">POST</text></g><!--link refDataLog to proxyAggregatorRemote--><g class="link" data-entity-1="ent0009" data-entity-2="ent0032" data-link-type="dependency" data-source-line="61" id="lnk44"><path d="M193.8215,468.93 C212.3515,463.68 232.0215,456.29 248.5115,446 C273.0615,430.68 278.8015,423.49 292.5115,398 C299.4515,385.09 290.6715,376.87 300.5115,366 C313.8215,351.3 327.7819,344.2115 346.2519,339.0615" fill="none" id="refDataLog-to-proxyAggregatorRemote" style="stroke:#181818;stroke-width:1;"/><polygon fill="#181818" points="352.0315,337.45,342.2878,336.0142,347.2152,338.7929,344.4365,343.7203,352.0315,337.45" style="stroke:#181818;stroke-width:1;"/><text fill="#000000" font-family="sans-serif" font-size="13" lengthAdjust="spacing" textLength="34.2646" x="257.5115" y="394.0669">POST</text></g><!--link proxyForwarderRemote to proxyAggregator--><g class="link" data-entity-1="ent0033" data-entity-2="ent0020" data-link-type="dependency" data-source-line="62" id="lnk45"><path d="M447.9715,492.77 C520.2515,507.41 664.0015,525.18 760.8615,463 C796.3315,440.24 792.5715,419.32 804.8615,379 C809.6215,363.39 802.4915,318.61 812.8615,306 C828.9415,286.45 849.6034,278.3861 873.1534,274.2161" fill="none" id="proxyForwarderRemote-to-proxyAggregator" style="stroke:#181818;stroke-width:1;"/><polygon fill="#181818" points="879.0615,273.17,869.5019,270.8005,874.1381,274.0418,870.8968,278.6779,879.0615,273.17" style="stroke:#181818;stroke-width:1;"/><text fill="#000000" font-family="sans-serif" font-size="13" lengthAdjust="spacing" textLength="34.2646" x="624.1815" y="459.0669">POST</text></g><!--link rawFixedWidthLog2 to proxyAggregator--><g class="link" data-entity-1="ent0012" data-entity-2="ent0020" data-link-type="dependency" data-source-line="65" id="lnk46"><path d="M707.9415,69.72 C725.9315,74.94 744.8615,82.14 760.8615,92 C831.0315,135.22 887.5874,210.5722 912.3374,246.6522" fill="none" id="rawFixedWidthLog2-to-proxyAggregator" style="stroke:#181818;stroke-width:1;"/><polygon fill="#181818" points="915.7315,251.6,913.9389,241.9156,912.9031,247.4769,907.3419,246.441,915.7315,251.6" style="stroke:#181818;stroke-width:1;"/><text fill="#000000" font-family="sans-serif" font-size="13" lengthAdjust="spacing" textLength="34.2646" x="769.8615" y="95.1869">POST</text></g><!--link rawCsvLog2 to proxyAggregator--><g class="link" data-entity-1="ent0013" data-entity-2="ent0020" data-link-type="dependency" data-source-line="66" id="lnk47"><path d="M680.5915,136.39 C704.3215,142.29 735.0715,151.23 760.8615,163 C815.0515,187.74 867.4529,224.3215 898.8629,247.7615" fill="none" id="rawCsvLog2-to-proxyAggregator" style="stroke:#181818;stroke-width:1;"/><polygon fill="#181818" points="903.6715,251.35,898.8509,242.7615,899.6643,248.3596,894.0662,249.173,903.6715,251.35" style="stroke:#181818;stroke-width:1;"/><text fill="#000000" font-family="sans-serif" font-size="13" lengthAdjust="spacing" textLength="34.2646" x="769.8615" y="163.6169">POST</text></g><!--link rawXmlLog2 to proxyAggregator--><g class="link" data-entity-1="ent0015" data-entity-2="ent0020" data-link-type="dependency" data-source-line="67" id="lnk48"><path d="M681.0115,270 C732.4215,270 817.1015,270 873.0815,270" fill="none" id="rawXmlLog2-to-proxyAggregator" style="stroke:#181818;stroke-width:1;"/><polygon fill="#181818" points="879.0815,270,870.0815,266,874.0815,270,870.0815,274,879.0815,270" style="stroke:#181818;stroke-width:1;"/><text fill="#000000" font-family="sans-serif" font-size="13" lengthAdjust="spacing" textLength="34.2646" x="769.8615" y="266.0669">POST</text></g><!--link rawEventsLog2 to proxyAggregator--><g class="link" data-entity-1="ent0016" data-entity-2="ent0020" data-link-type="dependency" data-source-line="68" id="lnk49"><path d="M716.8715,322.44 C768.1215,309.7 828.8287,294.6175 873.3587,283.5475" fill="none" id="rawEventsLog2-to-proxyAggregator" style="stroke:#181818;stroke-width:1;"/><polygon fill="#181818" points="879.1815,282.1,869.4823,280.3894,874.3292,283.3063,871.4123,288.1531,879.1815,282.1" style="stroke:#181818;stroke-width:1;"/><text fill="#000000" font-family="sans-serif" font-size="13" lengthAdjust="spacing" textLength="34.2646" x="769.8615" y="297.3169">POST</text></g><!--link rawJsonLog2 to proxyAggregator--><g class="link" data-entity-1="ent0014" data-entity-2="ent0020" data-link-type="dependency" data-source-line="69" id="lnk50"><path d="M683.7215,209.33 C735.5615,222.21 818.2586,242.763 873.2686,256.433" fill="none" id="rawJsonLog2-to-proxyAggregator" style="stroke:#181818;stroke-width:1;"/><polygon fill="#181818" points="879.0915,257.88,871.3218,251.8276,874.2391,256.6742,869.3925,259.5914,879.0915,257.88" style="stroke:#181818;stroke-width:1;"/><text fill="#000000" font-family="sans-serif" font-size="13" lengthAdjust="spacing" textLength="34.2646" x="769.8615" y="228.4369">POST</text></g><!--link refDataLog2 to proxyAggregator--><g class="link" data-entity-1="ent0017" data-entity-2="ent0020" data-link-type="dependency" data-source-line="70" id="lnk51"><path d="M706.2015,399.39 C724.6415,394.13 744.2415,386.88 760.8615,377 C784.6415,362.88 790.7215,356.77 804.8615,333 C811.2615,322.25 804.0815,314.92 812.8615,306 C830.2515,288.34 850.3097,280.4951 873.1397,275.8951" fill="none" id="refDataLog2-to-proxyAggregator" style="stroke:#181818;stroke-width:1;"/><polygon fill="#181818" points="879.0215,274.71,869.4087,272.5665,874.12,275.6976,870.9889,280.4089,879.0215,274.71" style="stroke:#181818;stroke-width:1;"/><text fill="#000000" font-family="sans-serif" font-size="13" lengthAdjust="spacing" textLength="34.2646" x="769.8615" y="329.0669">POST</text></g><!--reverse link proxyRepo to proxyAggregator--><g class="link" data-entity-1="ent0021" data-entity-2="ent0020" data-link-type="dependency" data-source-line="72" id="lnk53"><path d="M928.8615,317.14 C928.8615,305.52 928.8615,299.89 928.8615,288.27" fill="none" id="proxyRepo-backto-proxyAggregator" style="stroke:#181818;stroke-width:1;"/><polygon fill="#181818" points="928.8615,323.14,932.8615,314.14,928.8615,318.14,924.8615,314.14,928.8615,323.14" style="stroke:#181818;stroke-width:1;"/></g><!--link proxyRepo to dataStore--><g class="link" data-entity-1="ent0021" data-entity-2="ent0023" data-link-type="dependency" data-source-line="73" id="lnk54"><path d="M976.7115,346 C1001.7115,346 1026.9315,346 1054.4615,346" fill="none" id="proxyRepo-to-dataStore" style="stroke:#181818;stroke-width:1;"/><polygon fill="#181818" points="1060.4615,346,1051.4615,342,1055.4615,346,1051.4615,350,1060.4615,346" style="stroke:#181818;stroke-width:1;"/></g><!--reverse link kafka to streamProcessor--><g class="link" data-entity-1="ent0029" data-entity-2="ent0026" data-link-type="dependency" data-source-line="75" id="lnk56"><path d="M1383.9415,518.55 C1383.9415,489.14 1383.9415,437.97 1383.9415,408.52" fill="none" id="kafka-backto-streamProcessor" style="stroke:#0000FF;stroke-width:1;"/><polygon fill="#0000FF" points="1383.9415,524.55,1387.9415,515.55,1383.9415,519.55,1379.9415,515.55,1383.9415,524.55" style="stroke:#0000FF;stroke-width:1;"/><text fill="#000000" font-family="sans-serif" font-size="13" lengthAdjust="spacing" textLength="53.187" x="1345.9415" y="471.0669">produce</text></g><!--link streamProcessor to solr--><g class="link" data-entity-1="ent0026" data-entity-2="ent0030" data-link-type="dependency" data-source-line="76" id="lnk57"><path d="M1351.6615,408.4 C1302.0015,439.14 1216.3815,503.3 1254.2415,561.5 C1277.6815,597.53 1323.5108,610.1877 1354.0808,615.2077" fill="none" id="streamProcessor-to-solr" style="stroke:#0000FF;stroke-width:1;"/><polygon fill="#0000FF" points="1360.0015,616.18,1351.7686,610.7745,1355.0676,615.3698,1350.4723,618.6687,1360.0015,616.18" style="stroke:#0000FF;stroke-width:1;"/></g><!--link streamProcessor to dataStore--><g class="link" data-entity-1="ent0026" data-entity-2="ent0023" data-link-type="dependency" data-source-line="77" id="lnk58"><path d="M1312.1115,377.7 C1275.9015,371.41 1238.0029,364.837 1202.3729,358.647" fill="none" id="streamProcessor-to-dataStore" style="stroke:#0000FF;stroke-width:1;"/><polygon fill="#0000FF" points="1196.4615,357.62,1204.644,363.1015,1201.3877,358.4758,1206.0133,355.2195,1196.4615,357.62" style="stroke:#0000FF;stroke-width:1;"/><text fill="#000000" font-family="sans-serif" font-size="13" lengthAdjust="spacing" textLength="34.6455" x="1237.2415" y="360.1269">Store</text></g><!--link dataStore to streamProcessor--><g class="link" data-entity-1="ent0023" data-entity-2="ent0026" data-link-type="dependency" data-source-line="83" id="lnk64"><path d="M1177.3815,377.08 C1192.4115,385.21 1209.4815,392.85 1226.2415,397 C1253.7315,403.81 1278.7722,404.4279 1305.9122,402.1679" fill="none" id="dataStore-to-streamProcessor" style="stroke:#0000FF;stroke-width:1;"/><polygon fill="#0000FF" points="1311.8915,401.67,1302.5906,398.4307,1306.9087,402.0849,1303.2545,406.4031,1311.8915,401.67" style="stroke:#0000FF;stroke-width:1;"/><text fill="#000000" font-family="sans-serif" font-size="13" lengthAdjust="spacing" textLength="54.7739" x="1227.2415" y="393.0669">Retrieve</text></g><!--link streamProcessor to index--><g class="link" data-entity-1="ent0026" data-entity-2="ent0024" data-link-type="dependency" data-source-line="78" id="lnk59"><path d="M1415.7815,371.42 C1435.4815,359.83 1461.7215,344.91 1485.6415,333 C1524.6615,313.57 1539.3515,318.15 1575.6415,294 C1604.1715,275.01 1627.8283,251.3003 1645.5983,231.5503" fill="none" id="streamProcessor-to-index" style="stroke:#0000FF;stroke-width:1;"/><polygon fill="#0000FF" points="1649.6115,227.09,1640.6182,231.105,1646.2672,230.8069,1646.5653,236.4559,1649.6115,227.09" style="stroke:#0000FF;stroke-width:1;"/><text fill="#000000" font-family="sans-serif" font-size="13" lengthAdjust="spacing" textLength="88.9624" x="1486.6415" y="290.0669">Index records</text></g><!--link streamProcessor to refDataStore--><g class="link" data-entity-1="ent0026" data-entity-2="ent0027" data-link-type="dependency" data-source-line="79" id="lnk60"><path d="M1455.9615,402.74 C1501.8615,410.97 1555.1759,420.5299 1599.5759,428.4999" fill="none" id="streamProcessor-to-refDataStore" style="stroke:#0000FF;stroke-width:1;"/><polygon fill="#0000FF" points="1605.4815,429.56,1597.3298,424.0328,1600.5601,428.6766,1595.9163,431.9069,1605.4815,429.56" style="stroke:#0000FF;stroke-width:1;"/><text fill="#000000" font-family="sans-serif" font-size="13" lengthAdjust="spacing" textLength="34.6455" x="1513.6415" y="405.4969">Store</text></g><!--link refDataStore to streamProcessor--><g class="link" data-entity-1="ent0027" data-entity-2="ent0026" data-link-type="dependency" data-source-line="82" id="lnk63"><path d="M1605.3615,452.62 C1569.5815,456.85 1524.4815,458.39 1485.6415,448 C1456.9915,440.34 1432.9215,425.8407 1413.4615,411.9207" fill="none" id="refDataStore-to-streamProcessor" style="stroke:#0000FF;stroke-width:1;"/><polygon fill="#0000FF" points="1408.5815,408.43,1413.5744,416.9195,1412.6482,411.339,1418.2287,410.4128,1408.5815,408.43" style="stroke:#0000FF;stroke-width:1;"/><text fill="#000000" font-family="sans-serif" font-size="13" lengthAdjust="spacing" textLength="47.1694" x="1507.1415" y="444.0669">Lookup</text></g><!--link streamProcessor to metaStore--><g class="link" data-entity-1="ent0026" data-entity-2="ent0025" data-link-type="dependency" data-source-line="80" id="lnk61"><path d="M1410.9015,371.49 C1425.8115,359.67 1443.8615,343.2 1455.6415,325 C1478.5515,289.61 1459.3915,268 1485.6415,235 C1514.8215,198.32 1535.9915,205.02 1575.6415,180 C1595.1715,167.68 1611.7647,156.9211 1629.2947,145.4211" fill="none" id="streamProcessor-to-metaStore" style="stroke:#0000FF;stroke-width:1;"/><polygon fill="#0000FF" points="1634.3115,142.13,1624.5922,143.7221,1630.1308,144.8726,1628.9803,150.4112,1634.3115,142.13" style="stroke:#0000FF;stroke-width:1;"/><text fill="#000000" font-family="sans-serif" font-size="13" lengthAdjust="spacing" textLength="34.6455" x="1513.6415" y="176.0669">Store</text></g><!--link streamProcessor to statsStore--><g class="link" data-entity-1="ent0026" data-entity-2="ent0028" data-link-type="dependency" data-source-line="81" id="lnk62"><path d="M1455.9615,377.76 C1502.5215,369.74 1556.8687,360.3795 1601.4687,352.6895" fill="none" id="streamProcessor-to-statsStore" style="stroke:#0000FF;stroke-width:1;"/><polygon fill="#0000FF" points="1607.3815,351.67,1597.8327,349.2574,1602.4542,352.5196,1599.192,357.1411,1607.3815,351.67" style="stroke:#0000FF;stroke-width:1;"/><text fill="#000000" font-family="sans-serif" font-size="13" lengthAdjust="spacing" textLength="34.6455" x="1513.6415" y="354.3169">Store</text></g><!--reverse link streamProcessor to ui--><g class="link" data-entity-1="ent0026" data-entity-2="ent0022" data-link-type="dependency" data-source-line="85" id="lnk66"><path d="M1383.9415,365.48 C1383.9415,347.25 1383.9415,325.59 1383.9415,307.41" fill="none" id="streamProcessor-backto-ui" style="stroke:#808080;stroke-width:1;"/><polygon fill="#808080" points="1383.9415,371.48,1387.9415,362.48,1383.9415,366.48,1379.9415,362.48,1383.9415,371.48" style="stroke:#808080;stroke-width:1;"/><text fill="#808080" font-family="sans-serif" font-size="13" lengthAdjust="spacing" textLength="51.6382" x="1346.9415" y="344.0669">Manage</text></g><!--reverse link ui to index--><g class="link" data-entity-1="ent0022" data-entity-2="ent0024" data-link-type="dependency" data-source-line="87" id="lnk67"><path d="M1394.5009,265.322 C1407.7109,234.742 1436.6915,179.45 1485.6415,155 C1534.6515,130.53 1597.3215,158.4 1635.3315,181.02" fill="none" id="ui-backto-index" style="stroke:#808080;stroke-width:1;"/><polygon fill="#808080" points="1392.1215,270.83,1399.3626,264.1542,1394.1043,266.24,1392.0185,260.9817,1392.1215,270.83" style="stroke:#808080;stroke-width:1;"/><text fill="#808080" font-family="sans-serif" font-size="13" lengthAdjust="spacing" textLength="39.5078" x="1511.1415" y="141.5569">Query</text></g><!--reverse link ui to metaStore--><g class="link" data-entity-1="ent0022" data-entity-2="ent0025" data-link-type="dependency" data-source-line="88" id="lnk68"><path d="M1391.123,264.6377 C1401.263,228.0277 1427.8215,153.06 1485.6415,120 C1527.0215,96.34 1582.7015,99.97 1621.8715,107.09" fill="none" id="ui-backto-metaStore" style="stroke:#808080;stroke-width:1;"/><polygon fill="#808080" points="1389.5215,270.42,1395.7787,262.8142,1390.8561,265.6014,1388.0689,260.6788,1389.5215,270.42" style="stroke:#808080;stroke-width:1;"/><text fill="#808080" font-family="sans-serif" font-size="13" lengthAdjust="spacing" textLength="39.5078" x="1511.1415" y="97.7969">Query</text></g><!--reverse link ui to dataStore--><g class="link" data-entity-1="ent0022" data-entity-2="ent0023" data-link-type="dependency" data-source-line="89" id="lnk69"><path d="M1318.4477,303.5067 C1280.2577,312.0967 1236.1915,322.01 1196.4615,330.95" fill="none" id="ui-backto-dataStore" style="stroke:#808080;stroke-width:1;"/><polygon fill="#808080" points="1324.3015,302.19,1314.6431,300.2625,1319.4234,303.2872,1316.3986,308.0675,1324.3015,302.19" style="stroke:#808080;stroke-width:1;"/><text fill="#808080" font-family="sans-serif" font-size="13" lengthAdjust="spacing" textLength="39.5078" x="1234.7415" y="308.4669">Query</text></g><!--link solr to ui--><g class="link" data-entity-1="ent0030" data-entity-2="ent0022" data-link-type="dependency" data-source-line="90" id="lnk71"><path d="M1360.1215,611.51 C1320.3315,597.4 1245.6015,563.27 1255.3615,508.5 C1268.2015,436.46 1271.3215,414.66 1312.2415,354 C1324.4615,335.9 1338.0459,323.1298 1353.0959,311.2898" fill="none" id="solr-to-ui" style="stroke:#808080;stroke-width:1;"/><polygon fill="#808080" points="1357.8115,307.58,1348.2648,310.001,1353.8818,310.6715,1353.2113,316.2885,1357.8115,307.58" style="stroke:#808080;stroke-width:1;"/><text fill="#808080" font-family="sans-serif" font-size="13" lengthAdjust="spacing" textLength="39.5078" x="1234.7415" y="521.5669">Query</text></g><!--reverse link ui to statsStore--><g class="link" data-entity-1="ent0022" data-entity-2="ent0028" data-link-type="dependency" data-source-line="91" id="lnk72"><path d="M1448.5106,269.0182 C1487.0906,259.6082 1532.6215,254.38 1575.6415,269 C1603.9915,278.64 1630.4615,300.7 1647.9815,317.88" fill="none" id="ui-backto-statsStore" style="stroke:#808080;stroke-width:1;"/><polygon fill="#808080" points="1442.6815,270.44,1452.373,272.1934,1447.5391,269.2552,1450.4773,264.4213,1442.6815,270.44" style="stroke:#808080;stroke-width:1;"/><text fill="#808080" font-family="sans-serif" font-size="13" lengthAdjust="spacing" textLength="39.5078" x="1511.1415" y="256.5369">Query</text></g><?plantuml-src fPRVJzim4CVV_LTOL5hX8Izzh10IWp6DbS5QDf2sFPZa6gocSMKxq0xnl-_i_7BInYc31-HUFj-x-EvwLxNWwOf9jgGHp5cMw5jOwzE4n-aIKar3_0UI35M5FR1m4KkHfL4e4Y6fbYnL-0X1ai1SKosevF6ZfX6N46ekKaB2H6GH7Pp-pIJG5qBnRyuJe0SNV0qHlUEHVgGJ4HzGfgXapzPihMYaWudnzp79m56UpNwwYZFrr8bUpgw_kUob4cadV7yrSTdxPU953-49Rnua8evv6X-vqa_cYUfKJs4EcBKGw3dJB1V1t9nRabT2Xgq43cit2AioeZcxok7hErC_UaFkHszA_kWDsH-zB_sZ_yZ_g5K0qyaiZOrkfgKGIneccSAlXjMft3IuU-GQPaknA3Fjo2OYP0ajn3TIh3UEr7xEYMqdBKUdSImXPbhaiLT6MjkAzvu1-om1qif1XFTwOChUUoKKHtHJwurjbn9lteh-Gu6aNynGcBCGh8UCqy4vaujhd0Hndk4wciadtbf8-9tImobxfXzeAF1oqP4L6z8-zlYOP3Y60AD6iBOYRauUmHMKGIs-XAuOpR82ivK9GIbH5HQDbSqJihkR-cutqqnpfNced5TMQ5JRocOdVcNpHHvgOKv50VFgEVv5Kbm63mt6zJM5fT3WxSy2yNQvlpbB3zkDvhYu4FAPoGWS3vMfsq5_V-_MOaPtlsIG12TjCMaxgw7MAn9CRdkD1IMx5MjySpsx9VKMsuCizj8UPBs6ze3BrTYBrfkg3zrPmM27gk39iDXa8zeDRIygBrjkA2zKBXilv6mLBrUjEG_bR1jFEjhcPcFMBMbzLEEKaFRi2duDp3RxO-Jvl1YZDiBPseaYQOQ6xtazlyTvN0-RZ-sndUFc6ozaf7nyOu3skw_7V3_hpDS2RWHha4qdumbkhsn5ehtWAMZ9yJSA8RWb4SIXix4Ls2AFxS_fiG5EhbZAubnpN8g2Cdqk-3q3kMbXJXhwKATuVZG9yktHwz7DwpRx3m00?></g></svg>