<?plantuml 1.2026.1?><svg xmlns="http://www.w3.org/2000/svg" xmlns:xlink="http://www.w3.org/1999/xlink" contentStyleType="text/css" data-diagram-type="DESCRIPTION" height="948px" preserveAspectRatio="none" style="width:975px;height:948px;background:#FFFFFF;" version="1.1" viewBox="0 0 975 948" width="975px" zoomAndPan="magnify"><title>==Stroom multi-node mixed-economy deployment
Stroom services in Docker
Stroom and MySQL on bare OS</title><defs/><g><g class="title" data-source-line="2"><text fill="#000000" font-family="sans-serif" font-size="16" font-weight="bold" lengthAdjust="spacing" textLength="429.8984" x="265.5508" y="24.8516">Stroom multi-node mixed-economy deployment</text><text fill="#000000" font-family="sans-serif" font-size="14" font-weight="bold" lengthAdjust="spacing" textLength="206.9238" x="377.0381" y="41.6201">Stroom services in Docker</text><text fill="#000000" font-family="sans-serif" font-size="14" font-weight="bold" lengthAdjust="spacing" textLength="242.71" x="359.145" y="57.917">Stroom and MySQL on bare OS</text></g><!--cluster dataload_client_host--><g class="cluster" data-qualified-name="dataload_client_host" data-source-line="12" id="ent0002"><polygon fill="none" points="94,88.2188,104,78.2188,330,78.2188,330,202.8188,320,212.8188,94,212.8188,94,88.2188" style="stroke:#181818;stroke-width:1;"/><line style="stroke:#181818;stroke-width:1;" x1="320" x2="330" y1="88.2188" y2="78.2188"/><line style="stroke:#181818;stroke-width:1;" x1="94" x2="320" y1="88.2188" y2="88.2188"/><line style="stroke:#181818;stroke-width:1;" x1="320" x2="320" y1="88.2188" y2="212.8188"/><text fill="#000000" font-family="sans-serif" font-size="14" font-style="italic" lengthAdjust="spacing" textLength="63.2666" x="176.3667" y="104.2139">&#171;device&#187;</text><text fill="#000000" font-family="sans-serif" font-size="14" font-weight="bold" lengthAdjust="spacing" textLength="160.7197" x="127.6401" y="120.5107">Datafeed client host</text></g><!--cluster ui_client_host--><g class="cluster" data-qualified-name="ui_client_host" data-source-line="16" id="ent0004"><polygon fill="none" points="354,88.2188,364,78.2188,573,78.2188,573,202.8188,563,212.8188,354,212.8188,354,88.2188" style="stroke:#181818;stroke-width:1;"/><line style="stroke:#181818;stroke-width:1;" x1="563" x2="573" y1="88.2188" y2="78.2188"/><line style="stroke:#181818;stroke-width:1;" x1="354" x2="563" y1="88.2188" y2="88.2188"/><line style="stroke:#181818;stroke-width:1;" x1="563" x2="563" y1="88.2188" y2="212.8188"/><text fill="#000000" font-family="sans-serif" font-size="14" font-style="italic" lengthAdjust="spacing" textLength="63.2666" x="427.8667" y="104.2139">&#171;device&#187;</text><text fill="#000000" font-family="sans-serif" font-size="14" font-weight="bold" lengthAdjust="spacing" textLength="143.9512" x="387.5244" y="120.5107">User desktop host</text></g><!--cluster remote_proxy_host--><g class="cluster" data-qualified-name="remote_proxy_host" data-source-line="20" id="ent0006"><polygon fill="none" points="597,88.2188,607,78.2188,884,78.2188,884,202.8188,874,212.8188,597,212.8188,597,88.2188" style="stroke:#181818;stroke-width:1;"/><line style="stroke:#181818;stroke-width:1;" x1="874" x2="884" y1="88.2188" y2="78.2188"/><line style="stroke:#181818;stroke-width:1;" x1="597" x2="874" y1="88.2188" y2="88.2188"/><line style="stroke:#181818;stroke-width:1;" x1="874" x2="874" y1="88.2188" y2="212.8188"/><text fill="#000000" font-family="sans-serif" font-size="14" font-style="italic" lengthAdjust="spacing" textLength="63.2666" x="704.8667" y="104.2139">&#171;device&#187;</text><text fill="#000000" font-family="sans-serif" font-size="14" font-weight="bold" lengthAdjust="spacing" textLength="211.292" x="630.854" y="120.5107">Remote stroom-proxy host</text></g><!--cluster stroom estate--><g class="cluster" data-qualified-name="stroom estate" data-source-line="24" id="ent0008"><rect fill="none" height="705.78" rx="2.5" ry="2.5" style="stroke:#181818;stroke-width:1;" width="962" x="7" y="236.8188"/><text fill="#000000" font-family="sans-serif" font-size="14" font-weight="bold" lengthAdjust="spacing" textLength="110.7832" x="432.6084" y="251.8139">stroom estate</text></g><!--cluster database_host--><g class="cluster" data-qualified-name="stroom estate.database_host" data-source-line="25" id="ent0009"><polygon fill="none" points="200,706.0088,210,696.0088,523,696.0088,523,908.5988,513,918.5988,200,918.5988,200,706.0088" style="stroke:#181818;stroke-width:1;"/><line style="stroke:#181818;stroke-width:1;" x1="513" x2="523" y1="706.0088" y2="696.0088"/><line style="stroke:#181818;stroke-width:1;" x1="200" x2="513" y1="706.0088" y2="706.0088"/><line style="stroke:#181818;stroke-width:1;" x1="513" x2="513" y1="706.0088" y2="918.5988"/><text fill="#000000" font-family="sans-serif" font-size="14" font-style="italic" lengthAdjust="spacing" textLength="63.2666" x="325.8667" y="722.0039">&#171;device&#187;</text><text fill="#000000" font-family="sans-serif" font-size="14" font-weight="bold" lengthAdjust="spacing" textLength="113.9893" x="300.5054" y="738.3007">Database host</text></g><!--cluster stroom_all_dbs--><g class="cluster" data-qualified-name="stroom estate.database_host.stroom_all_dbs" data-source-line="26" id="ent0010"><path d="M224,770.0088 C224,760.0088 361.5,760.0088 361.5,760.0088 C361.5,760.0088 499,760.0088 499,770.0088 L499,884.5988 C499,894.5988 361.5,894.5988 361.5,894.5988 C361.5,894.5988 224,894.5988 224,884.5988 L224,770.0088" fill="none" style="stroke:#181818;stroke-width:1;"/><path d="M224,770.0088 C224,780.0088 361.5,780.0088 361.5,780.0088 C361.5,780.0088 499,780.0088 499,770.0088" fill="none" style="stroke:#181818;stroke-width:1;"/><text fill="#000000" font-family="sans-serif" font-size="14" font-style="italic" lengthAdjust="spacing" textLength="59.2744" x="331.8628" y="795.0039">&#171;mysql&#187;</text><text fill="#000000" font-family="sans-serif" font-size="14" font-weight="bold" lengthAdjust="spacing" textLength="117.1748" x="302.9126" y="811.3007">stroom_all_dbs</text></g><!--cluster services_host--><g class="cluster" data-qualified-name="stroom estate.services_host" data-source-line="32" id="ent0013"><polygon fill="none" points="339,289.8188,349,279.8188,779,279.8188,779,487.4088,769,497.4088,339,497.4088,339,289.8188" style="stroke:#181818;stroke-width:1;"/><line style="stroke:#181818;stroke-width:1;" x1="769" x2="779" y1="289.8188" y2="279.8188"/><line style="stroke:#181818;stroke-width:1;" x1="339" x2="769" y1="289.8188" y2="289.8188"/><line style="stroke:#181818;stroke-width:1;" x1="769" x2="769" y1="289.8188" y2="497.4088"/><text fill="#000000" font-family="sans-serif" font-size="14" font-style="italic" lengthAdjust="spacing" textLength="63.2666" x="523.3667" y="305.8139">&#171;device&#187;</text><text fill="#000000" font-family="sans-serif" font-size="14" font-weight="bold" lengthAdjust="spacing" textLength="106.0186" x="501.9907" y="322.1107">Services host</text></g><!--cluster nginx_container--><g class="cluster" data-qualified-name="stroom estate.services_host.nginx_container" data-source-line="33" id="ent0014"><rect fill="none" height="129.59" rx="12.5" ry="12.5" style="stroke:#181818;stroke-width:1;" width="168" x="363" y="343.8188"/><text fill="#000000" font-family="sans-serif" font-size="14" font-style="italic" lengthAdjust="spacing" textLength="83.6172" x="405.1914" y="358.8139">&#171;container&#187;</text><text fill="#000000" font-family="sans-serif" font-size="14" font-weight="bold" lengthAdjust="spacing" textLength="43.7842" x="425.1079" y="375.1107">nginx</text></g><!--cluster stroom_log_sender--><g class="cluster" data-qualified-name="stroom estate.services_host.stroom_log_sender" data-source-line="36" id="ent0016"><rect fill="none" height="129.59" rx="12.5" ry="12.5" style="stroke:#181818;stroke-width:1;" width="200" x="555" y="343.8188"/><text fill="#000000" font-family="sans-serif" font-size="14" font-style="italic" lengthAdjust="spacing" textLength="83.6172" x="613.1914" y="358.8139">&#171;container&#187;</text><text fill="#000000" font-family="sans-serif" font-size="14" font-weight="bold" lengthAdjust="spacing" textLength="146.0293" x="581.9854" y="375.1107">stroom-log-sender</text></g><!--cluster stroom_host_1--><g class="cluster" data-qualified-name="stroom estate.stroom_host_1" data-source-line="54" id="ent0020"><polygon fill="none" points="39,539.4088,49,529.4088,224,529.4088,224,654.0088,214,664.0088,39,664.0088,39,539.4088" style="stroke:#181818;stroke-width:1;"/><line style="stroke:#181818;stroke-width:1;" x1="214" x2="224" y1="539.4088" y2="529.4088"/><line style="stroke:#181818;stroke-width:1;" x1="39" x2="214" y1="539.4088" y2="539.4088"/><line style="stroke:#181818;stroke-width:1;" x1="214" x2="214" y1="539.4088" y2="664.0088"/><text fill="#000000" font-family="sans-serif" font-size="14" font-style="italic" lengthAdjust="spacing" textLength="63.2666" x="95.8667" y="555.4039">&#171;device&#187;</text><text fill="#000000" font-family="sans-serif" font-size="14" font-weight="bold" lengthAdjust="spacing" textLength="109.8535" x="72.5732" y="571.7007">stroom host 1</text></g><!--cluster proxy_host_1--><g class="cluster" data-qualified-name="stroom estate.proxy_host_1" data-source-line="57" id="ent0022"><polygon fill="none" points="248,539.4088,258,529.4088,476,529.4088,476,654.0088,466,664.0088,248,664.0088,248,539.4088" style="stroke:#181818;stroke-width:1;"/><line style="stroke:#181818;stroke-width:1;" x1="466" x2="476" y1="539.4088" y2="529.4088"/><line style="stroke:#181818;stroke-width:1;" x1="248" x2="466" y1="539.4088" y2="539.4088"/><line style="stroke:#181818;stroke-width:1;" x1="466" x2="466" y1="539.4088" y2="664.0088"/><text fill="#000000" font-family="sans-serif" font-size="14" font-style="italic" lengthAdjust="spacing" textLength="63.2666" x="326.3667" y="555.4039">&#171;device&#187;</text><text fill="#000000" font-family="sans-serif" font-size="14" font-weight="bold" lengthAdjust="spacing" textLength="99.0391" x="308.4805" y="571.7007">Proxy host 1</text></g><!--cluster stroom_host_2--><g class="cluster" data-qualified-name="stroom estate.stroom_host_2" data-source-line="54" id="ent0030"><polygon fill="none" points="500,539.4088,510,529.4088,685,529.4088,685,654.0088,675,664.0088,500,664.0088,500,539.4088" style="stroke:#181818;stroke-width:1;"/><line style="stroke:#181818;stroke-width:1;" x1="675" x2="685" y1="539.4088" y2="529.4088"/><line style="stroke:#181818;stroke-width:1;" x1="500" x2="675" y1="539.4088" y2="539.4088"/><line style="stroke:#181818;stroke-width:1;" x1="675" x2="675" y1="539.4088" y2="664.0088"/><text fill="#000000" font-family="sans-serif" font-size="14" font-style="italic" lengthAdjust="spacing" textLength="63.2666" x="556.8667" y="555.4039">&#171;device&#187;</text><text fill="#000000" font-family="sans-serif" font-size="14" font-weight="bold" lengthAdjust="spacing" textLength="109.8535" x="533.5732" y="571.7007">stroom host 2</text></g><!--cluster proxy_host_2--><g class="cluster" data-qualified-name="stroom estate.proxy_host_2" data-source-line="57" id="ent0032"><polygon fill="none" points="709,539.4088,719,529.4088,937,529.4088,937,654.0088,927,664.0088,709,664.0088,709,539.4088" style="stroke:#181818;stroke-width:1;"/><line style="stroke:#181818;stroke-width:1;" x1="927" x2="937" y1="539.4088" y2="529.4088"/><line style="stroke:#181818;stroke-width:1;" x1="709" x2="927" y1="539.4088" y2="539.4088"/><line style="stroke:#181818;stroke-width:1;" x1="927" x2="927" y1="539.4088" y2="664.0088"/><text fill="#000000" font-family="sans-serif" font-size="14" font-style="italic" lengthAdjust="spacing" textLength="63.2666" x="787.3667" y="555.4039">&#171;device&#187;</text><text fill="#000000" font-family="sans-serif" font-size="14" font-weight="bold" lengthAdjust="spacing" textLength="99.0391" x="769.4805" y="571.7007">Proxy host 2</text></g><!--entity dataload_client_app--><g class="entity" data-qualified-name="dataload_client_host.dataload_client_app" data-source-line="13" id="ent0003"><polygon fill="#F1F1F1" points="160.16,144.2188,170.16,134.2188,313.8485,134.2188,313.8485,186.8125,303.8485,196.8125,160.16,196.8125,160.16,144.2188" style="stroke:#181818;stroke-width:0.5;"/><line style="stroke:#181818;stroke-width:0.5;" x1="303.8485" x2="313.8485" y1="144.2188" y2="134.2188"/><line style="stroke:#181818;stroke-width:0.5;" x1="160.16" x2="303.8485" y1="144.2188" y2="144.2188"/><line style="stroke:#181818;stroke-width:0.5;" x1="303.8485" x2="303.8485" y1="144.2188" y2="196.8125"/><text fill="#000000" font-family="sans-serif" font-size="14" font-style="italic" lengthAdjust="spacing" textLength="94.5068" x="184.7508" y="167.2139">&#171;application&#187;</text><text fill="#000000" font-family="sans-serif" font-size="14" lengthAdjust="spacing" textLength="113.6885" x="175.16" y="183.5107">Event generator</text></g><!--entity ui_client_browser--><g class="entity" data-qualified-name="ui_client_host.ui_client_browser" data-source-line="17" id="ent0005"><polygon fill="#F1F1F1" points="372.5,144.2188,382.5,134.2188,521.5029,134.2188,521.5029,186.8125,511.5029,196.8125,372.5,196.8125,372.5,144.2188" style="stroke:#181818;stroke-width:0.5;"/><line style="stroke:#181818;stroke-width:0.5;" x1="511.5029" x2="521.5029" y1="144.2188" y2="134.2188"/><line style="stroke:#181818;stroke-width:0.5;" x1="372.5" x2="511.5029" y1="144.2188" y2="144.2188"/><line style="stroke:#181818;stroke-width:0.5;" x1="511.5029" x2="511.5029" y1="144.2188" y2="196.8125"/><text fill="#000000" font-family="sans-serif" font-size="14" font-style="italic" lengthAdjust="spacing" textLength="107.0029" x="388.5" y="167.2139">&#171;web browser&#187;</text><text fill="#000000" font-family="sans-serif" font-size="14" lengthAdjust="spacing" textLength="92.1143" x="395.9443" y="183.5107">Web browser</text></g><!--entity remote_proxy--><g class="entity" data-qualified-name="remote_proxy_host.remote_proxy" data-source-line="21" id="ent0007"><polygon fill="#F1F1F1" points="612.75,144.2188,622.75,134.2188,749.2568,134.2188,749.2568,186.8125,739.2568,196.8125,612.75,196.8125,612.75,144.2188" style="stroke:#181818;stroke-width:0.5;"/><line style="stroke:#181818;stroke-width:0.5;" x1="739.2568" x2="749.2568" y1="144.2188" y2="134.2188"/><line style="stroke:#181818;stroke-width:0.5;" x1="612.75" x2="739.2568" y1="144.2188" y2="144.2188"/><line style="stroke:#181818;stroke-width:0.5;" x1="739.2568" x2="739.2568" y1="144.2188" y2="196.8125"/><text fill="#000000" font-family="sans-serif" font-size="14" font-style="italic" lengthAdjust="spacing" textLength="94.5068" x="628.75" y="167.2139">&#171;application&#187;</text><text fill="#000000" font-family="sans-serif" font-size="14" lengthAdjust="spacing" textLength="94.1377" x="628.9346" y="183.5107">stroom-proxy</text></g><!--entity stroom_db--><g class="entity" data-qualified-name="stroom estate.database_host.stroom_all_dbs.stroom_db" data-source-line="27" id="ent0011"><rect fill="#F1F1F1" height="52.5938" rx="35" ry="35" style="stroke:#181818;stroke-width:0.5;" width="104.1885" x="239.91" y="826.0088"/><text fill="#000000" font-family="sans-serif" font-size="14" font-style="italic" lengthAdjust="spacing" textLength="82.1885" x="250.91" y="849.0039">&#171;database&#187;</text><text fill="#000000" font-family="sans-serif" font-size="14" lengthAdjust="spacing" textLength="49.3076" x="267.3504" y="865.3007">stroom</text></g><!--entity stroom_stats_db--><g class="entity" data-qualified-name="stroom estate.database_host.stroom_all_dbs.stroom_stats_db" data-source-line="28" id="ent0012"><rect fill="#F1F1F1" height="52.5938" rx="35" ry="35" style="stroke:#181818;stroke-width:0.5;" width="104.1885" x="378.91" y="826.0088"/><text fill="#000000" font-family="sans-serif" font-size="14" font-style="italic" lengthAdjust="spacing" textLength="82.1885" x="389.91" y="849.0039">&#171;database&#187;</text><text fill="#000000" font-family="sans-serif" font-size="14" lengthAdjust="spacing" textLength="34.1455" x="413.9315" y="865.3007">stats</text></g><!--entity nginx--><g class="entity" data-qualified-name="stroom estate.services_host.nginx_container.nginx" data-source-line="34" id="ent0015"><polygon fill="#F1F1F1" points="378.5,404.8188,388.5,394.8188,515.499,394.8188,515.499,447.4125,505.499,457.4125,378.5,457.4125,378.5,404.8188" style="stroke:#181818;stroke-width:0.5;"/><line style="stroke:#181818;stroke-width:0.5;" x1="505.499" x2="515.499" y1="404.8188" y2="394.8188"/><line style="stroke:#181818;stroke-width:0.5;" x1="378.5" x2="505.499" y1="404.8188" y2="404.8188"/><line style="stroke:#181818;stroke-width:0.5;" x1="505.499" x2="505.499" y1="404.8188" y2="457.4125"/><text fill="#000000" font-family="sans-serif" font-size="14" font-style="italic" lengthAdjust="spacing" textLength="94.999" x="394.5" y="427.8139">&#171;web server&#187;</text><text fill="#000000" font-family="sans-serif" font-size="14" lengthAdjust="spacing" textLength="38.8076" x="422.5957" y="444.1107">nginx</text></g><!--entity stroom_log_sender_script--><g class="entity" data-qualified-name="stroom estate.services_host.stroom_log_sender.stroom_log_sender_script" data-source-line="37" id="ent0017"><polygon fill="#F1F1F1" points="570.61,404.8188,580.61,394.8188,739.3991,394.8188,739.3991,447.4125,729.3991,457.4125,570.61,457.4125,570.61,404.8188" style="stroke:#181818;stroke-width:0.5;"/><line style="stroke:#181818;stroke-width:0.5;" x1="729.3991" x2="739.3991" y1="404.8188" y2="394.8188"/><line style="stroke:#181818;stroke-width:0.5;" x1="570.61" x2="729.3991" y1="404.8188" y2="404.8188"/><line style="stroke:#181818;stroke-width:0.5;" x1="729.3991" x2="729.3991" y1="404.8188" y2="457.4125"/><text fill="#000000" font-family="sans-serif" font-size="14" font-style="italic" lengthAdjust="spacing" textLength="56.2939" x="621.8576" y="427.8139">&#171;script&#187;</text><text fill="#000000" font-family="sans-serif" font-size="14" lengthAdjust="spacing" textLength="128.7891" x="585.61" y="444.1107">stroom-log-sender</text></g><!--entity stroom_dropwiz_1--><g class="entity" data-qualified-name="stroom estate.stroom_host_1.stroom_dropwiz_1" data-source-line="55" id="ent0021"><polygon fill="#F1F1F1" points="88.29,595.4087,98.29,585.4087,207.707,585.4087,207.707,638.0025,197.707,648.0025,88.29,648.0025,88.29,595.4087" style="stroke:#181818;stroke-width:0.5;"/><line style="stroke:#181818;stroke-width:0.5;" x1="197.707" x2="207.707" y1="595.4087" y2="585.4087"/><line style="stroke:#181818;stroke-width:0.5;" x1="88.29" x2="197.707" y1="595.4087" y2="595.4087"/><line style="stroke:#181818;stroke-width:0.5;" x1="197.707" x2="197.707" y1="595.4087" y2="648.0025"/><text fill="#000000" font-family="sans-serif" font-size="14" font-style="italic" lengthAdjust="spacing" textLength="77.417" x="104.29" y="618.4039">&#171;java app&#187;</text><text fill="#000000" font-family="sans-serif" font-size="14" lengthAdjust="spacing" textLength="62.665" x="111.666" y="634.7007">stroom 1</text></g><!--entity stroom_proxy_dropwiz_1--><g class="entity" data-qualified-name="stroom estate.proxy_host_1.stroom_proxy_dropwiz_1" data-source-line="58" id="ent0023"><polygon fill="#F1F1F1" points="264.25,595.4087,274.25,585.4087,459.7402,585.4087,459.7402,638.0025,449.7402,648.0025,264.25,648.0025,264.25,595.4087" style="stroke:#181818;stroke-width:0.5;"/><line style="stroke:#181818;stroke-width:0.5;" x1="449.7402" x2="459.7402" y1="595.4087" y2="585.4087"/><line style="stroke:#181818;stroke-width:0.5;" x1="264.25" x2="449.7402" y1="595.4087" y2="595.4087"/><line style="stroke:#181818;stroke-width:0.5;" x1="449.7402" x2="449.7402" y1="595.4087" y2="648.0025"/><text fill="#000000" font-family="sans-serif" font-size="14" font-style="italic" lengthAdjust="spacing" textLength="77.417" x="318.2866" y="618.4039">&#171;java app&#187;</text><text fill="#000000" font-family="sans-serif" font-size="14" lengthAdjust="spacing" textLength="155.4902" x="279.25" y="634.7007">stroom-proxy (local) 1</text></g><!--entity stroom_dropwiz_2--><g class="entity" data-qualified-name="stroom estate.stroom_host_2.stroom_dropwiz_2" data-source-line="55" id="ent0031"><polygon fill="#F1F1F1" points="516.29,595.4087,526.29,585.4087,635.707,585.4087,635.707,638.0025,625.707,648.0025,516.29,648.0025,516.29,595.4087" style="stroke:#181818;stroke-width:0.5;"/><line style="stroke:#181818;stroke-width:0.5;" x1="625.707" x2="635.707" y1="595.4087" y2="585.4087"/><line style="stroke:#181818;stroke-width:0.5;" x1="516.29" x2="625.707" y1="595.4087" y2="595.4087"/><line style="stroke:#181818;stroke-width:0.5;" x1="625.707" x2="625.707" y1="595.4087" y2="648.0025"/><text fill="#000000" font-family="sans-serif" font-size="14" font-style="italic" lengthAdjust="spacing" textLength="77.417" x="532.29" y="618.4039">&#171;java app&#187;</text><text fill="#000000" font-family="sans-serif" font-size="14" lengthAdjust="spacing" textLength="62.665" x="539.666" y="634.7007">stroom 2</text></g><!--entity stroom_proxy_dropwiz_2--><g class="entity" data-qualified-name="stroom estate.proxy_host_2.stroom_proxy_dropwiz_2" data-source-line="58" id="ent0033"><polygon fill="#F1F1F1" points="725.25,595.4087,735.25,585.4087,920.7402,585.4087,920.7402,638.0025,910.7402,648.0025,725.25,648.0025,725.25,595.4087" style="stroke:#181818;stroke-width:0.5;"/><line style="stroke:#181818;stroke-width:0.5;" x1="910.7402" x2="920.7402" y1="595.4087" y2="585.4087"/><line style="stroke:#181818;stroke-width:0.5;" x1="725.25" x2="910.7402" y1="595.4087" y2="595.4087"/><line style="stroke:#181818;stroke-width:0.5;" x1="910.7402" x2="910.7402" y1="595.4087" y2="648.0025"/><text fill="#000000" font-family="sans-serif" font-size="14" font-style="italic" lengthAdjust="spacing" textLength="77.417" x="779.2866" y="618.4039">&#171;java app&#187;</text><text fill="#000000" font-family="sans-serif" font-size="14" lengthAdjust="spacing" textLength="155.4902" x="740.25" y="634.7007">stroom-proxy (local) 2</text></g><!--reverse link nginx to stroom_log_sender_script--><g class="link" data-entity-1="ent0015" data-entity-2="ent0017" data-link-type="dependency" data-source-line="40" id="lnk19"><path d="M521.66,426.1188 C539.89,426.1188 552.13,426.1188 570.36,426.1188" fill="none" id="nginx-backto-stroom_log_sender_script" style="stroke:#181818;stroke-width:1;"/><polygon fill="#181818" points="515.66,426.1188,524.66,430.1188,520.66,426.1188,524.66,422.1188,515.66,426.1188" style="stroke:#181818;stroke-width:1;"/></g><!--link stroom_dropwiz_1 to stroom_db--><g class="link" data-entity-1="ent0021" data-entity-2="ent0011" data-link-type="dependency" data-source-line="61" id="lnk24"><path d="M166.83,648.2488 C195.49,694.7488 246.4119,777.351 273.1119,820.671" fill="none" id="stroom_dropwiz_1-to-stroom_db" style="stroke:#181818;stroke-width:1;"/><polygon fill="#181818" points="276.26,825.7788,274.943,816.0183,273.6366,821.5223,268.1326,820.2159,276.26,825.7788" style="stroke:#181818;stroke-width:1;"/></g><!--link stroom_dropwiz_1 to stroom_stats_db--><g class="link" data-entity-1="ent0021" data-entity-2="ent0012" data-link-type="dependency" data-source-line="62" id="lnk25"><path d="M187.12,648.2888 C204.73,660.3588 226.4,672.9988 248,680.0088 C272.16,687.8388 341.34,673.2388 362,688.0088 C407.32,720.3988 422.2004,782.6792 427.5204,819.8692" fill="none" id="stroom_dropwiz_1-to-stroom_stats_db" style="stroke:#181818;stroke-width:1;"/><polygon fill="#181818" points="428.37,825.8088,431.0552,816.333,427.662,820.8591,423.1358,817.4659,428.37,825.8088" style="stroke:#181818;stroke-width:1;"/></g><!--link stroom_dropwiz_1 to nginx--><g class="link" data-entity-1="ent0021" data-entity-2="ent0015" data-link-type="dependency" data-source-line="64" id="lnk26"><path d="M186.6,585.2788 C208.47,563.1088 236.25,533.5487 265.5,513.4088 C300.39,489.3888 337.4923,472.0698 372.8623,457.6798" fill="none" id="stroom_dropwiz_1-to-nginx" style="stroke:#181818;stroke-width:1;"/><polygon fill="#181818" points="378.42,455.4188,368.5761,455.1053,373.7886,457.303,371.5909,462.5155,378.42,455.4188" style="stroke:#181818;stroke-width:1;"/></g><!--link nginx to stroom_dropwiz_1--><g class="link" data-entity-1="ent0015" data-entity-2="ent0021" data-link-type="dependency" data-source-line="68" id="lnk28"><path d="M378.25,444.2488 C333.34,458.8688 275.47,482.4488 230.5,513.4088 C201.25,533.5487 176.9478,558.2195 161.1778,580.3895" fill="none" id="nginx-to-stroom_dropwiz_1" style="stroke:#181818;stroke-width:1;"/><polygon fill="#181818" points="157.7,585.2788,166.1762,580.2634,160.5982,581.2044,159.6572,575.6263,157.7,585.2788" style="stroke:#181818;stroke-width:1;"/></g><!--link stroom_proxy_dropwiz_1 to nginx--><g class="link" data-entity-1="ent0023" data-entity-2="ent0015" data-link-type="dependency" data-source-line="65" id="lnk27"><path d="M385.83,584.9988 C405.81,549.9388 429.6314,498.6038 441.2614,463.5338" fill="none" id="stroom_proxy_dropwiz_1-to-nginx" style="stroke:#181818;stroke-width:1;"/><polygon fill="#181818" points="443.15,457.8388,436.5204,465.1222,441.5762,462.5846,444.1138,467.6403,443.15,457.8388" style="stroke:#181818;stroke-width:1;"/></g><!--link nginx to stroom_proxy_dropwiz_1--><g class="link" data-entity-1="ent0015" data-entity-2="ent0023" data-link-type="dependency" data-source-line="69" id="lnk29"><path d="M423.16,457.8388 C403.18,492.9088 379.3691,544.2439 367.7391,579.3039" fill="none" id="nginx-to-stroom_proxy_dropwiz_1" style="stroke:#181818;stroke-width:1;"/><polygon fill="#181818" points="365.85,584.9988,372.4802,577.7159,367.4242,580.253,364.8871,575.1971,365.85,584.9988" style="stroke:#181818;stroke-width:1;"/></g><!--link stroom_dropwiz_2 to stroom_db--><g class="link" data-entity-1="ent0031" data-entity-2="ent0011" data-link-type="dependency" data-source-line="61" id="lnk34"><path d="M536.89,648.2888 C519.27,660.3688 497.6,673.0088 476,680.0088 C451.63,687.8988 381.85,673.1188 361,688.0088 C315.67,720.3788 300.8012,782.6694 295.4712,819.8594" fill="none" id="stroom_dropwiz_2-to-stroom_db" style="stroke:#181818;stroke-width:1;"/><polygon fill="#181818" points="294.62,825.7988,299.8564,817.4573,295.3293,820.8493,291.9373,816.3223,294.62,825.7988" style="stroke:#181818;stroke-width:1;"/></g><!--link stroom_dropwiz_2 to stroom_stats_db--><g class="link" data-entity-1="ent0031" data-entity-2="ent0012" data-link-type="dependency" data-source-line="62" id="lnk35"><path d="M557.04,648.2488 C528.18,694.7488 476.8935,777.3605 450.0135,820.6805" fill="none" id="stroom_dropwiz_2-to-stroom_stats_db" style="stroke:#181818;stroke-width:1;"/><polygon fill="#181818" points="446.85,825.7788,454.9941,820.2403,449.4862,821.5302,448.1964,816.0224,446.85,825.7788" style="stroke:#181818;stroke-width:1;"/></g><!--link stroom_dropwiz_2 to nginx--><g class="link" data-entity-1="ent0031" data-entity-2="ent0015" data-link-type="dependency" data-source-line="64" id="lnk36"><path d="M564.99,584.9988 C545.18,549.9388 509.9266,497.5872 481.7666,462.5172" fill="none" id="stroom_dropwiz_2-to-nginx" style="stroke:#181818;stroke-width:1;"/><polygon fill="#181818" points="478.01,457.8388,480.526,467.3608,481.1405,461.7374,486.7639,462.352,478.01,457.8388" style="stroke:#181818;stroke-width:1;"/></g><!--link nginx to stroom_dropwiz_2--><g class="link" data-entity-1="ent0015" data-entity-2="ent0031" data-link-type="dependency" data-source-line="68" id="lnk38"><path d="M458.02,457.8388 C477.83,492.9088 513.0827,545.2608 541.2427,580.3208" fill="none" id="nginx-to-stroom_dropwiz_2" style="stroke:#181818;stroke-width:1;"/><polygon fill="#181818" points="545,584.9988,542.4827,575.477,541.8689,581.1005,536.2455,580.4867,545,584.9988" style="stroke:#181818;stroke-width:1;"/></g><!--link stroom_proxy_dropwiz_2 to nginx--><g class="link" data-entity-1="ent0033" data-entity-2="ent0015" data-link-type="dependency" data-source-line="65" id="lnk37"><path d="M797.82,585.0488 C768.12,561.0188 718.41,529.1188 669.5,513.4088 C628.31,500.1887 613.06,520.4388 572.5,505.4088 C544.27,494.9488 521.6233,478.5772 499.1933,461.3972" fill="none" id="stroom_proxy_dropwiz_2-to-nginx" style="stroke:#181818;stroke-width:1;"/><polygon fill="#181818" points="494.43,457.7488,499.1427,466.3969,498.3994,460.7891,504.0072,460.0458,494.43,457.7488" style="stroke:#181818;stroke-width:1;"/></g><!--link nginx to stroom_proxy_dropwiz_2--><g class="link" data-entity-1="ent0015" data-entity-2="ent0033" data-link-type="dependency" data-source-line="69" id="lnk39"><path d="M464.01,457.7488 C481.86,474.9288 509.27,494.9488 537.5,505.4088 C578.06,520.4388 593.31,500.1887 634.5,513.4088 C683.41,529.1188 728.1069,557.722 764.6469,581.752" fill="none" id="nginx-to-stroom_proxy_dropwiz_2" style="stroke:#181818;stroke-width:1;"/><polygon fill="#181818" points="769.66,585.0488,764.3382,576.7615,765.4824,582.3014,759.9425,583.4456,769.66,585.0488" style="stroke:#181818;stroke-width:1;"/></g><!--link ui_client_browser to nginx--><g class="link" data-entity-1="ent0005" data-entity-2="ent0015" data-link-type="dependency" data-source-line="79" id="lnk40"><path d="M447,197.1988 C447,246.9688 447,338.7288 447,388.4788" fill="none" id="ui_client_browser-to-nginx" style="stroke:#181818;stroke-width:1;"/><polygon fill="#181818" points="447,394.4788,451,385.4788,447,389.4788,443,385.4788,447,394.4788" style="stroke:#181818;stroke-width:1;"/></g><!--link dataload_client_app to nginx--><g class="link" data-entity-1="ent0003" data-entity-2="ent0015" data-link-type="dependency" data-source-line="80" id="lnk41"><path d="M261.91,197.1988 C302.33,246.9688 377.9377,340.0711 418.3377,389.8211" fill="none" id="dataload_client_app-to-nginx" style="stroke:#181818;stroke-width:1;"/><polygon fill="#181818" points="422.12,394.4788,419.5516,384.9707,418.9681,390.5973,413.3414,390.0138,422.12,394.4788" style="stroke:#181818;stroke-width:1;"/></g><!--link remote_proxy to nginx--><g class="link" data-entity-1="ent0007" data-entity-2="ent0015" data-link-type="dependency" data-source-line="81" id="lnk42"><path d="M612.42,191.1988 C592.28,200.7487 571.31,213.2088 555,228.8188 C505.12,276.5588 474.5435,346.8311 459.2235,388.8911" fill="none" id="remote_proxy-to-nginx" style="stroke:#181818;stroke-width:1;"/><polygon fill="#181818" points="457.17,394.5287,464.0086,387.4412,458.8812,389.8307,456.4918,384.7033,457.17,394.5287" style="stroke:#181818;stroke-width:1;"/></g><?plantuml-src bLRVRzis47xNNt4rWhd1vWNjq9SXCR0cGp6Wmx8QHHy5IZhRd2bI8wautf3_VKTIFoXRSZm_60Bllk--koEFjDmAJ81-TtShgvKgeQo5vGkf2eIIFsEnm5n9LHwWm4geGudIUa3ZRb0_yHmDS0aFAj-XZgrC5l3xOVNdPr0ICgOH_bWbI8lM1qxCZikAQLQ2njmokH48_te2hMfPt2ijKT_UaWBBE7qkb_3-G_AI95xVx85PjaOi81USTC5M6Ji3Pg0WWr2iI8CXTGQulItGQIMI42EG_Fhae1iaUcQL7iMpgY8u_GkUCykLN2vx5L-f1bGTixEgwYNK_9BWtp23JAizKHoXcbK2xdkVEEmNB9L5CBxIYqghvqCVNNjZwbVF2eZX9yYndFj6DLX0Ovd5sO3MTIPZ1eSjSIiJQjolTMboIfaGQP4PSYuFvcyny7K_G-rYcqw83zD0Yyo5QFX8-0ICMHEZ_C8azYK9_r6QgtRtTscsv-5Ccb45vORBPu_pNsctqM6mwOTfXz17q6QVkF1-cmn57uLjcYxKPc7eD3Pxhoa2hQPXzNKH5nAb9jUySkK87mDzIT-N2TX2uDekbY7Hk0blrhNCtTQ4An9Ak_JjbMGb_W1NlBWE7XfjhSdkrk5xPmZh5A051wuvF6gLOr7JaBAgdGS8hD7bMmnxRhSWkDmPv-J6srgJZOUP-ARgA5XHf4r23aZ2g61fAyixNpb3weJTjV9d4IITKHuZgFvC7s4ZmmIqFHnQLNl-ptZerdYU8iGwIpHq6T0bmrrqX0oLZW5-L_Nb6ZzMqtodL2E58DA_s1C36dYZn-U8-h6RjoFqHotwdtgRMVvMg9o9wsdrfpruBOSvT7EPGahqszzqvj6oBEZWTKFrOjTsaaQXVtdy3JxHYTgpGnJzTSR-rCTk8ydtpdtKBqZZaD8D9HrBEanFXnrJSCRjL44tMRen49HOjK6xfNdQD_zuFCpUpQwdZUyRuukxWEVtuR4J9tFwREYBCVQMwQs3wpwgO3AdkuIkRskhdszkAi6ahKlnOwxAc_xHzfst6tBOq5oiCszkVQEFMeYRdzuHPm_TqkpSQsujIh2wnjXMqeCptz9SHRgqVFzYQyRotQPv7WgbuO6NdpGUOfTxmOpvUAcVqdJN19zlMsvnLQhTsOXMCsd8v9x2L2V1DriBrE3oBEgpSxj8wHdFIAjx7A-5sgF-A8RrQm_vHRoTypHrCjzocbDOLlO09POPjIJv3m00?></g></svg>