<?plantuml 1.2026.1?><svg xmlns="http://www.w3.org/2000/svg" xmlns:xlink="http://www.w3.org/1999/xlink" contentStyleType="text/css" data-diagram-type="DESCRIPTION" height="950px" preserveAspectRatio="none" style="width:907px;height:950px;background:#FFFFFF;" version="1.1" viewBox="0 0 907 950" width="907px" zoomAndPan="magnify"><title>==Stroom multi-node mixed-economy deployment
Stroom services in Docker
Stroom and MySQL on bare OS</title><defs/><g><g class="title" data-source-line="2"><text fill="#000000" font-family="sans-serif" font-size="16" font-weight="bold" lengthAdjust="spacing" textLength="369.8828" x="261.5586" y="24.8516">Stroom multi-node mixed-economy deployment</text><text fill="#000000" font-family="sans-serif" font-size="14" font-weight="bold" lengthAdjust="spacing" textLength="175.3965" x="358.8018" y="41.6201">Stroom services in Docker</text><text fill="#000000" font-family="sans-serif" font-size="14" font-weight="bold" lengthAdjust="spacing" textLength="204.2646" x="344.3677" y="57.917">Stroom and MySQL on bare OS</text></g><!--cluster dataload_client_host--><g class="cluster" data-qualified-name="dataload_client_host" data-source-line="12" id="ent0002"><polygon fill="none" points="111,88.2188,121,78.2188,324,78.2188,324,203.2188,314,213.2188,111,213.2188,111,88.2188" style="stroke:#181818;stroke-width:1;"/><line style="stroke:#181818;stroke-width:1;" x1="314" x2="324" y1="88.2188" y2="78.2188"/><line style="stroke:#181818;stroke-width:1;" x1="111" x2="314" y1="88.2188" y2="88.2188"/><line style="stroke:#181818;stroke-width:1;" x1="314" x2="314" y1="88.2188" y2="213.2188"/><text fill="#000000" font-family="sans-serif" font-size="14" font-style="italic" lengthAdjust="spacing" textLength="53.6279" x="186.686" y="104.2139">&#171;device&#187;</text><text fill="#000000" font-family="sans-serif" font-size="14" font-weight="bold" lengthAdjust="spacing" textLength="137.0879" x="144.9561" y="120.5107">Datafeed client host</text></g><!--cluster ui_client_host--><g class="cluster" data-qualified-name="ui_client_host" data-source-line="16" id="ent0004"><polygon fill="none" points="348,88.2188,358,78.2188,546,78.2188,546,203.2188,536,213.2188,348,213.2188,348,88.2188" style="stroke:#181818;stroke-width:1;"/><line style="stroke:#181818;stroke-width:1;" x1="536" x2="546" y1="88.2188" y2="78.2188"/><line style="stroke:#181818;stroke-width:1;" x1="348" x2="536" y1="88.2188" y2="88.2188"/><line style="stroke:#181818;stroke-width:1;" x1="536" x2="536" y1="88.2188" y2="213.2188"/><text fill="#000000" font-family="sans-serif" font-size="14" font-style="italic" lengthAdjust="spacing" textLength="53.6279" x="416.186" y="104.2139">&#171;device&#187;</text><text fill="#000000" font-family="sans-serif" font-size="14" font-weight="bold" lengthAdjust="spacing" textLength="122.2676" x="381.8662" y="120.5107">User desktop host</text></g><!--cluster remote_proxy_host--><g class="cluster" data-qualified-name="remote_proxy_host" data-source-line="20" id="ent0006"><polygon fill="none" points="570,88.2188,580,78.2188,826,78.2188,826,203.2188,816,213.2188,570,213.2188,570,88.2188" style="stroke:#181818;stroke-width:1;"/><line style="stroke:#181818;stroke-width:1;" x1="816" x2="826" y1="88.2188" y2="78.2188"/><line style="stroke:#181818;stroke-width:1;" x1="570" x2="816" y1="88.2188" y2="88.2188"/><line style="stroke:#181818;stroke-width:1;" x1="816" x2="816" y1="88.2188" y2="213.2188"/><text fill="#000000" font-family="sans-serif" font-size="14" font-style="italic" lengthAdjust="spacing" textLength="53.6279" x="667.186" y="104.2139">&#171;device&#187;</text><text fill="#000000" font-family="sans-serif" font-size="14" font-weight="bold" lengthAdjust="spacing" textLength="180.6943" x="603.6528" y="120.5107">Remote stroom-proxy host</text></g><!--cluster stroom estate--><g class="cluster" data-qualified-name="stroom estate" data-source-line="24" id="ent0008"><rect fill="none" height="707" rx="2.5" ry="2.5" style="stroke:#181818;stroke-width:1;" width="894" x="7" y="237.2188"/><text fill="#000000" font-family="sans-serif" font-size="14" font-weight="bold" lengthAdjust="spacing" textLength="94.8418" x="406.5791" y="252.2139">stroom estate</text></g><!--cluster database_host--><g class="cluster" data-qualified-name="stroom estate.database_host" data-source-line="25" id="ent0009"><polygon fill="none" points="421,707.2188,431,697.2188,721,697.2188,721,910.2188,711,920.2188,421,920.2188,421,707.2188" style="stroke:#181818;stroke-width:1;"/><line style="stroke:#181818;stroke-width:1;" x1="711" x2="721" y1="707.2188" y2="697.2188"/><line style="stroke:#181818;stroke-width:1;" x1="421" x2="711" y1="707.2188" y2="707.2188"/><line style="stroke:#181818;stroke-width:1;" x1="711" x2="711" y1="707.2188" y2="920.2188"/><text fill="#000000" font-family="sans-serif" font-size="14" font-style="italic" lengthAdjust="spacing" textLength="53.6279" x="540.186" y="723.2139">&#171;device&#187;</text><text fill="#000000" font-family="sans-serif" font-size="14" font-weight="bold" lengthAdjust="spacing" textLength="96.4277" x="518.7861" y="739.5107">Database host</text></g><!--cluster stroom_all_dbs--><g class="cluster" data-qualified-name="stroom estate.database_host.stroom_all_dbs" data-source-line="26" id="ent0010"><path d="M445,771.2188 C445,761.2188 571,761.2188 571,761.2188 C571,761.2188 697,761.2188 697,771.2188 L697,886.2188 C697,896.2188 571,896.2188 571,896.2188 C571,896.2188 445,896.2188 445,886.2188 L445,771.2188" fill="none" style="stroke:#181818;stroke-width:1;"/><path d="M445,771.2188 C445,781.2188 571,781.2188 571,781.2188 C571,781.2188 697,781.2188 697,771.2188" fill="none" style="stroke:#181818;stroke-width:1;"/><text fill="#000000" font-family="sans-serif" font-size="14" font-style="italic" lengthAdjust="spacing" textLength="51.1602" x="545.4199" y="796.2139">&#171;mysql&#187;</text><text fill="#000000" font-family="sans-serif" font-size="14" font-weight="bold" lengthAdjust="spacing" textLength="100.4199" x="520.79" y="812.5107">stroom_all_dbs</text></g><!--cluster services_host--><g class="cluster" data-qualified-name="stroom estate.services_host" data-source-line="32" id="ent0013"><polygon fill="none" points="130,290.2188,140,280.2188,550,280.2188,550,488.2188,540,498.2188,130,498.2188,130,290.2188" style="stroke:#181818;stroke-width:1;"/><line style="stroke:#181818;stroke-width:1;" x1="540" x2="550" y1="290.2188" y2="280.2188"/><line style="stroke:#181818;stroke-width:1;" x1="130" x2="540" y1="290.2188" y2="290.2188"/><line style="stroke:#181818;stroke-width:1;" x1="540" x2="540" y1="290.2188" y2="498.2188"/><text fill="#000000" font-family="sans-serif" font-size="14" font-style="italic" lengthAdjust="spacing" textLength="53.6279" x="309.186" y="306.2139">&#171;device&#187;</text><text fill="#000000" font-family="sans-serif" font-size="14" font-weight="bold" lengthAdjust="spacing" textLength="88.5527" x="291.7236" y="322.5107">Services host</text></g><!--cluster nginx_container--><g class="cluster" data-qualified-name="stroom estate.services_host.nginx_container" data-source-line="33" id="ent0014"><rect fill="none" height="130" rx="12.5" ry="12.5" style="stroke:#181818;stroke-width:1;" width="158" x="368" y="344.2188"/><text fill="#000000" font-family="sans-serif" font-size="14" font-style="italic" lengthAdjust="spacing" textLength="73.5547" x="410.2227" y="359.2139">&#171;container&#187;</text><text fill="#000000" font-family="sans-serif" font-size="14" font-weight="bold" lengthAdjust="spacing" textLength="37.2217" x="428.3892" y="375.5107">nginx</text></g><!--cluster stroom_log_sender--><g class="cluster" data-qualified-name="stroom estate.services_host.stroom_log_sender" data-source-line="36" id="ent0016"><rect fill="none" height="130" rx="12.5" ry="12.5" style="stroke:#181818;stroke-width:1;" width="190" x="154" y="344.2188"/><text fill="#000000" font-family="sans-serif" font-size="14" font-style="italic" lengthAdjust="spacing" textLength="73.5547" x="212.2227" y="359.2139">&#171;container&#187;</text><text fill="#000000" font-family="sans-serif" font-size="14" font-weight="bold" lengthAdjust="spacing" textLength="124.332" x="186.834" y="375.5107">stroom-log-sender</text></g><!--cluster stroom_host_1--><g class="cluster" data-qualified-name="stroom estate.stroom_host_1" data-source-line="54" id="ent0020"><polygon fill="none" points="273,540.2188,283,530.2188,442,530.2188,442,655.2188,432,665.2188,273,665.2188,273,540.2188" style="stroke:#181818;stroke-width:1;"/><line style="stroke:#181818;stroke-width:1;" x1="432" x2="442" y1="540.2188" y2="530.2188"/><line style="stroke:#181818;stroke-width:1;" x1="273" x2="432" y1="540.2188" y2="540.2188"/><line style="stroke:#181818;stroke-width:1;" x1="432" x2="432" y1="540.2188" y2="665.2188"/><text fill="#000000" font-family="sans-serif" font-size="14" font-style="italic" lengthAdjust="spacing" textLength="53.6279" x="326.686" y="556.2139">&#171;device&#187;</text><text fill="#000000" font-family="sans-serif" font-size="14" font-weight="bold" lengthAdjust="spacing" textLength="93.249" x="306.8755" y="572.5107">stroom host 1</text></g><!--cluster proxy_host_1--><g class="cluster" data-qualified-name="stroom estate.proxy_host_1" data-source-line="57" id="ent0022"><polygon fill="none" points="39,540.2188,49,530.2188,249,530.2188,249,655.2188,239,665.2188,39,665.2188,39,540.2188" style="stroke:#181818;stroke-width:1;"/><line style="stroke:#181818;stroke-width:1;" x1="239" x2="249" y1="540.2188" y2="530.2188"/><line style="stroke:#181818;stroke-width:1;" x1="39" x2="239" y1="540.2188" y2="540.2188"/><line style="stroke:#181818;stroke-width:1;" x1="239" x2="239" y1="540.2188" y2="665.2188"/><text fill="#000000" font-family="sans-serif" font-size="14" font-style="italic" lengthAdjust="spacing" textLength="53.6279" x="113.186" y="556.2139">&#171;device&#187;</text><text fill="#000000" font-family="sans-serif" font-size="14" font-weight="bold" lengthAdjust="spacing" textLength="82.7354" x="98.6323" y="572.5107">Proxy host 1</text></g><!--cluster stroom_host_2--><g class="cluster" data-qualified-name="stroom estate.stroom_host_2" data-source-line="54" id="ent0030"><polygon fill="none" points="700,540.2188,710,530.2188,869,530.2188,869,655.2188,859,665.2188,700,665.2188,700,540.2188" style="stroke:#181818;stroke-width:1;"/><line style="stroke:#181818;stroke-width:1;" x1="859" x2="869" y1="540.2188" y2="530.2188"/><line style="stroke:#181818;stroke-width:1;" x1="700" x2="859" y1="540.2188" y2="540.2188"/><line style="stroke:#181818;stroke-width:1;" x1="859" x2="859" y1="540.2188" y2="665.2188"/><text fill="#000000" font-family="sans-serif" font-size="14" font-style="italic" lengthAdjust="spacing" textLength="53.6279" x="753.686" y="556.2139">&#171;device&#187;</text><text fill="#000000" font-family="sans-serif" font-size="14" font-weight="bold" lengthAdjust="spacing" textLength="93.249" x="733.8755" y="572.5107">stroom host 2</text></g><!--cluster proxy_host_2--><g class="cluster" data-qualified-name="stroom estate.proxy_host_2" data-source-line="57" id="ent0032"><polygon fill="none" points="466,540.2188,476,530.2188,676,530.2188,676,655.2188,666,665.2188,466,665.2188,466,540.2188" style="stroke:#181818;stroke-width:1;"/><line style="stroke:#181818;stroke-width:1;" x1="666" x2="676" y1="540.2188" y2="530.2188"/><line style="stroke:#181818;stroke-width:1;" x1="466" x2="666" y1="540.2188" y2="540.2188"/><line style="stroke:#181818;stroke-width:1;" x1="666" x2="666" y1="540.2188" y2="665.2188"/><text fill="#000000" font-family="sans-serif" font-size="14" font-style="italic" lengthAdjust="spacing" textLength="53.6279" x="540.186" y="556.2139">&#171;device&#187;</text><text fill="#000000" font-family="sans-serif" font-size="14" font-weight="bold" lengthAdjust="spacing" textLength="82.7354" x="525.6323" y="572.5107">Proxy host 2</text></g><!--entity dataload_client_app--><g class="entity" data-qualified-name="dataload_client_host.dataload_client_app" data-source-line="13" id="ent0003"><polygon fill="#F1F1F1" points="168,144.2188,178,134.2188,308.1191,134.2188,308.1191,186.8125,298.1191,196.8125,168,196.8125,168,144.2188" style="stroke:#181818;stroke-width:0.5;"/><line style="stroke:#181818;stroke-width:0.5;" x1="298.1191" x2="308.1191" y1="144.2188" y2="134.2188"/><line style="stroke:#181818;stroke-width:0.5;" x1="168" x2="298.1191" y1="144.2188" y2="144.2188"/><line style="stroke:#181818;stroke-width:0.5;" x1="298.1191" x2="298.1191" y1="144.2188" y2="196.8125"/><text fill="#000000" font-family="sans-serif" font-size="14" font-style="italic" lengthAdjust="spacing" textLength="83.3164" x="191.4014" y="167.2139">&#171;application&#187;</text><text fill="#000000" font-family="sans-serif" font-size="14" lengthAdjust="spacing" textLength="100.1191" x="183" y="183.5107">Event generator</text></g><!--entity ui_client_browser--><g class="entity" data-qualified-name="ui_client_host.ui_client_browser" data-source-line="17" id="ent0005"><polygon fill="#F1F1F1" points="378.5,144.2188,388.5,134.2188,515.6152,134.2188,515.6152,186.8125,505.6152,196.8125,378.5,196.8125,378.5,144.2188" style="stroke:#181818;stroke-width:0.5;"/><line style="stroke:#181818;stroke-width:0.5;" x1="505.6152" x2="515.6152" y1="144.2188" y2="134.2188"/><line style="stroke:#181818;stroke-width:0.5;" x1="378.5" x2="505.6152" y1="144.2188" y2="144.2188"/><line style="stroke:#181818;stroke-width:0.5;" x1="505.6152" x2="505.6152" y1="144.2188" y2="196.8125"/><text fill="#000000" font-family="sans-serif" font-size="14" font-style="italic" lengthAdjust="spacing" textLength="95.1152" x="394.5" y="167.2139">&#171;web browser&#187;</text><text fill="#000000" font-family="sans-serif" font-size="14" lengthAdjust="spacing" textLength="83.4121" x="400.3516" y="183.5107">Web browser</text></g><!--entity remote_proxy--><g class="entity" data-qualified-name="remote_proxy_host.remote_proxy" data-source-line="21" id="ent0007"><polygon fill="#F1F1F1" points="586,144.2188,596,134.2188,711.5654,134.2188,711.5654,186.8125,701.5654,196.8125,586,196.8125,586,144.2188" style="stroke:#181818;stroke-width:0.5;"/><line style="stroke:#181818;stroke-width:0.5;" x1="701.5654" x2="711.5654" y1="144.2188" y2="134.2188"/><line style="stroke:#181818;stroke-width:0.5;" x1="586" x2="701.5654" y1="144.2188" y2="144.2188"/><line style="stroke:#181818;stroke-width:0.5;" x1="701.5654" x2="701.5654" y1="144.2188" y2="196.8125"/><text fill="#000000" font-family="sans-serif" font-size="14" font-style="italic" lengthAdjust="spacing" textLength="83.3164" x="602.1245" y="167.2139">&#171;application&#187;</text><text fill="#000000" font-family="sans-serif" font-size="14" lengthAdjust="spacing" textLength="85.5654" x="601" y="183.5107">stroom-proxy</text></g><!--entity stroom_db--><g class="entity" data-qualified-name="stroom estate.database_host.stroom_all_dbs.stroom_db" data-source-line="27" id="ent0011"><rect fill="#F1F1F1" height="52.5938" rx="35" ry="35" style="stroke:#181818;stroke-width:0.5;" width="92.8818" x="588.5" y="827.2188"/><text fill="#000000" font-family="sans-serif" font-size="14" font-style="italic" lengthAdjust="spacing" textLength="70.8818" x="599.5" y="850.2139">&#171;database&#187;</text><text fill="#000000" font-family="sans-serif" font-size="14" lengthAdjust="spacing" textLength="45.3496" x="612.2661" y="866.5107">stroom</text></g><!--entity stroom_stats_db--><g class="entity" data-qualified-name="stroom estate.database_host.stroom_all_dbs.stroom_stats_db" data-source-line="28" id="ent0012"><rect fill="#F1F1F1" height="52.5938" rx="35" ry="35" style="stroke:#181818;stroke-width:0.5;" width="92.8818" x="460.5" y="827.2188"/><text fill="#000000" font-family="sans-serif" font-size="14" font-style="italic" lengthAdjust="spacing" textLength="70.8818" x="471.5" y="850.2139">&#171;database&#187;</text><text fill="#000000" font-family="sans-serif" font-size="14" lengthAdjust="spacing" textLength="29.5518" x="492.165" y="866.5107">stats</text></g><!--entity nginx--><g class="entity" data-qualified-name="stroom estate.services_host.nginx_container.nginx" data-source-line="34" id="ent0015"><polygon fill="#F1F1F1" points="384.5,405.2188,394.5,395.2188,509.085,395.2188,509.085,447.8125,499.085,457.8125,384.5,457.8125,384.5,405.2188" style="stroke:#181818;stroke-width:0.5;"/><line style="stroke:#181818;stroke-width:0.5;" x1="499.085" x2="509.085" y1="405.2188" y2="395.2188"/><line style="stroke:#181818;stroke-width:0.5;" x1="384.5" x2="499.085" y1="405.2188" y2="405.2188"/><line style="stroke:#181818;stroke-width:0.5;" x1="499.085" x2="499.085" y1="405.2188" y2="457.8125"/><text fill="#000000" font-family="sans-serif" font-size="14" font-style="italic" lengthAdjust="spacing" textLength="82.585" x="400.5" y="428.2139">&#171;web server&#187;</text><text fill="#000000" font-family="sans-serif" font-size="14" lengthAdjust="spacing" textLength="34.3643" x="424.6104" y="444.5107">nginx</text></g><!--entity stroom_log_sender_script--><g class="entity" data-qualified-name="stroom estate.services_host.stroom_log_sender.stroom_log_sender_script" data-source-line="37" id="ent0017"><polygon fill="#F1F1F1" points="170.5,405.2188,180.5,395.2188,327.1484,395.2188,327.1484,447.8125,317.1484,457.8125,170.5,457.8125,170.5,405.2188" style="stroke:#181818;stroke-width:0.5;"/><line style="stroke:#181818;stroke-width:0.5;" x1="317.1484" x2="327.1484" y1="405.2188" y2="395.2188"/><line style="stroke:#181818;stroke-width:0.5;" x1="170.5" x2="317.1484" y1="405.2188" y2="405.2188"/><line style="stroke:#181818;stroke-width:0.5;" x1="317.1484" x2="317.1484" y1="405.2188" y2="457.8125"/><text fill="#000000" font-family="sans-serif" font-size="14" font-style="italic" lengthAdjust="spacing" textLength="48.583" x="219.5327" y="428.2139">&#171;script&#187;</text><text fill="#000000" font-family="sans-serif" font-size="14" lengthAdjust="spacing" textLength="116.6484" x="185.5" y="444.5107">stroom-log-sender</text></g><!--entity stroom_dropwiz_1--><g class="entity" data-qualified-name="stroom estate.stroom_host_1.stroom_dropwiz_1" data-source-line="55" id="ent0021"><polygon fill="#F1F1F1" points="318,596.2188,328,586.2188,426.2949,586.2188,426.2949,638.8125,416.2949,648.8125,318,648.8125,318,596.2188" style="stroke:#181818;stroke-width:0.5;"/><line style="stroke:#181818;stroke-width:0.5;" x1="416.2949" x2="426.2949" y1="596.2188" y2="586.2188"/><line style="stroke:#181818;stroke-width:0.5;" x1="318" x2="416.2949" y1="596.2188" y2="596.2188"/><line style="stroke:#181818;stroke-width:0.5;" x1="416.2949" x2="416.2949" y1="596.2188" y2="648.8125"/><text fill="#000000" font-family="sans-serif" font-size="14" font-style="italic" lengthAdjust="spacing" textLength="66.2949" x="334" y="619.2139">&#171;java app&#187;</text><text fill="#000000" font-family="sans-serif" font-size="14" lengthAdjust="spacing" textLength="56.6973" x="338.7988" y="635.5107">stroom 1</text></g><!--entity stroom_proxy_dropwiz_1--><g class="entity" data-qualified-name="stroom estate.proxy_host_1.stroom_proxy_dropwiz_1" data-source-line="58" id="ent0023"><polygon fill="#F1F1F1" points="55,596.2188,65,586.2188,233.209,586.2188,233.209,638.8125,223.209,648.8125,55,648.8125,55,596.2188" style="stroke:#181818;stroke-width:0.5;"/><line style="stroke:#181818;stroke-width:0.5;" x1="223.209" x2="233.209" y1="596.2188" y2="586.2188"/><line style="stroke:#181818;stroke-width:0.5;" x1="55" x2="223.209" y1="596.2188" y2="596.2188"/><line style="stroke:#181818;stroke-width:0.5;" x1="223.209" x2="223.209" y1="596.2188" y2="648.8125"/><text fill="#000000" font-family="sans-serif" font-size="14" font-style="italic" lengthAdjust="spacing" textLength="66.2949" x="105.957" y="619.2139">&#171;java app&#187;</text><text fill="#000000" font-family="sans-serif" font-size="14" lengthAdjust="spacing" textLength="138.209" x="70" y="635.5107">stroom-proxy (local) 1</text></g><!--entity stroom_dropwiz_2--><g class="entity" data-qualified-name="stroom estate.stroom_host_2.stroom_dropwiz_2" data-source-line="55" id="ent0031"><polygon fill="#F1F1F1" points="716,596.2188,726,586.2188,824.2949,586.2188,824.2949,638.8125,814.2949,648.8125,716,648.8125,716,596.2188" style="stroke:#181818;stroke-width:0.5;"/><line style="stroke:#181818;stroke-width:0.5;" x1="814.2949" x2="824.2949" y1="596.2188" y2="586.2188"/><line style="stroke:#181818;stroke-width:0.5;" x1="716" x2="814.2949" y1="596.2188" y2="596.2188"/><line style="stroke:#181818;stroke-width:0.5;" x1="814.2949" x2="814.2949" y1="596.2188" y2="648.8125"/><text fill="#000000" font-family="sans-serif" font-size="14" font-style="italic" lengthAdjust="spacing" textLength="66.2949" x="732" y="619.2139">&#171;java app&#187;</text><text fill="#000000" font-family="sans-serif" font-size="14" lengthAdjust="spacing" textLength="56.6973" x="736.7988" y="635.5107">stroom 2</text></g><!--entity stroom_proxy_dropwiz_2--><g class="entity" data-qualified-name="stroom estate.proxy_host_2.stroom_proxy_dropwiz_2" data-source-line="58" id="ent0033"><polygon fill="#F1F1F1" points="482,596.2188,492,586.2188,660.209,586.2188,660.209,638.8125,650.209,648.8125,482,648.8125,482,596.2188" style="stroke:#181818;stroke-width:0.5;"/><line style="stroke:#181818;stroke-width:0.5;" x1="650.209" x2="660.209" y1="596.2188" y2="586.2188"/><line style="stroke:#181818;stroke-width:0.5;" x1="482" x2="650.209" y1="596.2188" y2="596.2188"/><line style="stroke:#181818;stroke-width:0.5;" x1="650.209" x2="650.209" y1="596.2188" y2="648.8125"/><text fill="#000000" font-family="sans-serif" font-size="14" font-style="italic" lengthAdjust="spacing" textLength="66.2949" x="532.957" y="619.2139">&#171;java app&#187;</text><text fill="#000000" font-family="sans-serif" font-size="14" lengthAdjust="spacing" textLength="138.209" x="497" y="635.5107">stroom-proxy (local) 2</text></g><!--reverse link nginx to stroom_log_sender_script--><g class="link" data-entity-1="ent0015" data-entity-2="ent0017" data-link-type="dependency" data-source-line="40" id="lnk19"><path d="M378.45,426.7188 C359.47,426.7188 346.49,426.7188 327.5,426.7188" fill="none" id="nginx-backto-stroom_log_sender_script" style="stroke:#181818;stroke-width:1;"/><polygon fill="#181818" points="384.45,426.7188,375.45,422.7188,379.45,426.7188,375.45,430.7188,384.45,426.7188" style="stroke:#181818;stroke-width:1;"/></g><!--link stroom_dropwiz_1 to stroom_db--><g class="link" data-entity-1="ent0021" data-entity-2="ent0011" data-link-type="dependency" data-source-line="61" id="lnk24"><path d="M408.51,649.3488 C425.03,661.4488 445.43,674.1388 466,681.2188 C488.13,688.8288 552.19,675.2987 571,689.2188 C615.23,721.9388 628.2333,783.837 632.4533,821.017" fill="none" id="stroom_dropwiz_1-to-stroom_db" style="stroke:#181818;stroke-width:1;"/><polygon fill="#181818" points="633.13,826.9788,636.0895,817.5851,632.5661,822.0106,628.1405,818.4873,633.13,826.9788" style="stroke:#181818;stroke-width:1;"/></g><!--link stroom_dropwiz_1 to stroom_stats_db--><g class="link" data-entity-1="ent0021" data-entity-2="ent0012" data-link-type="dependency" data-source-line="62" id="lnk25"><path d="M389.65,649.3087 C416.52,695.8888 464.211,778.562 489.251,821.952" fill="none" id="stroom_dropwiz_1-to-stroom_stats_db" style="stroke:#181818;stroke-width:1;"/><polygon fill="#181818" points="492.25,827.1488,491.216,817.3543,489.7508,822.8181,484.287,821.353,492.25,827.1488" style="stroke:#181818;stroke-width:1;"/></g><!--link stroom_dropwiz_1 to nginx--><g class="link" data-entity-1="ent0021" data-entity-2="ent0015" data-link-type="dependency" data-source-line="64" id="lnk26"><path d="M374.5,585.9488 C384.39,550.8087 404.3346,498.9889 422.3346,463.8489" fill="none" id="stroom_dropwiz_1-to-nginx" style="stroke:#181818;stroke-width:1;"/><polygon fill="#181818" points="425.07,458.5088,417.4067,464.6954,422.7905,462.9589,424.527,468.3426,425.07,458.5088" style="stroke:#181818;stroke-width:1;"/></g><!--link nginx to stroom_dropwiz_1--><g class="link" data-entity-1="ent0015" data-entity-2="ent0021" data-link-type="dependency" data-source-line="68" id="lnk28"><path d="M445.06,458.5088 C435.41,493.6488 415.4942,545.4834 397.2542,580.6234" fill="none" id="nginx-to-stroom_dropwiz_1" style="stroke:#181818;stroke-width:1;"/><polygon fill="#181818" points="394.49,585.9488,402.1865,579.8036,396.7935,581.511,395.0861,576.1179,394.49,585.9488" style="stroke:#181818;stroke-width:1;"/></g><!--link stroom_proxy_dropwiz_1 to nginx--><g class="link" data-entity-1="ent0023" data-entity-2="ent0015" data-link-type="dependency" data-source-line="65" id="lnk27"><path d="M168.06,586.0587 C195.54,562.8488 240.7,532.0088 285,514.2188 C302.63,507.1388 309.65,513.9588 327,506.2188 C353.18,494.5388 374.1062,478.7182 395.3662,462.0682" fill="none" id="stroom_proxy_dropwiz_1-to-nginx" style="stroke:#181818;stroke-width:1;"/><polygon fill="#181818" points="400.09,458.3688,390.538,460.7688,396.1535,461.4516,395.4707,467.0671,400.09,458.3688" style="stroke:#181818;stroke-width:1;"/></g><!--link nginx to stroom_proxy_dropwiz_1--><g class="link" data-entity-1="ent0015" data-entity-2="ent0023" data-link-type="dependency" data-source-line="69" id="lnk29"><path d="M430.56,458.5688 C413.63,475.1688 388.08,494.5788 362,506.2188 C344.65,513.9588 337.63,507.1388 320,514.2188 C275.7,532.0088 235.4941,559.4639 201.5241,582.6739" fill="none" id="nginx-to-stroom_proxy_dropwiz_1" style="stroke:#181818;stroke-width:1;"/><polygon fill="#181818" points="196.57,586.0587,206.2577,584.2842,200.6984,583.238,201.7445,577.6788,196.57,586.0587" style="stroke:#181818;stroke-width:1;"/></g><!--link stroom_dropwiz_2 to stroom_db--><g class="link" data-entity-1="ent0031" data-entity-2="ent0011" data-link-type="dependency" data-source-line="61" id="lnk34"><path d="M752.35,649.3087 C725.48,695.8888 677.789,778.562 652.749,821.952" fill="none" id="stroom_dropwiz_2-to-stroom_db" style="stroke:#181818;stroke-width:1;"/><polygon fill="#181818" points="649.75,827.1488,657.713,821.353,652.2492,822.8181,650.784,817.3543,649.75,827.1488" style="stroke:#181818;stroke-width:1;"/></g><!--link stroom_dropwiz_2 to stroom_stats_db--><g class="link" data-entity-1="ent0031" data-entity-2="ent0012" data-link-type="dependency" data-source-line="62" id="lnk35"><path d="M733.49,649.3488 C716.97,661.4488 696.57,674.1388 676,681.2188 C653.87,688.8288 589.81,675.2987 571,689.2188 C526.77,721.9388 513.7667,783.837 509.5467,821.017" fill="none" id="stroom_dropwiz_2-to-stroom_stats_db" style="stroke:#181818;stroke-width:1;"/><polygon fill="#181818" points="508.87,826.9788,513.8595,818.4873,509.4339,822.0106,505.9105,817.5851,508.87,826.9788" style="stroke:#181818;stroke-width:1;"/></g><!--link stroom_dropwiz_2 to nginx--><g class="link" data-entity-1="ent0031" data-entity-2="ent0015" data-link-type="dependency" data-source-line="64" id="lnk36"><path d="M734.33,586.2188 C713.94,563.6988 687.8,533.7088 659,514.2188 C612.8,482.9588 559.5017,462.8247 515.2417,448.8547" fill="none" id="stroom_dropwiz_2-to-nginx" style="stroke:#181818;stroke-width:1;"/><polygon fill="#181818" points="509.52,447.0488,516.8986,453.5722,514.2881,448.5537,519.3066,445.9432,509.52,447.0488" style="stroke:#181818;stroke-width:1;"/></g><!--link nginx to stroom_dropwiz_2--><g class="link" data-entity-1="ent0015" data-entity-2="ent0031" data-link-type="dependency" data-source-line="68" id="lnk38"><path d="M509.8,439.1287 C562.78,451.9988 637.86,476.2288 694,514.2188 C722.8,533.7088 745.7462,558.6194 759.9062,581.1394" fill="none" id="nginx-to-stroom_dropwiz_2" style="stroke:#181818;stroke-width:1;"/><polygon fill="#181818" points="763.1,586.2188,761.6956,576.4705,760.4385,581.986,754.9231,580.7289,763.1,586.2188" style="stroke:#181818;stroke-width:1;"/></g><!--link stroom_proxy_dropwiz_2 to nginx--><g class="link" data-entity-1="ent0033" data-entity-2="ent0015" data-link-type="dependency" data-source-line="65" id="lnk37"><path d="M541.1,585.9488 C513.99,550.8087 479.3437,498.9266 460.3437,463.7866" fill="none" id="stroom_proxy_dropwiz_2-to-nginx" style="stroke:#181818;stroke-width:1;"/><polygon fill="#181818" points="457.49,458.5088,458.252,468.3281,459.8681,462.907,465.2892,464.5231,457.49,458.5088" style="stroke:#181818;stroke-width:1;"/></g><!--link nginx to stroom_proxy_dropwiz_2--><g class="link" data-entity-1="ent0015" data-entity-2="ent0033" data-link-type="dependency" data-source-line="69" id="lnk39"><path d="M477.48,458.5088 C504.83,493.6488 539.5043,545.5158 558.2643,580.6558" fill="none" id="nginx-to-stroom_proxy_dropwiz_2" style="stroke:#181818;stroke-width:1;"/><polygon fill="#181818" points="561.09,585.9488,560.3801,576.1255,558.7352,581.538,553.3228,579.8931,561.09,585.9488" style="stroke:#181818;stroke-width:1;"/></g><!--link ui_client_browser to nginx--><g class="link" data-entity-1="ent0005" data-entity-2="ent0015" data-link-type="dependency" data-source-line="79" id="lnk40"><path d="M447,197.4488 C447,247.2888 447,339.2088 447,389.0287" fill="none" id="ui_client_browser-to-nginx" style="stroke:#181818;stroke-width:1;"/><polygon fill="#181818" points="447,395.0287,451,386.0287,447,390.0287,443,386.0287,447,395.0287" style="stroke:#181818;stroke-width:1;"/></g><!--link dataload_client_app to nginx--><g class="link" data-entity-1="ent0003" data-entity-2="ent0015" data-link-type="dependency" data-source-line="80" id="lnk41"><path d="M302.99,197.3288 C317.64,206.2188 332.29,216.9088 344,229.2188 C390.86,278.4788 420.0434,347.5678 434.9134,389.2378" fill="none" id="dataload_client_app-to-nginx" style="stroke:#181818;stroke-width:1;"/><polygon fill="#181818" points="436.93,394.8887,437.6725,385.0679,435.2495,390.1796,430.1378,387.7567,436.93,394.8887" style="stroke:#181818;stroke-width:1;"/></g><!--link remote_proxy to nginx--><g class="link" data-entity-1="ent0007" data-entity-2="ent0015" data-link-type="dependency" data-source-line="81" id="lnk42"><path d="M625.03,197.4488 C586.16,247.2888 513.4802,340.4778 474.6202,390.2978" fill="none" id="remote_proxy-to-nginx" style="stroke:#181818;stroke-width:1;"/><polygon fill="#181818" points="470.93,395.0287,479.6193,390.3924,474.0052,391.0863,473.3113,385.4721,470.93,395.0287" style="stroke:#181818;stroke-width:1;"/></g><?plantuml-src bLRVRzis47xNNt4rWhd1vWNjq9SXCR0cGp6Wmx8QHHy5IZhRd2bI8wautf3_VKTIFoXRSZm_60Bllk--koEFjDmAJ81-TtShgvKgeQo5vGkf2eIIFsEnm5n9LHwWm4geGudIUa3ZRb0_yHmDS0aFAj-XZgrC5l3xOVNdPr0ICgOH_bWbI8lM1qxCZikAQLQ2njmokH48_te2hMfPt2ijKT_UaWBBE7qkb_3-G_AI95xVx85PjaOi81USTC5M6Ji3Pg0WWr2iI8CXTGQulItGQIMI42EG_Fhae1iaUcQL7iMpgY8u_GkUCykLN2vx5L-f1bGTixEgwYNK_9BWtp23JAizKHoXcbK2xdkVEEmNB9L5CBxIYqghvqCVNNjZwbVF2eZX9yYndFj6DLX0Ovd5sO3MTIPZ1eSjSIiJQjolTMboIfaGQP4PSYuFvcyny7K_G-rYcqw83zD0Yyo5QFX8-0ICMHEZ_C8azYK9_r6QgtRtTscsv-5Ccb45vORBPu_pNsctqM6mwOTfXz17q6QVkF1-cmn57uLjcYxKPc7eD3Pxhoa2hQPXzNKH5nAb9jUySkK87mDzIT-N2TX2uDekbY7Hk0blrhNCtTQ4An9Ak_JjbMGb_W1NlBWE7XfjhSdkrk5xPmZh5A051wuvF6gLOr7JaBAgdGS8hD7bMmnxRhSWkDmPv-J6srgJZOUP-ARgA5XHf4r23aZ2g61fAyixNpb3weJTjV9d4IITKHuZgFvC7s4ZmmIqFHnQLNl-ptZerdYU8iGwIpHq6T0bmrrqX0oLZW5-L_Nb6ZzMqtodL2E58DA_s1C36dYZn-U8-h6RjoFqHotwdtgRMVvMg9o9wsdrfpruBOSvT7EPGahqszzqvj6oBEZWTKFrOjTsaaQXVtdy3JxHYTgpGnJzTSR-rCTk8ydtpdtKBqZZaD8D9HrBEanFXnrJSCRjL44tMRen49HOjK6xfNdQD_zuFCpUpQwdZUyRuukxWEVtuR4J9tFwREYBCVQMwQs3wpwgO3AdkuIkRskhdszkAi6ahKlnOwxAc_xHzfst6tBOq5oiCszkVQEFMeYRdzuHPm_TqkpSQsujIh2wnjXMqeCptz9SHRgqVFzYQyRotQPv7WgbuO6NdpGUOfTxmOpvUAcVqdJN19zlMsvnLQhTsOXMCsd8v9x2L2V1DriBrE3oBEgpSxj8wHdFIAjx7A-5sgF-A8RrQm_vHRoTypHrCjzocbDOLlO09POPjIJv3m00?></g></svg>