<?plantuml 1.2026.1?><svg xmlns="http://www.w3.org/2000/svg" xmlns:xlink="http://www.w3.org/1999/xlink" contentStyleType="text/css" data-diagram-type="DESCRIPTION" height="950px" preserveAspectRatio="none" style="width:827px;height:950px;background:#FFFFFF;" version="1.1" viewBox="0 0 827 950" width="827px" zoomAndPan="magnify"><title>==Stroom multi-node mixed-economy deployment
Stroom services in Docker
Stroom and MySQL on bare OS</title><defs/><g><g class="title" data-source-line="2"><text fill="#000000" font-family="sans-serif" font-size="16" font-weight="bold" lengthAdjust="spacing" textLength="369.8828" x="221.5586" y="24.8516">Stroom multi-node mixed-economy deployment</text><text fill="#000000" font-family="sans-serif" font-size="14" font-weight="bold" lengthAdjust="spacing" textLength="175.3965" x="318.8018" y="41.6201">Stroom services in Docker</text><text fill="#000000" font-family="sans-serif" font-size="14" font-weight="bold" lengthAdjust="spacing" textLength="204.2646" x="304.3677" y="57.917">Stroom and MySQL on bare OS</text></g><!--cluster dataload_client_host--><g class="cluster" data-qualified-name="dataload_client_host" data-source-line="12" id="ent0002"><polygon fill="none" points="16,88.2188,26,78.2188,229,78.2188,229,203.2188,219,213.2188,16,213.2188,16,88.2188" style="stroke:#181818;stroke-width:1;"/><line style="stroke:#181818;stroke-width:1;" x1="219" x2="229" y1="88.2188" y2="78.2188"/><line style="stroke:#181818;stroke-width:1;" x1="16" x2="219" y1="88.2188" y2="88.2188"/><line style="stroke:#181818;stroke-width:1;" x1="219" x2="219" y1="88.2188" y2="213.2188"/><text fill="#000000" font-family="sans-serif" font-size="14" font-style="italic" lengthAdjust="spacing" textLength="53.6279" x="91.686" y="104.2139">&#171;device&#187;</text><text fill="#000000" font-family="sans-serif" font-size="14" font-weight="bold" lengthAdjust="spacing" textLength="137.0879" x="49.9561" y="120.5107">Datafeed client host</text></g><!--cluster ui_client_host--><g class="cluster" data-qualified-name="ui_client_host" data-source-line="16" id="ent0004"><polygon fill="none" points="253,88.2188,263,78.2188,451,78.2188,451,203.2188,441,213.2188,253,213.2188,253,88.2188" style="stroke:#181818;stroke-width:1;"/><line style="stroke:#181818;stroke-width:1;" x1="441" x2="451" y1="88.2188" y2="78.2188"/><line style="stroke:#181818;stroke-width:1;" x1="253" x2="441" y1="88.2188" y2="88.2188"/><line style="stroke:#181818;stroke-width:1;" x1="441" x2="441" y1="88.2188" y2="213.2188"/><text fill="#000000" font-family="sans-serif" font-size="14" font-style="italic" lengthAdjust="spacing" textLength="53.6279" x="321.186" y="104.2139">&#171;device&#187;</text><text fill="#000000" font-family="sans-serif" font-size="14" font-weight="bold" lengthAdjust="spacing" textLength="122.2676" x="286.8662" y="120.5107">User desktop host</text></g><!--cluster remote_proxy_host--><g class="cluster" data-qualified-name="remote_proxy_host" data-source-line="20" id="ent0006"><polygon fill="none" points="475,88.2188,485,78.2188,731,78.2188,731,203.2188,721,213.2188,475,213.2188,475,88.2188" style="stroke:#181818;stroke-width:1;"/><line style="stroke:#181818;stroke-width:1;" x1="721" x2="731" y1="88.2188" y2="78.2188"/><line style="stroke:#181818;stroke-width:1;" x1="475" x2="721" y1="88.2188" y2="88.2188"/><line style="stroke:#181818;stroke-width:1;" x1="721" x2="721" y1="88.2188" y2="213.2188"/><text fill="#000000" font-family="sans-serif" font-size="14" font-style="italic" lengthAdjust="spacing" textLength="53.6279" x="572.186" y="104.2139">&#171;device&#187;</text><text fill="#000000" font-family="sans-serif" font-size="14" font-weight="bold" lengthAdjust="spacing" textLength="180.6943" x="508.6528" y="120.5107">Remote stroom-proxy host</text></g><!--cluster stroom estate--><g class="cluster" data-qualified-name="stroom estate" data-source-line="24" id="ent0008"><rect fill="none" height="707" rx="2.5" ry="2.5" style="stroke:#181818;stroke-width:1;" width="794" x="27" y="237.2188"/><text fill="#000000" font-family="sans-serif" font-size="14" font-weight="bold" lengthAdjust="spacing" textLength="94.8418" x="376.5791" y="252.2139">stroom estate</text></g><!--cluster database_host--><g class="cluster" data-qualified-name="stroom estate.database_host" data-source-line="25" id="ent0009"><polygon fill="none" points="376,707.2188,386,697.2188,676,697.2188,676,910.2188,666,920.2188,376,920.2188,376,707.2188" style="stroke:#181818;stroke-width:1;"/><line style="stroke:#181818;stroke-width:1;" x1="666" x2="676" y1="707.2188" y2="697.2188"/><line style="stroke:#181818;stroke-width:1;" x1="376" x2="666" y1="707.2188" y2="707.2188"/><line style="stroke:#181818;stroke-width:1;" x1="666" x2="666" y1="707.2188" y2="920.2188"/><text fill="#000000" font-family="sans-serif" font-size="14" font-style="italic" lengthAdjust="spacing" textLength="53.6279" x="495.186" y="723.2139">&#171;device&#187;</text><text fill="#000000" font-family="sans-serif" font-size="14" font-weight="bold" lengthAdjust="spacing" textLength="96.4277" x="473.7861" y="739.5107">Database host</text></g><!--cluster stroom_all_dbs--><g class="cluster" data-qualified-name="stroom estate.database_host.stroom_all_dbs" data-source-line="26" id="ent0010"><path d="M400,771.2188 C400,761.2188 526,761.2188 526,761.2188 C526,761.2188 652,761.2188 652,771.2188 L652,886.2188 C652,896.2188 526,896.2188 526,896.2188 C526,896.2188 400,896.2188 400,886.2188 L400,771.2188" fill="none" style="stroke:#181818;stroke-width:1;"/><path d="M400,771.2188 C400,781.2188 526,781.2188 526,781.2188 C526,781.2188 652,781.2188 652,771.2188" fill="none" style="stroke:#181818;stroke-width:1;"/><text fill="#000000" font-family="sans-serif" font-size="14" font-style="italic" lengthAdjust="spacing" textLength="51.1602" x="500.4199" y="796.2139">&#171;mysql&#187;</text><text fill="#000000" font-family="sans-serif" font-size="14" font-weight="bold" lengthAdjust="spacing" textLength="100.4199" x="475.79" y="812.5107">stroom_all_dbs</text></g><!--cluster services_host--><g class="cluster" data-qualified-name="stroom estate.services_host" data-source-line="32" id="ent0013"><polygon fill="none" points="249,290.2188,259,280.2188,669,280.2188,669,488.2188,659,498.2188,249,498.2188,249,290.2188" style="stroke:#181818;stroke-width:1;"/><line style="stroke:#181818;stroke-width:1;" x1="659" x2="669" y1="290.2188" y2="280.2188"/><line style="stroke:#181818;stroke-width:1;" x1="249" x2="659" y1="290.2188" y2="290.2188"/><line style="stroke:#181818;stroke-width:1;" x1="659" x2="659" y1="290.2188" y2="498.2188"/><text fill="#000000" font-family="sans-serif" font-size="14" font-style="italic" lengthAdjust="spacing" textLength="53.6279" x="428.186" y="306.2139">&#171;device&#187;</text><text fill="#000000" font-family="sans-serif" font-size="14" font-weight="bold" lengthAdjust="spacing" textLength="88.5527" x="410.7236" y="322.5107">Services host</text></g><!--cluster nginx_container--><g class="cluster" data-qualified-name="stroom estate.services_host.nginx_container" data-source-line="33" id="ent0014"><rect fill="none" height="130" rx="12.5" ry="12.5" style="stroke:#181818;stroke-width:1;" width="158" x="273" y="344.2188"/><text fill="#000000" font-family="sans-serif" font-size="14" font-style="italic" lengthAdjust="spacing" textLength="73.5547" x="315.2227" y="359.2139">&#171;container&#187;</text><text fill="#000000" font-family="sans-serif" font-size="14" font-weight="bold" lengthAdjust="spacing" textLength="37.2217" x="333.3892" y="375.5107">nginx</text></g><!--cluster stroom_log_sender--><g class="cluster" data-qualified-name="stroom estate.services_host.stroom_log_sender" data-source-line="36" id="ent0016"><rect fill="none" height="130" rx="12.5" ry="12.5" style="stroke:#181818;stroke-width:1;" width="190" x="455" y="344.2188"/><text fill="#000000" font-family="sans-serif" font-size="14" font-style="italic" lengthAdjust="spacing" textLength="73.5547" x="513.2227" y="359.2139">&#171;container&#187;</text><text fill="#000000" font-family="sans-serif" font-size="14" font-weight="bold" lengthAdjust="spacing" textLength="124.332" x="487.834" y="375.5107">stroom-log-sender</text></g><!--cluster stroom_host_1--><g class="cluster" data-qualified-name="stroom estate.stroom_host_1" data-source-line="53" id="ent0020"><polygon fill="none" points="59,540.2188,69,530.2188,412,530.2188,412,655.2188,402,665.2188,59,665.2188,59,540.2188" style="stroke:#181818;stroke-width:1;"/><line style="stroke:#181818;stroke-width:1;" x1="402" x2="412" y1="540.2188" y2="530.2188"/><line style="stroke:#181818;stroke-width:1;" x1="59" x2="402" y1="540.2188" y2="540.2188"/><line style="stroke:#181818;stroke-width:1;" x1="402" x2="402" y1="540.2188" y2="665.2188"/><text fill="#000000" font-family="sans-serif" font-size="14" font-style="italic" lengthAdjust="spacing" textLength="53.6279" x="204.686" y="556.2139">&#171;device&#187;</text><text fill="#000000" font-family="sans-serif" font-size="14" font-weight="bold" lengthAdjust="spacing" textLength="93.249" x="184.8755" y="572.5107">stroom host 1</text></g><!--cluster stroom_host_2--><g class="cluster" data-qualified-name="stroom estate.stroom_host_2" data-source-line="53" id="ent0029"><polygon fill="none" points="436,540.2188,446,530.2188,789,530.2188,789,655.2188,779,665.2188,436,665.2188,436,540.2188" style="stroke:#181818;stroke-width:1;"/><line style="stroke:#181818;stroke-width:1;" x1="779" x2="789" y1="540.2188" y2="530.2188"/><line style="stroke:#181818;stroke-width:1;" x1="436" x2="779" y1="540.2188" y2="540.2188"/><line style="stroke:#181818;stroke-width:1;" x1="779" x2="779" y1="540.2188" y2="665.2188"/><text fill="#000000" font-family="sans-serif" font-size="14" font-style="italic" lengthAdjust="spacing" textLength="53.6279" x="581.686" y="556.2139">&#171;device&#187;</text><text fill="#000000" font-family="sans-serif" font-size="14" font-weight="bold" lengthAdjust="spacing" textLength="93.249" x="561.8755" y="572.5107">stroom host 2</text></g><!--entity dataload_client_app--><g class="entity" data-qualified-name="dataload_client_host.dataload_client_app" data-source-line="13" id="ent0003"><polygon fill="#F1F1F1" points="73,144.2188,83,134.2188,213.1191,134.2188,213.1191,186.8125,203.1191,196.8125,73,196.8125,73,144.2188" style="stroke:#181818;stroke-width:0.5;"/><line style="stroke:#181818;stroke-width:0.5;" x1="203.1191" x2="213.1191" y1="144.2188" y2="134.2188"/><line style="stroke:#181818;stroke-width:0.5;" x1="73" x2="203.1191" y1="144.2188" y2="144.2188"/><line style="stroke:#181818;stroke-width:0.5;" x1="203.1191" x2="203.1191" y1="144.2188" y2="196.8125"/><text fill="#000000" font-family="sans-serif" font-size="14" font-style="italic" lengthAdjust="spacing" textLength="83.3164" x="96.4014" y="167.2139">&#171;application&#187;</text><text fill="#000000" font-family="sans-serif" font-size="14" lengthAdjust="spacing" textLength="100.1191" x="88" y="183.5107">Event generator</text></g><!--entity ui_client_browser--><g class="entity" data-qualified-name="ui_client_host.ui_client_browser" data-source-line="17" id="ent0005"><polygon fill="#F1F1F1" points="283.5,144.2188,293.5,134.2188,420.6152,134.2188,420.6152,186.8125,410.6152,196.8125,283.5,196.8125,283.5,144.2188" style="stroke:#181818;stroke-width:0.5;"/><line style="stroke:#181818;stroke-width:0.5;" x1="410.6152" x2="420.6152" y1="144.2188" y2="134.2188"/><line style="stroke:#181818;stroke-width:0.5;" x1="283.5" x2="410.6152" y1="144.2188" y2="144.2188"/><line style="stroke:#181818;stroke-width:0.5;" x1="410.6152" x2="410.6152" y1="144.2188" y2="196.8125"/><text fill="#000000" font-family="sans-serif" font-size="14" font-style="italic" lengthAdjust="spacing" textLength="95.1152" x="299.5" y="167.2139">&#171;web browser&#187;</text><text fill="#000000" font-family="sans-serif" font-size="14" lengthAdjust="spacing" textLength="83.4121" x="305.3516" y="183.5107">Web browser</text></g><!--entity remote_proxy--><g class="entity" data-qualified-name="remote_proxy_host.remote_proxy" data-source-line="21" id="ent0007"><polygon fill="#F1F1F1" points="491,144.2188,501,134.2188,616.5654,134.2188,616.5654,186.8125,606.5654,196.8125,491,196.8125,491,144.2188" style="stroke:#181818;stroke-width:0.5;"/><line style="stroke:#181818;stroke-width:0.5;" x1="606.5654" x2="616.5654" y1="144.2188" y2="134.2188"/><line style="stroke:#181818;stroke-width:0.5;" x1="491" x2="606.5654" y1="144.2188" y2="144.2188"/><line style="stroke:#181818;stroke-width:0.5;" x1="606.5654" x2="606.5654" y1="144.2188" y2="196.8125"/><text fill="#000000" font-family="sans-serif" font-size="14" font-style="italic" lengthAdjust="spacing" textLength="83.3164" x="507.1245" y="167.2139">&#171;application&#187;</text><text fill="#000000" font-family="sans-serif" font-size="14" lengthAdjust="spacing" textLength="85.5654" x="506" y="183.5107">stroom-proxy</text></g><!--entity stroom_db--><g class="entity" data-qualified-name="stroom estate.database_host.stroom_all_dbs.stroom_db" data-source-line="27" id="ent0011"><rect fill="#F1F1F1" height="52.5938" rx="35" ry="35" style="stroke:#181818;stroke-width:0.5;" width="92.8818" x="543.5" y="827.2188"/><text fill="#000000" font-family="sans-serif" font-size="14" font-style="italic" lengthAdjust="spacing" textLength="70.8818" x="554.5" y="850.2139">&#171;database&#187;</text><text fill="#000000" font-family="sans-serif" font-size="14" lengthAdjust="spacing" textLength="45.3496" x="567.2661" y="866.5107">stroom</text></g><!--entity stroom_stats_db--><g class="entity" data-qualified-name="stroom estate.database_host.stroom_all_dbs.stroom_stats_db" data-source-line="28" id="ent0012"><rect fill="#F1F1F1" height="52.5938" rx="35" ry="35" style="stroke:#181818;stroke-width:0.5;" width="92.8818" x="415.5" y="827.2188"/><text fill="#000000" font-family="sans-serif" font-size="14" font-style="italic" lengthAdjust="spacing" textLength="70.8818" x="426.5" y="850.2139">&#171;database&#187;</text><text fill="#000000" font-family="sans-serif" font-size="14" lengthAdjust="spacing" textLength="29.5518" x="447.165" y="866.5107">stats</text></g><!--entity nginx--><g class="entity" data-qualified-name="stroom estate.services_host.nginx_container.nginx" data-source-line="34" id="ent0015"><polygon fill="#F1F1F1" points="289.5,405.2188,299.5,395.2188,414.085,395.2188,414.085,447.8125,404.085,457.8125,289.5,457.8125,289.5,405.2188" style="stroke:#181818;stroke-width:0.5;"/><line style="stroke:#181818;stroke-width:0.5;" x1="404.085" x2="414.085" y1="405.2188" y2="395.2188"/><line style="stroke:#181818;stroke-width:0.5;" x1="289.5" x2="404.085" y1="405.2188" y2="405.2188"/><line style="stroke:#181818;stroke-width:0.5;" x1="404.085" x2="404.085" y1="405.2188" y2="457.8125"/><text fill="#000000" font-family="sans-serif" font-size="14" font-style="italic" lengthAdjust="spacing" textLength="82.585" x="305.5" y="428.2139">&#171;web server&#187;</text><text fill="#000000" font-family="sans-serif" font-size="14" lengthAdjust="spacing" textLength="34.3643" x="329.6104" y="444.5107">nginx</text></g><!--entity stroom_log_sender_script--><g class="entity" data-qualified-name="stroom estate.services_host.stroom_log_sender.stroom_log_sender_script" data-source-line="37" id="ent0017"><polygon fill="#F1F1F1" points="471.5,405.2188,481.5,395.2188,628.1484,395.2188,628.1484,447.8125,618.1484,457.8125,471.5,457.8125,471.5,405.2188" style="stroke:#181818;stroke-width:0.5;"/><line style="stroke:#181818;stroke-width:0.5;" x1="618.1484" x2="628.1484" y1="405.2188" y2="395.2188"/><line style="stroke:#181818;stroke-width:0.5;" x1="471.5" x2="618.1484" y1="405.2188" y2="405.2188"/><line style="stroke:#181818;stroke-width:0.5;" x1="618.1484" x2="618.1484" y1="405.2188" y2="457.8125"/><text fill="#000000" font-family="sans-serif" font-size="14" font-style="italic" lengthAdjust="spacing" textLength="48.583" x="520.5327" y="428.2139">&#171;script&#187;</text><text fill="#000000" font-family="sans-serif" font-size="14" lengthAdjust="spacing" textLength="116.6484" x="486.5" y="444.5107">stroom-log-sender</text></g><!--entity stroom_dropwiz_1--><g class="entity" data-qualified-name="stroom estate.stroom_host_1.stroom_dropwiz_1" data-source-line="54" id="ent0021"><polygon fill="#F1F1F1" points="288,596.2188,298,586.2188,396.2949,586.2188,396.2949,638.8125,386.2949,648.8125,288,648.8125,288,596.2188" style="stroke:#181818;stroke-width:0.5;"/><line style="stroke:#181818;stroke-width:0.5;" x1="386.2949" x2="396.2949" y1="596.2188" y2="586.2188"/><line style="stroke:#181818;stroke-width:0.5;" x1="288" x2="386.2949" y1="596.2188" y2="596.2188"/><line style="stroke:#181818;stroke-width:0.5;" x1="386.2949" x2="386.2949" y1="596.2188" y2="648.8125"/><text fill="#000000" font-family="sans-serif" font-size="14" font-style="italic" lengthAdjust="spacing" textLength="66.2949" x="304" y="619.2139">&#171;java app&#187;</text><text fill="#000000" font-family="sans-serif" font-size="14" lengthAdjust="spacing" textLength="56.6973" x="308.7988" y="635.5107">stroom 1</text></g><!--entity stroom_proxy_dropwiz_1--><g class="entity" data-qualified-name="stroom estate.stroom_host_1.stroom_proxy_dropwiz_1" data-source-line="55" id="ent0022"><polygon fill="#F1F1F1" points="75,596.2188,85,586.2188,253.209,586.2188,253.209,638.8125,243.209,648.8125,75,648.8125,75,596.2188" style="stroke:#181818;stroke-width:0.5;"/><line style="stroke:#181818;stroke-width:0.5;" x1="243.209" x2="253.209" y1="596.2188" y2="586.2188"/><line style="stroke:#181818;stroke-width:0.5;" x1="75" x2="243.209" y1="596.2188" y2="596.2188"/><line style="stroke:#181818;stroke-width:0.5;" x1="243.209" x2="243.209" y1="596.2188" y2="648.8125"/><text fill="#000000" font-family="sans-serif" font-size="14" font-style="italic" lengthAdjust="spacing" textLength="66.2949" x="125.957" y="619.2139">&#171;java app&#187;</text><text fill="#000000" font-family="sans-serif" font-size="14" lengthAdjust="spacing" textLength="138.209" x="90" y="635.5107">stroom-proxy (local) 1</text></g><!--entity stroom_dropwiz_2--><g class="entity" data-qualified-name="stroom estate.stroom_host_2.stroom_dropwiz_2" data-source-line="54" id="ent0030"><polygon fill="#F1F1F1" points="665,596.2188,675,586.2188,773.2949,586.2188,773.2949,638.8125,763.2949,648.8125,665,648.8125,665,596.2188" style="stroke:#181818;stroke-width:0.5;"/><line style="stroke:#181818;stroke-width:0.5;" x1="763.2949" x2="773.2949" y1="596.2188" y2="586.2188"/><line style="stroke:#181818;stroke-width:0.5;" x1="665" x2="763.2949" y1="596.2188" y2="596.2188"/><line style="stroke:#181818;stroke-width:0.5;" x1="763.2949" x2="763.2949" y1="596.2188" y2="648.8125"/><text fill="#000000" font-family="sans-serif" font-size="14" font-style="italic" lengthAdjust="spacing" textLength="66.2949" x="681" y="619.2139">&#171;java app&#187;</text><text fill="#000000" font-family="sans-serif" font-size="14" lengthAdjust="spacing" textLength="56.6973" x="685.7988" y="635.5107">stroom 2</text></g><!--entity stroom_proxy_dropwiz_2--><g class="entity" data-qualified-name="stroom estate.stroom_host_2.stroom_proxy_dropwiz_2" data-source-line="55" id="ent0031"><polygon fill="#F1F1F1" points="452,596.2188,462,586.2188,630.209,586.2188,630.209,638.8125,620.209,648.8125,452,648.8125,452,596.2188" style="stroke:#181818;stroke-width:0.5;"/><line style="stroke:#181818;stroke-width:0.5;" x1="620.209" x2="630.209" y1="596.2188" y2="586.2188"/><line style="stroke:#181818;stroke-width:0.5;" x1="452" x2="620.209" y1="596.2188" y2="596.2188"/><line style="stroke:#181818;stroke-width:0.5;" x1="620.209" x2="620.209" y1="596.2188" y2="648.8125"/><text fill="#000000" font-family="sans-serif" font-size="14" font-style="italic" lengthAdjust="spacing" textLength="66.2949" x="502.957" y="619.2139">&#171;java app&#187;</text><text fill="#000000" font-family="sans-serif" font-size="14" lengthAdjust="spacing" textLength="138.209" x="467" y="635.5107">stroom-proxy (local) 2</text></g><!--reverse link nginx to stroom_log_sender_script--><g class="link" data-entity-1="ent0015" data-entity-2="ent0017" data-link-type="dependency" data-source-line="40" id="lnk19"><path d="M420.65,426.7188 C439.59,426.7188 452.54,426.7188 471.49,426.7188" fill="none" id="nginx-backto-stroom_log_sender_script" style="stroke:#181818;stroke-width:1;"/><polygon fill="#181818" points="414.65,426.7188,423.65,430.7188,419.65,426.7188,423.65,422.7188,414.65,426.7188" style="stroke:#181818;stroke-width:1;"/></g><!--link stroom_dropwiz_1 to stroom_db--><g class="link" data-entity-1="ent0021" data-entity-2="ent0011" data-link-type="dependency" data-source-line="58" id="lnk23"><path d="M378.55,649.2188 C395.08,661.2987 415.48,674.0088 436,681.2188 C454.94,687.8688 509.93,677.1788 526,689.2188 C570.03,722.2188 583.1022,784.0083 587.3822,821.0983" fill="none" id="stroom_dropwiz_1-to-stroom_db" style="stroke:#181818;stroke-width:1;"/><polygon fill="#181818" points="588.07,827.0588,591.0119,817.6595,587.4968,822.0917,583.0647,818.5766,588.07,827.0588" style="stroke:#181818;stroke-width:1;"/></g><!--link stroom_dropwiz_1 to stroom_stats_db--><g class="link" data-entity-1="ent0021" data-entity-2="ent0012" data-link-type="dependency" data-source-line="59" id="lnk24"><path d="M357.69,649.3087 C381.58,695.8888 423.8913,778.4203 446.1513,821.8103" fill="none" id="stroom_dropwiz_1-to-stroom_stats_db" style="stroke:#181818;stroke-width:1;"/><polygon fill="#181818" points="448.89,827.1488,448.3409,817.3152,446.6077,822.7,441.2229,820.9669,448.89,827.1488" style="stroke:#181818;stroke-width:1;"/></g><!--link stroom_dropwiz_1 to nginx--><g class="link" data-entity-1="ent0021" data-entity-2="ent0015" data-link-type="dependency" data-source-line="61" id="lnk25"><path d="M333.92,585.9488 C331.72,550.8087 333.7549,499.5657 339.6649,464.4257" fill="none" id="stroom_dropwiz_1-to-nginx" style="stroke:#181818;stroke-width:1;"/><polygon fill="#181818" points="340.66,458.5088,335.2227,466.7207,339.8307,463.4395,343.1119,468.0475,340.66,458.5088" style="stroke:#181818;stroke-width:1;"/></g><!--link nginx to stroom_dropwiz_1--><g class="link" data-entity-1="ent0015" data-entity-2="ent0021" data-link-type="dependency" data-source-line="65" id="lnk27"><path d="M360.65,458.5088 C363.08,493.6488 361.0944,544.8986 354.9444,580.0386" fill="none" id="nginx-to-stroom_dropwiz_1" style="stroke:#181818;stroke-width:1;"/><polygon fill="#181818" points="353.91,585.9488,359.4017,577.7731,354.772,581.0236,351.5214,576.3939,353.91,585.9488" style="stroke:#181818;stroke-width:1;"/></g><!--link stroom_proxy_dropwiz_1 to nginx--><g class="link" data-entity-1="ent0022" data-entity-2="ent0015" data-link-type="dependency" data-source-line="62" id="lnk26"><path d="M184.9,585.9488 C215.8,550.8087 268.1915,497.6639 307.2115,462.5239" fill="none" id="stroom_proxy_dropwiz_1-to-nginx" style="stroke:#181818;stroke-width:1;"/><polygon fill="#181818" points="311.67,458.5088,302.3054,461.5592,307.9546,461.8547,307.659,467.5039,311.67,458.5088" style="stroke:#181818;stroke-width:1;"/></g><!--link nginx to stroom_proxy_dropwiz_1--><g class="link" data-entity-1="ent0015" data-entity-2="ent0022" data-link-type="dependency" data-source-line="66" id="lnk28"><path d="M331.66,458.5088 C300.99,493.6488 248.6102,546.8066 209.3602,581.9466" fill="none" id="nginx-to-stroom_proxy_dropwiz_1" style="stroke:#181818;stroke-width:1;"/><polygon fill="#181818" points="204.89,585.9488,214.2634,582.9257,208.6152,582.6136,208.9273,576.9654,204.89,585.9488" style="stroke:#181818;stroke-width:1;"/></g><!--link stroom_dropwiz_2 to stroom_db--><g class="link" data-entity-1="ent0030" data-entity-2="ent0011" data-link-type="dependency" data-source-line="58" id="lnk32"><path d="M702.14,649.3087 C676.46,695.8888 630.9167,778.5043 606.9967,821.8943" fill="none" id="stroom_dropwiz_2-to-stroom_db" style="stroke:#181818;stroke-width:1;"/><polygon fill="#181818" points="604.1,827.1488,611.948,821.1982,606.5139,822.77,604.942,817.336,604.1,827.1488" style="stroke:#181818;stroke-width:1;"/></g><!--link stroom_dropwiz_2 to stroom_stats_db--><g class="link" data-entity-1="ent0030" data-entity-2="ent0012" data-link-type="dependency" data-source-line="59" id="lnk33"><path d="M692.67,649.4288 C680.42,661.5487 664.83,674.2288 648,681.2188 C622.91,691.6388 547.93,673.1788 526,689.2188 C481.59,721.7088 468.6558,783.6958 464.4958,820.9558" fill="none" id="stroom_dropwiz_2-to-stroom_stats_db" style="stroke:#181818;stroke-width:1;"/><polygon fill="#181818" points="463.83,826.9188,468.8039,818.4182,464.3848,821.9496,460.8533,817.5305,463.83,826.9188" style="stroke:#181818;stroke-width:1;"/></g><!--link stroom_dropwiz_2 to nginx--><g class="link" data-entity-1="ent0030" data-entity-2="ent0015" data-link-type="dependency" data-source-line="61" id="lnk34"><path d="M693.32,586.1188 C678.67,561.9488 659.26,529.7688 631,514.2188 C612.2,503.8688 458.19,513.5088 438,506.2188 C410.3,496.2188 388.1327,480.2198 371.3127,462.7598" fill="none" id="stroom_dropwiz_2-to-nginx" style="stroke:#181818;stroke-width:1;"/><polygon fill="#181818" points="367.15,458.4388,370.5133,467.6955,370.6189,462.0397,376.2748,462.1453,367.15,458.4388" style="stroke:#181818;stroke-width:1;"/></g><!--link nginx to stroom_dropwiz_2--><g class="link" data-entity-1="ent0015" data-entity-2="ent0030" data-link-type="dependency" data-source-line="65" id="lnk36"><path d="M397.46,458.4388 C418.97,475.8988 445.3,496.2188 473,506.2188 C493.19,513.5088 647.2,503.8688 666,514.2188 C694.26,529.7688 711.838,556.2353 719.588,580.4053" fill="none" id="nginx-to-stroom_dropwiz_2" style="stroke:#181818;stroke-width:1;"/><polygon fill="#181818" points="721.42,586.1188,722.481,576.3272,719.8933,581.3575,714.863,578.7699,721.42,586.1188" style="stroke:#181818;stroke-width:1;"/></g><!--link stroom_proxy_dropwiz_2 to nginx--><g class="link" data-entity-1="ent0031" data-entity-2="ent0015" data-link-type="dependency" data-source-line="62" id="lnk35"><path d="M500.52,585.9488 C461.32,550.8087 408.1458,498.1424 377.0558,463.0024" fill="none" id="stroom_proxy_dropwiz_2-to-nginx" style="stroke:#181818;stroke-width:1;"/><polygon fill="#181818" points="373.08,458.5088,376.0479,467.8998,376.3931,462.2535,382.0395,462.5988,373.08,458.5088" style="stroke:#181818;stroke-width:1;"/></g><!--link nginx to stroom_proxy_dropwiz_2--><g class="link" data-entity-1="ent0015" data-entity-2="ent0031" data-link-type="dependency" data-source-line="66" id="lnk37"><path d="M393.07,458.5088 C432.51,493.6488 485.7015,546.2998 516.5515,581.4398" fill="none" id="nginx-to-stroom_proxy_dropwiz_2" style="stroke:#181818;stroke-width:1;"/><polygon fill="#181818" points="520.51,585.9488,517.5783,576.5464,517.2113,582.1913,511.5663,581.8243,520.51,585.9488" style="stroke:#181818;stroke-width:1;"/></g><!--link ui_client_browser to nginx--><g class="link" data-entity-1="ent0005" data-entity-2="ent0015" data-link-type="dependency" data-source-line="76" id="lnk38"><path d="M352,197.4488 C352,247.2888 352,339.2088 352,389.0287" fill="none" id="ui_client_browser-to-nginx" style="stroke:#181818;stroke-width:1;"/><polygon fill="#181818" points="352,395.0287,356,386.0287,352,390.0287,348,386.0287,352,395.0287" style="stroke:#181818;stroke-width:1;"/></g><!--link dataload_client_app to nginx--><g class="link" data-entity-1="ent0003" data-entity-2="ent0015" data-link-type="dependency" data-source-line="77" id="lnk39"><path d="M167.8,197.4488 C208.02,247.2888 283.2616,340.5398 323.4716,390.3598" fill="none" id="dataload_client_app-to-nginx" style="stroke:#181818;stroke-width:1;"/><polygon fill="#181818" points="327.24,395.0287,324.7001,385.513,324.0997,391.1379,318.4748,390.5375,327.24,395.0287" style="stroke:#181818;stroke-width:1;"/></g><!--link remote_proxy to nginx--><g class="link" data-entity-1="ent0007" data-entity-2="ent0015" data-link-type="dependency" data-source-line="78" id="lnk40"><path d="M494.37,197.2787 C480.35,206.2888 466.23,217.0488 455,229.2188 C408.9,279.1788 379.467,348.0224 364.347,389.4524" fill="none" id="remote_proxy-to-nginx" style="stroke:#181818;stroke-width:1;"/><polygon fill="#181818" points="362.29,395.0888,369.1331,388.0055,364.0042,390.3918,361.6179,385.2628,362.29,395.0888" style="stroke:#181818;stroke-width:1;"/></g><?plantuml-src ZLRRZjis47sklc9YBEeiMdUH57qfTWqqkq5G847I64KU1KeQowmfKY6fzJh1_dk7f2wKBJlMWo1mvioSkOgMMu49q7Dtjx9QgGggHbY-aAf0gFWJ5WlCbLJL7WgiXTfNAAq7jEe6zIFFqG2NyA3oBUfOocG17_QhVzw3af0nZV1nbI0TMkyuCLikQwPP1HfposGf4BudFsdLoE9UQOdwzfRSMyRfSxc4rtyapqdYoSqUc6Lhn09omOaKR9InCs062X88nOeq258dWDlR0XrHClBTCmn6tZuwQ8badbcb9_6ihWbERy5pPhcIo-N0ubzA0AN6RAsg1meDlyJv5ymWqsf79WvGxIa1TuDExFOpLieY69_cHQtLqtxmhhqmzQTd2SJm8-HKp4ELMYoWiSpYR6JMLIPZ1iSbSISdsBYdKsbZIfaGQP4PKgxsvgiOwRh7KBbOsHFnRbfeaJaNhJqYVWB6h8bH_k0azZa9xoZCLTVwVPZTC9m9CygWBBbyyZZ_bVQD3gEc7uSTN1z0spvnxdsRZ4aVk6sBBbIvC3IARU-rIQ3JD9p-cCI5XbAJQrwxT8IF4RzagCi9s4BWsYwM8T2u22_MZSnTQy8L4QKkVNabMOM_mXKlheE6Hjjeahjp-CK9mZavwC31rXm-QPLZqT26ighR1mYivULB33jkDo2ut1gdv7RRMfECXuNuekvDiA98su0Sa8XHmjAEbbU-SeBK4RlhwCyYI3gZE2PGNOThLU_ujsby9pnl8co7iuR6AYDpoRWL3f0XNJ70jyOGy_HidBPtR6eY4MJqF_R8WBRMmT1F6cstvakXSYQkJxiuJjIqes7Ovj1lG78fqJUQwSMJt1VKultwkbYrsrcHwxy-_Gtlg7TtR1zv_x75ORvYjOdW1-N1wsUanKFXXfHE1HtsbCDECJYZTioWd-5-u08Jgqgq6zfSGqST3kBirUpwjF1rAtnslxhvVRXMnC4S_w27P4pT6WRfwCSQPJ2PqzQc7wMrzPytDxLWqZQL-2rNrSrmD_hPomqfbBI1cioBEzteen7YvlTNP7E0RcXBxJIt5YLOtM0ig-XUbszeWo7z7dpzOcd6yctPNiI4ql30gtSQzx7AlM36lBbKJsdQwa7douPRN5LgUzQZrKmQ4haR9-L9y79ZWGfSdKMzTseNCJsZ6N5rrz2rK3lKRyGuVzsGNsItLpvjEfblEEqfh6gxXmghZ4gI_0y0?></g></svg>